<?xml version="1.0" encoding="utf-8"?>
<svg xmlns="http://www.w3.org/2000/svg" xmlns:xlink="http://www.w3.org/1999/xlink" width="600" height="400" viewBox="0 0 2400 1600">
<defs>
  <clipPath id="clip6300">
    <rect x="0" y="0" width="2400" height="1600"/>
  </clipPath>
</defs>
<polygon clip-path="url(#clip6300)" points="
0,1600 2400,1600 2400,0 0,0 
  " fill="#ffffff" fill-rule="evenodd" fill-opacity="1"/>
<defs>
  <clipPath id="clip6301">
    <rect x="480" y="0" width="1681" height="1600"/>
  </clipPath>
</defs>
<polygon clip-path="url(#clip6300)" points="
182.008,1487.47 2112.76,1487.47 2112.76,47.2441 182.008,47.2441 
  " fill="#ffffff" fill-rule="evenodd" fill-opacity="1"/>
<defs>
  <clipPath id="clip6302">
    <rect x="182" y="47" width="1932" height="1441"/>
  </clipPath>
</defs>
<polyline clip-path="url(#clip6302)" style="stroke:#000000; stroke-width:2; stroke-opacity:0.1; fill:none" points="
  388.44,1487.47 388.44,47.2441 
  "/>
<polyline clip-path="url(#clip6302)" style="stroke:#000000; stroke-width:2; stroke-opacity:0.1; fill:none" points="
  767.911,1487.47 767.911,47.2441 
  "/>
<polyline clip-path="url(#clip6302)" style="stroke:#000000; stroke-width:2; stroke-opacity:0.1; fill:none" points="
  1147.38,1487.47 1147.38,47.2441 
  "/>
<polyline clip-path="url(#clip6302)" style="stroke:#000000; stroke-width:2; stroke-opacity:0.1; fill:none" points="
  1526.85,1487.47 1526.85,47.2441 
  "/>
<polyline clip-path="url(#clip6302)" style="stroke:#000000; stroke-width:2; stroke-opacity:0.1; fill:none" points="
  1906.32,1487.47 1906.32,47.2441 
  "/>
<polyline clip-path="url(#clip6302)" style="stroke:#000000; stroke-width:2; stroke-opacity:0.1; fill:none" points="
  182.008,1333.49 2112.76,1333.49 
  "/>
<polyline clip-path="url(#clip6302)" style="stroke:#000000; stroke-width:2; stroke-opacity:0.1; fill:none" points="
  182.008,1050.42 2112.76,1050.42 
  "/>
<polyline clip-path="url(#clip6302)" style="stroke:#000000; stroke-width:2; stroke-opacity:0.1; fill:none" points="
  182.008,767.359 2112.76,767.359 
  "/>
<polyline clip-path="url(#clip6302)" style="stroke:#000000; stroke-width:2; stroke-opacity:0.1; fill:none" points="
  182.008,484.295 2112.76,484.295 
  "/>
<polyline clip-path="url(#clip6302)" style="stroke:#000000; stroke-width:2; stroke-opacity:0.1; fill:none" points="
  182.008,201.231 2112.76,201.231 
  "/>
<polyline clip-path="url(#clip6300)" style="stroke:#000000; stroke-width:4; stroke-opacity:1; fill:none" points="
  182.008,1487.47 2112.76,1487.47 
  "/>
<polyline clip-path="url(#clip6300)" style="stroke:#000000; stroke-width:4; stroke-opacity:1; fill:none" points="
  182.008,1487.47 182.008,47.2441 
  "/>
<polyline clip-path="url(#clip6300)" style="stroke:#000000; stroke-width:4; stroke-opacity:1; fill:none" points="
  388.44,1487.47 388.44,1465.87 
  "/>
<polyline clip-path="url(#clip6300)" style="stroke:#000000; stroke-width:4; stroke-opacity:1; fill:none" points="
  767.911,1487.47 767.911,1465.87 
  "/>
<polyline clip-path="url(#clip6300)" style="stroke:#000000; stroke-width:4; stroke-opacity:1; fill:none" points="
  1147.38,1487.47 1147.38,1465.87 
  "/>
<polyline clip-path="url(#clip6300)" style="stroke:#000000; stroke-width:4; stroke-opacity:1; fill:none" points="
  1526.85,1487.47 1526.85,1465.87 
  "/>
<polyline clip-path="url(#clip6300)" style="stroke:#000000; stroke-width:4; stroke-opacity:1; fill:none" points="
  1906.32,1487.47 1906.32,1465.87 
  "/>
<polyline clip-path="url(#clip6300)" style="stroke:#000000; stroke-width:4; stroke-opacity:1; fill:none" points="
  182.008,1333.49 210.969,1333.49 
  "/>
<polyline clip-path="url(#clip6300)" style="stroke:#000000; stroke-width:4; stroke-opacity:1; fill:none" points="
  182.008,1050.42 210.969,1050.42 
  "/>
<polyline clip-path="url(#clip6300)" style="stroke:#000000; stroke-width:4; stroke-opacity:1; fill:none" points="
  182.008,767.359 210.969,767.359 
  "/>
<polyline clip-path="url(#clip6300)" style="stroke:#000000; stroke-width:4; stroke-opacity:1; fill:none" points="
  182.008,484.295 210.969,484.295 
  "/>
<polyline clip-path="url(#clip6300)" style="stroke:#000000; stroke-width:4; stroke-opacity:1; fill:none" points="
  182.008,201.231 210.969,201.231 
  "/>
<g clip-path="url(#clip6300)">
<text style="fill:#000000; fill-opacity:1; font-family:Arial,Helvetica Neue,Helvetica,sans-serif; font-size:48px; text-anchor:middle;" transform="rotate(0, 388.44, 1541.47)" x="388.44" y="1541.47">-5.0</text>
</g>
<g clip-path="url(#clip6300)">
<text style="fill:#000000; fill-opacity:1; font-family:Arial,Helvetica Neue,Helvetica,sans-serif; font-size:48px; text-anchor:middle;" transform="rotate(0, 767.911, 1541.47)" x="767.911" y="1541.47">-2.5</text>
</g>
<g clip-path="url(#clip6300)">
<text style="fill:#000000; fill-opacity:1; font-family:Arial,Helvetica Neue,Helvetica,sans-serif; font-size:48px; text-anchor:middle;" transform="rotate(0, 1147.38, 1541.47)" x="1147.38" y="1541.47">0.0</text>
</g>
<g clip-path="url(#clip6300)">
<text style="fill:#000000; fill-opacity:1; font-family:Arial,Helvetica Neue,Helvetica,sans-serif; font-size:48px; text-anchor:middle;" transform="rotate(0, 1526.85, 1541.47)" x="1526.85" y="1541.47">2.5</text>
</g>
<g clip-path="url(#clip6300)">
<text style="fill:#000000; fill-opacity:1; font-family:Arial,Helvetica Neue,Helvetica,sans-serif; font-size:48px; text-anchor:middle;" transform="rotate(0, 1906.32, 1541.47)" x="1906.32" y="1541.47">5.0</text>
</g>
<g clip-path="url(#clip6300)">
<text style="fill:#000000; fill-opacity:1; font-family:Arial,Helvetica Neue,Helvetica,sans-serif; font-size:48px; text-anchor:end;" transform="rotate(0, 158.008, 1350.99)" x="158.008" y="1350.99">-5.0</text>
</g>
<g clip-path="url(#clip6300)">
<text style="fill:#000000; fill-opacity:1; font-family:Arial,Helvetica Neue,Helvetica,sans-serif; font-size:48px; text-anchor:end;" transform="rotate(0, 158.008, 1067.92)" x="158.008" y="1067.92">-2.5</text>
</g>
<g clip-path="url(#clip6300)">
<text style="fill:#000000; fill-opacity:1; font-family:Arial,Helvetica Neue,Helvetica,sans-serif; font-size:48px; text-anchor:end;" transform="rotate(0, 158.008, 784.859)" x="158.008" y="784.859">0.0</text>
</g>
<g clip-path="url(#clip6300)">
<text style="fill:#000000; fill-opacity:1; font-family:Arial,Helvetica Neue,Helvetica,sans-serif; font-size:48px; text-anchor:end;" transform="rotate(0, 158.008, 501.795)" x="158.008" y="501.795">2.5</text>
</g>
<g clip-path="url(#clip6300)">
<text style="fill:#000000; fill-opacity:1; font-family:Arial,Helvetica Neue,Helvetica,sans-serif; font-size:48px; text-anchor:end;" transform="rotate(0, 158.008, 218.731)" x="158.008" y="218.731">5.0</text>
</g>
<circle clip-path="url(#clip6302)" style="fill:#000000; stroke:none; fill-opacity:1" cx="1626.85" cy="226.453" r="18"/>
<circle clip-path="url(#clip6302)" style="fill:#ff0000; stroke:none; fill-opacity:1" cx="1626.85" cy="226.453" r="14"/>
<circle clip-path="url(#clip6302)" style="fill:#000000; stroke:none; fill-opacity:1" cx="1747.04" cy="219.232" r="18"/>
<circle clip-path="url(#clip6302)" style="fill:#ff0000; stroke:none; fill-opacity:1" cx="1747.04" cy="219.232" r="14"/>
<circle clip-path="url(#clip6302)" style="fill:#000000; stroke:none; fill-opacity:1" cx="1610.04" cy="228.859" r="18"/>
<circle clip-path="url(#clip6302)" style="fill:#ff0000; stroke:none; fill-opacity:1" cx="1610.04" cy="228.859" r="14"/>
<circle clip-path="url(#clip6302)" style="fill:#000000; stroke:none; fill-opacity:1" cx="1537.54" cy="308.278" r="18"/>
<circle clip-path="url(#clip6302)" style="fill:#ff0000; stroke:none; fill-opacity:1" cx="1537.54" cy="308.278" r="14"/>
<circle clip-path="url(#clip6302)" style="fill:#000000; stroke:none; fill-opacity:1" cx="1765.63" cy="292.353" r="18"/>
<circle clip-path="url(#clip6302)" style="fill:#ff0000; stroke:none; fill-opacity:1" cx="1765.63" cy="292.353" r="14"/>
<circle clip-path="url(#clip6302)" style="fill:#000000; stroke:none; fill-opacity:1" cx="1806.7" cy="693.341" r="18"/>
<circle clip-path="url(#clip6302)" style="fill:#ff0000; stroke:none; fill-opacity:1" cx="1806.7" cy="693.341" r="14"/>
<circle clip-path="url(#clip6302)" style="fill:#000000; stroke:none; fill-opacity:1" cx="1360.29" cy="662.575" r="18"/>
<circle clip-path="url(#clip6302)" style="fill:#ff0000; stroke:none; fill-opacity:1" cx="1360.29" cy="662.575" r="14"/>
<circle clip-path="url(#clip6302)" style="fill:#000000; stroke:none; fill-opacity:1" cx="1427.24" cy="550.287" r="18"/>
<circle clip-path="url(#clip6302)" style="fill:#ff0000; stroke:none; fill-opacity:1" cx="1427.24" cy="550.287" r="14"/>
<circle clip-path="url(#clip6302)" style="fill:#000000; stroke:none; fill-opacity:1" cx="1391.88" cy="645.625" r="18"/>
<circle clip-path="url(#clip6302)" style="fill:#ff0000; stroke:none; fill-opacity:1" cx="1391.88" cy="645.625" r="14"/>
<circle clip-path="url(#clip6302)" style="fill:#000000; stroke:none; fill-opacity:1" cx="1619.22" cy="520.093" r="18"/>
<circle clip-path="url(#clip6302)" style="fill:#ff0000; stroke:none; fill-opacity:1" cx="1619.22" cy="520.093" r="14"/>
<circle clip-path="url(#clip6302)" style="fill:#000000; stroke:none; fill-opacity:1" cx="1666.49" cy="236.329" r="18"/>
<circle clip-path="url(#clip6302)" style="fill:#ff0000; stroke:none; fill-opacity:1" cx="1666.49" cy="236.329" r="14"/>
<circle clip-path="url(#clip6302)" style="fill:#000000; stroke:none; fill-opacity:1" cx="1230.73" cy="487.1" r="18"/>
<circle clip-path="url(#clip6302)" style="fill:#ff0000; stroke:none; fill-opacity:1" cx="1230.73" cy="487.1" r="14"/>
<circle clip-path="url(#clip6302)" style="fill:#000000; stroke:none; fill-opacity:1" cx="1268.65" cy="584.966" r="18"/>
<circle clip-path="url(#clip6302)" style="fill:#ff0000; stroke:none; fill-opacity:1" cx="1268.65" cy="584.966" r="14"/>
<circle clip-path="url(#clip6302)" style="fill:#000000; stroke:none; fill-opacity:1" cx="1876.78" cy="704.724" r="18"/>
<circle clip-path="url(#clip6302)" style="fill:#ff0000; stroke:none; fill-opacity:1" cx="1876.78" cy="704.724" r="14"/>
<circle clip-path="url(#clip6302)" style="fill:#000000; stroke:none; fill-opacity:1" cx="1665" cy="687.287" r="18"/>
<circle clip-path="url(#clip6302)" style="fill:#ff0000; stroke:none; fill-opacity:1" cx="1665" cy="687.287" r="14"/>
<circle clip-path="url(#clip6302)" style="fill:#000000; stroke:none; fill-opacity:1" cx="1300.11" cy="457.941" r="18"/>
<circle clip-path="url(#clip6302)" style="fill:#ff0000; stroke:none; fill-opacity:1" cx="1300.11" cy="457.941" r="14"/>
<circle clip-path="url(#clip6302)" style="fill:#000000; stroke:none; fill-opacity:1" cx="1411.81" cy="337.781" r="18"/>
<circle clip-path="url(#clip6302)" style="fill:#ff0000; stroke:none; fill-opacity:1" cx="1411.81" cy="337.781" r="14"/>
<circle clip-path="url(#clip6302)" style="fill:#000000; stroke:none; fill-opacity:1" cx="1668.39" cy="558.372" r="18"/>
<circle clip-path="url(#clip6302)" style="fill:#ff0000; stroke:none; fill-opacity:1" cx="1668.39" cy="558.372" r="14"/>
<circle clip-path="url(#clip6302)" style="fill:#000000; stroke:none; fill-opacity:1" cx="1261.97" cy="481.881" r="18"/>
<circle clip-path="url(#clip6302)" style="fill:#ff0000; stroke:none; fill-opacity:1" cx="1261.97" cy="481.881" r="14"/>
<circle clip-path="url(#clip6302)" style="fill:#000000; stroke:none; fill-opacity:1" cx="1798.89" cy="264.871" r="18"/>
<circle clip-path="url(#clip6302)" style="fill:#ff0000; stroke:none; fill-opacity:1" cx="1798.89" cy="264.871" r="14"/>
<circle clip-path="url(#clip6302)" style="fill:#000000; stroke:none; fill-opacity:1" cx="420.058" cy="1005.51" r="18"/>
<circle clip-path="url(#clip6302)" style="fill:#ff0000; stroke:none; fill-opacity:1" cx="420.058" cy="1005.51" r="14"/>
<circle clip-path="url(#clip6302)" style="fill:#000000; stroke:none; fill-opacity:1" cx="865.45" cy="1128.96" r="18"/>
<circle clip-path="url(#clip6302)" style="fill:#ff0000; stroke:none; fill-opacity:1" cx="865.45" cy="1128.96" r="14"/>
<circle clip-path="url(#clip6302)" style="fill:#000000; stroke:none; fill-opacity:1" cx="637.827" cy="1065.96" r="18"/>
<circle clip-path="url(#clip6302)" style="fill:#ff0000; stroke:none; fill-opacity:1" cx="637.827" cy="1065.96" r="14"/>
<circle clip-path="url(#clip6302)" style="fill:#000000; stroke:none; fill-opacity:1" cx="595.047" cy="1021.66" r="18"/>
<circle clip-path="url(#clip6302)" style="fill:#ff0000; stroke:none; fill-opacity:1" cx="595.047" cy="1021.66" r="14"/>
<circle clip-path="url(#clip6302)" style="fill:#000000; stroke:none; fill-opacity:1" cx="642.927" cy="1113.08" r="18"/>
<circle clip-path="url(#clip6302)" style="fill:#ff0000; stroke:none; fill-opacity:1" cx="642.927" cy="1113.08" r="14"/>
<circle clip-path="url(#clip6302)" style="fill:#000000; stroke:none; fill-opacity:1" cx="491.244" cy="1291.6" r="18"/>
<circle clip-path="url(#clip6302)" style="fill:#ff0000; stroke:none; fill-opacity:1" cx="491.244" cy="1291.6" r="14"/>
<circle clip-path="url(#clip6302)" style="fill:#000000; stroke:none; fill-opacity:1" cx="489.073" cy="1232.06" r="18"/>
<circle clip-path="url(#clip6302)" style="fill:#ff0000; stroke:none; fill-opacity:1" cx="489.073" cy="1232.06" r="14"/>
<circle clip-path="url(#clip6302)" style="fill:#000000; stroke:none; fill-opacity:1" cx="582.017" cy="1039.97" r="18"/>
<circle clip-path="url(#clip6302)" style="fill:#ff0000; stroke:none; fill-opacity:1" cx="582.017" cy="1039.97" r="14"/>
<circle clip-path="url(#clip6302)" style="fill:#000000; stroke:none; fill-opacity:1" cx="665.042" cy="1222.32" r="18"/>
<circle clip-path="url(#clip6302)" style="fill:#ff0000; stroke:none; fill-opacity:1" cx="665.042" cy="1222.32" r="14"/>
<circle clip-path="url(#clip6302)" style="fill:#000000; stroke:none; fill-opacity:1" cx="729.643" cy="1149.03" r="18"/>
<circle clip-path="url(#clip6302)" style="fill:#ff0000; stroke:none; fill-opacity:1" cx="729.643" cy="1149.03" r="14"/>
<circle clip-path="url(#clip6302)" style="fill:#000000; stroke:none; fill-opacity:1" cx="838.442" cy="1229.18" r="18"/>
<circle clip-path="url(#clip6302)" style="fill:#ff0000; stroke:none; fill-opacity:1" cx="838.442" cy="1229.18" r="14"/>
<circle clip-path="url(#clip6302)" style="fill:#000000; stroke:none; fill-opacity:1" cx="740.638" cy="858.118" r="18"/>
<circle clip-path="url(#clip6302)" style="fill:#ff0000; stroke:none; fill-opacity:1" cx="740.638" cy="858.118" r="14"/>
<circle clip-path="url(#clip6302)" style="fill:#000000; stroke:none; fill-opacity:1" cx="566.521" cy="911.985" r="18"/>
<circle clip-path="url(#clip6302)" style="fill:#ff0000; stroke:none; fill-opacity:1" cx="566.521" cy="911.985" r="14"/>
<circle clip-path="url(#clip6302)" style="fill:#000000; stroke:none; fill-opacity:1" cx="795.209" cy="1282.89" r="18"/>
<circle clip-path="url(#clip6302)" style="fill:#ff0000; stroke:none; fill-opacity:1" cx="795.209" cy="1282.89" r="14"/>
<circle clip-path="url(#clip6302)" style="fill:#000000; stroke:none; fill-opacity:1" cx="588.205" cy="1010.3" r="18"/>
<circle clip-path="url(#clip6302)" style="fill:#ff0000; stroke:none; fill-opacity:1" cx="588.205" cy="1010.3" r="14"/>
<circle clip-path="url(#clip6302)" style="fill:#000000; stroke:none; fill-opacity:1" cx="585.554" cy="1265.87" r="18"/>
<circle clip-path="url(#clip6302)" style="fill:#ff0000; stroke:none; fill-opacity:1" cx="585.554" cy="1265.87" r="14"/>
<circle clip-path="url(#clip6302)" style="fill:#000000; stroke:none; fill-opacity:1" cx="810.673" cy="938.514" r="18"/>
<circle clip-path="url(#clip6302)" style="fill:#ff0000; stroke:none; fill-opacity:1" cx="810.673" cy="938.514" r="14"/>
<circle clip-path="url(#clip6302)" style="fill:#000000; stroke:none; fill-opacity:1" cx="842.161" cy="890.598" r="18"/>
<circle clip-path="url(#clip6302)" style="fill:#ff0000; stroke:none; fill-opacity:1" cx="842.161" cy="890.598" r="14"/>
<circle clip-path="url(#clip6302)" style="fill:#000000; stroke:none; fill-opacity:1" cx="903.122" cy="1313.29" r="18"/>
<circle clip-path="url(#clip6302)" style="fill:#ff0000; stroke:none; fill-opacity:1" cx="903.122" cy="1313.29" r="14"/>
<circle clip-path="url(#clip6302)" style="fill:#000000; stroke:none; fill-opacity:1" cx="413.634" cy="930.762" r="18"/>
<circle clip-path="url(#clip6302)" style="fill:#ff0000; stroke:none; fill-opacity:1" cx="413.634" cy="930.762" r="14"/>
<circle clip-path="url(#clip6302)" style="fill:#000000; stroke:none; fill-opacity:1" cx="1517.8" cy="1185.18" r="18"/>
<circle clip-path="url(#clip6302)" style="fill:#0000ff; stroke:none; fill-opacity:1" cx="1517.8" cy="1185.18" r="14"/>
<circle clip-path="url(#clip6302)" style="fill:#000000; stroke:none; fill-opacity:1" cx="1317.3" cy="1021.34" r="18"/>
<circle clip-path="url(#clip6302)" style="fill:#0000ff; stroke:none; fill-opacity:1" cx="1317.3" cy="1021.34" r="14"/>
<circle clip-path="url(#clip6302)" style="fill:#000000; stroke:none; fill-opacity:1" cx="1638.62" cy="973.889" r="18"/>
<circle clip-path="url(#clip6302)" style="fill:#0000ff; stroke:none; fill-opacity:1" cx="1638.62" cy="973.889" r="14"/>
<circle clip-path="url(#clip6302)" style="fill:#000000; stroke:none; fill-opacity:1" cx="1397.49" cy="1074.47" r="18"/>
<circle clip-path="url(#clip6302)" style="fill:#0000ff; stroke:none; fill-opacity:1" cx="1397.49" cy="1074.47" r="14"/>
<circle clip-path="url(#clip6302)" style="fill:#000000; stroke:none; fill-opacity:1" cx="1563.94" cy="1092.72" r="18"/>
<circle clip-path="url(#clip6302)" style="fill:#0000ff; stroke:none; fill-opacity:1" cx="1563.94" cy="1092.72" r="14"/>
<circle clip-path="url(#clip6302)" style="fill:#000000; stroke:none; fill-opacity:1" cx="1287.51" cy="1021.38" r="18"/>
<circle clip-path="url(#clip6302)" style="fill:#0000ff; stroke:none; fill-opacity:1" cx="1287.51" cy="1021.38" r="14"/>
<circle clip-path="url(#clip6302)" style="fill:#000000; stroke:none; fill-opacity:1" cx="1581.94" cy="1235.34" r="18"/>
<circle clip-path="url(#clip6302)" style="fill:#0000ff; stroke:none; fill-opacity:1" cx="1581.94" cy="1235.34" r="14"/>
<circle clip-path="url(#clip6302)" style="fill:#000000; stroke:none; fill-opacity:1" cx="1404.63" cy="899.854" r="18"/>
<circle clip-path="url(#clip6302)" style="fill:#0000ff; stroke:none; fill-opacity:1" cx="1404.63" cy="899.854" r="14"/>
<circle clip-path="url(#clip6302)" style="fill:#000000; stroke:none; fill-opacity:1" cx="1298.48" cy="848.394" r="18"/>
<circle clip-path="url(#clip6302)" style="fill:#0000ff; stroke:none; fill-opacity:1" cx="1298.48" cy="848.394" r="14"/>
<circle clip-path="url(#clip6302)" style="fill:#000000; stroke:none; fill-opacity:1" cx="1793.18" cy="928.402" r="18"/>
<circle clip-path="url(#clip6302)" style="fill:#0000ff; stroke:none; fill-opacity:1" cx="1793.18" cy="928.402" r="14"/>
<circle clip-path="url(#clip6302)" style="fill:#000000; stroke:none; fill-opacity:1" cx="1655.94" cy="1094.99" r="18"/>
<circle clip-path="url(#clip6302)" style="fill:#0000ff; stroke:none; fill-opacity:1" cx="1655.94" cy="1094.99" r="14"/>
<circle clip-path="url(#clip6302)" style="fill:#000000; stroke:none; fill-opacity:1" cx="1454.05" cy="1284.99" r="18"/>
<circle clip-path="url(#clip6302)" style="fill:#0000ff; stroke:none; fill-opacity:1" cx="1454.05" cy="1284.99" r="14"/>
<circle clip-path="url(#clip6302)" style="fill:#000000; stroke:none; fill-opacity:1" cx="1300.45" cy="962.681" r="18"/>
<circle clip-path="url(#clip6302)" style="fill:#0000ff; stroke:none; fill-opacity:1" cx="1300.45" cy="962.681" r="14"/>
<circle clip-path="url(#clip6302)" style="fill:#000000; stroke:none; fill-opacity:1" cx="1758.1" cy="832.888" r="18"/>
<circle clip-path="url(#clip6302)" style="fill:#0000ff; stroke:none; fill-opacity:1" cx="1758.1" cy="832.888" r="14"/>
<circle clip-path="url(#clip6302)" style="fill:#000000; stroke:none; fill-opacity:1" cx="1795.7" cy="1115.91" r="18"/>
<circle clip-path="url(#clip6302)" style="fill:#0000ff; stroke:none; fill-opacity:1" cx="1795.7" cy="1115.91" r="14"/>
<circle clip-path="url(#clip6302)" style="fill:#000000; stroke:none; fill-opacity:1" cx="1283.29" cy="1095.07" r="18"/>
<circle clip-path="url(#clip6302)" style="fill:#0000ff; stroke:none; fill-opacity:1" cx="1283.29" cy="1095.07" r="14"/>
<circle clip-path="url(#clip6302)" style="fill:#000000; stroke:none; fill-opacity:1" cx="1487.32" cy="900.946" r="18"/>
<circle clip-path="url(#clip6302)" style="fill:#0000ff; stroke:none; fill-opacity:1" cx="1487.32" cy="900.946" r="14"/>
<circle clip-path="url(#clip6302)" style="fill:#000000; stroke:none; fill-opacity:1" cx="1449.08" cy="1048.85" r="18"/>
<circle clip-path="url(#clip6302)" style="fill:#0000ff; stroke:none; fill-opacity:1" cx="1449.08" cy="1048.85" r="14"/>
<circle clip-path="url(#clip6302)" style="fill:#000000; stroke:none; fill-opacity:1" cx="1734.22" cy="922.09" r="18"/>
<circle clip-path="url(#clip6302)" style="fill:#0000ff; stroke:none; fill-opacity:1" cx="1734.22" cy="922.09" r="14"/>
<circle clip-path="url(#clip6302)" style="fill:#000000; stroke:none; fill-opacity:1" cx="1404.69" cy="1326.67" r="18"/>
<circle clip-path="url(#clip6302)" style="fill:#0000ff; stroke:none; fill-opacity:1" cx="1404.69" cy="1326.67" r="14"/>
<circle clip-path="url(#clip6302)" style="fill:#000000; stroke:none; fill-opacity:1" cx="630.375" cy="284.546" r="18"/>
<circle clip-path="url(#clip6302)" style="fill:#0000ff; stroke:none; fill-opacity:1" cx="630.375" cy="284.546" r="14"/>
<circle clip-path="url(#clip6302)" style="fill:#000000; stroke:none; fill-opacity:1" cx="479.217" cy="487.412" r="18"/>
<circle clip-path="url(#clip6302)" style="fill:#0000ff; stroke:none; fill-opacity:1" cx="479.217" cy="487.412" r="14"/>
<circle clip-path="url(#clip6302)" style="fill:#000000; stroke:none; fill-opacity:1" cx="593.867" cy="359.193" r="18"/>
<circle clip-path="url(#clip6302)" style="fill:#0000ff; stroke:none; fill-opacity:1" cx="593.867" cy="359.193" r="14"/>
<circle clip-path="url(#clip6302)" style="fill:#000000; stroke:none; fill-opacity:1" cx="521.298" cy="521.075" r="18"/>
<circle clip-path="url(#clip6302)" style="fill:#0000ff; stroke:none; fill-opacity:1" cx="521.298" cy="521.075" r="14"/>
<circle clip-path="url(#clip6302)" style="fill:#000000; stroke:none; fill-opacity:1" cx="992.052" cy="560.509" r="18"/>
<circle clip-path="url(#clip6302)" style="fill:#0000ff; stroke:none; fill-opacity:1" cx="992.052" cy="560.509" r="14"/>
<circle clip-path="url(#clip6302)" style="fill:#000000; stroke:none; fill-opacity:1" cx="434.751" cy="355.965" r="18"/>
<circle clip-path="url(#clip6302)" style="fill:#0000ff; stroke:none; fill-opacity:1" cx="434.751" cy="355.965" r="14"/>
<circle clip-path="url(#clip6302)" style="fill:#000000; stroke:none; fill-opacity:1" cx="408.138" cy="541.406" r="18"/>
<circle clip-path="url(#clip6302)" style="fill:#0000ff; stroke:none; fill-opacity:1" cx="408.138" cy="541.406" r="14"/>
<circle clip-path="url(#clip6302)" style="fill:#000000; stroke:none; fill-opacity:1" cx="774.094" cy="499.254" r="18"/>
<circle clip-path="url(#clip6302)" style="fill:#0000ff; stroke:none; fill-opacity:1" cx="774.094" cy="499.254" r="14"/>
<circle clip-path="url(#clip6302)" style="fill:#000000; stroke:none; fill-opacity:1" cx="797.496" cy="403.191" r="18"/>
<circle clip-path="url(#clip6302)" style="fill:#0000ff; stroke:none; fill-opacity:1" cx="797.496" cy="403.191" r="14"/>
<circle clip-path="url(#clip6302)" style="fill:#000000; stroke:none; fill-opacity:1" cx="595.852" cy="688.136" r="18"/>
<circle clip-path="url(#clip6302)" style="fill:#0000ff; stroke:none; fill-opacity:1" cx="595.852" cy="688.136" r="14"/>
<circle clip-path="url(#clip6302)" style="fill:#000000; stroke:none; fill-opacity:1" cx="730.459" cy="244.193" r="18"/>
<circle clip-path="url(#clip6302)" style="fill:#0000ff; stroke:none; fill-opacity:1" cx="730.459" cy="244.193" r="14"/>
<circle clip-path="url(#clip6302)" style="fill:#000000; stroke:none; fill-opacity:1" cx="668.468" cy="521.042" r="18"/>
<circle clip-path="url(#clip6302)" style="fill:#0000ff; stroke:none; fill-opacity:1" cx="668.468" cy="521.042" r="14"/>
<circle clip-path="url(#clip6302)" style="fill:#000000; stroke:none; fill-opacity:1" cx="488.393" cy="653.155" r="18"/>
<circle clip-path="url(#clip6302)" style="fill:#0000ff; stroke:none; fill-opacity:1" cx="488.393" cy="653.155" r="14"/>
<circle clip-path="url(#clip6302)" style="fill:#000000; stroke:none; fill-opacity:1" cx="830.425" cy="369.282" r="18"/>
<circle clip-path="url(#clip6302)" style="fill:#0000ff; stroke:none; fill-opacity:1" cx="830.425" cy="369.282" r="14"/>
<circle clip-path="url(#clip6302)" style="fill:#000000; stroke:none; fill-opacity:1" cx="1070.49" cy="639.174" r="18"/>
<circle clip-path="url(#clip6302)" style="fill:#0000ff; stroke:none; fill-opacity:1" cx="1070.49" cy="639.174" r="14"/>
<circle clip-path="url(#clip6302)" style="fill:#000000; stroke:none; fill-opacity:1" cx="726.818" cy="669.309" r="18"/>
<circle clip-path="url(#clip6302)" style="fill:#0000ff; stroke:none; fill-opacity:1" cx="726.818" cy="669.309" r="14"/>
<circle clip-path="url(#clip6302)" style="fill:#000000; stroke:none; fill-opacity:1" cx="835.354" cy="471.337" r="18"/>
<circle clip-path="url(#clip6302)" style="fill:#0000ff; stroke:none; fill-opacity:1" cx="835.354" cy="471.337" r="14"/>
<circle clip-path="url(#clip6302)" style="fill:#000000; stroke:none; fill-opacity:1" cx="958.722" cy="204.29" r="18"/>
<circle clip-path="url(#clip6302)" style="fill:#0000ff; stroke:none; fill-opacity:1" cx="958.722" cy="204.29" r="14"/>
<circle clip-path="url(#clip6302)" style="fill:#000000; stroke:none; fill-opacity:1" cx="672.357" cy="529.45" r="18"/>
<circle clip-path="url(#clip6302)" style="fill:#0000ff; stroke:none; fill-opacity:1" cx="672.357" cy="529.45" r="14"/>
<circle clip-path="url(#clip6302)" style="fill:#000000; stroke:none; fill-opacity:1" cx="513.272" cy="626.609" r="18"/>
<circle clip-path="url(#clip6302)" style="fill:#0000ff; stroke:none; fill-opacity:1" cx="513.272" cy="626.609" r="14"/>
<polyline clip-path="url(#clip6302)" style="stroke:#f2e763; stroke-width:4; stroke-opacity:1; fill:none" points="
  992.64,1446.71 995.594,1439.22 1000.42,1390.1 1005.41,1333.49 1007.31,1276.87 1009.43,1220.26 1014.8,1163.65 1021.22,1107.04 1029.24,1050.42 1035.54,993.811 
  1043.29,937.198 1035.24,880.585 995.594,850.329 919.699,856.288 843.805,859.337 767.911,860.564 692.017,864.492 616.123,870.822 540.229,872.64 464.334,873.849 
  388.44,879.49 372.735,880.585 312.546,897.058 236.652,902.939 
  "/>
<polyline clip-path="url(#clip6302)" style="stroke:#f8c933; stroke-width:4; stroke-opacity:1; fill:none" points="
  236.652,854.018 312.546,851.105 388.44,840.591 464.334,833.792 540.229,828.463 598.639,823.972 616.123,823.749 692.017,823.524 767.911,823.628 843.805,823.014 
  919.699,821.647 995.594,819.39 1055.48,823.972 1071.49,836.197 1077.81,880.585 1079.23,937.198 1077.68,993.811 1075.85,1050.42 1073.61,1107.04 1071.49,1131.15 
  1061.55,1163.65 1048.41,1220.26 1045.25,1276.87 1043.96,1333.49 1041.62,1390.1 1038.12,1446.71 
  "/>
<polyline clip-path="url(#clip6302)" style="stroke:#d04544; stroke-width:4; stroke-opacity:1; fill:none" points="
  1145.5,1446.71 1146,1390.1 1147.38,1337.98 1147.47,1333.49 1147.38,1297.22 1147.31,1276.87 1146.09,1220.26 1142.96,1163.65 1140.91,1107.04 1138.26,1050.42 
  1137.42,993.811 1136.02,937.198 1130.01,880.585 1118.94,823.972 1071.49,788.212 995.594,782.685 919.699,782.73 843.805,783.762 767.911,785.922 692.017,786.995 
  616.123,787.147 540.229,786.892 464.334,786.044 388.44,785.835 312.546,786.423 236.652,786.326 
  "/>
<polyline clip-path="url(#clip6302)" style="stroke:#a12b61; stroke-width:4; stroke-opacity:1; fill:none" points="
  236.652,767.633 312.546,768.452 388.44,769.155 464.334,770.09 540.229,771.753 616.123,772.506 692.017,772.383 767.911,770.84 843.805,768.061 903.05,767.359 
  919.699,767.132 936.599,767.359 995.594,768.003 1071.49,773.415 1138.58,823.972 1147.38,865.141 1151.36,880.585 1158.38,937.198 1160.37,993.811 1161.74,1050.42 
  1164.49,1107.04 1166.95,1163.65 1169.86,1220.26 1171.19,1276.87 1172.76,1333.49 1174.38,1390.1 1176.32,1446.71 
  "/>
<polyline clip-path="url(#clip6302)" style="stroke:#550f6d; stroke-width:4; stroke-opacity:1; fill:none" points="
  1222.18,1446.71 1216.55,1390.1 1210.69,1333.49 1206.98,1276.87 1204.92,1220.26 1201.42,1163.65 1198.29,1107.04 1195.7,1050.42 1193.79,993.811 1191.4,937.198 
  1186.81,880.585 1180.46,823.972 1223.28,791.601 1299.17,807.404 1375.06,810.341 1450.96,811.929 1526.85,812.968 1602.75,813.905 1678.64,815.897 1754.54,818.114 
  1830.43,821.587 1906.32,823.437 1936.5,823.972 1982.22,825.867 2058.11,831.255 
  "/>
<polyline clip-path="url(#clip6302)" style="stroke:#1f0b46; stroke-width:4; stroke-opacity:1; fill:none" points="
  2058.11,876.816 1982.22,870.972 1906.32,867.352 1830.43,865.58 1754.54,860.464 1678.64,855.256 1602.75,847.632 1526.85,842.383 1450.96,836.547 1375.06,824.899 
  1371.42,823.972 1299.17,821.25 1223.28,815.382 1211.92,823.972 1210.44,880.585 1213.41,937.198 1216.07,993.811 1218.34,1050.42 1220.82,1107.04 1223.28,1146.2 
  1227.74,1163.65 1240.16,1220.26 1246.44,1276.87 1255.59,1333.49 1264.1,1390.1 1271.63,1446.71 
  "/>
<polyline clip-path="url(#clip6302)" style="stroke:#0a0622; stroke-width:4; stroke-opacity:1; fill:none" points="
  1296.71,1446.71 1290.93,1390.1 1287.76,1333.49 1282.98,1276.87 1279.51,1220.26 1273.75,1163.65 1265.67,1107.04 1258.09,1050.42 1249.35,993.811 1233.56,937.198 
  1223.28,906.249 1222.26,880.585 1223.28,867.19 1299.17,856.614 1375.06,871.585 1450.96,876.232 1526.85,878.6 1566.56,880.585 1602.75,887.103 1678.64,900.369 
  1754.54,914.744 1830.43,927.833 1906.32,931.385 1956.75,937.198 1982.22,940.204 2058.11,950.729 
  "/>
<polyline clip-path="url(#clip6302)" style="stroke:#3b0963; stroke-width:4; stroke-opacity:1; fill:none" points="
  2058.11,854.035 1982.22,848.42 1906.32,845.044 1830.43,841.673 1754.54,832.693 1678.64,824.151 1677.29,823.972 1602.75,821.544 1526.85,820.345 1450.96,819.084 
  1375.06,817.225 1299.17,814.327 1223.28,803.492 1196.19,823.972 1198.62,880.585 1202.41,937.198 1204.93,993.811 1207.02,1050.42 1209.56,1107.04 1212.9,1163.65 
  1216.61,1220.26 1218.91,1276.87 1223.28,1332.79 1223.42,1333.49 1237.27,1390.1 1246.56,1446.71 
  "/>
<polyline clip-path="url(#clip6302)" style="stroke:#6e186e; stroke-width:4; stroke-opacity:1; fill:none" points="
  1206.89,1446.71 1202.49,1390.1 1198.05,1333.49 1195.05,1276.87 1193.23,1220.26 1189.93,1163.65 1187.02,1107.04 1184.38,1050.42 1182.65,993.811 1180.39,937.198 
  1174.99,880.585 1164.74,823.972 1147.38,805.79 1097.01,767.359 1071.49,754.453 995.594,749.805 919.699,749.02 843.805,748.703 767.911,750.84 692.017,751.498 
  616.123,750.695 540.229,748.513 464.334,743.674 388.44,740.873 312.546,739.181 236.652,737.151 
  "/>
<polyline clip-path="url(#clip6302)" style="stroke:#550f6d; stroke-width:4; stroke-opacity:1; fill:none" points="
  236.652,721.822 312.546,724.18 388.44,726.032 464.334,729.385 540.229,735.237 616.123,737.847 692.017,739.412 767.911,740.102 843.805,738.939 919.699,739.964 
  995.594,740.625 1071.49,743.529 1118.6,767.359 1147.38,789.313 1177.38,767.359 1148.31,710.747 1147.38,703.568 1133.33,654.134 1125.09,597.521 1114.78,540.908 
  1103.76,484.295 1097.11,427.682 1090.64,371.07 1084.64,314.457 1076.01,257.844 1071.49,227.152 1061.97,201.231 1046.7,144.618 1031.87,88.0053 
  "/>
<polyline clip-path="url(#clip6302)" style="stroke:#3b0963; stroke-width:4; stroke-opacity:1; fill:none" points="
  1011.32,88.0053 1022.22,144.618 1034.15,201.231 1050.41,257.844 1071.49,298.276 1074.02,314.457 1079.71,371.07 1085.02,427.682 1090.05,484.295 1099.14,540.908 
  1107.28,597.521 1113.3,654.134 1123.87,710.747 1071.49,732.606 995.594,731.446 919.699,730.908 843.805,729.174 767.911,729.364 692.017,727.326 616.123,724.999 
  540.229,721.962 464.334,715.095 388.44,711.191 371.523,710.747 312.546,707.6 236.652,702.31 
  "/>
<polyline clip-path="url(#clip6302)" style="stroke:#1f0b46; stroke-width:4; stroke-opacity:1; fill:none" points="
  236.652,671.9 312.546,677.488 388.44,681.825 464.334,686.947 540.229,703.19 584.766,710.747 616.123,712.151 692.017,715.24 767.911,718.625 843.805,719.409 
  919.699,721.852 995.594,722.266 1071.49,721.682 1097.69,710.747 1093.27,654.134 1089.47,597.521 1083.49,540.908 1076.33,484.295 1072.93,427.682 1071.49,409.256 
  1055.68,371.07 1034.49,314.457 1014.98,257.844 1006.33,201.231 997.739,144.618 995.594,129.226 975.276,88.0053 
  "/>
<polyline clip-path="url(#clip6302)" style="stroke:#6e186e; stroke-width:4; stroke-opacity:1; fill:none" points="
  1052.43,88.0053 1071.18,144.618 1071.49,145.674 1079.15,201.231 1087.17,257.844 1095.27,314.457 1101.56,371.07 1109.2,427.682 1117.47,484.295 1130.43,540.908 
  1142.89,597.521 1147.38,623.445 1150.11,654.134 1157.4,710.747 1199.89,767.359 1223.28,779.71 1299.17,800.481 1375.06,803.457 1450.96,804.774 1526.85,805.591 
  1602.75,806.267 1678.64,807.775 1754.54,809.574 1830.43,812.4 1906.32,813.789 1982.22,814.7 2058.11,816.636 
  "/>
<polyline clip-path="url(#clip6302)" style="stroke:#88216a; stroke-width:4; stroke-opacity:1; fill:none" points="
  2058.11,805.853 1982.22,804.578 1906.32,804.14 1830.43,803.212 1754.54,801.035 1678.64,799.654 1602.75,798.628 1526.85,798.214 1450.96,797.619 1375.06,796.574 
  1299.17,793.559 1223.28,767.819 1222.41,767.359 1166.49,710.747 1159.27,654.134 1154.21,597.521 1147.38,546.611 1146.07,540.908 1131.19,484.295 1121.29,427.682 
  1112.48,371.07 1105.9,314.457 1098.33,257.844 1090.81,201.231 1083.82,144.618 1072.53,88.0053 
  "/>
<polyline clip-path="url(#clip6302)" style="stroke:#a12b61; stroke-width:4; stroke-opacity:1; fill:none" points="
  1086.88,88.0053 1096.31,144.618 1102.46,201.231 1109.49,257.844 1116.52,314.457 1123.4,371.07 1133.38,427.682 1144.9,484.295 1147.38,493.638 1156.11,540.908 
  1163.33,597.521 1168.42,654.134 1175.58,710.747 1223.28,758.594 1242.75,767.359 1299.17,786.636 1375.06,789.69 1450.96,790.464 1526.85,790.837 1602.75,790.99 
  1678.64,791.532 1754.54,792.495 1830.43,794.024 1906.32,794.492 1982.22,794.455 2058.11,795.07 
  "/>
<polyline clip-path="url(#clip6302)" style="stroke:#ba3655; stroke-width:4; stroke-opacity:1; fill:none" points="
  2058.11,784.286 1982.22,784.333 1906.32,784.843 1830.43,784.837 1754.54,783.955 1678.64,783.41 1602.75,783.351 1526.85,783.46 1450.96,783.308 1375.06,782.806 
  1299.17,779.713 1263.02,767.359 1223.28,749.475 1184.67,710.747 1177.58,654.134 1172.45,597.521 1165.64,540.908 1156,484.295 1147.38,436.819 1145.48,427.682 
  1134.32,371.07 1127.15,314.457 1120.65,257.844 1114.11,201.231 1108.8,144.618 1101.23,88.0053 
  "/>
<polyline clip-path="url(#clip6302)" style="stroke:#d04544; stroke-width:4; stroke-opacity:1; fill:none" points="
  1115.57,88.0053 1121.28,144.618 1125.76,201.231 1131.81,257.844 1137.78,314.457 1145.24,371.07 1147.38,381.765 1157.41,427.682 1166.51,484.295 1175.17,540.908 
  1181.58,597.521 1186.73,654.134 1193.76,710.747 1223.28,740.357 1283.28,767.359 1299.17,772.79 1375.06,775.922 1450.96,776.153 1526.85,776.083 1602.75,775.712 
  1678.64,775.288 1754.54,775.415 1830.43,775.649 1906.32,775.195 1982.22,774.21 2058.11,773.503 
  "/>
<polyline clip-path="url(#clip6302)" style="stroke:#e25832; stroke-width:4; stroke-opacity:1; fill:none" points="
  2058.11,760.952 1982.22,762.583 1906.32,764.604 1830.43,765.959 1754.54,766.581 1678.64,767.05 1663.26,767.359 1602.75,768.074 1526.85,768.706 1450.96,768.998 
  1375.06,769.038 1334.77,767.359 1299.17,764.716 1223.28,731.239 1202.85,710.747 1195.88,654.134 1190.7,597.521 1184.7,540.908 1177.03,484.295 1169.3,427.682 
  1158.62,371.07 1148.92,314.457 1147.38,303.399 1142.97,257.844 1137.41,201.231 1133.77,144.618 1129.92,88.0053 
  "/>
<polyline clip-path="url(#clip6302)" style="stroke:#f0711e; stroke-width:4; stroke-opacity:1; fill:none" points="
  1144.27,88.0053 1146.26,144.618 1147.38,166.337 1150.32,201.231 1158.31,257.844 1164.94,314.457 1172.6,371.07 1181.2,427.682 1187.55,484.295 1194.23,540.908 
  1199.83,597.521 1205.04,654.134 1211.94,710.747 1223.28,722.121 1299.17,752.455 1375.06,757.946 1450.96,757.822 1526.85,757.037 1602.75,755.689 1678.64,754.04 
  1754.54,752.838 1830.43,751.632 1906.32,749.945 1982.22,747.806 2058.11,746.061 
  "/>
<polyline clip-path="url(#clip6302)" style="stroke:#f88c0a; stroke-width:4; stroke-opacity:1; fill:none" points="
  2058.11,731.17 1982.22,733.029 1906.32,735.285 1830.43,737.306 1754.54,739.096 1678.64,741.029 1602.75,742.815 1526.85,744.409 1450.96,745.451 1375.06,745.496 
  1299.17,740.193 1223.28,713.003 1221.03,710.747 1214.19,654.134 1208.95,597.521 1203.75,540.908 1198.07,484.295 1193.1,427.682 1186.58,371.07 1180.97,314.457 
  1176.39,257.844 1170.69,201.231 1167.21,144.618 1165.23,88.0053 
  "/>
<polyline clip-path="url(#clip6302)" style="stroke:#fbaa0f; stroke-width:4; stroke-opacity:1; fill:none" points="
  1188.02,88.0053 1188.99,144.618 1191.05,201.231 1194.46,257.844 1196.99,314.457 1200.56,371.07 1205,427.682 1208.58,484.295 1213.28,540.908 1218.07,597.521 
  1223.28,653.378 1223.59,654.134 1249.79,710.747 1299.17,727.931 1375.06,733.045 1450.96,733.08 1526.85,731.782 1602.75,729.941 1678.64,728.018 1754.54,725.353 
  1830.43,722.979 1906.32,720.625 1982.22,718.252 2058.11,716.279 
  "/>
<polyline clip-path="url(#clip6302)" style="stroke:#f8c933; stroke-width:4; stroke-opacity:1; fill:none" points="
  2058.11,684.088 1982.22,691.161 1906.32,697.089 1830.43,703.883 1777.36,710.747 1754.54,711.61 1678.64,715.008 1602.75,717.066 1526.85,719.154 1450.96,720.709 
  1375.06,720.595 1299.17,715.669 1285.03,710.747 1264.44,654.134 1246.44,597.521 1223.28,546.689 1222.81,540.908 1219.1,484.295 1216.9,427.682 1214.54,371.07 
  1213.01,314.457 1212.54,257.844 1211.42,201.231 1210.77,144.618 1210.82,88.0053 
  "/>
<polyline clip-path="url(#clip6302)" style="stroke:#f2e763; stroke-width:4; stroke-opacity:1; fill:none" points="
  1275.47,88.0053 1276.39,144.618 1278.68,201.231 1281.35,257.844 1283.58,314.457 1288.57,371.07 1294.04,427.682 1297.52,484.295 1299.17,534.603 1299.84,540.908 
  1307.8,597.521 1337.02,654.134 1375.06,677.856 1450.96,683.364 1526.85,677.928 1602.75,672.844 1678.64,669.41 1754.54,660.285 1830.43,656.93 1906.32,655.211 
  1926.79,654.134 1982.22,641.761 2058.11,616.989 
  "/>
<polyline clip-path="url(#clip6302)" style="stroke:#e25832; stroke-width:4; stroke-opacity:1; fill:none" points="
  1128,1446.71 1128.57,1390.1 1129.77,1333.49 1129.72,1276.87 1129.16,1220.26 1128.03,1163.65 1127.45,1107.04 1125.78,1050.42 1125.47,993.811 1124.66,937.198 
  1119.57,880.585 1109.12,823.972 1071.49,795.611 995.594,790.026 919.699,790.514 843.805,791.613 767.911,793.464 692.017,794.301 616.123,794.467 540.229,794.462 
  464.334,794.021 388.44,794.175 312.546,795.408 236.652,795.673 
  "/>
<polyline clip-path="url(#clip6302)" style="stroke:#ba3655; stroke-width:4; stroke-opacity:1; fill:none" points="
  236.652,776.98 312.546,777.437 388.44,777.495 464.334,778.067 540.229,779.323 616.123,779.826 692.017,779.689 767.911,778.381 843.805,775.912 919.699,774.947 
  995.594,775.344 1071.49,780.814 1128.76,823.972 1140.45,880.585 1147.37,937.198 1147.38,937.458 1149.23,993.811 1150.42,1050.42 1153.23,1107.04 1155.47,1163.65 
  1158.17,1220.26 1159.27,1276.87 1160.11,1333.49 1160.32,1390.1 1161.03,1446.71 
  "/>
<polyline clip-path="url(#clip6302)" style="stroke:#88216a; stroke-width:4; stroke-opacity:1; fill:none" points="
  1191.61,1446.71 1188.44,1390.1 1185.4,1333.49 1183.12,1276.87 1181.55,1220.26 1178.44,1163.65 1175.76,1107.04 1173.06,1050.42 1171.51,993.811 1169.39,937.198 
  1163.17,880.585 1149.01,823.972 1147.38,822.266 1075.41,767.359 1071.49,765.376 995.594,758.985 919.699,758.076 843.805,758.468 767.911,761.578 692.017,763.585 
  616.123,763.544 540.229,761.788 464.334,757.963 388.44,755.714 312.546,754.182 236.652,752.479 
  "/>
<polyline clip-path="url(#clip6302)" style="stroke:#f0711e; stroke-width:4; stroke-opacity:1; fill:none" points="
  236.652,805.02 312.546,804.394 388.44,802.515 464.334,801.997 540.229,802.032 616.123,801.788 692.017,801.607 767.911,801.005 843.805,799.463 919.699,798.297 
  995.594,797.367 1071.49,803.01 1099.31,823.972 1109.13,880.585 1113.3,937.198 1113.52,993.811 1113.29,1050.42 1113.99,1107.04 1113.1,1163.65 1112.24,1220.26 
  1112.12,1276.87 1112.03,1333.49 1111.14,1390.1 1110.5,1446.71 
  "/>
<polyline clip-path="url(#clip6302)" style="stroke:#f88c0a; stroke-width:4; stroke-opacity:1; fill:none" points="
  1093,1446.71 1093.71,1390.1 1094.29,1333.49 1094.52,1276.87 1095.31,1220.26 1098.17,1163.65 1100.53,1107.04 1100.81,1050.42 1101.58,993.811 1101.94,937.198 
  1098.69,880.585 1089.49,823.972 1071.49,810.409 995.594,804.708 919.699,806.08 843.805,807.313 767.911,808.546 692.017,808.913 616.123,809.108 540.229,809.602 
  464.334,809.974 388.44,810.855 312.546,813.379 236.652,814.367 
  "/>
<polyline clip-path="url(#clip6302)" style="stroke:#fbaa0f; stroke-width:4; stroke-opacity:1; fill:none" points="
  236.652,823.713 312.546,822.365 388.44,819.195 464.334,817.951 540.229,817.172 616.123,816.429 692.017,816.219 767.911,816.087 843.805,815.164 919.699,813.864 
  995.594,812.049 1071.49,817.807 1079.67,823.972 1088.25,880.585 1090.59,937.198 1089.63,993.811 1088.33,1050.42 1087.07,1107.04 1083.24,1163.65 1078.39,1220.26 
  1076.92,1276.87 1076.56,1333.49 1076.28,1390.1 1075.5,1446.71 
  "/>
<polyline clip-path="url(#clip6302)" style="stroke:#0a0622; stroke-width:4; stroke-opacity:1; fill:none" points="
  236.652,614.058 312.546,629.769 388.44,643.275 464.334,647.44 528.432,654.134 540.229,654.5 616.123,664.659 692.017,673.144 767.911,688.002 843.805,698.344 
  869.051,710.747 919.699,712.796 995.594,713.086 1071.49,710.758 1071.52,710.747 1073.24,654.134 1071.67,597.521 1071.49,595.182 1040.28,540.908 1020.36,484.295 
  1005.61,427.682 995.594,389.004 985.096,371.07 963.216,314.457 939.643,257.844 919.699,207.211 914.867,201.231 889.673,144.618 863.933,88.0053 
  "/>
<polyline clip-path="url(#clip6302)" style="stroke:#3b0963; stroke-width:4; stroke-opacity:1; fill:none" points="
  1140.2,767.359 1147.38,772.836 1154.87,767.359 1147.38,752.066 1140.2,767.359 
  "/>
<defs>
  <clipPath id="clip6303">
    <rect x="2160" y="47" width="73" height="1441"/>
  </clipPath>
</defs>
<polyline clip-path="url(#clip6303)" style="stroke:#0b0724; stroke-width:4; stroke-opacity:1; fill:none" points="
  2160.76,1397.46 2232.76,1397.46 
  "/>
<polyline clip-path="url(#clip6303)" style="stroke:#200b49; stroke-width:4; stroke-opacity:1; fill:none" points="
  2160.76,1307.45 2232.76,1307.45 
  "/>
<polyline clip-path="url(#clip6303)" style="stroke:#3c0964; stroke-width:4; stroke-opacity:1; fill:none" points="
  2160.76,1217.43 2232.76,1217.43 
  "/>
<polyline clip-path="url(#clip6303)" style="stroke:#57106d; stroke-width:4; stroke-opacity:1; fill:none" points="
  2160.76,1127.42 2232.76,1127.42 
  "/>
<polyline clip-path="url(#clip6303)" style="stroke:#70196e; stroke-width:4; stroke-opacity:1; fill:none" points="
  2160.76,1037.4 2232.76,1037.4 
  "/>
<polyline clip-path="url(#clip6303)" style="stroke:#8a2269; stroke-width:4; stroke-opacity:1; fill:none" points="
  2160.76,947.388 2232.76,947.388 
  "/>
<polyline clip-path="url(#clip6303)" style="stroke:#a32b61; stroke-width:4; stroke-opacity:1; fill:none" points="
  2160.76,857.374 2232.76,857.374 
  "/>
<polyline clip-path="url(#clip6303)" style="stroke:#bb3754; stroke-width:4; stroke-opacity:1; fill:none" points="
  2160.76,767.359 2232.76,767.359 
  "/>
<polyline clip-path="url(#clip6303)" style="stroke:#d04544; stroke-width:4; stroke-opacity:1; fill:none" points="
  2160.76,677.345 2232.76,677.345 
  "/>
<polyline clip-path="url(#clip6303)" style="stroke:#e25832; stroke-width:4; stroke-opacity:1; fill:none" points="
  2160.76,587.331 2232.76,587.331 
  "/>
<polyline clip-path="url(#clip6303)" style="stroke:#f0711e; stroke-width:4; stroke-opacity:1; fill:none" points="
  2160.76,497.316 2232.76,497.316 
  "/>
<polyline clip-path="url(#clip6303)" style="stroke:#f88c0a; stroke-width:4; stroke-opacity:1; fill:none" points="
  2160.76,407.302 2232.76,407.302 
  "/>
<polyline clip-path="url(#clip6303)" style="stroke:#fbaa0f; stroke-width:4; stroke-opacity:1; fill:none" points="
  2160.76,317.287 2232.76,317.287 
  "/>
<polyline clip-path="url(#clip6303)" style="stroke:#f8c933; stroke-width:4; stroke-opacity:1; fill:none" points="
  2160.76,227.273 2232.76,227.273 
  "/>
<polyline clip-path="url(#clip6303)" style="stroke:#f2e763; stroke-width:4; stroke-opacity:1; fill:none" points="
  2160.76,137.259 2232.76,137.259 
  "/>
<g clip-path="url(#clip6300)">
<text style="fill:#000000; fill-opacity:1; font-family:Arial,Helvetica Neue,Helvetica,sans-serif; font-size:48px; text-anchor:start;" transform="rotate(0, 2268.76, 1501.13)" x="2268.76" y="1501.13">0</text>
</g>
<g clip-path="url(#clip6300)">
<text style="fill:#000000; fill-opacity:1; font-family:Arial,Helvetica Neue,Helvetica,sans-serif; font-size:48px; text-anchor:start;" transform="rotate(0, 2268.76, 1357.1)" x="2268.76" y="1357.1">0.1</text>
</g>
<g clip-path="url(#clip6300)">
<text style="fill:#000000; fill-opacity:1; font-family:Arial,Helvetica Neue,Helvetica,sans-serif; font-size:48px; text-anchor:start;" transform="rotate(0, 2268.76, 1213.08)" x="2268.76" y="1213.08">0.2</text>
</g>
<g clip-path="url(#clip6300)">
<text style="fill:#000000; fill-opacity:1; font-family:Arial,Helvetica Neue,Helvetica,sans-serif; font-size:48px; text-anchor:start;" transform="rotate(0, 2268.76, 1069.06)" x="2268.76" y="1069.06">0.3</text>
</g>
<g clip-path="url(#clip6300)">
<text style="fill:#000000; fill-opacity:1; font-family:Arial,Helvetica Neue,Helvetica,sans-serif; font-size:48px; text-anchor:start;" transform="rotate(0, 2268.76, 925.034)" x="2268.76" y="925.034">0.4</text>
</g>
<g clip-path="url(#clip6300)">
<text style="fill:#000000; fill-opacity:1; font-family:Arial,Helvetica Neue,Helvetica,sans-serif; font-size:48px; text-anchor:start;" transform="rotate(0, 2268.76, 781.011)" x="2268.76" y="781.011">0.5</text>
</g>
<g clip-path="url(#clip6300)">
<text style="fill:#000000; fill-opacity:1; font-family:Arial,Helvetica Neue,Helvetica,sans-serif; font-size:48px; text-anchor:start;" transform="rotate(0, 2268.76, 636.988)" x="2268.76" y="636.988">0.6</text>
</g>
<g clip-path="url(#clip6300)">
<text style="fill:#000000; fill-opacity:1; font-family:Arial,Helvetica Neue,Helvetica,sans-serif; font-size:48px; text-anchor:start;" transform="rotate(0, 2268.76, 492.964)" x="2268.76" y="492.964">0.7</text>
</g>
<g clip-path="url(#clip6300)">
<text style="fill:#000000; fill-opacity:1; font-family:Arial,Helvetica Neue,Helvetica,sans-serif; font-size:48px; text-anchor:start;" transform="rotate(0, 2268.76, 348.941)" x="2268.76" y="348.941">0.8</text>
</g>
<g clip-path="url(#clip6300)">
<text style="fill:#000000; fill-opacity:1; font-family:Arial,Helvetica Neue,Helvetica,sans-serif; font-size:48px; text-anchor:start;" transform="rotate(0, 2268.76, 204.918)" x="2268.76" y="204.918">0.9</text>
</g>
<g clip-path="url(#clip6300)">
<text style="fill:#000000; fill-opacity:1; font-family:Arial,Helvetica Neue,Helvetica,sans-serif; font-size:48px; text-anchor:start;" transform="rotate(0, 2268.76, 60.8953)" x="2268.76" y="60.8953">1.0</text>
</g>
<polyline clip-path="url(#clip6300)" style="stroke:#000000; stroke-width:4; stroke-opacity:1; fill:none" points="
  2232.76,1487.47 2232.76,1487.47 2256.76,1487.47 2232.76,1487.47 2232.76,1343.45 2256.76,1343.45 2232.76,1343.45 2232.76,1199.43 2256.76,1199.43 2232.76,1199.43 
  2232.76,1055.41 2256.76,1055.41 2232.76,1055.41 2232.76,911.382 2256.76,911.382 2232.76,911.382 2232.76,767.359 2256.76,767.359 2232.76,767.359 2232.76,623.336 
  2256.76,623.336 2232.76,623.336 2232.76,479.313 2256.76,479.313 2232.76,479.313 2232.76,335.29 2256.76,335.29 2232.76,335.29 2232.76,191.267 2256.76,191.267 
  2232.76,191.267 2232.76,47.2441 2256.76,47.2441 2232.76,47.2441 
  "/>
<polygon clip-path="url(#clip6300)" points="
1749.93,312.204 2040.76,312.204 2040.76,130.764 1749.93,130.764 
  " fill="#ffffff" fill-rule="evenodd" fill-opacity="1"/>
<polyline clip-path="url(#clip6300)" style="stroke:#000000; stroke-width:4; stroke-opacity:1; fill:none" points="
  1749.93,312.204 2040.76,312.204 2040.76,130.764 1749.93,130.764 1749.93,312.204 
  "/>
<circle clip-path="url(#clip6300)" style="fill:#000000; stroke:none; fill-opacity:1" cx="1857.93" cy="191.244" r="25"/>
<circle clip-path="url(#clip6300)" style="fill:#ff0000; stroke:none; fill-opacity:1" cx="1857.93" cy="191.244" r="21"/>
<g clip-path="url(#clip6300)">
<text style="fill:#000000; fill-opacity:1; font-family:Arial,Helvetica Neue,Helvetica,sans-serif; font-size:48px; text-anchor:start;" transform="rotate(0, 1941.93, 208.744)" x="1941.93" y="208.744">y1</text>
</g>
<circle clip-path="url(#clip6300)" style="fill:#000000; stroke:none; fill-opacity:1" cx="1857.93" cy="251.724" r="25"/>
<circle clip-path="url(#clip6300)" style="fill:#0000ff; stroke:none; fill-opacity:1" cx="1857.93" cy="251.724" r="21"/>
<g clip-path="url(#clip6300)">
<text style="fill:#000000; fill-opacity:1; font-family:Arial,Helvetica Neue,Helvetica,sans-serif; font-size:48px; text-anchor:start;" transform="rotate(0, 1941.93, 269.224)" x="1941.93" y="269.224">y2</text>
</g>
</svg>
