<?xml version="1.0" encoding="utf-8"?>
<svg xmlns="http://www.w3.org/2000/svg" xmlns:xlink="http://www.w3.org/1999/xlink" width="600" height="400" viewBox="0 0 2400 1600">
<defs>
  <clipPath id="clip6200">
    <rect x="0" y="0" width="2400" height="1600"/>
  </clipPath>
</defs>
<path clip-path="url(#clip6200)" d="
M0 1600 L2400 1600 L2400 0 L0 0  Z
  " fill="#ffffff" fill-rule="evenodd" fill-opacity="1"/>
<defs>
  <clipPath id="clip6201">
    <rect x="480" y="0" width="1681" height="1600"/>
  </clipPath>
</defs>
<path clip-path="url(#clip6200)" d="
M141.865 1487.47 L2352.76 1487.47 L2352.76 47.2441 L141.865 47.2441  Z
  " fill="#ffffff" fill-rule="evenodd" fill-opacity="1"/>
<defs>
  <clipPath id="clip6202">
    <rect x="141" y="47" width="2212" height="1441"/>
  </clipPath>
</defs>
<polyline clip-path="url(#clip6202)" style="stroke:#000000; stroke-width:2; stroke-opacity:0.1; fill:none" points="
  392.029,1487.47 392.029,47.2441 
  "/>
<polyline clip-path="url(#clip6202)" style="stroke:#000000; stroke-width:2; stroke-opacity:0.1; fill:none" points="
  823.164,1487.47 823.164,47.2441 
  "/>
<polyline clip-path="url(#clip6202)" style="stroke:#000000; stroke-width:2; stroke-opacity:0.1; fill:none" points="
  1254.3,1487.47 1254.3,47.2441 
  "/>
<polyline clip-path="url(#clip6202)" style="stroke:#000000; stroke-width:2; stroke-opacity:0.1; fill:none" points="
  1685.43,1487.47 1685.43,47.2441 
  "/>
<polyline clip-path="url(#clip6202)" style="stroke:#000000; stroke-width:2; stroke-opacity:0.1; fill:none" points="
  2116.57,1487.47 2116.57,47.2441 
  "/>
<polyline clip-path="url(#clip6202)" style="stroke:#000000; stroke-width:2; stroke-opacity:0.1; fill:none" points="
  141.865,1317.9 2352.76,1317.9 
  "/>
<polyline clip-path="url(#clip6202)" style="stroke:#000000; stroke-width:2; stroke-opacity:0.1; fill:none" points="
  141.865,1043.76 2352.76,1043.76 
  "/>
<polyline clip-path="url(#clip6202)" style="stroke:#000000; stroke-width:2; stroke-opacity:0.1; fill:none" points="
  141.865,769.632 2352.76,769.632 
  "/>
<polyline clip-path="url(#clip6202)" style="stroke:#000000; stroke-width:2; stroke-opacity:0.1; fill:none" points="
  141.865,495.5 2352.76,495.5 
  "/>
<polyline clip-path="url(#clip6202)" style="stroke:#000000; stroke-width:2; stroke-opacity:0.1; fill:none" points="
  141.865,221.369 2352.76,221.369 
  "/>
<polyline clip-path="url(#clip6200)" style="stroke:#000000; stroke-width:4; stroke-opacity:1; fill:none" points="
  141.865,1487.47 2352.76,1487.47 
  "/>
<polyline clip-path="url(#clip6200)" style="stroke:#000000; stroke-width:4; stroke-opacity:1; fill:none" points="
  141.865,1487.47 141.865,47.2441 
  "/>
<polyline clip-path="url(#clip6200)" style="stroke:#000000; stroke-width:4; stroke-opacity:1; fill:none" points="
  392.029,1487.47 392.029,1465.87 
  "/>
<polyline clip-path="url(#clip6200)" style="stroke:#000000; stroke-width:4; stroke-opacity:1; fill:none" points="
  823.164,1487.47 823.164,1465.87 
  "/>
<polyline clip-path="url(#clip6200)" style="stroke:#000000; stroke-width:4; stroke-opacity:1; fill:none" points="
  1254.3,1487.47 1254.3,1465.87 
  "/>
<polyline clip-path="url(#clip6200)" style="stroke:#000000; stroke-width:4; stroke-opacity:1; fill:none" points="
  1685.43,1487.47 1685.43,1465.87 
  "/>
<polyline clip-path="url(#clip6200)" style="stroke:#000000; stroke-width:4; stroke-opacity:1; fill:none" points="
  2116.57,1487.47 2116.57,1465.87 
  "/>
<polyline clip-path="url(#clip6200)" style="stroke:#000000; stroke-width:4; stroke-opacity:1; fill:none" points="
  141.865,1317.9 175.028,1317.9 
  "/>
<polyline clip-path="url(#clip6200)" style="stroke:#000000; stroke-width:4; stroke-opacity:1; fill:none" points="
  141.865,1043.76 175.028,1043.76 
  "/>
<polyline clip-path="url(#clip6200)" style="stroke:#000000; stroke-width:4; stroke-opacity:1; fill:none" points="
  141.865,769.632 175.028,769.632 
  "/>
<polyline clip-path="url(#clip6200)" style="stroke:#000000; stroke-width:4; stroke-opacity:1; fill:none" points="
  141.865,495.5 175.028,495.5 
  "/>
<polyline clip-path="url(#clip6200)" style="stroke:#000000; stroke-width:4; stroke-opacity:1; fill:none" points="
  141.865,221.369 175.028,221.369 
  "/>
<g clip-path="url(#clip6200)">
<text style="fill:#000000; fill-opacity:1; font-family:Arial,Helvetica Neue,Helvetica,sans-serif; font-size:48px; text-anchor:middle;" transform="rotate(0, 392.029, 1541.47)" x="392.029" y="1541.47">-4</text>
</g>
<g clip-path="url(#clip6200)">
<text style="fill:#000000; fill-opacity:1; font-family:Arial,Helvetica Neue,Helvetica,sans-serif; font-size:48px; text-anchor:middle;" transform="rotate(0, 823.164, 1541.47)" x="823.164" y="1541.47">-2</text>
</g>
<g clip-path="url(#clip6200)">
<text style="fill:#000000; fill-opacity:1; font-family:Arial,Helvetica Neue,Helvetica,sans-serif; font-size:48px; text-anchor:middle;" transform="rotate(0, 1254.3, 1541.47)" x="1254.3" y="1541.47">0</text>
</g>
<g clip-path="url(#clip6200)">
<text style="fill:#000000; fill-opacity:1; font-family:Arial,Helvetica Neue,Helvetica,sans-serif; font-size:48px; text-anchor:middle;" transform="rotate(0, 1685.43, 1541.47)" x="1685.43" y="1541.47">2</text>
</g>
<g clip-path="url(#clip6200)">
<text style="fill:#000000; fill-opacity:1; font-family:Arial,Helvetica Neue,Helvetica,sans-serif; font-size:48px; text-anchor:middle;" transform="rotate(0, 2116.57, 1541.47)" x="2116.57" y="1541.47">4</text>
</g>
<g clip-path="url(#clip6200)">
<text style="fill:#000000; fill-opacity:1; font-family:Arial,Helvetica Neue,Helvetica,sans-serif; font-size:48px; text-anchor:end;" transform="rotate(0, 117.865, 1335.4)" x="117.865" y="1335.4">-4</text>
</g>
<g clip-path="url(#clip6200)">
<text style="fill:#000000; fill-opacity:1; font-family:Arial,Helvetica Neue,Helvetica,sans-serif; font-size:48px; text-anchor:end;" transform="rotate(0, 117.865, 1061.26)" x="117.865" y="1061.26">-2</text>
</g>
<g clip-path="url(#clip6200)">
<text style="fill:#000000; fill-opacity:1; font-family:Arial,Helvetica Neue,Helvetica,sans-serif; font-size:48px; text-anchor:end;" transform="rotate(0, 117.865, 787.132)" x="117.865" y="787.132">0</text>
</g>
<g clip-path="url(#clip6200)">
<text style="fill:#000000; fill-opacity:1; font-family:Arial,Helvetica Neue,Helvetica,sans-serif; font-size:48px; text-anchor:end;" transform="rotate(0, 117.865, 513)" x="117.865" y="513">2</text>
</g>
<g clip-path="url(#clip6200)">
<text style="fill:#000000; fill-opacity:1; font-family:Arial,Helvetica Neue,Helvetica,sans-serif; font-size:48px; text-anchor:end;" transform="rotate(0, 117.865, 238.869)" x="117.865" y="238.869">4</text>
</g>
<circle clip-path="url(#clip6202)" style="fill:#000000; stroke:none; fill-opacity:1" cx="1935.23" cy="114.835" r="18"/>
<circle clip-path="url(#clip6202)" style="fill:#ff0000; stroke:none; fill-opacity:1" cx="1935.23" cy="114.835" r="14"/>
<circle clip-path="url(#clip6202)" style="fill:#000000; stroke:none; fill-opacity:1" cx="2105.92" cy="106.094" r="18"/>
<circle clip-path="url(#clip6202)" style="fill:#ff0000; stroke:none; fill-opacity:1" cx="2105.92" cy="106.094" r="14"/>
<circle clip-path="url(#clip6202)" style="fill:#000000; stroke:none; fill-opacity:1" cx="1911.36" cy="117.748" r="18"/>
<circle clip-path="url(#clip6202)" style="fill:#ff0000; stroke:none; fill-opacity:1" cx="1911.36" cy="117.748" r="14"/>
<circle clip-path="url(#clip6202)" style="fill:#000000; stroke:none; fill-opacity:1" cx="1808.39" cy="213.889" r="18"/>
<circle clip-path="url(#clip6202)" style="fill:#ff0000; stroke:none; fill-opacity:1" cx="1808.39" cy="213.889" r="14"/>
<circle clip-path="url(#clip6202)" style="fill:#000000; stroke:none; fill-opacity:1" cx="2132.33" cy="194.61" r="18"/>
<circle clip-path="url(#clip6202)" style="fill:#ff0000; stroke:none; fill-opacity:1" cx="2132.33" cy="194.61" r="14"/>
<circle clip-path="url(#clip6202)" style="fill:#000000; stroke:none; fill-opacity:1" cx="2190.65" cy="680.029" r="18"/>
<circle clip-path="url(#clip6202)" style="fill:#ff0000; stroke:none; fill-opacity:1" cx="2190.65" cy="680.029" r="14"/>
<circle clip-path="url(#clip6202)" style="fill:#000000; stroke:none; fill-opacity:1" cx="1556.66" cy="642.784" r="18"/>
<circle clip-path="url(#clip6202)" style="fill:#ff0000; stroke:none; fill-opacity:1" cx="1556.66" cy="642.784" r="14"/>
<circle clip-path="url(#clip6202)" style="fill:#000000; stroke:none; fill-opacity:1" cx="1651.75" cy="506.854" r="18"/>
<circle clip-path="url(#clip6202)" style="fill:#ff0000; stroke:none; fill-opacity:1" cx="1651.75" cy="506.854" r="14"/>
<circle clip-path="url(#clip6202)" style="fill:#000000; stroke:none; fill-opacity:1" cx="1601.53" cy="622.266" r="18"/>
<circle clip-path="url(#clip6202)" style="fill:#ff0000; stroke:none; fill-opacity:1" cx="1601.53" cy="622.266" r="14"/>
<circle clip-path="url(#clip6202)" style="fill:#000000; stroke:none; fill-opacity:1" cx="1924.39" cy="470.302" r="18"/>
<circle clip-path="url(#clip6202)" style="fill:#ff0000; stroke:none; fill-opacity:1" cx="1924.39" cy="470.302" r="14"/>
<circle clip-path="url(#clip6202)" style="fill:#000000; stroke:none; fill-opacity:1" cx="1991.53" cy="126.791" r="18"/>
<circle clip-path="url(#clip6202)" style="fill:#ff0000; stroke:none; fill-opacity:1" cx="1991.53" cy="126.791" r="14"/>
<circle clip-path="url(#clip6202)" style="fill:#000000; stroke:none; fill-opacity:1" cx="1372.66" cy="430.363" r="18"/>
<circle clip-path="url(#clip6202)" style="fill:#ff0000; stroke:none; fill-opacity:1" cx="1372.66" cy="430.363" r="14"/>
<circle clip-path="url(#clip6202)" style="fill:#000000; stroke:none; fill-opacity:1" cx="1426.52" cy="548.835" r="18"/>
<circle clip-path="url(#clip6202)" style="fill:#ff0000; stroke:none; fill-opacity:1" cx="1426.52" cy="548.835" r="14"/>
<circle clip-path="url(#clip6202)" style="fill:#000000; stroke:none; fill-opacity:1" cx="2290.18" cy="693.809" r="18"/>
<circle clip-path="url(#clip6202)" style="fill:#ff0000; stroke:none; fill-opacity:1" cx="2290.18" cy="693.809" r="14"/>
<circle clip-path="url(#clip6202)" style="fill:#000000; stroke:none; fill-opacity:1" cx="1989.41" cy="672.7" r="18"/>
<circle clip-path="url(#clip6202)" style="fill:#ff0000; stroke:none; fill-opacity:1" cx="1989.41" cy="672.7" r="14"/>
<circle clip-path="url(#clip6202)" style="fill:#000000; stroke:none; fill-opacity:1" cx="1471.2" cy="395.064" r="18"/>
<circle clip-path="url(#clip6202)" style="fill:#ff0000; stroke:none; fill-opacity:1" cx="1471.2" cy="395.064" r="14"/>
<circle clip-path="url(#clip6202)" style="fill:#000000; stroke:none; fill-opacity:1" cx="1629.84" cy="249.604" r="18"/>
<circle clip-path="url(#clip6202)" style="fill:#ff0000; stroke:none; fill-opacity:1" cx="1629.84" cy="249.604" r="14"/>
<circle clip-path="url(#clip6202)" style="fill:#000000; stroke:none; fill-opacity:1" cx="1994.23" cy="516.642" r="18"/>
<circle clip-path="url(#clip6202)" style="fill:#ff0000; stroke:none; fill-opacity:1" cx="1994.23" cy="516.642" r="14"/>
<circle clip-path="url(#clip6202)" style="fill:#000000; stroke:none; fill-opacity:1" cx="1417.03" cy="424.045" r="18"/>
<circle clip-path="url(#clip6202)" style="fill:#ff0000; stroke:none; fill-opacity:1" cx="1417.03" cy="424.045" r="14"/>
<circle clip-path="url(#clip6202)" style="fill:#000000; stroke:none; fill-opacity:1" cx="2179.56" cy="161.343" r="18"/>
<circle clip-path="url(#clip6202)" style="fill:#ff0000; stroke:none; fill-opacity:1" cx="2179.56" cy="161.343" r="14"/>
<circle clip-path="url(#clip6202)" style="fill:#000000; stroke:none; fill-opacity:1" cx="221.365" cy="1057.93" r="18"/>
<circle clip-path="url(#clip6202)" style="fill:#ff0000; stroke:none; fill-opacity:1" cx="221.365" cy="1057.93" r="14"/>
<circle clip-path="url(#clip6202)" style="fill:#000000; stroke:none; fill-opacity:1" cx="853.904" cy="1207.37" r="18"/>
<circle clip-path="url(#clip6202)" style="fill:#ff0000; stroke:none; fill-opacity:1" cx="853.904" cy="1207.37" r="14"/>
<circle clip-path="url(#clip6202)" style="fill:#000000; stroke:none; fill-opacity:1" cx="530.637" cy="1131.11" r="18"/>
<circle clip-path="url(#clip6202)" style="fill:#ff0000; stroke:none; fill-opacity:1" cx="530.637" cy="1131.11" r="14"/>
<circle clip-path="url(#clip6202)" style="fill:#000000; stroke:none; fill-opacity:1" cx="469.881" cy="1077.48" r="18"/>
<circle clip-path="url(#clip6202)" style="fill:#ff0000; stroke:none; fill-opacity:1" cx="469.881" cy="1077.48" r="14"/>
<circle clip-path="url(#clip6202)" style="fill:#000000; stroke:none; fill-opacity:1" cx="537.88" cy="1188.15" r="18"/>
<circle clip-path="url(#clip6202)" style="fill:#ff0000; stroke:none; fill-opacity:1" cx="537.88" cy="1188.15" r="14"/>
<circle clip-path="url(#clip6202)" style="fill:#000000; stroke:none; fill-opacity:1" cx="322.463" cy="1404.26" r="18"/>
<circle clip-path="url(#clip6202)" style="fill:#ff0000; stroke:none; fill-opacity:1" cx="322.463" cy="1404.26" r="14"/>
<circle clip-path="url(#clip6202)" style="fill:#000000; stroke:none; fill-opacity:1" cx="319.379" cy="1332.18" r="18"/>
<circle clip-path="url(#clip6202)" style="fill:#ff0000; stroke:none; fill-opacity:1" cx="319.379" cy="1332.18" r="14"/>
<circle clip-path="url(#clip6202)" style="fill:#000000; stroke:none; fill-opacity:1" cx="451.376" cy="1099.64" r="18"/>
<circle clip-path="url(#clip6202)" style="fill:#ff0000; stroke:none; fill-opacity:1" cx="451.376" cy="1099.64" r="14"/>
<circle clip-path="url(#clip6202)" style="fill:#000000; stroke:none; fill-opacity:1" cx="569.288" cy="1320.39" r="18"/>
<circle clip-path="url(#clip6202)" style="fill:#ff0000; stroke:none; fill-opacity:1" cx="569.288" cy="1320.39" r="14"/>
<circle clip-path="url(#clip6202)" style="fill:#000000; stroke:none; fill-opacity:1" cx="661.033" cy="1231.66" r="18"/>
<circle clip-path="url(#clip6202)" style="fill:#ff0000; stroke:none; fill-opacity:1" cx="661.033" cy="1231.66" r="14"/>
<circle clip-path="url(#clip6202)" style="fill:#000000; stroke:none; fill-opacity:1" cx="815.547" cy="1328.69" r="18"/>
<circle clip-path="url(#clip6202)" style="fill:#ff0000; stroke:none; fill-opacity:1" cx="815.547" cy="1328.69" r="14"/>
<circle clip-path="url(#clip6202)" style="fill:#000000; stroke:none; fill-opacity:1" cx="676.648" cy="879.501" r="18"/>
<circle clip-path="url(#clip6202)" style="fill:#ff0000; stroke:none; fill-opacity:1" cx="676.648" cy="879.501" r="14"/>
<circle clip-path="url(#clip6202)" style="fill:#000000; stroke:none; fill-opacity:1" cx="429.37" cy="944.709" r="18"/>
<circle clip-path="url(#clip6202)" style="fill:#ff0000; stroke:none; fill-opacity:1" cx="429.37" cy="944.709" r="14"/>
<circle clip-path="url(#clip6202)" style="fill:#000000; stroke:none; fill-opacity:1" cx="754.148" cy="1393.71" r="18"/>
<circle clip-path="url(#clip6202)" style="fill:#ff0000; stroke:none; fill-opacity:1" cx="754.148" cy="1393.71" r="14"/>
<circle clip-path="url(#clip6202)" style="fill:#000000; stroke:none; fill-opacity:1" cx="460.165" cy="1063.73" r="18"/>
<circle clip-path="url(#clip6202)" style="fill:#ff0000; stroke:none; fill-opacity:1" cx="460.165" cy="1063.73" r="14"/>
<circle clip-path="url(#clip6202)" style="fill:#000000; stroke:none; fill-opacity:1" cx="456.4" cy="1373.1" r="18"/>
<circle clip-path="url(#clip6202)" style="fill:#ff0000; stroke:none; fill-opacity:1" cx="456.4" cy="1373.1" r="14"/>
<circle clip-path="url(#clip6202)" style="fill:#000000; stroke:none; fill-opacity:1" cx="776.11" cy="976.824" r="18"/>
<circle clip-path="url(#clip6202)" style="fill:#ff0000; stroke:none; fill-opacity:1" cx="776.11" cy="976.824" r="14"/>
<circle clip-path="url(#clip6202)" style="fill:#000000; stroke:none; fill-opacity:1" cx="820.829" cy="918.819" r="18"/>
<circle clip-path="url(#clip6202)" style="fill:#ff0000; stroke:none; fill-opacity:1" cx="820.829" cy="918.819" r="14"/>
<circle clip-path="url(#clip6202)" style="fill:#000000; stroke:none; fill-opacity:1" cx="907.405" cy="1430.51" r="18"/>
<circle clip-path="url(#clip6202)" style="fill:#ff0000; stroke:none; fill-opacity:1" cx="907.405" cy="1430.51" r="14"/>
<circle clip-path="url(#clip6202)" style="fill:#000000; stroke:none; fill-opacity:1" cx="212.242" cy="967.44" r="18"/>
<circle clip-path="url(#clip6202)" style="fill:#ff0000; stroke:none; fill-opacity:1" cx="212.242" cy="967.44" r="14"/>
<circle clip-path="url(#clip6202)" style="fill:#000000; stroke:none; fill-opacity:1" cx="1780.36" cy="1275.43" r="18"/>
<circle clip-path="url(#clip6202)" style="fill:#0000ff; stroke:none; fill-opacity:1" cx="1780.36" cy="1275.43" r="14"/>
<circle clip-path="url(#clip6202)" style="fill:#000000; stroke:none; fill-opacity:1" cx="1495.62" cy="1077.09" r="18"/>
<circle clip-path="url(#clip6202)" style="fill:#0000ff; stroke:none; fill-opacity:1" cx="1495.62" cy="1077.09" r="14"/>
<circle clip-path="url(#clip6202)" style="fill:#000000; stroke:none; fill-opacity:1" cx="1951.95" cy="1019.65" r="18"/>
<circle clip-path="url(#clip6202)" style="fill:#0000ff; stroke:none; fill-opacity:1" cx="1951.95" cy="1019.65" r="14"/>
<circle clip-path="url(#clip6202)" style="fill:#000000; stroke:none; fill-opacity:1" cx="1609.5" cy="1141.4" r="18"/>
<circle clip-path="url(#clip6202)" style="fill:#0000ff; stroke:none; fill-opacity:1" cx="1609.5" cy="1141.4" r="14"/>
<circle clip-path="url(#clip6202)" style="fill:#000000; stroke:none; fill-opacity:1" cx="1845.88" cy="1163.49" r="18"/>
<circle clip-path="url(#clip6202)" style="fill:#0000ff; stroke:none; fill-opacity:1" cx="1845.88" cy="1163.49" r="14"/>
<circle clip-path="url(#clip6202)" style="fill:#000000; stroke:none; fill-opacity:1" cx="1453.3" cy="1077.14" r="18"/>
<circle clip-path="url(#clip6202)" style="fill:#0000ff; stroke:none; fill-opacity:1" cx="1453.3" cy="1077.14" r="14"/>
<circle clip-path="url(#clip6202)" style="fill:#000000; stroke:none; fill-opacity:1" cx="1871.45" cy="1336.15" r="18"/>
<circle clip-path="url(#clip6202)" style="fill:#0000ff; stroke:none; fill-opacity:1" cx="1871.45" cy="1336.15" r="14"/>
<circle clip-path="url(#clip6202)" style="fill:#000000; stroke:none; fill-opacity:1" cx="1619.64" cy="930.025" r="18"/>
<circle clip-path="url(#clip6202)" style="fill:#0000ff; stroke:none; fill-opacity:1" cx="1619.64" cy="930.025" r="14"/>
<circle clip-path="url(#clip6202)" style="fill:#000000; stroke:none; fill-opacity:1" cx="1468.88" cy="867.729" r="18"/>
<circle clip-path="url(#clip6202)" style="fill:#0000ff; stroke:none; fill-opacity:1" cx="1468.88" cy="867.729" r="14"/>
<circle clip-path="url(#clip6202)" style="fill:#000000; stroke:none; fill-opacity:1" cx="2171.46" cy="964.583" r="18"/>
<circle clip-path="url(#clip6202)" style="fill:#0000ff; stroke:none; fill-opacity:1" cx="2171.46" cy="964.583" r="14"/>
<circle clip-path="url(#clip6202)" style="fill:#000000; stroke:none; fill-opacity:1" cx="1976.54" cy="1166.25" r="18"/>
<circle clip-path="url(#clip6202)" style="fill:#0000ff; stroke:none; fill-opacity:1" cx="1976.54" cy="1166.25" r="14"/>
<circle clip-path="url(#clip6202)" style="fill:#000000; stroke:none; fill-opacity:1" cx="1689.83" cy="1396.25" r="18"/>
<circle clip-path="url(#clip6202)" style="fill:#0000ff; stroke:none; fill-opacity:1" cx="1689.83" cy="1396.25" r="14"/>
<circle clip-path="url(#clip6202)" style="fill:#000000; stroke:none; fill-opacity:1" cx="1471.69" cy="1006.08" r="18"/>
<circle clip-path="url(#clip6202)" style="fill:#0000ff; stroke:none; fill-opacity:1" cx="1471.69" cy="1006.08" r="14"/>
<circle clip-path="url(#clip6202)" style="fill:#000000; stroke:none; fill-opacity:1" cx="2121.62" cy="848.958" r="18"/>
<circle clip-path="url(#clip6202)" style="fill:#0000ff; stroke:none; fill-opacity:1" cx="2121.62" cy="848.958" r="14"/>
<circle clip-path="url(#clip6202)" style="fill:#000000; stroke:none; fill-opacity:1" cx="2175.03" cy="1191.57" r="18"/>
<circle clip-path="url(#clip6202)" style="fill:#0000ff; stroke:none; fill-opacity:1" cx="2175.03" cy="1191.57" r="14"/>
<circle clip-path="url(#clip6202)" style="fill:#000000; stroke:none; fill-opacity:1" cx="1447.31" cy="1166.34" r="18"/>
<circle clip-path="url(#clip6202)" style="fill:#0000ff; stroke:none; fill-opacity:1" cx="1447.31" cy="1166.34" r="14"/>
<circle clip-path="url(#clip6202)" style="fill:#000000; stroke:none; fill-opacity:1" cx="1737.07" cy="931.346" r="18"/>
<circle clip-path="url(#clip6202)" style="fill:#0000ff; stroke:none; fill-opacity:1" cx="1737.07" cy="931.346" r="14"/>
<circle clip-path="url(#clip6202)" style="fill:#000000; stroke:none; fill-opacity:1" cx="1682.76" cy="1110.39" r="18"/>
<circle clip-path="url(#clip6202)" style="fill:#0000ff; stroke:none; fill-opacity:1" cx="1682.76" cy="1110.39" r="14"/>
<circle clip-path="url(#clip6202)" style="fill:#000000; stroke:none; fill-opacity:1" cx="2087.72" cy="956.941" r="18"/>
<circle clip-path="url(#clip6202)" style="fill:#0000ff; stroke:none; fill-opacity:1" cx="2087.72" cy="956.941" r="14"/>
<circle clip-path="url(#clip6202)" style="fill:#000000; stroke:none; fill-opacity:1" cx="1619.72" cy="1446.71" r="18"/>
<circle clip-path="url(#clip6202)" style="fill:#0000ff; stroke:none; fill-opacity:1" cx="1619.72" cy="1446.71" r="14"/>
<circle clip-path="url(#clip6202)" style="fill:#000000; stroke:none; fill-opacity:1" cx="520.054" cy="185.16" r="18"/>
<circle clip-path="url(#clip6202)" style="fill:#0000ff; stroke:none; fill-opacity:1" cx="520.054" cy="185.16" r="14"/>
<circle clip-path="url(#clip6202)" style="fill:#000000; stroke:none; fill-opacity:1" cx="305.382" cy="430.741" r="18"/>
<circle clip-path="url(#clip6202)" style="fill:#0000ff; stroke:none; fill-opacity:1" cx="305.382" cy="430.741" r="14"/>
<circle clip-path="url(#clip6202)" style="fill:#000000; stroke:none; fill-opacity:1" cx="468.205" cy="275.524" r="18"/>
<circle clip-path="url(#clip6202)" style="fill:#0000ff; stroke:none; fill-opacity:1" cx="468.205" cy="275.524" r="14"/>
<circle clip-path="url(#clip6202)" style="fill:#000000; stroke:none; fill-opacity:1" cx="365.144" cy="471.491" r="18"/>
<circle clip-path="url(#clip6202)" style="fill:#0000ff; stroke:none; fill-opacity:1" cx="365.144" cy="471.491" r="14"/>
<circle clip-path="url(#clip6202)" style="fill:#000000; stroke:none; fill-opacity:1" cx="1033.7" cy="519.228" r="18"/>
<circle clip-path="url(#clip6202)" style="fill:#0000ff; stroke:none; fill-opacity:1" cx="1033.7" cy="519.228" r="14"/>
<circle clip-path="url(#clip6202)" style="fill:#000000; stroke:none; fill-opacity:1" cx="242.231" cy="271.617" r="18"/>
<circle clip-path="url(#clip6202)" style="fill:#0000ff; stroke:none; fill-opacity:1" cx="242.231" cy="271.617" r="14"/>
<circle clip-path="url(#clip6202)" style="fill:#000000; stroke:none; fill-opacity:1" cx="204.437" cy="496.104" r="18"/>
<circle clip-path="url(#clip6202)" style="fill:#0000ff; stroke:none; fill-opacity:1" cx="204.437" cy="496.104" r="14"/>
<circle clip-path="url(#clip6202)" style="fill:#000000; stroke:none; fill-opacity:1" cx="724.161" cy="445.076" r="18"/>
<circle clip-path="url(#clip6202)" style="fill:#0000ff; stroke:none; fill-opacity:1" cx="724.161" cy="445.076" r="14"/>
<circle clip-path="url(#clip6202)" style="fill:#000000; stroke:none; fill-opacity:1" cx="757.397" cy="328.786" r="18"/>
<circle clip-path="url(#clip6202)" style="fill:#0000ff; stroke:none; fill-opacity:1" cx="757.397" cy="328.786" r="14"/>
<circle clip-path="url(#clip6202)" style="fill:#000000; stroke:none; fill-opacity:1" cx="471.024" cy="673.728" r="18"/>
<circle clip-path="url(#clip6202)" style="fill:#0000ff; stroke:none; fill-opacity:1" cx="471.024" cy="673.728" r="14"/>
<circle clip-path="url(#clip6202)" style="fill:#000000; stroke:none; fill-opacity:1" cx="662.192" cy="136.311" r="18"/>
<circle clip-path="url(#clip6202)" style="fill:#0000ff; stroke:none; fill-opacity:1" cx="662.192" cy="136.311" r="14"/>
<circle clip-path="url(#clip6202)" style="fill:#000000; stroke:none; fill-opacity:1" cx="574.153" cy="471.451" r="18"/>
<circle clip-path="url(#clip6202)" style="fill:#0000ff; stroke:none; fill-opacity:1" cx="574.153" cy="471.451" r="14"/>
<circle clip-path="url(#clip6202)" style="fill:#000000; stroke:none; fill-opacity:1" cx="318.413" cy="631.381" r="18"/>
<circle clip-path="url(#clip6202)" style="fill:#0000ff; stroke:none; fill-opacity:1" cx="318.413" cy="631.381" r="14"/>
<circle clip-path="url(#clip6202)" style="fill:#000000; stroke:none; fill-opacity:1" cx="804.162" cy="287.738" r="18"/>
<circle clip-path="url(#clip6202)" style="fill:#0000ff; stroke:none; fill-opacity:1" cx="804.162" cy="287.738" r="14"/>
<circle clip-path="url(#clip6202)" style="fill:#000000; stroke:none; fill-opacity:1" cx="1145.1" cy="614.456" r="18"/>
<circle clip-path="url(#clip6202)" style="fill:#0000ff; stroke:none; fill-opacity:1" cx="1145.1" cy="614.456" r="14"/>
<circle clip-path="url(#clip6202)" style="fill:#000000; stroke:none; fill-opacity:1" cx="657.02" cy="650.937" r="18"/>
<circle clip-path="url(#clip6202)" style="fill:#0000ff; stroke:none; fill-opacity:1" cx="657.02" cy="650.937" r="14"/>
<circle clip-path="url(#clip6202)" style="fill:#000000; stroke:none; fill-opacity:1" cx="811.161" cy="411.28" r="18"/>
<circle clip-path="url(#clip6202)" style="fill:#0000ff; stroke:none; fill-opacity:1" cx="811.161" cy="411.28" r="14"/>
<circle clip-path="url(#clip6202)" style="fill:#000000; stroke:none; fill-opacity:1" cx="986.367" cy="88.0053" r="18"/>
<circle clip-path="url(#clip6202)" style="fill:#0000ff; stroke:none; fill-opacity:1" cx="986.367" cy="88.0053" r="14"/>
<circle clip-path="url(#clip6202)" style="fill:#000000; stroke:none; fill-opacity:1" cx="579.676" cy="481.629" r="18"/>
<circle clip-path="url(#clip6202)" style="fill:#0000ff; stroke:none; fill-opacity:1" cx="579.676" cy="481.629" r="14"/>
<circle clip-path="url(#clip6202)" style="fill:#000000; stroke:none; fill-opacity:1" cx="353.745" cy="599.246" r="18"/>
<circle clip-path="url(#clip6202)" style="fill:#0000ff; stroke:none; fill-opacity:1" cx="353.745" cy="599.246" r="14"/>
<path clip-path="url(#clip6200)" d="
M1989.93 312.204 L2280.76 312.204 L2280.76 130.764 L1989.93 130.764  Z
  " fill="#ffffff" fill-rule="evenodd" fill-opacity="1"/>
<polyline clip-path="url(#clip6200)" style="stroke:#000000; stroke-width:4; stroke-opacity:1; fill:none" points="
  1989.93,312.204 2280.76,312.204 2280.76,130.764 1989.93,130.764 1989.93,312.204 
  "/>
<circle clip-path="url(#clip6200)" style="fill:#000000; stroke:none; fill-opacity:1" cx="2097.93" cy="191.244" r="25"/>
<circle clip-path="url(#clip6200)" style="fill:#ff0000; stroke:none; fill-opacity:1" cx="2097.93" cy="191.244" r="21"/>
<g clip-path="url(#clip6200)">
<text style="fill:#000000; fill-opacity:1; font-family:Arial,Helvetica Neue,Helvetica,sans-serif; font-size:48px; text-anchor:start;" transform="rotate(0, 2181.93, 208.744)" x="2181.93" y="208.744">y1</text>
</g>
<circle clip-path="url(#clip6200)" style="fill:#000000; stroke:none; fill-opacity:1" cx="2097.93" cy="251.724" r="25"/>
<circle clip-path="url(#clip6200)" style="fill:#0000ff; stroke:none; fill-opacity:1" cx="2097.93" cy="251.724" r="21"/>
<g clip-path="url(#clip6200)">
<text style="fill:#000000; fill-opacity:1; font-family:Arial,Helvetica Neue,Helvetica,sans-serif; font-size:48px; text-anchor:start;" transform="rotate(0, 2181.93, 269.224)" x="2181.93" y="269.224">y2</text>
</g>
</svg>
