<?xml version="1.0" encoding="utf-8"?>
<svg xmlns="http://www.w3.org/2000/svg" xmlns:xlink="http://www.w3.org/1999/xlink" width="600" height="400" viewBox="0 0 2400 1600">
<defs>
  <clipPath id="clip7100">
    <rect x="0" y="0" width="2400" height="1600"/>
  </clipPath>
</defs>
<path clip-path="url(#clip7100)" d="
M0 1600 L2400 1600 L2400 0 L0 0  Z
  " fill="#ffffff" fill-rule="evenodd" fill-opacity="1"/>
<defs>
  <clipPath id="clip7101">
    <rect x="480" y="0" width="1681" height="1600"/>
  </clipPath>
</defs>
<path clip-path="url(#clip7100)" d="
M182.008 1487.47 L2112.76 1487.47 L2112.76 47.2441 L182.008 47.2441  Z
  " fill="#ffffff" fill-rule="evenodd" fill-opacity="1"/>
<defs>
  <clipPath id="clip7102">
    <rect x="182" y="47" width="1932" height="1441"/>
  </clipPath>
</defs>
<polyline clip-path="url(#clip7102)" style="stroke:#000000; stroke-width:2; stroke-opacity:0.1; fill:none" points="
  388.44,1487.47 388.44,47.2441 
  "/>
<polyline clip-path="url(#clip7102)" style="stroke:#000000; stroke-width:2; stroke-opacity:0.1; fill:none" points="
  767.911,1487.47 767.911,47.2441 
  "/>
<polyline clip-path="url(#clip7102)" style="stroke:#000000; stroke-width:2; stroke-opacity:0.1; fill:none" points="
  1147.38,1487.47 1147.38,47.2441 
  "/>
<polyline clip-path="url(#clip7102)" style="stroke:#000000; stroke-width:2; stroke-opacity:0.1; fill:none" points="
  1526.85,1487.47 1526.85,47.2441 
  "/>
<polyline clip-path="url(#clip7102)" style="stroke:#000000; stroke-width:2; stroke-opacity:0.1; fill:none" points="
  1906.32,1487.47 1906.32,47.2441 
  "/>
<polyline clip-path="url(#clip7102)" style="stroke:#000000; stroke-width:2; stroke-opacity:0.1; fill:none" points="
  182.008,1333.49 2112.76,1333.49 
  "/>
<polyline clip-path="url(#clip7102)" style="stroke:#000000; stroke-width:2; stroke-opacity:0.1; fill:none" points="
  182.008,1050.42 2112.76,1050.42 
  "/>
<polyline clip-path="url(#clip7102)" style="stroke:#000000; stroke-width:2; stroke-opacity:0.1; fill:none" points="
  182.008,767.359 2112.76,767.359 
  "/>
<polyline clip-path="url(#clip7102)" style="stroke:#000000; stroke-width:2; stroke-opacity:0.1; fill:none" points="
  182.008,484.295 2112.76,484.295 
  "/>
<polyline clip-path="url(#clip7102)" style="stroke:#000000; stroke-width:2; stroke-opacity:0.1; fill:none" points="
  182.008,201.231 2112.76,201.231 
  "/>
<polyline clip-path="url(#clip7100)" style="stroke:#000000; stroke-width:4; stroke-opacity:1; fill:none" points="
  182.008,1487.47 2112.76,1487.47 
  "/>
<polyline clip-path="url(#clip7100)" style="stroke:#000000; stroke-width:4; stroke-opacity:1; fill:none" points="
  182.008,1487.47 182.008,47.2441 
  "/>
<polyline clip-path="url(#clip7100)" style="stroke:#000000; stroke-width:4; stroke-opacity:1; fill:none" points="
  388.44,1487.47 388.44,1470.19 
  "/>
<polyline clip-path="url(#clip7100)" style="stroke:#000000; stroke-width:4; stroke-opacity:1; fill:none" points="
  767.911,1487.47 767.911,1470.19 
  "/>
<polyline clip-path="url(#clip7100)" style="stroke:#000000; stroke-width:4; stroke-opacity:1; fill:none" points="
  1147.38,1487.47 1147.38,1470.19 
  "/>
<polyline clip-path="url(#clip7100)" style="stroke:#000000; stroke-width:4; stroke-opacity:1; fill:none" points="
  1526.85,1487.47 1526.85,1470.19 
  "/>
<polyline clip-path="url(#clip7100)" style="stroke:#000000; stroke-width:4; stroke-opacity:1; fill:none" points="
  1906.32,1487.47 1906.32,1470.19 
  "/>
<polyline clip-path="url(#clip7100)" style="stroke:#000000; stroke-width:4; stroke-opacity:1; fill:none" points="
  182.008,1333.49 205.177,1333.49 
  "/>
<polyline clip-path="url(#clip7100)" style="stroke:#000000; stroke-width:4; stroke-opacity:1; fill:none" points="
  182.008,1050.42 205.177,1050.42 
  "/>
<polyline clip-path="url(#clip7100)" style="stroke:#000000; stroke-width:4; stroke-opacity:1; fill:none" points="
  182.008,767.359 205.177,767.359 
  "/>
<polyline clip-path="url(#clip7100)" style="stroke:#000000; stroke-width:4; stroke-opacity:1; fill:none" points="
  182.008,484.295 205.177,484.295 
  "/>
<polyline clip-path="url(#clip7100)" style="stroke:#000000; stroke-width:4; stroke-opacity:1; fill:none" points="
  182.008,201.231 205.177,201.231 
  "/>
<g clip-path="url(#clip7100)">
<text style="fill:#000000; fill-opacity:1; font-family:Arial,Helvetica Neue,Helvetica,sans-serif; font-size:48px; text-anchor:middle;" transform="rotate(0, 388.44, 1541.47)" x="388.44" y="1541.47">-5.0</text>
</g>
<g clip-path="url(#clip7100)">
<text style="fill:#000000; fill-opacity:1; font-family:Arial,Helvetica Neue,Helvetica,sans-serif; font-size:48px; text-anchor:middle;" transform="rotate(0, 767.911, 1541.47)" x="767.911" y="1541.47">-2.5</text>
</g>
<g clip-path="url(#clip7100)">
<text style="fill:#000000; fill-opacity:1; font-family:Arial,Helvetica Neue,Helvetica,sans-serif; font-size:48px; text-anchor:middle;" transform="rotate(0, 1147.38, 1541.47)" x="1147.38" y="1541.47">0.0</text>
</g>
<g clip-path="url(#clip7100)">
<text style="fill:#000000; fill-opacity:1; font-family:Arial,Helvetica Neue,Helvetica,sans-serif; font-size:48px; text-anchor:middle;" transform="rotate(0, 1526.85, 1541.47)" x="1526.85" y="1541.47">2.5</text>
</g>
<g clip-path="url(#clip7100)">
<text style="fill:#000000; fill-opacity:1; font-family:Arial,Helvetica Neue,Helvetica,sans-serif; font-size:48px; text-anchor:middle;" transform="rotate(0, 1906.32, 1541.47)" x="1906.32" y="1541.47">5.0</text>
</g>
<g clip-path="url(#clip7100)">
<text style="fill:#000000; fill-opacity:1; font-family:Arial,Helvetica Neue,Helvetica,sans-serif; font-size:48px; text-anchor:end;" transform="rotate(0, 158.008, 1350.99)" x="158.008" y="1350.99">-5.0</text>
</g>
<g clip-path="url(#clip7100)">
<text style="fill:#000000; fill-opacity:1; font-family:Arial,Helvetica Neue,Helvetica,sans-serif; font-size:48px; text-anchor:end;" transform="rotate(0, 158.008, 1067.92)" x="158.008" y="1067.92">-2.5</text>
</g>
<g clip-path="url(#clip7100)">
<text style="fill:#000000; fill-opacity:1; font-family:Arial,Helvetica Neue,Helvetica,sans-serif; font-size:48px; text-anchor:end;" transform="rotate(0, 158.008, 784.859)" x="158.008" y="784.859">0.0</text>
</g>
<g clip-path="url(#clip7100)">
<text style="fill:#000000; fill-opacity:1; font-family:Arial,Helvetica Neue,Helvetica,sans-serif; font-size:48px; text-anchor:end;" transform="rotate(0, 158.008, 501.795)" x="158.008" y="501.795">2.5</text>
</g>
<g clip-path="url(#clip7100)">
<text style="fill:#000000; fill-opacity:1; font-family:Arial,Helvetica Neue,Helvetica,sans-serif; font-size:48px; text-anchor:end;" transform="rotate(0, 158.008, 218.731)" x="158.008" y="218.731">5.0</text>
</g>
<circle clip-path="url(#clip7102)" cx="1626.85" cy="226.453" r="14" fill="#ff0000" fill-rule="evenodd" fill-opacity="1" stroke="#000000" stroke-opacity="1" stroke-width="3.2"/>
<circle clip-path="url(#clip7102)" cx="1747.04" cy="219.232" r="14" fill="#ff0000" fill-rule="evenodd" fill-opacity="1" stroke="#000000" stroke-opacity="1" stroke-width="3.2"/>
<circle clip-path="url(#clip7102)" cx="1610.04" cy="228.859" r="14" fill="#ff0000" fill-rule="evenodd" fill-opacity="1" stroke="#000000" stroke-opacity="1" stroke-width="3.2"/>
<circle clip-path="url(#clip7102)" cx="1537.54" cy="308.278" r="14" fill="#ff0000" fill-rule="evenodd" fill-opacity="1" stroke="#000000" stroke-opacity="1" stroke-width="3.2"/>
<circle clip-path="url(#clip7102)" cx="1765.63" cy="292.353" r="14" fill="#ff0000" fill-rule="evenodd" fill-opacity="1" stroke="#000000" stroke-opacity="1" stroke-width="3.2"/>
<circle clip-path="url(#clip7102)" cx="1806.7" cy="693.341" r="14" fill="#ff0000" fill-rule="evenodd" fill-opacity="1" stroke="#000000" stroke-opacity="1" stroke-width="3.2"/>
<circle clip-path="url(#clip7102)" cx="1360.29" cy="662.575" r="14" fill="#ff0000" fill-rule="evenodd" fill-opacity="1" stroke="#000000" stroke-opacity="1" stroke-width="3.2"/>
<circle clip-path="url(#clip7102)" cx="1427.24" cy="550.287" r="14" fill="#ff0000" fill-rule="evenodd" fill-opacity="1" stroke="#000000" stroke-opacity="1" stroke-width="3.2"/>
<circle clip-path="url(#clip7102)" cx="1391.88" cy="645.625" r="14" fill="#ff0000" fill-rule="evenodd" fill-opacity="1" stroke="#000000" stroke-opacity="1" stroke-width="3.2"/>
<circle clip-path="url(#clip7102)" cx="1619.22" cy="520.093" r="14" fill="#ff0000" fill-rule="evenodd" fill-opacity="1" stroke="#000000" stroke-opacity="1" stroke-width="3.2"/>
<circle clip-path="url(#clip7102)" cx="1666.49" cy="236.329" r="14" fill="#ff0000" fill-rule="evenodd" fill-opacity="1" stroke="#000000" stroke-opacity="1" stroke-width="3.2"/>
<circle clip-path="url(#clip7102)" cx="1230.73" cy="487.1" r="14" fill="#ff0000" fill-rule="evenodd" fill-opacity="1" stroke="#000000" stroke-opacity="1" stroke-width="3.2"/>
<circle clip-path="url(#clip7102)" cx="1268.65" cy="584.966" r="14" fill="#ff0000" fill-rule="evenodd" fill-opacity="1" stroke="#000000" stroke-opacity="1" stroke-width="3.2"/>
<circle clip-path="url(#clip7102)" cx="1876.78" cy="704.724" r="14" fill="#ff0000" fill-rule="evenodd" fill-opacity="1" stroke="#000000" stroke-opacity="1" stroke-width="3.2"/>
<circle clip-path="url(#clip7102)" cx="1665" cy="687.287" r="14" fill="#ff0000" fill-rule="evenodd" fill-opacity="1" stroke="#000000" stroke-opacity="1" stroke-width="3.2"/>
<circle clip-path="url(#clip7102)" cx="1300.11" cy="457.941" r="14" fill="#ff0000" fill-rule="evenodd" fill-opacity="1" stroke="#000000" stroke-opacity="1" stroke-width="3.2"/>
<circle clip-path="url(#clip7102)" cx="1411.81" cy="337.781" r="14" fill="#ff0000" fill-rule="evenodd" fill-opacity="1" stroke="#000000" stroke-opacity="1" stroke-width="3.2"/>
<circle clip-path="url(#clip7102)" cx="1668.39" cy="558.372" r="14" fill="#ff0000" fill-rule="evenodd" fill-opacity="1" stroke="#000000" stroke-opacity="1" stroke-width="3.2"/>
<circle clip-path="url(#clip7102)" cx="1261.97" cy="481.881" r="14" fill="#ff0000" fill-rule="evenodd" fill-opacity="1" stroke="#000000" stroke-opacity="1" stroke-width="3.2"/>
<circle clip-path="url(#clip7102)" cx="1798.89" cy="264.871" r="14" fill="#ff0000" fill-rule="evenodd" fill-opacity="1" stroke="#000000" stroke-opacity="1" stroke-width="3.2"/>
<circle clip-path="url(#clip7102)" cx="420.058" cy="1005.51" r="14" fill="#ff0000" fill-rule="evenodd" fill-opacity="1" stroke="#000000" stroke-opacity="1" stroke-width="3.2"/>
<circle clip-path="url(#clip7102)" cx="865.45" cy="1128.96" r="14" fill="#ff0000" fill-rule="evenodd" fill-opacity="1" stroke="#000000" stroke-opacity="1" stroke-width="3.2"/>
<circle clip-path="url(#clip7102)" cx="637.827" cy="1065.96" r="14" fill="#ff0000" fill-rule="evenodd" fill-opacity="1" stroke="#000000" stroke-opacity="1" stroke-width="3.2"/>
<circle clip-path="url(#clip7102)" cx="595.047" cy="1021.66" r="14" fill="#ff0000" fill-rule="evenodd" fill-opacity="1" stroke="#000000" stroke-opacity="1" stroke-width="3.2"/>
<circle clip-path="url(#clip7102)" cx="642.927" cy="1113.08" r="14" fill="#ff0000" fill-rule="evenodd" fill-opacity="1" stroke="#000000" stroke-opacity="1" stroke-width="3.2"/>
<circle clip-path="url(#clip7102)" cx="491.244" cy="1291.6" r="14" fill="#ff0000" fill-rule="evenodd" fill-opacity="1" stroke="#000000" stroke-opacity="1" stroke-width="3.2"/>
<circle clip-path="url(#clip7102)" cx="489.073" cy="1232.06" r="14" fill="#ff0000" fill-rule="evenodd" fill-opacity="1" stroke="#000000" stroke-opacity="1" stroke-width="3.2"/>
<circle clip-path="url(#clip7102)" cx="582.017" cy="1039.97" r="14" fill="#ff0000" fill-rule="evenodd" fill-opacity="1" stroke="#000000" stroke-opacity="1" stroke-width="3.2"/>
<circle clip-path="url(#clip7102)" cx="665.042" cy="1222.32" r="14" fill="#ff0000" fill-rule="evenodd" fill-opacity="1" stroke="#000000" stroke-opacity="1" stroke-width="3.2"/>
<circle clip-path="url(#clip7102)" cx="729.643" cy="1149.03" r="14" fill="#ff0000" fill-rule="evenodd" fill-opacity="1" stroke="#000000" stroke-opacity="1" stroke-width="3.2"/>
<circle clip-path="url(#clip7102)" cx="838.442" cy="1229.18" r="14" fill="#ff0000" fill-rule="evenodd" fill-opacity="1" stroke="#000000" stroke-opacity="1" stroke-width="3.2"/>
<circle clip-path="url(#clip7102)" cx="740.638" cy="858.118" r="14" fill="#ff0000" fill-rule="evenodd" fill-opacity="1" stroke="#000000" stroke-opacity="1" stroke-width="3.2"/>
<circle clip-path="url(#clip7102)" cx="566.521" cy="911.985" r="14" fill="#ff0000" fill-rule="evenodd" fill-opacity="1" stroke="#000000" stroke-opacity="1" stroke-width="3.2"/>
<circle clip-path="url(#clip7102)" cx="795.209" cy="1282.89" r="14" fill="#ff0000" fill-rule="evenodd" fill-opacity="1" stroke="#000000" stroke-opacity="1" stroke-width="3.2"/>
<circle clip-path="url(#clip7102)" cx="588.205" cy="1010.3" r="14" fill="#ff0000" fill-rule="evenodd" fill-opacity="1" stroke="#000000" stroke-opacity="1" stroke-width="3.2"/>
<circle clip-path="url(#clip7102)" cx="585.554" cy="1265.87" r="14" fill="#ff0000" fill-rule="evenodd" fill-opacity="1" stroke="#000000" stroke-opacity="1" stroke-width="3.2"/>
<circle clip-path="url(#clip7102)" cx="810.673" cy="938.514" r="14" fill="#ff0000" fill-rule="evenodd" fill-opacity="1" stroke="#000000" stroke-opacity="1" stroke-width="3.2"/>
<circle clip-path="url(#clip7102)" cx="842.161" cy="890.598" r="14" fill="#ff0000" fill-rule="evenodd" fill-opacity="1" stroke="#000000" stroke-opacity="1" stroke-width="3.2"/>
<circle clip-path="url(#clip7102)" cx="903.122" cy="1313.29" r="14" fill="#ff0000" fill-rule="evenodd" fill-opacity="1" stroke="#000000" stroke-opacity="1" stroke-width="3.2"/>
<circle clip-path="url(#clip7102)" cx="413.634" cy="930.762" r="14" fill="#ff0000" fill-rule="evenodd" fill-opacity="1" stroke="#000000" stroke-opacity="1" stroke-width="3.2"/>
<circle clip-path="url(#clip7102)" cx="1517.8" cy="1185.18" r="14" fill="#0000ff" fill-rule="evenodd" fill-opacity="1" stroke="#000000" stroke-opacity="1" stroke-width="3.2"/>
<circle clip-path="url(#clip7102)" cx="1317.3" cy="1021.34" r="14" fill="#0000ff" fill-rule="evenodd" fill-opacity="1" stroke="#000000" stroke-opacity="1" stroke-width="3.2"/>
<circle clip-path="url(#clip7102)" cx="1638.62" cy="973.889" r="14" fill="#0000ff" fill-rule="evenodd" fill-opacity="1" stroke="#000000" stroke-opacity="1" stroke-width="3.2"/>
<circle clip-path="url(#clip7102)" cx="1397.49" cy="1074.47" r="14" fill="#0000ff" fill-rule="evenodd" fill-opacity="1" stroke="#000000" stroke-opacity="1" stroke-width="3.2"/>
<circle clip-path="url(#clip7102)" cx="1563.94" cy="1092.72" r="14" fill="#0000ff" fill-rule="evenodd" fill-opacity="1" stroke="#000000" stroke-opacity="1" stroke-width="3.2"/>
<circle clip-path="url(#clip7102)" cx="1287.51" cy="1021.38" r="14" fill="#0000ff" fill-rule="evenodd" fill-opacity="1" stroke="#000000" stroke-opacity="1" stroke-width="3.2"/>
<circle clip-path="url(#clip7102)" cx="1581.94" cy="1235.34" r="14" fill="#0000ff" fill-rule="evenodd" fill-opacity="1" stroke="#000000" stroke-opacity="1" stroke-width="3.2"/>
<circle clip-path="url(#clip7102)" cx="1404.63" cy="899.854" r="14" fill="#0000ff" fill-rule="evenodd" fill-opacity="1" stroke="#000000" stroke-opacity="1" stroke-width="3.2"/>
<circle clip-path="url(#clip7102)" cx="1298.48" cy="848.394" r="14" fill="#0000ff" fill-rule="evenodd" fill-opacity="1" stroke="#000000" stroke-opacity="1" stroke-width="3.2"/>
<circle clip-path="url(#clip7102)" cx="1793.18" cy="928.402" r="14" fill="#0000ff" fill-rule="evenodd" fill-opacity="1" stroke="#000000" stroke-opacity="1" stroke-width="3.2"/>
<circle clip-path="url(#clip7102)" cx="1655.94" cy="1094.99" r="14" fill="#0000ff" fill-rule="evenodd" fill-opacity="1" stroke="#000000" stroke-opacity="1" stroke-width="3.2"/>
<circle clip-path="url(#clip7102)" cx="1454.05" cy="1284.99" r="14" fill="#0000ff" fill-rule="evenodd" fill-opacity="1" stroke="#000000" stroke-opacity="1" stroke-width="3.2"/>
<circle clip-path="url(#clip7102)" cx="1300.45" cy="962.681" r="14" fill="#0000ff" fill-rule="evenodd" fill-opacity="1" stroke="#000000" stroke-opacity="1" stroke-width="3.2"/>
<circle clip-path="url(#clip7102)" cx="1758.1" cy="832.888" r="14" fill="#0000ff" fill-rule="evenodd" fill-opacity="1" stroke="#000000" stroke-opacity="1" stroke-width="3.2"/>
<circle clip-path="url(#clip7102)" cx="1795.7" cy="1115.91" r="14" fill="#0000ff" fill-rule="evenodd" fill-opacity="1" stroke="#000000" stroke-opacity="1" stroke-width="3.2"/>
<circle clip-path="url(#clip7102)" cx="1283.29" cy="1095.07" r="14" fill="#0000ff" fill-rule="evenodd" fill-opacity="1" stroke="#000000" stroke-opacity="1" stroke-width="3.2"/>
<circle clip-path="url(#clip7102)" cx="1487.32" cy="900.946" r="14" fill="#0000ff" fill-rule="evenodd" fill-opacity="1" stroke="#000000" stroke-opacity="1" stroke-width="3.2"/>
<circle clip-path="url(#clip7102)" cx="1449.08" cy="1048.85" r="14" fill="#0000ff" fill-rule="evenodd" fill-opacity="1" stroke="#000000" stroke-opacity="1" stroke-width="3.2"/>
<circle clip-path="url(#clip7102)" cx="1734.22" cy="922.09" r="14" fill="#0000ff" fill-rule="evenodd" fill-opacity="1" stroke="#000000" stroke-opacity="1" stroke-width="3.2"/>
<circle clip-path="url(#clip7102)" cx="1404.69" cy="1326.67" r="14" fill="#0000ff" fill-rule="evenodd" fill-opacity="1" stroke="#000000" stroke-opacity="1" stroke-width="3.2"/>
<circle clip-path="url(#clip7102)" cx="630.375" cy="284.546" r="14" fill="#0000ff" fill-rule="evenodd" fill-opacity="1" stroke="#000000" stroke-opacity="1" stroke-width="3.2"/>
<circle clip-path="url(#clip7102)" cx="479.217" cy="487.412" r="14" fill="#0000ff" fill-rule="evenodd" fill-opacity="1" stroke="#000000" stroke-opacity="1" stroke-width="3.2"/>
<circle clip-path="url(#clip7102)" cx="593.867" cy="359.193" r="14" fill="#0000ff" fill-rule="evenodd" fill-opacity="1" stroke="#000000" stroke-opacity="1" stroke-width="3.2"/>
<circle clip-path="url(#clip7102)" cx="521.298" cy="521.075" r="14" fill="#0000ff" fill-rule="evenodd" fill-opacity="1" stroke="#000000" stroke-opacity="1" stroke-width="3.2"/>
<circle clip-path="url(#clip7102)" cx="992.052" cy="560.509" r="14" fill="#0000ff" fill-rule="evenodd" fill-opacity="1" stroke="#000000" stroke-opacity="1" stroke-width="3.2"/>
<circle clip-path="url(#clip7102)" cx="434.751" cy="355.965" r="14" fill="#0000ff" fill-rule="evenodd" fill-opacity="1" stroke="#000000" stroke-opacity="1" stroke-width="3.2"/>
<circle clip-path="url(#clip7102)" cx="408.138" cy="541.406" r="14" fill="#0000ff" fill-rule="evenodd" fill-opacity="1" stroke="#000000" stroke-opacity="1" stroke-width="3.2"/>
<circle clip-path="url(#clip7102)" cx="774.094" cy="499.254" r="14" fill="#0000ff" fill-rule="evenodd" fill-opacity="1" stroke="#000000" stroke-opacity="1" stroke-width="3.2"/>
<circle clip-path="url(#clip7102)" cx="797.496" cy="403.191" r="14" fill="#0000ff" fill-rule="evenodd" fill-opacity="1" stroke="#000000" stroke-opacity="1" stroke-width="3.2"/>
<circle clip-path="url(#clip7102)" cx="595.852" cy="688.136" r="14" fill="#0000ff" fill-rule="evenodd" fill-opacity="1" stroke="#000000" stroke-opacity="1" stroke-width="3.2"/>
<circle clip-path="url(#clip7102)" cx="730.459" cy="244.193" r="14" fill="#0000ff" fill-rule="evenodd" fill-opacity="1" stroke="#000000" stroke-opacity="1" stroke-width="3.2"/>
<circle clip-path="url(#clip7102)" cx="668.468" cy="521.042" r="14" fill="#0000ff" fill-rule="evenodd" fill-opacity="1" stroke="#000000" stroke-opacity="1" stroke-width="3.2"/>
<circle clip-path="url(#clip7102)" cx="488.393" cy="653.155" r="14" fill="#0000ff" fill-rule="evenodd" fill-opacity="1" stroke="#000000" stroke-opacity="1" stroke-width="3.2"/>
<circle clip-path="url(#clip7102)" cx="830.425" cy="369.282" r="14" fill="#0000ff" fill-rule="evenodd" fill-opacity="1" stroke="#000000" stroke-opacity="1" stroke-width="3.2"/>
<circle clip-path="url(#clip7102)" cx="1070.49" cy="639.174" r="14" fill="#0000ff" fill-rule="evenodd" fill-opacity="1" stroke="#000000" stroke-opacity="1" stroke-width="3.2"/>
<circle clip-path="url(#clip7102)" cx="726.818" cy="669.309" r="14" fill="#0000ff" fill-rule="evenodd" fill-opacity="1" stroke="#000000" stroke-opacity="1" stroke-width="3.2"/>
<circle clip-path="url(#clip7102)" cx="835.354" cy="471.337" r="14" fill="#0000ff" fill-rule="evenodd" fill-opacity="1" stroke="#000000" stroke-opacity="1" stroke-width="3.2"/>
<circle clip-path="url(#clip7102)" cx="958.722" cy="204.29" r="14" fill="#0000ff" fill-rule="evenodd" fill-opacity="1" stroke="#000000" stroke-opacity="1" stroke-width="3.2"/>
<circle clip-path="url(#clip7102)" cx="672.357" cy="529.45" r="14" fill="#0000ff" fill-rule="evenodd" fill-opacity="1" stroke="#000000" stroke-opacity="1" stroke-width="3.2"/>
<circle clip-path="url(#clip7102)" cx="513.272" cy="626.609" r="14" fill="#0000ff" fill-rule="evenodd" fill-opacity="1" stroke="#000000" stroke-opacity="1" stroke-width="3.2"/>
<polyline clip-path="url(#clip7102)" style="stroke:#0a0622; stroke-width:4; stroke-opacity:1; fill:none" points="
  1218.61,1446.71 1218.38,1390.1 1215.35,1333.49 1165.74,1276.87 1147.38,1261.53 1143.4,1220.26 1142.88,1163.65 1142.78,1107.04 1142.75,1050.42 1142.74,993.811 
  1142.74,937.198 1142.74,880.585 1142.42,823.972 1138.54,767.359 1071.49,717.319 1005.36,710.747 995.594,703.485 919.699,658.958 843.805,657.954 767.911,657.825 
  692.017,657.791 616.123,657.659 589.104,654.134 540.229,618.157 464.334,601.883 388.44,601.295 312.546,601.202 236.652,601.172 
  "/>
<polyline clip-path="url(#clip7102)" style="stroke:#1f0b46; stroke-width:4; stroke-opacity:1; fill:none" points="
  236.652,604.916 312.546,604.972 388.44,605.16 464.334,606.349 540.229,639.288 560.397,654.134 616.123,661.405 692.017,661.538 767.911,661.606 843.805,661.867 
  919.699,663.898 989.308,710.747 995.594,714.192 1071.49,724.075 1129.49,767.359 1137.33,823.972 1137.97,880.585 1137.98,937.198 1137.99,993.811 1137.99,1050.42 
  1138.02,1107.04 1138.11,1163.65 1138.6,1220.26 1143.8,1276.87 1147.38,1281.78 1207.16,1333.49 1213.32,1390.1 1213.79,1446.71 
  "/>
<polyline clip-path="url(#clip7102)" style="stroke:#3b0963; stroke-width:4; stroke-opacity:1; fill:none" points="
  1208.98,1446.71 1208.26,1390.1 1198.96,1333.49 1147.38,1288.86 1138.63,1276.87 1133.8,1220.26 1133.34,1163.65 1133.26,1107.04 1133.24,1050.42 1133.23,993.811 
  1133.22,937.198 1133.21,880.585 1132.25,823.972 1120.43,767.359 1071.49,730.832 995.594,718.216 981.968,710.747 919.699,668.838 843.805,665.779 767.911,665.386 
  692.017,665.286 616.123,665.151 540.229,655.483 537.97,654.134 464.334,610.816 388.44,609.025 312.546,608.741 236.652,608.661 
  "/>
<polyline clip-path="url(#clip7102)" style="stroke:#550f6d; stroke-width:4; stroke-opacity:1; fill:none" points="
  236.652,612.405 312.546,612.511 388.44,612.89 464.334,615.282 530.378,654.134 540.229,660.017 616.123,668.896 692.017,669.033 767.911,669.166 843.805,669.691 
  919.699,673.778 974.628,710.747 995.594,722.239 1071.49,737.588 1111.38,767.359 1127.17,823.972 1128.45,880.585 1128.47,937.198 1128.47,993.811 1128.48,1050.42 
  1128.5,1107.04 1128.58,1163.65 1128.99,1220.26 1133.46,1276.87 1147.38,1295.95 1190.77,1333.49 1203.21,1390.1 1204.17,1446.71 
  "/>
<polyline clip-path="url(#clip7102)" style="stroke:#6e186e; stroke-width:4; stroke-opacity:1; fill:none" points="
  1199.35,1446.71 1198.15,1390.1 1182.58,1333.49 1147.38,1303.04 1128.28,1276.87 1124.19,1220.26 1123.81,1163.65 1123.74,1107.04 1123.72,1050.42 1123.71,993.811 
  1123.71,937.198 1123.69,880.585 1122.09,823.972 1102.33,767.359 1071.49,744.344 995.594,726.263 967.288,710.747 919.699,678.718 843.805,673.603 767.911,672.946 
  692.017,672.78 616.123,672.642 540.229,664.552 522.786,654.134 464.334,619.748 388.44,616.755 312.546,616.28 236.652,616.15 
  "/>
<polyline clip-path="url(#clip7102)" style="stroke:#88216a; stroke-width:4; stroke-opacity:1; fill:none" points="
  236.652,619.894 312.546,620.05 388.44,620.619 464.334,624.215 515.193,654.134 540.229,669.087 616.123,676.388 692.017,676.528 767.911,676.726 843.805,677.516 
  919.699,683.658 959.948,710.747 995.594,730.286 1071.49,751.1 1093.27,767.359 1117,823.972 1118.93,880.585 1118.95,937.198 1118.95,993.811 1118.96,1050.42 
  1118.98,1107.04 1119.04,1163.65 1119.39,1220.26 1123.11,1276.87 1147.38,1310.12 1174.39,1333.49 1193.1,1390.1 1194.54,1446.71 
  "/>
<polyline clip-path="url(#clip7102)" style="stroke:#a12b61; stroke-width:4; stroke-opacity:1; fill:none" points="
  1189.73,1446.71 1188.04,1390.1 1166.2,1333.49 1147.38,1317.21 1117.94,1276.87 1114.59,1220.26 1114.28,1163.65 1114.22,1107.04 1114.2,1050.42 1114.2,993.811 
  1114.19,937.198 1114.17,880.585 1111.92,823.972 1084.22,767.359 1071.49,757.857 995.594,734.31 952.608,710.747 919.699,688.598 843.805,681.428 767.911,680.506 
  692.017,680.275 616.123,680.134 540.229,673.622 507.601,654.134 464.334,628.681 388.44,624.484 312.546,623.819 236.652,623.638 
  "/>
<polyline clip-path="url(#clip7102)" style="stroke:#ba3655; stroke-width:4; stroke-opacity:1; fill:none" points="
  236.652,627.383 312.546,627.589 388.44,628.349 464.334,633.148 500.008,654.134 540.229,678.157 616.123,683.879 692.017,684.022 767.911,684.286 843.805,685.34 
  919.699,693.538 945.268,710.747 995.594,738.334 1071.49,764.613 1075.17,767.359 1106.84,823.972 1109.41,880.585 1109.43,937.198 1109.44,993.811 1109.44,1050.42 
  1109.46,1107.04 1109.51,1163.65 1109.79,1220.26 1112.76,1276.87 1147.38,1324.3 1158.01,1333.49 1182.98,1390.1 1184.92,1446.71 
  "/>
<polyline clip-path="url(#clip7102)" style="stroke:#d04544; stroke-width:4; stroke-opacity:1; fill:none" points="
  1180.1,1446.71 1177.93,1390.1 1149.81,1333.49 1147.38,1331.38 1107.59,1276.87 1104.99,1220.26 1104.74,1163.65 1104.7,1107.04 1104.69,1050.42 1104.68,993.811 
  1104.67,937.198 1104.65,880.585 1101.75,823.972 1071.49,772.491 1064.87,767.359 995.594,742.357 937.928,710.747 919.699,698.478 843.805,689.252 767.911,688.067 
  692.017,687.77 616.123,687.625 540.229,682.692 492.416,654.134 464.334,637.614 388.44,632.214 312.546,631.358 236.652,631.127 
  "/>
<polyline clip-path="url(#clip7102)" style="stroke:#e25832; stroke-width:4; stroke-opacity:1; fill:none" points="
  236.652,634.872 312.546,635.128 388.44,636.079 464.334,642.08 484.824,654.134 540.229,687.227 616.123,691.371 692.017,691.517 767.911,691.847 843.805,693.165 
  919.699,703.419 930.588,710.747 995.594,746.381 1053.72,767.359 1071.49,781.138 1096.67,823.972 1099.89,880.585 1099.92,937.198 1099.92,993.811 1099.93,1050.42 
  1099.94,1107.04 1099.98,1163.65 1100.19,1220.26 1102.41,1276.87 1139.39,1333.49 1147.38,1340.42 1172.87,1390.1 1175.29,1446.71 
  "/>
<polyline clip-path="url(#clip7102)" style="stroke:#f0711e; stroke-width:4; stroke-opacity:1; fill:none" points="
  1170.48,1446.71 1167.82,1390.1 1147.38,1350.27 1128.03,1333.49 1097.24,1276.87 1095.39,1220.26 1095.21,1163.65 1095.18,1107.04 1095.17,1050.42 1095.16,993.811 
  1095.16,937.198 1095.13,880.585 1091.59,823.972 1071.49,789.785 1042.57,767.359 995.594,750.404 923.248,710.747 919.699,708.359 843.805,697.077 767.911,695.627 
  692.017,695.265 616.123,695.117 540.229,691.762 477.231,654.134 464.334,646.547 388.44,639.944 312.546,638.897 236.652,638.616 
  "/>
<polyline clip-path="url(#clip7102)" style="stroke:#f88c0a; stroke-width:4; stroke-opacity:1; fill:none" points="
  236.652,642.361 312.546,642.667 388.44,643.808 464.334,651.013 469.639,654.134 540.229,696.296 616.123,698.862 692.017,699.012 767.911,699.407 843.805,700.989 
  906.677,710.747 919.699,718.575 995.594,754.428 1031.42,767.359 1071.49,798.432 1086.5,823.972 1090.37,880.585 1090.4,937.198 1090.41,993.811 1090.41,1050.42 
  1090.42,1107.04 1090.45,1163.65 1090.58,1220.26 1092.07,1276.87 1116.67,1333.49 1147.38,1360.13 1162.76,1390.1 1165.66,1446.71 
  "/>
<polyline clip-path="url(#clip7102)" style="stroke:#fbaa0f; stroke-width:4; stroke-opacity:1; fill:none" points="
  1160.85,1446.71 1157.7,1390.1 1147.38,1369.98 1105.32,1333.49 1086.89,1276.87 1085.78,1220.26 1085.68,1163.65 1085.66,1107.04 1085.65,1050.42 1085.65,993.811 
  1085.64,937.198 1085.61,880.585 1081.42,823.972 1071.49,807.078 1020.28,767.359 995.594,758.452 919.699,733.73 881.469,710.747 843.805,704.901 767.911,703.187 
  692.017,702.759 616.123,702.608 540.229,700.831 464.334,660.978 452.743,654.134 388.44,647.673 312.546,646.436 236.652,646.105 
  "/>
<polyline clip-path="url(#clip7102)" style="stroke:#f8c933; stroke-width:4; stroke-opacity:1; fill:none" points="
  236.652,649.85 312.546,650.206 388.44,651.538 414.275,654.134 464.334,683.692 540.229,705.366 616.123,706.354 692.017,706.507 767.911,706.967 843.805,708.814 
  856.261,710.747 919.699,748.884 995.594,762.475 1009.13,767.359 1071.49,815.725 1076.34,823.972 1080.85,880.585 1080.88,937.198 1080.89,993.811 1080.89,1050.42 
  1080.9,1107.04 1080.91,1163.65 1080.98,1220.26 1081.72,1276.87 1093.96,1333.49 1147.38,1379.84 1152.65,1390.1 1156.04,1446.71 
  "/>
<polyline clip-path="url(#clip7102)" style="stroke:#f2e763; stroke-width:4; stroke-opacity:1; fill:none" points="
  1151.22,1446.71 1147.59,1390.1 1147.38,1389.69 1082.6,1333.49 1076.55,1276.87 1076.18,1220.26 1076.15,1163.65 1076.14,1107.04 1076.14,1050.42 1076.13,993.811 
  1076.13,937.198 1076.08,880.585 1071.49,826.558 1066.76,823.972 997.978,767.359 995.594,766.499 919.699,764.038 843.805,750.702 767.911,710.811 767.776,710.747 
  692.017,710.254 616.123,710.1 540.229,709.901 464.334,706.405 388.44,689.807 321.15,654.134 312.546,653.975 236.652,653.594 
  "/>
<polyline clip-path="url(#clip7102)" style="stroke:#0a0622; stroke-width:4; stroke-opacity:1; fill:none" points="
  1000.26,88.0053 1000.28,144.618 1000.46,201.231 1007.83,257.844 1071.49,306.989 1075.22,314.457 1076.06,371.07 1076.13,427.682 1076.15,484.295 1076.15,540.908 
  1076.15,597.521 1076.15,654.134 1147.38,707.272 1152.15,710.747 1223.28,763.795 1299.17,763.88 1375.06,763.881 1450.96,763.881 1526.85,763.882 1536.18,767.359 
  1602.75,817.024 1678.64,820.506 1754.54,820.524 1830.43,820.662 1836.76,823.972 1906.32,875.684 1982.22,877.149 2058.11,877.153 
  "/>
<polyline clip-path="url(#clip7102)" style="stroke:#1f0b46; stroke-width:4; stroke-opacity:1; fill:none" points="
  2058.11,873.588 1982.22,873.583 1906.32,870.601 1843.6,823.972 1830.43,817.089 1754.54,816.96 1678.64,816.943 1602.75,809.897 1545.73,767.359 1526.85,760.32 
  1450.96,760.319 1375.06,760.319 1299.17,760.317 1223.28,760.145 1157.05,710.747 1147.38,703.71 1080.93,654.134 1080.93,597.521 1080.92,540.908 1080.92,484.295 
  1080.91,427.682 1080.84,371.07 1080.06,314.457 1071.49,297.316 1020.36,257.844 1005.45,201.231 1005.09,144.618 1005.05,88.0053 
  "/>
<polyline clip-path="url(#clip7102)" style="stroke:#3b0963; stroke-width:4; stroke-opacity:1; fill:none" points="
  1009.83,88.0053 1009.89,144.618 1010.43,201.231 1032.89,257.844 1071.49,287.644 1084.9,314.457 1085.62,371.07 1085.69,427.682 1085.7,484.295 1085.7,540.908 
  1085.7,597.521 1085.7,654.134 1147.38,700.148 1161.94,710.747 1223.28,756.495 1299.17,756.754 1375.06,756.757 1450.96,756.757 1526.85,756.758 1555.28,767.359 
  1602.75,802.77 1678.64,813.38 1754.54,813.396 1830.43,813.516 1850.44,823.972 1906.32,865.517 1982.22,870.018 2058.11,870.023 
  "/>
<polyline clip-path="url(#clip7102)" style="stroke:#550f6d; stroke-width:4; stroke-opacity:1; fill:none" points="
  2058.11,866.458 1982.22,866.452 1906.32,860.434 1857.28,823.972 1830.43,809.943 1754.54,809.833 1678.64,809.817 1602.75,795.644 1564.84,767.359 1526.85,753.196 
  1450.96,753.195 1375.06,753.195 1299.17,753.191 1223.28,752.845 1166.84,710.747 1147.38,696.585 1090.48,654.134 1090.48,597.521 1090.48,540.908 1090.47,484.295 
  1090.46,427.682 1090.41,371.07 1089.73,314.457 1071.49,277.971 1045.42,257.844 1015.42,201.231 1014.69,144.618 1014.61,88.0053 
  "/>
<polyline clip-path="url(#clip7102)" style="stroke:#6e186e; stroke-width:4; stroke-opacity:1; fill:none" points="
  1019.39,88.0053 1019.49,144.618 1020.4,201.231 1057.95,257.844 1071.49,268.299 1094.57,314.457 1095.19,371.07 1095.24,427.682 1095.25,484.295 1095.25,540.908 
  1095.25,597.521 1095.25,654.134 1147.38,693.023 1171.73,710.747 1223.28,749.195 1299.17,749.628 1375.06,749.633 1450.96,749.633 1526.85,749.634 1574.39,767.359 
  1602.75,788.517 1678.64,806.255 1754.54,806.269 1830.43,806.37 1864.11,823.972 1906.32,855.351 1982.22,862.887 2058.11,862.893 
  "/>
<polyline clip-path="url(#clip7102)" style="stroke:#88216a; stroke-width:4; stroke-opacity:1; fill:none" points="
  2058.11,859.328 1982.22,859.321 1906.32,850.267 1870.95,823.972 1830.43,802.797 1754.54,802.705 1678.64,802.692 1602.75,781.39 1583.94,767.359 1526.85,746.072 
  1450.96,746.071 1375.06,746.071 1299.17,746.065 1223.28,745.545 1176.62,710.747 1147.38,689.461 1100.03,654.134 1100.03,597.521 1100.03,540.908 1100.02,484.295 
  1100.01,427.682 1099.97,371.07 1099.41,314.457 1071.49,258.626 1070.47,257.844 1025.39,201.231 1024.29,144.618 1024.18,88.0053 
  "/>
<polyline clip-path="url(#clip7102)" style="stroke:#a12b61; stroke-width:4; stroke-opacity:1; fill:none" points="
  1028.96,88.0053 1029.1,144.618 1030.37,201.231 1071.49,252.167 1078.58,257.844 1104.25,314.457 1104.75,371.07 1104.79,427.682 1104.8,484.295 1104.8,540.908 
  1104.8,597.521 1104.8,654.134 1147.38,685.898 1181.52,710.747 1223.28,741.894 1299.17,742.503 1375.06,742.509 1450.96,742.509 1526.85,742.51 1593.49,767.359 
  1602.75,774.263 1678.64,799.129 1754.54,799.141 1830.43,799.224 1877.79,823.972 1906.32,845.184 1982.22,855.756 2058.11,855.763 
  "/>
<polyline clip-path="url(#clip7102)" style="stroke:#ba3655; stroke-width:4; stroke-opacity:1; fill:none" points="
  2058.11,852.198 1982.22,852.19 1906.32,840.101 1884.63,823.972 1830.43,795.651 1754.54,795.577 1678.64,795.566 1603.05,767.359 1602.75,767.136 1526.85,738.948 
  1450.96,738.947 1375.06,738.947 1299.17,738.94 1223.28,738.244 1186.41,710.747 1147.38,682.336 1109.58,654.134 1109.58,597.521 1109.58,540.908 1109.57,484.295 
  1109.57,427.682 1109.53,371.07 1109.08,314.457 1086.29,257.844 1071.49,245.991 1035.36,201.231 1033.9,144.618 1033.74,88.0053 
  "/>
<polyline clip-path="url(#clip7102)" style="stroke:#d04544; stroke-width:4; stroke-opacity:1; fill:none" points="
  1038.52,88.0053 1038.7,144.618 1040.35,201.231 1071.49,239.814 1094.01,257.844 1113.92,314.457 1114.31,371.07 1114.34,427.682 1114.35,484.295 1114.35,540.908 
  1114.35,597.521 1114.35,654.134 1147.38,678.774 1191.3,710.747 1223.28,734.594 1299.17,735.377 1375.06,735.384 1450.96,735.385 1526.85,735.386 1602.75,760.014 
  1612.59,767.359 1678.64,792.003 1754.54,792.013 1830.43,792.077 1891.47,823.972 1906.32,835.018 1982.22,848.625 2058.11,848.634 
  "/>
<polyline clip-path="url(#clip7102)" style="stroke:#e25832; stroke-width:4; stroke-opacity:1; fill:none" points="
  2058.11,845.069 1982.22,845.059 1906.32,829.934 1898.3,823.972 1830.43,788.504 1754.54,788.449 1678.64,788.44 1622.14,767.359 1602.75,752.892 1526.85,731.824 
  1450.96,731.823 1375.06,731.822 1299.17,731.814 1223.28,730.944 1196.2,710.747 1147.38,675.211 1119.13,654.134 1119.13,597.521 1119.13,540.908 1119.13,484.295 
  1119.12,427.682 1119.09,371.07 1118.76,314.457 1101.73,257.844 1071.49,233.638 1045.33,201.231 1043.5,144.618 1043.3,88.0053 
  "/>
<polyline clip-path="url(#clip7102)" style="stroke:#f0711e; stroke-width:4; stroke-opacity:1; fill:none" points="
  1048.09,88.0053 1048.3,144.618 1050.32,201.231 1071.49,227.461 1109.44,257.844 1123.6,314.457 1123.87,371.07 1123.9,427.682 1123.9,484.295 1123.9,540.908 
  1123.9,597.521 1123.9,654.134 1147.38,671.649 1201.09,710.747 1223.28,727.294 1299.17,728.251 1375.06,728.26 1450.96,728.262 1526.85,728.262 1602.75,745.77 
  1631.69,767.359 1678.64,784.877 1754.54,784.886 1830.43,784.931 1905.14,823.972 1906.32,824.851 1982.22,841.494 2058.11,841.504 
  "/>
<polyline clip-path="url(#clip7102)" style="stroke:#f88c0a; stroke-width:4; stroke-opacity:1; fill:none" points="
  2058.11,837.939 1982.22,837.928 1919.56,823.972 1906.32,814.104 1830.43,781.358 1754.54,781.322 1678.64,781.315 1641.24,767.359 1602.75,738.647 1526.85,724.7 
  1450.96,724.7 1375.06,724.698 1299.17,724.688 1223.28,723.644 1205.98,710.747 1147.38,668.087 1128.68,654.134 1128.68,597.521 1128.68,540.908 1128.68,484.295 
  1128.67,427.682 1128.65,371.07 1128.43,314.457 1117.16,257.844 1071.49,221.285 1055.3,201.231 1053.11,144.618 1052.87,88.0053 
  "/>
<polyline clip-path="url(#clip7102)" style="stroke:#fbaa0f; stroke-width:4; stroke-opacity:1; fill:none" points="
  1057.65,88.0053 1057.91,144.618 1060.29,201.231 1071.49,215.109 1124.87,257.844 1133.27,314.457 1133.43,371.07 1133.45,427.682 1133.45,484.295 1133.45,540.908 
  1133.45,597.521 1133.45,654.134 1147.38,664.524 1210.88,710.747 1223.28,719.994 1299.17,721.125 1375.06,721.136 1450.96,721.138 1526.85,721.138 1602.75,731.525 
  1650.79,767.359 1678.64,777.752 1754.54,777.758 1830.43,777.785 1906.32,802.172 1935.57,823.972 1982.22,834.363 2058.11,834.374 
  "/>
<polyline clip-path="url(#clip7102)" style="stroke:#f8c933; stroke-width:4; stroke-opacity:1; fill:none" points="
  2058.11,830.809 1982.22,830.797 1951.58,823.972 1906.32,790.241 1830.43,774.212 1754.54,774.194 1678.64,774.189 1660.34,767.359 1602.75,724.403 1526.85,717.576 
  1450.96,717.576 1375.06,717.574 1299.17,717.562 1223.28,716.344 1215.77,710.747 1147.38,660.962 1138.23,654.134 1138.23,597.521 1138.23,540.908 1138.23,484.295 
  1138.22,427.682 1138.22,371.07 1138.11,314.457 1132.59,257.844 1071.49,208.932 1065.27,201.231 1062.71,144.618 1062.43,88.0053 
  "/>
<polyline clip-path="url(#clip7102)" style="stroke:#f2e763; stroke-width:4; stroke-opacity:1; fill:none" points="
  1067.22,88.0053 1067.51,144.618 1070.26,201.231 1071.49,202.756 1140.3,257.844 1142.94,314.457 1143,371.07 1143,427.682 1143,484.295 1143,540.908 
  1143,597.521 1143,654.134 1147.38,657.4 1220.67,710.747 1223.28,712.694 1299.17,713.999 1375.06,714.012 1450.96,714.014 1526.85,714.014 1602.75,717.281 
  1669.89,767.359 1678.64,770.626 1754.54,770.63 1830.43,770.639 1906.32,778.31 1967.59,823.972 1982.22,827.232 2058.11,827.244 
  "/>
<defs>
  <clipPath id="clip7103">
    <rect x="2160" y="47" width="73" height="1441"/>
  </clipPath>
</defs>
<polyline clip-path="url(#clip7103)" style="stroke:#0b0724; stroke-width:4; stroke-opacity:1; fill:none" points="
  2160.76,1397.46 2232.76,1397.46 
  "/>
<polyline clip-path="url(#clip7103)" style="stroke:#200b49; stroke-width:4; stroke-opacity:1; fill:none" points="
  2160.76,1307.45 2232.76,1307.45 
  "/>
<polyline clip-path="url(#clip7103)" style="stroke:#3c0964; stroke-width:4; stroke-opacity:1; fill:none" points="
  2160.76,1217.43 2232.76,1217.43 
  "/>
<polyline clip-path="url(#clip7103)" style="stroke:#57106d; stroke-width:4; stroke-opacity:1; fill:none" points="
  2160.76,1127.42 2232.76,1127.42 
  "/>
<polyline clip-path="url(#clip7103)" style="stroke:#70196e; stroke-width:4; stroke-opacity:1; fill:none" points="
  2160.76,1037.4 2232.76,1037.4 
  "/>
<polyline clip-path="url(#clip7103)" style="stroke:#8a2269; stroke-width:4; stroke-opacity:1; fill:none" points="
  2160.76,947.388 2232.76,947.388 
  "/>
<polyline clip-path="url(#clip7103)" style="stroke:#a32b61; stroke-width:4; stroke-opacity:1; fill:none" points="
  2160.76,857.374 2232.76,857.374 
  "/>
<polyline clip-path="url(#clip7103)" style="stroke:#bb3754; stroke-width:4; stroke-opacity:1; fill:none" points="
  2160.76,767.359 2232.76,767.359 
  "/>
<polyline clip-path="url(#clip7103)" style="stroke:#d04544; stroke-width:4; stroke-opacity:1; fill:none" points="
  2160.76,677.345 2232.76,677.345 
  "/>
<polyline clip-path="url(#clip7103)" style="stroke:#e25832; stroke-width:4; stroke-opacity:1; fill:none" points="
  2160.76,587.331 2232.76,587.331 
  "/>
<polyline clip-path="url(#clip7103)" style="stroke:#f0711e; stroke-width:4; stroke-opacity:1; fill:none" points="
  2160.76,497.316 2232.76,497.316 
  "/>
<polyline clip-path="url(#clip7103)" style="stroke:#f88c0a; stroke-width:4; stroke-opacity:1; fill:none" points="
  2160.76,407.302 2232.76,407.302 
  "/>
<polyline clip-path="url(#clip7103)" style="stroke:#fbaa0f; stroke-width:4; stroke-opacity:1; fill:none" points="
  2160.76,317.287 2232.76,317.287 
  "/>
<polyline clip-path="url(#clip7103)" style="stroke:#f8c933; stroke-width:4; stroke-opacity:1; fill:none" points="
  2160.76,227.273 2232.76,227.273 
  "/>
<polyline clip-path="url(#clip7103)" style="stroke:#f2e763; stroke-width:4; stroke-opacity:1; fill:none" points="
  2160.76,137.259 2232.76,137.259 
  "/>
<g clip-path="url(#clip7100)">
<text style="fill:#000000; fill-opacity:1; font-family:Arial,Helvetica Neue,Helvetica,sans-serif; font-size:48px; text-anchor:start;" transform="rotate(0, 2268.76, 1501.13)" x="2268.76" y="1501.13">0</text>
</g>
<g clip-path="url(#clip7100)">
<text style="fill:#000000; fill-opacity:1; font-family:Arial,Helvetica Neue,Helvetica,sans-serif; font-size:48px; text-anchor:start;" transform="rotate(0, 2268.76, 1357.1)" x="2268.76" y="1357.1">0.1</text>
</g>
<g clip-path="url(#clip7100)">
<text style="fill:#000000; fill-opacity:1; font-family:Arial,Helvetica Neue,Helvetica,sans-serif; font-size:48px; text-anchor:start;" transform="rotate(0, 2268.76, 1213.08)" x="2268.76" y="1213.08">0.2</text>
</g>
<g clip-path="url(#clip7100)">
<text style="fill:#000000; fill-opacity:1; font-family:Arial,Helvetica Neue,Helvetica,sans-serif; font-size:48px; text-anchor:start;" transform="rotate(0, 2268.76, 1069.06)" x="2268.76" y="1069.06">0.3</text>
</g>
<g clip-path="url(#clip7100)">
<text style="fill:#000000; fill-opacity:1; font-family:Arial,Helvetica Neue,Helvetica,sans-serif; font-size:48px; text-anchor:start;" transform="rotate(0, 2268.76, 925.034)" x="2268.76" y="925.034">0.4</text>
</g>
<g clip-path="url(#clip7100)">
<text style="fill:#000000; fill-opacity:1; font-family:Arial,Helvetica Neue,Helvetica,sans-serif; font-size:48px; text-anchor:start;" transform="rotate(0, 2268.76, 781.011)" x="2268.76" y="781.011">0.5</text>
</g>
<g clip-path="url(#clip7100)">
<text style="fill:#000000; fill-opacity:1; font-family:Arial,Helvetica Neue,Helvetica,sans-serif; font-size:48px; text-anchor:start;" transform="rotate(0, 2268.76, 636.988)" x="2268.76" y="636.988">0.6</text>
</g>
<g clip-path="url(#clip7100)">
<text style="fill:#000000; fill-opacity:1; font-family:Arial,Helvetica Neue,Helvetica,sans-serif; font-size:48px; text-anchor:start;" transform="rotate(0, 2268.76, 492.964)" x="2268.76" y="492.964">0.7</text>
</g>
<g clip-path="url(#clip7100)">
<text style="fill:#000000; fill-opacity:1; font-family:Arial,Helvetica Neue,Helvetica,sans-serif; font-size:48px; text-anchor:start;" transform="rotate(0, 2268.76, 348.941)" x="2268.76" y="348.941">0.8</text>
</g>
<g clip-path="url(#clip7100)">
<text style="fill:#000000; fill-opacity:1; font-family:Arial,Helvetica Neue,Helvetica,sans-serif; font-size:48px; text-anchor:start;" transform="rotate(0, 2268.76, 204.918)" x="2268.76" y="204.918">0.9</text>
</g>
<g clip-path="url(#clip7100)">
<text style="fill:#000000; fill-opacity:1; font-family:Arial,Helvetica Neue,Helvetica,sans-serif; font-size:48px; text-anchor:start;" transform="rotate(0, 2268.76, 60.8953)" x="2268.76" y="60.8953">1.0</text>
</g>
<polyline clip-path="url(#clip7100)" style="stroke:#000000; stroke-width:4; stroke-opacity:1; fill:none" points="
  2232.76,1487.47 2232.76,1487.47 2256.76,1487.47 2232.76,1487.47 2232.76,1343.45 2256.76,1343.45 2232.76,1343.45 2232.76,1199.43 2256.76,1199.43 2232.76,1199.43 
  2232.76,1055.41 2256.76,1055.41 2232.76,1055.41 2232.76,911.382 2256.76,911.382 2232.76,911.382 2232.76,767.359 2256.76,767.359 2232.76,767.359 2232.76,623.336 
  2256.76,623.336 2232.76,623.336 2232.76,479.313 2256.76,479.313 2232.76,479.313 2232.76,335.29 2256.76,335.29 2232.76,335.29 2232.76,191.267 2256.76,191.267 
  2232.76,191.267 2232.76,47.2441 2256.76,47.2441 2232.76,47.2441 
  "/>
<path clip-path="url(#clip7100)" d="
M1749.93 312.204 L2040.76 312.204 L2040.76 130.764 L1749.93 130.764  Z
  " fill="#ffffff" fill-rule="evenodd" fill-opacity="1"/>
<polyline clip-path="url(#clip7100)" style="stroke:#000000; stroke-width:4; stroke-opacity:1; fill:none" points="
  1749.93,312.204 2040.76,312.204 2040.76,130.764 1749.93,130.764 1749.93,312.204 
  "/>
<circle clip-path="url(#clip7100)" cx="1857.93" cy="191.244" r="21" fill="#ff0000" fill-rule="evenodd" fill-opacity="1" stroke="#000000" stroke-opacity="1" stroke-width="3.2"/>
<g clip-path="url(#clip7100)">
<text style="fill:#000000; fill-opacity:1; font-family:Arial,Helvetica Neue,Helvetica,sans-serif; font-size:48px; text-anchor:start;" transform="rotate(0, 1941.93, 208.744)" x="1941.93" y="208.744">y1</text>
</g>
<circle clip-path="url(#clip7100)" cx="1857.93" cy="251.724" r="21" fill="#0000ff" fill-rule="evenodd" fill-opacity="1" stroke="#000000" stroke-opacity="1" stroke-width="3.2"/>
<g clip-path="url(#clip7100)">
<text style="fill:#000000; fill-opacity:1; font-family:Arial,Helvetica Neue,Helvetica,sans-serif; font-size:48px; text-anchor:start;" transform="rotate(0, 1941.93, 269.224)" x="1941.93" y="269.224">y2</text>
</g>
</svg>
