<?xml version="1.0" encoding="utf-8"?>
<svg xmlns="http://www.w3.org/2000/svg" xmlns:xlink="http://www.w3.org/1999/xlink" width="600" height="400" viewBox="0 0 2400 1600">
<defs>
  <clipPath id="clip6600">
    <rect x="0" y="0" width="2400" height="1600"/>
  </clipPath>
</defs>
<path clip-path="url(#clip6600)" d="
M0 1600 L2400 1600 L2400 0 L0 0  Z
  " fill="#ffffff" fill-rule="evenodd" fill-opacity="1"/>
<defs>
  <clipPath id="clip6601">
    <rect x="480" y="0" width="1681" height="1600"/>
  </clipPath>
</defs>
<path clip-path="url(#clip6600)" d="
M182.008 1487.47 L2112.76 1487.47 L2112.76 47.2441 L182.008 47.2441  Z
  " fill="#ffffff" fill-rule="evenodd" fill-opacity="1"/>
<defs>
  <clipPath id="clip6602">
    <rect x="182" y="47" width="1932" height="1441"/>
  </clipPath>
</defs>
<polyline clip-path="url(#clip6602)" style="stroke:#000000; stroke-width:2; stroke-opacity:0.1; fill:none" points="
  388.44,1487.47 388.44,47.2441 
  "/>
<polyline clip-path="url(#clip6602)" style="stroke:#000000; stroke-width:2; stroke-opacity:0.1; fill:none" points="
  767.911,1487.47 767.911,47.2441 
  "/>
<polyline clip-path="url(#clip6602)" style="stroke:#000000; stroke-width:2; stroke-opacity:0.1; fill:none" points="
  1147.38,1487.47 1147.38,47.2441 
  "/>
<polyline clip-path="url(#clip6602)" style="stroke:#000000; stroke-width:2; stroke-opacity:0.1; fill:none" points="
  1526.85,1487.47 1526.85,47.2441 
  "/>
<polyline clip-path="url(#clip6602)" style="stroke:#000000; stroke-width:2; stroke-opacity:0.1; fill:none" points="
  1906.32,1487.47 1906.32,47.2441 
  "/>
<polyline clip-path="url(#clip6602)" style="stroke:#000000; stroke-width:2; stroke-opacity:0.1; fill:none" points="
  182.008,1333.49 2112.76,1333.49 
  "/>
<polyline clip-path="url(#clip6602)" style="stroke:#000000; stroke-width:2; stroke-opacity:0.1; fill:none" points="
  182.008,1050.42 2112.76,1050.42 
  "/>
<polyline clip-path="url(#clip6602)" style="stroke:#000000; stroke-width:2; stroke-opacity:0.1; fill:none" points="
  182.008,767.359 2112.76,767.359 
  "/>
<polyline clip-path="url(#clip6602)" style="stroke:#000000; stroke-width:2; stroke-opacity:0.1; fill:none" points="
  182.008,484.295 2112.76,484.295 
  "/>
<polyline clip-path="url(#clip6602)" style="stroke:#000000; stroke-width:2; stroke-opacity:0.1; fill:none" points="
  182.008,201.231 2112.76,201.231 
  "/>
<polyline clip-path="url(#clip6600)" style="stroke:#000000; stroke-width:4; stroke-opacity:1; fill:none" points="
  182.008,1487.47 2112.76,1487.47 
  "/>
<polyline clip-path="url(#clip6600)" style="stroke:#000000; stroke-width:4; stroke-opacity:1; fill:none" points="
  182.008,1487.47 182.008,47.2441 
  "/>
<polyline clip-path="url(#clip6600)" style="stroke:#000000; stroke-width:4; stroke-opacity:1; fill:none" points="
  388.44,1487.47 388.44,1465.87 
  "/>
<polyline clip-path="url(#clip6600)" style="stroke:#000000; stroke-width:4; stroke-opacity:1; fill:none" points="
  767.911,1487.47 767.911,1465.87 
  "/>
<polyline clip-path="url(#clip6600)" style="stroke:#000000; stroke-width:4; stroke-opacity:1; fill:none" points="
  1147.38,1487.47 1147.38,1465.87 
  "/>
<polyline clip-path="url(#clip6600)" style="stroke:#000000; stroke-width:4; stroke-opacity:1; fill:none" points="
  1526.85,1487.47 1526.85,1465.87 
  "/>
<polyline clip-path="url(#clip6600)" style="stroke:#000000; stroke-width:4; stroke-opacity:1; fill:none" points="
  1906.32,1487.47 1906.32,1465.87 
  "/>
<polyline clip-path="url(#clip6600)" style="stroke:#000000; stroke-width:4; stroke-opacity:1; fill:none" points="
  182.008,1333.49 210.969,1333.49 
  "/>
<polyline clip-path="url(#clip6600)" style="stroke:#000000; stroke-width:4; stroke-opacity:1; fill:none" points="
  182.008,1050.42 210.969,1050.42 
  "/>
<polyline clip-path="url(#clip6600)" style="stroke:#000000; stroke-width:4; stroke-opacity:1; fill:none" points="
  182.008,767.359 210.969,767.359 
  "/>
<polyline clip-path="url(#clip6600)" style="stroke:#000000; stroke-width:4; stroke-opacity:1; fill:none" points="
  182.008,484.295 210.969,484.295 
  "/>
<polyline clip-path="url(#clip6600)" style="stroke:#000000; stroke-width:4; stroke-opacity:1; fill:none" points="
  182.008,201.231 210.969,201.231 
  "/>
<g clip-path="url(#clip6600)">
<text style="fill:#000000; fill-opacity:1; font-family:Arial,Helvetica Neue,Helvetica,sans-serif; font-size:48px; text-anchor:middle;" transform="rotate(0, 388.44, 1541.47)" x="388.44" y="1541.47">-5.0</text>
</g>
<g clip-path="url(#clip6600)">
<text style="fill:#000000; fill-opacity:1; font-family:Arial,Helvetica Neue,Helvetica,sans-serif; font-size:48px; text-anchor:middle;" transform="rotate(0, 767.911, 1541.47)" x="767.911" y="1541.47">-2.5</text>
</g>
<g clip-path="url(#clip6600)">
<text style="fill:#000000; fill-opacity:1; font-family:Arial,Helvetica Neue,Helvetica,sans-serif; font-size:48px; text-anchor:middle;" transform="rotate(0, 1147.38, 1541.47)" x="1147.38" y="1541.47">0.0</text>
</g>
<g clip-path="url(#clip6600)">
<text style="fill:#000000; fill-opacity:1; font-family:Arial,Helvetica Neue,Helvetica,sans-serif; font-size:48px; text-anchor:middle;" transform="rotate(0, 1526.85, 1541.47)" x="1526.85" y="1541.47">2.5</text>
</g>
<g clip-path="url(#clip6600)">
<text style="fill:#000000; fill-opacity:1; font-family:Arial,Helvetica Neue,Helvetica,sans-serif; font-size:48px; text-anchor:middle;" transform="rotate(0, 1906.32, 1541.47)" x="1906.32" y="1541.47">5.0</text>
</g>
<g clip-path="url(#clip6600)">
<text style="fill:#000000; fill-opacity:1; font-family:Arial,Helvetica Neue,Helvetica,sans-serif; font-size:48px; text-anchor:end;" transform="rotate(0, 158.008, 1350.99)" x="158.008" y="1350.99">-5.0</text>
</g>
<g clip-path="url(#clip6600)">
<text style="fill:#000000; fill-opacity:1; font-family:Arial,Helvetica Neue,Helvetica,sans-serif; font-size:48px; text-anchor:end;" transform="rotate(0, 158.008, 1067.92)" x="158.008" y="1067.92">-2.5</text>
</g>
<g clip-path="url(#clip6600)">
<text style="fill:#000000; fill-opacity:1; font-family:Arial,Helvetica Neue,Helvetica,sans-serif; font-size:48px; text-anchor:end;" transform="rotate(0, 158.008, 784.859)" x="158.008" y="784.859">0.0</text>
</g>
<g clip-path="url(#clip6600)">
<text style="fill:#000000; fill-opacity:1; font-family:Arial,Helvetica Neue,Helvetica,sans-serif; font-size:48px; text-anchor:end;" transform="rotate(0, 158.008, 501.795)" x="158.008" y="501.795">2.5</text>
</g>
<g clip-path="url(#clip6600)">
<text style="fill:#000000; fill-opacity:1; font-family:Arial,Helvetica Neue,Helvetica,sans-serif; font-size:48px; text-anchor:end;" transform="rotate(0, 158.008, 218.731)" x="158.008" y="218.731">5.0</text>
</g>
<circle clip-path="url(#clip6602)" style="fill:#000000; stroke:none; fill-opacity:1" cx="1626.85" cy="226.453" r="18"/>
<circle clip-path="url(#clip6602)" style="fill:#ff0000; stroke:none; fill-opacity:1" cx="1626.85" cy="226.453" r="14"/>
<circle clip-path="url(#clip6602)" style="fill:#000000; stroke:none; fill-opacity:1" cx="1747.04" cy="219.232" r="18"/>
<circle clip-path="url(#clip6602)" style="fill:#ff0000; stroke:none; fill-opacity:1" cx="1747.04" cy="219.232" r="14"/>
<circle clip-path="url(#clip6602)" style="fill:#000000; stroke:none; fill-opacity:1" cx="1610.04" cy="228.859" r="18"/>
<circle clip-path="url(#clip6602)" style="fill:#ff0000; stroke:none; fill-opacity:1" cx="1610.04" cy="228.859" r="14"/>
<circle clip-path="url(#clip6602)" style="fill:#000000; stroke:none; fill-opacity:1" cx="1537.54" cy="308.278" r="18"/>
<circle clip-path="url(#clip6602)" style="fill:#ff0000; stroke:none; fill-opacity:1" cx="1537.54" cy="308.278" r="14"/>
<circle clip-path="url(#clip6602)" style="fill:#000000; stroke:none; fill-opacity:1" cx="1765.63" cy="292.353" r="18"/>
<circle clip-path="url(#clip6602)" style="fill:#ff0000; stroke:none; fill-opacity:1" cx="1765.63" cy="292.353" r="14"/>
<circle clip-path="url(#clip6602)" style="fill:#000000; stroke:none; fill-opacity:1" cx="1806.7" cy="693.341" r="18"/>
<circle clip-path="url(#clip6602)" style="fill:#ff0000; stroke:none; fill-opacity:1" cx="1806.7" cy="693.341" r="14"/>
<circle clip-path="url(#clip6602)" style="fill:#000000; stroke:none; fill-opacity:1" cx="1360.29" cy="662.575" r="18"/>
<circle clip-path="url(#clip6602)" style="fill:#ff0000; stroke:none; fill-opacity:1" cx="1360.29" cy="662.575" r="14"/>
<circle clip-path="url(#clip6602)" style="fill:#000000; stroke:none; fill-opacity:1" cx="1427.24" cy="550.287" r="18"/>
<circle clip-path="url(#clip6602)" style="fill:#ff0000; stroke:none; fill-opacity:1" cx="1427.24" cy="550.287" r="14"/>
<circle clip-path="url(#clip6602)" style="fill:#000000; stroke:none; fill-opacity:1" cx="1391.88" cy="645.625" r="18"/>
<circle clip-path="url(#clip6602)" style="fill:#ff0000; stroke:none; fill-opacity:1" cx="1391.88" cy="645.625" r="14"/>
<circle clip-path="url(#clip6602)" style="fill:#000000; stroke:none; fill-opacity:1" cx="1619.22" cy="520.093" r="18"/>
<circle clip-path="url(#clip6602)" style="fill:#ff0000; stroke:none; fill-opacity:1" cx="1619.22" cy="520.093" r="14"/>
<circle clip-path="url(#clip6602)" style="fill:#000000; stroke:none; fill-opacity:1" cx="1666.49" cy="236.329" r="18"/>
<circle clip-path="url(#clip6602)" style="fill:#ff0000; stroke:none; fill-opacity:1" cx="1666.49" cy="236.329" r="14"/>
<circle clip-path="url(#clip6602)" style="fill:#000000; stroke:none; fill-opacity:1" cx="1230.73" cy="487.1" r="18"/>
<circle clip-path="url(#clip6602)" style="fill:#ff0000; stroke:none; fill-opacity:1" cx="1230.73" cy="487.1" r="14"/>
<circle clip-path="url(#clip6602)" style="fill:#000000; stroke:none; fill-opacity:1" cx="1268.65" cy="584.966" r="18"/>
<circle clip-path="url(#clip6602)" style="fill:#ff0000; stroke:none; fill-opacity:1" cx="1268.65" cy="584.966" r="14"/>
<circle clip-path="url(#clip6602)" style="fill:#000000; stroke:none; fill-opacity:1" cx="1876.78" cy="704.724" r="18"/>
<circle clip-path="url(#clip6602)" style="fill:#ff0000; stroke:none; fill-opacity:1" cx="1876.78" cy="704.724" r="14"/>
<circle clip-path="url(#clip6602)" style="fill:#000000; stroke:none; fill-opacity:1" cx="1665" cy="687.287" r="18"/>
<circle clip-path="url(#clip6602)" style="fill:#ff0000; stroke:none; fill-opacity:1" cx="1665" cy="687.287" r="14"/>
<circle clip-path="url(#clip6602)" style="fill:#000000; stroke:none; fill-opacity:1" cx="1300.11" cy="457.941" r="18"/>
<circle clip-path="url(#clip6602)" style="fill:#ff0000; stroke:none; fill-opacity:1" cx="1300.11" cy="457.941" r="14"/>
<circle clip-path="url(#clip6602)" style="fill:#000000; stroke:none; fill-opacity:1" cx="1411.81" cy="337.781" r="18"/>
<circle clip-path="url(#clip6602)" style="fill:#ff0000; stroke:none; fill-opacity:1" cx="1411.81" cy="337.781" r="14"/>
<circle clip-path="url(#clip6602)" style="fill:#000000; stroke:none; fill-opacity:1" cx="1668.39" cy="558.372" r="18"/>
<circle clip-path="url(#clip6602)" style="fill:#ff0000; stroke:none; fill-opacity:1" cx="1668.39" cy="558.372" r="14"/>
<circle clip-path="url(#clip6602)" style="fill:#000000; stroke:none; fill-opacity:1" cx="1261.97" cy="481.881" r="18"/>
<circle clip-path="url(#clip6602)" style="fill:#ff0000; stroke:none; fill-opacity:1" cx="1261.97" cy="481.881" r="14"/>
<circle clip-path="url(#clip6602)" style="fill:#000000; stroke:none; fill-opacity:1" cx="1798.89" cy="264.871" r="18"/>
<circle clip-path="url(#clip6602)" style="fill:#ff0000; stroke:none; fill-opacity:1" cx="1798.89" cy="264.871" r="14"/>
<circle clip-path="url(#clip6602)" style="fill:#000000; stroke:none; fill-opacity:1" cx="420.058" cy="1005.51" r="18"/>
<circle clip-path="url(#clip6602)" style="fill:#ff0000; stroke:none; fill-opacity:1" cx="420.058" cy="1005.51" r="14"/>
<circle clip-path="url(#clip6602)" style="fill:#000000; stroke:none; fill-opacity:1" cx="865.45" cy="1128.96" r="18"/>
<circle clip-path="url(#clip6602)" style="fill:#ff0000; stroke:none; fill-opacity:1" cx="865.45" cy="1128.96" r="14"/>
<circle clip-path="url(#clip6602)" style="fill:#000000; stroke:none; fill-opacity:1" cx="637.827" cy="1065.96" r="18"/>
<circle clip-path="url(#clip6602)" style="fill:#ff0000; stroke:none; fill-opacity:1" cx="637.827" cy="1065.96" r="14"/>
<circle clip-path="url(#clip6602)" style="fill:#000000; stroke:none; fill-opacity:1" cx="595.047" cy="1021.66" r="18"/>
<circle clip-path="url(#clip6602)" style="fill:#ff0000; stroke:none; fill-opacity:1" cx="595.047" cy="1021.66" r="14"/>
<circle clip-path="url(#clip6602)" style="fill:#000000; stroke:none; fill-opacity:1" cx="642.927" cy="1113.08" r="18"/>
<circle clip-path="url(#clip6602)" style="fill:#ff0000; stroke:none; fill-opacity:1" cx="642.927" cy="1113.08" r="14"/>
<circle clip-path="url(#clip6602)" style="fill:#000000; stroke:none; fill-opacity:1" cx="491.244" cy="1291.6" r="18"/>
<circle clip-path="url(#clip6602)" style="fill:#ff0000; stroke:none; fill-opacity:1" cx="491.244" cy="1291.6" r="14"/>
<circle clip-path="url(#clip6602)" style="fill:#000000; stroke:none; fill-opacity:1" cx="489.073" cy="1232.06" r="18"/>
<circle clip-path="url(#clip6602)" style="fill:#ff0000; stroke:none; fill-opacity:1" cx="489.073" cy="1232.06" r="14"/>
<circle clip-path="url(#clip6602)" style="fill:#000000; stroke:none; fill-opacity:1" cx="582.017" cy="1039.97" r="18"/>
<circle clip-path="url(#clip6602)" style="fill:#ff0000; stroke:none; fill-opacity:1" cx="582.017" cy="1039.97" r="14"/>
<circle clip-path="url(#clip6602)" style="fill:#000000; stroke:none; fill-opacity:1" cx="665.042" cy="1222.32" r="18"/>
<circle clip-path="url(#clip6602)" style="fill:#ff0000; stroke:none; fill-opacity:1" cx="665.042" cy="1222.32" r="14"/>
<circle clip-path="url(#clip6602)" style="fill:#000000; stroke:none; fill-opacity:1" cx="729.643" cy="1149.03" r="18"/>
<circle clip-path="url(#clip6602)" style="fill:#ff0000; stroke:none; fill-opacity:1" cx="729.643" cy="1149.03" r="14"/>
<circle clip-path="url(#clip6602)" style="fill:#000000; stroke:none; fill-opacity:1" cx="838.442" cy="1229.18" r="18"/>
<circle clip-path="url(#clip6602)" style="fill:#ff0000; stroke:none; fill-opacity:1" cx="838.442" cy="1229.18" r="14"/>
<circle clip-path="url(#clip6602)" style="fill:#000000; stroke:none; fill-opacity:1" cx="740.638" cy="858.118" r="18"/>
<circle clip-path="url(#clip6602)" style="fill:#ff0000; stroke:none; fill-opacity:1" cx="740.638" cy="858.118" r="14"/>
<circle clip-path="url(#clip6602)" style="fill:#000000; stroke:none; fill-opacity:1" cx="566.521" cy="911.985" r="18"/>
<circle clip-path="url(#clip6602)" style="fill:#ff0000; stroke:none; fill-opacity:1" cx="566.521" cy="911.985" r="14"/>
<circle clip-path="url(#clip6602)" style="fill:#000000; stroke:none; fill-opacity:1" cx="795.209" cy="1282.89" r="18"/>
<circle clip-path="url(#clip6602)" style="fill:#ff0000; stroke:none; fill-opacity:1" cx="795.209" cy="1282.89" r="14"/>
<circle clip-path="url(#clip6602)" style="fill:#000000; stroke:none; fill-opacity:1" cx="588.205" cy="1010.3" r="18"/>
<circle clip-path="url(#clip6602)" style="fill:#ff0000; stroke:none; fill-opacity:1" cx="588.205" cy="1010.3" r="14"/>
<circle clip-path="url(#clip6602)" style="fill:#000000; stroke:none; fill-opacity:1" cx="585.554" cy="1265.87" r="18"/>
<circle clip-path="url(#clip6602)" style="fill:#ff0000; stroke:none; fill-opacity:1" cx="585.554" cy="1265.87" r="14"/>
<circle clip-path="url(#clip6602)" style="fill:#000000; stroke:none; fill-opacity:1" cx="810.673" cy="938.514" r="18"/>
<circle clip-path="url(#clip6602)" style="fill:#ff0000; stroke:none; fill-opacity:1" cx="810.673" cy="938.514" r="14"/>
<circle clip-path="url(#clip6602)" style="fill:#000000; stroke:none; fill-opacity:1" cx="842.161" cy="890.598" r="18"/>
<circle clip-path="url(#clip6602)" style="fill:#ff0000; stroke:none; fill-opacity:1" cx="842.161" cy="890.598" r="14"/>
<circle clip-path="url(#clip6602)" style="fill:#000000; stroke:none; fill-opacity:1" cx="903.122" cy="1313.29" r="18"/>
<circle clip-path="url(#clip6602)" style="fill:#ff0000; stroke:none; fill-opacity:1" cx="903.122" cy="1313.29" r="14"/>
<circle clip-path="url(#clip6602)" style="fill:#000000; stroke:none; fill-opacity:1" cx="413.634" cy="930.762" r="18"/>
<circle clip-path="url(#clip6602)" style="fill:#ff0000; stroke:none; fill-opacity:1" cx="413.634" cy="930.762" r="14"/>
<circle clip-path="url(#clip6602)" style="fill:#000000; stroke:none; fill-opacity:1" cx="1517.8" cy="1185.18" r="18"/>
<circle clip-path="url(#clip6602)" style="fill:#0000ff; stroke:none; fill-opacity:1" cx="1517.8" cy="1185.18" r="14"/>
<circle clip-path="url(#clip6602)" style="fill:#000000; stroke:none; fill-opacity:1" cx="1317.3" cy="1021.34" r="18"/>
<circle clip-path="url(#clip6602)" style="fill:#0000ff; stroke:none; fill-opacity:1" cx="1317.3" cy="1021.34" r="14"/>
<circle clip-path="url(#clip6602)" style="fill:#000000; stroke:none; fill-opacity:1" cx="1638.62" cy="973.889" r="18"/>
<circle clip-path="url(#clip6602)" style="fill:#0000ff; stroke:none; fill-opacity:1" cx="1638.62" cy="973.889" r="14"/>
<circle clip-path="url(#clip6602)" style="fill:#000000; stroke:none; fill-opacity:1" cx="1397.49" cy="1074.47" r="18"/>
<circle clip-path="url(#clip6602)" style="fill:#0000ff; stroke:none; fill-opacity:1" cx="1397.49" cy="1074.47" r="14"/>
<circle clip-path="url(#clip6602)" style="fill:#000000; stroke:none; fill-opacity:1" cx="1563.94" cy="1092.72" r="18"/>
<circle clip-path="url(#clip6602)" style="fill:#0000ff; stroke:none; fill-opacity:1" cx="1563.94" cy="1092.72" r="14"/>
<circle clip-path="url(#clip6602)" style="fill:#000000; stroke:none; fill-opacity:1" cx="1287.51" cy="1021.38" r="18"/>
<circle clip-path="url(#clip6602)" style="fill:#0000ff; stroke:none; fill-opacity:1" cx="1287.51" cy="1021.38" r="14"/>
<circle clip-path="url(#clip6602)" style="fill:#000000; stroke:none; fill-opacity:1" cx="1581.94" cy="1235.34" r="18"/>
<circle clip-path="url(#clip6602)" style="fill:#0000ff; stroke:none; fill-opacity:1" cx="1581.94" cy="1235.34" r="14"/>
<circle clip-path="url(#clip6602)" style="fill:#000000; stroke:none; fill-opacity:1" cx="1404.63" cy="899.854" r="18"/>
<circle clip-path="url(#clip6602)" style="fill:#0000ff; stroke:none; fill-opacity:1" cx="1404.63" cy="899.854" r="14"/>
<circle clip-path="url(#clip6602)" style="fill:#000000; stroke:none; fill-opacity:1" cx="1298.48" cy="848.394" r="18"/>
<circle clip-path="url(#clip6602)" style="fill:#0000ff; stroke:none; fill-opacity:1" cx="1298.48" cy="848.394" r="14"/>
<circle clip-path="url(#clip6602)" style="fill:#000000; stroke:none; fill-opacity:1" cx="1793.18" cy="928.402" r="18"/>
<circle clip-path="url(#clip6602)" style="fill:#0000ff; stroke:none; fill-opacity:1" cx="1793.18" cy="928.402" r="14"/>
<circle clip-path="url(#clip6602)" style="fill:#000000; stroke:none; fill-opacity:1" cx="1655.94" cy="1094.99" r="18"/>
<circle clip-path="url(#clip6602)" style="fill:#0000ff; stroke:none; fill-opacity:1" cx="1655.94" cy="1094.99" r="14"/>
<circle clip-path="url(#clip6602)" style="fill:#000000; stroke:none; fill-opacity:1" cx="1454.05" cy="1284.99" r="18"/>
<circle clip-path="url(#clip6602)" style="fill:#0000ff; stroke:none; fill-opacity:1" cx="1454.05" cy="1284.99" r="14"/>
<circle clip-path="url(#clip6602)" style="fill:#000000; stroke:none; fill-opacity:1" cx="1300.45" cy="962.681" r="18"/>
<circle clip-path="url(#clip6602)" style="fill:#0000ff; stroke:none; fill-opacity:1" cx="1300.45" cy="962.681" r="14"/>
<circle clip-path="url(#clip6602)" style="fill:#000000; stroke:none; fill-opacity:1" cx="1758.1" cy="832.888" r="18"/>
<circle clip-path="url(#clip6602)" style="fill:#0000ff; stroke:none; fill-opacity:1" cx="1758.1" cy="832.888" r="14"/>
<circle clip-path="url(#clip6602)" style="fill:#000000; stroke:none; fill-opacity:1" cx="1795.7" cy="1115.91" r="18"/>
<circle clip-path="url(#clip6602)" style="fill:#0000ff; stroke:none; fill-opacity:1" cx="1795.7" cy="1115.91" r="14"/>
<circle clip-path="url(#clip6602)" style="fill:#000000; stroke:none; fill-opacity:1" cx="1283.29" cy="1095.07" r="18"/>
<circle clip-path="url(#clip6602)" style="fill:#0000ff; stroke:none; fill-opacity:1" cx="1283.29" cy="1095.07" r="14"/>
<circle clip-path="url(#clip6602)" style="fill:#000000; stroke:none; fill-opacity:1" cx="1487.32" cy="900.946" r="18"/>
<circle clip-path="url(#clip6602)" style="fill:#0000ff; stroke:none; fill-opacity:1" cx="1487.32" cy="900.946" r="14"/>
<circle clip-path="url(#clip6602)" style="fill:#000000; stroke:none; fill-opacity:1" cx="1449.08" cy="1048.85" r="18"/>
<circle clip-path="url(#clip6602)" style="fill:#0000ff; stroke:none; fill-opacity:1" cx="1449.08" cy="1048.85" r="14"/>
<circle clip-path="url(#clip6602)" style="fill:#000000; stroke:none; fill-opacity:1" cx="1734.22" cy="922.09" r="18"/>
<circle clip-path="url(#clip6602)" style="fill:#0000ff; stroke:none; fill-opacity:1" cx="1734.22" cy="922.09" r="14"/>
<circle clip-path="url(#clip6602)" style="fill:#000000; stroke:none; fill-opacity:1" cx="1404.69" cy="1326.67" r="18"/>
<circle clip-path="url(#clip6602)" style="fill:#0000ff; stroke:none; fill-opacity:1" cx="1404.69" cy="1326.67" r="14"/>
<circle clip-path="url(#clip6602)" style="fill:#000000; stroke:none; fill-opacity:1" cx="630.375" cy="284.546" r="18"/>
<circle clip-path="url(#clip6602)" style="fill:#0000ff; stroke:none; fill-opacity:1" cx="630.375" cy="284.546" r="14"/>
<circle clip-path="url(#clip6602)" style="fill:#000000; stroke:none; fill-opacity:1" cx="479.217" cy="487.412" r="18"/>
<circle clip-path="url(#clip6602)" style="fill:#0000ff; stroke:none; fill-opacity:1" cx="479.217" cy="487.412" r="14"/>
<circle clip-path="url(#clip6602)" style="fill:#000000; stroke:none; fill-opacity:1" cx="593.867" cy="359.193" r="18"/>
<circle clip-path="url(#clip6602)" style="fill:#0000ff; stroke:none; fill-opacity:1" cx="593.867" cy="359.193" r="14"/>
<circle clip-path="url(#clip6602)" style="fill:#000000; stroke:none; fill-opacity:1" cx="521.298" cy="521.075" r="18"/>
<circle clip-path="url(#clip6602)" style="fill:#0000ff; stroke:none; fill-opacity:1" cx="521.298" cy="521.075" r="14"/>
<circle clip-path="url(#clip6602)" style="fill:#000000; stroke:none; fill-opacity:1" cx="992.052" cy="560.509" r="18"/>
<circle clip-path="url(#clip6602)" style="fill:#0000ff; stroke:none; fill-opacity:1" cx="992.052" cy="560.509" r="14"/>
<circle clip-path="url(#clip6602)" style="fill:#000000; stroke:none; fill-opacity:1" cx="434.751" cy="355.965" r="18"/>
<circle clip-path="url(#clip6602)" style="fill:#0000ff; stroke:none; fill-opacity:1" cx="434.751" cy="355.965" r="14"/>
<circle clip-path="url(#clip6602)" style="fill:#000000; stroke:none; fill-opacity:1" cx="408.138" cy="541.406" r="18"/>
<circle clip-path="url(#clip6602)" style="fill:#0000ff; stroke:none; fill-opacity:1" cx="408.138" cy="541.406" r="14"/>
<circle clip-path="url(#clip6602)" style="fill:#000000; stroke:none; fill-opacity:1" cx="774.094" cy="499.254" r="18"/>
<circle clip-path="url(#clip6602)" style="fill:#0000ff; stroke:none; fill-opacity:1" cx="774.094" cy="499.254" r="14"/>
<circle clip-path="url(#clip6602)" style="fill:#000000; stroke:none; fill-opacity:1" cx="797.496" cy="403.191" r="18"/>
<circle clip-path="url(#clip6602)" style="fill:#0000ff; stroke:none; fill-opacity:1" cx="797.496" cy="403.191" r="14"/>
<circle clip-path="url(#clip6602)" style="fill:#000000; stroke:none; fill-opacity:1" cx="595.852" cy="688.136" r="18"/>
<circle clip-path="url(#clip6602)" style="fill:#0000ff; stroke:none; fill-opacity:1" cx="595.852" cy="688.136" r="14"/>
<circle clip-path="url(#clip6602)" style="fill:#000000; stroke:none; fill-opacity:1" cx="730.459" cy="244.193" r="18"/>
<circle clip-path="url(#clip6602)" style="fill:#0000ff; stroke:none; fill-opacity:1" cx="730.459" cy="244.193" r="14"/>
<circle clip-path="url(#clip6602)" style="fill:#000000; stroke:none; fill-opacity:1" cx="668.468" cy="521.042" r="18"/>
<circle clip-path="url(#clip6602)" style="fill:#0000ff; stroke:none; fill-opacity:1" cx="668.468" cy="521.042" r="14"/>
<circle clip-path="url(#clip6602)" style="fill:#000000; stroke:none; fill-opacity:1" cx="488.393" cy="653.155" r="18"/>
<circle clip-path="url(#clip6602)" style="fill:#0000ff; stroke:none; fill-opacity:1" cx="488.393" cy="653.155" r="14"/>
<circle clip-path="url(#clip6602)" style="fill:#000000; stroke:none; fill-opacity:1" cx="830.425" cy="369.282" r="18"/>
<circle clip-path="url(#clip6602)" style="fill:#0000ff; stroke:none; fill-opacity:1" cx="830.425" cy="369.282" r="14"/>
<circle clip-path="url(#clip6602)" style="fill:#000000; stroke:none; fill-opacity:1" cx="1070.49" cy="639.174" r="18"/>
<circle clip-path="url(#clip6602)" style="fill:#0000ff; stroke:none; fill-opacity:1" cx="1070.49" cy="639.174" r="14"/>
<circle clip-path="url(#clip6602)" style="fill:#000000; stroke:none; fill-opacity:1" cx="726.818" cy="669.309" r="18"/>
<circle clip-path="url(#clip6602)" style="fill:#0000ff; stroke:none; fill-opacity:1" cx="726.818" cy="669.309" r="14"/>
<circle clip-path="url(#clip6602)" style="fill:#000000; stroke:none; fill-opacity:1" cx="835.354" cy="471.337" r="18"/>
<circle clip-path="url(#clip6602)" style="fill:#0000ff; stroke:none; fill-opacity:1" cx="835.354" cy="471.337" r="14"/>
<circle clip-path="url(#clip6602)" style="fill:#000000; stroke:none; fill-opacity:1" cx="958.722" cy="204.29" r="18"/>
<circle clip-path="url(#clip6602)" style="fill:#0000ff; stroke:none; fill-opacity:1" cx="958.722" cy="204.29" r="14"/>
<circle clip-path="url(#clip6602)" style="fill:#000000; stroke:none; fill-opacity:1" cx="672.357" cy="529.45" r="18"/>
<circle clip-path="url(#clip6602)" style="fill:#0000ff; stroke:none; fill-opacity:1" cx="672.357" cy="529.45" r="14"/>
<circle clip-path="url(#clip6602)" style="fill:#000000; stroke:none; fill-opacity:1" cx="513.272" cy="626.609" r="18"/>
<circle clip-path="url(#clip6602)" style="fill:#0000ff; stroke:none; fill-opacity:1" cx="513.272" cy="626.609" r="14"/>
<polyline clip-path="url(#clip6602)" style="stroke:#0a0622; stroke-width:4; stroke-opacity:1; fill:none" points="
  1067.63,1446.71 1067.83,1390.1 1068.12,1333.49 1068.55,1276.87 1069.23,1220.26 1070.38,1163.65 1071.49,1132.06 1083.95,1107.04 1108.48,1050.42 1123.61,993.811 
  1132.36,937.198 1136.85,880.585 1135.77,823.972 1071.49,773.782 1068.02,767.359 995.594,713.676 919.699,711.656 910.098,710.747 843.805,674.506 767.911,660.444 
  692.017,657.89 616.123,657.176 540.229,655.946 519.314,654.134 464.334,621.361 388.44,603.594 312.546,601.264 236.652,600.781 
  "/>
<polyline clip-path="url(#clip6602)" style="stroke:#1f0b46; stroke-width:4; stroke-opacity:1; fill:none" points="
  236.652,604.612 312.546,605.486 388.44,610.358 464.334,647.793 474.972,654.134 540.229,659.788 616.123,661.064 692.017,662.257 767.911,667.563 843.805,697.225 
  868.54,710.747 919.699,715.595 995.594,717.788 1062.48,767.359 1071.49,784.065 1122.6,823.972 1124.65,880.585 1114.95,937.198 1096.09,993.811 1071.49,1041.03 
  1070.5,1050.42 1067.09,1107.04 1065.22,1163.65 1064.14,1220.26 1063.49,1276.87 1063.08,1333.49 1062.8,1390.1 1062.59,1446.71 
  "/>
<polyline clip-path="url(#clip6602)" style="stroke:#3b0963; stroke-width:4; stroke-opacity:1; fill:none" points="
  1057.54,1446.71 1057.76,1390.1 1058.04,1333.49 1058.44,1276.87 1059.05,1220.26 1060.05,1163.65 1061.8,1107.04 1064.96,1050.42 1070.85,993.811 1071.49,990.058 
  1097.54,937.198 1112.45,880.585 1109.43,823.972 1071.49,794.349 1056.93,767.359 995.594,721.9 919.699,719.533 843.805,712.538 838.189,710.747 767.911,674.683 
  692.017,666.624 616.123,664.952 540.229,663.631 464.334,657.395 455.078,654.134 388.44,617.121 312.546,609.708 236.652,608.444 
  "/>
<polyline clip-path="url(#clip6602)" style="stroke:#550f6d; stroke-width:4; stroke-opacity:1; fill:none" points="
  236.652,612.276 312.546,613.929 388.44,623.885 442.9,654.134 464.334,661.686 540.229,667.473 616.123,668.84 692.017,670.99 767.911,681.802 824.316,710.747 
  843.805,716.963 919.699,723.471 995.594,726.012 1051.38,767.359 1071.49,804.632 1096.26,823.972 1100.25,880.585 1080.13,937.198 1071.49,954.736 1064.84,993.811 
  1059.42,1050.42 1056.5,1107.04 1054.89,1163.65 1053.95,1220.26 1053.38,1276.87 1053,1333.49 1052.72,1390.1 1052.49,1446.71 
  "/>
<polyline clip-path="url(#clip6602)" style="stroke:#6e186e; stroke-width:4; stroke-opacity:1; fill:none" points="
  1047.45,1446.71 1047.69,1390.1 1047.96,1333.49 1048.32,1276.87 1048.86,1220.26 1049.72,1163.65 1051.2,1107.04 1053.87,1050.42 1058.83,993.811 1068.03,937.198 
  1071.49,921.885 1088.05,880.585 1083.09,823.972 1071.49,814.916 1045.83,767.359 995.594,730.123 919.699,727.41 843.805,721.388 810.442,710.747 767.911,688.921 
  692.017,675.357 616.123,672.728 540.229,671.316 464.334,665.977 430.723,654.134 388.44,630.649 312.546,618.151 236.652,616.108 
  "/>
<polyline clip-path="url(#clip6602)" style="stroke:#88216a; stroke-width:4; stroke-opacity:1; fill:none" points="
  236.652,619.939 312.546,622.373 388.44,637.413 418.545,654.134 464.334,670.268 540.229,675.158 616.123,676.616 692.017,679.724 767.911,696.041 796.569,710.747 
  843.805,725.813 919.699,731.348 995.594,734.235 1040.28,767.359 1070.55,823.972 1071.49,838.125 1075.85,880.585 1071.49,891.471 1061.15,937.198 1052.83,993.811 
  1048.33,1050.42 1045.91,1107.04 1044.56,1163.65 1043.77,1220.26 1043.27,1276.87 1042.92,1333.49 1042.65,1390.1 1042.4,1446.71 
  "/>
<polyline clip-path="url(#clip6602)" style="stroke:#a12b61; stroke-width:4; stroke-opacity:1; fill:none" points="
  1037.36,1446.71 1037.61,1390.1 1037.88,1333.49 1038.21,1276.87 1038.67,1220.26 1039.39,1163.65 1040.61,1107.04 1042.79,1050.42 1046.82,993.811 1054.28,937.198 
  1066.18,880.585 1062.66,823.972 1034.74,767.359 995.594,738.347 919.699,735.286 843.805,730.238 782.695,710.747 767.911,703.16 692.017,684.09 616.123,680.504 
  540.229,679 464.334,674.559 406.368,654.134 388.44,644.176 312.546,626.595 236.652,623.771 
  "/>
<polyline clip-path="url(#clip6602)" style="stroke:#ba3655; stroke-width:4; stroke-opacity:1; fill:none" points="
  236.652,627.603 312.546,630.816 388.44,650.94 394.19,654.134 464.334,678.85 540.229,682.843 616.123,684.392 692.017,688.457 767.911,710.279 768.822,710.747 
  843.805,734.663 919.699,739.224 995.594,742.459 1029.19,767.359 1054.77,823.972 1057.91,880.585 1047.4,937.198 1040.81,993.811 1037.24,1050.42 1035.31,1107.04 
  1034.23,1163.65 1033.58,1220.26 1033.16,1276.87 1032.84,1333.49 1032.58,1390.1 1032.31,1446.71 
  "/>
<polyline clip-path="url(#clip6602)" style="stroke:#d04544; stroke-width:4; stroke-opacity:1; fill:none" points="
  1027.26,1446.71 1027.54,1390.1 1027.8,1333.49 1028.1,1276.87 1028.49,1220.26 1029.07,1163.65 1030.02,1107.04 1031.7,1050.42 1034.8,993.811 1040.52,937.198 
  1049.65,880.585 1046.88,823.972 1023.64,767.359 995.594,746.571 919.699,743.163 843.805,739.088 767.911,717.875 753.838,710.747 692.017,692.823 616.123,688.28 
  540.229,686.685 464.334,683.141 388.44,658.382 380.509,654.134 312.546,635.038 236.652,631.434 
  "/>
<polyline clip-path="url(#clip6602)" style="stroke:#e25832; stroke-width:4; stroke-opacity:1; fill:none" points="
  236.652,635.266 312.546,639.26 365.484,654.134 388.44,666.43 464.334,687.432 540.229,690.528 616.123,692.167 692.017,697.19 738.776,710.747 767.911,725.504 
  843.805,743.513 919.699,747.101 995.594,750.682 1018.09,767.359 1038.99,823.972 1041.38,880.585 1033.65,937.198 1028.79,993.811 1026.16,1050.42 1024.72,1107.04 
  1023.9,1163.65 1023.39,1220.26 1023.04,1276.87 1022.76,1333.49 1022.5,1390.1 1022.22,1446.71 
  "/>
<polyline clip-path="url(#clip6602)" style="stroke:#f0711e; stroke-width:4; stroke-opacity:1; fill:none" points="
  1017.17,1446.71 1017.47,1390.1 1017.73,1333.49 1017.99,1276.87 1018.3,1220.26 1018.74,1163.65 1019.42,1107.04 1020.62,1050.42 1022.78,993.811 1026.77,937.198 
  1033.12,880.585 1031.11,823.972 1012.55,767.359 995.594,754.794 919.699,751.039 843.805,747.938 767.911,733.133 723.715,710.747 692.017,701.557 616.123,696.055 
  540.229,694.37 464.334,691.723 388.44,674.478 350.459,654.134 312.546,643.481 236.652,639.098 
  "/>
<polyline clip-path="url(#clip6602)" style="stroke:#f88c0a; stroke-width:4; stroke-opacity:1; fill:none" points="
  236.652,642.93 312.546,647.703 335.433,654.134 388.44,682.527 464.334,696.014 540.229,698.212 616.123,699.943 692.017,705.923 708.653,710.747 767.911,740.761 
  843.805,752.363 919.699,754.977 995.594,758.906 1007,767.359 1023.22,823.972 1024.85,880.585 1019.9,937.198 1016.78,993.811 1015.07,1050.42 1014.13,1107.04 
  1013.57,1163.65 1013.21,1220.26 1012.93,1276.87 1012.69,1333.49 1012.43,1390.1 1012.13,1446.71 
  "/>
<polyline clip-path="url(#clip6602)" style="stroke:#fbaa0f; stroke-width:4; stroke-opacity:1; fill:none" points="
  1007.08,1446.71 1007.39,1390.1 1007.65,1333.49 1007.88,1276.87 1008.12,1220.26 1008.41,1163.65 1008.83,1107.04 1009.53,1050.42 1010.77,993.811 1013.02,937.198 
  1016.58,880.585 1015.33,823.972 1001.45,767.359 995.594,763.018 919.699,758.916 843.805,756.788 767.911,748.39 693.591,710.747 692.017,710.29 616.123,703.831 
  540.229,702.055 464.334,700.305 388.44,690.575 320.408,654.134 312.546,651.925 236.652,646.761 
  "/>
<polyline clip-path="url(#clip6602)" style="stroke:#f8c933; stroke-width:4; stroke-opacity:1; fill:none" points="
  236.652,650.593 286.715,654.134 312.546,667.506 388.44,698.623 464.334,704.596 540.229,705.897 616.123,707.719 651.422,710.747 692.017,731.631 767.911,756.019 
  843.805,761.213 919.699,762.854 995.594,767.13 995.903,767.359 1007.44,823.972 1008.32,880.585 1006.15,937.198 1004.76,993.811 1003.99,1050.42 1003.54,1107.04 
  1003.24,1163.65 1003.02,1220.26 1002.82,1276.87 1002.61,1333.49 1002.36,1390.1 1002.03,1446.71 
  "/>
<polyline clip-path="url(#clip6602)" style="stroke:#f2e763; stroke-width:4; stroke-opacity:1; fill:none" points="
  996.987,1446.71 997.318,1390.1 997.569,1333.49 997.765,1276.87 997.929,1220.26 998.08,1163.65 998.239,1107.04 998.443,1050.42 998.752,993.811 999.272,937.198 
  1000.05,880.585 999.555,823.972 995.594,804.316 929.744,767.359 919.699,766.792 843.805,765.638 767.911,763.648 692.017,754.953 616.123,726.885 581.372,710.747 
  540.229,709.74 464.334,708.887 388.44,706.671 312.546,695.554 236.652,660.895 
  "/>
<polyline clip-path="url(#clip6602)" style="stroke:#0a0622; stroke-width:4; stroke-opacity:1; fill:none" points="
  1075.83,88.0053 1075.79,144.618 1075.75,201.231 1075.71,257.844 1075.65,314.457 1075.58,371.07 1075.46,427.682 1075.28,484.295 1074.99,540.908 1074.9,597.521 
  1075.92,654.134 1147.38,707.418 1223.28,707.469 1299.17,707.55 1375.06,708.579 1381.4,710.747 1450.96,760.366 1526.85,763.904 1602.75,764.045 1678.64,764.069 
  1754.54,764.094 1830.43,764.273 1894.32,767.359 1906.32,775.826 1982.22,819.753 2058.11,820.608 
  "/>
<polyline clip-path="url(#clip6602)" style="stroke:#1f0b46; stroke-width:4; stroke-opacity:1; fill:none" points="
  2058.11,816.895 1982.22,815.098 1912.07,767.359 1906.32,764.09 1830.43,760.634 1754.54,760.465 1678.64,760.434 1602.75,760.387 1526.85,760.09 1450.96,752.649 
  1392.22,710.747 1375.06,704.879 1299.17,703.918 1223.28,703.838 1147.38,703.743 1080.84,654.134 1079.83,597.521 1079.91,540.908 1080.18,484.295 1080.36,427.682 
  1080.47,371.07 1080.54,314.457 1080.6,257.844 1080.65,201.231 1080.7,144.618 1080.76,88.0053 
  "/>
<polyline clip-path="url(#clip6602)" style="stroke:#3b0963; stroke-width:4; stroke-opacity:1; fill:none" points="
  1085.69,88.0053 1085.6,144.618 1085.54,201.231 1085.49,257.844 1085.43,314.457 1085.36,371.07 1085.25,427.682 1085.09,484.295 1084.83,540.908 1084.76,597.521 
  1085.77,654.134 1147.38,700.069 1223.28,700.208 1299.17,700.287 1375.06,701.179 1403.04,710.747 1450.96,744.932 1526.85,756.277 1602.75,756.729 1678.64,756.8 
  1754.54,756.836 1830.43,756.996 1906.32,760.201 1918.91,767.359 1982.22,810.442 2058.11,813.183 
  "/>
<polyline clip-path="url(#clip6602)" style="stroke:#550f6d; stroke-width:4; stroke-opacity:1; fill:none" points="
  2058.11,809.47 1982.22,805.787 1925.75,767.359 1906.32,756.312 1830.43,753.357 1754.54,753.207 1678.64,753.166 1602.75,753.071 1526.85,752.464 1450.96,737.215 
  1413.85,710.747 1375.06,697.479 1299.17,696.655 1223.28,696.577 1147.38,696.395 1090.7,654.134 1089.69,597.521 1089.76,540.908 1089.99,484.295 1090.14,427.682 
  1090.24,371.07 1090.32,314.457 1090.38,257.844 1090.44,201.231 1090.51,144.618 1090.61,88.0053 
  "/>
<polyline clip-path="url(#clip6602)" style="stroke:#6e186e; stroke-width:4; stroke-opacity:1; fill:none" points="
  1095.54,88.0053 1095.42,144.618 1095.34,201.231 1095.27,257.844 1095.2,314.457 1095.13,371.07 1095.04,427.682 1094.9,484.295 1094.68,540.908 1094.62,597.521 
  1095.63,654.134 1147.38,692.72 1223.28,692.947 1299.17,693.023 1375.06,693.779 1424.67,710.747 1450.96,729.498 1526.85,748.65 1602.75,749.413 1678.64,749.531 
  1754.54,749.578 1830.43,749.719 1906.32,752.422 1932.6,767.359 1982.22,801.132 2058.11,805.758 
  "/>
<polyline clip-path="url(#clip6602)" style="stroke:#88216a; stroke-width:4; stroke-opacity:1; fill:none" points="
  2058.11,802.045 1982.22,796.476 1939.44,767.359 1906.32,748.533 1830.43,746.08 1754.54,745.949 1678.64,745.897 1602.75,745.755 1526.85,744.837 1450.96,721.781 
  1435.49,710.747 1375.06,690.078 1299.17,689.391 1223.28,689.317 1147.38,689.046 1100.56,654.134 1099.54,597.521 1099.6,540.908 1099.8,484.295 1099.93,427.682 
  1100.02,371.07 1100.09,314.457 1100.16,257.844 1100.23,201.231 1100.33,144.618 1100.47,88.0053 
  "/>
<polyline clip-path="url(#clip6602)" style="stroke:#a12b61; stroke-width:4; stroke-opacity:1; fill:none" points="
  1105.4,88.0053 1105.23,144.618 1105.13,201.231 1105.05,257.844 1104.98,314.457 1104.91,371.07 1104.83,427.682 1104.71,484.295 1104.52,540.908 1104.47,597.521 
  1105.48,654.134 1147.38,685.372 1223.28,685.686 1299.17,685.759 1375.06,686.378 1446.31,710.747 1450.96,714.064 1526.85,741.024 1602.75,742.097 1678.64,742.263 
  1754.54,742.32 1830.43,742.442 1906.32,744.644 1946.28,767.359 1982.22,791.821 2058.11,798.333 
  "/>
<polyline clip-path="url(#clip6602)" style="stroke:#ba3655; stroke-width:4; stroke-opacity:1; fill:none" points="
  2058.11,794.621 1982.22,787.165 1953.12,767.359 1906.32,740.755 1830.43,738.803 1754.54,738.691 1678.64,738.628 1602.75,738.439 1526.85,737.21 1456.72,710.747 
  1450.96,706.852 1375.06,682.678 1299.17,682.127 1223.28,682.056 1147.38,681.698 1110.41,654.134 1109.4,597.521 1109.45,540.908 1109.61,484.295 1109.72,427.682 
  1109.8,371.07 1109.87,314.457 1109.94,257.844 1110.02,201.231 1110.14,144.618 1110.33,88.0053 
  "/>
<polyline clip-path="url(#clip6602)" style="stroke:#d04544; stroke-width:4; stroke-opacity:1; fill:none" points="
  1115.26,88.0053 1115.05,144.618 1114.92,201.231 1114.83,257.844 1114.75,314.457 1114.69,371.07 1114.61,427.682 1114.51,484.295 1114.37,540.908 1114.33,597.521 
  1115.34,654.134 1147.38,678.023 1223.28,678.426 1299.17,678.496 1375.06,678.978 1450.96,700.021 1466.83,710.747 1526.85,733.397 1602.75,734.781 1678.64,734.994 
  1754.54,735.062 1830.43,735.165 1906.32,736.866 1959.96,767.359 1982.22,782.51 2058.11,790.908 
  "/>
<polyline clip-path="url(#clip6602)" style="stroke:#e25832; stroke-width:4; stroke-opacity:1; fill:none" points="
  2058.11,787.196 1982.22,777.855 1966.8,767.359 1906.32,732.976 1830.43,731.526 1754.54,731.433 1678.64,731.36 1602.75,731.123 1526.85,729.584 1476.93,710.747 
  1450.96,693.19 1375.06,675.278 1299.17,674.864 1223.28,674.795 1147.38,674.349 1120.27,654.134 1119.26,597.521 1119.29,540.908 1119.42,484.295 1119.51,427.682 
  1119.58,371.07 1119.64,314.457 1119.72,257.844 1119.81,201.231 1119.96,144.618 1120.19,88.0053 
  "/>
<polyline clip-path="url(#clip6602)" style="stroke:#f0711e; stroke-width:4; stroke-opacity:1; fill:none" points="
  1125.12,88.0053 1124.87,144.618 1124.71,201.231 1124.61,257.844 1124.53,314.457 1124.46,371.07 1124.4,427.682 1124.32,484.295 1124.21,540.908 1124.19,597.521 
  1125.2,654.134 1147.38,670.675 1223.28,671.165 1299.17,671.232 1375.06,671.578 1450.96,686.359 1487.04,710.747 1526.85,725.771 1602.75,727.465 1678.64,727.725 
  1754.54,727.804 1830.43,727.887 1906.32,729.087 1973.64,767.359 1982.22,773.199 2058.11,783.483 
  "/>
<polyline clip-path="url(#clip6602)" style="stroke:#f88c0a; stroke-width:4; stroke-opacity:1; fill:none" points="
  2058.11,779.771 1982.22,768.544 1980.48,767.359 1906.32,725.198 1830.43,724.249 1754.54,724.175 1678.64,724.091 1602.75,723.808 1526.85,721.957 1497.14,710.747 
  1450.96,679.528 1375.06,667.877 1299.17,667.6 1223.28,667.535 1147.38,667 1130.12,654.134 1129.12,597.521 1129.14,540.908 1129.23,484.295 1129.29,427.682 
  1129.35,371.07 1129.42,314.457 1129.5,257.844 1129.61,201.231 1129.77,144.618 1130.05,88.0053 
  "/>
<polyline clip-path="url(#clip6602)" style="stroke:#fbaa0f; stroke-width:4; stroke-opacity:1; fill:none" points="
  1134.97,88.0053 1134.68,144.618 1134.5,201.231 1134.38,257.844 1134.3,314.457 1134.24,371.07 1134.19,427.682 1134.13,484.295 1134.06,540.908 1134.04,597.521 
  1135.05,654.134 1147.38,663.326 1223.28,663.904 1299.17,663.968 1375.06,664.177 1450.96,672.697 1507.25,710.747 1526.85,718.144 1602.75,720.15 1678.64,720.457 
  1754.54,720.546 1830.43,720.61 1906.32,721.309 1982.22,755.173 2000.54,767.359 2058.11,776.058 
  "/>
<polyline clip-path="url(#clip6602)" style="stroke:#f8c933; stroke-width:4; stroke-opacity:1; fill:none" points="
  2058.11,772.346 2025.11,767.359 1982.22,738.829 1906.32,717.42 1830.43,716.972 1754.54,716.917 1678.64,716.823 1602.75,716.492 1526.85,714.331 1517.35,710.747 
  1450.96,665.866 1375.06,660.477 1299.17,660.336 1223.28,660.274 1147.38,659.652 1139.98,654.134 1138.97,597.521 1138.98,540.908 1139.03,484.295 1139.08,427.682 
  1139.13,371.07 1139.19,314.457 1139.27,257.844 1139.4,201.231 1139.59,144.618 1139.9,88.0053 
  "/>
<polyline clip-path="url(#clip6602)" style="stroke:#f2e763; stroke-width:4; stroke-opacity:1; fill:none" points="
  1144.83,88.0053 1144.5,144.618 1144.29,201.231 1144.16,257.844 1144.08,314.457 1144.02,371.07 1143.97,427.682 1143.94,484.295 1143.9,540.908 1143.9,597.521 
  1144.91,654.134 1147.38,655.978 1223.28,656.644 1299.17,656.705 1375.06,656.777 1450.96,659.035 1526.85,706.379 1534.09,710.747 1602.75,712.834 1678.64,713.188 
  1754.54,713.288 1830.43,713.333 1906.32,713.53 1982.22,722.485 2049.68,767.359 2058.11,768.633 
  "/>
<defs>
  <clipPath id="clip6603">
    <rect x="2160" y="47" width="73" height="1441"/>
  </clipPath>
</defs>
<polyline clip-path="url(#clip6603)" style="stroke:#0b0724; stroke-width:4; stroke-opacity:1; fill:none" points="
  2160.76,1397.46 2232.76,1397.46 
  "/>
<polyline clip-path="url(#clip6603)" style="stroke:#200b49; stroke-width:4; stroke-opacity:1; fill:none" points="
  2160.76,1307.45 2232.76,1307.45 
  "/>
<polyline clip-path="url(#clip6603)" style="stroke:#3c0964; stroke-width:4; stroke-opacity:1; fill:none" points="
  2160.76,1217.43 2232.76,1217.43 
  "/>
<polyline clip-path="url(#clip6603)" style="stroke:#57106d; stroke-width:4; stroke-opacity:1; fill:none" points="
  2160.76,1127.42 2232.76,1127.42 
  "/>
<polyline clip-path="url(#clip6603)" style="stroke:#70196e; stroke-width:4; stroke-opacity:1; fill:none" points="
  2160.76,1037.4 2232.76,1037.4 
  "/>
<polyline clip-path="url(#clip6603)" style="stroke:#8a2269; stroke-width:4; stroke-opacity:1; fill:none" points="
  2160.76,947.388 2232.76,947.388 
  "/>
<polyline clip-path="url(#clip6603)" style="stroke:#a32b61; stroke-width:4; stroke-opacity:1; fill:none" points="
  2160.76,857.374 2232.76,857.374 
  "/>
<polyline clip-path="url(#clip6603)" style="stroke:#bb3754; stroke-width:4; stroke-opacity:1; fill:none" points="
  2160.76,767.359 2232.76,767.359 
  "/>
<polyline clip-path="url(#clip6603)" style="stroke:#d04544; stroke-width:4; stroke-opacity:1; fill:none" points="
  2160.76,677.345 2232.76,677.345 
  "/>
<polyline clip-path="url(#clip6603)" style="stroke:#e25832; stroke-width:4; stroke-opacity:1; fill:none" points="
  2160.76,587.331 2232.76,587.331 
  "/>
<polyline clip-path="url(#clip6603)" style="stroke:#f0711e; stroke-width:4; stroke-opacity:1; fill:none" points="
  2160.76,497.316 2232.76,497.316 
  "/>
<polyline clip-path="url(#clip6603)" style="stroke:#f88c0a; stroke-width:4; stroke-opacity:1; fill:none" points="
  2160.76,407.302 2232.76,407.302 
  "/>
<polyline clip-path="url(#clip6603)" style="stroke:#fbaa0f; stroke-width:4; stroke-opacity:1; fill:none" points="
  2160.76,317.287 2232.76,317.287 
  "/>
<polyline clip-path="url(#clip6603)" style="stroke:#f8c933; stroke-width:4; stroke-opacity:1; fill:none" points="
  2160.76,227.273 2232.76,227.273 
  "/>
<polyline clip-path="url(#clip6603)" style="stroke:#f2e763; stroke-width:4; stroke-opacity:1; fill:none" points="
  2160.76,137.259 2232.76,137.259 
  "/>
<g clip-path="url(#clip6600)">
<text style="fill:#000000; fill-opacity:1; font-family:Arial,Helvetica Neue,Helvetica,sans-serif; font-size:48px; text-anchor:start;" transform="rotate(0, 2268.76, 1501.13)" x="2268.76" y="1501.13">0</text>
</g>
<g clip-path="url(#clip6600)">
<text style="fill:#000000; fill-opacity:1; font-family:Arial,Helvetica Neue,Helvetica,sans-serif; font-size:48px; text-anchor:start;" transform="rotate(0, 2268.76, 1357.1)" x="2268.76" y="1357.1">0.1</text>
</g>
<g clip-path="url(#clip6600)">
<text style="fill:#000000; fill-opacity:1; font-family:Arial,Helvetica Neue,Helvetica,sans-serif; font-size:48px; text-anchor:start;" transform="rotate(0, 2268.76, 1213.08)" x="2268.76" y="1213.08">0.2</text>
</g>
<g clip-path="url(#clip6600)">
<text style="fill:#000000; fill-opacity:1; font-family:Arial,Helvetica Neue,Helvetica,sans-serif; font-size:48px; text-anchor:start;" transform="rotate(0, 2268.76, 1069.06)" x="2268.76" y="1069.06">0.3</text>
</g>
<g clip-path="url(#clip6600)">
<text style="fill:#000000; fill-opacity:1; font-family:Arial,Helvetica Neue,Helvetica,sans-serif; font-size:48px; text-anchor:start;" transform="rotate(0, 2268.76, 925.034)" x="2268.76" y="925.034">0.4</text>
</g>
<g clip-path="url(#clip6600)">
<text style="fill:#000000; fill-opacity:1; font-family:Arial,Helvetica Neue,Helvetica,sans-serif; font-size:48px; text-anchor:start;" transform="rotate(0, 2268.76, 781.011)" x="2268.76" y="781.011">0.5</text>
</g>
<g clip-path="url(#clip6600)">
<text style="fill:#000000; fill-opacity:1; font-family:Arial,Helvetica Neue,Helvetica,sans-serif; font-size:48px; text-anchor:start;" transform="rotate(0, 2268.76, 636.988)" x="2268.76" y="636.988">0.6</text>
</g>
<g clip-path="url(#clip6600)">
<text style="fill:#000000; fill-opacity:1; font-family:Arial,Helvetica Neue,Helvetica,sans-serif; font-size:48px; text-anchor:start;" transform="rotate(0, 2268.76, 492.964)" x="2268.76" y="492.964">0.7</text>
</g>
<g clip-path="url(#clip6600)">
<text style="fill:#000000; fill-opacity:1; font-family:Arial,Helvetica Neue,Helvetica,sans-serif; font-size:48px; text-anchor:start;" transform="rotate(0, 2268.76, 348.941)" x="2268.76" y="348.941">0.8</text>
</g>
<g clip-path="url(#clip6600)">
<text style="fill:#000000; fill-opacity:1; font-family:Arial,Helvetica Neue,Helvetica,sans-serif; font-size:48px; text-anchor:start;" transform="rotate(0, 2268.76, 204.918)" x="2268.76" y="204.918">0.9</text>
</g>
<g clip-path="url(#clip6600)">
<text style="fill:#000000; fill-opacity:1; font-family:Arial,Helvetica Neue,Helvetica,sans-serif; font-size:48px; text-anchor:start;" transform="rotate(0, 2268.76, 60.8953)" x="2268.76" y="60.8953">1.0</text>
</g>
<polyline clip-path="url(#clip6600)" style="stroke:#000000; stroke-width:4; stroke-opacity:1; fill:none" points="
  2232.76,1487.47 2232.76,1487.47 2256.76,1487.47 2232.76,1487.47 2232.76,1343.45 2256.76,1343.45 2232.76,1343.45 2232.76,1199.43 2256.76,1199.43 2232.76,1199.43 
  2232.76,1055.41 2256.76,1055.41 2232.76,1055.41 2232.76,911.382 2256.76,911.382 2232.76,911.382 2232.76,767.359 2256.76,767.359 2232.76,767.359 2232.76,623.336 
  2256.76,623.336 2232.76,623.336 2232.76,479.313 2256.76,479.313 2232.76,479.313 2232.76,335.29 2256.76,335.29 2232.76,335.29 2232.76,191.267 2256.76,191.267 
  2232.76,191.267 2232.76,47.2441 2256.76,47.2441 2232.76,47.2441 
  "/>
<path clip-path="url(#clip6600)" d="
M1749.93 312.204 L2040.76 312.204 L2040.76 130.764 L1749.93 130.764  Z
  " fill="#ffffff" fill-rule="evenodd" fill-opacity="1"/>
<polyline clip-path="url(#clip6600)" style="stroke:#000000; stroke-width:4; stroke-opacity:1; fill:none" points="
  1749.93,312.204 2040.76,312.204 2040.76,130.764 1749.93,130.764 1749.93,312.204 
  "/>
<circle clip-path="url(#clip6600)" style="fill:#000000; stroke:none; fill-opacity:1" cx="1857.93" cy="191.244" r="25"/>
<circle clip-path="url(#clip6600)" style="fill:#ff0000; stroke:none; fill-opacity:1" cx="1857.93" cy="191.244" r="21"/>
<g clip-path="url(#clip6600)">
<text style="fill:#000000; fill-opacity:1; font-family:Arial,Helvetica Neue,Helvetica,sans-serif; font-size:48px; text-anchor:start;" transform="rotate(0, 1941.93, 208.744)" x="1941.93" y="208.744">y1</text>
</g>
<circle clip-path="url(#clip6600)" style="fill:#000000; stroke:none; fill-opacity:1" cx="1857.93" cy="251.724" r="25"/>
<circle clip-path="url(#clip6600)" style="fill:#0000ff; stroke:none; fill-opacity:1" cx="1857.93" cy="251.724" r="21"/>
<g clip-path="url(#clip6600)">
<text style="fill:#000000; fill-opacity:1; font-family:Arial,Helvetica Neue,Helvetica,sans-serif; font-size:48px; text-anchor:start;" transform="rotate(0, 1941.93, 269.224)" x="1941.93" y="269.224">y2</text>
</g>
</svg>
