<?xml version="1.0" encoding="utf-8"?>
<svg xmlns="http://www.w3.org/2000/svg" xmlns:xlink="http://www.w3.org/1999/xlink" width="600" height="400" viewBox="0 0 2400 1600">
<defs>
  <clipPath id="clip7500">
    <rect x="0" y="0" width="2400" height="1600"/>
  </clipPath>
</defs>
<path clip-path="url(#clip7500)" d="
M0 1600 L2400 1600 L2400 0 L0 0  Z
  " fill="#ffffff" fill-rule="evenodd" fill-opacity="1"/>
<defs>
  <clipPath id="clip7501">
    <rect x="480" y="0" width="1681" height="1600"/>
  </clipPath>
</defs>
<path clip-path="url(#clip7500)" d="
M182.008 1487.47 L2112.76 1487.47 L2112.76 47.2441 L182.008 47.2441  Z
  " fill="#ffffff" fill-rule="evenodd" fill-opacity="1"/>
<defs>
  <clipPath id="clip7502">
    <rect x="182" y="47" width="1932" height="1441"/>
  </clipPath>
</defs>
<polyline clip-path="url(#clip7502)" style="stroke:#000000; stroke-width:2; stroke-opacity:0.1; fill:none" points="
  388.44,1487.47 388.44,47.2441 
  "/>
<polyline clip-path="url(#clip7502)" style="stroke:#000000; stroke-width:2; stroke-opacity:0.1; fill:none" points="
  767.911,1487.47 767.911,47.2441 
  "/>
<polyline clip-path="url(#clip7502)" style="stroke:#000000; stroke-width:2; stroke-opacity:0.1; fill:none" points="
  1147.38,1487.47 1147.38,47.2441 
  "/>
<polyline clip-path="url(#clip7502)" style="stroke:#000000; stroke-width:2; stroke-opacity:0.1; fill:none" points="
  1526.85,1487.47 1526.85,47.2441 
  "/>
<polyline clip-path="url(#clip7502)" style="stroke:#000000; stroke-width:2; stroke-opacity:0.1; fill:none" points="
  1906.32,1487.47 1906.32,47.2441 
  "/>
<polyline clip-path="url(#clip7502)" style="stroke:#000000; stroke-width:2; stroke-opacity:0.1; fill:none" points="
  182.008,1333.49 2112.76,1333.49 
  "/>
<polyline clip-path="url(#clip7502)" style="stroke:#000000; stroke-width:2; stroke-opacity:0.1; fill:none" points="
  182.008,1050.42 2112.76,1050.42 
  "/>
<polyline clip-path="url(#clip7502)" style="stroke:#000000; stroke-width:2; stroke-opacity:0.1; fill:none" points="
  182.008,767.359 2112.76,767.359 
  "/>
<polyline clip-path="url(#clip7502)" style="stroke:#000000; stroke-width:2; stroke-opacity:0.1; fill:none" points="
  182.008,484.295 2112.76,484.295 
  "/>
<polyline clip-path="url(#clip7502)" style="stroke:#000000; stroke-width:2; stroke-opacity:0.1; fill:none" points="
  182.008,201.231 2112.76,201.231 
  "/>
<polyline clip-path="url(#clip7500)" style="stroke:#000000; stroke-width:4; stroke-opacity:1; fill:none" points="
  182.008,1487.47 2112.76,1487.47 
  "/>
<polyline clip-path="url(#clip7500)" style="stroke:#000000; stroke-width:4; stroke-opacity:1; fill:none" points="
  182.008,1487.47 182.008,47.2441 
  "/>
<polyline clip-path="url(#clip7500)" style="stroke:#000000; stroke-width:4; stroke-opacity:1; fill:none" points="
  388.44,1487.47 388.44,1470.19 
  "/>
<polyline clip-path="url(#clip7500)" style="stroke:#000000; stroke-width:4; stroke-opacity:1; fill:none" points="
  767.911,1487.47 767.911,1470.19 
  "/>
<polyline clip-path="url(#clip7500)" style="stroke:#000000; stroke-width:4; stroke-opacity:1; fill:none" points="
  1147.38,1487.47 1147.38,1470.19 
  "/>
<polyline clip-path="url(#clip7500)" style="stroke:#000000; stroke-width:4; stroke-opacity:1; fill:none" points="
  1526.85,1487.47 1526.85,1470.19 
  "/>
<polyline clip-path="url(#clip7500)" style="stroke:#000000; stroke-width:4; stroke-opacity:1; fill:none" points="
  1906.32,1487.47 1906.32,1470.19 
  "/>
<polyline clip-path="url(#clip7500)" style="stroke:#000000; stroke-width:4; stroke-opacity:1; fill:none" points="
  182.008,1333.49 205.177,1333.49 
  "/>
<polyline clip-path="url(#clip7500)" style="stroke:#000000; stroke-width:4; stroke-opacity:1; fill:none" points="
  182.008,1050.42 205.177,1050.42 
  "/>
<polyline clip-path="url(#clip7500)" style="stroke:#000000; stroke-width:4; stroke-opacity:1; fill:none" points="
  182.008,767.359 205.177,767.359 
  "/>
<polyline clip-path="url(#clip7500)" style="stroke:#000000; stroke-width:4; stroke-opacity:1; fill:none" points="
  182.008,484.295 205.177,484.295 
  "/>
<polyline clip-path="url(#clip7500)" style="stroke:#000000; stroke-width:4; stroke-opacity:1; fill:none" points="
  182.008,201.231 205.177,201.231 
  "/>
<g clip-path="url(#clip7500)">
<text style="fill:#000000; fill-opacity:1; font-family:Arial,Helvetica Neue,Helvetica,sans-serif; font-size:48px; text-anchor:middle;" transform="rotate(0, 388.44, 1541.47)" x="388.44" y="1541.47">-5.0</text>
</g>
<g clip-path="url(#clip7500)">
<text style="fill:#000000; fill-opacity:1; font-family:Arial,Helvetica Neue,Helvetica,sans-serif; font-size:48px; text-anchor:middle;" transform="rotate(0, 767.911, 1541.47)" x="767.911" y="1541.47">-2.5</text>
</g>
<g clip-path="url(#clip7500)">
<text style="fill:#000000; fill-opacity:1; font-family:Arial,Helvetica Neue,Helvetica,sans-serif; font-size:48px; text-anchor:middle;" transform="rotate(0, 1147.38, 1541.47)" x="1147.38" y="1541.47">0.0</text>
</g>
<g clip-path="url(#clip7500)">
<text style="fill:#000000; fill-opacity:1; font-family:Arial,Helvetica Neue,Helvetica,sans-serif; font-size:48px; text-anchor:middle;" transform="rotate(0, 1526.85, 1541.47)" x="1526.85" y="1541.47">2.5</text>
</g>
<g clip-path="url(#clip7500)">
<text style="fill:#000000; fill-opacity:1; font-family:Arial,Helvetica Neue,Helvetica,sans-serif; font-size:48px; text-anchor:middle;" transform="rotate(0, 1906.32, 1541.47)" x="1906.32" y="1541.47">5.0</text>
</g>
<g clip-path="url(#clip7500)">
<text style="fill:#000000; fill-opacity:1; font-family:Arial,Helvetica Neue,Helvetica,sans-serif; font-size:48px; text-anchor:end;" transform="rotate(0, 158.008, 1350.99)" x="158.008" y="1350.99">-5.0</text>
</g>
<g clip-path="url(#clip7500)">
<text style="fill:#000000; fill-opacity:1; font-family:Arial,Helvetica Neue,Helvetica,sans-serif; font-size:48px; text-anchor:end;" transform="rotate(0, 158.008, 1067.92)" x="158.008" y="1067.92">-2.5</text>
</g>
<g clip-path="url(#clip7500)">
<text style="fill:#000000; fill-opacity:1; font-family:Arial,Helvetica Neue,Helvetica,sans-serif; font-size:48px; text-anchor:end;" transform="rotate(0, 158.008, 784.859)" x="158.008" y="784.859">0.0</text>
</g>
<g clip-path="url(#clip7500)">
<text style="fill:#000000; fill-opacity:1; font-family:Arial,Helvetica Neue,Helvetica,sans-serif; font-size:48px; text-anchor:end;" transform="rotate(0, 158.008, 501.795)" x="158.008" y="501.795">2.5</text>
</g>
<g clip-path="url(#clip7500)">
<text style="fill:#000000; fill-opacity:1; font-family:Arial,Helvetica Neue,Helvetica,sans-serif; font-size:48px; text-anchor:end;" transform="rotate(0, 158.008, 218.731)" x="158.008" y="218.731">5.0</text>
</g>
<circle clip-path="url(#clip7502)" cx="1626.85" cy="226.453" r="14" fill="#ff0000" fill-rule="evenodd" fill-opacity="1" stroke="#000000" stroke-opacity="1" stroke-width="3.2"/>
<circle clip-path="url(#clip7502)" cx="1747.04" cy="219.232" r="14" fill="#ff0000" fill-rule="evenodd" fill-opacity="1" stroke="#000000" stroke-opacity="1" stroke-width="3.2"/>
<circle clip-path="url(#clip7502)" cx="1610.04" cy="228.859" r="14" fill="#ff0000" fill-rule="evenodd" fill-opacity="1" stroke="#000000" stroke-opacity="1" stroke-width="3.2"/>
<circle clip-path="url(#clip7502)" cx="1537.54" cy="308.278" r="14" fill="#ff0000" fill-rule="evenodd" fill-opacity="1" stroke="#000000" stroke-opacity="1" stroke-width="3.2"/>
<circle clip-path="url(#clip7502)" cx="1765.63" cy="292.353" r="14" fill="#ff0000" fill-rule="evenodd" fill-opacity="1" stroke="#000000" stroke-opacity="1" stroke-width="3.2"/>
<circle clip-path="url(#clip7502)" cx="1806.7" cy="693.341" r="14" fill="#ff0000" fill-rule="evenodd" fill-opacity="1" stroke="#000000" stroke-opacity="1" stroke-width="3.2"/>
<circle clip-path="url(#clip7502)" cx="1360.29" cy="662.575" r="14" fill="#ff0000" fill-rule="evenodd" fill-opacity="1" stroke="#000000" stroke-opacity="1" stroke-width="3.2"/>
<circle clip-path="url(#clip7502)" cx="1427.24" cy="550.287" r="14" fill="#ff0000" fill-rule="evenodd" fill-opacity="1" stroke="#000000" stroke-opacity="1" stroke-width="3.2"/>
<circle clip-path="url(#clip7502)" cx="1391.88" cy="645.625" r="14" fill="#ff0000" fill-rule="evenodd" fill-opacity="1" stroke="#000000" stroke-opacity="1" stroke-width="3.2"/>
<circle clip-path="url(#clip7502)" cx="1619.22" cy="520.093" r="14" fill="#ff0000" fill-rule="evenodd" fill-opacity="1" stroke="#000000" stroke-opacity="1" stroke-width="3.2"/>
<circle clip-path="url(#clip7502)" cx="1666.49" cy="236.329" r="14" fill="#ff0000" fill-rule="evenodd" fill-opacity="1" stroke="#000000" stroke-opacity="1" stroke-width="3.2"/>
<circle clip-path="url(#clip7502)" cx="1230.73" cy="487.1" r="14" fill="#ff0000" fill-rule="evenodd" fill-opacity="1" stroke="#000000" stroke-opacity="1" stroke-width="3.2"/>
<circle clip-path="url(#clip7502)" cx="1268.65" cy="584.966" r="14" fill="#ff0000" fill-rule="evenodd" fill-opacity="1" stroke="#000000" stroke-opacity="1" stroke-width="3.2"/>
<circle clip-path="url(#clip7502)" cx="1876.78" cy="704.724" r="14" fill="#ff0000" fill-rule="evenodd" fill-opacity="1" stroke="#000000" stroke-opacity="1" stroke-width="3.2"/>
<circle clip-path="url(#clip7502)" cx="1665" cy="687.287" r="14" fill="#ff0000" fill-rule="evenodd" fill-opacity="1" stroke="#000000" stroke-opacity="1" stroke-width="3.2"/>
<circle clip-path="url(#clip7502)" cx="1300.11" cy="457.941" r="14" fill="#ff0000" fill-rule="evenodd" fill-opacity="1" stroke="#000000" stroke-opacity="1" stroke-width="3.2"/>
<circle clip-path="url(#clip7502)" cx="1411.81" cy="337.781" r="14" fill="#ff0000" fill-rule="evenodd" fill-opacity="1" stroke="#000000" stroke-opacity="1" stroke-width="3.2"/>
<circle clip-path="url(#clip7502)" cx="1668.39" cy="558.372" r="14" fill="#ff0000" fill-rule="evenodd" fill-opacity="1" stroke="#000000" stroke-opacity="1" stroke-width="3.2"/>
<circle clip-path="url(#clip7502)" cx="1261.97" cy="481.881" r="14" fill="#ff0000" fill-rule="evenodd" fill-opacity="1" stroke="#000000" stroke-opacity="1" stroke-width="3.2"/>
<circle clip-path="url(#clip7502)" cx="1798.89" cy="264.871" r="14" fill="#ff0000" fill-rule="evenodd" fill-opacity="1" stroke="#000000" stroke-opacity="1" stroke-width="3.2"/>
<circle clip-path="url(#clip7502)" cx="420.058" cy="1005.51" r="14" fill="#ff0000" fill-rule="evenodd" fill-opacity="1" stroke="#000000" stroke-opacity="1" stroke-width="3.2"/>
<circle clip-path="url(#clip7502)" cx="865.45" cy="1128.96" r="14" fill="#ff0000" fill-rule="evenodd" fill-opacity="1" stroke="#000000" stroke-opacity="1" stroke-width="3.2"/>
<circle clip-path="url(#clip7502)" cx="637.827" cy="1065.96" r="14" fill="#ff0000" fill-rule="evenodd" fill-opacity="1" stroke="#000000" stroke-opacity="1" stroke-width="3.2"/>
<circle clip-path="url(#clip7502)" cx="595.047" cy="1021.66" r="14" fill="#ff0000" fill-rule="evenodd" fill-opacity="1" stroke="#000000" stroke-opacity="1" stroke-width="3.2"/>
<circle clip-path="url(#clip7502)" cx="642.927" cy="1113.08" r="14" fill="#ff0000" fill-rule="evenodd" fill-opacity="1" stroke="#000000" stroke-opacity="1" stroke-width="3.2"/>
<circle clip-path="url(#clip7502)" cx="491.244" cy="1291.6" r="14" fill="#ff0000" fill-rule="evenodd" fill-opacity="1" stroke="#000000" stroke-opacity="1" stroke-width="3.2"/>
<circle clip-path="url(#clip7502)" cx="489.073" cy="1232.06" r="14" fill="#ff0000" fill-rule="evenodd" fill-opacity="1" stroke="#000000" stroke-opacity="1" stroke-width="3.2"/>
<circle clip-path="url(#clip7502)" cx="582.017" cy="1039.97" r="14" fill="#ff0000" fill-rule="evenodd" fill-opacity="1" stroke="#000000" stroke-opacity="1" stroke-width="3.2"/>
<circle clip-path="url(#clip7502)" cx="665.042" cy="1222.32" r="14" fill="#ff0000" fill-rule="evenodd" fill-opacity="1" stroke="#000000" stroke-opacity="1" stroke-width="3.2"/>
<circle clip-path="url(#clip7502)" cx="729.643" cy="1149.03" r="14" fill="#ff0000" fill-rule="evenodd" fill-opacity="1" stroke="#000000" stroke-opacity="1" stroke-width="3.2"/>
<circle clip-path="url(#clip7502)" cx="838.442" cy="1229.18" r="14" fill="#ff0000" fill-rule="evenodd" fill-opacity="1" stroke="#000000" stroke-opacity="1" stroke-width="3.2"/>
<circle clip-path="url(#clip7502)" cx="740.638" cy="858.118" r="14" fill="#ff0000" fill-rule="evenodd" fill-opacity="1" stroke="#000000" stroke-opacity="1" stroke-width="3.2"/>
<circle clip-path="url(#clip7502)" cx="566.521" cy="911.985" r="14" fill="#ff0000" fill-rule="evenodd" fill-opacity="1" stroke="#000000" stroke-opacity="1" stroke-width="3.2"/>
<circle clip-path="url(#clip7502)" cx="795.209" cy="1282.89" r="14" fill="#ff0000" fill-rule="evenodd" fill-opacity="1" stroke="#000000" stroke-opacity="1" stroke-width="3.2"/>
<circle clip-path="url(#clip7502)" cx="588.205" cy="1010.3" r="14" fill="#ff0000" fill-rule="evenodd" fill-opacity="1" stroke="#000000" stroke-opacity="1" stroke-width="3.2"/>
<circle clip-path="url(#clip7502)" cx="585.554" cy="1265.87" r="14" fill="#ff0000" fill-rule="evenodd" fill-opacity="1" stroke="#000000" stroke-opacity="1" stroke-width="3.2"/>
<circle clip-path="url(#clip7502)" cx="810.673" cy="938.514" r="14" fill="#ff0000" fill-rule="evenodd" fill-opacity="1" stroke="#000000" stroke-opacity="1" stroke-width="3.2"/>
<circle clip-path="url(#clip7502)" cx="842.161" cy="890.598" r="14" fill="#ff0000" fill-rule="evenodd" fill-opacity="1" stroke="#000000" stroke-opacity="1" stroke-width="3.2"/>
<circle clip-path="url(#clip7502)" cx="903.122" cy="1313.29" r="14" fill="#ff0000" fill-rule="evenodd" fill-opacity="1" stroke="#000000" stroke-opacity="1" stroke-width="3.2"/>
<circle clip-path="url(#clip7502)" cx="413.634" cy="930.762" r="14" fill="#ff0000" fill-rule="evenodd" fill-opacity="1" stroke="#000000" stroke-opacity="1" stroke-width="3.2"/>
<circle clip-path="url(#clip7502)" cx="1517.8" cy="1185.18" r="14" fill="#0000ff" fill-rule="evenodd" fill-opacity="1" stroke="#000000" stroke-opacity="1" stroke-width="3.2"/>
<circle clip-path="url(#clip7502)" cx="1317.3" cy="1021.34" r="14" fill="#0000ff" fill-rule="evenodd" fill-opacity="1" stroke="#000000" stroke-opacity="1" stroke-width="3.2"/>
<circle clip-path="url(#clip7502)" cx="1638.62" cy="973.889" r="14" fill="#0000ff" fill-rule="evenodd" fill-opacity="1" stroke="#000000" stroke-opacity="1" stroke-width="3.2"/>
<circle clip-path="url(#clip7502)" cx="1397.49" cy="1074.47" r="14" fill="#0000ff" fill-rule="evenodd" fill-opacity="1" stroke="#000000" stroke-opacity="1" stroke-width="3.2"/>
<circle clip-path="url(#clip7502)" cx="1563.94" cy="1092.72" r="14" fill="#0000ff" fill-rule="evenodd" fill-opacity="1" stroke="#000000" stroke-opacity="1" stroke-width="3.2"/>
<circle clip-path="url(#clip7502)" cx="1287.51" cy="1021.38" r="14" fill="#0000ff" fill-rule="evenodd" fill-opacity="1" stroke="#000000" stroke-opacity="1" stroke-width="3.2"/>
<circle clip-path="url(#clip7502)" cx="1581.94" cy="1235.34" r="14" fill="#0000ff" fill-rule="evenodd" fill-opacity="1" stroke="#000000" stroke-opacity="1" stroke-width="3.2"/>
<circle clip-path="url(#clip7502)" cx="1404.63" cy="899.854" r="14" fill="#0000ff" fill-rule="evenodd" fill-opacity="1" stroke="#000000" stroke-opacity="1" stroke-width="3.2"/>
<circle clip-path="url(#clip7502)" cx="1298.48" cy="848.394" r="14" fill="#0000ff" fill-rule="evenodd" fill-opacity="1" stroke="#000000" stroke-opacity="1" stroke-width="3.2"/>
<circle clip-path="url(#clip7502)" cx="1793.18" cy="928.402" r="14" fill="#0000ff" fill-rule="evenodd" fill-opacity="1" stroke="#000000" stroke-opacity="1" stroke-width="3.2"/>
<circle clip-path="url(#clip7502)" cx="1655.94" cy="1094.99" r="14" fill="#0000ff" fill-rule="evenodd" fill-opacity="1" stroke="#000000" stroke-opacity="1" stroke-width="3.2"/>
<circle clip-path="url(#clip7502)" cx="1454.05" cy="1284.99" r="14" fill="#0000ff" fill-rule="evenodd" fill-opacity="1" stroke="#000000" stroke-opacity="1" stroke-width="3.2"/>
<circle clip-path="url(#clip7502)" cx="1300.45" cy="962.681" r="14" fill="#0000ff" fill-rule="evenodd" fill-opacity="1" stroke="#000000" stroke-opacity="1" stroke-width="3.2"/>
<circle clip-path="url(#clip7502)" cx="1758.1" cy="832.888" r="14" fill="#0000ff" fill-rule="evenodd" fill-opacity="1" stroke="#000000" stroke-opacity="1" stroke-width="3.2"/>
<circle clip-path="url(#clip7502)" cx="1795.7" cy="1115.91" r="14" fill="#0000ff" fill-rule="evenodd" fill-opacity="1" stroke="#000000" stroke-opacity="1" stroke-width="3.2"/>
<circle clip-path="url(#clip7502)" cx="1283.29" cy="1095.07" r="14" fill="#0000ff" fill-rule="evenodd" fill-opacity="1" stroke="#000000" stroke-opacity="1" stroke-width="3.2"/>
<circle clip-path="url(#clip7502)" cx="1487.32" cy="900.946" r="14" fill="#0000ff" fill-rule="evenodd" fill-opacity="1" stroke="#000000" stroke-opacity="1" stroke-width="3.2"/>
<circle clip-path="url(#clip7502)" cx="1449.08" cy="1048.85" r="14" fill="#0000ff" fill-rule="evenodd" fill-opacity="1" stroke="#000000" stroke-opacity="1" stroke-width="3.2"/>
<circle clip-path="url(#clip7502)" cx="1734.22" cy="922.09" r="14" fill="#0000ff" fill-rule="evenodd" fill-opacity="1" stroke="#000000" stroke-opacity="1" stroke-width="3.2"/>
<circle clip-path="url(#clip7502)" cx="1404.69" cy="1326.67" r="14" fill="#0000ff" fill-rule="evenodd" fill-opacity="1" stroke="#000000" stroke-opacity="1" stroke-width="3.2"/>
<circle clip-path="url(#clip7502)" cx="630.375" cy="284.546" r="14" fill="#0000ff" fill-rule="evenodd" fill-opacity="1" stroke="#000000" stroke-opacity="1" stroke-width="3.2"/>
<circle clip-path="url(#clip7502)" cx="479.217" cy="487.412" r="14" fill="#0000ff" fill-rule="evenodd" fill-opacity="1" stroke="#000000" stroke-opacity="1" stroke-width="3.2"/>
<circle clip-path="url(#clip7502)" cx="593.867" cy="359.193" r="14" fill="#0000ff" fill-rule="evenodd" fill-opacity="1" stroke="#000000" stroke-opacity="1" stroke-width="3.2"/>
<circle clip-path="url(#clip7502)" cx="521.298" cy="521.075" r="14" fill="#0000ff" fill-rule="evenodd" fill-opacity="1" stroke="#000000" stroke-opacity="1" stroke-width="3.2"/>
<circle clip-path="url(#clip7502)" cx="992.052" cy="560.509" r="14" fill="#0000ff" fill-rule="evenodd" fill-opacity="1" stroke="#000000" stroke-opacity="1" stroke-width="3.2"/>
<circle clip-path="url(#clip7502)" cx="434.751" cy="355.965" r="14" fill="#0000ff" fill-rule="evenodd" fill-opacity="1" stroke="#000000" stroke-opacity="1" stroke-width="3.2"/>
<circle clip-path="url(#clip7502)" cx="408.138" cy="541.406" r="14" fill="#0000ff" fill-rule="evenodd" fill-opacity="1" stroke="#000000" stroke-opacity="1" stroke-width="3.2"/>
<circle clip-path="url(#clip7502)" cx="774.094" cy="499.254" r="14" fill="#0000ff" fill-rule="evenodd" fill-opacity="1" stroke="#000000" stroke-opacity="1" stroke-width="3.2"/>
<circle clip-path="url(#clip7502)" cx="797.496" cy="403.191" r="14" fill="#0000ff" fill-rule="evenodd" fill-opacity="1" stroke="#000000" stroke-opacity="1" stroke-width="3.2"/>
<circle clip-path="url(#clip7502)" cx="595.852" cy="688.136" r="14" fill="#0000ff" fill-rule="evenodd" fill-opacity="1" stroke="#000000" stroke-opacity="1" stroke-width="3.2"/>
<circle clip-path="url(#clip7502)" cx="730.459" cy="244.193" r="14" fill="#0000ff" fill-rule="evenodd" fill-opacity="1" stroke="#000000" stroke-opacity="1" stroke-width="3.2"/>
<circle clip-path="url(#clip7502)" cx="668.468" cy="521.042" r="14" fill="#0000ff" fill-rule="evenodd" fill-opacity="1" stroke="#000000" stroke-opacity="1" stroke-width="3.2"/>
<circle clip-path="url(#clip7502)" cx="488.393" cy="653.155" r="14" fill="#0000ff" fill-rule="evenodd" fill-opacity="1" stroke="#000000" stroke-opacity="1" stroke-width="3.2"/>
<circle clip-path="url(#clip7502)" cx="830.425" cy="369.282" r="14" fill="#0000ff" fill-rule="evenodd" fill-opacity="1" stroke="#000000" stroke-opacity="1" stroke-width="3.2"/>
<circle clip-path="url(#clip7502)" cx="1070.49" cy="639.174" r="14" fill="#0000ff" fill-rule="evenodd" fill-opacity="1" stroke="#000000" stroke-opacity="1" stroke-width="3.2"/>
<circle clip-path="url(#clip7502)" cx="726.818" cy="669.309" r="14" fill="#0000ff" fill-rule="evenodd" fill-opacity="1" stroke="#000000" stroke-opacity="1" stroke-width="3.2"/>
<circle clip-path="url(#clip7502)" cx="835.354" cy="471.337" r="14" fill="#0000ff" fill-rule="evenodd" fill-opacity="1" stroke="#000000" stroke-opacity="1" stroke-width="3.2"/>
<circle clip-path="url(#clip7502)" cx="958.722" cy="204.29" r="14" fill="#0000ff" fill-rule="evenodd" fill-opacity="1" stroke="#000000" stroke-opacity="1" stroke-width="3.2"/>
<circle clip-path="url(#clip7502)" cx="672.357" cy="529.45" r="14" fill="#0000ff" fill-rule="evenodd" fill-opacity="1" stroke="#000000" stroke-opacity="1" stroke-width="3.2"/>
<circle clip-path="url(#clip7502)" cx="513.272" cy="626.609" r="14" fill="#0000ff" fill-rule="evenodd" fill-opacity="1" stroke="#000000" stroke-opacity="1" stroke-width="3.2"/>
<polyline clip-path="url(#clip7502)" style="stroke:#f2e763; stroke-width:4; stroke-opacity:1; fill:none" points="
  604.77,1446.71 616.123,1438.11 658.297,1390.1 692.017,1361.44 714.269,1333.49 759.131,1276.87 767.911,1270.27 800.317,1220.26 843.805,1184.61 862.561,1163.65 
  896.903,1107.04 919.699,1089.22 944.224,1050.42 995.594,1005.02 998.024,993.811 1003.07,937.198 1005.8,880.585 1000.81,823.972 995.594,818.645 919.699,820.73 
  894.102,823.972 843.805,835.958 767.911,848.353 692.017,853.948 616.123,860.227 540.229,867.897 464.334,878.525 456.021,880.585 388.44,900.642 312.546,908.301 
  236.652,912.725 
  "/>
<polyline clip-path="url(#clip7502)" style="stroke:#f8c933; stroke-width:4; stroke-opacity:1; fill:none" points="
  236.652,798.823 312.546,793.579 388.44,790.961 464.334,789.772 540.229,783.862 616.123,769.752 634.89,767.359 692.017,766.128 767.911,763.787 843.805,764.432 
  919.699,764.672 995.594,765.547 1012.2,767.359 1071.49,821.454 1071.93,823.972 1071.49,840.878 1064.04,880.585 1045.67,937.198 1033.34,993.811 1021.98,1050.42 
  1014.27,1107.04 1010.42,1163.65 1004.97,1220.26 998.124,1276.87 995.594,1310.12 987.435,1333.49 980.778,1390.1 965.232,1446.71 
  "/>
<polyline clip-path="url(#clip7502)" style="stroke:#e25832; stroke-width:4; stroke-opacity:1; fill:none" points="
  1068.88,1446.71 1071.49,1426.69 1075.36,1390.1 1078.42,1333.49 1081.73,1276.87 1086.16,1220.26 1089.15,1163.65 1094.52,1107.04 1098.53,1050.42 1099.07,993.811 
  1100.26,937.198 1103.01,880.585 1104.21,823.972 1099.51,767.359 1071.49,751.881 995.594,743.43 919.699,740.109 843.805,734.334 767.911,724.535 692.017,719.043 
  616.123,714.595 540.229,713.023 468.247,710.747 464.334,710.673 388.44,708.457 312.546,707.346 236.652,706.163 
  "/>
<polyline clip-path="url(#clip7502)" style="stroke:#88216a; stroke-width:4; stroke-opacity:1; fill:none" points="
  236.652,658.227 312.546,664.007 388.44,669.479 464.334,675.493 540.229,679.561 616.123,685.068 692.017,688.802 767.911,692.207 843.805,702.749 883.683,710.747 
  919.699,715.545 995.594,721.313 1071.49,730.006 1139.12,767.359 1136.5,823.972 1135.57,880.585 1134.17,937.198 1136.87,993.811 1139.39,1050.42 1140.35,1107.04 
  1140.94,1163.65 1140.5,1220.26 1139.97,1276.87 1140.66,1333.49 1141.49,1390.1 1141.46,1446.71 
  "/>
<polyline clip-path="url(#clip7502)" style="stroke:#a12b61; stroke-width:4; stroke-opacity:1; fill:none" points="
  1123.39,1446.71 1124.96,1390.1 1125.1,1333.49 1125.41,1276.87 1126.92,1220.26 1127.99,1163.65 1128.9,1107.04 1129.18,1050.42 1127.42,993.811 1125.69,937.198 
  1127.43,880.585 1128.43,823.972 1129.22,767.359 1071.49,735.475 995.594,726.842 919.699,721.686 843.805,711.761 837.89,710.747 767.911,699.352 692.017,695.461 
  616.123,691.988 540.229,687.672 464.334,684.288 388.44,679.223 312.546,674.842 236.652,670.211 
  "/>
<polyline clip-path="url(#clip7502)" style="stroke:#ba3655; stroke-width:4; stroke-opacity:1; fill:none" points="
  236.652,682.195 312.546,685.677 388.44,688.968 464.334,693.083 540.229,695.782 616.123,698.908 692.017,702.121 767.911,706.497 794.012,710.747 843.805,719.285 
  919.699,727.827 995.594,732.371 1071.49,740.943 1119.31,767.359 1120.36,823.972 1119.29,880.585 1117.21,937.198 1117.97,993.811 1118.96,1050.42 1117.44,1107.04 
  1115.05,1163.65 1113.33,1220.26 1110.85,1276.87 1109.54,1333.49 1108.42,1390.1 1105.31,1446.71 
  "/>
<polyline clip-path="url(#clip7502)" style="stroke:#d04544; stroke-width:4; stroke-opacity:1; fill:none" points="
  1087.24,1446.71 1091.89,1390.1 1093.98,1333.49 1096.29,1276.87 1099.75,1220.26 1102.1,1163.65 1105.98,1107.04 1108.74,1050.42 1108.52,993.811 1108.74,937.198 
  1111.15,880.585 1112.28,823.972 1109.41,767.359 1071.49,746.412 995.594,737.901 919.699,733.968 843.805,726.81 767.911,714.722 724.006,710.747 692.017,708.781 
  616.123,705.828 540.229,703.892 464.334,701.878 388.44,698.712 312.546,696.511 236.652,694.179 
  "/>
<polyline clip-path="url(#clip7502)" style="stroke:#3b0963; stroke-width:4; stroke-opacity:1; fill:none" points="
  236.652,607.76 312.546,616.413 388.44,629.742 464.334,642.911 525.703,654.134 540.229,655.231 616.123,664.308 692.017,668.823 767.911,670.773 843.805,675.017 
  919.699,682.613 995.594,691.512 1046.91,710.747 1071.49,713.599 1081.82,710.747 1086.33,654.134 1084.86,597.521 1085.55,540.908 1086.67,484.295 1086.23,427.682 
  1085.37,371.07 1081.88,314.457 1074.63,257.844 1071.49,230.191 1063.27,201.231 1061.22,144.618 1058.24,88.0053 
  "/>
<polyline clip-path="url(#clip7502)" style="stroke:#1f0b46; stroke-width:4; stroke-opacity:1; fill:none" points="
  1024.56,88.0053 1026.05,144.618 1027.24,201.231 1036.27,257.844 1059.92,314.457 1071.49,336.327 1074.4,371.07 1076.08,427.682 1077.21,484.295 1077.09,540.908 
  1077.14,597.521 1078.2,654.134 1071.49,689.989 995.594,673.851 919.699,669.932 843.805,665.773 767.911,663.628 692.017,662.163 616.123,657.388 589.388,654.134 
  540.229,631.63 464.334,623.274 388.44,612.628 312.546,598.354 304.923,597.521 236.652,583.45 
  "/>
<polyline clip-path="url(#clip7502)" style="stroke:#0a0622; stroke-width:4; stroke-opacity:1; fill:none" points="
  236.652,549.382 312.546,552.688 388.44,579.42 409.195,597.521 464.334,603.637 540.229,605.607 616.123,615.678 670.79,654.134 692.017,655.504 767.911,656.483 
  843.805,656.529 919.699,657.251 995.594,656.19 1026.06,654.134 1008.22,597.521 1002.15,540.908 995.594,503.71 968.443,484.295 919.699,432.531 911.999,427.682 
  850.144,371.07 843.805,363.406 787.195,314.457 767.911,292.948 725.19,257.844 692.017,225.867 662.294,201.231 616.123,161.695 595.987,144.618 540.229,99.6395 
  526.747,88.0053 
  "/>
<polyline clip-path="url(#clip7502)" style="stroke:#550f6d; stroke-width:4; stroke-opacity:1; fill:none" points="
  1082.35,88.0053 1083.76,144.618 1084.34,201.231 1089.04,257.844 1094.35,314.457 1096.34,371.07 1096.38,427.682 1096.14,484.295 1094.01,540.908 1092.59,597.521 
  1094.45,654.134 1101.63,710.747 1071.49,719.068 999.792,710.747 995.594,709.173 919.699,695.294 843.805,684.261 767.911,677.917 692.017,675.482 616.123,671.228 
  540.229,663.341 464.334,657.903 426.242,654.134 388.44,646.856 312.546,634.473 236.652,625.204 
  "/>
<polyline clip-path="url(#clip7502)" style="stroke:#6e186e; stroke-width:4; stroke-opacity:1; fill:none" points="
  236.652,642.648 312.546,652.532 322.692,654.134 388.44,659.734 464.334,666.698 540.229,671.451 616.123,678.148 692.017,682.142 767.911,685.062 843.805,693.505 
  919.699,707.975 934.386,710.747 995.594,715.783 1071.49,724.537 1121.44,710.747 1102.57,654.134 1100.32,597.521 1102.46,540.908 1105.6,484.295 1106.53,427.682 
  1107.32,371.07 1106.82,314.457 1103.45,257.844 1100.98,201.231 1101.1,144.618 1100.27,88.0053 
  "/>
<polyline clip-path="url(#clip7502)" style="stroke:#88216a; stroke-width:4; stroke-opacity:1; fill:none" points="
  1118.18,88.0053 1118.44,144.618 1117.63,201.231 1117.86,257.844 1119.29,314.457 1118.29,371.07 1116.68,427.682 1115.06,484.295 1110.92,540.908 1108.04,597.521 
  1110.7,654.134 1141.26,710.747 1147.38,726.048 1223.28,738.631 1299.17,744.9 1375.06,752.883 1450.96,759.862 1526.85,763.121 1586.98,767.359 1602.75,771.029 
  1678.64,780.957 1754.54,795.496 1830.43,806.734 1906.32,811.792 1982.22,818.932 2042.37,823.972 2058.11,826.254 
  "/>
<polyline clip-path="url(#clip7502)" style="stroke:#6e186e; stroke-width:4; stroke-opacity:1; fill:none" points="
  2058.11,869.248 1982.22,851.757 1906.32,840.899 1830.43,833.968 1768.57,823.972 1754.54,822.018 1678.64,803.542 1602.75,792.871 1526.85,775.907 1479.16,767.359 
  1450.96,766.045 1375.06,758.576 1299.17,750.142 1223.28,744.095 1150.22,767.359 1147.38,785.571 1144.57,823.972 1143.71,880.585 1142.65,937.198 1146.31,993.811 
  1147.38,1013.14 1151.1,1050.42 1153.78,1107.04 1155.95,1163.65 1156.01,1220.26 1156.31,1276.87 1157.93,1333.49 1159.51,1390.1 1160.7,1446.71 
  "/>
<polyline clip-path="url(#clip7502)" style="stroke:#1f0b46; stroke-width:4; stroke-opacity:1; fill:none" points="
  1220.14,1446.71 1216.08,1390.1 1213.63,1333.49 1210.81,1276.87 1208.47,1220.26 1207.13,1163.65 1203.44,1107.04 1202.27,1050.42 1199.28,993.811 1196.27,937.198 
  1196.96,880.585 1197.39,823.972 1201.69,767.359 1223.28,760.485 1299.17,765.866 1311.58,767.359 1375.06,797.545 1440.78,823.972 1450.96,831.908 1526.85,859.083 
  1559.92,880.585 1602.75,905.57 1671.01,937.198 1678.64,942.032 1754.54,974.837 1792.22,993.811 1830.43,1012 1902.54,1050.42 1906.32,1052.75 1982.22,1085.66 
  2019.5,1107.04 2058.11,1124.74 
  "/>
<polyline clip-path="url(#clip7502)" style="stroke:#0a0622; stroke-width:4; stroke-opacity:1; fill:none" points="
  2058.11,1199 2010.78,1163.65 1982.22,1152.24 1918.16,1107.04 1906.32,1100.92 1830.43,1068.14 1806.72,1050.42 1754.54,1037.04 1696.58,993.811 1678.64,986.038 
  1602.75,941.92 1596.64,937.198 1526.85,918.618 1477.2,880.585 1450.96,872.081 1389.26,823.972 1375.06,818.265 1299.17,805.215 1243.41,767.359 1223.28,765.949 
  1218.85,767.359 1216.24,823.972 1216.41,880.585 1216.29,937.198 1217.26,993.811 1219.33,1050.42 1220,1107.04 1223.28,1151.55 1233.51,1163.65 1246.58,1220.26 
  1259.43,1276.87 1267.91,1333.49 1288.7,1390.1 1297.09,1446.71 
  "/>
<polyline clip-path="url(#clip7502)" style="stroke:#3b0963; stroke-width:4; stroke-opacity:1; fill:none" points="
  1200.33,1446.71 1197.23,1390.1 1195.06,1333.49 1192.64,1276.87 1190.98,1220.26 1190.07,1163.65 1186.89,1107.04 1185.21,1050.42 1181.3,993.811 1176.25,937.198 
  1177.51,880.585 1178.53,823.972 1184.53,767.359 1223.28,755.022 1299.17,760.625 1355.16,767.359 1375.06,776.826 1450.96,806.431 1526.85,823.468 1529.55,823.972 
  1602.75,864.758 1661.48,880.585 1678.64,884.455 1754.54,920.181 1811.76,937.198 1830.43,941.668 1906.32,977.459 1957.32,993.811 1982.22,998.534 2058.11,1038.64 
  
  "/>
<polyline clip-path="url(#clip7502)" style="stroke:#550f6d; stroke-width:4; stroke-opacity:1; fill:none" points="
  2058.11,914.457 1982.22,893.682 1948.74,880.585 1906.32,873.455 1830.43,864.746 1754.54,857.143 1678.64,829.215 1664.7,823.972 1602.75,814.713 1526.85,799.688 
  1450.96,784.572 1406.04,767.359 1375.06,764.268 1299.17,755.383 1223.28,749.558 1167.37,767.359 1159.67,823.972 1158.06,880.585 1156.22,937.198 1163.33,993.811 
  1168.16,1050.42 1170.33,1107.04 1173.01,1163.65 1173.5,1220.26 1174.47,1276.87 1176.5,1333.49 1178.37,1390.1 1180.51,1446.71 
  "/>
<polyline clip-path="url(#clip7502)" style="stroke:#f0711e; stroke-width:4; stroke-opacity:1; fill:none" points="
  1048.54,1446.71 1055.38,1390.1 1059.38,1333.49 1064.89,1276.87 1071.49,1232.3 1072.58,1220.26 1076.21,1163.65 1083.07,1107.04 1088.31,1050.42 1089.63,993.811 
  1091.78,937.198 1094.87,880.585 1096.14,823.972 1089.61,767.359 1071.49,757.35 995.594,748.959 919.699,746.25 843.805,741.859 767.911,734.348 692.017,730.814 
  616.123,727.901 540.229,727.73 464.334,726.633 388.44,723.97 312.546,723.278 236.652,723.357 
  "/>
<polyline clip-path="url(#clip7502)" style="stroke:#f88c0a; stroke-width:4; stroke-opacity:1; fill:none" points="
  236.652,743.776 312.546,741.542 388.44,741.256 464.334,742.654 540.229,742.437 616.123,741.206 692.017,742.586 767.911,744.161 843.805,749.383 919.699,752.391 
  995.594,754.488 1071.49,762.819 1079.71,767.359 1088.07,823.972 1086.73,880.585 1083.3,937.198 1080.18,993.811 1078.1,1050.42 1071.61,1107.04 1071.49,1107.96 
  1056.76,1163.65 1050.53,1220.26 1042.63,1276.87 1037.53,1333.49 1034.33,1390.1 1028.21,1446.71 
  "/>
<polyline clip-path="url(#clip7502)" style="stroke:#fbaa0f; stroke-width:4; stroke-opacity:1; fill:none" points="
  1007.87,1446.71 1013.29,1390.1 1015.69,1333.49 1020.38,1276.87 1027.75,1220.26 1033.59,1163.65 1043.03,1107.04 1058.57,1050.42 1068.65,993.811 1071.49,984.223 
  1074.83,937.198 1078.59,880.585 1080,823.972 1071.49,775.211 1062.88,767.359 995.594,760.018 919.699,758.532 843.805,756.907 767.911,753.974 692.017,754.357 
  616.123,754.511 540.229,757.145 464.334,758.675 388.44,758.542 312.546,759.806 236.652,764.195 
  "/>
<polyline clip-path="url(#clip7502)" style="stroke:#ba3655; stroke-width:4; stroke-opacity:1; fill:none" points="
  1152.63,88.0053 1151.78,144.618 1150.01,201.231 1147.38,247.319 1146.68,257.844 1144.24,314.457 1140.23,371.07 1136.98,427.682 1133.99,484.295 1127.83,540.908 
  1123.5,597.521 1126.95,654.134 1147.38,687.989 1174.15,710.747 1223.28,727.705 1299.17,734.417 1375.06,741.498 1450.96,747.497 1526.85,749.888 1602.75,754.242 
  1678.64,756.343 1754.54,759.214 1830.43,762.981 1906.32,764.876 1964.68,767.359 1982.22,769.218 2058.11,776.712 
  "/>
<polyline clip-path="url(#clip7502)" style="stroke:#a12b61; stroke-width:4; stroke-opacity:1; fill:none" points="
  2058.11,800.987 1982.22,794.075 1906.32,786.419 1830.43,781.206 1754.54,768.973 1744.47,767.359 1678.64,764.224 1602.75,761.402 1526.85,756.505 1450.96,753.679 
  1375.06,747.191 1299.17,739.659 1223.28,733.168 1158.32,710.747 1147.38,701.449 1118.82,654.134 1115.77,597.521 1119.37,540.908 1124.52,484.295 1126.83,427.682 
  1129.26,371.07 1131.77,314.457 1132.27,257.844 1134.27,201.231 1135.77,144.618 1136.1,88.0053 
  "/>
<polyline clip-path="url(#clip7502)" style="stroke:#d04544; stroke-width:4; stroke-opacity:1; fill:none" points="
  1166.79,88.0053 1165.07,144.618 1162.38,201.231 1158.27,257.844 1155.91,314.457 1151.6,371.07 1147.38,423.983 1147.13,427.682 1143.45,484.295 1136.29,540.908 
  1131.22,597.521 1135.07,654.134 1147.38,674.53 1189.97,710.747 1223.28,722.241 1299.17,729.176 1375.06,735.806 1450.96,741.314 1526.85,743.272 1602.75,747.082 
  1678.64,748.462 1754.54,750.541 1830.43,753.413 1906.32,754.897 1982.22,757.562 2058.11,760.183 
  "/>
<polyline clip-path="url(#clip7502)" style="stroke:#e25832; stroke-width:4; stroke-opacity:1; fill:none" points="
  2058.11,748.509 1982.22,746.973 1906.32,744.917 1830.43,743.845 1754.54,741.868 1678.64,740.581 1602.75,739.922 1526.85,736.655 1450.96,735.131 1375.06,730.114 
  1299.17,723.935 1223.28,716.778 1205.8,710.747 1147.38,661.071 1143.19,654.134 1138.95,597.521 1144.74,540.908 1147.38,521.205 1155.43,484.295 1159.93,427.682 
  1163.7,371.07 1167.31,314.457 1169.71,257.844 1174.75,201.231 1178.37,144.618 1180.95,88.0053 
  "/>
<polyline clip-path="url(#clip7502)" style="stroke:#f0711e; stroke-width:4; stroke-opacity:1; fill:none" points="
  1195.12,88.0053 1191.67,144.618 1187.13,201.231 1181.15,257.844 1178.71,314.457 1175.81,371.07 1172.79,427.682 1169.21,484.295 1158.69,540.908 1147.38,590.869 
  1146.67,597.521 1147.38,606.52 1156.59,654.134 1221.63,710.747 1223.28,711.314 1299.17,718.693 1375.06,724.421 1450.96,728.948 1526.85,730.039 1602.75,732.761 
  1678.64,732.7 1754.54,733.195 1830.43,734.277 1906.32,734.937 1982.22,736.384 2058.11,736.835 
  "/>
<polyline clip-path="url(#clip7502)" style="stroke:#f88c0a; stroke-width:4; stroke-opacity:1; fill:none" points="
  2058.11,725.161 1982.22,725.795 1906.32,724.958 1830.43,724.708 1754.54,724.522 1678.64,724.819 1602.75,725.601 1526.85,723.422 1450.96,722.765 1375.06,718.729 
  1299.17,713.452 1271.43,710.747 1223.28,695.849 1175.59,654.134 1165.29,597.521 1175.14,540.908 1182.98,484.295 1185.66,427.682 1187.91,371.07 1190.11,314.457 
  1192.6,257.844 1199.5,201.231 1204.97,144.618 1209.28,88.0053 
  "/>
<polyline clip-path="url(#clip7502)" style="stroke:#fbaa0f; stroke-width:4; stroke-opacity:1; fill:none" points="
  1223.73,88.0053 1223.28,89.7069 1218.26,144.618 1211.87,201.231 1204.04,257.844 1201.51,314.457 1200.01,371.07 1198.52,427.682 1196.75,484.295 1191.58,540.908 
  1185,597.521 1194.6,654.134 1223.28,679.224 1299.17,700.015 1340.61,710.747 1375.06,713.037 1450.96,716.582 1526.85,716.805 1602.75,718.441 1678.64,716.939 
  1754.54,715.849 1830.43,715.14 1906.32,714.978 1982.22,715.206 2058.11,713.487 
  "/>
<polyline clip-path="url(#clip7502)" style="stroke:#f8c933; stroke-width:4; stroke-opacity:1; fill:none" points="
  2058.11,687.215 1982.22,690.941 1906.32,691.003 1830.43,691.804 1754.54,695.075 1678.64,701.34 1622.34,710.747 1602.75,711.281 1567.12,710.747 1526.85,706.632 
  1450.96,707.949 1375.06,690.456 1299.17,677.838 1223.28,662.598 1213.6,654.134 1204.71,597.521 1208.03,540.908 1210.53,484.295 1211.38,427.682 1212.12,371.07 
  1212.91,314.457 1215.48,257.844 1223.28,207.068 1229.19,201.231 1253.78,144.618 1262.89,88.0053 
  "/>
<polyline clip-path="url(#clip7502)" style="stroke:#f2e763; stroke-width:4; stroke-opacity:1; fill:none" points="
  1495.48,88.0053 1450.96,121.535 1441.75,144.618 1441.23,201.231 1429.82,257.844 1375.06,300.883 1365.88,314.457 1363.89,371.07 1327.79,427.682 1299.17,472.856 
  1288.82,484.295 1260.16,540.908 1244.47,597.521 1289.83,654.134 1299.17,655.661 1375.06,656.509 1450.96,658.122 1526.85,657.816 1602.75,658.392 1678.64,657.44 
  1754.54,657.004 1830.43,656.778 1906.32,656.725 1982.22,656.724 2058.11,656.465 
  "/>
<defs>
  <clipPath id="clip7503">
    <rect x="2160" y="47" width="73" height="1441"/>
  </clipPath>
</defs>
<polyline clip-path="url(#clip7503)" style="stroke:#0b0724; stroke-width:4; stroke-opacity:1; fill:none" points="
  2160.76,1397.46 2232.76,1397.46 
  "/>
<polyline clip-path="url(#clip7503)" style="stroke:#200b49; stroke-width:4; stroke-opacity:1; fill:none" points="
  2160.76,1307.45 2232.76,1307.45 
  "/>
<polyline clip-path="url(#clip7503)" style="stroke:#3c0964; stroke-width:4; stroke-opacity:1; fill:none" points="
  2160.76,1217.43 2232.76,1217.43 
  "/>
<polyline clip-path="url(#clip7503)" style="stroke:#57106d; stroke-width:4; stroke-opacity:1; fill:none" points="
  2160.76,1127.42 2232.76,1127.42 
  "/>
<polyline clip-path="url(#clip7503)" style="stroke:#70196e; stroke-width:4; stroke-opacity:1; fill:none" points="
  2160.76,1037.4 2232.76,1037.4 
  "/>
<polyline clip-path="url(#clip7503)" style="stroke:#8a2269; stroke-width:4; stroke-opacity:1; fill:none" points="
  2160.76,947.388 2232.76,947.388 
  "/>
<polyline clip-path="url(#clip7503)" style="stroke:#a32b61; stroke-width:4; stroke-opacity:1; fill:none" points="
  2160.76,857.374 2232.76,857.374 
  "/>
<polyline clip-path="url(#clip7503)" style="stroke:#bb3754; stroke-width:4; stroke-opacity:1; fill:none" points="
  2160.76,767.359 2232.76,767.359 
  "/>
<polyline clip-path="url(#clip7503)" style="stroke:#d04544; stroke-width:4; stroke-opacity:1; fill:none" points="
  2160.76,677.345 2232.76,677.345 
  "/>
<polyline clip-path="url(#clip7503)" style="stroke:#e25832; stroke-width:4; stroke-opacity:1; fill:none" points="
  2160.76,587.331 2232.76,587.331 
  "/>
<polyline clip-path="url(#clip7503)" style="stroke:#f0711e; stroke-width:4; stroke-opacity:1; fill:none" points="
  2160.76,497.316 2232.76,497.316 
  "/>
<polyline clip-path="url(#clip7503)" style="stroke:#f88c0a; stroke-width:4; stroke-opacity:1; fill:none" points="
  2160.76,407.302 2232.76,407.302 
  "/>
<polyline clip-path="url(#clip7503)" style="stroke:#fbaa0f; stroke-width:4; stroke-opacity:1; fill:none" points="
  2160.76,317.287 2232.76,317.287 
  "/>
<polyline clip-path="url(#clip7503)" style="stroke:#f8c933; stroke-width:4; stroke-opacity:1; fill:none" points="
  2160.76,227.273 2232.76,227.273 
  "/>
<polyline clip-path="url(#clip7503)" style="stroke:#f2e763; stroke-width:4; stroke-opacity:1; fill:none" points="
  2160.76,137.259 2232.76,137.259 
  "/>
<g clip-path="url(#clip7500)">
<text style="fill:#000000; fill-opacity:1; font-family:Arial,Helvetica Neue,Helvetica,sans-serif; font-size:48px; text-anchor:start;" transform="rotate(0, 2268.76, 1501.13)" x="2268.76" y="1501.13">0</text>
</g>
<g clip-path="url(#clip7500)">
<text style="fill:#000000; fill-opacity:1; font-family:Arial,Helvetica Neue,Helvetica,sans-serif; font-size:48px; text-anchor:start;" transform="rotate(0, 2268.76, 1357.1)" x="2268.76" y="1357.1">0.1</text>
</g>
<g clip-path="url(#clip7500)">
<text style="fill:#000000; fill-opacity:1; font-family:Arial,Helvetica Neue,Helvetica,sans-serif; font-size:48px; text-anchor:start;" transform="rotate(0, 2268.76, 1213.08)" x="2268.76" y="1213.08">0.2</text>
</g>
<g clip-path="url(#clip7500)">
<text style="fill:#000000; fill-opacity:1; font-family:Arial,Helvetica Neue,Helvetica,sans-serif; font-size:48px; text-anchor:start;" transform="rotate(0, 2268.76, 1069.06)" x="2268.76" y="1069.06">0.3</text>
</g>
<g clip-path="url(#clip7500)">
<text style="fill:#000000; fill-opacity:1; font-family:Arial,Helvetica Neue,Helvetica,sans-serif; font-size:48px; text-anchor:start;" transform="rotate(0, 2268.76, 925.034)" x="2268.76" y="925.034">0.4</text>
</g>
<g clip-path="url(#clip7500)">
<text style="fill:#000000; fill-opacity:1; font-family:Arial,Helvetica Neue,Helvetica,sans-serif; font-size:48px; text-anchor:start;" transform="rotate(0, 2268.76, 781.011)" x="2268.76" y="781.011">0.5</text>
</g>
<g clip-path="url(#clip7500)">
<text style="fill:#000000; fill-opacity:1; font-family:Arial,Helvetica Neue,Helvetica,sans-serif; font-size:48px; text-anchor:start;" transform="rotate(0, 2268.76, 636.988)" x="2268.76" y="636.988">0.6</text>
</g>
<g clip-path="url(#clip7500)">
<text style="fill:#000000; fill-opacity:1; font-family:Arial,Helvetica Neue,Helvetica,sans-serif; font-size:48px; text-anchor:start;" transform="rotate(0, 2268.76, 492.964)" x="2268.76" y="492.964">0.7</text>
</g>
<g clip-path="url(#clip7500)">
<text style="fill:#000000; fill-opacity:1; font-family:Arial,Helvetica Neue,Helvetica,sans-serif; font-size:48px; text-anchor:start;" transform="rotate(0, 2268.76, 348.941)" x="2268.76" y="348.941">0.8</text>
</g>
<g clip-path="url(#clip7500)">
<text style="fill:#000000; fill-opacity:1; font-family:Arial,Helvetica Neue,Helvetica,sans-serif; font-size:48px; text-anchor:start;" transform="rotate(0, 2268.76, 204.918)" x="2268.76" y="204.918">0.9</text>
</g>
<g clip-path="url(#clip7500)">
<text style="fill:#000000; fill-opacity:1; font-family:Arial,Helvetica Neue,Helvetica,sans-serif; font-size:48px; text-anchor:start;" transform="rotate(0, 2268.76, 60.8953)" x="2268.76" y="60.8953">1.0</text>
</g>
<polyline clip-path="url(#clip7500)" style="stroke:#000000; stroke-width:4; stroke-opacity:1; fill:none" points="
  2232.76,1487.47 2232.76,1487.47 2256.76,1487.47 2232.76,1487.47 2232.76,1343.45 2256.76,1343.45 2232.76,1343.45 2232.76,1199.43 2256.76,1199.43 2232.76,1199.43 
  2232.76,1055.41 2256.76,1055.41 2232.76,1055.41 2232.76,911.382 2256.76,911.382 2232.76,911.382 2232.76,767.359 2256.76,767.359 2232.76,767.359 2232.76,623.336 
  2256.76,623.336 2232.76,623.336 2232.76,479.313 2256.76,479.313 2232.76,479.313 2232.76,335.29 2256.76,335.29 2232.76,335.29 2232.76,191.267 2256.76,191.267 
  2232.76,191.267 2232.76,47.2441 2256.76,47.2441 2232.76,47.2441 
  "/>
<path clip-path="url(#clip7500)" d="
M1749.93 312.204 L2040.76 312.204 L2040.76 130.764 L1749.93 130.764  Z
  " fill="#ffffff" fill-rule="evenodd" fill-opacity="1"/>
<polyline clip-path="url(#clip7500)" style="stroke:#000000; stroke-width:4; stroke-opacity:1; fill:none" points="
  1749.93,312.204 2040.76,312.204 2040.76,130.764 1749.93,130.764 1749.93,312.204 
  "/>
<circle clip-path="url(#clip7500)" cx="1857.93" cy="191.244" r="21" fill="#ff0000" fill-rule="evenodd" fill-opacity="1" stroke="#000000" stroke-opacity="1" stroke-width="3.2"/>
<g clip-path="url(#clip7500)">
<text style="fill:#000000; fill-opacity:1; font-family:Arial,Helvetica Neue,Helvetica,sans-serif; font-size:48px; text-anchor:start;" transform="rotate(0, 1941.93, 208.744)" x="1941.93" y="208.744">y1</text>
</g>
<circle clip-path="url(#clip7500)" cx="1857.93" cy="251.724" r="21" fill="#0000ff" fill-rule="evenodd" fill-opacity="1" stroke="#000000" stroke-opacity="1" stroke-width="3.2"/>
<g clip-path="url(#clip7500)">
<text style="fill:#000000; fill-opacity:1; font-family:Arial,Helvetica Neue,Helvetica,sans-serif; font-size:48px; text-anchor:start;" transform="rotate(0, 1941.93, 269.224)" x="1941.93" y="269.224">y2</text>
</g>
</svg>
