<?xml version="1.0" encoding="utf-8"?>
<svg xmlns="http://www.w3.org/2000/svg" xmlns:xlink="http://www.w3.org/1999/xlink" width="600" height="400" viewBox="0 0 2400 1600">
<defs>
  <clipPath id="clip7900">
    <rect x="0" y="0" width="2400" height="1600"/>
  </clipPath>
</defs>
<path clip-path="url(#clip7900)" d="
M0 1600 L2400 1600 L2400 0 L0 0  Z
  " fill="#ffffff" fill-rule="evenodd" fill-opacity="1"/>
<defs>
  <clipPath id="clip7901">
    <rect x="480" y="0" width="1681" height="1600"/>
  </clipPath>
</defs>
<path clip-path="url(#clip7900)" d="
M182.008 1487.47 L2112.76 1487.47 L2112.76 47.2441 L182.008 47.2441  Z
  " fill="#ffffff" fill-rule="evenodd" fill-opacity="1"/>
<defs>
  <clipPath id="clip7902">
    <rect x="182" y="47" width="1932" height="1441"/>
  </clipPath>
</defs>
<polyline clip-path="url(#clip7902)" style="stroke:#000000; stroke-width:2; stroke-opacity:0.1; fill:none" points="
  388.44,1487.47 388.44,47.2441 
  "/>
<polyline clip-path="url(#clip7902)" style="stroke:#000000; stroke-width:2; stroke-opacity:0.1; fill:none" points="
  767.911,1487.47 767.911,47.2441 
  "/>
<polyline clip-path="url(#clip7902)" style="stroke:#000000; stroke-width:2; stroke-opacity:0.1; fill:none" points="
  1147.38,1487.47 1147.38,47.2441 
  "/>
<polyline clip-path="url(#clip7902)" style="stroke:#000000; stroke-width:2; stroke-opacity:0.1; fill:none" points="
  1526.85,1487.47 1526.85,47.2441 
  "/>
<polyline clip-path="url(#clip7902)" style="stroke:#000000; stroke-width:2; stroke-opacity:0.1; fill:none" points="
  1906.32,1487.47 1906.32,47.2441 
  "/>
<polyline clip-path="url(#clip7902)" style="stroke:#000000; stroke-width:2; stroke-opacity:0.1; fill:none" points="
  182.008,1333.49 2112.76,1333.49 
  "/>
<polyline clip-path="url(#clip7902)" style="stroke:#000000; stroke-width:2; stroke-opacity:0.1; fill:none" points="
  182.008,1050.42 2112.76,1050.42 
  "/>
<polyline clip-path="url(#clip7902)" style="stroke:#000000; stroke-width:2; stroke-opacity:0.1; fill:none" points="
  182.008,767.359 2112.76,767.359 
  "/>
<polyline clip-path="url(#clip7902)" style="stroke:#000000; stroke-width:2; stroke-opacity:0.1; fill:none" points="
  182.008,484.295 2112.76,484.295 
  "/>
<polyline clip-path="url(#clip7902)" style="stroke:#000000; stroke-width:2; stroke-opacity:0.1; fill:none" points="
  182.008,201.231 2112.76,201.231 
  "/>
<polyline clip-path="url(#clip7900)" style="stroke:#000000; stroke-width:4; stroke-opacity:1; fill:none" points="
  182.008,1487.47 2112.76,1487.47 
  "/>
<polyline clip-path="url(#clip7900)" style="stroke:#000000; stroke-width:4; stroke-opacity:1; fill:none" points="
  182.008,1487.47 182.008,47.2441 
  "/>
<polyline clip-path="url(#clip7900)" style="stroke:#000000; stroke-width:4; stroke-opacity:1; fill:none" points="
  388.44,1487.47 388.44,1470.19 
  "/>
<polyline clip-path="url(#clip7900)" style="stroke:#000000; stroke-width:4; stroke-opacity:1; fill:none" points="
  767.911,1487.47 767.911,1470.19 
  "/>
<polyline clip-path="url(#clip7900)" style="stroke:#000000; stroke-width:4; stroke-opacity:1; fill:none" points="
  1147.38,1487.47 1147.38,1470.19 
  "/>
<polyline clip-path="url(#clip7900)" style="stroke:#000000; stroke-width:4; stroke-opacity:1; fill:none" points="
  1526.85,1487.47 1526.85,1470.19 
  "/>
<polyline clip-path="url(#clip7900)" style="stroke:#000000; stroke-width:4; stroke-opacity:1; fill:none" points="
  1906.32,1487.47 1906.32,1470.19 
  "/>
<polyline clip-path="url(#clip7900)" style="stroke:#000000; stroke-width:4; stroke-opacity:1; fill:none" points="
  182.008,1333.49 205.177,1333.49 
  "/>
<polyline clip-path="url(#clip7900)" style="stroke:#000000; stroke-width:4; stroke-opacity:1; fill:none" points="
  182.008,1050.42 205.177,1050.42 
  "/>
<polyline clip-path="url(#clip7900)" style="stroke:#000000; stroke-width:4; stroke-opacity:1; fill:none" points="
  182.008,767.359 205.177,767.359 
  "/>
<polyline clip-path="url(#clip7900)" style="stroke:#000000; stroke-width:4; stroke-opacity:1; fill:none" points="
  182.008,484.295 205.177,484.295 
  "/>
<polyline clip-path="url(#clip7900)" style="stroke:#000000; stroke-width:4; stroke-opacity:1; fill:none" points="
  182.008,201.231 205.177,201.231 
  "/>
<g clip-path="url(#clip7900)">
<text style="fill:#000000; fill-opacity:1; font-family:Arial,Helvetica Neue,Helvetica,sans-serif; font-size:48px; text-anchor:middle;" transform="rotate(0, 388.44, 1541.47)" x="388.44" y="1541.47">-5.0</text>
</g>
<g clip-path="url(#clip7900)">
<text style="fill:#000000; fill-opacity:1; font-family:Arial,Helvetica Neue,Helvetica,sans-serif; font-size:48px; text-anchor:middle;" transform="rotate(0, 767.911, 1541.47)" x="767.911" y="1541.47">-2.5</text>
</g>
<g clip-path="url(#clip7900)">
<text style="fill:#000000; fill-opacity:1; font-family:Arial,Helvetica Neue,Helvetica,sans-serif; font-size:48px; text-anchor:middle;" transform="rotate(0, 1147.38, 1541.47)" x="1147.38" y="1541.47">0.0</text>
</g>
<g clip-path="url(#clip7900)">
<text style="fill:#000000; fill-opacity:1; font-family:Arial,Helvetica Neue,Helvetica,sans-serif; font-size:48px; text-anchor:middle;" transform="rotate(0, 1526.85, 1541.47)" x="1526.85" y="1541.47">2.5</text>
</g>
<g clip-path="url(#clip7900)">
<text style="fill:#000000; fill-opacity:1; font-family:Arial,Helvetica Neue,Helvetica,sans-serif; font-size:48px; text-anchor:middle;" transform="rotate(0, 1906.32, 1541.47)" x="1906.32" y="1541.47">5.0</text>
</g>
<g clip-path="url(#clip7900)">
<text style="fill:#000000; fill-opacity:1; font-family:Arial,Helvetica Neue,Helvetica,sans-serif; font-size:48px; text-anchor:end;" transform="rotate(0, 158.008, 1350.99)" x="158.008" y="1350.99">-5.0</text>
</g>
<g clip-path="url(#clip7900)">
<text style="fill:#000000; fill-opacity:1; font-family:Arial,Helvetica Neue,Helvetica,sans-serif; font-size:48px; text-anchor:end;" transform="rotate(0, 158.008, 1067.92)" x="158.008" y="1067.92">-2.5</text>
</g>
<g clip-path="url(#clip7900)">
<text style="fill:#000000; fill-opacity:1; font-family:Arial,Helvetica Neue,Helvetica,sans-serif; font-size:48px; text-anchor:end;" transform="rotate(0, 158.008, 784.859)" x="158.008" y="784.859">0.0</text>
</g>
<g clip-path="url(#clip7900)">
<text style="fill:#000000; fill-opacity:1; font-family:Arial,Helvetica Neue,Helvetica,sans-serif; font-size:48px; text-anchor:end;" transform="rotate(0, 158.008, 501.795)" x="158.008" y="501.795">2.5</text>
</g>
<g clip-path="url(#clip7900)">
<text style="fill:#000000; fill-opacity:1; font-family:Arial,Helvetica Neue,Helvetica,sans-serif; font-size:48px; text-anchor:end;" transform="rotate(0, 158.008, 218.731)" x="158.008" y="218.731">5.0</text>
</g>
<circle clip-path="url(#clip7902)" cx="1626.85" cy="226.453" r="14" fill="#ff0000" fill-rule="evenodd" fill-opacity="1" stroke="#000000" stroke-opacity="1" stroke-width="3.2"/>
<circle clip-path="url(#clip7902)" cx="1747.04" cy="219.232" r="14" fill="#ff0000" fill-rule="evenodd" fill-opacity="1" stroke="#000000" stroke-opacity="1" stroke-width="3.2"/>
<circle clip-path="url(#clip7902)" cx="1610.04" cy="228.859" r="14" fill="#ff0000" fill-rule="evenodd" fill-opacity="1" stroke="#000000" stroke-opacity="1" stroke-width="3.2"/>
<circle clip-path="url(#clip7902)" cx="1537.54" cy="308.278" r="14" fill="#ff0000" fill-rule="evenodd" fill-opacity="1" stroke="#000000" stroke-opacity="1" stroke-width="3.2"/>
<circle clip-path="url(#clip7902)" cx="1765.63" cy="292.353" r="14" fill="#ff0000" fill-rule="evenodd" fill-opacity="1" stroke="#000000" stroke-opacity="1" stroke-width="3.2"/>
<circle clip-path="url(#clip7902)" cx="1806.7" cy="693.341" r="14" fill="#ff0000" fill-rule="evenodd" fill-opacity="1" stroke="#000000" stroke-opacity="1" stroke-width="3.2"/>
<circle clip-path="url(#clip7902)" cx="1360.29" cy="662.575" r="14" fill="#ff0000" fill-rule="evenodd" fill-opacity="1" stroke="#000000" stroke-opacity="1" stroke-width="3.2"/>
<circle clip-path="url(#clip7902)" cx="1427.24" cy="550.287" r="14" fill="#ff0000" fill-rule="evenodd" fill-opacity="1" stroke="#000000" stroke-opacity="1" stroke-width="3.2"/>
<circle clip-path="url(#clip7902)" cx="1391.88" cy="645.625" r="14" fill="#ff0000" fill-rule="evenodd" fill-opacity="1" stroke="#000000" stroke-opacity="1" stroke-width="3.2"/>
<circle clip-path="url(#clip7902)" cx="1619.22" cy="520.093" r="14" fill="#ff0000" fill-rule="evenodd" fill-opacity="1" stroke="#000000" stroke-opacity="1" stroke-width="3.2"/>
<circle clip-path="url(#clip7902)" cx="1666.49" cy="236.329" r="14" fill="#ff0000" fill-rule="evenodd" fill-opacity="1" stroke="#000000" stroke-opacity="1" stroke-width="3.2"/>
<circle clip-path="url(#clip7902)" cx="1230.73" cy="487.1" r="14" fill="#ff0000" fill-rule="evenodd" fill-opacity="1" stroke="#000000" stroke-opacity="1" stroke-width="3.2"/>
<circle clip-path="url(#clip7902)" cx="1268.65" cy="584.966" r="14" fill="#ff0000" fill-rule="evenodd" fill-opacity="1" stroke="#000000" stroke-opacity="1" stroke-width="3.2"/>
<circle clip-path="url(#clip7902)" cx="1876.78" cy="704.724" r="14" fill="#ff0000" fill-rule="evenodd" fill-opacity="1" stroke="#000000" stroke-opacity="1" stroke-width="3.2"/>
<circle clip-path="url(#clip7902)" cx="1665" cy="687.287" r="14" fill="#ff0000" fill-rule="evenodd" fill-opacity="1" stroke="#000000" stroke-opacity="1" stroke-width="3.2"/>
<circle clip-path="url(#clip7902)" cx="1300.11" cy="457.941" r="14" fill="#ff0000" fill-rule="evenodd" fill-opacity="1" stroke="#000000" stroke-opacity="1" stroke-width="3.2"/>
<circle clip-path="url(#clip7902)" cx="1411.81" cy="337.781" r="14" fill="#ff0000" fill-rule="evenodd" fill-opacity="1" stroke="#000000" stroke-opacity="1" stroke-width="3.2"/>
<circle clip-path="url(#clip7902)" cx="1668.39" cy="558.372" r="14" fill="#ff0000" fill-rule="evenodd" fill-opacity="1" stroke="#000000" stroke-opacity="1" stroke-width="3.2"/>
<circle clip-path="url(#clip7902)" cx="1261.97" cy="481.881" r="14" fill="#ff0000" fill-rule="evenodd" fill-opacity="1" stroke="#000000" stroke-opacity="1" stroke-width="3.2"/>
<circle clip-path="url(#clip7902)" cx="1798.89" cy="264.871" r="14" fill="#ff0000" fill-rule="evenodd" fill-opacity="1" stroke="#000000" stroke-opacity="1" stroke-width="3.2"/>
<circle clip-path="url(#clip7902)" cx="420.058" cy="1005.51" r="14" fill="#ff0000" fill-rule="evenodd" fill-opacity="1" stroke="#000000" stroke-opacity="1" stroke-width="3.2"/>
<circle clip-path="url(#clip7902)" cx="865.45" cy="1128.96" r="14" fill="#ff0000" fill-rule="evenodd" fill-opacity="1" stroke="#000000" stroke-opacity="1" stroke-width="3.2"/>
<circle clip-path="url(#clip7902)" cx="637.827" cy="1065.96" r="14" fill="#ff0000" fill-rule="evenodd" fill-opacity="1" stroke="#000000" stroke-opacity="1" stroke-width="3.2"/>
<circle clip-path="url(#clip7902)" cx="595.047" cy="1021.66" r="14" fill="#ff0000" fill-rule="evenodd" fill-opacity="1" stroke="#000000" stroke-opacity="1" stroke-width="3.2"/>
<circle clip-path="url(#clip7902)" cx="642.927" cy="1113.08" r="14" fill="#ff0000" fill-rule="evenodd" fill-opacity="1" stroke="#000000" stroke-opacity="1" stroke-width="3.2"/>
<circle clip-path="url(#clip7902)" cx="491.244" cy="1291.6" r="14" fill="#ff0000" fill-rule="evenodd" fill-opacity="1" stroke="#000000" stroke-opacity="1" stroke-width="3.2"/>
<circle clip-path="url(#clip7902)" cx="489.073" cy="1232.06" r="14" fill="#ff0000" fill-rule="evenodd" fill-opacity="1" stroke="#000000" stroke-opacity="1" stroke-width="3.2"/>
<circle clip-path="url(#clip7902)" cx="582.017" cy="1039.97" r="14" fill="#ff0000" fill-rule="evenodd" fill-opacity="1" stroke="#000000" stroke-opacity="1" stroke-width="3.2"/>
<circle clip-path="url(#clip7902)" cx="665.042" cy="1222.32" r="14" fill="#ff0000" fill-rule="evenodd" fill-opacity="1" stroke="#000000" stroke-opacity="1" stroke-width="3.2"/>
<circle clip-path="url(#clip7902)" cx="729.643" cy="1149.03" r="14" fill="#ff0000" fill-rule="evenodd" fill-opacity="1" stroke="#000000" stroke-opacity="1" stroke-width="3.2"/>
<circle clip-path="url(#clip7902)" cx="838.442" cy="1229.18" r="14" fill="#ff0000" fill-rule="evenodd" fill-opacity="1" stroke="#000000" stroke-opacity="1" stroke-width="3.2"/>
<circle clip-path="url(#clip7902)" cx="740.638" cy="858.118" r="14" fill="#ff0000" fill-rule="evenodd" fill-opacity="1" stroke="#000000" stroke-opacity="1" stroke-width="3.2"/>
<circle clip-path="url(#clip7902)" cx="566.521" cy="911.985" r="14" fill="#ff0000" fill-rule="evenodd" fill-opacity="1" stroke="#000000" stroke-opacity="1" stroke-width="3.2"/>
<circle clip-path="url(#clip7902)" cx="795.209" cy="1282.89" r="14" fill="#ff0000" fill-rule="evenodd" fill-opacity="1" stroke="#000000" stroke-opacity="1" stroke-width="3.2"/>
<circle clip-path="url(#clip7902)" cx="588.205" cy="1010.3" r="14" fill="#ff0000" fill-rule="evenodd" fill-opacity="1" stroke="#000000" stroke-opacity="1" stroke-width="3.2"/>
<circle clip-path="url(#clip7902)" cx="585.554" cy="1265.87" r="14" fill="#ff0000" fill-rule="evenodd" fill-opacity="1" stroke="#000000" stroke-opacity="1" stroke-width="3.2"/>
<circle clip-path="url(#clip7902)" cx="810.673" cy="938.514" r="14" fill="#ff0000" fill-rule="evenodd" fill-opacity="1" stroke="#000000" stroke-opacity="1" stroke-width="3.2"/>
<circle clip-path="url(#clip7902)" cx="842.161" cy="890.598" r="14" fill="#ff0000" fill-rule="evenodd" fill-opacity="1" stroke="#000000" stroke-opacity="1" stroke-width="3.2"/>
<circle clip-path="url(#clip7902)" cx="903.122" cy="1313.29" r="14" fill="#ff0000" fill-rule="evenodd" fill-opacity="1" stroke="#000000" stroke-opacity="1" stroke-width="3.2"/>
<circle clip-path="url(#clip7902)" cx="413.634" cy="930.762" r="14" fill="#ff0000" fill-rule="evenodd" fill-opacity="1" stroke="#000000" stroke-opacity="1" stroke-width="3.2"/>
<circle clip-path="url(#clip7902)" cx="1517.8" cy="1185.18" r="14" fill="#0000ff" fill-rule="evenodd" fill-opacity="1" stroke="#000000" stroke-opacity="1" stroke-width="3.2"/>
<circle clip-path="url(#clip7902)" cx="1317.3" cy="1021.34" r="14" fill="#0000ff" fill-rule="evenodd" fill-opacity="1" stroke="#000000" stroke-opacity="1" stroke-width="3.2"/>
<circle clip-path="url(#clip7902)" cx="1638.62" cy="973.889" r="14" fill="#0000ff" fill-rule="evenodd" fill-opacity="1" stroke="#000000" stroke-opacity="1" stroke-width="3.2"/>
<circle clip-path="url(#clip7902)" cx="1397.49" cy="1074.47" r="14" fill="#0000ff" fill-rule="evenodd" fill-opacity="1" stroke="#000000" stroke-opacity="1" stroke-width="3.2"/>
<circle clip-path="url(#clip7902)" cx="1563.94" cy="1092.72" r="14" fill="#0000ff" fill-rule="evenodd" fill-opacity="1" stroke="#000000" stroke-opacity="1" stroke-width="3.2"/>
<circle clip-path="url(#clip7902)" cx="1287.51" cy="1021.38" r="14" fill="#0000ff" fill-rule="evenodd" fill-opacity="1" stroke="#000000" stroke-opacity="1" stroke-width="3.2"/>
<circle clip-path="url(#clip7902)" cx="1581.94" cy="1235.34" r="14" fill="#0000ff" fill-rule="evenodd" fill-opacity="1" stroke="#000000" stroke-opacity="1" stroke-width="3.2"/>
<circle clip-path="url(#clip7902)" cx="1404.63" cy="899.854" r="14" fill="#0000ff" fill-rule="evenodd" fill-opacity="1" stroke="#000000" stroke-opacity="1" stroke-width="3.2"/>
<circle clip-path="url(#clip7902)" cx="1298.48" cy="848.394" r="14" fill="#0000ff" fill-rule="evenodd" fill-opacity="1" stroke="#000000" stroke-opacity="1" stroke-width="3.2"/>
<circle clip-path="url(#clip7902)" cx="1793.18" cy="928.402" r="14" fill="#0000ff" fill-rule="evenodd" fill-opacity="1" stroke="#000000" stroke-opacity="1" stroke-width="3.2"/>
<circle clip-path="url(#clip7902)" cx="1655.94" cy="1094.99" r="14" fill="#0000ff" fill-rule="evenodd" fill-opacity="1" stroke="#000000" stroke-opacity="1" stroke-width="3.2"/>
<circle clip-path="url(#clip7902)" cx="1454.05" cy="1284.99" r="14" fill="#0000ff" fill-rule="evenodd" fill-opacity="1" stroke="#000000" stroke-opacity="1" stroke-width="3.2"/>
<circle clip-path="url(#clip7902)" cx="1300.45" cy="962.681" r="14" fill="#0000ff" fill-rule="evenodd" fill-opacity="1" stroke="#000000" stroke-opacity="1" stroke-width="3.2"/>
<circle clip-path="url(#clip7902)" cx="1758.1" cy="832.888" r="14" fill="#0000ff" fill-rule="evenodd" fill-opacity="1" stroke="#000000" stroke-opacity="1" stroke-width="3.2"/>
<circle clip-path="url(#clip7902)" cx="1795.7" cy="1115.91" r="14" fill="#0000ff" fill-rule="evenodd" fill-opacity="1" stroke="#000000" stroke-opacity="1" stroke-width="3.2"/>
<circle clip-path="url(#clip7902)" cx="1283.29" cy="1095.07" r="14" fill="#0000ff" fill-rule="evenodd" fill-opacity="1" stroke="#000000" stroke-opacity="1" stroke-width="3.2"/>
<circle clip-path="url(#clip7902)" cx="1487.32" cy="900.946" r="14" fill="#0000ff" fill-rule="evenodd" fill-opacity="1" stroke="#000000" stroke-opacity="1" stroke-width="3.2"/>
<circle clip-path="url(#clip7902)" cx="1449.08" cy="1048.85" r="14" fill="#0000ff" fill-rule="evenodd" fill-opacity="1" stroke="#000000" stroke-opacity="1" stroke-width="3.2"/>
<circle clip-path="url(#clip7902)" cx="1734.22" cy="922.09" r="14" fill="#0000ff" fill-rule="evenodd" fill-opacity="1" stroke="#000000" stroke-opacity="1" stroke-width="3.2"/>
<circle clip-path="url(#clip7902)" cx="1404.69" cy="1326.67" r="14" fill="#0000ff" fill-rule="evenodd" fill-opacity="1" stroke="#000000" stroke-opacity="1" stroke-width="3.2"/>
<circle clip-path="url(#clip7902)" cx="630.375" cy="284.546" r="14" fill="#0000ff" fill-rule="evenodd" fill-opacity="1" stroke="#000000" stroke-opacity="1" stroke-width="3.2"/>
<circle clip-path="url(#clip7902)" cx="479.217" cy="487.412" r="14" fill="#0000ff" fill-rule="evenodd" fill-opacity="1" stroke="#000000" stroke-opacity="1" stroke-width="3.2"/>
<circle clip-path="url(#clip7902)" cx="593.867" cy="359.193" r="14" fill="#0000ff" fill-rule="evenodd" fill-opacity="1" stroke="#000000" stroke-opacity="1" stroke-width="3.2"/>
<circle clip-path="url(#clip7902)" cx="521.298" cy="521.075" r="14" fill="#0000ff" fill-rule="evenodd" fill-opacity="1" stroke="#000000" stroke-opacity="1" stroke-width="3.2"/>
<circle clip-path="url(#clip7902)" cx="992.052" cy="560.509" r="14" fill="#0000ff" fill-rule="evenodd" fill-opacity="1" stroke="#000000" stroke-opacity="1" stroke-width="3.2"/>
<circle clip-path="url(#clip7902)" cx="434.751" cy="355.965" r="14" fill="#0000ff" fill-rule="evenodd" fill-opacity="1" stroke="#000000" stroke-opacity="1" stroke-width="3.2"/>
<circle clip-path="url(#clip7902)" cx="408.138" cy="541.406" r="14" fill="#0000ff" fill-rule="evenodd" fill-opacity="1" stroke="#000000" stroke-opacity="1" stroke-width="3.2"/>
<circle clip-path="url(#clip7902)" cx="774.094" cy="499.254" r="14" fill="#0000ff" fill-rule="evenodd" fill-opacity="1" stroke="#000000" stroke-opacity="1" stroke-width="3.2"/>
<circle clip-path="url(#clip7902)" cx="797.496" cy="403.191" r="14" fill="#0000ff" fill-rule="evenodd" fill-opacity="1" stroke="#000000" stroke-opacity="1" stroke-width="3.2"/>
<circle clip-path="url(#clip7902)" cx="595.852" cy="688.136" r="14" fill="#0000ff" fill-rule="evenodd" fill-opacity="1" stroke="#000000" stroke-opacity="1" stroke-width="3.2"/>
<circle clip-path="url(#clip7902)" cx="730.459" cy="244.193" r="14" fill="#0000ff" fill-rule="evenodd" fill-opacity="1" stroke="#000000" stroke-opacity="1" stroke-width="3.2"/>
<circle clip-path="url(#clip7902)" cx="668.468" cy="521.042" r="14" fill="#0000ff" fill-rule="evenodd" fill-opacity="1" stroke="#000000" stroke-opacity="1" stroke-width="3.2"/>
<circle clip-path="url(#clip7902)" cx="488.393" cy="653.155" r="14" fill="#0000ff" fill-rule="evenodd" fill-opacity="1" stroke="#000000" stroke-opacity="1" stroke-width="3.2"/>
<circle clip-path="url(#clip7902)" cx="830.425" cy="369.282" r="14" fill="#0000ff" fill-rule="evenodd" fill-opacity="1" stroke="#000000" stroke-opacity="1" stroke-width="3.2"/>
<circle clip-path="url(#clip7902)" cx="1070.49" cy="639.174" r="14" fill="#0000ff" fill-rule="evenodd" fill-opacity="1" stroke="#000000" stroke-opacity="1" stroke-width="3.2"/>
<circle clip-path="url(#clip7902)" cx="726.818" cy="669.309" r="14" fill="#0000ff" fill-rule="evenodd" fill-opacity="1" stroke="#000000" stroke-opacity="1" stroke-width="3.2"/>
<circle clip-path="url(#clip7902)" cx="835.354" cy="471.337" r="14" fill="#0000ff" fill-rule="evenodd" fill-opacity="1" stroke="#000000" stroke-opacity="1" stroke-width="3.2"/>
<circle clip-path="url(#clip7902)" cx="958.722" cy="204.29" r="14" fill="#0000ff" fill-rule="evenodd" fill-opacity="1" stroke="#000000" stroke-opacity="1" stroke-width="3.2"/>
<circle clip-path="url(#clip7902)" cx="672.357" cy="529.45" r="14" fill="#0000ff" fill-rule="evenodd" fill-opacity="1" stroke="#000000" stroke-opacity="1" stroke-width="3.2"/>
<circle clip-path="url(#clip7902)" cx="513.272" cy="626.609" r="14" fill="#0000ff" fill-rule="evenodd" fill-opacity="1" stroke="#000000" stroke-opacity="1" stroke-width="3.2"/>
<polyline clip-path="url(#clip7902)" style="stroke:#d04544; stroke-width:4; stroke-opacity:1; fill:none" points="
  299.404,1446.71 312.546,1427.33 340.906,1390.1 387.71,1333.49 388.44,1332.71 438.036,1276.87 464.334,1241.88 487.672,1220.26 533.594,1163.65 540.229,1157.63 
  589.68,1107.04 616.123,1081.84 649.898,1050.42 692.017,997.198 695.539,993.811 754.546,937.198 767.911,924.364 816.423,880.585 843.805,854.621 879.063,823.972 
  919.699,791.713 953.043,767.359 995.594,726.227 1019.34,710.747 1071.49,678.962 1103.38,654.134 1147.38,628.095 1200.86,597.521 1223.28,583.032 1299.17,543.282 
  1303.8,540.908 1375.06,509.277 1433.58,484.295 1450.96,474.904 1526.85,435.274 1549.59,427.682 1602.75,400.047 1678.64,371.304 1679.1,371.07 1754.54,326.821 
  1775.91,314.457 1830.43,293.263 1893.57,257.844 1906.32,251.437 1982.22,228.735 2031.08,201.231 2058.11,189.048 
  "/>
<polyline clip-path="url(#clip7902)" style="stroke:#ba3655; stroke-width:4; stroke-opacity:1; fill:none" points="
  1935.78,88.0053 1906.32,105.824 1830.43,143.699 1828.83,144.618 1754.54,182.27 1726,201.231 1678.64,231.177 1634.07,257.844 1602.75,274.291 1545.61,314.457 
  1526.85,325.021 1450.96,369.482 1448.9,371.07 1375.06,407.687 1344.1,427.682 1299.17,453.43 1259,484.295 1223.28,505.207 1171.68,540.908 1147.38,557.541 
  1093.58,597.521 1071.49,611.918 1009.8,654.134 995.594,663.832 933.032,710.747 919.699,722.147 861.333,767.359 843.805,780.986 790.47,823.972 767.911,843.783 
  716.716,880.585 692.017,903.753 649.262,937.198 616.123,963.228 574.27,993.811 540.229,1021.06 500.156,1050.42 464.334,1076.28 426.547,1107.04 388.44,1136.83 
  352.532,1163.65 312.546,1196.23 280.381,1220.26 236.652,1254.67 
  "/>
<polyline clip-path="url(#clip7902)" style="stroke:#a12b61; stroke-width:4; stroke-opacity:1; fill:none" points="
  236.652,1137.15 283.26,1107.04 312.546,1086.1 366.042,1050.42 388.44,1034.22 452.493,993.811 464.334,986.501 538.825,937.198 540.229,936.402 616.123,882.114 
  618.087,880.585 692.017,829.79 700.121,823.972 767.911,774.934 777.216,767.359 843.805,721.794 858.089,710.747 919.699,663.621 932.345,654.134 995.594,606.38 
  1008.64,597.521 1071.49,556.942 1093.06,540.908 1147.38,496.337 1164.77,484.295 1223.28,430.042 1226.35,427.682 1299.17,382.809 1316.58,371.07 1375.06,331.051 
  1396.98,314.457 1450.96,273.386 1475.15,257.844 1526.85,219.517 1553.64,201.231 1602.75,165.06 1633.43,144.618 1678.64,110.429 1712.55,88.0053 
  "/>
<polyline clip-path="url(#clip7902)" style="stroke:#88216a; stroke-width:4; stroke-opacity:1; fill:none" points="
  1503.13,88.0053 1450.96,134.424 1443.84,144.618 1380.6,201.231 1375.06,205.493 1339.88,257.844 1299.17,294.044 1277.58,314.457 1223.28,370.996 1223.21,371.07 
  1150.43,427.682 1147.38,430.412 1088.35,484.295 1071.49,498.11 1015.38,540.908 995.594,553.824 928.59,597.521 919.699,604.235 853.155,654.134 843.805,661.295 
  767.911,696.693 748.282,710.747 692.017,747.306 661.287,767.359 616.123,796.091 570.965,823.972 540.229,847.396 487.456,880.585 464.334,893.533 397.632,937.198 
  388.44,943.033 312.546,973.966 284.546,993.811 236.652,1020.88 
  "/>
<polyline clip-path="url(#clip7902)" style="stroke:#6e186e; stroke-width:4; stroke-opacity:1; fill:none" points="
  236.652,786.978 270.326,767.359 312.546,748.619 388.44,727.241 417.989,710.747 464.334,691.558 540.229,666.172 563.804,654.134 616.123,632.686 692.017,608.514 
  716.773,597.521 767.911,564.921 806.928,540.908 843.805,496.222 885.333,484.295 919.699,463.789 938.844,427.682 983.77,371.07 995.594,358.865 1029.57,314.457 
  1048.19,257.844 1068.42,201.231 1071.49,192.792 1104.74,144.618 1145.07,88.0053 
  "/>
<defs>
  <clipPath id="clip7903">
    <rect x="2160" y="47" width="73" height="1441"/>
  </clipPath>
</defs>
<polyline clip-path="url(#clip7903)" style="stroke:#0b0724; stroke-width:4; stroke-opacity:1; fill:none" points="
  2160.76,1397.46 2232.76,1397.46 
  "/>
<polyline clip-path="url(#clip7903)" style="stroke:#200b49; stroke-width:4; stroke-opacity:1; fill:none" points="
  2160.76,1307.45 2232.76,1307.45 
  "/>
<polyline clip-path="url(#clip7903)" style="stroke:#3c0964; stroke-width:4; stroke-opacity:1; fill:none" points="
  2160.76,1217.43 2232.76,1217.43 
  "/>
<polyline clip-path="url(#clip7903)" style="stroke:#57106d; stroke-width:4; stroke-opacity:1; fill:none" points="
  2160.76,1127.42 2232.76,1127.42 
  "/>
<polyline clip-path="url(#clip7903)" style="stroke:#70196e; stroke-width:4; stroke-opacity:1; fill:none" points="
  2160.76,1037.4 2232.76,1037.4 
  "/>
<polyline clip-path="url(#clip7903)" style="stroke:#8a2269; stroke-width:4; stroke-opacity:1; fill:none" points="
  2160.76,947.388 2232.76,947.388 
  "/>
<polyline clip-path="url(#clip7903)" style="stroke:#a32b61; stroke-width:4; stroke-opacity:1; fill:none" points="
  2160.76,857.374 2232.76,857.374 
  "/>
<polyline clip-path="url(#clip7903)" style="stroke:#bb3754; stroke-width:4; stroke-opacity:1; fill:none" points="
  2160.76,767.359 2232.76,767.359 
  "/>
<polyline clip-path="url(#clip7903)" style="stroke:#d04544; stroke-width:4; stroke-opacity:1; fill:none" points="
  2160.76,677.345 2232.76,677.345 
  "/>
<polyline clip-path="url(#clip7903)" style="stroke:#e25832; stroke-width:4; stroke-opacity:1; fill:none" points="
  2160.76,587.331 2232.76,587.331 
  "/>
<polyline clip-path="url(#clip7903)" style="stroke:#f0711e; stroke-width:4; stroke-opacity:1; fill:none" points="
  2160.76,497.316 2232.76,497.316 
  "/>
<polyline clip-path="url(#clip7903)" style="stroke:#f88c0a; stroke-width:4; stroke-opacity:1; fill:none" points="
  2160.76,407.302 2232.76,407.302 
  "/>
<polyline clip-path="url(#clip7903)" style="stroke:#fbaa0f; stroke-width:4; stroke-opacity:1; fill:none" points="
  2160.76,317.287 2232.76,317.287 
  "/>
<polyline clip-path="url(#clip7903)" style="stroke:#f8c933; stroke-width:4; stroke-opacity:1; fill:none" points="
  2160.76,227.273 2232.76,227.273 
  "/>
<polyline clip-path="url(#clip7903)" style="stroke:#f2e763; stroke-width:4; stroke-opacity:1; fill:none" points="
  2160.76,137.259 2232.76,137.259 
  "/>
<g clip-path="url(#clip7900)">
<text style="fill:#000000; fill-opacity:1; font-family:Arial,Helvetica Neue,Helvetica,sans-serif; font-size:48px; text-anchor:start;" transform="rotate(0, 2268.76, 1501.13)" x="2268.76" y="1501.13">0</text>
</g>
<g clip-path="url(#clip7900)">
<text style="fill:#000000; fill-opacity:1; font-family:Arial,Helvetica Neue,Helvetica,sans-serif; font-size:48px; text-anchor:start;" transform="rotate(0, 2268.76, 1357.1)" x="2268.76" y="1357.1">0.1</text>
</g>
<g clip-path="url(#clip7900)">
<text style="fill:#000000; fill-opacity:1; font-family:Arial,Helvetica Neue,Helvetica,sans-serif; font-size:48px; text-anchor:start;" transform="rotate(0, 2268.76, 1213.08)" x="2268.76" y="1213.08">0.2</text>
</g>
<g clip-path="url(#clip7900)">
<text style="fill:#000000; fill-opacity:1; font-family:Arial,Helvetica Neue,Helvetica,sans-serif; font-size:48px; text-anchor:start;" transform="rotate(0, 2268.76, 1069.06)" x="2268.76" y="1069.06">0.3</text>
</g>
<g clip-path="url(#clip7900)">
<text style="fill:#000000; fill-opacity:1; font-family:Arial,Helvetica Neue,Helvetica,sans-serif; font-size:48px; text-anchor:start;" transform="rotate(0, 2268.76, 925.034)" x="2268.76" y="925.034">0.4</text>
</g>
<g clip-path="url(#clip7900)">
<text style="fill:#000000; fill-opacity:1; font-family:Arial,Helvetica Neue,Helvetica,sans-serif; font-size:48px; text-anchor:start;" transform="rotate(0, 2268.76, 781.011)" x="2268.76" y="781.011">0.5</text>
</g>
<g clip-path="url(#clip7900)">
<text style="fill:#000000; fill-opacity:1; font-family:Arial,Helvetica Neue,Helvetica,sans-serif; font-size:48px; text-anchor:start;" transform="rotate(0, 2268.76, 636.988)" x="2268.76" y="636.988">0.6</text>
</g>
<g clip-path="url(#clip7900)">
<text style="fill:#000000; fill-opacity:1; font-family:Arial,Helvetica Neue,Helvetica,sans-serif; font-size:48px; text-anchor:start;" transform="rotate(0, 2268.76, 492.964)" x="2268.76" y="492.964">0.7</text>
</g>
<g clip-path="url(#clip7900)">
<text style="fill:#000000; fill-opacity:1; font-family:Arial,Helvetica Neue,Helvetica,sans-serif; font-size:48px; text-anchor:start;" transform="rotate(0, 2268.76, 348.941)" x="2268.76" y="348.941">0.8</text>
</g>
<g clip-path="url(#clip7900)">
<text style="fill:#000000; fill-opacity:1; font-family:Arial,Helvetica Neue,Helvetica,sans-serif; font-size:48px; text-anchor:start;" transform="rotate(0, 2268.76, 204.918)" x="2268.76" y="204.918">0.9</text>
</g>
<g clip-path="url(#clip7900)">
<text style="fill:#000000; fill-opacity:1; font-family:Arial,Helvetica Neue,Helvetica,sans-serif; font-size:48px; text-anchor:start;" transform="rotate(0, 2268.76, 60.8953)" x="2268.76" y="60.8953">1.0</text>
</g>
<polyline clip-path="url(#clip7900)" style="stroke:#000000; stroke-width:4; stroke-opacity:1; fill:none" points="
  2232.76,1487.47 2232.76,1487.47 2256.76,1487.47 2232.76,1487.47 2232.76,1343.45 2256.76,1343.45 2232.76,1343.45 2232.76,1199.43 2256.76,1199.43 2232.76,1199.43 
  2232.76,1055.41 2256.76,1055.41 2232.76,1055.41 2232.76,911.382 2256.76,911.382 2232.76,911.382 2232.76,767.359 2256.76,767.359 2232.76,767.359 2232.76,623.336 
  2256.76,623.336 2232.76,623.336 2232.76,479.313 2256.76,479.313 2232.76,479.313 2232.76,335.29 2256.76,335.29 2232.76,335.29 2232.76,191.267 2256.76,191.267 
  2232.76,191.267 2232.76,47.2441 2256.76,47.2441 2232.76,47.2441 
  "/>
<path clip-path="url(#clip7900)" d="
M1749.93 312.204 L2040.76 312.204 L2040.76 130.764 L1749.93 130.764  Z
  " fill="#ffffff" fill-rule="evenodd" fill-opacity="1"/>
<polyline clip-path="url(#clip7900)" style="stroke:#000000; stroke-width:4; stroke-opacity:1; fill:none" points="
  1749.93,312.204 2040.76,312.204 2040.76,130.764 1749.93,130.764 1749.93,312.204 
  "/>
<circle clip-path="url(#clip7900)" cx="1857.93" cy="191.244" r="21" fill="#ff0000" fill-rule="evenodd" fill-opacity="1" stroke="#000000" stroke-opacity="1" stroke-width="3.2"/>
<g clip-path="url(#clip7900)">
<text style="fill:#000000; fill-opacity:1; font-family:Arial,Helvetica Neue,Helvetica,sans-serif; font-size:48px; text-anchor:start;" transform="rotate(0, 1941.93, 208.744)" x="1941.93" y="208.744">y1</text>
</g>
<circle clip-path="url(#clip7900)" cx="1857.93" cy="251.724" r="21" fill="#0000ff" fill-rule="evenodd" fill-opacity="1" stroke="#000000" stroke-opacity="1" stroke-width="3.2"/>
<g clip-path="url(#clip7900)">
<text style="fill:#000000; fill-opacity:1; font-family:Arial,Helvetica Neue,Helvetica,sans-serif; font-size:48px; text-anchor:start;" transform="rotate(0, 1941.93, 269.224)" x="1941.93" y="269.224">y2</text>
</g>
</svg>
