<?xml version="1.0" encoding="utf-8"?>
<svg xmlns="http://www.w3.org/2000/svg" xmlns:xlink="http://www.w3.org/1999/xlink" width="600" height="400" viewBox="0 0 2400 1600">
<defs>
  <clipPath id="clip7400">
    <rect x="0" y="0" width="2400" height="1600"/>
  </clipPath>
</defs>
<path clip-path="url(#clip7400)" d="
M0 1600 L2400 1600 L2400 0 L0 0  Z
  " fill="#ffffff" fill-rule="evenodd" fill-opacity="1"/>
<defs>
  <clipPath id="clip7401">
    <rect x="480" y="0" width="1681" height="1600"/>
  </clipPath>
</defs>
<path clip-path="url(#clip7400)" d="
M182.008 1487.47 L2112.76 1487.47 L2112.76 47.2441 L182.008 47.2441  Z
  " fill="#ffffff" fill-rule="evenodd" fill-opacity="1"/>
<defs>
  <clipPath id="clip7402">
    <rect x="182" y="47" width="1932" height="1441"/>
  </clipPath>
</defs>
<polyline clip-path="url(#clip7402)" style="stroke:#000000; stroke-width:2; stroke-opacity:0.1; fill:none" points="
  388.44,1487.47 388.44,47.2441 
  "/>
<polyline clip-path="url(#clip7402)" style="stroke:#000000; stroke-width:2; stroke-opacity:0.1; fill:none" points="
  767.911,1487.47 767.911,47.2441 
  "/>
<polyline clip-path="url(#clip7402)" style="stroke:#000000; stroke-width:2; stroke-opacity:0.1; fill:none" points="
  1147.38,1487.47 1147.38,47.2441 
  "/>
<polyline clip-path="url(#clip7402)" style="stroke:#000000; stroke-width:2; stroke-opacity:0.1; fill:none" points="
  1526.85,1487.47 1526.85,47.2441 
  "/>
<polyline clip-path="url(#clip7402)" style="stroke:#000000; stroke-width:2; stroke-opacity:0.1; fill:none" points="
  1906.32,1487.47 1906.32,47.2441 
  "/>
<polyline clip-path="url(#clip7402)" style="stroke:#000000; stroke-width:2; stroke-opacity:0.1; fill:none" points="
  182.008,1333.49 2112.76,1333.49 
  "/>
<polyline clip-path="url(#clip7402)" style="stroke:#000000; stroke-width:2; stroke-opacity:0.1; fill:none" points="
  182.008,1050.42 2112.76,1050.42 
  "/>
<polyline clip-path="url(#clip7402)" style="stroke:#000000; stroke-width:2; stroke-opacity:0.1; fill:none" points="
  182.008,767.359 2112.76,767.359 
  "/>
<polyline clip-path="url(#clip7402)" style="stroke:#000000; stroke-width:2; stroke-opacity:0.1; fill:none" points="
  182.008,484.295 2112.76,484.295 
  "/>
<polyline clip-path="url(#clip7402)" style="stroke:#000000; stroke-width:2; stroke-opacity:0.1; fill:none" points="
  182.008,201.231 2112.76,201.231 
  "/>
<polyline clip-path="url(#clip7400)" style="stroke:#000000; stroke-width:4; stroke-opacity:1; fill:none" points="
  182.008,1487.47 2112.76,1487.47 
  "/>
<polyline clip-path="url(#clip7400)" style="stroke:#000000; stroke-width:4; stroke-opacity:1; fill:none" points="
  182.008,1487.47 182.008,47.2441 
  "/>
<polyline clip-path="url(#clip7400)" style="stroke:#000000; stroke-width:4; stroke-opacity:1; fill:none" points="
  388.44,1487.47 388.44,1465.87 
  "/>
<polyline clip-path="url(#clip7400)" style="stroke:#000000; stroke-width:4; stroke-opacity:1; fill:none" points="
  767.911,1487.47 767.911,1465.87 
  "/>
<polyline clip-path="url(#clip7400)" style="stroke:#000000; stroke-width:4; stroke-opacity:1; fill:none" points="
  1147.38,1487.47 1147.38,1465.87 
  "/>
<polyline clip-path="url(#clip7400)" style="stroke:#000000; stroke-width:4; stroke-opacity:1; fill:none" points="
  1526.85,1487.47 1526.85,1465.87 
  "/>
<polyline clip-path="url(#clip7400)" style="stroke:#000000; stroke-width:4; stroke-opacity:1; fill:none" points="
  1906.32,1487.47 1906.32,1465.87 
  "/>
<polyline clip-path="url(#clip7400)" style="stroke:#000000; stroke-width:4; stroke-opacity:1; fill:none" points="
  182.008,1333.49 210.969,1333.49 
  "/>
<polyline clip-path="url(#clip7400)" style="stroke:#000000; stroke-width:4; stroke-opacity:1; fill:none" points="
  182.008,1050.42 210.969,1050.42 
  "/>
<polyline clip-path="url(#clip7400)" style="stroke:#000000; stroke-width:4; stroke-opacity:1; fill:none" points="
  182.008,767.359 210.969,767.359 
  "/>
<polyline clip-path="url(#clip7400)" style="stroke:#000000; stroke-width:4; stroke-opacity:1; fill:none" points="
  182.008,484.295 210.969,484.295 
  "/>
<polyline clip-path="url(#clip7400)" style="stroke:#000000; stroke-width:4; stroke-opacity:1; fill:none" points="
  182.008,201.231 210.969,201.231 
  "/>
<g clip-path="url(#clip7400)">
<text style="fill:#000000; fill-opacity:1; font-family:Arial,Helvetica Neue,Helvetica,sans-serif; font-size:48px; text-anchor:middle;" transform="rotate(0, 388.44, 1541.47)" x="388.44" y="1541.47">-5.0</text>
</g>
<g clip-path="url(#clip7400)">
<text style="fill:#000000; fill-opacity:1; font-family:Arial,Helvetica Neue,Helvetica,sans-serif; font-size:48px; text-anchor:middle;" transform="rotate(0, 767.911, 1541.47)" x="767.911" y="1541.47">-2.5</text>
</g>
<g clip-path="url(#clip7400)">
<text style="fill:#000000; fill-opacity:1; font-family:Arial,Helvetica Neue,Helvetica,sans-serif; font-size:48px; text-anchor:middle;" transform="rotate(0, 1147.38, 1541.47)" x="1147.38" y="1541.47">0.0</text>
</g>
<g clip-path="url(#clip7400)">
<text style="fill:#000000; fill-opacity:1; font-family:Arial,Helvetica Neue,Helvetica,sans-serif; font-size:48px; text-anchor:middle;" transform="rotate(0, 1526.85, 1541.47)" x="1526.85" y="1541.47">2.5</text>
</g>
<g clip-path="url(#clip7400)">
<text style="fill:#000000; fill-opacity:1; font-family:Arial,Helvetica Neue,Helvetica,sans-serif; font-size:48px; text-anchor:middle;" transform="rotate(0, 1906.32, 1541.47)" x="1906.32" y="1541.47">5.0</text>
</g>
<g clip-path="url(#clip7400)">
<text style="fill:#000000; fill-opacity:1; font-family:Arial,Helvetica Neue,Helvetica,sans-serif; font-size:48px; text-anchor:end;" transform="rotate(0, 158.008, 1350.99)" x="158.008" y="1350.99">-5.0</text>
</g>
<g clip-path="url(#clip7400)">
<text style="fill:#000000; fill-opacity:1; font-family:Arial,Helvetica Neue,Helvetica,sans-serif; font-size:48px; text-anchor:end;" transform="rotate(0, 158.008, 1067.92)" x="158.008" y="1067.92">-2.5</text>
</g>
<g clip-path="url(#clip7400)">
<text style="fill:#000000; fill-opacity:1; font-family:Arial,Helvetica Neue,Helvetica,sans-serif; font-size:48px; text-anchor:end;" transform="rotate(0, 158.008, 784.859)" x="158.008" y="784.859">0.0</text>
</g>
<g clip-path="url(#clip7400)">
<text style="fill:#000000; fill-opacity:1; font-family:Arial,Helvetica Neue,Helvetica,sans-serif; font-size:48px; text-anchor:end;" transform="rotate(0, 158.008, 501.795)" x="158.008" y="501.795">2.5</text>
</g>
<g clip-path="url(#clip7400)">
<text style="fill:#000000; fill-opacity:1; font-family:Arial,Helvetica Neue,Helvetica,sans-serif; font-size:48px; text-anchor:end;" transform="rotate(0, 158.008, 218.731)" x="158.008" y="218.731">5.0</text>
</g>
<circle clip-path="url(#clip7402)" style="fill:#000000; stroke:none; fill-opacity:1" cx="1626.85" cy="226.453" r="18"/>
<circle clip-path="url(#clip7402)" style="fill:#ff0000; stroke:none; fill-opacity:1" cx="1626.85" cy="226.453" r="14"/>
<circle clip-path="url(#clip7402)" style="fill:#000000; stroke:none; fill-opacity:1" cx="1747.04" cy="219.232" r="18"/>
<circle clip-path="url(#clip7402)" style="fill:#ff0000; stroke:none; fill-opacity:1" cx="1747.04" cy="219.232" r="14"/>
<circle clip-path="url(#clip7402)" style="fill:#000000; stroke:none; fill-opacity:1" cx="1610.04" cy="228.859" r="18"/>
<circle clip-path="url(#clip7402)" style="fill:#ff0000; stroke:none; fill-opacity:1" cx="1610.04" cy="228.859" r="14"/>
<circle clip-path="url(#clip7402)" style="fill:#000000; stroke:none; fill-opacity:1" cx="1537.54" cy="308.278" r="18"/>
<circle clip-path="url(#clip7402)" style="fill:#ff0000; stroke:none; fill-opacity:1" cx="1537.54" cy="308.278" r="14"/>
<circle clip-path="url(#clip7402)" style="fill:#000000; stroke:none; fill-opacity:1" cx="1765.63" cy="292.353" r="18"/>
<circle clip-path="url(#clip7402)" style="fill:#ff0000; stroke:none; fill-opacity:1" cx="1765.63" cy="292.353" r="14"/>
<circle clip-path="url(#clip7402)" style="fill:#000000; stroke:none; fill-opacity:1" cx="1806.7" cy="693.341" r="18"/>
<circle clip-path="url(#clip7402)" style="fill:#ff0000; stroke:none; fill-opacity:1" cx="1806.7" cy="693.341" r="14"/>
<circle clip-path="url(#clip7402)" style="fill:#000000; stroke:none; fill-opacity:1" cx="1360.29" cy="662.575" r="18"/>
<circle clip-path="url(#clip7402)" style="fill:#ff0000; stroke:none; fill-opacity:1" cx="1360.29" cy="662.575" r="14"/>
<circle clip-path="url(#clip7402)" style="fill:#000000; stroke:none; fill-opacity:1" cx="1427.24" cy="550.287" r="18"/>
<circle clip-path="url(#clip7402)" style="fill:#ff0000; stroke:none; fill-opacity:1" cx="1427.24" cy="550.287" r="14"/>
<circle clip-path="url(#clip7402)" style="fill:#000000; stroke:none; fill-opacity:1" cx="1391.88" cy="645.625" r="18"/>
<circle clip-path="url(#clip7402)" style="fill:#ff0000; stroke:none; fill-opacity:1" cx="1391.88" cy="645.625" r="14"/>
<circle clip-path="url(#clip7402)" style="fill:#000000; stroke:none; fill-opacity:1" cx="1619.22" cy="520.093" r="18"/>
<circle clip-path="url(#clip7402)" style="fill:#ff0000; stroke:none; fill-opacity:1" cx="1619.22" cy="520.093" r="14"/>
<circle clip-path="url(#clip7402)" style="fill:#000000; stroke:none; fill-opacity:1" cx="1666.49" cy="236.329" r="18"/>
<circle clip-path="url(#clip7402)" style="fill:#ff0000; stroke:none; fill-opacity:1" cx="1666.49" cy="236.329" r="14"/>
<circle clip-path="url(#clip7402)" style="fill:#000000; stroke:none; fill-opacity:1" cx="1230.73" cy="487.1" r="18"/>
<circle clip-path="url(#clip7402)" style="fill:#ff0000; stroke:none; fill-opacity:1" cx="1230.73" cy="487.1" r="14"/>
<circle clip-path="url(#clip7402)" style="fill:#000000; stroke:none; fill-opacity:1" cx="1268.65" cy="584.966" r="18"/>
<circle clip-path="url(#clip7402)" style="fill:#ff0000; stroke:none; fill-opacity:1" cx="1268.65" cy="584.966" r="14"/>
<circle clip-path="url(#clip7402)" style="fill:#000000; stroke:none; fill-opacity:1" cx="1876.78" cy="704.724" r="18"/>
<circle clip-path="url(#clip7402)" style="fill:#ff0000; stroke:none; fill-opacity:1" cx="1876.78" cy="704.724" r="14"/>
<circle clip-path="url(#clip7402)" style="fill:#000000; stroke:none; fill-opacity:1" cx="1665" cy="687.287" r="18"/>
<circle clip-path="url(#clip7402)" style="fill:#ff0000; stroke:none; fill-opacity:1" cx="1665" cy="687.287" r="14"/>
<circle clip-path="url(#clip7402)" style="fill:#000000; stroke:none; fill-opacity:1" cx="1300.11" cy="457.941" r="18"/>
<circle clip-path="url(#clip7402)" style="fill:#ff0000; stroke:none; fill-opacity:1" cx="1300.11" cy="457.941" r="14"/>
<circle clip-path="url(#clip7402)" style="fill:#000000; stroke:none; fill-opacity:1" cx="1411.81" cy="337.781" r="18"/>
<circle clip-path="url(#clip7402)" style="fill:#ff0000; stroke:none; fill-opacity:1" cx="1411.81" cy="337.781" r="14"/>
<circle clip-path="url(#clip7402)" style="fill:#000000; stroke:none; fill-opacity:1" cx="1668.39" cy="558.372" r="18"/>
<circle clip-path="url(#clip7402)" style="fill:#ff0000; stroke:none; fill-opacity:1" cx="1668.39" cy="558.372" r="14"/>
<circle clip-path="url(#clip7402)" style="fill:#000000; stroke:none; fill-opacity:1" cx="1261.97" cy="481.881" r="18"/>
<circle clip-path="url(#clip7402)" style="fill:#ff0000; stroke:none; fill-opacity:1" cx="1261.97" cy="481.881" r="14"/>
<circle clip-path="url(#clip7402)" style="fill:#000000; stroke:none; fill-opacity:1" cx="1798.89" cy="264.871" r="18"/>
<circle clip-path="url(#clip7402)" style="fill:#ff0000; stroke:none; fill-opacity:1" cx="1798.89" cy="264.871" r="14"/>
<circle clip-path="url(#clip7402)" style="fill:#000000; stroke:none; fill-opacity:1" cx="420.058" cy="1005.51" r="18"/>
<circle clip-path="url(#clip7402)" style="fill:#ff0000; stroke:none; fill-opacity:1" cx="420.058" cy="1005.51" r="14"/>
<circle clip-path="url(#clip7402)" style="fill:#000000; stroke:none; fill-opacity:1" cx="865.45" cy="1128.96" r="18"/>
<circle clip-path="url(#clip7402)" style="fill:#ff0000; stroke:none; fill-opacity:1" cx="865.45" cy="1128.96" r="14"/>
<circle clip-path="url(#clip7402)" style="fill:#000000; stroke:none; fill-opacity:1" cx="637.827" cy="1065.96" r="18"/>
<circle clip-path="url(#clip7402)" style="fill:#ff0000; stroke:none; fill-opacity:1" cx="637.827" cy="1065.96" r="14"/>
<circle clip-path="url(#clip7402)" style="fill:#000000; stroke:none; fill-opacity:1" cx="595.047" cy="1021.66" r="18"/>
<circle clip-path="url(#clip7402)" style="fill:#ff0000; stroke:none; fill-opacity:1" cx="595.047" cy="1021.66" r="14"/>
<circle clip-path="url(#clip7402)" style="fill:#000000; stroke:none; fill-opacity:1" cx="642.927" cy="1113.08" r="18"/>
<circle clip-path="url(#clip7402)" style="fill:#ff0000; stroke:none; fill-opacity:1" cx="642.927" cy="1113.08" r="14"/>
<circle clip-path="url(#clip7402)" style="fill:#000000; stroke:none; fill-opacity:1" cx="491.244" cy="1291.6" r="18"/>
<circle clip-path="url(#clip7402)" style="fill:#ff0000; stroke:none; fill-opacity:1" cx="491.244" cy="1291.6" r="14"/>
<circle clip-path="url(#clip7402)" style="fill:#000000; stroke:none; fill-opacity:1" cx="489.073" cy="1232.06" r="18"/>
<circle clip-path="url(#clip7402)" style="fill:#ff0000; stroke:none; fill-opacity:1" cx="489.073" cy="1232.06" r="14"/>
<circle clip-path="url(#clip7402)" style="fill:#000000; stroke:none; fill-opacity:1" cx="582.017" cy="1039.97" r="18"/>
<circle clip-path="url(#clip7402)" style="fill:#ff0000; stroke:none; fill-opacity:1" cx="582.017" cy="1039.97" r="14"/>
<circle clip-path="url(#clip7402)" style="fill:#000000; stroke:none; fill-opacity:1" cx="665.042" cy="1222.32" r="18"/>
<circle clip-path="url(#clip7402)" style="fill:#ff0000; stroke:none; fill-opacity:1" cx="665.042" cy="1222.32" r="14"/>
<circle clip-path="url(#clip7402)" style="fill:#000000; stroke:none; fill-opacity:1" cx="729.643" cy="1149.03" r="18"/>
<circle clip-path="url(#clip7402)" style="fill:#ff0000; stroke:none; fill-opacity:1" cx="729.643" cy="1149.03" r="14"/>
<circle clip-path="url(#clip7402)" style="fill:#000000; stroke:none; fill-opacity:1" cx="838.442" cy="1229.18" r="18"/>
<circle clip-path="url(#clip7402)" style="fill:#ff0000; stroke:none; fill-opacity:1" cx="838.442" cy="1229.18" r="14"/>
<circle clip-path="url(#clip7402)" style="fill:#000000; stroke:none; fill-opacity:1" cx="740.638" cy="858.118" r="18"/>
<circle clip-path="url(#clip7402)" style="fill:#ff0000; stroke:none; fill-opacity:1" cx="740.638" cy="858.118" r="14"/>
<circle clip-path="url(#clip7402)" style="fill:#000000; stroke:none; fill-opacity:1" cx="566.521" cy="911.985" r="18"/>
<circle clip-path="url(#clip7402)" style="fill:#ff0000; stroke:none; fill-opacity:1" cx="566.521" cy="911.985" r="14"/>
<circle clip-path="url(#clip7402)" style="fill:#000000; stroke:none; fill-opacity:1" cx="795.209" cy="1282.89" r="18"/>
<circle clip-path="url(#clip7402)" style="fill:#ff0000; stroke:none; fill-opacity:1" cx="795.209" cy="1282.89" r="14"/>
<circle clip-path="url(#clip7402)" style="fill:#000000; stroke:none; fill-opacity:1" cx="588.205" cy="1010.3" r="18"/>
<circle clip-path="url(#clip7402)" style="fill:#ff0000; stroke:none; fill-opacity:1" cx="588.205" cy="1010.3" r="14"/>
<circle clip-path="url(#clip7402)" style="fill:#000000; stroke:none; fill-opacity:1" cx="585.554" cy="1265.87" r="18"/>
<circle clip-path="url(#clip7402)" style="fill:#ff0000; stroke:none; fill-opacity:1" cx="585.554" cy="1265.87" r="14"/>
<circle clip-path="url(#clip7402)" style="fill:#000000; stroke:none; fill-opacity:1" cx="810.673" cy="938.514" r="18"/>
<circle clip-path="url(#clip7402)" style="fill:#ff0000; stroke:none; fill-opacity:1" cx="810.673" cy="938.514" r="14"/>
<circle clip-path="url(#clip7402)" style="fill:#000000; stroke:none; fill-opacity:1" cx="842.161" cy="890.598" r="18"/>
<circle clip-path="url(#clip7402)" style="fill:#ff0000; stroke:none; fill-opacity:1" cx="842.161" cy="890.598" r="14"/>
<circle clip-path="url(#clip7402)" style="fill:#000000; stroke:none; fill-opacity:1" cx="903.122" cy="1313.29" r="18"/>
<circle clip-path="url(#clip7402)" style="fill:#ff0000; stroke:none; fill-opacity:1" cx="903.122" cy="1313.29" r="14"/>
<circle clip-path="url(#clip7402)" style="fill:#000000; stroke:none; fill-opacity:1" cx="413.634" cy="930.762" r="18"/>
<circle clip-path="url(#clip7402)" style="fill:#ff0000; stroke:none; fill-opacity:1" cx="413.634" cy="930.762" r="14"/>
<circle clip-path="url(#clip7402)" style="fill:#000000; stroke:none; fill-opacity:1" cx="1517.8" cy="1185.18" r="18"/>
<circle clip-path="url(#clip7402)" style="fill:#0000ff; stroke:none; fill-opacity:1" cx="1517.8" cy="1185.18" r="14"/>
<circle clip-path="url(#clip7402)" style="fill:#000000; stroke:none; fill-opacity:1" cx="1317.3" cy="1021.34" r="18"/>
<circle clip-path="url(#clip7402)" style="fill:#0000ff; stroke:none; fill-opacity:1" cx="1317.3" cy="1021.34" r="14"/>
<circle clip-path="url(#clip7402)" style="fill:#000000; stroke:none; fill-opacity:1" cx="1638.62" cy="973.889" r="18"/>
<circle clip-path="url(#clip7402)" style="fill:#0000ff; stroke:none; fill-opacity:1" cx="1638.62" cy="973.889" r="14"/>
<circle clip-path="url(#clip7402)" style="fill:#000000; stroke:none; fill-opacity:1" cx="1397.49" cy="1074.47" r="18"/>
<circle clip-path="url(#clip7402)" style="fill:#0000ff; stroke:none; fill-opacity:1" cx="1397.49" cy="1074.47" r="14"/>
<circle clip-path="url(#clip7402)" style="fill:#000000; stroke:none; fill-opacity:1" cx="1563.94" cy="1092.72" r="18"/>
<circle clip-path="url(#clip7402)" style="fill:#0000ff; stroke:none; fill-opacity:1" cx="1563.94" cy="1092.72" r="14"/>
<circle clip-path="url(#clip7402)" style="fill:#000000; stroke:none; fill-opacity:1" cx="1287.51" cy="1021.38" r="18"/>
<circle clip-path="url(#clip7402)" style="fill:#0000ff; stroke:none; fill-opacity:1" cx="1287.51" cy="1021.38" r="14"/>
<circle clip-path="url(#clip7402)" style="fill:#000000; stroke:none; fill-opacity:1" cx="1581.94" cy="1235.34" r="18"/>
<circle clip-path="url(#clip7402)" style="fill:#0000ff; stroke:none; fill-opacity:1" cx="1581.94" cy="1235.34" r="14"/>
<circle clip-path="url(#clip7402)" style="fill:#000000; stroke:none; fill-opacity:1" cx="1404.63" cy="899.854" r="18"/>
<circle clip-path="url(#clip7402)" style="fill:#0000ff; stroke:none; fill-opacity:1" cx="1404.63" cy="899.854" r="14"/>
<circle clip-path="url(#clip7402)" style="fill:#000000; stroke:none; fill-opacity:1" cx="1298.48" cy="848.394" r="18"/>
<circle clip-path="url(#clip7402)" style="fill:#0000ff; stroke:none; fill-opacity:1" cx="1298.48" cy="848.394" r="14"/>
<circle clip-path="url(#clip7402)" style="fill:#000000; stroke:none; fill-opacity:1" cx="1793.18" cy="928.402" r="18"/>
<circle clip-path="url(#clip7402)" style="fill:#0000ff; stroke:none; fill-opacity:1" cx="1793.18" cy="928.402" r="14"/>
<circle clip-path="url(#clip7402)" style="fill:#000000; stroke:none; fill-opacity:1" cx="1655.94" cy="1094.99" r="18"/>
<circle clip-path="url(#clip7402)" style="fill:#0000ff; stroke:none; fill-opacity:1" cx="1655.94" cy="1094.99" r="14"/>
<circle clip-path="url(#clip7402)" style="fill:#000000; stroke:none; fill-opacity:1" cx="1454.05" cy="1284.99" r="18"/>
<circle clip-path="url(#clip7402)" style="fill:#0000ff; stroke:none; fill-opacity:1" cx="1454.05" cy="1284.99" r="14"/>
<circle clip-path="url(#clip7402)" style="fill:#000000; stroke:none; fill-opacity:1" cx="1300.45" cy="962.681" r="18"/>
<circle clip-path="url(#clip7402)" style="fill:#0000ff; stroke:none; fill-opacity:1" cx="1300.45" cy="962.681" r="14"/>
<circle clip-path="url(#clip7402)" style="fill:#000000; stroke:none; fill-opacity:1" cx="1758.1" cy="832.888" r="18"/>
<circle clip-path="url(#clip7402)" style="fill:#0000ff; stroke:none; fill-opacity:1" cx="1758.1" cy="832.888" r="14"/>
<circle clip-path="url(#clip7402)" style="fill:#000000; stroke:none; fill-opacity:1" cx="1795.7" cy="1115.91" r="18"/>
<circle clip-path="url(#clip7402)" style="fill:#0000ff; stroke:none; fill-opacity:1" cx="1795.7" cy="1115.91" r="14"/>
<circle clip-path="url(#clip7402)" style="fill:#000000; stroke:none; fill-opacity:1" cx="1283.29" cy="1095.07" r="18"/>
<circle clip-path="url(#clip7402)" style="fill:#0000ff; stroke:none; fill-opacity:1" cx="1283.29" cy="1095.07" r="14"/>
<circle clip-path="url(#clip7402)" style="fill:#000000; stroke:none; fill-opacity:1" cx="1487.32" cy="900.946" r="18"/>
<circle clip-path="url(#clip7402)" style="fill:#0000ff; stroke:none; fill-opacity:1" cx="1487.32" cy="900.946" r="14"/>
<circle clip-path="url(#clip7402)" style="fill:#000000; stroke:none; fill-opacity:1" cx="1449.08" cy="1048.85" r="18"/>
<circle clip-path="url(#clip7402)" style="fill:#0000ff; stroke:none; fill-opacity:1" cx="1449.08" cy="1048.85" r="14"/>
<circle clip-path="url(#clip7402)" style="fill:#000000; stroke:none; fill-opacity:1" cx="1734.22" cy="922.09" r="18"/>
<circle clip-path="url(#clip7402)" style="fill:#0000ff; stroke:none; fill-opacity:1" cx="1734.22" cy="922.09" r="14"/>
<circle clip-path="url(#clip7402)" style="fill:#000000; stroke:none; fill-opacity:1" cx="1404.69" cy="1326.67" r="18"/>
<circle clip-path="url(#clip7402)" style="fill:#0000ff; stroke:none; fill-opacity:1" cx="1404.69" cy="1326.67" r="14"/>
<circle clip-path="url(#clip7402)" style="fill:#000000; stroke:none; fill-opacity:1" cx="630.375" cy="284.546" r="18"/>
<circle clip-path="url(#clip7402)" style="fill:#0000ff; stroke:none; fill-opacity:1" cx="630.375" cy="284.546" r="14"/>
<circle clip-path="url(#clip7402)" style="fill:#000000; stroke:none; fill-opacity:1" cx="479.217" cy="487.412" r="18"/>
<circle clip-path="url(#clip7402)" style="fill:#0000ff; stroke:none; fill-opacity:1" cx="479.217" cy="487.412" r="14"/>
<circle clip-path="url(#clip7402)" style="fill:#000000; stroke:none; fill-opacity:1" cx="593.867" cy="359.193" r="18"/>
<circle clip-path="url(#clip7402)" style="fill:#0000ff; stroke:none; fill-opacity:1" cx="593.867" cy="359.193" r="14"/>
<circle clip-path="url(#clip7402)" style="fill:#000000; stroke:none; fill-opacity:1" cx="521.298" cy="521.075" r="18"/>
<circle clip-path="url(#clip7402)" style="fill:#0000ff; stroke:none; fill-opacity:1" cx="521.298" cy="521.075" r="14"/>
<circle clip-path="url(#clip7402)" style="fill:#000000; stroke:none; fill-opacity:1" cx="992.052" cy="560.509" r="18"/>
<circle clip-path="url(#clip7402)" style="fill:#0000ff; stroke:none; fill-opacity:1" cx="992.052" cy="560.509" r="14"/>
<circle clip-path="url(#clip7402)" style="fill:#000000; stroke:none; fill-opacity:1" cx="434.751" cy="355.965" r="18"/>
<circle clip-path="url(#clip7402)" style="fill:#0000ff; stroke:none; fill-opacity:1" cx="434.751" cy="355.965" r="14"/>
<circle clip-path="url(#clip7402)" style="fill:#000000; stroke:none; fill-opacity:1" cx="408.138" cy="541.406" r="18"/>
<circle clip-path="url(#clip7402)" style="fill:#0000ff; stroke:none; fill-opacity:1" cx="408.138" cy="541.406" r="14"/>
<circle clip-path="url(#clip7402)" style="fill:#000000; stroke:none; fill-opacity:1" cx="774.094" cy="499.254" r="18"/>
<circle clip-path="url(#clip7402)" style="fill:#0000ff; stroke:none; fill-opacity:1" cx="774.094" cy="499.254" r="14"/>
<circle clip-path="url(#clip7402)" style="fill:#000000; stroke:none; fill-opacity:1" cx="797.496" cy="403.191" r="18"/>
<circle clip-path="url(#clip7402)" style="fill:#0000ff; stroke:none; fill-opacity:1" cx="797.496" cy="403.191" r="14"/>
<circle clip-path="url(#clip7402)" style="fill:#000000; stroke:none; fill-opacity:1" cx="595.852" cy="688.136" r="18"/>
<circle clip-path="url(#clip7402)" style="fill:#0000ff; stroke:none; fill-opacity:1" cx="595.852" cy="688.136" r="14"/>
<circle clip-path="url(#clip7402)" style="fill:#000000; stroke:none; fill-opacity:1" cx="730.459" cy="244.193" r="18"/>
<circle clip-path="url(#clip7402)" style="fill:#0000ff; stroke:none; fill-opacity:1" cx="730.459" cy="244.193" r="14"/>
<circle clip-path="url(#clip7402)" style="fill:#000000; stroke:none; fill-opacity:1" cx="668.468" cy="521.042" r="18"/>
<circle clip-path="url(#clip7402)" style="fill:#0000ff; stroke:none; fill-opacity:1" cx="668.468" cy="521.042" r="14"/>
<circle clip-path="url(#clip7402)" style="fill:#000000; stroke:none; fill-opacity:1" cx="488.393" cy="653.155" r="18"/>
<circle clip-path="url(#clip7402)" style="fill:#0000ff; stroke:none; fill-opacity:1" cx="488.393" cy="653.155" r="14"/>
<circle clip-path="url(#clip7402)" style="fill:#000000; stroke:none; fill-opacity:1" cx="830.425" cy="369.282" r="18"/>
<circle clip-path="url(#clip7402)" style="fill:#0000ff; stroke:none; fill-opacity:1" cx="830.425" cy="369.282" r="14"/>
<circle clip-path="url(#clip7402)" style="fill:#000000; stroke:none; fill-opacity:1" cx="1070.49" cy="639.174" r="18"/>
<circle clip-path="url(#clip7402)" style="fill:#0000ff; stroke:none; fill-opacity:1" cx="1070.49" cy="639.174" r="14"/>
<circle clip-path="url(#clip7402)" style="fill:#000000; stroke:none; fill-opacity:1" cx="726.818" cy="669.309" r="18"/>
<circle clip-path="url(#clip7402)" style="fill:#0000ff; stroke:none; fill-opacity:1" cx="726.818" cy="669.309" r="14"/>
<circle clip-path="url(#clip7402)" style="fill:#000000; stroke:none; fill-opacity:1" cx="835.354" cy="471.337" r="18"/>
<circle clip-path="url(#clip7402)" style="fill:#0000ff; stroke:none; fill-opacity:1" cx="835.354" cy="471.337" r="14"/>
<circle clip-path="url(#clip7402)" style="fill:#000000; stroke:none; fill-opacity:1" cx="958.722" cy="204.29" r="18"/>
<circle clip-path="url(#clip7402)" style="fill:#0000ff; stroke:none; fill-opacity:1" cx="958.722" cy="204.29" r="14"/>
<circle clip-path="url(#clip7402)" style="fill:#000000; stroke:none; fill-opacity:1" cx="672.357" cy="529.45" r="18"/>
<circle clip-path="url(#clip7402)" style="fill:#0000ff; stroke:none; fill-opacity:1" cx="672.357" cy="529.45" r="14"/>
<circle clip-path="url(#clip7402)" style="fill:#000000; stroke:none; fill-opacity:1" cx="513.272" cy="626.609" r="18"/>
<circle clip-path="url(#clip7402)" style="fill:#0000ff; stroke:none; fill-opacity:1" cx="513.272" cy="626.609" r="14"/>
<polyline clip-path="url(#clip7402)" style="stroke:#f2e763; stroke-width:4; stroke-opacity:1; fill:none" points="
  906.839,1446.71 919.699,1431.47 942.468,1390.1 953.965,1333.49 962.221,1276.87 972.435,1220.26 995.594,1188.25 1001.28,1163.65 1004.12,1107.04 1011.85,1050.42 
  1016.02,993.811 1028.86,937.198 1014,880.585 995.594,871.391 919.699,867.234 843.805,866.976 767.911,867.351 692.017,877.187 646.074,880.585 616.123,886.702 
  540.229,904.226 464.334,913.502 388.44,931.549 312.546,933.525 249.273,937.198 236.652,939.208 
  "/>
<polyline clip-path="url(#clip7402)" style="stroke:#fbaa0f; stroke-width:4; stroke-opacity:1; fill:none" points="
  236.652,897.843 312.546,883.503 332.725,880.585 388.44,873.044 464.334,863.241 540.229,852.116 616.123,836.299 692.017,831.261 767.911,829.503 843.805,832.445 
  919.699,833.523 986.739,823.972 995.594,823.071 1071.49,818.662 1076.88,823.972 1080.8,880.585 1081,937.198 1071.49,985.973 1067.46,993.811 1058.6,1050.42 
  1051.13,1107.04 1044.03,1163.65 1031.3,1220.26 1018.28,1276.87 1008.75,1333.49 1007.32,1390.1 1006.15,1446.71 
  "/>
<polyline clip-path="url(#clip7402)" style="stroke:#ba3655; stroke-width:4; stroke-opacity:1; fill:none" points="
  1065.27,1446.71 1066.8,1390.1 1071.49,1336.73 1074.08,1333.49 1123.85,1276.87 1125.75,1220.26 1127.82,1163.65 1129.34,1107.04 1130.38,1050.42 1131.54,993.811 
  1129.82,937.198 1136.56,880.585 1147.38,845.12 1153.59,823.972 1223.28,775.424 1286.03,767.359 1299.17,765.053 1375.06,764.174 1450.96,766.282 1526.85,766.226 
  1602.75,765.89 1612.91,767.359 1678.64,776.733 1754.54,778.661 1830.43,781.373 1906.32,785.009 1982.22,794.31 2058.11,796.599 
  "/>
<polyline clip-path="url(#clip7402)" style="stroke:#a12b61; stroke-width:4; stroke-opacity:1; fill:none" points="
  2058.11,811.042 1982.22,808.939 1906.32,795.067 1830.43,791.054 1754.54,788.234 1678.64,785.618 1602.75,776.162 1526.85,775.647 1450.96,775.257 1375.06,772.828 
  1299.17,773.8 1223.28,782.9 1164.32,823.972 1147.8,880.585 1147.38,882.626 1139.58,937.198 1143.93,993.811 1143.61,1050.42 1143.34,1107.04 1142.99,1163.65 
  1143.04,1220.26 1147.38,1251.29 1155.41,1276.87 1163.72,1333.49 1159.57,1390.1 1157.88,1446.71 
  "/>
<polyline clip-path="url(#clip7402)" style="stroke:#88216a; stroke-width:4; stroke-opacity:1; fill:none" points="
  1197.28,1446.71 1198.14,1390.1 1214.66,1333.49 1194.15,1276.87 1172.71,1220.26 1169.82,1163.65 1164.97,1107.04 1160.04,1050.42 1158.97,993.811 1150.8,937.198 
  1161.89,880.585 1175.05,823.972 1223.28,790.376 1299.17,782.12 1375.06,781.742 1450.96,784.442 1526.85,785.401 1602.75,786.68 1678.64,794.504 1754.54,797.806 
  1830.43,800.736 1906.32,805.124 1982.22,823.569 1998.04,823.972 2058.11,825.382 
  "/>
<polyline clip-path="url(#clip7402)" style="stroke:#1f0b46; stroke-width:4; stroke-opacity:1; fill:none" points="
  2058.11,879.188 1982.22,871.963 1906.32,862.51 1830.43,856.713 1754.54,851.992 1678.64,842.889 1602.75,837.887 1526.85,825.761 1516.9,823.972 1450.96,821.183 
  1375.06,817.396 1299.17,815.401 1223.28,820.28 1217.98,823.972 1218.22,880.585 1218.83,937.198 1223.16,993.811 1223.28,994.776 1241.63,1050.42 1265.29,1107.04 
  1271.73,1163.65 1273.55,1220.26 1278.45,1276.87 1282.56,1333.49 1291.14,1390.1 1294.05,1446.71 
  "/>
<polyline clip-path="url(#clip7402)" style="stroke:#3b0963; stroke-width:4; stroke-opacity:1; fill:none" points="
  1272.86,1446.71 1270.87,1390.1 1267.09,1333.49 1261.47,1276.87 1253.48,1220.26 1250.74,1163.65 1239.72,1107.04 1223.28,1077.13 1213.12,1050.42 1207.11,993.811 
  1201.82,937.198 1204.14,880.585 1207.24,823.972 1223.28,812.804 1299.17,807.081 1375.06,808.482 1450.96,811.998 1526.85,814.665 1602.75,818.234 1678.64,821.16 
  1719.83,823.972 1754.54,829.871 1830.43,836.25 1906.32,844.383 1982.22,859.882 2058.11,865.736 
  "/>
<polyline clip-path="url(#clip7402)" style="stroke:#550f6d; stroke-width:4; stroke-opacity:1; fill:none" points="
  2058.11,852.285 1982.22,847.801 1906.32,826.257 1888.14,823.972 1830.43,820.099 1754.54,816.952 1678.64,812.274 1602.75,807.716 1526.85,804.91 1450.96,802.813 
  1375.06,799.569 1299.17,798.761 1223.28,805.328 1196.51,823.972 1190.05,880.585 1184.82,937.198 1191.06,993.811 1195.43,1050.42 1214.45,1107.04 1223.28,1137.42 
  1229.75,1163.65 1233.41,1220.26 1244.48,1276.87 1251.61,1333.49 1250.61,1390.1 1251.68,1446.71 
  "/>
<polyline clip-path="url(#clip7402)" style="stroke:#6e186e; stroke-width:4; stroke-opacity:1; fill:none" points="
  1230.49,1446.71 1230.34,1390.1 1236.14,1333.49 1227.49,1276.87 1223.28,1257.97 1206.53,1220.26 1201.42,1163.65 1189.71,1107.04 1177.73,1050.42 1175.01,993.811 
  1167.81,937.198 1175.97,880.585 1185.78,823.972 1223.28,797.852 1299.17,790.44 1375.06,790.655 1450.96,793.628 1526.85,795.156 1602.75,797.198 1678.64,803.389 
  1754.54,807.379 1830.43,810.418 1906.32,815.182 1942.25,823.972 1982.22,835.72 2058.11,838.833 
  "/>
<polyline clip-path="url(#clip7402)" style="stroke:#d04544; stroke-width:4; stroke-opacity:1; fill:none" points="
  2058.11,782.156 1982.22,779.681 1906.32,774.951 1830.43,771.691 1754.54,769.088 1678.64,767.848 1675.22,767.359 1602.75,756.882 1526.85,758.689 1450.96,758.592 
  1375.06,755.932 1299.17,754.845 1227.85,767.359 1223.28,767.948 1217.7,767.359 1147.38,724.921 1143.19,710.747 1138.66,654.134 1139.39,597.521 1143.02,540.908 
  1147.2,484.295 1147.38,483.058 1157.23,427.682 1163.29,371.07 1165.52,314.457 1166.89,257.844 1167.77,201.231 1168.93,144.618 1172.02,88.0053 
  "/>
<polyline clip-path="url(#clip7402)" style="stroke:#a12b61; stroke-width:4; stroke-opacity:1; fill:none" points="
  1155.51,88.0053 1152.24,144.618 1150.88,201.231 1149.79,257.844 1148.04,314.457 1147.38,326.28 1144.05,371.07 1136.36,427.682 1129.45,484.295 1125.94,540.908 
  1122.51,597.521 1121.73,654.134 1117.88,710.747 1071.49,743.192 995.594,756.191 919.699,764.686 843.805,761.79 767.911,763.74 692.017,760.047 616.123,757.422 
  540.229,749.081 464.334,742.479 388.44,738.535 312.546,734.624 236.652,732.038 
  "/>
<polyline clip-path="url(#clip7402)" style="stroke:#88216a; stroke-width:4; stroke-opacity:1; fill:none" points="
  236.652,713.971 312.546,715.845 388.44,718.992 464.334,724.679 540.229,735.228 616.123,745.99 692.017,749.121 767.911,752.391 843.805,752.164 919.699,755.681 
  995.594,748.061 1071.49,734.343 1105.23,710.747 1113.27,654.134 1114.07,597.521 1117.39,540.908 1120.58,484.295 1126.23,427.682 1132.28,371.07 1132.8,314.457 
  1132.19,257.844 1133.37,201.231 1134.38,144.618 1146.77,88.0053 
  "/>
<polyline clip-path="url(#clip7402)" style="stroke:#6e186e; stroke-width:4; stroke-opacity:1; fill:none" points="
  1107.53,88.0053 1103.31,144.618 1109.45,201.231 1111.04,257.844 1117.04,314.457 1120.51,371.07 1116.11,427.682 1111.7,484.295 1108.85,540.908 1105.63,597.521 
  1104.8,654.134 1092.58,710.747 1071.49,725.494 995.594,739.93 919.699,746.677 843.805,742.537 767.911,741.042 692.017,738.195 616.123,734.558 540.229,721.376 
  481.084,710.747 464.334,707.147 388.44,698.839 312.546,692.89 236.652,690.868 
  "/>
<polyline clip-path="url(#clip7402)" style="stroke:#550f6d; stroke-width:4; stroke-opacity:1; fill:none" points="
  236.652,666.671 312.546,668.378 388.44,678.239 464.334,690.582 540.229,706.184 553.654,710.747 616.123,723.126 692.017,727.27 767.911,729.692 843.805,732.91 
  919.699,737.672 995.594,731.8 1071.49,716.645 1079.92,710.747 1096.34,654.134 1097.2,597.521 1100.3,540.908 1102.83,484.295 1105.98,427.682 1108.74,371.07 
  1101.29,314.457 1089.88,257.844 1085.53,201.231 1072.23,144.618 1071.49,131.741 1069.81,88.0053 
  "/>
<polyline clip-path="url(#clip7402)" style="stroke:#0a0622; stroke-width:4; stroke-opacity:1; fill:none" points="
  1008.22,88.0053 1009.55,144.618 1012.13,201.231 1013.79,257.844 1024.21,314.457 1071.49,363.705 1073.44,371.07 1075.61,427.682 1076.2,484.295 1074.67,540.908 
  1071.88,597.521 1071.49,621.356 1063.76,654.134 995.594,686.987 919.699,709.793 843.805,679.903 767.911,671.279 692.017,667.96 619.553,654.134 616.123,651.953 
  540.229,632.988 464.334,620.697 388.44,598.536 345.492,597.521 312.546,595.054 236.652,562.058 
  "/>
<polyline clip-path="url(#clip7402)" style="stroke:#1f0b46; stroke-width:4; stroke-opacity:1; fill:none" points="
  236.652,599.219 312.546,620.57 388.44,628.92 449.573,654.134 464.334,657.453 540.229,666.97 616.123,683.338 692.017,696.72 767.911,700.939 807.562,710.747 
  843.805,713.656 919.699,719.663 995.594,715.539 1018.86,710.747 1071.49,677.478 1079.41,654.134 1080.32,597.521 1083.22,540.908 1085.08,484.295 1085.73,427.682 
  1085.21,371.07 1071.49,319.296 1066.84,314.457 1040.87,257.844 1036.73,201.231 1030.36,144.618 1028.75,88.0053 
  "/>
<polyline clip-path="url(#clip7402)" style="stroke:#3b0963; stroke-width:4; stroke-opacity:1; fill:none" points="
  1049.28,88.0053 1051.18,144.618 1061.33,201.231 1067.96,257.844 1071.49,265.073 1085.53,314.457 1096.98,371.07 1095.86,427.682 1093.95,484.295 1091.76,540.908 
  1088.76,597.521 1087.87,654.134 1071.49,702.429 1058.33,710.747 995.594,723.669 919.699,728.668 843.805,723.283 767.911,718.343 692.017,716.344 616.123,711.694 
  611.344,710.747 540.229,686.577 464.334,674.018 388.44,657.639 366.515,654.134 312.546,644.225 236.652,636.277 
  "/>
<polyline clip-path="url(#clip7402)" style="stroke:#ba3655; stroke-width:4; stroke-opacity:1; fill:none" points="
  236.652,750.104 312.546,753.403 388.44,758.077 464.334,760.279 540.229,762.934 594.077,767.359 616.123,768.969 692.017,771.094 767.911,774.515 843.805,772.199 
  919.699,775.109 969.258,767.359 995.594,764.322 1071.49,752.04 1130.53,710.747 1130.2,654.134 1130.95,597.521 1134.48,540.908 1138.33,484.295 1146.48,427.682 
  1147.38,421.419 1154.02,371.07 1156.78,314.457 1158.34,257.844 1159.32,201.231 1160.58,144.618 1163.76,88.0053 
  "/>
<polyline clip-path="url(#clip7402)" style="stroke:#e25832; stroke-width:4; stroke-opacity:1; fill:none" points="
  1180.28,88.0053 1177.28,144.618 1176.22,201.231 1175.44,257.844 1174.26,314.457 1172.56,371.07 1168.05,427.682 1159.8,484.295 1154.8,540.908 1148.38,597.521 
  1147.38,633.391 1147.12,654.134 1147.38,656.594 1170.93,710.747 1223.28,745.69 1299.17,744.637 1375.06,747.691 1450.96,750.903 1526.85,751.152 1602.75,747.874 
  1678.64,754.991 1754.54,753.072 1830.43,756.42 1906.32,761.85 1982.22,763.661 2047.91,767.359 2058.11,767.713 
  "/>
<polyline clip-path="url(#clip7402)" style="stroke:#f0711e; stroke-width:4; stroke-opacity:1; fill:none" points="
  2058.11,742.466 1982.22,740.219 1906.32,739.377 1830.43,736.624 1754.54,735.636 1678.64,741.904 1602.75,738.866 1526.85,743.615 1450.96,743.214 1375.06,739.449 
  1299.17,734.429 1223.28,722.171 1206.16,710.747 1168.25,654.134 1167.41,597.521 1169.94,540.908 1172.47,484.295 1178.87,427.682 1181.82,371.07 1183,314.457 
  1183.99,257.844 1184.66,201.231 1185.63,144.618 1188.53,88.0053 
  "/>
<polyline clip-path="url(#clip7402)" style="stroke:#f88c0a; stroke-width:4; stroke-opacity:1; fill:none" points="
  1196.79,88.0053 1193.97,144.618 1193.11,201.231 1192.54,257.844 1191.74,314.457 1191.09,371.07 1189.68,427.682 1185.15,484.295 1185.08,540.908 1186.45,597.521 
  1189.77,654.134 1223.28,696.692 1244.55,710.747 1299.17,724.221 1375.06,731.208 1450.96,735.525 1526.85,736.078 1602.75,729.858 1678.64,728.818 1754.54,718.201 
  1830.43,716.829 1906.32,716.905 1982.22,716.776 2058.11,716.946 
  "/>
<polyline clip-path="url(#clip7402)" style="stroke:#fbaa0f; stroke-width:4; stroke-opacity:1; fill:none" points="
  2058.11,669.553 1982.22,691.73 1906.32,694.482 1830.43,699.193 
  "/>
<polyline clip-path="url(#clip7402)" style="stroke:#f8c933; stroke-width:4; stroke-opacity:1; fill:none" points="
  1830.43,682.516 1906.32,672.077 1982.22,666.128 2012.22,654.134 2058.11,637.714 
  "/>
<polyline clip-path="url(#clip7402)" style="stroke:#f2e763; stroke-width:4; stroke-opacity:1; fill:none" points="
  2058.11,614.803 1982.22,630.073 1906.32,641.6 1889.55,654.134 1830.43,665.838 
  "/>
<polyline clip-path="url(#clip7402)" style="stroke:#fbaa0f; stroke-width:4; stroke-opacity:1; fill:none" points="
  1708.96,710.747 1678.64,715.731 1602.75,720.85 1526.85,728.542 1450.96,727.835 1375.06,722.966 1299.17,714.013 1285.93,710.747 1223.28,669.362 1211.29,654.134 
  1205.48,597.521 1200.23,540.908 1197.82,484.295 1200.5,427.682 1200.36,371.07 1200.49,314.457 1201.09,257.844 1201.55,201.231 1202.32,144.618 1205.04,88.0053 
  
  "/>
<polyline clip-path="url(#clip7402)" style="stroke:#f8c933; stroke-width:4; stroke-opacity:1; fill:none" points="
  1213.3,88.0053 1210.67,144.618 1210,201.231 1209.64,257.844 1209.23,314.457 1209.63,371.07 1211.32,427.682 1210.5,484.295 1215.37,540.908 1223.28,591.264 
  1225.96,597.521 1238.35,654.134 1299.17,695.14 1343.56,710.747 1375.06,714.724 1450.96,720.146 1526.85,721.005 1602.75,711.842 1615.2,710.747 1678.64,696.201 
  
  "/>
<polyline clip-path="url(#clip7402)" style="stroke:#f2e763; stroke-width:4; stroke-opacity:1; fill:none" points="
  1678.64,672.71 1602.75,680.375 1548.96,710.747 1526.85,713.468 1450.96,712.457 1428.14,710.747 1375.06,688.521 1299.17,672.19 1272.39,654.134 1267.32,597.521 
  1252.63,540.908 1223.28,485.27 1223.17,484.295 1222.13,427.682 1218.89,371.07 1217.97,314.457 1218.19,257.844 1218.44,201.231 1219.02,144.618 1221.55,88.0053 
  
  "/>
<polyline clip-path="url(#clip7402)" style="stroke:#d04544; stroke-width:4; stroke-opacity:1; fill:none" points="
  236.652,769.225 312.546,775.245 388.44,779.596 464.334,780.732 540.229,779.146 616.123,781.273 692.017,782.387 767.911,785.021 843.805,783.681 919.699,786.13 
  995.594,774.902 1030.61,767.359 1071.49,760.889 1103.68,767.359 1140.66,823.972 1125.41,880.585 1120.06,937.198 1119.14,993.811 1117.14,1050.42 1115.35,1107.04 
  1112.66,1163.65 1108.47,1220.26 1094.17,1276.87 1071.49,1301.73 1059.18,1333.49 1054.9,1390.1 1053.44,1446.71 
  "/>
<polyline clip-path="url(#clip7402)" style="stroke:#e25832; stroke-width:4; stroke-opacity:1; fill:none" points="
  1041.62,1446.71 1043.01,1390.1 1046.57,1333.49 1067.61,1276.87 1071.49,1267.16 1091.18,1220.26 1097.5,1163.65 1101.35,1107.04 1103.9,1050.42 1106.74,993.811 
  1110.29,937.198 1114.26,880.585 1124.72,823.972 1071.49,771.578 995.594,786.945 919.699,797.152 843.805,795.162 767.911,795.526 692.017,793.679 616.123,793.578 
  540.229,796.467 464.334,802.936 388.44,802.903 312.546,805.953 236.652,810.753 
  "/>
<polyline clip-path="url(#clip7402)" style="stroke:#f0711e; stroke-width:4; stroke-opacity:1; fill:none" points="
  236.652,845.206 312.546,834.158 388.44,826.22 464.334,824.978 470.564,823.972 540.229,813.787 616.123,805.883 692.017,804.972 767.911,806.032 843.805,806.644 
  919.699,808.174 995.594,798.987 1071.49,787.272 1108.77,823.972 1103.1,880.585 1100.53,937.198 1094.34,993.811 1090.66,1050.42 1087.36,1107.04 1082.33,1163.65 
  1073.89,1220.26 1071.49,1225.99 1051.17,1276.87 1033.96,1333.49 1031.11,1390.1 1029.8,1446.71 
  "/>
<polyline clip-path="url(#clip7402)" style="stroke:#f88c0a; stroke-width:4; stroke-opacity:1; fill:none" points="
  1017.97,1446.71 1019.22,1390.1 1021.36,1333.49 1034.73,1276.87 1052.9,1220.26 1065.4,1163.65 1071.49,1125.17 1073.37,1107.04 1077.42,1050.42 1081.94,993.811 
  1090.77,937.198 1091.95,880.585 1092.83,823.972 1071.49,802.967 995.594,811.029 919.699,819.195 843.805,818.125 767.911,816.537 692.017,816.264 616.123,818.187 
  575.671,823.972 540.229,832.183 464.334,844.11 388.44,849.632 312.546,858.809 236.652,876.354 
  "/>
<polyline clip-path="url(#clip7402)" style="stroke:#f8c933; stroke-width:4; stroke-opacity:1; fill:none" points="
  236.652,917.813 312.546,908.514 388.44,901.175 464.334,883.398 477.928,880.585 540.229,872.048 616.123,859.564 692.017,854.224 767.911,848.427 843.805,849.71 
  919.699,850.379 995.594,846.76 1063.32,880.585 1070.42,937.198 1041.74,993.811 1035.22,1050.42 1027.63,1107.04 1022.66,1163.65 1009.71,1220.26 1001.84,1276.87 
  996.137,1333.49 995.594,1376.16 994.856,1390.1 987.018,1446.71 
  "/>
<polyline clip-path="url(#clip7402)" style="stroke:#0a0622; stroke-width:4; stroke-opacity:1; fill:none" points="
  1350.54,1446.71 1346.54,1390.1 1299.17,1339.62 1298.03,1333.49 1295.44,1276.87 1293.63,1220.26 1292.72,1163.65 1290.87,1107.04 1284.73,1050.42 1279.72,993.811 
  1271.47,937.198 1268.77,880.585 1294.91,823.972 1299.17,823.722 1306.98,823.972 1375.06,845.341 1450.96,859.565 1526.85,864.768 1602.75,868.51 1678.64,870.567 
  1754.54,874.113 1830.43,877.176 1905.05,880.585 1906.32,880.963 1982.22,903.517 2058.11,919.298 
  "/>
<polyline clip-path="url(#clip7402)" style="stroke:#fbaa0f; stroke-width:4; stroke-opacity:1; fill:none" points="
  1754.54,701.142 1708.96,710.747 
  "/>
<polyline clip-path="url(#clip7402)" style="stroke:#f8c933; stroke-width:4; stroke-opacity:1; fill:none" points="
  1754.54,684.366 1678.64,696.201 
  "/>
<polyline clip-path="url(#clip7402)" style="stroke:#f2e763; stroke-width:4; stroke-opacity:1; fill:none" points="
  1754.54,667.59 1678.64,672.71 
  "/>
<defs>
  <clipPath id="clip7403">
    <rect x="2160" y="47" width="73" height="1441"/>
  </clipPath>
</defs>
<polyline clip-path="url(#clip7403)" style="stroke:#0b0724; stroke-width:4; stroke-opacity:1; fill:none" points="
  2160.76,1397.46 2232.76,1397.46 
  "/>
<polyline clip-path="url(#clip7403)" style="stroke:#200b49; stroke-width:4; stroke-opacity:1; fill:none" points="
  2160.76,1307.45 2232.76,1307.45 
  "/>
<polyline clip-path="url(#clip7403)" style="stroke:#3c0964; stroke-width:4; stroke-opacity:1; fill:none" points="
  2160.76,1217.43 2232.76,1217.43 
  "/>
<polyline clip-path="url(#clip7403)" style="stroke:#57106d; stroke-width:4; stroke-opacity:1; fill:none" points="
  2160.76,1127.42 2232.76,1127.42 
  "/>
<polyline clip-path="url(#clip7403)" style="stroke:#70196e; stroke-width:4; stroke-opacity:1; fill:none" points="
  2160.76,1037.4 2232.76,1037.4 
  "/>
<polyline clip-path="url(#clip7403)" style="stroke:#8a2269; stroke-width:4; stroke-opacity:1; fill:none" points="
  2160.76,947.388 2232.76,947.388 
  "/>
<polyline clip-path="url(#clip7403)" style="stroke:#a32b61; stroke-width:4; stroke-opacity:1; fill:none" points="
  2160.76,857.374 2232.76,857.374 
  "/>
<polyline clip-path="url(#clip7403)" style="stroke:#bb3754; stroke-width:4; stroke-opacity:1; fill:none" points="
  2160.76,767.359 2232.76,767.359 
  "/>
<polyline clip-path="url(#clip7403)" style="stroke:#d04544; stroke-width:4; stroke-opacity:1; fill:none" points="
  2160.76,677.345 2232.76,677.345 
  "/>
<polyline clip-path="url(#clip7403)" style="stroke:#e25832; stroke-width:4; stroke-opacity:1; fill:none" points="
  2160.76,587.331 2232.76,587.331 
  "/>
<polyline clip-path="url(#clip7403)" style="stroke:#f0711e; stroke-width:4; stroke-opacity:1; fill:none" points="
  2160.76,497.316 2232.76,497.316 
  "/>
<polyline clip-path="url(#clip7403)" style="stroke:#f88c0a; stroke-width:4; stroke-opacity:1; fill:none" points="
  2160.76,407.302 2232.76,407.302 
  "/>
<polyline clip-path="url(#clip7403)" style="stroke:#fbaa0f; stroke-width:4; stroke-opacity:1; fill:none" points="
  2160.76,317.287 2232.76,317.287 
  "/>
<polyline clip-path="url(#clip7403)" style="stroke:#f8c933; stroke-width:4; stroke-opacity:1; fill:none" points="
  2160.76,227.273 2232.76,227.273 
  "/>
<polyline clip-path="url(#clip7403)" style="stroke:#f2e763; stroke-width:4; stroke-opacity:1; fill:none" points="
  2160.76,137.259 2232.76,137.259 
  "/>
<g clip-path="url(#clip7400)">
<text style="fill:#000000; fill-opacity:1; font-family:Arial,Helvetica Neue,Helvetica,sans-serif; font-size:48px; text-anchor:start;" transform="rotate(0, 2268.76, 1501.13)" x="2268.76" y="1501.13">0</text>
</g>
<g clip-path="url(#clip7400)">
<text style="fill:#000000; fill-opacity:1; font-family:Arial,Helvetica Neue,Helvetica,sans-serif; font-size:48px; text-anchor:start;" transform="rotate(0, 2268.76, 1357.1)" x="2268.76" y="1357.1">0.1</text>
</g>
<g clip-path="url(#clip7400)">
<text style="fill:#000000; fill-opacity:1; font-family:Arial,Helvetica Neue,Helvetica,sans-serif; font-size:48px; text-anchor:start;" transform="rotate(0, 2268.76, 1213.08)" x="2268.76" y="1213.08">0.2</text>
</g>
<g clip-path="url(#clip7400)">
<text style="fill:#000000; fill-opacity:1; font-family:Arial,Helvetica Neue,Helvetica,sans-serif; font-size:48px; text-anchor:start;" transform="rotate(0, 2268.76, 1069.06)" x="2268.76" y="1069.06">0.3</text>
</g>
<g clip-path="url(#clip7400)">
<text style="fill:#000000; fill-opacity:1; font-family:Arial,Helvetica Neue,Helvetica,sans-serif; font-size:48px; text-anchor:start;" transform="rotate(0, 2268.76, 925.034)" x="2268.76" y="925.034">0.4</text>
</g>
<g clip-path="url(#clip7400)">
<text style="fill:#000000; fill-opacity:1; font-family:Arial,Helvetica Neue,Helvetica,sans-serif; font-size:48px; text-anchor:start;" transform="rotate(0, 2268.76, 781.011)" x="2268.76" y="781.011">0.5</text>
</g>
<g clip-path="url(#clip7400)">
<text style="fill:#000000; fill-opacity:1; font-family:Arial,Helvetica Neue,Helvetica,sans-serif; font-size:48px; text-anchor:start;" transform="rotate(0, 2268.76, 636.988)" x="2268.76" y="636.988">0.6</text>
</g>
<g clip-path="url(#clip7400)">
<text style="fill:#000000; fill-opacity:1; font-family:Arial,Helvetica Neue,Helvetica,sans-serif; font-size:48px; text-anchor:start;" transform="rotate(0, 2268.76, 492.964)" x="2268.76" y="492.964">0.7</text>
</g>
<g clip-path="url(#clip7400)">
<text style="fill:#000000; fill-opacity:1; font-family:Arial,Helvetica Neue,Helvetica,sans-serif; font-size:48px; text-anchor:start;" transform="rotate(0, 2268.76, 348.941)" x="2268.76" y="348.941">0.8</text>
</g>
<g clip-path="url(#clip7400)">
<text style="fill:#000000; fill-opacity:1; font-family:Arial,Helvetica Neue,Helvetica,sans-serif; font-size:48px; text-anchor:start;" transform="rotate(0, 2268.76, 204.918)" x="2268.76" y="204.918">0.9</text>
</g>
<g clip-path="url(#clip7400)">
<text style="fill:#000000; fill-opacity:1; font-family:Arial,Helvetica Neue,Helvetica,sans-serif; font-size:48px; text-anchor:start;" transform="rotate(0, 2268.76, 60.8953)" x="2268.76" y="60.8953">1.0</text>
</g>
<polyline clip-path="url(#clip7400)" style="stroke:#000000; stroke-width:4; stroke-opacity:1; fill:none" points="
  2232.76,1487.47 2232.76,1487.47 2256.76,1487.47 2232.76,1487.47 2232.76,1343.45 2256.76,1343.45 2232.76,1343.45 2232.76,1199.43 2256.76,1199.43 2232.76,1199.43 
  2232.76,1055.41 2256.76,1055.41 2232.76,1055.41 2232.76,911.382 2256.76,911.382 2232.76,911.382 2232.76,767.359 2256.76,767.359 2232.76,767.359 2232.76,623.336 
  2256.76,623.336 2232.76,623.336 2232.76,479.313 2256.76,479.313 2232.76,479.313 2232.76,335.29 2256.76,335.29 2232.76,335.29 2232.76,191.267 2256.76,191.267 
  2232.76,191.267 2232.76,47.2441 2256.76,47.2441 2232.76,47.2441 
  "/>
<path clip-path="url(#clip7400)" d="
M1749.93 312.204 L2040.76 312.204 L2040.76 130.764 L1749.93 130.764  Z
  " fill="#ffffff" fill-rule="evenodd" fill-opacity="1"/>
<polyline clip-path="url(#clip7400)" style="stroke:#000000; stroke-width:4; stroke-opacity:1; fill:none" points="
  1749.93,312.204 2040.76,312.204 2040.76,130.764 1749.93,130.764 1749.93,312.204 
  "/>
<circle clip-path="url(#clip7400)" style="fill:#000000; stroke:none; fill-opacity:1" cx="1857.93" cy="191.244" r="25"/>
<circle clip-path="url(#clip7400)" style="fill:#ff0000; stroke:none; fill-opacity:1" cx="1857.93" cy="191.244" r="21"/>
<g clip-path="url(#clip7400)">
<text style="fill:#000000; fill-opacity:1; font-family:Arial,Helvetica Neue,Helvetica,sans-serif; font-size:48px; text-anchor:start;" transform="rotate(0, 1941.93, 208.744)" x="1941.93" y="208.744">y1</text>
</g>
<circle clip-path="url(#clip7400)" style="fill:#000000; stroke:none; fill-opacity:1" cx="1857.93" cy="251.724" r="25"/>
<circle clip-path="url(#clip7400)" style="fill:#0000ff; stroke:none; fill-opacity:1" cx="1857.93" cy="251.724" r="21"/>
<g clip-path="url(#clip7400)">
<text style="fill:#000000; fill-opacity:1; font-family:Arial,Helvetica Neue,Helvetica,sans-serif; font-size:48px; text-anchor:start;" transform="rotate(0, 1941.93, 269.224)" x="1941.93" y="269.224">y2</text>
</g>
</svg>
