<?xml version="1.0" encoding="utf-8"?>
<svg xmlns="http://www.w3.org/2000/svg" xmlns:xlink="http://www.w3.org/1999/xlink" width="600" height="400" viewBox="0 0 2400 1600">
<defs>
  <clipPath id="clip7000">
    <rect x="0" y="0" width="2400" height="1600"/>
  </clipPath>
</defs>
<path clip-path="url(#clip7000)" d="
M0 1600 L2400 1600 L2400 0 L0 0  Z
  " fill="#ffffff" fill-rule="evenodd" fill-opacity="1"/>
<defs>
  <clipPath id="clip7001">
    <rect x="480" y="0" width="1681" height="1600"/>
  </clipPath>
</defs>
<path clip-path="url(#clip7000)" d="
M182.008 1487.47 L2112.76 1487.47 L2112.76 47.2441 L182.008 47.2441  Z
  " fill="#ffffff" fill-rule="evenodd" fill-opacity="1"/>
<defs>
  <clipPath id="clip7002">
    <rect x="182" y="47" width="1932" height="1441"/>
  </clipPath>
</defs>
<polyline clip-path="url(#clip7002)" style="stroke:#000000; stroke-width:2; stroke-opacity:0.1; fill:none" points="
  388.44,1487.47 388.44,47.2441 
  "/>
<polyline clip-path="url(#clip7002)" style="stroke:#000000; stroke-width:2; stroke-opacity:0.1; fill:none" points="
  767.911,1487.47 767.911,47.2441 
  "/>
<polyline clip-path="url(#clip7002)" style="stroke:#000000; stroke-width:2; stroke-opacity:0.1; fill:none" points="
  1147.38,1487.47 1147.38,47.2441 
  "/>
<polyline clip-path="url(#clip7002)" style="stroke:#000000; stroke-width:2; stroke-opacity:0.1; fill:none" points="
  1526.85,1487.47 1526.85,47.2441 
  "/>
<polyline clip-path="url(#clip7002)" style="stroke:#000000; stroke-width:2; stroke-opacity:0.1; fill:none" points="
  1906.32,1487.47 1906.32,47.2441 
  "/>
<polyline clip-path="url(#clip7002)" style="stroke:#000000; stroke-width:2; stroke-opacity:0.1; fill:none" points="
  182.008,1333.49 2112.76,1333.49 
  "/>
<polyline clip-path="url(#clip7002)" style="stroke:#000000; stroke-width:2; stroke-opacity:0.1; fill:none" points="
  182.008,1050.42 2112.76,1050.42 
  "/>
<polyline clip-path="url(#clip7002)" style="stroke:#000000; stroke-width:2; stroke-opacity:0.1; fill:none" points="
  182.008,767.359 2112.76,767.359 
  "/>
<polyline clip-path="url(#clip7002)" style="stroke:#000000; stroke-width:2; stroke-opacity:0.1; fill:none" points="
  182.008,484.295 2112.76,484.295 
  "/>
<polyline clip-path="url(#clip7002)" style="stroke:#000000; stroke-width:2; stroke-opacity:0.1; fill:none" points="
  182.008,201.231 2112.76,201.231 
  "/>
<polyline clip-path="url(#clip7000)" style="stroke:#000000; stroke-width:4; stroke-opacity:1; fill:none" points="
  182.008,1487.47 2112.76,1487.47 
  "/>
<polyline clip-path="url(#clip7000)" style="stroke:#000000; stroke-width:4; stroke-opacity:1; fill:none" points="
  182.008,1487.47 182.008,47.2441 
  "/>
<polyline clip-path="url(#clip7000)" style="stroke:#000000; stroke-width:4; stroke-opacity:1; fill:none" points="
  388.44,1487.47 388.44,1465.87 
  "/>
<polyline clip-path="url(#clip7000)" style="stroke:#000000; stroke-width:4; stroke-opacity:1; fill:none" points="
  767.911,1487.47 767.911,1465.87 
  "/>
<polyline clip-path="url(#clip7000)" style="stroke:#000000; stroke-width:4; stroke-opacity:1; fill:none" points="
  1147.38,1487.47 1147.38,1465.87 
  "/>
<polyline clip-path="url(#clip7000)" style="stroke:#000000; stroke-width:4; stroke-opacity:1; fill:none" points="
  1526.85,1487.47 1526.85,1465.87 
  "/>
<polyline clip-path="url(#clip7000)" style="stroke:#000000; stroke-width:4; stroke-opacity:1; fill:none" points="
  1906.32,1487.47 1906.32,1465.87 
  "/>
<polyline clip-path="url(#clip7000)" style="stroke:#000000; stroke-width:4; stroke-opacity:1; fill:none" points="
  182.008,1333.49 210.969,1333.49 
  "/>
<polyline clip-path="url(#clip7000)" style="stroke:#000000; stroke-width:4; stroke-opacity:1; fill:none" points="
  182.008,1050.42 210.969,1050.42 
  "/>
<polyline clip-path="url(#clip7000)" style="stroke:#000000; stroke-width:4; stroke-opacity:1; fill:none" points="
  182.008,767.359 210.969,767.359 
  "/>
<polyline clip-path="url(#clip7000)" style="stroke:#000000; stroke-width:4; stroke-opacity:1; fill:none" points="
  182.008,484.295 210.969,484.295 
  "/>
<polyline clip-path="url(#clip7000)" style="stroke:#000000; stroke-width:4; stroke-opacity:1; fill:none" points="
  182.008,201.231 210.969,201.231 
  "/>
<g clip-path="url(#clip7000)">
<text style="fill:#000000; fill-opacity:1; font-family:Arial,Helvetica Neue,Helvetica,sans-serif; font-size:48px; text-anchor:middle;" transform="rotate(0, 388.44, 1541.47)" x="388.44" y="1541.47">-5.0</text>
</g>
<g clip-path="url(#clip7000)">
<text style="fill:#000000; fill-opacity:1; font-family:Arial,Helvetica Neue,Helvetica,sans-serif; font-size:48px; text-anchor:middle;" transform="rotate(0, 767.911, 1541.47)" x="767.911" y="1541.47">-2.5</text>
</g>
<g clip-path="url(#clip7000)">
<text style="fill:#000000; fill-opacity:1; font-family:Arial,Helvetica Neue,Helvetica,sans-serif; font-size:48px; text-anchor:middle;" transform="rotate(0, 1147.38, 1541.47)" x="1147.38" y="1541.47">0.0</text>
</g>
<g clip-path="url(#clip7000)">
<text style="fill:#000000; fill-opacity:1; font-family:Arial,Helvetica Neue,Helvetica,sans-serif; font-size:48px; text-anchor:middle;" transform="rotate(0, 1526.85, 1541.47)" x="1526.85" y="1541.47">2.5</text>
</g>
<g clip-path="url(#clip7000)">
<text style="fill:#000000; fill-opacity:1; font-family:Arial,Helvetica Neue,Helvetica,sans-serif; font-size:48px; text-anchor:middle;" transform="rotate(0, 1906.32, 1541.47)" x="1906.32" y="1541.47">5.0</text>
</g>
<g clip-path="url(#clip7000)">
<text style="fill:#000000; fill-opacity:1; font-family:Arial,Helvetica Neue,Helvetica,sans-serif; font-size:48px; text-anchor:end;" transform="rotate(0, 158.008, 1350.99)" x="158.008" y="1350.99">-5.0</text>
</g>
<g clip-path="url(#clip7000)">
<text style="fill:#000000; fill-opacity:1; font-family:Arial,Helvetica Neue,Helvetica,sans-serif; font-size:48px; text-anchor:end;" transform="rotate(0, 158.008, 1067.92)" x="158.008" y="1067.92">-2.5</text>
</g>
<g clip-path="url(#clip7000)">
<text style="fill:#000000; fill-opacity:1; font-family:Arial,Helvetica Neue,Helvetica,sans-serif; font-size:48px; text-anchor:end;" transform="rotate(0, 158.008, 784.859)" x="158.008" y="784.859">0.0</text>
</g>
<g clip-path="url(#clip7000)">
<text style="fill:#000000; fill-opacity:1; font-family:Arial,Helvetica Neue,Helvetica,sans-serif; font-size:48px; text-anchor:end;" transform="rotate(0, 158.008, 501.795)" x="158.008" y="501.795">2.5</text>
</g>
<g clip-path="url(#clip7000)">
<text style="fill:#000000; fill-opacity:1; font-family:Arial,Helvetica Neue,Helvetica,sans-serif; font-size:48px; text-anchor:end;" transform="rotate(0, 158.008, 218.731)" x="158.008" y="218.731">5.0</text>
</g>
<circle clip-path="url(#clip7002)" style="fill:#000000; stroke:none; fill-opacity:1" cx="1626.85" cy="226.453" r="18"/>
<circle clip-path="url(#clip7002)" style="fill:#ff0000; stroke:none; fill-opacity:1" cx="1626.85" cy="226.453" r="14"/>
<circle clip-path="url(#clip7002)" style="fill:#000000; stroke:none; fill-opacity:1" cx="1747.04" cy="219.232" r="18"/>
<circle clip-path="url(#clip7002)" style="fill:#ff0000; stroke:none; fill-opacity:1" cx="1747.04" cy="219.232" r="14"/>
<circle clip-path="url(#clip7002)" style="fill:#000000; stroke:none; fill-opacity:1" cx="1610.04" cy="228.859" r="18"/>
<circle clip-path="url(#clip7002)" style="fill:#ff0000; stroke:none; fill-opacity:1" cx="1610.04" cy="228.859" r="14"/>
<circle clip-path="url(#clip7002)" style="fill:#000000; stroke:none; fill-opacity:1" cx="1537.54" cy="308.278" r="18"/>
<circle clip-path="url(#clip7002)" style="fill:#ff0000; stroke:none; fill-opacity:1" cx="1537.54" cy="308.278" r="14"/>
<circle clip-path="url(#clip7002)" style="fill:#000000; stroke:none; fill-opacity:1" cx="1765.63" cy="292.353" r="18"/>
<circle clip-path="url(#clip7002)" style="fill:#ff0000; stroke:none; fill-opacity:1" cx="1765.63" cy="292.353" r="14"/>
<circle clip-path="url(#clip7002)" style="fill:#000000; stroke:none; fill-opacity:1" cx="1806.7" cy="693.341" r="18"/>
<circle clip-path="url(#clip7002)" style="fill:#ff0000; stroke:none; fill-opacity:1" cx="1806.7" cy="693.341" r="14"/>
<circle clip-path="url(#clip7002)" style="fill:#000000; stroke:none; fill-opacity:1" cx="1360.29" cy="662.575" r="18"/>
<circle clip-path="url(#clip7002)" style="fill:#ff0000; stroke:none; fill-opacity:1" cx="1360.29" cy="662.575" r="14"/>
<circle clip-path="url(#clip7002)" style="fill:#000000; stroke:none; fill-opacity:1" cx="1427.24" cy="550.287" r="18"/>
<circle clip-path="url(#clip7002)" style="fill:#ff0000; stroke:none; fill-opacity:1" cx="1427.24" cy="550.287" r="14"/>
<circle clip-path="url(#clip7002)" style="fill:#000000; stroke:none; fill-opacity:1" cx="1391.88" cy="645.625" r="18"/>
<circle clip-path="url(#clip7002)" style="fill:#ff0000; stroke:none; fill-opacity:1" cx="1391.88" cy="645.625" r="14"/>
<circle clip-path="url(#clip7002)" style="fill:#000000; stroke:none; fill-opacity:1" cx="1619.22" cy="520.093" r="18"/>
<circle clip-path="url(#clip7002)" style="fill:#ff0000; stroke:none; fill-opacity:1" cx="1619.22" cy="520.093" r="14"/>
<circle clip-path="url(#clip7002)" style="fill:#000000; stroke:none; fill-opacity:1" cx="1666.49" cy="236.329" r="18"/>
<circle clip-path="url(#clip7002)" style="fill:#ff0000; stroke:none; fill-opacity:1" cx="1666.49" cy="236.329" r="14"/>
<circle clip-path="url(#clip7002)" style="fill:#000000; stroke:none; fill-opacity:1" cx="1230.73" cy="487.1" r="18"/>
<circle clip-path="url(#clip7002)" style="fill:#ff0000; stroke:none; fill-opacity:1" cx="1230.73" cy="487.1" r="14"/>
<circle clip-path="url(#clip7002)" style="fill:#000000; stroke:none; fill-opacity:1" cx="1268.65" cy="584.966" r="18"/>
<circle clip-path="url(#clip7002)" style="fill:#ff0000; stroke:none; fill-opacity:1" cx="1268.65" cy="584.966" r="14"/>
<circle clip-path="url(#clip7002)" style="fill:#000000; stroke:none; fill-opacity:1" cx="1876.78" cy="704.724" r="18"/>
<circle clip-path="url(#clip7002)" style="fill:#ff0000; stroke:none; fill-opacity:1" cx="1876.78" cy="704.724" r="14"/>
<circle clip-path="url(#clip7002)" style="fill:#000000; stroke:none; fill-opacity:1" cx="1665" cy="687.287" r="18"/>
<circle clip-path="url(#clip7002)" style="fill:#ff0000; stroke:none; fill-opacity:1" cx="1665" cy="687.287" r="14"/>
<circle clip-path="url(#clip7002)" style="fill:#000000; stroke:none; fill-opacity:1" cx="1300.11" cy="457.941" r="18"/>
<circle clip-path="url(#clip7002)" style="fill:#ff0000; stroke:none; fill-opacity:1" cx="1300.11" cy="457.941" r="14"/>
<circle clip-path="url(#clip7002)" style="fill:#000000; stroke:none; fill-opacity:1" cx="1411.81" cy="337.781" r="18"/>
<circle clip-path="url(#clip7002)" style="fill:#ff0000; stroke:none; fill-opacity:1" cx="1411.81" cy="337.781" r="14"/>
<circle clip-path="url(#clip7002)" style="fill:#000000; stroke:none; fill-opacity:1" cx="1668.39" cy="558.372" r="18"/>
<circle clip-path="url(#clip7002)" style="fill:#ff0000; stroke:none; fill-opacity:1" cx="1668.39" cy="558.372" r="14"/>
<circle clip-path="url(#clip7002)" style="fill:#000000; stroke:none; fill-opacity:1" cx="1261.97" cy="481.881" r="18"/>
<circle clip-path="url(#clip7002)" style="fill:#ff0000; stroke:none; fill-opacity:1" cx="1261.97" cy="481.881" r="14"/>
<circle clip-path="url(#clip7002)" style="fill:#000000; stroke:none; fill-opacity:1" cx="1798.89" cy="264.871" r="18"/>
<circle clip-path="url(#clip7002)" style="fill:#ff0000; stroke:none; fill-opacity:1" cx="1798.89" cy="264.871" r="14"/>
<circle clip-path="url(#clip7002)" style="fill:#000000; stroke:none; fill-opacity:1" cx="420.058" cy="1005.51" r="18"/>
<circle clip-path="url(#clip7002)" style="fill:#ff0000; stroke:none; fill-opacity:1" cx="420.058" cy="1005.51" r="14"/>
<circle clip-path="url(#clip7002)" style="fill:#000000; stroke:none; fill-opacity:1" cx="865.45" cy="1128.96" r="18"/>
<circle clip-path="url(#clip7002)" style="fill:#ff0000; stroke:none; fill-opacity:1" cx="865.45" cy="1128.96" r="14"/>
<circle clip-path="url(#clip7002)" style="fill:#000000; stroke:none; fill-opacity:1" cx="637.827" cy="1065.96" r="18"/>
<circle clip-path="url(#clip7002)" style="fill:#ff0000; stroke:none; fill-opacity:1" cx="637.827" cy="1065.96" r="14"/>
<circle clip-path="url(#clip7002)" style="fill:#000000; stroke:none; fill-opacity:1" cx="595.047" cy="1021.66" r="18"/>
<circle clip-path="url(#clip7002)" style="fill:#ff0000; stroke:none; fill-opacity:1" cx="595.047" cy="1021.66" r="14"/>
<circle clip-path="url(#clip7002)" style="fill:#000000; stroke:none; fill-opacity:1" cx="642.927" cy="1113.08" r="18"/>
<circle clip-path="url(#clip7002)" style="fill:#ff0000; stroke:none; fill-opacity:1" cx="642.927" cy="1113.08" r="14"/>
<circle clip-path="url(#clip7002)" style="fill:#000000; stroke:none; fill-opacity:1" cx="491.244" cy="1291.6" r="18"/>
<circle clip-path="url(#clip7002)" style="fill:#ff0000; stroke:none; fill-opacity:1" cx="491.244" cy="1291.6" r="14"/>
<circle clip-path="url(#clip7002)" style="fill:#000000; stroke:none; fill-opacity:1" cx="489.073" cy="1232.06" r="18"/>
<circle clip-path="url(#clip7002)" style="fill:#ff0000; stroke:none; fill-opacity:1" cx="489.073" cy="1232.06" r="14"/>
<circle clip-path="url(#clip7002)" style="fill:#000000; stroke:none; fill-opacity:1" cx="582.017" cy="1039.97" r="18"/>
<circle clip-path="url(#clip7002)" style="fill:#ff0000; stroke:none; fill-opacity:1" cx="582.017" cy="1039.97" r="14"/>
<circle clip-path="url(#clip7002)" style="fill:#000000; stroke:none; fill-opacity:1" cx="665.042" cy="1222.32" r="18"/>
<circle clip-path="url(#clip7002)" style="fill:#ff0000; stroke:none; fill-opacity:1" cx="665.042" cy="1222.32" r="14"/>
<circle clip-path="url(#clip7002)" style="fill:#000000; stroke:none; fill-opacity:1" cx="729.643" cy="1149.03" r="18"/>
<circle clip-path="url(#clip7002)" style="fill:#ff0000; stroke:none; fill-opacity:1" cx="729.643" cy="1149.03" r="14"/>
<circle clip-path="url(#clip7002)" style="fill:#000000; stroke:none; fill-opacity:1" cx="838.442" cy="1229.18" r="18"/>
<circle clip-path="url(#clip7002)" style="fill:#ff0000; stroke:none; fill-opacity:1" cx="838.442" cy="1229.18" r="14"/>
<circle clip-path="url(#clip7002)" style="fill:#000000; stroke:none; fill-opacity:1" cx="740.638" cy="858.118" r="18"/>
<circle clip-path="url(#clip7002)" style="fill:#ff0000; stroke:none; fill-opacity:1" cx="740.638" cy="858.118" r="14"/>
<circle clip-path="url(#clip7002)" style="fill:#000000; stroke:none; fill-opacity:1" cx="566.521" cy="911.985" r="18"/>
<circle clip-path="url(#clip7002)" style="fill:#ff0000; stroke:none; fill-opacity:1" cx="566.521" cy="911.985" r="14"/>
<circle clip-path="url(#clip7002)" style="fill:#000000; stroke:none; fill-opacity:1" cx="795.209" cy="1282.89" r="18"/>
<circle clip-path="url(#clip7002)" style="fill:#ff0000; stroke:none; fill-opacity:1" cx="795.209" cy="1282.89" r="14"/>
<circle clip-path="url(#clip7002)" style="fill:#000000; stroke:none; fill-opacity:1" cx="588.205" cy="1010.3" r="18"/>
<circle clip-path="url(#clip7002)" style="fill:#ff0000; stroke:none; fill-opacity:1" cx="588.205" cy="1010.3" r="14"/>
<circle clip-path="url(#clip7002)" style="fill:#000000; stroke:none; fill-opacity:1" cx="585.554" cy="1265.87" r="18"/>
<circle clip-path="url(#clip7002)" style="fill:#ff0000; stroke:none; fill-opacity:1" cx="585.554" cy="1265.87" r="14"/>
<circle clip-path="url(#clip7002)" style="fill:#000000; stroke:none; fill-opacity:1" cx="810.673" cy="938.514" r="18"/>
<circle clip-path="url(#clip7002)" style="fill:#ff0000; stroke:none; fill-opacity:1" cx="810.673" cy="938.514" r="14"/>
<circle clip-path="url(#clip7002)" style="fill:#000000; stroke:none; fill-opacity:1" cx="842.161" cy="890.598" r="18"/>
<circle clip-path="url(#clip7002)" style="fill:#ff0000; stroke:none; fill-opacity:1" cx="842.161" cy="890.598" r="14"/>
<circle clip-path="url(#clip7002)" style="fill:#000000; stroke:none; fill-opacity:1" cx="903.122" cy="1313.29" r="18"/>
<circle clip-path="url(#clip7002)" style="fill:#ff0000; stroke:none; fill-opacity:1" cx="903.122" cy="1313.29" r="14"/>
<circle clip-path="url(#clip7002)" style="fill:#000000; stroke:none; fill-opacity:1" cx="413.634" cy="930.762" r="18"/>
<circle clip-path="url(#clip7002)" style="fill:#ff0000; stroke:none; fill-opacity:1" cx="413.634" cy="930.762" r="14"/>
<circle clip-path="url(#clip7002)" style="fill:#000000; stroke:none; fill-opacity:1" cx="1517.8" cy="1185.18" r="18"/>
<circle clip-path="url(#clip7002)" style="fill:#0000ff; stroke:none; fill-opacity:1" cx="1517.8" cy="1185.18" r="14"/>
<circle clip-path="url(#clip7002)" style="fill:#000000; stroke:none; fill-opacity:1" cx="1317.3" cy="1021.34" r="18"/>
<circle clip-path="url(#clip7002)" style="fill:#0000ff; stroke:none; fill-opacity:1" cx="1317.3" cy="1021.34" r="14"/>
<circle clip-path="url(#clip7002)" style="fill:#000000; stroke:none; fill-opacity:1" cx="1638.62" cy="973.889" r="18"/>
<circle clip-path="url(#clip7002)" style="fill:#0000ff; stroke:none; fill-opacity:1" cx="1638.62" cy="973.889" r="14"/>
<circle clip-path="url(#clip7002)" style="fill:#000000; stroke:none; fill-opacity:1" cx="1397.49" cy="1074.47" r="18"/>
<circle clip-path="url(#clip7002)" style="fill:#0000ff; stroke:none; fill-opacity:1" cx="1397.49" cy="1074.47" r="14"/>
<circle clip-path="url(#clip7002)" style="fill:#000000; stroke:none; fill-opacity:1" cx="1563.94" cy="1092.72" r="18"/>
<circle clip-path="url(#clip7002)" style="fill:#0000ff; stroke:none; fill-opacity:1" cx="1563.94" cy="1092.72" r="14"/>
<circle clip-path="url(#clip7002)" style="fill:#000000; stroke:none; fill-opacity:1" cx="1287.51" cy="1021.38" r="18"/>
<circle clip-path="url(#clip7002)" style="fill:#0000ff; stroke:none; fill-opacity:1" cx="1287.51" cy="1021.38" r="14"/>
<circle clip-path="url(#clip7002)" style="fill:#000000; stroke:none; fill-opacity:1" cx="1581.94" cy="1235.34" r="18"/>
<circle clip-path="url(#clip7002)" style="fill:#0000ff; stroke:none; fill-opacity:1" cx="1581.94" cy="1235.34" r="14"/>
<circle clip-path="url(#clip7002)" style="fill:#000000; stroke:none; fill-opacity:1" cx="1404.63" cy="899.854" r="18"/>
<circle clip-path="url(#clip7002)" style="fill:#0000ff; stroke:none; fill-opacity:1" cx="1404.63" cy="899.854" r="14"/>
<circle clip-path="url(#clip7002)" style="fill:#000000; stroke:none; fill-opacity:1" cx="1298.48" cy="848.394" r="18"/>
<circle clip-path="url(#clip7002)" style="fill:#0000ff; stroke:none; fill-opacity:1" cx="1298.48" cy="848.394" r="14"/>
<circle clip-path="url(#clip7002)" style="fill:#000000; stroke:none; fill-opacity:1" cx="1793.18" cy="928.402" r="18"/>
<circle clip-path="url(#clip7002)" style="fill:#0000ff; stroke:none; fill-opacity:1" cx="1793.18" cy="928.402" r="14"/>
<circle clip-path="url(#clip7002)" style="fill:#000000; stroke:none; fill-opacity:1" cx="1655.94" cy="1094.99" r="18"/>
<circle clip-path="url(#clip7002)" style="fill:#0000ff; stroke:none; fill-opacity:1" cx="1655.94" cy="1094.99" r="14"/>
<circle clip-path="url(#clip7002)" style="fill:#000000; stroke:none; fill-opacity:1" cx="1454.05" cy="1284.99" r="18"/>
<circle clip-path="url(#clip7002)" style="fill:#0000ff; stroke:none; fill-opacity:1" cx="1454.05" cy="1284.99" r="14"/>
<circle clip-path="url(#clip7002)" style="fill:#000000; stroke:none; fill-opacity:1" cx="1300.45" cy="962.681" r="18"/>
<circle clip-path="url(#clip7002)" style="fill:#0000ff; stroke:none; fill-opacity:1" cx="1300.45" cy="962.681" r="14"/>
<circle clip-path="url(#clip7002)" style="fill:#000000; stroke:none; fill-opacity:1" cx="1758.1" cy="832.888" r="18"/>
<circle clip-path="url(#clip7002)" style="fill:#0000ff; stroke:none; fill-opacity:1" cx="1758.1" cy="832.888" r="14"/>
<circle clip-path="url(#clip7002)" style="fill:#000000; stroke:none; fill-opacity:1" cx="1795.7" cy="1115.91" r="18"/>
<circle clip-path="url(#clip7002)" style="fill:#0000ff; stroke:none; fill-opacity:1" cx="1795.7" cy="1115.91" r="14"/>
<circle clip-path="url(#clip7002)" style="fill:#000000; stroke:none; fill-opacity:1" cx="1283.29" cy="1095.07" r="18"/>
<circle clip-path="url(#clip7002)" style="fill:#0000ff; stroke:none; fill-opacity:1" cx="1283.29" cy="1095.07" r="14"/>
<circle clip-path="url(#clip7002)" style="fill:#000000; stroke:none; fill-opacity:1" cx="1487.32" cy="900.946" r="18"/>
<circle clip-path="url(#clip7002)" style="fill:#0000ff; stroke:none; fill-opacity:1" cx="1487.32" cy="900.946" r="14"/>
<circle clip-path="url(#clip7002)" style="fill:#000000; stroke:none; fill-opacity:1" cx="1449.08" cy="1048.85" r="18"/>
<circle clip-path="url(#clip7002)" style="fill:#0000ff; stroke:none; fill-opacity:1" cx="1449.08" cy="1048.85" r="14"/>
<circle clip-path="url(#clip7002)" style="fill:#000000; stroke:none; fill-opacity:1" cx="1734.22" cy="922.09" r="18"/>
<circle clip-path="url(#clip7002)" style="fill:#0000ff; stroke:none; fill-opacity:1" cx="1734.22" cy="922.09" r="14"/>
<circle clip-path="url(#clip7002)" style="fill:#000000; stroke:none; fill-opacity:1" cx="1404.69" cy="1326.67" r="18"/>
<circle clip-path="url(#clip7002)" style="fill:#0000ff; stroke:none; fill-opacity:1" cx="1404.69" cy="1326.67" r="14"/>
<circle clip-path="url(#clip7002)" style="fill:#000000; stroke:none; fill-opacity:1" cx="630.375" cy="284.546" r="18"/>
<circle clip-path="url(#clip7002)" style="fill:#0000ff; stroke:none; fill-opacity:1" cx="630.375" cy="284.546" r="14"/>
<circle clip-path="url(#clip7002)" style="fill:#000000; stroke:none; fill-opacity:1" cx="479.217" cy="487.412" r="18"/>
<circle clip-path="url(#clip7002)" style="fill:#0000ff; stroke:none; fill-opacity:1" cx="479.217" cy="487.412" r="14"/>
<circle clip-path="url(#clip7002)" style="fill:#000000; stroke:none; fill-opacity:1" cx="593.867" cy="359.193" r="18"/>
<circle clip-path="url(#clip7002)" style="fill:#0000ff; stroke:none; fill-opacity:1" cx="593.867" cy="359.193" r="14"/>
<circle clip-path="url(#clip7002)" style="fill:#000000; stroke:none; fill-opacity:1" cx="521.298" cy="521.075" r="18"/>
<circle clip-path="url(#clip7002)" style="fill:#0000ff; stroke:none; fill-opacity:1" cx="521.298" cy="521.075" r="14"/>
<circle clip-path="url(#clip7002)" style="fill:#000000; stroke:none; fill-opacity:1" cx="992.052" cy="560.509" r="18"/>
<circle clip-path="url(#clip7002)" style="fill:#0000ff; stroke:none; fill-opacity:1" cx="992.052" cy="560.509" r="14"/>
<circle clip-path="url(#clip7002)" style="fill:#000000; stroke:none; fill-opacity:1" cx="434.751" cy="355.965" r="18"/>
<circle clip-path="url(#clip7002)" style="fill:#0000ff; stroke:none; fill-opacity:1" cx="434.751" cy="355.965" r="14"/>
<circle clip-path="url(#clip7002)" style="fill:#000000; stroke:none; fill-opacity:1" cx="408.138" cy="541.406" r="18"/>
<circle clip-path="url(#clip7002)" style="fill:#0000ff; stroke:none; fill-opacity:1" cx="408.138" cy="541.406" r="14"/>
<circle clip-path="url(#clip7002)" style="fill:#000000; stroke:none; fill-opacity:1" cx="774.094" cy="499.254" r="18"/>
<circle clip-path="url(#clip7002)" style="fill:#0000ff; stroke:none; fill-opacity:1" cx="774.094" cy="499.254" r="14"/>
<circle clip-path="url(#clip7002)" style="fill:#000000; stroke:none; fill-opacity:1" cx="797.496" cy="403.191" r="18"/>
<circle clip-path="url(#clip7002)" style="fill:#0000ff; stroke:none; fill-opacity:1" cx="797.496" cy="403.191" r="14"/>
<circle clip-path="url(#clip7002)" style="fill:#000000; stroke:none; fill-opacity:1" cx="595.852" cy="688.136" r="18"/>
<circle clip-path="url(#clip7002)" style="fill:#0000ff; stroke:none; fill-opacity:1" cx="595.852" cy="688.136" r="14"/>
<circle clip-path="url(#clip7002)" style="fill:#000000; stroke:none; fill-opacity:1" cx="730.459" cy="244.193" r="18"/>
<circle clip-path="url(#clip7002)" style="fill:#0000ff; stroke:none; fill-opacity:1" cx="730.459" cy="244.193" r="14"/>
<circle clip-path="url(#clip7002)" style="fill:#000000; stroke:none; fill-opacity:1" cx="668.468" cy="521.042" r="18"/>
<circle clip-path="url(#clip7002)" style="fill:#0000ff; stroke:none; fill-opacity:1" cx="668.468" cy="521.042" r="14"/>
<circle clip-path="url(#clip7002)" style="fill:#000000; stroke:none; fill-opacity:1" cx="488.393" cy="653.155" r="18"/>
<circle clip-path="url(#clip7002)" style="fill:#0000ff; stroke:none; fill-opacity:1" cx="488.393" cy="653.155" r="14"/>
<circle clip-path="url(#clip7002)" style="fill:#000000; stroke:none; fill-opacity:1" cx="830.425" cy="369.282" r="18"/>
<circle clip-path="url(#clip7002)" style="fill:#0000ff; stroke:none; fill-opacity:1" cx="830.425" cy="369.282" r="14"/>
<circle clip-path="url(#clip7002)" style="fill:#000000; stroke:none; fill-opacity:1" cx="1070.49" cy="639.174" r="18"/>
<circle clip-path="url(#clip7002)" style="fill:#0000ff; stroke:none; fill-opacity:1" cx="1070.49" cy="639.174" r="14"/>
<circle clip-path="url(#clip7002)" style="fill:#000000; stroke:none; fill-opacity:1" cx="726.818" cy="669.309" r="18"/>
<circle clip-path="url(#clip7002)" style="fill:#0000ff; stroke:none; fill-opacity:1" cx="726.818" cy="669.309" r="14"/>
<circle clip-path="url(#clip7002)" style="fill:#000000; stroke:none; fill-opacity:1" cx="835.354" cy="471.337" r="18"/>
<circle clip-path="url(#clip7002)" style="fill:#0000ff; stroke:none; fill-opacity:1" cx="835.354" cy="471.337" r="14"/>
<circle clip-path="url(#clip7002)" style="fill:#000000; stroke:none; fill-opacity:1" cx="958.722" cy="204.29" r="18"/>
<circle clip-path="url(#clip7002)" style="fill:#0000ff; stroke:none; fill-opacity:1" cx="958.722" cy="204.29" r="14"/>
<circle clip-path="url(#clip7002)" style="fill:#000000; stroke:none; fill-opacity:1" cx="672.357" cy="529.45" r="18"/>
<circle clip-path="url(#clip7002)" style="fill:#0000ff; stroke:none; fill-opacity:1" cx="672.357" cy="529.45" r="14"/>
<circle clip-path="url(#clip7002)" style="fill:#000000; stroke:none; fill-opacity:1" cx="513.272" cy="626.609" r="18"/>
<circle clip-path="url(#clip7002)" style="fill:#0000ff; stroke:none; fill-opacity:1" cx="513.272" cy="626.609" r="14"/>
<polyline clip-path="url(#clip7002)" style="stroke:#f2e763; stroke-width:4; stroke-opacity:1; fill:none" points="
  236.652,1350.4 270.868,1333.49 312.546,1302.97 388.44,1282.61 396.258,1276.87 464.334,1232.41 480.821,1220.26 540.229,1177.31 558.733,1163.65 616.123,1122.06 
  
  "/>
<polyline clip-path="url(#clip7002)" style="stroke:#f88c0a; stroke-width:4; stroke-opacity:1; fill:none" points="
  236.652,849.278 312.546,843.323 388.44,837.476 464.334,827.145 487.266,823.972 540.229,817.915 616.123,811.178 692.017,803.505 767.911,798.366 843.805,793.901 
  919.699,790.703 995.594,787.288 1071.49,806.653 1083.76,823.972 1086.88,880.585 1083.97,937.198 1079.83,993.811 1076.13,1050.42 1071.49,1098.02 1069.33,1107.04 
  1059.51,1163.65 1051,1220.26 1043.77,1276.87 1036.62,1333.49 1028.97,1390.1 1022.39,1446.71 
  "/>
<polyline clip-path="url(#clip7002)" style="stroke:#e25832; stroke-width:4; stroke-opacity:1; fill:none" points="
  1070.95,1446.71 1071.49,1442 1075.96,1390.1 1079.31,1333.49 1083.74,1276.87 1087.97,1220.26 1092.02,1163.65 1095.61,1107.04 1098.74,1050.42 1100.69,993.811 
  1103.09,937.198 1105.68,880.585 1102.33,823.972 1071.49,780.467 1020.16,767.359 995.594,764.191 919.699,764.55 843.805,764.624 767.911,764.712 692.017,766.148 
  632.912,767.359 616.123,767.881 540.229,769.812 464.334,772.031 388.44,774.862 312.546,777.378 236.652,779.676 
  "/>
<polyline clip-path="url(#clip7002)" style="stroke:#f0711e; stroke-width:4; stroke-opacity:1; fill:none" points="
  236.652,819.513 312.546,813.58 388.44,807.427 464.334,799.499 540.229,793.863 616.123,789.529 692.017,784.631 767.911,780.733 843.805,778.218 919.699,776.338 
  995.594,774.185 1071.49,793.56 1093.04,823.972 1096.28,880.585 1093.53,937.198 1090.26,993.811 1087.44,1050.42 1083.06,1107.04 1078.46,1163.65 1073.26,1220.26 
  1071.49,1239.17 1066.13,1276.87 1059.09,1333.49 1053.15,1390.1 1046.67,1446.71 
  "/>
<polyline clip-path="url(#clip7002)" style="stroke:#fbaa0f; stroke-width:4; stroke-opacity:1; fill:none" points="
  998.113,1446.71 1004.79,1390.1 1014.16,1333.49 1021.41,1276.87 1027.72,1220.26 1034.86,1163.65 1041.58,1107.04 1052.42,1050.42 1064.21,993.811 1071.49,971.406 
  1074.41,937.198 1077.48,880.585 1074.48,823.972 1071.49,819.746 995.594,800.39 919.699,805.067 843.805,809.584 767.911,815.999 692.017,822.378 679.023,823.972 
  616.123,835.723 540.229,846.022 464.334,856.24 388.44,864.927 312.546,870.465 236.652,877.774 
  "/>
<polyline clip-path="url(#clip7002)" style="stroke:#f8c933; stroke-width:4; stroke-opacity:1; fill:none" points="
  236.652,932.362 312.546,909.828 388.44,899.917 464.334,888.554 501.211,880.585 540.229,875.494 616.123,864.456 692.017,851.927 767.911,843.868 843.805,828.184 
  859.528,823.972 919.699,819.432 995.594,813.493 1036.69,823.972 1050.29,880.585 1038.95,937.198 1027.93,993.811 1020.07,1050.42 1013.84,1107.04 1010.21,1163.65 
  1004.44,1220.26 999.048,1276.87 995.594,1303.52 979.524,1333.49 955.511,1390.1 944.037,1446.71 
  "/>
<polyline clip-path="url(#clip7002)" style="stroke:#a12b61; stroke-width:4; stroke-opacity:1; fill:none" points="
  1130.85,1446.71 1131.38,1390.1 1131.73,1333.49 1132.09,1276.87 1132.11,1220.26 1132.69,1163.65 1133.26,1107.04 1132.67,1050.42 1131.99,993.811 1131.77,937.198 
  1133.88,880.585 1130.17,823.972 1112.77,767.359 1071.49,752.335 995.594,744.349 919.699,742.074 843.805,737.946 767.911,731.826 692.017,723.303 616.123,714.898 
  561.008,710.747 540.229,709.656 464.334,707.212 388.44,704.105 312.546,701.564 236.652,699.62 
  "/>
<polyline clip-path="url(#clip7002)" style="stroke:#6e186e; stroke-width:4; stroke-opacity:1; fill:none" points="
  236.652,661.534 312.546,664.828 388.44,669.788 464.334,677.909 540.229,685.091 616.123,691.464 692.017,698.698 767.911,709.73 773.056,710.747 843.805,720.161 
  919.699,727.09 995.594,731.12 1071.49,737.303 1112.66,710.747 1104.99,654.134 1102.26,597.521 1102.68,540.908 1104.59,484.295 1105.84,427.682 1106.97,371.07 
  1107.16,314.457 1106.56,257.844 1104.77,201.231 1102.27,144.618 1100.22,88.0053 
  "/>
<polyline clip-path="url(#clip7002)" style="stroke:#550f6d; stroke-width:4; stroke-opacity:1; fill:none" points="
  1082.73,88.0053 1085.83,144.618 1089.44,201.231 1092.35,257.844 1094.33,314.457 1094.93,371.07 1094.57,427.682 1094.04,484.295 1092.94,540.908 1093.08,597.521 
  1095.89,654.134 1101,710.747 1071.49,729.786 995.594,724.506 919.699,719.598 843.805,711.268 839.887,710.747 767.911,696.532 692.017,687.949 616.123,680.536 
  540.229,672.808 464.334,663.257 397.804,654.134 388.44,652.402 312.546,644.98 236.652,638.827 
  "/>
<polyline clip-path="url(#clip7002)" style="stroke:#3b0963; stroke-width:4; stroke-opacity:1; fill:none" points="
  236.652,613.79 312.546,623.071 388.44,632.643 464.334,645.841 496.234,654.134 540.229,660.525 616.123,669.608 692.017,677.199 767.911,683.333 843.805,693.91 
  907.434,710.747 919.699,712.106 995.594,717.892 1071.49,722.27 1089.35,710.747 1086.79,654.134 1083.9,597.521 1083.21,540.908 1083.49,484.295 1083.31,427.682 
  1082.9,371.07 1081.5,314.457 1078.15,257.844 1074.12,201.231 1071.49,168.841 1065.17,144.618 1056.07,88.0053 
  "/>
<polyline clip-path="url(#clip7002)" style="stroke:#1f0b46; stroke-width:4; stroke-opacity:1; fill:none" points="
  1012.96,88.0053 1015.96,144.618 1021.1,201.231 1030.15,257.844 1049.64,314.457 1066.52,371.07 1071.49,399.978 1072.05,427.682 1072.94,484.295 1073.47,540.908 
  1074.72,597.521 1077.7,654.134 1077.7,710.747 1071.49,714.754 995.594,711.278 988.808,710.747 919.699,687.485 843.805,676.025 767.911,670.134 692.017,666.449 
  616.123,658.68 580.871,654.134 540.229,638.109 464.334,623.863 388.44,612.883 312.546,601.162 288.118,597.521 236.652,584.168 
  "/>
<polyline clip-path="url(#clip7002)" style="stroke:#0a0622; stroke-width:4; stroke-opacity:1; fill:none" points="
  236.652,546.035 312.546,552.158 388.44,568.62 428.549,597.521 464.334,601.885 540.229,604.7 616.123,612.949 676.866,654.134 692.017,655.7 767.911,656.936 
  843.805,658.14 919.699,659.067 995.594,662.242 1020.37,654.134 1004.01,597.521 999.382,540.908 995.658,484.295 995.594,483.451 928.775,427.682 920.558,371.07 
  920.148,314.457 919.751,257.844 919.699,257.078 845.952,201.231 843.805,148.233 841.224,144.618 843.805,141.862 844.137,88.0053 
  "/>
<polyline clip-path="url(#clip7002)" style="stroke:#88216a; stroke-width:4; stroke-opacity:1; fill:none" points="
  1117.72,88.0053 1118.72,144.618 1120.1,201.231 1120.76,257.844 1119.99,314.457 1119,371.07 1117.1,427.682 1115.14,484.295 1112.42,540.908 1111.44,597.521 
  1114.08,654.134 1124.31,710.747 1071.49,744.819 995.594,737.735 919.699,734.582 843.805,729.053 767.911,720.864 700.8,710.747 692.017,709.448 616.123,702.392 
  540.229,697.373 464.334,692.56 388.44,686.946 312.546,683.196 236.652,680.577 
  "/>
<polyline clip-path="url(#clip7002)" style="stroke:#ba3655; stroke-width:4; stroke-opacity:1; fill:none" points="
  236.652,721.919 312.546,723.481 388.44,725.31 464.334,727.34 540.229,729.11 616.123,732.527 692.017,737.585 767.911,742.788 843.805,746.839 919.699,749.566 
  995.594,750.963 1071.49,759.851 1092.12,767.359 1120.89,823.972 1124.48,880.585 1122.21,937.198 1121.56,993.811 1121.36,1050.42 1120.71,1107.04 1119.13,1163.65 
  1117.4,1220.26 1115.97,1276.87 1114.26,1333.49 1112.91,1390.1 1110.92,1446.71 
  "/>
<polyline clip-path="url(#clip7002)" style="stroke:#d04544; stroke-width:4; stroke-opacity:1; fill:none" points="
  1090.98,1446.71 1094.43,1390.1 1096.79,1333.49 1099.86,1276.87 1102.68,1220.26 1105.57,1163.65 1108.16,1107.04 1110.05,1050.42 1111.13,993.811 1112.65,937.198 
  1115.08,880.585 1111.61,823.972 1071.49,767.373 1071.43,767.359 995.594,757.577 919.699,757.058 843.805,755.731 767.911,753.75 692.017,751.866 616.123,750.155 
  540.229,749.262 464.334,749.209 388.44,749.072 312.546,748.944 236.652,748.794 
  "/>
<polyline clip-path="url(#clip7002)" style="stroke:#f2e763; stroke-width:4; stroke-opacity:1; fill:none" points="
  236.652,1025.11 294.614,993.811 312.546,992.032 388.44,984.525 464.334,942.046 472.048,937.198 540.229,935.206 616.123,932.915 692.017,916.658 756.487,880.585 
  767.911,880.189 843.805,879.187 919.699,878.482 941.94,880.585 919.699,899.374 870.405,937.198 843.805,955.163 797.932,993.811 767.911,1015.56 717.498,1050.42 
  692.017,1069.18 636.478,1107.04 616.123,1122.06 
  "/>
<polyline clip-path="url(#clip7002)" style="stroke:#3b0963; stroke-width:4; stroke-opacity:1; fill:none" points="
  1218.38,1446.71 1214.43,1390.1 1211.34,1333.49 1206.96,1276.87 1201.96,1220.26 1198.69,1163.65 1196.12,1107.04 1192.07,1050.42 1189.92,993.811 1188.32,937.198 
  1189.6,880.585 1186.28,823.972 1223.28,800.257 1299.17,801.385 1375.06,805.552 1450.96,813.964 1506.77,823.972 1526.85,833.53 1602.75,847.493 1678.64,858.773 
  1754.54,868.106 1812.07,880.585 1830.43,890.026 1906.32,911.349 1982.22,917.737 2058.11,925.022 
  "/>
<polyline clip-path="url(#clip7002)" style="stroke:#550f6d; stroke-width:4; stroke-opacity:1; fill:none" points="
  2058.11,899.545 1982.22,890.426 1915.46,880.585 1906.32,879.17 1830.43,861.343 1754.54,847.678 1678.64,836.257 1625.26,823.972 1602.75,820.912 1526.85,814.87 
  1450.96,803.107 1375.06,796.255 1299.17,791.049 1223.28,788.632 1168.15,823.972 1173.13,880.585 1171.03,937.198 1173.07,993.811 1175.51,1050.42 1179.17,1107.04 
  1181.09,1163.65 1183.54,1220.26 1187.44,1276.87 1190.73,1333.49 1193.04,1390.1 1195.99,1446.71 
  "/>
<polyline clip-path="url(#clip7002)" style="stroke:#6e186e; stroke-width:4; stroke-opacity:1; fill:none" points="
  1173.6,1446.71 1171.64,1390.1 1170.13,1333.49 1167.91,1276.87 1165.11,1220.26 1163.5,1163.65 1162.22,1107.04 1158.95,1050.42 1156.22,993.811 1153.73,937.198 
  1156.67,880.585 1150.02,823.972 1223.28,777.006 1299.17,780.713 1375.06,786.958 1450.96,792.25 1526.85,801.25 1602.75,807.612 1678.64,816.796 1734.73,823.972 
  1754.54,827.251 1830.43,837.444 1906.32,850.476 1982.22,861.402 2058.11,872.424 
  "/>
<polyline clip-path="url(#clip7002)" style="stroke:#88216a; stroke-width:4; stroke-opacity:1; fill:none" points="
  2058.11,840.519 1982.22,831.414 1924.18,823.972 1906.32,822.505 1830.43,816.139 1754.54,809.245 1678.64,801.002 1602.75,794.312 1526.85,787.629 1450.96,781.394 
  1375.06,777.661 1299.17,770.377 1251.23,767.359 1223.28,765.992 1147.38,752.949 1133.42,767.359 1139.45,823.972 1143.28,880.585 1141.33,937.198 1142.43,993.811 
  1143.98,1050.42 1145.81,1107.04 1146.25,1163.65 1146.82,1220.26 1147.38,1244.36 1148.38,1276.87 1149.53,1333.49 1150.25,1390.1 1151.21,1446.71 
  "/>
<polyline clip-path="url(#clip7002)" style="stroke:#1f0b46; stroke-width:4; stroke-opacity:1; fill:none" points="
  1258.52,1446.71 1252.32,1390.1 1244.64,1333.49 1232.55,1276.87 1223.28,1247.88 1220.39,1220.26 1216.28,1163.65 1213.07,1107.04 1208.62,1050.42 1206.76,993.811 
  1205.62,937.198 1206.06,880.585 1204.42,823.972 1223.28,811.883 1299.17,811.721 1375.06,814.849 1445.36,823.972 1450.96,828.086 1526.85,862.343 1602.75,878.045 
  1657.91,880.585 1678.64,886.138 1754.54,929.032 1808.7,937.198 1830.43,945.211 1906.32,980.816 1974.54,993.811 1982.22,997.442 2058.11,1035.63 
  "/>
<polyline clip-path="url(#clip7002)" style="stroke:#0a0622; stroke-width:4; stroke-opacity:1; fill:none" points="
  2058.11,1171.17 2043.5,1163.65 1982.22,1152.42 1919.98,1107.04 1906.32,1102.66 1830.43,1062.26 1807.17,1050.42 1754.54,1041.94 1688.36,993.811 1678.64,989.761 
  1602.75,965.499 1558.38,937.198 1526.85,926.652 1450.96,881.25 1450.08,880.585 1375.06,828.592 1368.11,823.972 1299.17,822.057 1223.28,823.509 1222.55,823.972 
  1222.52,880.585 1222.92,937.198 1223.28,966.195 1230.39,993.811 1251.9,1050.42 1274.66,1107.04 1280.99,1163.65 1285.27,1220.26 1288.87,1276.87 1295.43,1333.49 
  1299.17,1366.14 1315.26,1390.1 1324.26,1446.71 
  "/>
<polyline clip-path="url(#clip7002)" style="stroke:#a12b61; stroke-width:4; stroke-opacity:1; fill:none" points="
  2058.11,813.079 1982.22,808.123 1906.32,803.294 1830.43,798.187 1754.54,791.703 1678.64,785.208 1602.75,781.012 1526.85,774.009 1450.96,770.537 1375.06,768.364 
  1365.02,767.359 1299.17,761.914 1223.28,757.959 1147.38,731.638 1135.96,710.747 1123.18,654.134 1120.62,597.521 1122.16,540.908 1125.69,484.295 1128.37,427.682 
  1131.04,371.07 1132.81,314.457 1134.97,257.844 1135.42,201.231 1135.17,144.618 1135.21,88.0053 
  "/>
<polyline clip-path="url(#clip7002)" style="stroke:#ba3655; stroke-width:4; stroke-opacity:1; fill:none" points="
  1152.17,88.0053 1151.08,144.618 1150.28,201.231 1148.96,257.844 1147.38,285.115 1145.64,314.457 1143.07,371.07 1139.63,427.682 1136.24,484.295 1131.89,540.908 
  1129.8,597.521 1132.27,654.134 1147.38,710.085 1147.69,710.747 1223.28,749.926 1299.17,754.224 1375.06,759.942 1450.96,761.636 1526.85,763.028 1599.01,767.359 
  1602.75,767.712 1678.64,769.415 1754.54,774.16 1830.43,780.234 1906.32,784.083 1982.22,787.043 2058.11,790.449 
  "/>
<polyline clip-path="url(#clip7002)" style="stroke:#d04544; stroke-width:4; stroke-opacity:1; fill:none" points="
  2058.11,767.819 2040.3,767.359 1982.22,766.337 1906.32,765.492 1830.43,763.481 1754.54,759.966 1678.64,757.719 1602.75,757.313 1526.85,754.565 1450.96,753.544 
  1375.06,751.626 1299.17,746.533 1223.28,741.893 1163.18,710.747 1147.38,676.403 1141.37,654.134 1138.97,597.521 1141.63,540.908 1146.79,484.295 1147.38,475.714 
  1151.36,427.682 1155.19,371.07 1157.74,314.457 1161.47,257.844 1163.46,201.231 1165.43,144.618 1167.9,88.0053 
  "/>
<polyline clip-path="url(#clip7002)" style="stroke:#e25832; stroke-width:4; stroke-opacity:1; fill:none" points="
  1183.64,88.0053 1179.78,144.618 1176.64,201.231 1173.97,257.844 1169.72,314.457 1167.35,371.07 1164.11,427.682 1160.17,484.295 1153.49,540.908 1148.72,597.521 
  1152.46,654.134 1178.68,710.747 1223.28,733.86 1299.17,738.843 1375.06,743.31 1450.96,745.453 1526.85,746.102 1602.75,746.994 1678.64,746.635 1754.54,747.891 
  1830.43,749.771 1906.32,751.067 1982.22,750.911 2058.11,750.624 
  "/>
<polyline clip-path="url(#clip7002)" style="stroke:#f0711e; stroke-width:4; stroke-opacity:1; fill:none" points="
  2058.11,733.542 1982.22,735.484 1906.32,736.642 1830.43,736.06 1754.54,735.817 1678.64,735.552 1602.75,736.674 1526.85,737.639 1450.96,737.361 1375.06,734.994 
  1299.17,731.152 1223.28,725.827 1194.18,710.747 1167.46,654.134 1164.62,597.521 1168.42,540.908 1173.7,484.295 1176.86,427.682 1179.51,371.07 1181.7,314.457 
  1186.48,257.844 1189.83,201.231 1194.13,144.618 1199.37,88.0053 
  "/>
<polyline clip-path="url(#clip7002)" style="stroke:#f88c0a; stroke-width:4; stroke-opacity:1; fill:none" points="
  1215.11,88.0053 1208.48,144.618 1203.01,201.231 1198.99,257.844 1193.68,314.457 1191.68,371.07 1189.61,427.682 1187.24,484.295 1183.35,540.908 1180.52,597.521 
  1182.46,654.134 1209.68,710.747 1223.28,717.794 1299.17,723.462 1375.06,726.678 1450.96,729.27 1526.85,729.176 1602.75,726.355 1678.64,724.469 1754.54,723.742 
  1830.43,722.35 1906.32,722.218 1982.22,720.057 2058.11,716.459 
  "/>
<polyline clip-path="url(#clip7002)" style="stroke:#fbaa0f; stroke-width:4; stroke-opacity:1; fill:none" points="
  2058.11,686.069 1982.22,693.843 1906.32,701.602 1830.43,705.252 1779.72,710.747 1754.54,711.668 1678.64,713.386 1602.75,716.035 1526.85,720.713 1450.96,721.178 
  1375.06,718.362 1299.17,715.771 1235.28,710.747 1223.28,706.979 1197.46,654.134 1196.42,597.521 1198.28,540.908 1200.78,484.295 1202.36,427.682 1203.84,371.07 
  1205.66,314.457 1211.5,257.844 1216.19,201.231 1222.83,144.618 1223.28,141.21 1240.23,88.0053 
  "/>
<polyline clip-path="url(#clip7002)" style="stroke:#f8c933; stroke-width:4; stroke-opacity:1; fill:none" points="
  1275.47,88.0053 1268.05,144.618 1254.16,201.231 1229.34,257.844 1223.28,264.115 1217.64,314.457 1216,371.07 1215.11,427.682 1214.32,484.295 1213.21,540.908 
  1212.33,597.521 1212.46,654.134 1223.28,676.277 1299.17,695.171 1375.06,705.931 1392.18,710.747 1450.96,713.087 1526.85,712.25 1547.13,710.747 1602.75,690.617 
  1678.64,684.418 1754.54,680.964 1830.43,669.505 1906.32,656.936 1942.56,654.134 1982.22,649.891 2058.11,644.769 
  "/>
<defs>
  <clipPath id="clip7003">
    <rect x="2160" y="47" width="73" height="1441"/>
  </clipPath>
</defs>
<polyline clip-path="url(#clip7003)" style="stroke:#0b0724; stroke-width:4; stroke-opacity:1; fill:none" points="
  2160.76,1397.46 2232.76,1397.46 
  "/>
<polyline clip-path="url(#clip7003)" style="stroke:#200b49; stroke-width:4; stroke-opacity:1; fill:none" points="
  2160.76,1307.45 2232.76,1307.45 
  "/>
<polyline clip-path="url(#clip7003)" style="stroke:#3c0964; stroke-width:4; stroke-opacity:1; fill:none" points="
  2160.76,1217.43 2232.76,1217.43 
  "/>
<polyline clip-path="url(#clip7003)" style="stroke:#57106d; stroke-width:4; stroke-opacity:1; fill:none" points="
  2160.76,1127.42 2232.76,1127.42 
  "/>
<polyline clip-path="url(#clip7003)" style="stroke:#70196e; stroke-width:4; stroke-opacity:1; fill:none" points="
  2160.76,1037.4 2232.76,1037.4 
  "/>
<polyline clip-path="url(#clip7003)" style="stroke:#8a2269; stroke-width:4; stroke-opacity:1; fill:none" points="
  2160.76,947.388 2232.76,947.388 
  "/>
<polyline clip-path="url(#clip7003)" style="stroke:#a32b61; stroke-width:4; stroke-opacity:1; fill:none" points="
  2160.76,857.374 2232.76,857.374 
  "/>
<polyline clip-path="url(#clip7003)" style="stroke:#bb3754; stroke-width:4; stroke-opacity:1; fill:none" points="
  2160.76,767.359 2232.76,767.359 
  "/>
<polyline clip-path="url(#clip7003)" style="stroke:#d04544; stroke-width:4; stroke-opacity:1; fill:none" points="
  2160.76,677.345 2232.76,677.345 
  "/>
<polyline clip-path="url(#clip7003)" style="stroke:#e25832; stroke-width:4; stroke-opacity:1; fill:none" points="
  2160.76,587.331 2232.76,587.331 
  "/>
<polyline clip-path="url(#clip7003)" style="stroke:#f0711e; stroke-width:4; stroke-opacity:1; fill:none" points="
  2160.76,497.316 2232.76,497.316 
  "/>
<polyline clip-path="url(#clip7003)" style="stroke:#f88c0a; stroke-width:4; stroke-opacity:1; fill:none" points="
  2160.76,407.302 2232.76,407.302 
  "/>
<polyline clip-path="url(#clip7003)" style="stroke:#fbaa0f; stroke-width:4; stroke-opacity:1; fill:none" points="
  2160.76,317.287 2232.76,317.287 
  "/>
<polyline clip-path="url(#clip7003)" style="stroke:#f8c933; stroke-width:4; stroke-opacity:1; fill:none" points="
  2160.76,227.273 2232.76,227.273 
  "/>
<polyline clip-path="url(#clip7003)" style="stroke:#f2e763; stroke-width:4; stroke-opacity:1; fill:none" points="
  2160.76,137.259 2232.76,137.259 
  "/>
<g clip-path="url(#clip7000)">
<text style="fill:#000000; fill-opacity:1; font-family:Arial,Helvetica Neue,Helvetica,sans-serif; font-size:48px; text-anchor:start;" transform="rotate(0, 2268.76, 1501.13)" x="2268.76" y="1501.13">0</text>
</g>
<g clip-path="url(#clip7000)">
<text style="fill:#000000; fill-opacity:1; font-family:Arial,Helvetica Neue,Helvetica,sans-serif; font-size:48px; text-anchor:start;" transform="rotate(0, 2268.76, 1357.1)" x="2268.76" y="1357.1">0.1</text>
</g>
<g clip-path="url(#clip7000)">
<text style="fill:#000000; fill-opacity:1; font-family:Arial,Helvetica Neue,Helvetica,sans-serif; font-size:48px; text-anchor:start;" transform="rotate(0, 2268.76, 1213.08)" x="2268.76" y="1213.08">0.2</text>
</g>
<g clip-path="url(#clip7000)">
<text style="fill:#000000; fill-opacity:1; font-family:Arial,Helvetica Neue,Helvetica,sans-serif; font-size:48px; text-anchor:start;" transform="rotate(0, 2268.76, 1069.06)" x="2268.76" y="1069.06">0.3</text>
</g>
<g clip-path="url(#clip7000)">
<text style="fill:#000000; fill-opacity:1; font-family:Arial,Helvetica Neue,Helvetica,sans-serif; font-size:48px; text-anchor:start;" transform="rotate(0, 2268.76, 925.034)" x="2268.76" y="925.034">0.4</text>
</g>
<g clip-path="url(#clip7000)">
<text style="fill:#000000; fill-opacity:1; font-family:Arial,Helvetica Neue,Helvetica,sans-serif; font-size:48px; text-anchor:start;" transform="rotate(0, 2268.76, 781.011)" x="2268.76" y="781.011">0.5</text>
</g>
<g clip-path="url(#clip7000)">
<text style="fill:#000000; fill-opacity:1; font-family:Arial,Helvetica Neue,Helvetica,sans-serif; font-size:48px; text-anchor:start;" transform="rotate(0, 2268.76, 636.988)" x="2268.76" y="636.988">0.6</text>
</g>
<g clip-path="url(#clip7000)">
<text style="fill:#000000; fill-opacity:1; font-family:Arial,Helvetica Neue,Helvetica,sans-serif; font-size:48px; text-anchor:start;" transform="rotate(0, 2268.76, 492.964)" x="2268.76" y="492.964">0.7</text>
</g>
<g clip-path="url(#clip7000)">
<text style="fill:#000000; fill-opacity:1; font-family:Arial,Helvetica Neue,Helvetica,sans-serif; font-size:48px; text-anchor:start;" transform="rotate(0, 2268.76, 348.941)" x="2268.76" y="348.941">0.8</text>
</g>
<g clip-path="url(#clip7000)">
<text style="fill:#000000; fill-opacity:1; font-family:Arial,Helvetica Neue,Helvetica,sans-serif; font-size:48px; text-anchor:start;" transform="rotate(0, 2268.76, 204.918)" x="2268.76" y="204.918">0.9</text>
</g>
<g clip-path="url(#clip7000)">
<text style="fill:#000000; fill-opacity:1; font-family:Arial,Helvetica Neue,Helvetica,sans-serif; font-size:48px; text-anchor:start;" transform="rotate(0, 2268.76, 60.8953)" x="2268.76" y="60.8953">1.0</text>
</g>
<polyline clip-path="url(#clip7000)" style="stroke:#000000; stroke-width:4; stroke-opacity:1; fill:none" points="
  2232.76,1487.47 2232.76,1487.47 2256.76,1487.47 2232.76,1487.47 2232.76,1343.45 2256.76,1343.45 2232.76,1343.45 2232.76,1199.43 2256.76,1199.43 2232.76,1199.43 
  2232.76,1055.41 2256.76,1055.41 2232.76,1055.41 2232.76,911.382 2256.76,911.382 2232.76,911.382 2232.76,767.359 2256.76,767.359 2232.76,767.359 2232.76,623.336 
  2256.76,623.336 2232.76,623.336 2232.76,479.313 2256.76,479.313 2232.76,479.313 2232.76,335.29 2256.76,335.29 2232.76,335.29 2232.76,191.267 2256.76,191.267 
  2232.76,191.267 2232.76,47.2441 2256.76,47.2441 2232.76,47.2441 
  "/>
<path clip-path="url(#clip7000)" d="
M1749.93 312.204 L2040.76 312.204 L2040.76 130.764 L1749.93 130.764  Z
  " fill="#ffffff" fill-rule="evenodd" fill-opacity="1"/>
<polyline clip-path="url(#clip7000)" style="stroke:#000000; stroke-width:4; stroke-opacity:1; fill:none" points="
  1749.93,312.204 2040.76,312.204 2040.76,130.764 1749.93,130.764 1749.93,312.204 
  "/>
<circle clip-path="url(#clip7000)" style="fill:#000000; stroke:none; fill-opacity:1" cx="1857.93" cy="191.244" r="25"/>
<circle clip-path="url(#clip7000)" style="fill:#ff0000; stroke:none; fill-opacity:1" cx="1857.93" cy="191.244" r="21"/>
<g clip-path="url(#clip7000)">
<text style="fill:#000000; fill-opacity:1; font-family:Arial,Helvetica Neue,Helvetica,sans-serif; font-size:48px; text-anchor:start;" transform="rotate(0, 1941.93, 208.744)" x="1941.93" y="208.744">y1</text>
</g>
<circle clip-path="url(#clip7000)" style="fill:#000000; stroke:none; fill-opacity:1" cx="1857.93" cy="251.724" r="25"/>
<circle clip-path="url(#clip7000)" style="fill:#0000ff; stroke:none; fill-opacity:1" cx="1857.93" cy="251.724" r="21"/>
<g clip-path="url(#clip7000)">
<text style="fill:#000000; fill-opacity:1; font-family:Arial,Helvetica Neue,Helvetica,sans-serif; font-size:48px; text-anchor:start;" transform="rotate(0, 1941.93, 269.224)" x="1941.93" y="269.224">y2</text>
</g>
</svg>
