<?xml version="1.0" encoding="utf-8"?>
<svg xmlns="http://www.w3.org/2000/svg" xmlns:xlink="http://www.w3.org/1999/xlink" width="600" height="400" viewBox="0 0 2400 1600">
<defs>
  <clipPath id="clip8300">
    <rect x="0" y="0" width="2400" height="1600"/>
  </clipPath>
</defs>
<path clip-path="url(#clip8300)" d="
M0 1600 L2400 1600 L2400 0 L0 0  Z
  " fill="#ffffff" fill-rule="evenodd" fill-opacity="1"/>
<defs>
  <clipPath id="clip8301">
    <rect x="480" y="0" width="1681" height="1600"/>
  </clipPath>
</defs>
<path clip-path="url(#clip8300)" d="
M182.008 1487.47 L2112.76 1487.47 L2112.76 47.2441 L182.008 47.2441  Z
  " fill="#ffffff" fill-rule="evenodd" fill-opacity="1"/>
<defs>
  <clipPath id="clip8302">
    <rect x="182" y="47" width="1932" height="1441"/>
  </clipPath>
</defs>
<polyline clip-path="url(#clip8302)" style="stroke:#000000; stroke-width:2; stroke-opacity:0.1; fill:none" points="
  388.44,1487.47 388.44,47.2441 
  "/>
<polyline clip-path="url(#clip8302)" style="stroke:#000000; stroke-width:2; stroke-opacity:0.1; fill:none" points="
  767.911,1487.47 767.911,47.2441 
  "/>
<polyline clip-path="url(#clip8302)" style="stroke:#000000; stroke-width:2; stroke-opacity:0.1; fill:none" points="
  1147.38,1487.47 1147.38,47.2441 
  "/>
<polyline clip-path="url(#clip8302)" style="stroke:#000000; stroke-width:2; stroke-opacity:0.1; fill:none" points="
  1526.85,1487.47 1526.85,47.2441 
  "/>
<polyline clip-path="url(#clip8302)" style="stroke:#000000; stroke-width:2; stroke-opacity:0.1; fill:none" points="
  1906.32,1487.47 1906.32,47.2441 
  "/>
<polyline clip-path="url(#clip8302)" style="stroke:#000000; stroke-width:2; stroke-opacity:0.1; fill:none" points="
  182.008,1333.49 2112.76,1333.49 
  "/>
<polyline clip-path="url(#clip8302)" style="stroke:#000000; stroke-width:2; stroke-opacity:0.1; fill:none" points="
  182.008,1050.42 2112.76,1050.42 
  "/>
<polyline clip-path="url(#clip8302)" style="stroke:#000000; stroke-width:2; stroke-opacity:0.1; fill:none" points="
  182.008,767.359 2112.76,767.359 
  "/>
<polyline clip-path="url(#clip8302)" style="stroke:#000000; stroke-width:2; stroke-opacity:0.1; fill:none" points="
  182.008,484.295 2112.76,484.295 
  "/>
<polyline clip-path="url(#clip8302)" style="stroke:#000000; stroke-width:2; stroke-opacity:0.1; fill:none" points="
  182.008,201.231 2112.76,201.231 
  "/>
<polyline clip-path="url(#clip8300)" style="stroke:#000000; stroke-width:4; stroke-opacity:1; fill:none" points="
  182.008,1487.47 2112.76,1487.47 
  "/>
<polyline clip-path="url(#clip8300)" style="stroke:#000000; stroke-width:4; stroke-opacity:1; fill:none" points="
  182.008,1487.47 182.008,47.2441 
  "/>
<polyline clip-path="url(#clip8300)" style="stroke:#000000; stroke-width:4; stroke-opacity:1; fill:none" points="
  388.44,1487.47 388.44,1470.19 
  "/>
<polyline clip-path="url(#clip8300)" style="stroke:#000000; stroke-width:4; stroke-opacity:1; fill:none" points="
  767.911,1487.47 767.911,1470.19 
  "/>
<polyline clip-path="url(#clip8300)" style="stroke:#000000; stroke-width:4; stroke-opacity:1; fill:none" points="
  1147.38,1487.47 1147.38,1470.19 
  "/>
<polyline clip-path="url(#clip8300)" style="stroke:#000000; stroke-width:4; stroke-opacity:1; fill:none" points="
  1526.85,1487.47 1526.85,1470.19 
  "/>
<polyline clip-path="url(#clip8300)" style="stroke:#000000; stroke-width:4; stroke-opacity:1; fill:none" points="
  1906.32,1487.47 1906.32,1470.19 
  "/>
<polyline clip-path="url(#clip8300)" style="stroke:#000000; stroke-width:4; stroke-opacity:1; fill:none" points="
  182.008,1333.49 205.177,1333.49 
  "/>
<polyline clip-path="url(#clip8300)" style="stroke:#000000; stroke-width:4; stroke-opacity:1; fill:none" points="
  182.008,1050.42 205.177,1050.42 
  "/>
<polyline clip-path="url(#clip8300)" style="stroke:#000000; stroke-width:4; stroke-opacity:1; fill:none" points="
  182.008,767.359 205.177,767.359 
  "/>
<polyline clip-path="url(#clip8300)" style="stroke:#000000; stroke-width:4; stroke-opacity:1; fill:none" points="
  182.008,484.295 205.177,484.295 
  "/>
<polyline clip-path="url(#clip8300)" style="stroke:#000000; stroke-width:4; stroke-opacity:1; fill:none" points="
  182.008,201.231 205.177,201.231 
  "/>
<g clip-path="url(#clip8300)">
<text style="fill:#000000; fill-opacity:1; font-family:Arial,Helvetica Neue,Helvetica,sans-serif; font-size:48px; text-anchor:middle;" transform="rotate(0, 388.44, 1541.47)" x="388.44" y="1541.47">-5.0</text>
</g>
<g clip-path="url(#clip8300)">
<text style="fill:#000000; fill-opacity:1; font-family:Arial,Helvetica Neue,Helvetica,sans-serif; font-size:48px; text-anchor:middle;" transform="rotate(0, 767.911, 1541.47)" x="767.911" y="1541.47">-2.5</text>
</g>
<g clip-path="url(#clip8300)">
<text style="fill:#000000; fill-opacity:1; font-family:Arial,Helvetica Neue,Helvetica,sans-serif; font-size:48px; text-anchor:middle;" transform="rotate(0, 1147.38, 1541.47)" x="1147.38" y="1541.47">0.0</text>
</g>
<g clip-path="url(#clip8300)">
<text style="fill:#000000; fill-opacity:1; font-family:Arial,Helvetica Neue,Helvetica,sans-serif; font-size:48px; text-anchor:middle;" transform="rotate(0, 1526.85, 1541.47)" x="1526.85" y="1541.47">2.5</text>
</g>
<g clip-path="url(#clip8300)">
<text style="fill:#000000; fill-opacity:1; font-family:Arial,Helvetica Neue,Helvetica,sans-serif; font-size:48px; text-anchor:middle;" transform="rotate(0, 1906.32, 1541.47)" x="1906.32" y="1541.47">5.0</text>
</g>
<g clip-path="url(#clip8300)">
<text style="fill:#000000; fill-opacity:1; font-family:Arial,Helvetica Neue,Helvetica,sans-serif; font-size:48px; text-anchor:end;" transform="rotate(0, 158.008, 1350.99)" x="158.008" y="1350.99">-5.0</text>
</g>
<g clip-path="url(#clip8300)">
<text style="fill:#000000; fill-opacity:1; font-family:Arial,Helvetica Neue,Helvetica,sans-serif; font-size:48px; text-anchor:end;" transform="rotate(0, 158.008, 1067.92)" x="158.008" y="1067.92">-2.5</text>
</g>
<g clip-path="url(#clip8300)">
<text style="fill:#000000; fill-opacity:1; font-family:Arial,Helvetica Neue,Helvetica,sans-serif; font-size:48px; text-anchor:end;" transform="rotate(0, 158.008, 784.859)" x="158.008" y="784.859">0.0</text>
</g>
<g clip-path="url(#clip8300)">
<text style="fill:#000000; fill-opacity:1; font-family:Arial,Helvetica Neue,Helvetica,sans-serif; font-size:48px; text-anchor:end;" transform="rotate(0, 158.008, 501.795)" x="158.008" y="501.795">2.5</text>
</g>
<g clip-path="url(#clip8300)">
<text style="fill:#000000; fill-opacity:1; font-family:Arial,Helvetica Neue,Helvetica,sans-serif; font-size:48px; text-anchor:end;" transform="rotate(0, 158.008, 218.731)" x="158.008" y="218.731">5.0</text>
</g>
<circle clip-path="url(#clip8302)" cx="1626.85" cy="226.453" r="14" fill="#ff0000" fill-rule="evenodd" fill-opacity="1" stroke="#000000" stroke-opacity="1" stroke-width="3.2"/>
<circle clip-path="url(#clip8302)" cx="1747.04" cy="219.232" r="14" fill="#ff0000" fill-rule="evenodd" fill-opacity="1" stroke="#000000" stroke-opacity="1" stroke-width="3.2"/>
<circle clip-path="url(#clip8302)" cx="1610.04" cy="228.859" r="14" fill="#ff0000" fill-rule="evenodd" fill-opacity="1" stroke="#000000" stroke-opacity="1" stroke-width="3.2"/>
<circle clip-path="url(#clip8302)" cx="1537.54" cy="308.278" r="14" fill="#ff0000" fill-rule="evenodd" fill-opacity="1" stroke="#000000" stroke-opacity="1" stroke-width="3.2"/>
<circle clip-path="url(#clip8302)" cx="1765.63" cy="292.353" r="14" fill="#ff0000" fill-rule="evenodd" fill-opacity="1" stroke="#000000" stroke-opacity="1" stroke-width="3.2"/>
<circle clip-path="url(#clip8302)" cx="1806.7" cy="693.341" r="14" fill="#ff0000" fill-rule="evenodd" fill-opacity="1" stroke="#000000" stroke-opacity="1" stroke-width="3.2"/>
<circle clip-path="url(#clip8302)" cx="1360.29" cy="662.575" r="14" fill="#ff0000" fill-rule="evenodd" fill-opacity="1" stroke="#000000" stroke-opacity="1" stroke-width="3.2"/>
<circle clip-path="url(#clip8302)" cx="1427.24" cy="550.287" r="14" fill="#ff0000" fill-rule="evenodd" fill-opacity="1" stroke="#000000" stroke-opacity="1" stroke-width="3.2"/>
<circle clip-path="url(#clip8302)" cx="1391.88" cy="645.625" r="14" fill="#ff0000" fill-rule="evenodd" fill-opacity="1" stroke="#000000" stroke-opacity="1" stroke-width="3.2"/>
<circle clip-path="url(#clip8302)" cx="1619.22" cy="520.093" r="14" fill="#ff0000" fill-rule="evenodd" fill-opacity="1" stroke="#000000" stroke-opacity="1" stroke-width="3.2"/>
<circle clip-path="url(#clip8302)" cx="1666.49" cy="236.329" r="14" fill="#ff0000" fill-rule="evenodd" fill-opacity="1" stroke="#000000" stroke-opacity="1" stroke-width="3.2"/>
<circle clip-path="url(#clip8302)" cx="1230.73" cy="487.1" r="14" fill="#ff0000" fill-rule="evenodd" fill-opacity="1" stroke="#000000" stroke-opacity="1" stroke-width="3.2"/>
<circle clip-path="url(#clip8302)" cx="1268.65" cy="584.966" r="14" fill="#ff0000" fill-rule="evenodd" fill-opacity="1" stroke="#000000" stroke-opacity="1" stroke-width="3.2"/>
<circle clip-path="url(#clip8302)" cx="1876.78" cy="704.724" r="14" fill="#ff0000" fill-rule="evenodd" fill-opacity="1" stroke="#000000" stroke-opacity="1" stroke-width="3.2"/>
<circle clip-path="url(#clip8302)" cx="1665" cy="687.287" r="14" fill="#ff0000" fill-rule="evenodd" fill-opacity="1" stroke="#000000" stroke-opacity="1" stroke-width="3.2"/>
<circle clip-path="url(#clip8302)" cx="1300.11" cy="457.941" r="14" fill="#ff0000" fill-rule="evenodd" fill-opacity="1" stroke="#000000" stroke-opacity="1" stroke-width="3.2"/>
<circle clip-path="url(#clip8302)" cx="1411.81" cy="337.781" r="14" fill="#ff0000" fill-rule="evenodd" fill-opacity="1" stroke="#000000" stroke-opacity="1" stroke-width="3.2"/>
<circle clip-path="url(#clip8302)" cx="1668.39" cy="558.372" r="14" fill="#ff0000" fill-rule="evenodd" fill-opacity="1" stroke="#000000" stroke-opacity="1" stroke-width="3.2"/>
<circle clip-path="url(#clip8302)" cx="1261.97" cy="481.881" r="14" fill="#ff0000" fill-rule="evenodd" fill-opacity="1" stroke="#000000" stroke-opacity="1" stroke-width="3.2"/>
<circle clip-path="url(#clip8302)" cx="1798.89" cy="264.871" r="14" fill="#ff0000" fill-rule="evenodd" fill-opacity="1" stroke="#000000" stroke-opacity="1" stroke-width="3.2"/>
<circle clip-path="url(#clip8302)" cx="420.058" cy="1005.51" r="14" fill="#ff0000" fill-rule="evenodd" fill-opacity="1" stroke="#000000" stroke-opacity="1" stroke-width="3.2"/>
<circle clip-path="url(#clip8302)" cx="865.45" cy="1128.96" r="14" fill="#ff0000" fill-rule="evenodd" fill-opacity="1" stroke="#000000" stroke-opacity="1" stroke-width="3.2"/>
<circle clip-path="url(#clip8302)" cx="637.827" cy="1065.96" r="14" fill="#ff0000" fill-rule="evenodd" fill-opacity="1" stroke="#000000" stroke-opacity="1" stroke-width="3.2"/>
<circle clip-path="url(#clip8302)" cx="595.047" cy="1021.66" r="14" fill="#ff0000" fill-rule="evenodd" fill-opacity="1" stroke="#000000" stroke-opacity="1" stroke-width="3.2"/>
<circle clip-path="url(#clip8302)" cx="642.927" cy="1113.08" r="14" fill="#ff0000" fill-rule="evenodd" fill-opacity="1" stroke="#000000" stroke-opacity="1" stroke-width="3.2"/>
<circle clip-path="url(#clip8302)" cx="491.244" cy="1291.6" r="14" fill="#ff0000" fill-rule="evenodd" fill-opacity="1" stroke="#000000" stroke-opacity="1" stroke-width="3.2"/>
<circle clip-path="url(#clip8302)" cx="489.073" cy="1232.06" r="14" fill="#ff0000" fill-rule="evenodd" fill-opacity="1" stroke="#000000" stroke-opacity="1" stroke-width="3.2"/>
<circle clip-path="url(#clip8302)" cx="582.017" cy="1039.97" r="14" fill="#ff0000" fill-rule="evenodd" fill-opacity="1" stroke="#000000" stroke-opacity="1" stroke-width="3.2"/>
<circle clip-path="url(#clip8302)" cx="665.042" cy="1222.32" r="14" fill="#ff0000" fill-rule="evenodd" fill-opacity="1" stroke="#000000" stroke-opacity="1" stroke-width="3.2"/>
<circle clip-path="url(#clip8302)" cx="729.643" cy="1149.03" r="14" fill="#ff0000" fill-rule="evenodd" fill-opacity="1" stroke="#000000" stroke-opacity="1" stroke-width="3.2"/>
<circle clip-path="url(#clip8302)" cx="838.442" cy="1229.18" r="14" fill="#ff0000" fill-rule="evenodd" fill-opacity="1" stroke="#000000" stroke-opacity="1" stroke-width="3.2"/>
<circle clip-path="url(#clip8302)" cx="740.638" cy="858.118" r="14" fill="#ff0000" fill-rule="evenodd" fill-opacity="1" stroke="#000000" stroke-opacity="1" stroke-width="3.2"/>
<circle clip-path="url(#clip8302)" cx="566.521" cy="911.985" r="14" fill="#ff0000" fill-rule="evenodd" fill-opacity="1" stroke="#000000" stroke-opacity="1" stroke-width="3.2"/>
<circle clip-path="url(#clip8302)" cx="795.209" cy="1282.89" r="14" fill="#ff0000" fill-rule="evenodd" fill-opacity="1" stroke="#000000" stroke-opacity="1" stroke-width="3.2"/>
<circle clip-path="url(#clip8302)" cx="588.205" cy="1010.3" r="14" fill="#ff0000" fill-rule="evenodd" fill-opacity="1" stroke="#000000" stroke-opacity="1" stroke-width="3.2"/>
<circle clip-path="url(#clip8302)" cx="585.554" cy="1265.87" r="14" fill="#ff0000" fill-rule="evenodd" fill-opacity="1" stroke="#000000" stroke-opacity="1" stroke-width="3.2"/>
<circle clip-path="url(#clip8302)" cx="810.673" cy="938.514" r="14" fill="#ff0000" fill-rule="evenodd" fill-opacity="1" stroke="#000000" stroke-opacity="1" stroke-width="3.2"/>
<circle clip-path="url(#clip8302)" cx="842.161" cy="890.598" r="14" fill="#ff0000" fill-rule="evenodd" fill-opacity="1" stroke="#000000" stroke-opacity="1" stroke-width="3.2"/>
<circle clip-path="url(#clip8302)" cx="903.122" cy="1313.29" r="14" fill="#ff0000" fill-rule="evenodd" fill-opacity="1" stroke="#000000" stroke-opacity="1" stroke-width="3.2"/>
<circle clip-path="url(#clip8302)" cx="413.634" cy="930.762" r="14" fill="#ff0000" fill-rule="evenodd" fill-opacity="1" stroke="#000000" stroke-opacity="1" stroke-width="3.2"/>
<circle clip-path="url(#clip8302)" cx="1517.8" cy="1185.18" r="14" fill="#0000ff" fill-rule="evenodd" fill-opacity="1" stroke="#000000" stroke-opacity="1" stroke-width="3.2"/>
<circle clip-path="url(#clip8302)" cx="1317.3" cy="1021.34" r="14" fill="#0000ff" fill-rule="evenodd" fill-opacity="1" stroke="#000000" stroke-opacity="1" stroke-width="3.2"/>
<circle clip-path="url(#clip8302)" cx="1638.62" cy="973.889" r="14" fill="#0000ff" fill-rule="evenodd" fill-opacity="1" stroke="#000000" stroke-opacity="1" stroke-width="3.2"/>
<circle clip-path="url(#clip8302)" cx="1397.49" cy="1074.47" r="14" fill="#0000ff" fill-rule="evenodd" fill-opacity="1" stroke="#000000" stroke-opacity="1" stroke-width="3.2"/>
<circle clip-path="url(#clip8302)" cx="1563.94" cy="1092.72" r="14" fill="#0000ff" fill-rule="evenodd" fill-opacity="1" stroke="#000000" stroke-opacity="1" stroke-width="3.2"/>
<circle clip-path="url(#clip8302)" cx="1287.51" cy="1021.38" r="14" fill="#0000ff" fill-rule="evenodd" fill-opacity="1" stroke="#000000" stroke-opacity="1" stroke-width="3.2"/>
<circle clip-path="url(#clip8302)" cx="1581.94" cy="1235.34" r="14" fill="#0000ff" fill-rule="evenodd" fill-opacity="1" stroke="#000000" stroke-opacity="1" stroke-width="3.2"/>
<circle clip-path="url(#clip8302)" cx="1404.63" cy="899.854" r="14" fill="#0000ff" fill-rule="evenodd" fill-opacity="1" stroke="#000000" stroke-opacity="1" stroke-width="3.2"/>
<circle clip-path="url(#clip8302)" cx="1298.48" cy="848.394" r="14" fill="#0000ff" fill-rule="evenodd" fill-opacity="1" stroke="#000000" stroke-opacity="1" stroke-width="3.2"/>
<circle clip-path="url(#clip8302)" cx="1793.18" cy="928.402" r="14" fill="#0000ff" fill-rule="evenodd" fill-opacity="1" stroke="#000000" stroke-opacity="1" stroke-width="3.2"/>
<circle clip-path="url(#clip8302)" cx="1655.94" cy="1094.99" r="14" fill="#0000ff" fill-rule="evenodd" fill-opacity="1" stroke="#000000" stroke-opacity="1" stroke-width="3.2"/>
<circle clip-path="url(#clip8302)" cx="1454.05" cy="1284.99" r="14" fill="#0000ff" fill-rule="evenodd" fill-opacity="1" stroke="#000000" stroke-opacity="1" stroke-width="3.2"/>
<circle clip-path="url(#clip8302)" cx="1300.45" cy="962.681" r="14" fill="#0000ff" fill-rule="evenodd" fill-opacity="1" stroke="#000000" stroke-opacity="1" stroke-width="3.2"/>
<circle clip-path="url(#clip8302)" cx="1758.1" cy="832.888" r="14" fill="#0000ff" fill-rule="evenodd" fill-opacity="1" stroke="#000000" stroke-opacity="1" stroke-width="3.2"/>
<circle clip-path="url(#clip8302)" cx="1795.7" cy="1115.91" r="14" fill="#0000ff" fill-rule="evenodd" fill-opacity="1" stroke="#000000" stroke-opacity="1" stroke-width="3.2"/>
<circle clip-path="url(#clip8302)" cx="1283.29" cy="1095.07" r="14" fill="#0000ff" fill-rule="evenodd" fill-opacity="1" stroke="#000000" stroke-opacity="1" stroke-width="3.2"/>
<circle clip-path="url(#clip8302)" cx="1487.32" cy="900.946" r="14" fill="#0000ff" fill-rule="evenodd" fill-opacity="1" stroke="#000000" stroke-opacity="1" stroke-width="3.2"/>
<circle clip-path="url(#clip8302)" cx="1449.08" cy="1048.85" r="14" fill="#0000ff" fill-rule="evenodd" fill-opacity="1" stroke="#000000" stroke-opacity="1" stroke-width="3.2"/>
<circle clip-path="url(#clip8302)" cx="1734.22" cy="922.09" r="14" fill="#0000ff" fill-rule="evenodd" fill-opacity="1" stroke="#000000" stroke-opacity="1" stroke-width="3.2"/>
<circle clip-path="url(#clip8302)" cx="1404.69" cy="1326.67" r="14" fill="#0000ff" fill-rule="evenodd" fill-opacity="1" stroke="#000000" stroke-opacity="1" stroke-width="3.2"/>
<circle clip-path="url(#clip8302)" cx="630.375" cy="284.546" r="14" fill="#0000ff" fill-rule="evenodd" fill-opacity="1" stroke="#000000" stroke-opacity="1" stroke-width="3.2"/>
<circle clip-path="url(#clip8302)" cx="479.217" cy="487.412" r="14" fill="#0000ff" fill-rule="evenodd" fill-opacity="1" stroke="#000000" stroke-opacity="1" stroke-width="3.2"/>
<circle clip-path="url(#clip8302)" cx="593.867" cy="359.193" r="14" fill="#0000ff" fill-rule="evenodd" fill-opacity="1" stroke="#000000" stroke-opacity="1" stroke-width="3.2"/>
<circle clip-path="url(#clip8302)" cx="521.298" cy="521.075" r="14" fill="#0000ff" fill-rule="evenodd" fill-opacity="1" stroke="#000000" stroke-opacity="1" stroke-width="3.2"/>
<circle clip-path="url(#clip8302)" cx="992.052" cy="560.509" r="14" fill="#0000ff" fill-rule="evenodd" fill-opacity="1" stroke="#000000" stroke-opacity="1" stroke-width="3.2"/>
<circle clip-path="url(#clip8302)" cx="434.751" cy="355.965" r="14" fill="#0000ff" fill-rule="evenodd" fill-opacity="1" stroke="#000000" stroke-opacity="1" stroke-width="3.2"/>
<circle clip-path="url(#clip8302)" cx="408.138" cy="541.406" r="14" fill="#0000ff" fill-rule="evenodd" fill-opacity="1" stroke="#000000" stroke-opacity="1" stroke-width="3.2"/>
<circle clip-path="url(#clip8302)" cx="774.094" cy="499.254" r="14" fill="#0000ff" fill-rule="evenodd" fill-opacity="1" stroke="#000000" stroke-opacity="1" stroke-width="3.2"/>
<circle clip-path="url(#clip8302)" cx="797.496" cy="403.191" r="14" fill="#0000ff" fill-rule="evenodd" fill-opacity="1" stroke="#000000" stroke-opacity="1" stroke-width="3.2"/>
<circle clip-path="url(#clip8302)" cx="595.852" cy="688.136" r="14" fill="#0000ff" fill-rule="evenodd" fill-opacity="1" stroke="#000000" stroke-opacity="1" stroke-width="3.2"/>
<circle clip-path="url(#clip8302)" cx="730.459" cy="244.193" r="14" fill="#0000ff" fill-rule="evenodd" fill-opacity="1" stroke="#000000" stroke-opacity="1" stroke-width="3.2"/>
<circle clip-path="url(#clip8302)" cx="668.468" cy="521.042" r="14" fill="#0000ff" fill-rule="evenodd" fill-opacity="1" stroke="#000000" stroke-opacity="1" stroke-width="3.2"/>
<circle clip-path="url(#clip8302)" cx="488.393" cy="653.155" r="14" fill="#0000ff" fill-rule="evenodd" fill-opacity="1" stroke="#000000" stroke-opacity="1" stroke-width="3.2"/>
<circle clip-path="url(#clip8302)" cx="830.425" cy="369.282" r="14" fill="#0000ff" fill-rule="evenodd" fill-opacity="1" stroke="#000000" stroke-opacity="1" stroke-width="3.2"/>
<circle clip-path="url(#clip8302)" cx="1070.49" cy="639.174" r="14" fill="#0000ff" fill-rule="evenodd" fill-opacity="1" stroke="#000000" stroke-opacity="1" stroke-width="3.2"/>
<circle clip-path="url(#clip8302)" cx="726.818" cy="669.309" r="14" fill="#0000ff" fill-rule="evenodd" fill-opacity="1" stroke="#000000" stroke-opacity="1" stroke-width="3.2"/>
<circle clip-path="url(#clip8302)" cx="835.354" cy="471.337" r="14" fill="#0000ff" fill-rule="evenodd" fill-opacity="1" stroke="#000000" stroke-opacity="1" stroke-width="3.2"/>
<circle clip-path="url(#clip8302)" cx="958.722" cy="204.29" r="14" fill="#0000ff" fill-rule="evenodd" fill-opacity="1" stroke="#000000" stroke-opacity="1" stroke-width="3.2"/>
<circle clip-path="url(#clip8302)" cx="672.357" cy="529.45" r="14" fill="#0000ff" fill-rule="evenodd" fill-opacity="1" stroke="#000000" stroke-opacity="1" stroke-width="3.2"/>
<circle clip-path="url(#clip8302)" cx="513.272" cy="626.609" r="14" fill="#0000ff" fill-rule="evenodd" fill-opacity="1" stroke="#000000" stroke-opacity="1" stroke-width="3.2"/>
<polyline clip-path="url(#clip8302)" style="stroke:#f2e763; stroke-width:4; stroke-opacity:1; fill:none" points="
  936.774,1446.71 974.713,1390.1 974.784,1333.49 995.594,1317.96 1009.41,1276.87 1015.05,1220.26 1023.22,1163.65 1045.35,1107.04 1030.23,1050.42 1031.59,993.811 
  1013.93,937.198 1032.16,880.585 995.594,866.956 919.699,859.671 843.805,852.741 767.911,859.589 692.017,866.446 616.123,875.069 540.229,877.357 507.464,880.585 
  464.334,895.231 388.44,895.251 312.546,909.304 236.652,926.407 
  "/>
<polyline clip-path="url(#clip8302)" style="stroke:#f8c933; stroke-width:4; stroke-opacity:1; fill:none" points="
  236.652,891.761 305.968,880.585 312.546,880.039 388.44,870.64 464.334,870.632 540.229,864.453 616.123,857.322 692.017,851.277 767.911,837.34 840.765,823.972 
  843.805,823.786 847.171,823.972 919.699,836.495 989.65,823.972 995.594,823.6 1027.86,823.972 1071.49,828.742 1081.55,880.585 1072.12,937.198 1072.05,993.811 
  1071.49,1012.75 1067.61,1050.42 1071.49,1059.97 1076.28,1107.04 1071.49,1132.63 1052.99,1163.65 1036.03,1220.26 1024.29,1276.87 1008.5,1333.49 1006.63,1390.1 
  995.732,1446.71 
  "/>
<polyline clip-path="url(#clip8302)" style="stroke:#e25832; stroke-width:4; stroke-opacity:1; fill:none" points="
  1063.85,1446.71 1071.49,1407.05 1074.36,1390.1 1083.9,1333.49 1085.69,1276.87 1099.56,1220.26 1108.25,1163.65 1113.72,1107.04 1110.95,1050.42 1115.36,993.811 
  1119.77,937.198 1141.19,880.585 1119.39,823.972 1071.49,795.127 995.594,791.209 919.699,793.552 843.805,794.115 767.911,796.414 692.017,802.438 616.123,802.924 
  540.229,812.986 464.334,811.225 388.44,811.229 312.546,811.236 236.652,819.264 
  "/>
<polyline clip-path="url(#clip8302)" style="stroke:#ba3655; stroke-width:4; stroke-opacity:1; fill:none" points="
  236.652,784.02 312.546,781.444 388.44,781.442 464.334,781.441 540.229,787.521 616.123,783.075 692.017,782.86 767.911,780.199 843.805,779.28 919.699,775.967 
  995.594,775.013 1071.49,780.477 1143.72,823.972 1147.38,833.019 1160.89,880.585 1147.38,927.748 1143.6,937.198 1137.02,993.811 1131.2,1050.42 1132.43,1107.04 
  1130,1163.65 1123.87,1220.26 1119.93,1276.87 1113.83,1333.49 1104.27,1390.1 1098.04,1446.71 
  "/>
<polyline clip-path="url(#clip8302)" style="stroke:#88216a; stroke-width:4; stroke-opacity:1; fill:none" points="
  1132.27,1446.71 1134.18,1390.1 1143.75,1333.49 1147.38,1311.97 1153.29,1276.87 1148.6,1220.26 1154.24,1163.65 1153.4,1107.04 1153.4,1050.42 1159.82,993.811 
  1165.62,937.198 1177.94,880.585 1176.25,823.972 1223.28,793.257 1299.17,786.12 1375.06,779.773 1450.96,775.959 1526.85,786.609 1602.75,791.112 1678.64,787.884 
  1754.54,796.668 1830.43,802.401 1906.32,814.405 1982.22,818.854 2009.37,823.972 2058.11,830.039 
  "/>
<polyline clip-path="url(#clip8302)" style="stroke:#3b0963; stroke-width:4; stroke-opacity:1; fill:none" points="
  2058.11,874.3 1982.22,873.041 1906.32,863.789 1830.43,843.696 1754.54,836.642 1720.58,823.972 1678.64,814.596 1602.75,815.435 1526.85,810.468 1450.96,800.139 
  1375.06,802.032 1299.17,805.183 1228.83,823.972 1223.28,829.152 1203.52,880.585 1198.15,937.198 1195.62,993.811 1198.21,1050.42 1198.26,1107.04 1205.33,1163.65 
  1203.58,1220.26 1198.03,1276.87 1195.31,1333.49 1197.83,1390.1 1197.85,1446.71 
  "/>
<polyline clip-path="url(#clip8302)" style="stroke:#1f0b46; stroke-width:4; stroke-opacity:1; fill:none" points="
  1221.69,1446.71 1221.66,1390.1 1212.69,1333.49 1212.94,1276.87 1221.9,1220.26 1222.37,1163.65 1213.21,1107.04 1213.15,1050.42 1207.55,993.811 1208.99,937.198 
  1212.04,880.585 1223.28,851.346 1252.62,823.972 1299.17,811.537 1375.06,809.452 1450.96,808.199 1526.85,818.421 1602.75,823.543 1678.64,823.501 1680.75,823.972 
  1754.54,851.502 1830.43,856.171 1906.32,879.519 1914.34,880.585 1982.22,893.424 2058.11,906.263 
  "/>
<polyline clip-path="url(#clip8302)" style="stroke:#550f6d; stroke-width:4; stroke-opacity:1; fill:none" points="
  2058.11,859.546 1982.22,855.332 1906.32,848.059 1830.43,831.221 1769.9,823.972 1754.54,822.097 1678.64,805.692 1602.75,807.328 1526.85,802.515 1450.96,792.079 
  1375.06,794.612 1299.17,798.828 1223.28,815.461 1210.25,823.972 1194.99,880.585 1187.31,937.198 1183.69,993.811 1183.28,1050.42 1183.31,1107.04 1188.3,1163.65 
  1185.25,1220.26 1183.11,1276.87 1177.93,1333.49 1174,1390.1 1174.02,1446.71 
  "/>
<polyline clip-path="url(#clip8302)" style="stroke:#6e186e; stroke-width:4; stroke-opacity:1; fill:none" points="
  1150.18,1446.71 1150.18,1390.1 1160.54,1333.49 1168.2,1276.87 1166.92,1220.26 1171.27,1163.65 1168.35,1107.04 1168.34,1050.42 1171.76,993.811 1176.47,937.198 
  1186.47,880.585 1193.25,823.972 1223.28,804.359 1299.17,792.474 1375.06,787.193 1450.96,784.019 1526.85,794.562 1602.75,799.22 1678.64,796.788 1754.54,809.382 
  1830.43,817.604 1863.89,823.972 1906.32,832.329 1982.22,837.624 2058.11,844.793 
  "/>
<polyline clip-path="url(#clip8302)" style="stroke:#a12b61; stroke-width:4; stroke-opacity:1; fill:none" points="
  2058.11,806.372 1982.22,796.514 1906.32,793.995 1830.43,787.199 1754.54,783.953 1678.64,778.98 1602.75,783.005 1526.85,778.656 1450.96,767.899 1375.06,772.353 
  1299.17,779.766 1223.28,782.154 1166.58,767.359 1153.13,710.747 1147.38,684.705 1140,654.134 1128.04,597.521 1127.98,540.908 1129.47,484.295 1129.3,427.682 
  1125.31,371.07 1125.31,314.457 1123.62,257.844 1130.1,201.231 1127.87,144.618 1131.16,88.0053 
  "/>
<polyline clip-path="url(#clip8302)" style="stroke:#550f6d; stroke-width:4; stroke-opacity:1; fill:none" points="
  1082.92,88.0053 1083.07,144.618 1090.58,201.231 1095.99,257.844 1099.65,314.457 1099.66,371.07 1101.75,427.682 1101.83,484.295 1098.05,540.908 1098.05,597.521 
  1107.29,654.134 1114.93,710.747 1071.49,744.424 995.594,742.572 919.699,742.725 843.805,740.543 767.911,736.26 692.017,724.157 616.123,723.974 540.229,722.677 
  496.247,710.747 464.334,704.702 388.44,702.433 312.546,695.51 236.652,685.138 
  "/>
<polyline clip-path="url(#clip8302)" style="stroke:#3b0963; stroke-width:4; stroke-opacity:1; fill:none" points="
  236.652,662.926 312.546,665.865 388.44,686.241 464.334,691.791 540.229,704.607 616.123,706.06 692.017,706.278 707.411,710.747 767.911,723.389 843.805,729.337 
  919.699,734.57 995.594,734.458 1071.49,734.042 1101.54,710.747 1096.38,654.134 1088.06,597.521 1088.07,540.908 1092.61,484.295 1092.56,427.682 1091.11,371.07 
  1091.1,314.457 1086.78,257.844 1077.41,201.231 1071.49,163.453 1066.08,144.618 1063.25,88.0053 
  "/>
<polyline clip-path="url(#clip8302)" style="stroke:#0a0622; stroke-width:4; stroke-opacity:1; fill:none" points="
  1006.24,88.0053 1017.75,144.618 1023.81,201.231 1051,257.844 1071.49,288.204 1074,314.457 1074.01,371.07 1074.19,427.682 1074.19,484.295 1071.49,510.557 
  1051.08,540.908 1050.92,597.521 1071.49,628.529 1074.57,654.134 1074.75,710.747 1071.49,713.279 995.594,718.23 919.699,718.262 864.3,710.747 843.805,695.469 
  767.911,680.962 692.017,670.522 616.123,670.453 540.229,669.997 464.334,665.968 389.83,654.134 388.44,653.097 312.546,618.106 236.652,618.107 
  "/>
<polyline clip-path="url(#clip8302)" style="stroke:#1f0b46; stroke-width:4; stroke-opacity:1; fill:none" points="
  236.652,640.565 312.546,640.563 341.441,654.134 388.44,670.049 464.334,678.879 540.229,687.302 616.123,688.256 692.017,688.4 767.911,710.229 769.895,710.747 
  843.805,718.132 919.699,726.416 995.594,726.344 1071.49,723.661 1088.15,710.747 1085.48,654.134 1078.06,597.521 1078.09,540.908 1083.4,484.295 1083.38,427.682 
  1082.56,371.07 1082.55,314.457 1077.57,257.844 1071.49,226.967 1054.55,201.231 1041.91,144.618 1034.75,88.0053 
  "/>
<polyline clip-path="url(#clip8302)" style="stroke:#6e186e; stroke-width:4; stroke-opacity:1; fill:none" points="
  1099,88.0053 1098,144.618 1103.75,201.231 1105.2,257.844 1108.21,314.457 1108.21,371.07 1110.93,427.682 1111.04,484.295 1108.03,540.908 1108.05,597.521 
  1118.19,654.134 1128.32,710.747 1071.49,754.806 995.594,750.686 919.699,750.879 843.805,751.749 767.911,749.13 692.017,742.035 616.123,741.928 540.229,741.168 
  464.334,722.388 388.44,721.587 312.546,721.578 254.813,710.747 236.652,707.35 
  "/>
<polyline clip-path="url(#clip8302)" style="stroke:#88216a; stroke-width:4; stroke-opacity:1; fill:none" points="
  236.652,735.966 312.546,743.862 388.44,743.867 464.334,744.279 540.229,759.659 616.123,759.883 692.017,759.914 767.911,762.001 843.805,762.955 919.699,759.033 
  995.594,758.8 1071.49,765.188 1141.71,710.747 1129.1,654.134 1118.04,597.521 1118,540.908 1120.25,484.295 1120.11,427.682 1116.76,371.07 1116.76,314.457 
  1114.41,257.844 1116.92,201.231 1112.94,144.618 1115.08,88.0053 
  "/>
<polyline clip-path="url(#clip8302)" style="stroke:#ba3655; stroke-width:4; stroke-opacity:1; fill:none" points="
  1147.23,88.0053 1142.8,144.618 1143.27,201.231 1132.83,257.844 1133.86,314.457 1133.86,371.07 1138.48,427.682 1138.68,484.295 1137.96,540.908 1138.03,597.521 
  1147.38,639.593 1150.6,654.134 1163.1,710.747 1209.12,767.359 1223.28,771.052 1299.17,773.412 1355.67,767.359 1375.06,765.119 1450.96,761.384 1503.28,767.359 
  1526.85,770.703 1602.75,774.897 1678.64,770.076 1754.54,771.238 1830.43,771.997 1906.32,773.585 1982.22,774.174 2058.11,776.478 
  "/>
<polyline clip-path="url(#clip8302)" style="stroke:#d04544; stroke-width:4; stroke-opacity:1; fill:none" points="
  2058.11,757.035 1982.22,757.213 1906.32,758.521 1830.43,759.606 1754.54,759.611 1678.64,761.17 1602.75,766.665 1526.85,762.588 1450.96,754.98 1375.06,758.266 
  1299.17,766.936 1223.28,760.732 1173.08,710.747 1160.56,654.134 1148.08,597.521 1147.99,540.908 1147.99,484.295 1147.72,427.682 1147.38,424.806 1142.41,371.07 
  1142.42,314.457 1142.04,257.844 1147.38,231.929 1154.24,201.231 1155.64,144.618 1158.74,88.0053 
  "/>
<polyline clip-path="url(#clip8302)" style="stroke:#e25832; stroke-width:4; stroke-opacity:1; fill:none" points="
  1170.2,88.0053 1167.55,144.618 1164.21,201.231 1152.4,257.844 1152.4,314.457 1152.38,371.07 1158.63,427.682 1158.85,484.295 1158.86,540.908 1158.94,597.521 
  1170.52,654.134 1183.05,710.747 1223.28,750.803 1299.17,758.029 1375.06,751.414 1450.96,748.576 1526.85,754.356 1602.75,756.785 1678.64,752.263 1754.54,748.462 
  1830.43,748.45 1906.32,745.803 1982.22,742.614 2058.11,742.179 
  "/>
<polyline clip-path="url(#clip8302)" style="stroke:#f0711e; stroke-width:4; stroke-opacity:1; fill:none" points="
  2058.11,727.323 1982.22,728.015 1906.32,733.085 1830.43,737.294 1754.54,737.313 1678.64,743.357 1602.75,746.905 1526.85,746.124 1450.96,742.172 1375.06,744.561 
  1299.17,749.121 1223.28,740.873 1193.02,710.747 1180.48,654.134 1169.79,597.521 1169.72,540.908 1169.72,484.295 1169.53,427.682 1164.34,371.07 1164.35,314.457 
  1164.36,257.844 1174.18,201.231 1179.46,144.618 1181.66,88.0053 
  "/>
<polyline clip-path="url(#clip8302)" style="stroke:#f88c0a; stroke-width:4; stroke-opacity:1; fill:none" points="
  1193.12,88.0053 1191.37,144.618 1184.15,201.231 1176.32,257.844 1176.31,314.457 1176.3,371.07 1180.43,427.682 1180.58,484.295 1180.59,540.908 1180.64,597.521 
  1190.44,654.134 1202.99,710.747 1223.28,730.944 1299.17,740.214 1375.06,737.709 1450.96,735.768 1526.85,737.892 1602.75,737.025 1678.64,734.451 1754.54,726.164 
  1830.43,726.137 1906.32,720.366 1982.22,713.415 2058.11,712.467 
  "/>
<polyline clip-path="url(#clip8302)" style="stroke:#fbaa0f; stroke-width:4; stroke-opacity:1; fill:none" points="
  2058.11,695.012 1982.22,695.885 1906.32,705.314 1876.66,710.747 1830.43,714.981 1754.54,715.015 1678.64,725.544 1602.75,727.144 1526.85,729.66 1450.96,729.364 
  1375.06,730.856 1299.17,731.306 1223.28,721.014 1212.96,710.747 1200.4,654.134 1191.49,597.521 1191.45,540.908 1191.45,484.295 1191.34,427.682 1188.26,371.07 
  1188.27,314.457 1188.28,257.844 1194.12,201.231 1203.29,144.618 1204.58,88.0053 
  "/>
<polyline clip-path="url(#clip8302)" style="stroke:#f8c933; stroke-width:4; stroke-opacity:1; fill:none" points="
  1216.03,88.0053 1215.2,144.618 1204.1,201.231 1200.23,257.844 1200.22,314.457 1200.21,371.07 1202.24,427.682 1202.31,484.295 1202.32,540.908 1202.34,597.521 
  1210.35,654.134 1222.94,710.747 1223.28,711.084 1299.17,722.399 1375.06,724.004 1450.96,722.96 1526.85,721.428 1602.75,717.264 1678.64,716.638 1717.9,710.747 
  1754.54,697.053 1830.43,692.412 1906.32,683.012 1982.22,677.698 2058.11,677.217 
  "/>
<polyline clip-path="url(#clip8302)" style="stroke:#f2e763; stroke-width:4; stroke-opacity:1; fill:none" points="
  2058.11,659.422 1982.22,659.512 1906.32,660.711 1830.43,662.861 1754.54,674.865 1678.64,695.689 1602.75,695.629 1562.25,710.747 1526.85,713.196 1450.96,716.556 
  1375.06,717.151 1299.17,713.491 1280.82,710.747 1223.28,667.463 1220.31,654.134 1213.19,597.521 1213.18,540.908 1213.18,484.295 1213.15,427.682 1212.17,371.07 
  1212.18,314.457 1212.19,257.844 1214.07,201.231 1223.28,159.248 1242.75,144.618 1244.78,88.0053 
  "/>
<polyline clip-path="url(#clip8302)" style="stroke:#a12b61; stroke-width:4; stroke-opacity:1; fill:none" points="
  236.652,765.736 312.546,766.146 388.44,766.147 464.334,766.169 470.802,767.359 540.229,774.789 616.123,773.151 692.017,773.072 767.911,772.091 843.805,771.862 
  917.15,767.359 919.699,767.187 995.594,766.914 1000.52,767.359 1071.49,773.152 1147.38,789.572 1159.26,823.972 1169.42,880.585 1154.78,937.198 1147.89,993.811 
  1147.38,997.572 1141.33,1050.42 1141.79,1107.04 1140.88,1163.65 1136.03,1220.26 1137.04,1276.87 1128.79,1333.49 1119.22,1390.1 1115.16,1446.71 
  "/>
<polyline clip-path="url(#clip8302)" style="stroke:#d04544; stroke-width:4; stroke-opacity:1; fill:none" points="
  1080.92,1446.71 1089.31,1390.1 1098.86,1333.49 1102.81,1276.87 1111.72,1220.26 1119.13,1163.65 1123.08,1107.04 1121.08,1050.42 1126.19,993.811 1131.69,937.198 
  1147.38,897.985 1152.37,880.585 1147.38,863.036 1131.55,823.972 1071.49,787.802 995.594,783.111 919.699,784.759 843.805,786.697 767.911,788.306 692.017,792.649 
  616.123,793 540.229,800.253 464.334,796.333 388.44,796.335 312.546,796.34 236.652,801.642 
  "/>
<polyline clip-path="url(#clip8302)" style="stroke:#f0711e; stroke-width:4; stroke-opacity:1; fill:none" points="
  236.652,836.138 312.546,826.557 388.44,826.114 464.334,826.109 540.229,825.741 548.499,823.972 616.123,812.848 692.017,812.226 767.911,804.521 843.805,801.533 
  919.699,802.345 995.594,799.307 1071.49,802.452 1107.22,823.972 1126.28,880.585 1107.86,937.198 1104.53,993.811 1100.82,1050.42 1104.36,1107.04 1097.37,1163.65 
  1087.4,1220.26 1071.49,1270.36 1068.95,1276.87 1068.1,1333.49 1057.72,1390.1 1046.82,1446.71 
  "/>
<polyline clip-path="url(#clip8302)" style="stroke:#f88c0a; stroke-width:4; stroke-opacity:1; fill:none" points="
  1029.79,1446.71 1040.69,1390.1 1048.24,1333.49 1054.07,1276.87 1071.49,1232.09 1075.25,1220.26 1086.49,1163.65 1095,1107.04 1090.69,1050.42 1093.71,993.811 
  1095.95,937.198 1111.37,880.585 1095.06,823.972 1071.49,809.777 995.594,807.405 919.699,811.138 843.805,808.951 767.911,812.629 692.017,822.015 616.123,822.773 
  608.83,823.972 540.229,838.645 464.334,840.95 388.44,840.956 312.546,844.384 236.652,852.738 
  "/>
<polyline clip-path="url(#clip8302)" style="stroke:#fbaa0f; stroke-width:4; stroke-opacity:1; fill:none" points="
  236.652,869.339 312.546,862.212 388.44,855.798 464.334,855.791 540.229,851.549 616.123,839.575 692.017,836.108 742.649,823.972 767.911,820.736 843.805,816.368 
  919.699,819.931 995.594,815.503 1071.49,817.102 1082.9,823.972 1096.46,880.585 1084.04,937.198 1082.88,993.811 1080.56,1050.42 1085.64,1107.04 1075.61,1163.65 
  1071.49,1183.7 1057,1220.26 1039.18,1276.87 1028.37,1333.49 1023.66,1390.1 1012.76,1446.71 
  "/>
<polyline clip-path="url(#clip8302)" style="stroke:#0a0622; stroke-width:4; stroke-opacity:1; fill:none" points="
  1287.32,1446.71 1280.6,1390.1 1245.29,1333.49 1241.71,1276.87 1260.58,1220.26 1261.01,1163.65 1242.59,1107.04 1242.4,1050.42 1223.28,1021.9 1219.49,993.811 
  1219.83,937.198 1220.57,880.585 1223.28,873.539 1276.4,823.972 1299.17,817.891 1375.06,816.871 1450.96,816.259 1508.65,823.972 1526.85,837.549 1602.75,852.13 
  1678.64,852.13 1754.54,866.363 1830.43,868.646 1868.88,880.585 1906.32,908.519 1982.22,915.791 2039.61,937.198 2058.11,950.999 
  "/>
<defs>
  <clipPath id="clip8303">
    <rect x="2160" y="47" width="73" height="1441"/>
  </clipPath>
</defs>
<polyline clip-path="url(#clip8303)" style="stroke:#0b0724; stroke-width:4; stroke-opacity:1; fill:none" points="
  2160.76,1397.46 2232.76,1397.46 
  "/>
<polyline clip-path="url(#clip8303)" style="stroke:#200b49; stroke-width:4; stroke-opacity:1; fill:none" points="
  2160.76,1307.45 2232.76,1307.45 
  "/>
<polyline clip-path="url(#clip8303)" style="stroke:#3c0964; stroke-width:4; stroke-opacity:1; fill:none" points="
  2160.76,1217.43 2232.76,1217.43 
  "/>
<polyline clip-path="url(#clip8303)" style="stroke:#57106d; stroke-width:4; stroke-opacity:1; fill:none" points="
  2160.76,1127.42 2232.76,1127.42 
  "/>
<polyline clip-path="url(#clip8303)" style="stroke:#70196e; stroke-width:4; stroke-opacity:1; fill:none" points="
  2160.76,1037.4 2232.76,1037.4 
  "/>
<polyline clip-path="url(#clip8303)" style="stroke:#8a2269; stroke-width:4; stroke-opacity:1; fill:none" points="
  2160.76,947.388 2232.76,947.388 
  "/>
<polyline clip-path="url(#clip8303)" style="stroke:#a32b61; stroke-width:4; stroke-opacity:1; fill:none" points="
  2160.76,857.374 2232.76,857.374 
  "/>
<polyline clip-path="url(#clip8303)" style="stroke:#bb3754; stroke-width:4; stroke-opacity:1; fill:none" points="
  2160.76,767.359 2232.76,767.359 
  "/>
<polyline clip-path="url(#clip8303)" style="stroke:#d04544; stroke-width:4; stroke-opacity:1; fill:none" points="
  2160.76,677.345 2232.76,677.345 
  "/>
<polyline clip-path="url(#clip8303)" style="stroke:#e25832; stroke-width:4; stroke-opacity:1; fill:none" points="
  2160.76,587.331 2232.76,587.331 
  "/>
<polyline clip-path="url(#clip8303)" style="stroke:#f0711e; stroke-width:4; stroke-opacity:1; fill:none" points="
  2160.76,497.316 2232.76,497.316 
  "/>
<polyline clip-path="url(#clip8303)" style="stroke:#f88c0a; stroke-width:4; stroke-opacity:1; fill:none" points="
  2160.76,407.302 2232.76,407.302 
  "/>
<polyline clip-path="url(#clip8303)" style="stroke:#fbaa0f; stroke-width:4; stroke-opacity:1; fill:none" points="
  2160.76,317.287 2232.76,317.287 
  "/>
<polyline clip-path="url(#clip8303)" style="stroke:#f8c933; stroke-width:4; stroke-opacity:1; fill:none" points="
  2160.76,227.273 2232.76,227.273 
  "/>
<polyline clip-path="url(#clip8303)" style="stroke:#f2e763; stroke-width:4; stroke-opacity:1; fill:none" points="
  2160.76,137.259 2232.76,137.259 
  "/>
<g clip-path="url(#clip8300)">
<text style="fill:#000000; fill-opacity:1; font-family:Arial,Helvetica Neue,Helvetica,sans-serif; font-size:48px; text-anchor:start;" transform="rotate(0, 2268.76, 1501.13)" x="2268.76" y="1501.13">0</text>
</g>
<g clip-path="url(#clip8300)">
<text style="fill:#000000; fill-opacity:1; font-family:Arial,Helvetica Neue,Helvetica,sans-serif; font-size:48px; text-anchor:start;" transform="rotate(0, 2268.76, 1357.1)" x="2268.76" y="1357.1">0.1</text>
</g>
<g clip-path="url(#clip8300)">
<text style="fill:#000000; fill-opacity:1; font-family:Arial,Helvetica Neue,Helvetica,sans-serif; font-size:48px; text-anchor:start;" transform="rotate(0, 2268.76, 1213.08)" x="2268.76" y="1213.08">0.2</text>
</g>
<g clip-path="url(#clip8300)">
<text style="fill:#000000; fill-opacity:1; font-family:Arial,Helvetica Neue,Helvetica,sans-serif; font-size:48px; text-anchor:start;" transform="rotate(0, 2268.76, 1069.06)" x="2268.76" y="1069.06">0.3</text>
</g>
<g clip-path="url(#clip8300)">
<text style="fill:#000000; fill-opacity:1; font-family:Arial,Helvetica Neue,Helvetica,sans-serif; font-size:48px; text-anchor:start;" transform="rotate(0, 2268.76, 925.034)" x="2268.76" y="925.034">0.4</text>
</g>
<g clip-path="url(#clip8300)">
<text style="fill:#000000; fill-opacity:1; font-family:Arial,Helvetica Neue,Helvetica,sans-serif; font-size:48px; text-anchor:start;" transform="rotate(0, 2268.76, 781.011)" x="2268.76" y="781.011">0.5</text>
</g>
<g clip-path="url(#clip8300)">
<text style="fill:#000000; fill-opacity:1; font-family:Arial,Helvetica Neue,Helvetica,sans-serif; font-size:48px; text-anchor:start;" transform="rotate(0, 2268.76, 636.988)" x="2268.76" y="636.988">0.6</text>
</g>
<g clip-path="url(#clip8300)">
<text style="fill:#000000; fill-opacity:1; font-family:Arial,Helvetica Neue,Helvetica,sans-serif; font-size:48px; text-anchor:start;" transform="rotate(0, 2268.76, 492.964)" x="2268.76" y="492.964">0.7</text>
</g>
<g clip-path="url(#clip8300)">
<text style="fill:#000000; fill-opacity:1; font-family:Arial,Helvetica Neue,Helvetica,sans-serif; font-size:48px; text-anchor:start;" transform="rotate(0, 2268.76, 348.941)" x="2268.76" y="348.941">0.8</text>
</g>
<g clip-path="url(#clip8300)">
<text style="fill:#000000; fill-opacity:1; font-family:Arial,Helvetica Neue,Helvetica,sans-serif; font-size:48px; text-anchor:start;" transform="rotate(0, 2268.76, 204.918)" x="2268.76" y="204.918">0.9</text>
</g>
<g clip-path="url(#clip8300)">
<text style="fill:#000000; fill-opacity:1; font-family:Arial,Helvetica Neue,Helvetica,sans-serif; font-size:48px; text-anchor:start;" transform="rotate(0, 2268.76, 60.8953)" x="2268.76" y="60.8953">1.0</text>
</g>
<polyline clip-path="url(#clip8300)" style="stroke:#000000; stroke-width:4; stroke-opacity:1; fill:none" points="
  2232.76,1487.47 2232.76,1487.47 2256.76,1487.47 2232.76,1487.47 2232.76,1343.45 2256.76,1343.45 2232.76,1343.45 2232.76,1199.43 2256.76,1199.43 2232.76,1199.43 
  2232.76,1055.41 2256.76,1055.41 2232.76,1055.41 2232.76,911.382 2256.76,911.382 2232.76,911.382 2232.76,767.359 2256.76,767.359 2232.76,767.359 2232.76,623.336 
  2256.76,623.336 2232.76,623.336 2232.76,479.313 2256.76,479.313 2232.76,479.313 2232.76,335.29 2256.76,335.29 2232.76,335.29 2232.76,191.267 2256.76,191.267 
  2232.76,191.267 2232.76,47.2441 2256.76,47.2441 2232.76,47.2441 
  "/>
<path clip-path="url(#clip8300)" d="
M1749.93 312.204 L2040.76 312.204 L2040.76 130.764 L1749.93 130.764  Z
  " fill="#ffffff" fill-rule="evenodd" fill-opacity="1"/>
<polyline clip-path="url(#clip8300)" style="stroke:#000000; stroke-width:4; stroke-opacity:1; fill:none" points="
  1749.93,312.204 2040.76,312.204 2040.76,130.764 1749.93,130.764 1749.93,312.204 
  "/>
<circle clip-path="url(#clip8300)" cx="1857.93" cy="191.244" r="21" fill="#ff0000" fill-rule="evenodd" fill-opacity="1" stroke="#000000" stroke-opacity="1" stroke-width="3.2"/>
<g clip-path="url(#clip8300)">
<text style="fill:#000000; fill-opacity:1; font-family:Arial,Helvetica Neue,Helvetica,sans-serif; font-size:48px; text-anchor:start;" transform="rotate(0, 1941.93, 208.744)" x="1941.93" y="208.744">y1</text>
</g>
<circle clip-path="url(#clip8300)" cx="1857.93" cy="251.724" r="21" fill="#0000ff" fill-rule="evenodd" fill-opacity="1" stroke="#000000" stroke-opacity="1" stroke-width="3.2"/>
<g clip-path="url(#clip8300)">
<text style="fill:#000000; fill-opacity:1; font-family:Arial,Helvetica Neue,Helvetica,sans-serif; font-size:48px; text-anchor:start;" transform="rotate(0, 1941.93, 269.224)" x="1941.93" y="269.224">y2</text>
</g>
</svg>
