<?xml version="1.0" encoding="utf-8"?>
<svg xmlns="http://www.w3.org/2000/svg" xmlns:xlink="http://www.w3.org/1999/xlink" width="600" height="400" viewBox="0 0 2400 1600">
<defs>
  <clipPath id="clip5000">
    <rect x="0" y="0" width="2400" height="1600"/>
  </clipPath>
</defs>
<path clip-path="url(#clip5000)" d="
M0 1600 L2400 1600 L2400 0 L0 0  Z
  " fill="#ffffff" fill-rule="evenodd" fill-opacity="1"/>
<defs>
  <clipPath id="clip5001">
    <rect x="480" y="0" width="1681" height="1600"/>
  </clipPath>
</defs>
<path clip-path="url(#clip5000)" d="
M140.517 687.475 L1152.76 687.475 L1152.76 121.675 L140.517 121.675  Z
  " fill="#ffffff" fill-rule="evenodd" fill-opacity="1"/>
<defs>
  <clipPath id="clip5002">
    <rect x="140" y="121" width="1013" height="567"/>
  </clipPath>
</defs>
<polyline clip-path="url(#clip5002)" style="stroke:#000000; stroke-width:2; stroke-opacity:0.1; fill:none" points="
  196.192,687.475 196.192,121.675 
  "/>
<polyline clip-path="url(#clip5002)" style="stroke:#000000; stroke-width:2; stroke-opacity:0.1; fill:none" points="
  346.34,687.475 346.34,121.675 
  "/>
<polyline clip-path="url(#clip5002)" style="stroke:#000000; stroke-width:2; stroke-opacity:0.1; fill:none" points="
  496.488,687.475 496.488,121.675 
  "/>
<polyline clip-path="url(#clip5002)" style="stroke:#000000; stroke-width:2; stroke-opacity:0.1; fill:none" points="
  646.636,687.475 646.636,121.675 
  "/>
<polyline clip-path="url(#clip5002)" style="stroke:#000000; stroke-width:2; stroke-opacity:0.1; fill:none" points="
  796.785,687.475 796.785,121.675 
  "/>
<polyline clip-path="url(#clip5002)" style="stroke:#000000; stroke-width:2; stroke-opacity:0.1; fill:none" points="
  946.933,687.475 946.933,121.675 
  "/>
<polyline clip-path="url(#clip5002)" style="stroke:#000000; stroke-width:2; stroke-opacity:0.1; fill:none" points="
  1097.08,687.475 1097.08,121.675 
  "/>
<polyline clip-path="url(#clip5002)" style="stroke:#000000; stroke-width:2; stroke-opacity:0.1; fill:none" points="
  140.517,671.462 1152.76,671.462 
  "/>
<polyline clip-path="url(#clip5002)" style="stroke:#000000; stroke-width:2; stroke-opacity:0.1; fill:none" points="
  140.517,534.597 1152.76,534.597 
  "/>
<polyline clip-path="url(#clip5002)" style="stroke:#000000; stroke-width:2; stroke-opacity:0.1; fill:none" points="
  140.517,397.732 1152.76,397.732 
  "/>
<polyline clip-path="url(#clip5002)" style="stroke:#000000; stroke-width:2; stroke-opacity:0.1; fill:none" points="
  140.517,260.867 1152.76,260.867 
  "/>
<polyline clip-path="url(#clip5002)" style="stroke:#000000; stroke-width:2; stroke-opacity:0.1; fill:none" points="
  140.517,124.002 1152.76,124.002 
  "/>
<polyline clip-path="url(#clip5000)" style="stroke:#000000; stroke-width:4; stroke-opacity:1; fill:none" points="
  140.517,687.475 1152.76,687.475 
  "/>
<polyline clip-path="url(#clip5000)" style="stroke:#000000; stroke-width:4; stroke-opacity:1; fill:none" points="
  140.517,687.475 140.517,121.675 
  "/>
<polyline clip-path="url(#clip5000)" style="stroke:#000000; stroke-width:4; stroke-opacity:1; fill:none" points="
  196.192,687.475 196.192,680.685 
  "/>
<polyline clip-path="url(#clip5000)" style="stroke:#000000; stroke-width:4; stroke-opacity:1; fill:none" points="
  346.34,687.475 346.34,680.685 
  "/>
<polyline clip-path="url(#clip5000)" style="stroke:#000000; stroke-width:4; stroke-opacity:1; fill:none" points="
  496.488,687.475 496.488,680.685 
  "/>
<polyline clip-path="url(#clip5000)" style="stroke:#000000; stroke-width:4; stroke-opacity:1; fill:none" points="
  646.636,687.475 646.636,680.685 
  "/>
<polyline clip-path="url(#clip5000)" style="stroke:#000000; stroke-width:4; stroke-opacity:1; fill:none" points="
  796.785,687.475 796.785,680.685 
  "/>
<polyline clip-path="url(#clip5000)" style="stroke:#000000; stroke-width:4; stroke-opacity:1; fill:none" points="
  946.933,687.475 946.933,680.685 
  "/>
<polyline clip-path="url(#clip5000)" style="stroke:#000000; stroke-width:4; stroke-opacity:1; fill:none" points="
  1097.08,687.475 1097.08,680.685 
  "/>
<polyline clip-path="url(#clip5000)" style="stroke:#000000; stroke-width:4; stroke-opacity:1; fill:none" points="
  140.517,671.462 152.664,671.462 
  "/>
<polyline clip-path="url(#clip5000)" style="stroke:#000000; stroke-width:4; stroke-opacity:1; fill:none" points="
  140.517,534.597 152.664,534.597 
  "/>
<polyline clip-path="url(#clip5000)" style="stroke:#000000; stroke-width:4; stroke-opacity:1; fill:none" points="
  140.517,397.732 152.664,397.732 
  "/>
<polyline clip-path="url(#clip5000)" style="stroke:#000000; stroke-width:4; stroke-opacity:1; fill:none" points="
  140.517,260.867 152.664,260.867 
  "/>
<polyline clip-path="url(#clip5000)" style="stroke:#000000; stroke-width:4; stroke-opacity:1; fill:none" points="
  140.517,124.002 152.664,124.002 
  "/>
<g clip-path="url(#clip5000)">
<text style="fill:#000000; fill-opacity:1; font-family:Arial,Helvetica Neue,Helvetica,sans-serif; font-size:48px; text-anchor:middle;" transform="rotate(0, 196.192, 741.475)" x="196.192" y="741.475">0</text>
</g>
<g clip-path="url(#clip5000)">
<text style="fill:#000000; fill-opacity:1; font-family:Arial,Helvetica Neue,Helvetica,sans-serif; font-size:48px; text-anchor:middle;" transform="rotate(0, 346.34, 741.475)" x="346.34" y="741.475">1</text>
</g>
<g clip-path="url(#clip5000)">
<text style="fill:#000000; fill-opacity:1; font-family:Arial,Helvetica Neue,Helvetica,sans-serif; font-size:48px; text-anchor:middle;" transform="rotate(0, 496.488, 741.475)" x="496.488" y="741.475">2</text>
</g>
<g clip-path="url(#clip5000)">
<text style="fill:#000000; fill-opacity:1; font-family:Arial,Helvetica Neue,Helvetica,sans-serif; font-size:48px; text-anchor:middle;" transform="rotate(0, 646.636, 741.475)" x="646.636" y="741.475">3</text>
</g>
<g clip-path="url(#clip5000)">
<text style="fill:#000000; fill-opacity:1; font-family:Arial,Helvetica Neue,Helvetica,sans-serif; font-size:48px; text-anchor:middle;" transform="rotate(0, 796.785, 741.475)" x="796.785" y="741.475">4</text>
</g>
<g clip-path="url(#clip5000)">
<text style="fill:#000000; fill-opacity:1; font-family:Arial,Helvetica Neue,Helvetica,sans-serif; font-size:48px; text-anchor:middle;" transform="rotate(0, 946.933, 741.475)" x="946.933" y="741.475">5</text>
</g>
<g clip-path="url(#clip5000)">
<text style="fill:#000000; fill-opacity:1; font-family:Arial,Helvetica Neue,Helvetica,sans-serif; font-size:48px; text-anchor:middle;" transform="rotate(0, 1097.08, 741.475)" x="1097.08" y="741.475">6</text>
</g>
<g clip-path="url(#clip5000)">
<text style="fill:#000000; fill-opacity:1; font-family:Arial,Helvetica Neue,Helvetica,sans-serif; font-size:48px; text-anchor:end;" transform="rotate(0, 116.517, 688.962)" x="116.517" y="688.962">0</text>
</g>
<g clip-path="url(#clip5000)">
<text style="fill:#000000; fill-opacity:1; font-family:Arial,Helvetica Neue,Helvetica,sans-serif; font-size:48px; text-anchor:end;" transform="rotate(0, 116.517, 552.097)" x="116.517" y="552.097">10</text>
</g>
<g clip-path="url(#clip5000)">
<text style="fill:#000000; fill-opacity:1; font-family:Arial,Helvetica Neue,Helvetica,sans-serif; font-size:48px; text-anchor:end;" transform="rotate(0, 116.517, 415.232)" x="116.517" y="415.232">20</text>
</g>
<g clip-path="url(#clip5000)">
<text style="fill:#000000; fill-opacity:1; font-family:Arial,Helvetica Neue,Helvetica,sans-serif; font-size:48px; text-anchor:end;" transform="rotate(0, 116.517, 278.367)" x="116.517" y="278.367">30</text>
</g>
<g clip-path="url(#clip5000)">
<text style="fill:#000000; fill-opacity:1; font-family:Arial,Helvetica Neue,Helvetica,sans-serif; font-size:48px; text-anchor:end;" transform="rotate(0, 116.517, 141.502)" x="116.517" y="141.502">40</text>
</g>
<g clip-path="url(#clip5000)">
<text style="fill:#000000; fill-opacity:1; font-family:Arial,Helvetica Neue,Helvetica,sans-serif; font-size:84px; text-anchor:middle;" transform="rotate(0, 646.636, 73.2)" x="646.636" y="73.2">no_alcohol+meds</text>
</g>
<path clip-path="url(#clip5002)" d="
M196.192 192.434 L196.192 671.462 L346.34 671.462 L346.34 192.434 L196.192 192.434 L196.192 192.434  Z
  " fill="#009af9" fill-rule="evenodd" fill-opacity="1"/>
<polyline clip-path="url(#clip5002)" style="stroke:#000000; stroke-width:4; stroke-opacity:1; fill:none" points="
  196.192,192.434 196.192,671.462 346.34,671.462 346.34,192.434 196.192,192.434 
  "/>
<path clip-path="url(#clip5002)" d="
M346.34 137.688 L346.34 671.462 L496.488 671.462 L496.488 137.688 L346.34 137.688 L346.34 137.688  Z
  " fill="#009af9" fill-rule="evenodd" fill-opacity="1"/>
<polyline clip-path="url(#clip5002)" style="stroke:#000000; stroke-width:4; stroke-opacity:1; fill:none" points="
  346.34,137.688 346.34,671.462 496.488,671.462 496.488,137.688 346.34,137.688 
  "/>
<path clip-path="url(#clip5002)" d="
M496.488 438.791 L496.488 671.462 L646.636 671.462 L646.636 438.791 L496.488 438.791 L496.488 438.791  Z
  " fill="#009af9" fill-rule="evenodd" fill-opacity="1"/>
<polyline clip-path="url(#clip5002)" style="stroke:#000000; stroke-width:4; stroke-opacity:1; fill:none" points="
  496.488,438.791 496.488,671.462 646.636,671.462 646.636,438.791 496.488,438.791 
  "/>
<path clip-path="url(#clip5002)" d="
M646.636 603.029 L646.636 671.462 L796.785 671.462 L796.785 603.029 L646.636 603.029 L646.636 603.029  Z
  " fill="#009af9" fill-rule="evenodd" fill-opacity="1"/>
<polyline clip-path="url(#clip5002)" style="stroke:#000000; stroke-width:4; stroke-opacity:1; fill:none" points="
  646.636,603.029 646.636,671.462 796.785,671.462 796.785,603.029 646.636,603.029 
  "/>
<path clip-path="url(#clip5002)" d="
M796.785 630.402 L796.785 671.462 L946.933 671.462 L946.933 630.402 L796.785 630.402 L796.785 630.402  Z
  " fill="#009af9" fill-rule="evenodd" fill-opacity="1"/>
<polyline clip-path="url(#clip5002)" style="stroke:#000000; stroke-width:4; stroke-opacity:1; fill:none" points="
  796.785,630.402 796.785,671.462 946.933,671.462 946.933,630.402 796.785,630.402 
  "/>
<path clip-path="url(#clip5002)" d="
M946.933 657.775 L946.933 671.462 L1097.08 671.462 L1097.08 657.775 L946.933 657.775 L946.933 657.775  Z
  " fill="#009af9" fill-rule="evenodd" fill-opacity="1"/>
<polyline clip-path="url(#clip5002)" style="stroke:#000000; stroke-width:4; stroke-opacity:1; fill:none" points="
  946.933,657.775 946.933,671.462 1097.08,671.462 1097.08,657.775 946.933,657.775 
  "/>
<path clip-path="url(#clip5000)" d="
M1340.52 687.475 L2352.76 687.475 L2352.76 121.675 L1340.52 121.675  Z
  " fill="#ffffff" fill-rule="evenodd" fill-opacity="1"/>
<defs>
  <clipPath id="clip5003">
    <rect x="1340" y="121" width="1013" height="567"/>
  </clipPath>
</defs>
<polyline clip-path="url(#clip5003)" style="stroke:#000000; stroke-width:2; stroke-opacity:0.1; fill:none" points="
  1396.19,687.475 1396.19,121.675 
  "/>
<polyline clip-path="url(#clip5003)" style="stroke:#000000; stroke-width:2; stroke-opacity:0.1; fill:none" points="
  1596.39,687.475 1596.39,121.675 
  "/>
<polyline clip-path="url(#clip5003)" style="stroke:#000000; stroke-width:2; stroke-opacity:0.1; fill:none" points="
  1796.59,687.475 1796.59,121.675 
  "/>
<polyline clip-path="url(#clip5003)" style="stroke:#000000; stroke-width:2; stroke-opacity:0.1; fill:none" points="
  1996.78,687.475 1996.78,121.675 
  "/>
<polyline clip-path="url(#clip5003)" style="stroke:#000000; stroke-width:2; stroke-opacity:0.1; fill:none" points="
  2196.98,687.475 2196.98,121.675 
  "/>
<polyline clip-path="url(#clip5003)" style="stroke:#000000; stroke-width:2; stroke-opacity:0.1; fill:none" points="
  1340.52,671.462 2352.76,671.462 
  "/>
<polyline clip-path="url(#clip5003)" style="stroke:#000000; stroke-width:2; stroke-opacity:0.1; fill:none" points="
  1340.52,555.424 2352.76,555.424 
  "/>
<polyline clip-path="url(#clip5003)" style="stroke:#000000; stroke-width:2; stroke-opacity:0.1; fill:none" points="
  1340.52,439.386 2352.76,439.386 
  "/>
<polyline clip-path="url(#clip5003)" style="stroke:#000000; stroke-width:2; stroke-opacity:0.1; fill:none" points="
  1340.52,323.349 2352.76,323.349 
  "/>
<polyline clip-path="url(#clip5003)" style="stroke:#000000; stroke-width:2; stroke-opacity:0.1; fill:none" points="
  1340.52,207.311 2352.76,207.311 
  "/>
<polyline clip-path="url(#clip5000)" style="stroke:#000000; stroke-width:4; stroke-opacity:1; fill:none" points="
  1340.52,687.475 2352.76,687.475 
  "/>
<polyline clip-path="url(#clip5000)" style="stroke:#000000; stroke-width:4; stroke-opacity:1; fill:none" points="
  1340.52,687.475 1340.52,121.675 
  "/>
<polyline clip-path="url(#clip5000)" style="stroke:#000000; stroke-width:4; stroke-opacity:1; fill:none" points="
  1396.19,687.475 1396.19,680.685 
  "/>
<polyline clip-path="url(#clip5000)" style="stroke:#000000; stroke-width:4; stroke-opacity:1; fill:none" points="
  1596.39,687.475 1596.39,680.685 
  "/>
<polyline clip-path="url(#clip5000)" style="stroke:#000000; stroke-width:4; stroke-opacity:1; fill:none" points="
  1796.59,687.475 1796.59,680.685 
  "/>
<polyline clip-path="url(#clip5000)" style="stroke:#000000; stroke-width:4; stroke-opacity:1; fill:none" points="
  1996.78,687.475 1996.78,680.685 
  "/>
<polyline clip-path="url(#clip5000)" style="stroke:#000000; stroke-width:4; stroke-opacity:1; fill:none" points="
  2196.98,687.475 2196.98,680.685 
  "/>
<polyline clip-path="url(#clip5000)" style="stroke:#000000; stroke-width:4; stroke-opacity:1; fill:none" points="
  1340.52,671.462 1352.66,671.462 
  "/>
<polyline clip-path="url(#clip5000)" style="stroke:#000000; stroke-width:4; stroke-opacity:1; fill:none" points="
  1340.52,555.424 1352.66,555.424 
  "/>
<polyline clip-path="url(#clip5000)" style="stroke:#000000; stroke-width:4; stroke-opacity:1; fill:none" points="
  1340.52,439.386 1352.66,439.386 
  "/>
<polyline clip-path="url(#clip5000)" style="stroke:#000000; stroke-width:4; stroke-opacity:1; fill:none" points="
  1340.52,323.349 1352.66,323.349 
  "/>
<polyline clip-path="url(#clip5000)" style="stroke:#000000; stroke-width:4; stroke-opacity:1; fill:none" points="
  1340.52,207.311 1352.66,207.311 
  "/>
<g clip-path="url(#clip5000)">
<text style="fill:#000000; fill-opacity:1; font-family:Arial,Helvetica Neue,Helvetica,sans-serif; font-size:48px; text-anchor:middle;" transform="rotate(0, 1396.19, 741.475)" x="1396.19" y="741.475">0</text>
</g>
<g clip-path="url(#clip5000)">
<text style="fill:#000000; fill-opacity:1; font-family:Arial,Helvetica Neue,Helvetica,sans-serif; font-size:48px; text-anchor:middle;" transform="rotate(0, 1596.39, 741.475)" x="1596.39" y="741.475">2</text>
</g>
<g clip-path="url(#clip5000)">
<text style="fill:#000000; fill-opacity:1; font-family:Arial,Helvetica Neue,Helvetica,sans-serif; font-size:48px; text-anchor:middle;" transform="rotate(0, 1796.59, 741.475)" x="1796.59" y="741.475">4</text>
</g>
<g clip-path="url(#clip5000)">
<text style="fill:#000000; fill-opacity:1; font-family:Arial,Helvetica Neue,Helvetica,sans-serif; font-size:48px; text-anchor:middle;" transform="rotate(0, 1996.78, 741.475)" x="1996.78" y="741.475">6</text>
</g>
<g clip-path="url(#clip5000)">
<text style="fill:#000000; fill-opacity:1; font-family:Arial,Helvetica Neue,Helvetica,sans-serif; font-size:48px; text-anchor:middle;" transform="rotate(0, 2196.98, 741.475)" x="2196.98" y="741.475">8</text>
</g>
<g clip-path="url(#clip5000)">
<text style="fill:#000000; fill-opacity:1; font-family:Arial,Helvetica Neue,Helvetica,sans-serif; font-size:48px; text-anchor:end;" transform="rotate(0, 1316.52, 688.962)" x="1316.52" y="688.962">0</text>
</g>
<g clip-path="url(#clip5000)">
<text style="fill:#000000; fill-opacity:1; font-family:Arial,Helvetica Neue,Helvetica,sans-serif; font-size:48px; text-anchor:end;" transform="rotate(0, 1316.52, 572.924)" x="1316.52" y="572.924">5</text>
</g>
<g clip-path="url(#clip5000)">
<text style="fill:#000000; fill-opacity:1; font-family:Arial,Helvetica Neue,Helvetica,sans-serif; font-size:48px; text-anchor:end;" transform="rotate(0, 1316.52, 456.886)" x="1316.52" y="456.886">10</text>
</g>
<g clip-path="url(#clip5000)">
<text style="fill:#000000; fill-opacity:1; font-family:Arial,Helvetica Neue,Helvetica,sans-serif; font-size:48px; text-anchor:end;" transform="rotate(0, 1316.52, 340.849)" x="1316.52" y="340.849">15</text>
</g>
<g clip-path="url(#clip5000)">
<text style="fill:#000000; fill-opacity:1; font-family:Arial,Helvetica Neue,Helvetica,sans-serif; font-size:48px; text-anchor:end;" transform="rotate(0, 1316.52, 224.811)" x="1316.52" y="224.811">20</text>
</g>
<g clip-path="url(#clip5000)">
<text style="fill:#000000; fill-opacity:1; font-family:Arial,Helvetica Neue,Helvetica,sans-serif; font-size:84px; text-anchor:middle;" transform="rotate(0, 1846.64, 73.2)" x="1846.64" y="73.2">alcohol+meds</text>
</g>
<path clip-path="url(#clip5003)" d="
M1396.19 625.046 L1396.19 671.462 L1496.29 671.462 L1496.29 625.046 L1396.19 625.046 L1396.19 625.046  Z
  " fill="#009af9" fill-rule="evenodd" fill-opacity="1"/>
<polyline clip-path="url(#clip5003)" style="stroke:#000000; stroke-width:4; stroke-opacity:1; fill:none" points="
  1396.19,625.046 1396.19,671.462 1496.29,671.462 1496.29,625.046 1396.19,625.046 
  "/>
<path clip-path="url(#clip5003)" d="
M1496.29 392.971 L1496.29 671.462 L1596.39 671.462 L1596.39 392.971 L1496.29 392.971 L1496.29 392.971  Z
  " fill="#009af9" fill-rule="evenodd" fill-opacity="1"/>
<polyline clip-path="url(#clip5003)" style="stroke:#000000; stroke-width:4; stroke-opacity:1; fill:none" points="
  1496.29,392.971 1496.29,671.462 1596.39,671.462 1596.39,392.971 1496.29,392.971 
  "/>
<path clip-path="url(#clip5003)" d="
M1596.39 137.688 L1596.39 671.462 L1696.49 671.462 L1696.49 137.688 L1596.39 137.688 L1596.39 137.688  Z
  " fill="#009af9" fill-rule="evenodd" fill-opacity="1"/>
<polyline clip-path="url(#clip5003)" style="stroke:#000000; stroke-width:4; stroke-opacity:1; fill:none" points="
  1596.39,137.688 1596.39,671.462 1696.49,671.462 1696.49,137.688 1596.39,137.688 
  "/>
<path clip-path="url(#clip5003)" d="
M1696.49 137.688 L1696.49 671.462 L1796.59 671.462 L1796.59 137.688 L1696.49 137.688 L1696.49 137.688  Z
  " fill="#009af9" fill-rule="evenodd" fill-opacity="1"/>
<polyline clip-path="url(#clip5003)" style="stroke:#000000; stroke-width:4; stroke-opacity:1; fill:none" points="
  1696.49,137.688 1696.49,671.462 1796.59,671.462 1796.59,137.688 1696.49,137.688 
  "/>
<path clip-path="url(#clip5003)" d="
M1796.59 207.311 L1796.59 671.462 L1896.69 671.462 L1896.69 207.311 L1796.59 207.311 L1796.59 207.311  Z
  " fill="#009af9" fill-rule="evenodd" fill-opacity="1"/>
<polyline clip-path="url(#clip5003)" style="stroke:#000000; stroke-width:4; stroke-opacity:1; fill:none" points="
  1796.59,207.311 1796.59,671.462 1896.69,671.462 1896.69,207.311 1796.59,207.311 
  "/>
<path clip-path="url(#clip5003)" d="
M1896.69 323.349 L1896.69 671.462 L1996.78 671.462 L1996.78 323.349 L1896.69 323.349 L1896.69 323.349  Z
  " fill="#009af9" fill-rule="evenodd" fill-opacity="1"/>
<polyline clip-path="url(#clip5003)" style="stroke:#000000; stroke-width:4; stroke-opacity:1; fill:none" points="
  1896.69,323.349 1896.69,671.462 1996.78,671.462 1996.78,323.349 1896.69,323.349 
  "/>
<path clip-path="url(#clip5003)" d="
M1996.78 601.839 L1996.78 671.462 L2096.88 671.462 L2096.88 601.839 L1996.78 601.839 L1996.78 601.839  Z
  " fill="#009af9" fill-rule="evenodd" fill-opacity="1"/>
<polyline clip-path="url(#clip5003)" style="stroke:#000000; stroke-width:4; stroke-opacity:1; fill:none" points="
  1996.78,601.839 1996.78,671.462 2096.88,671.462 2096.88,601.839 1996.78,601.839 
  "/>
<path clip-path="url(#clip5003)" d="
M2096.88 648.254 L2096.88 671.462 L2196.98 671.462 L2196.98 648.254 L2096.88 648.254 L2096.88 648.254  Z
  " fill="#009af9" fill-rule="evenodd" fill-opacity="1"/>
<polyline clip-path="url(#clip5003)" style="stroke:#000000; stroke-width:4; stroke-opacity:1; fill:none" points="
  2096.88,648.254 2096.88,671.462 2196.98,671.462 2196.98,648.254 2096.88,648.254 
  "/>
<path clip-path="url(#clip5003)" d="
M2196.98 648.254 L2196.98 671.462 L2297.08 671.462 L2297.08 648.254 L2196.98 648.254 L2196.98 648.254  Z
  " fill="#009af9" fill-rule="evenodd" fill-opacity="1"/>
<polyline clip-path="url(#clip5003)" style="stroke:#000000; stroke-width:4; stroke-opacity:1; fill:none" points="
  2196.98,648.254 2196.98,671.462 2297.08,671.462 2297.08,648.254 2196.98,648.254 
  "/>
<path clip-path="url(#clip5000)" d="
M140.517 1487.47 L1152.76 1487.47 L1152.76 921.675 L140.517 921.675  Z
  " fill="#ffffff" fill-rule="evenodd" fill-opacity="1"/>
<defs>
  <clipPath id="clip5004">
    <rect x="140" y="921" width="1013" height="567"/>
  </clipPath>
</defs>
<polyline clip-path="url(#clip5004)" style="stroke:#000000; stroke-width:2; stroke-opacity:0.1; fill:none" points="
  196.192,1487.47 196.192,921.675 
  "/>
<polyline clip-path="url(#clip5004)" style="stroke:#000000; stroke-width:2; stroke-opacity:0.1; fill:none" points="
  477.72,1487.47 477.72,921.675 
  "/>
<polyline clip-path="url(#clip5004)" style="stroke:#000000; stroke-width:2; stroke-opacity:0.1; fill:none" points="
  759.248,1487.47 759.248,921.675 
  "/>
<polyline clip-path="url(#clip5004)" style="stroke:#000000; stroke-width:2; stroke-opacity:0.1; fill:none" points="
  1040.78,1487.47 1040.78,921.675 
  "/>
<polyline clip-path="url(#clip5004)" style="stroke:#000000; stroke-width:2; stroke-opacity:0.1; fill:none" points="
  140.517,1471.46 1152.76,1471.46 
  "/>
<polyline clip-path="url(#clip5004)" style="stroke:#000000; stroke-width:2; stroke-opacity:0.1; fill:none" points="
  140.517,1304.66 1152.76,1304.66 
  "/>
<polyline clip-path="url(#clip5004)" style="stroke:#000000; stroke-width:2; stroke-opacity:0.1; fill:none" points="
  140.517,1137.85 1152.76,1137.85 
  "/>
<polyline clip-path="url(#clip5004)" style="stroke:#000000; stroke-width:2; stroke-opacity:0.1; fill:none" points="
  140.517,971.049 1152.76,971.049 
  "/>
<polyline clip-path="url(#clip5000)" style="stroke:#000000; stroke-width:4; stroke-opacity:1; fill:none" points="
  140.517,1487.47 1152.76,1487.47 
  "/>
<polyline clip-path="url(#clip5000)" style="stroke:#000000; stroke-width:4; stroke-opacity:1; fill:none" points="
  140.517,1487.47 140.517,921.675 
  "/>
<polyline clip-path="url(#clip5000)" style="stroke:#000000; stroke-width:4; stroke-opacity:1; fill:none" points="
  196.192,1487.47 196.192,1480.69 
  "/>
<polyline clip-path="url(#clip5000)" style="stroke:#000000; stroke-width:4; stroke-opacity:1; fill:none" points="
  477.72,1487.47 477.72,1480.69 
  "/>
<polyline clip-path="url(#clip5000)" style="stroke:#000000; stroke-width:4; stroke-opacity:1; fill:none" points="
  759.248,1487.47 759.248,1480.69 
  "/>
<polyline clip-path="url(#clip5000)" style="stroke:#000000; stroke-width:4; stroke-opacity:1; fill:none" points="
  1040.78,1487.47 1040.78,1480.69 
  "/>
<polyline clip-path="url(#clip5000)" style="stroke:#000000; stroke-width:4; stroke-opacity:1; fill:none" points="
  140.517,1471.46 152.664,1471.46 
  "/>
<polyline clip-path="url(#clip5000)" style="stroke:#000000; stroke-width:4; stroke-opacity:1; fill:none" points="
  140.517,1304.66 152.664,1304.66 
  "/>
<polyline clip-path="url(#clip5000)" style="stroke:#000000; stroke-width:4; stroke-opacity:1; fill:none" points="
  140.517,1137.85 152.664,1137.85 
  "/>
<polyline clip-path="url(#clip5000)" style="stroke:#000000; stroke-width:4; stroke-opacity:1; fill:none" points="
  140.517,971.049 152.664,971.049 
  "/>
<g clip-path="url(#clip5000)">
<text style="fill:#000000; fill-opacity:1; font-family:Arial,Helvetica Neue,Helvetica,sans-serif; font-size:48px; text-anchor:middle;" transform="rotate(0, 196.192, 1541.47)" x="196.192" y="1541.47">0</text>
</g>
<g clip-path="url(#clip5000)">
<text style="fill:#000000; fill-opacity:1; font-family:Arial,Helvetica Neue,Helvetica,sans-serif; font-size:48px; text-anchor:middle;" transform="rotate(0, 477.72, 1541.47)" x="477.72" y="1541.47">5</text>
</g>
<g clip-path="url(#clip5000)">
<text style="fill:#000000; fill-opacity:1; font-family:Arial,Helvetica Neue,Helvetica,sans-serif; font-size:48px; text-anchor:middle;" transform="rotate(0, 759.248, 1541.47)" x="759.248" y="1541.47">10</text>
</g>
<g clip-path="url(#clip5000)">
<text style="fill:#000000; fill-opacity:1; font-family:Arial,Helvetica Neue,Helvetica,sans-serif; font-size:48px; text-anchor:middle;" transform="rotate(0, 1040.78, 1541.47)" x="1040.78" y="1541.47">15</text>
</g>
<g clip-path="url(#clip5000)">
<text style="fill:#000000; fill-opacity:1; font-family:Arial,Helvetica Neue,Helvetica,sans-serif; font-size:48px; text-anchor:end;" transform="rotate(0, 116.517, 1488.96)" x="116.517" y="1488.96">0</text>
</g>
<g clip-path="url(#clip5000)">
<text style="fill:#000000; fill-opacity:1; font-family:Arial,Helvetica Neue,Helvetica,sans-serif; font-size:48px; text-anchor:end;" transform="rotate(0, 116.517, 1322.16)" x="116.517" y="1322.16">10</text>
</g>
<g clip-path="url(#clip5000)">
<text style="fill:#000000; fill-opacity:1; font-family:Arial,Helvetica Neue,Helvetica,sans-serif; font-size:48px; text-anchor:end;" transform="rotate(0, 116.517, 1155.35)" x="116.517" y="1155.35">20</text>
</g>
<g clip-path="url(#clip5000)">
<text style="fill:#000000; fill-opacity:1; font-family:Arial,Helvetica Neue,Helvetica,sans-serif; font-size:48px; text-anchor:end;" transform="rotate(0, 116.517, 988.549)" x="116.517" y="988.549">30</text>
</g>
<g clip-path="url(#clip5000)">
<text style="fill:#000000; fill-opacity:1; font-family:Arial,Helvetica Neue,Helvetica,sans-serif; font-size:84px; text-anchor:middle;" transform="rotate(0, 646.636, 873.2)" x="646.636" y="873.2">no_alcohol+no_meds</text>
</g>
<path clip-path="url(#clip5004)" d="
M196.192 1421.42 L196.192 1471.46 L308.803 1471.46 L308.803 1421.42 L196.192 1421.42 L196.192 1421.42  Z
  " fill="#009af9" fill-rule="evenodd" fill-opacity="1"/>
<polyline clip-path="url(#clip5004)" style="stroke:#000000; stroke-width:4; stroke-opacity:1; fill:none" points="
  196.192,1421.42 196.192,1471.46 308.803,1471.46 308.803,1421.42 196.192,1421.42 
  "/>
<path clip-path="url(#clip5004)" d="
M308.803 1287.98 L308.803 1471.46 L421.414 1471.46 L421.414 1287.98 L308.803 1287.98 L308.803 1287.98  Z
  " fill="#009af9" fill-rule="evenodd" fill-opacity="1"/>
<polyline clip-path="url(#clip5004)" style="stroke:#000000; stroke-width:4; stroke-opacity:1; fill:none" points="
  308.803,1287.98 308.803,1471.46 421.414,1471.46 421.414,1287.98 308.803,1287.98 
  "/>
<path clip-path="url(#clip5004)" d="
M421.414 971.049 L421.414 1471.46 L534.025 1471.46 L534.025 971.049 L421.414 971.049 L421.414 971.049  Z
  " fill="#009af9" fill-rule="evenodd" fill-opacity="1"/>
<polyline clip-path="url(#clip5004)" style="stroke:#000000; stroke-width:4; stroke-opacity:1; fill:none" points="
  421.414,971.049 421.414,1471.46 534.025,1471.46 534.025,971.049 421.414,971.049 
  "/>
<path clip-path="url(#clip5004)" d="
M534.025 937.688 L534.025 1471.46 L646.636 1471.46 L646.636 937.688 L534.025 937.688 L534.025 937.688  Z
  " fill="#009af9" fill-rule="evenodd" fill-opacity="1"/>
<polyline clip-path="url(#clip5004)" style="stroke:#000000; stroke-width:4; stroke-opacity:1; fill:none" points="
  534.025,937.688 534.025,1471.46 646.636,1471.46 646.636,937.688 534.025,937.688 
  "/>
<path clip-path="url(#clip5004)" d="
M646.636 1254.62 L646.636 1471.46 L759.248 1471.46 L759.248 1254.62 L646.636 1254.62 L646.636 1254.62  Z
  " fill="#009af9" fill-rule="evenodd" fill-opacity="1"/>
<polyline clip-path="url(#clip5004)" style="stroke:#000000; stroke-width:4; stroke-opacity:1; fill:none" points="
  646.636,1254.62 646.636,1471.46 759.248,1471.46 759.248,1254.62 646.636,1254.62 
  "/>
<path clip-path="url(#clip5004)" d="
M759.248 1371.38 L759.248 1471.46 L871.859 1471.46 L871.859 1371.38 L759.248 1371.38 L759.248 1371.38  Z
  " fill="#009af9" fill-rule="evenodd" fill-opacity="1"/>
<polyline clip-path="url(#clip5004)" style="stroke:#000000; stroke-width:4; stroke-opacity:1; fill:none" points="
  759.248,1371.38 759.248,1471.46 871.859,1471.46 871.859,1371.38 759.248,1371.38 
  "/>
<path clip-path="url(#clip5004)" d="
M871.859 1404.74 L871.859 1471.46 L984.47 1471.46 L984.47 1404.74 L871.859 1404.74 L871.859 1404.74  Z
  " fill="#009af9" fill-rule="evenodd" fill-opacity="1"/>
<polyline clip-path="url(#clip5004)" style="stroke:#000000; stroke-width:4; stroke-opacity:1; fill:none" points="
  871.859,1404.74 871.859,1471.46 984.47,1471.46 984.47,1404.74 871.859,1404.74 
  "/>
<path clip-path="url(#clip5004)" d="
M984.47 1454.78 L984.47 1471.46 L1097.08 1471.46 L1097.08 1454.78 L984.47 1454.78 L984.47 1454.78  Z
  " fill="#009af9" fill-rule="evenodd" fill-opacity="1"/>
<polyline clip-path="url(#clip5004)" style="stroke:#000000; stroke-width:4; stroke-opacity:1; fill:none" points="
  984.47,1454.78 984.47,1471.46 1097.08,1471.46 1097.08,1454.78 984.47,1454.78 
  "/>
<path clip-path="url(#clip5000)" d="
M1340.52 1487.47 L2352.76 1487.47 L2352.76 921.675 L1340.52 921.675  Z
  " fill="#ffffff" fill-rule="evenodd" fill-opacity="1"/>
<defs>
  <clipPath id="clip5005">
    <rect x="1340" y="921" width="1013" height="567"/>
  </clipPath>
</defs>
<polyline clip-path="url(#clip5005)" style="stroke:#000000; stroke-width:2; stroke-opacity:0.1; fill:none" points="
  1396.19,1487.47 1396.19,921.675 
  "/>
<polyline clip-path="url(#clip5005)" style="stroke:#000000; stroke-width:2; stroke-opacity:0.1; fill:none" points="
  1653.59,1487.47 1653.59,921.675 
  "/>
<polyline clip-path="url(#clip5005)" style="stroke:#000000; stroke-width:2; stroke-opacity:0.1; fill:none" points="
  1910.99,1487.47 1910.99,921.675 
  "/>
<polyline clip-path="url(#clip5005)" style="stroke:#000000; stroke-width:2; stroke-opacity:0.1; fill:none" points="
  2168.38,1487.47 2168.38,921.675 
  "/>
<polyline clip-path="url(#clip5005)" style="stroke:#000000; stroke-width:2; stroke-opacity:0.1; fill:none" points="
  1340.52,1471.46 2352.76,1471.46 
  "/>
<polyline clip-path="url(#clip5005)" style="stroke:#000000; stroke-width:2; stroke-opacity:0.1; fill:none" points="
  1340.52,1376.14 2352.76,1376.14 
  "/>
<polyline clip-path="url(#clip5005)" style="stroke:#000000; stroke-width:2; stroke-opacity:0.1; fill:none" points="
  1340.52,1280.83 2352.76,1280.83 
  "/>
<polyline clip-path="url(#clip5005)" style="stroke:#000000; stroke-width:2; stroke-opacity:0.1; fill:none" points="
  1340.52,1185.51 2352.76,1185.51 
  "/>
<polyline clip-path="url(#clip5005)" style="stroke:#000000; stroke-width:2; stroke-opacity:0.1; fill:none" points="
  1340.52,1090.19 2352.76,1090.19 
  "/>
<polyline clip-path="url(#clip5005)" style="stroke:#000000; stroke-width:2; stroke-opacity:0.1; fill:none" points="
  1340.52,994.878 2352.76,994.878 
  "/>
<polyline clip-path="url(#clip5000)" style="stroke:#000000; stroke-width:4; stroke-opacity:1; fill:none" points="
  1340.52,1487.47 2352.76,1487.47 
  "/>
<polyline clip-path="url(#clip5000)" style="stroke:#000000; stroke-width:4; stroke-opacity:1; fill:none" points="
  1340.52,1487.47 1340.52,921.675 
  "/>
<polyline clip-path="url(#clip5000)" style="stroke:#000000; stroke-width:4; stroke-opacity:1; fill:none" points="
  1396.19,1487.47 1396.19,1480.69 
  "/>
<polyline clip-path="url(#clip5000)" style="stroke:#000000; stroke-width:4; stroke-opacity:1; fill:none" points="
  1653.59,1487.47 1653.59,1480.69 
  "/>
<polyline clip-path="url(#clip5000)" style="stroke:#000000; stroke-width:4; stroke-opacity:1; fill:none" points="
  1910.99,1487.47 1910.99,1480.69 
  "/>
<polyline clip-path="url(#clip5000)" style="stroke:#000000; stroke-width:4; stroke-opacity:1; fill:none" points="
  2168.38,1487.47 2168.38,1480.69 
  "/>
<polyline clip-path="url(#clip5000)" style="stroke:#000000; stroke-width:4; stroke-opacity:1; fill:none" points="
  1340.52,1471.46 1352.66,1471.46 
  "/>
<polyline clip-path="url(#clip5000)" style="stroke:#000000; stroke-width:4; stroke-opacity:1; fill:none" points="
  1340.52,1376.14 1352.66,1376.14 
  "/>
<polyline clip-path="url(#clip5000)" style="stroke:#000000; stroke-width:4; stroke-opacity:1; fill:none" points="
  1340.52,1280.83 1352.66,1280.83 
  "/>
<polyline clip-path="url(#clip5000)" style="stroke:#000000; stroke-width:4; stroke-opacity:1; fill:none" points="
  1340.52,1185.51 1352.66,1185.51 
  "/>
<polyline clip-path="url(#clip5000)" style="stroke:#000000; stroke-width:4; stroke-opacity:1; fill:none" points="
  1340.52,1090.19 1352.66,1090.19 
  "/>
<polyline clip-path="url(#clip5000)" style="stroke:#000000; stroke-width:4; stroke-opacity:1; fill:none" points="
  1340.52,994.878 1352.66,994.878 
  "/>
<g clip-path="url(#clip5000)">
<text style="fill:#000000; fill-opacity:1; font-family:Arial,Helvetica Neue,Helvetica,sans-serif; font-size:48px; text-anchor:middle;" transform="rotate(0, 1396.19, 1541.47)" x="1396.19" y="1541.47">20</text>
</g>
<g clip-path="url(#clip5000)">
<text style="fill:#000000; fill-opacity:1; font-family:Arial,Helvetica Neue,Helvetica,sans-serif; font-size:48px; text-anchor:middle;" transform="rotate(0, 1653.59, 1541.47)" x="1653.59" y="1541.47">30</text>
</g>
<g clip-path="url(#clip5000)">
<text style="fill:#000000; fill-opacity:1; font-family:Arial,Helvetica Neue,Helvetica,sans-serif; font-size:48px; text-anchor:middle;" transform="rotate(0, 1910.99, 1541.47)" x="1910.99" y="1541.47">40</text>
</g>
<g clip-path="url(#clip5000)">
<text style="fill:#000000; fill-opacity:1; font-family:Arial,Helvetica Neue,Helvetica,sans-serif; font-size:48px; text-anchor:middle;" transform="rotate(0, 2168.38, 1541.47)" x="2168.38" y="1541.47">50</text>
</g>
<g clip-path="url(#clip5000)">
<text style="fill:#000000; fill-opacity:1; font-family:Arial,Helvetica Neue,Helvetica,sans-serif; font-size:48px; text-anchor:end;" transform="rotate(0, 1316.52, 1488.96)" x="1316.52" y="1488.96">0</text>
</g>
<g clip-path="url(#clip5000)">
<text style="fill:#000000; fill-opacity:1; font-family:Arial,Helvetica Neue,Helvetica,sans-serif; font-size:48px; text-anchor:end;" transform="rotate(0, 1316.52, 1393.64)" x="1316.52" y="1393.64">5</text>
</g>
<g clip-path="url(#clip5000)">
<text style="fill:#000000; fill-opacity:1; font-family:Arial,Helvetica Neue,Helvetica,sans-serif; font-size:48px; text-anchor:end;" transform="rotate(0, 1316.52, 1298.33)" x="1316.52" y="1298.33">10</text>
</g>
<g clip-path="url(#clip5000)">
<text style="fill:#000000; fill-opacity:1; font-family:Arial,Helvetica Neue,Helvetica,sans-serif; font-size:48px; text-anchor:end;" transform="rotate(0, 1316.52, 1203.01)" x="1316.52" y="1203.01">15</text>
</g>
<g clip-path="url(#clip5000)">
<text style="fill:#000000; fill-opacity:1; font-family:Arial,Helvetica Neue,Helvetica,sans-serif; font-size:48px; text-anchor:end;" transform="rotate(0, 1316.52, 1107.69)" x="1316.52" y="1107.69">20</text>
</g>
<g clip-path="url(#clip5000)">
<text style="fill:#000000; fill-opacity:1; font-family:Arial,Helvetica Neue,Helvetica,sans-serif; font-size:48px; text-anchor:end;" transform="rotate(0, 1316.52, 1012.38)" x="1316.52" y="1012.38">25</text>
</g>
<g clip-path="url(#clip5000)">
<text style="fill:#000000; fill-opacity:1; font-family:Arial,Helvetica Neue,Helvetica,sans-serif; font-size:84px; text-anchor:middle;" transform="rotate(0, 1846.64, 873.2)" x="1846.64" y="873.2">alcohol+no_meds</text>
</g>
<path clip-path="url(#clip5005)" d="
M1396.19 1414.27 L1396.19 1471.46 L1524.89 1471.46 L1524.89 1414.27 L1396.19 1414.27 L1396.19 1414.27  Z
  " fill="#009af9" fill-rule="evenodd" fill-opacity="1"/>
<polyline clip-path="url(#clip5005)" style="stroke:#000000; stroke-width:4; stroke-opacity:1; fill:none" points="
  1396.19,1414.27 1396.19,1471.46 1524.89,1471.46 1524.89,1414.27 1396.19,1414.27 
  "/>
<path clip-path="url(#clip5005)" d="
M1524.89 1185.51 L1524.89 1471.46 L1653.59 1471.46 L1653.59 1185.51 L1524.89 1185.51 L1524.89 1185.51  Z
  " fill="#009af9" fill-rule="evenodd" fill-opacity="1"/>
<polyline clip-path="url(#clip5005)" style="stroke:#000000; stroke-width:4; stroke-opacity:1; fill:none" points="
  1524.89,1185.51 1524.89,1471.46 1653.59,1471.46 1653.59,1185.51 1524.89,1185.51 
  "/>
<path clip-path="url(#clip5005)" d="
M1653.59 975.815 L1653.59 1471.46 L1782.29 1471.46 L1782.29 975.815 L1653.59 975.815 L1653.59 975.815  Z
  " fill="#009af9" fill-rule="evenodd" fill-opacity="1"/>
<polyline clip-path="url(#clip5005)" style="stroke:#000000; stroke-width:4; stroke-opacity:1; fill:none" points="
  1653.59,975.815 1653.59,1471.46 1782.29,1471.46 1782.29,975.815 1653.59,975.815 
  "/>
<path clip-path="url(#clip5005)" d="
M1782.29 937.688 L1782.29 1471.46 L1910.99 1471.46 L1910.99 937.688 L1782.29 937.688 L1782.29 937.688  Z
  " fill="#009af9" fill-rule="evenodd" fill-opacity="1"/>
<polyline clip-path="url(#clip5005)" style="stroke:#000000; stroke-width:4; stroke-opacity:1; fill:none" points="
  1782.29,937.688 1782.29,1471.46 1910.99,1471.46 1910.99,937.688 1782.29,937.688 
  "/>
<path clip-path="url(#clip5005)" d="
M1910.99 1109.26 L1910.99 1471.46 L2039.68 1471.46 L2039.68 1109.26 L1910.99 1109.26 L1910.99 1109.26  Z
  " fill="#009af9" fill-rule="evenodd" fill-opacity="1"/>
<polyline clip-path="url(#clip5005)" style="stroke:#000000; stroke-width:4; stroke-opacity:1; fill:none" points="
  1910.99,1109.26 1910.99,1471.46 2039.68,1471.46 2039.68,1109.26 1910.99,1109.26 
  "/>
<path clip-path="url(#clip5005)" d="
M2039.68 1338.02 L2039.68 1471.46 L2168.38 1471.46 L2168.38 1338.02 L2039.68 1338.02 L2039.68 1338.02  Z
  " fill="#009af9" fill-rule="evenodd" fill-opacity="1"/>
<polyline clip-path="url(#clip5005)" style="stroke:#000000; stroke-width:4; stroke-opacity:1; fill:none" points="
  2039.68,1338.02 2039.68,1471.46 2168.38,1471.46 2168.38,1338.02 2039.68,1338.02 
  "/>
<path clip-path="url(#clip5005)" d="
M2168.38 1433.33 L2168.38 1471.46 L2297.08 1471.46 L2297.08 1433.33 L2168.38 1433.33 L2168.38 1433.33  Z
  " fill="#009af9" fill-rule="evenodd" fill-opacity="1"/>
<polyline clip-path="url(#clip5005)" style="stroke:#000000; stroke-width:4; stroke-opacity:1; fill:none" points="
  2168.38,1433.33 2168.38,1471.46 2297.08,1471.46 2297.08,1433.33 2168.38,1433.33 
  "/>
</svg>
