<?xml version="1.0" encoding="utf-8"?>
<svg xmlns="http://www.w3.org/2000/svg" xmlns:xlink="http://www.w3.org/1999/xlink" width="576" height="384" viewBox="0 0 2304 1536">
<defs>
  <clipPath id="clip350">
    <rect x="0" y="0" width="2304" height="1536"/>
  </clipPath>
</defs>
<path clip-path="url(#clip350)" d="
M0 1536 L2304 1536 L2304 0 L0 0  Z
  " fill="#ffffff" fill-rule="evenodd" fill-opacity="1"/>
<defs>
  <clipPath id="clip351">
    <rect x="460" y="0" width="1614" height="1536"/>
  </clipPath>
</defs>
<path clip-path="url(#clip350)" d="
M148.231 1423.09 L2256.76 1423.09 L2256.76 123.472 L148.231 123.472  Z
  " fill="#ffffff" fill-rule="evenodd" fill-opacity="1"/>
<defs>
  <clipPath id="clip352">
    <rect x="148" y="123" width="2110" height="1301"/>
  </clipPath>
</defs>
<polyline clip-path="url(#clip352)" style="stroke:#000000; stroke-linecap:butt; stroke-linejoin:round; stroke-width:2; stroke-opacity:0.1; fill:none" points="
  493.907,1423.09 493.907,123.472 
  "/>
<polyline clip-path="url(#clip352)" style="stroke:#000000; stroke-linecap:butt; stroke-linejoin:round; stroke-width:2; stroke-opacity:0.1; fill:none" points="
  1050.42,1423.09 1050.42,123.472 
  "/>
<polyline clip-path="url(#clip352)" style="stroke:#000000; stroke-linecap:butt; stroke-linejoin:round; stroke-width:2; stroke-opacity:0.1; fill:none" points="
  1606.94,1423.09 1606.94,123.472 
  "/>
<polyline clip-path="url(#clip352)" style="stroke:#000000; stroke-linecap:butt; stroke-linejoin:round; stroke-width:2; stroke-opacity:0.1; fill:none" points="
  2163.45,1423.09 2163.45,123.472 
  "/>
<polyline clip-path="url(#clip350)" style="stroke:#000000; stroke-linecap:butt; stroke-linejoin:round; stroke-width:4; stroke-opacity:1; fill:none" points="
  148.231,1423.09 2256.76,1423.09 
  "/>
<polyline clip-path="url(#clip350)" style="stroke:#000000; stroke-linecap:butt; stroke-linejoin:round; stroke-width:4; stroke-opacity:1; fill:none" points="
  493.907,1423.09 493.907,1404.19 
  "/>
<polyline clip-path="url(#clip350)" style="stroke:#000000; stroke-linecap:butt; stroke-linejoin:round; stroke-width:4; stroke-opacity:1; fill:none" points="
  1050.42,1423.09 1050.42,1404.19 
  "/>
<polyline clip-path="url(#clip350)" style="stroke:#000000; stroke-linecap:butt; stroke-linejoin:round; stroke-width:4; stroke-opacity:1; fill:none" points="
  1606.94,1423.09 1606.94,1404.19 
  "/>
<polyline clip-path="url(#clip350)" style="stroke:#000000; stroke-linecap:butt; stroke-linejoin:round; stroke-width:4; stroke-opacity:1; fill:none" points="
  2163.45,1423.09 2163.45,1404.19 
  "/>
<path clip-path="url(#clip350)" d="M462.807 1466.16 L492.483 1466.16 L492.483 1470.1 L462.807 1470.1 L462.807 1466.16 Z" fill="#000000" fill-rule="evenodd" fill-opacity="1" /><path clip-path="url(#clip350)" d="M515.423 1452.51 L503.617 1470.95 L515.423 1470.95 L515.423 1452.51 M514.196 1448.43 L520.076 1448.43 L520.076 1470.95 L525.006 1470.95 L525.006 1474.84 L520.076 1474.84 L520.076 1482.99 L515.423 1482.99 L515.423 1474.84 L499.821 1474.84 L499.821 1470.33 L514.196 1448.43 Z" fill="#000000" fill-rule="evenodd" fill-opacity="1" /><path clip-path="url(#clip350)" d="M1020.36 1466.16 L1050.04 1466.16 L1050.04 1470.1 L1020.36 1470.1 L1020.36 1466.16 Z" fill="#000000" fill-rule="evenodd" fill-opacity="1" /><path clip-path="url(#clip350)" d="M1064.16 1479.06 L1080.48 1479.06 L1080.48 1482.99 L1058.54 1482.99 L1058.54 1479.06 Q1061.2 1476.3 1065.78 1471.67 Q1070.39 1467.02 1071.57 1465.68 Q1073.81 1463.15 1074.69 1461.42 Q1075.6 1459.66 1075.6 1457.97 Q1075.6 1455.21 1073.65 1453.48 Q1071.73 1451.74 1068.63 1451.74 Q1066.43 1451.74 1063.98 1452.51 Q1061.55 1453.27 1058.77 1454.82 L1058.77 1450.1 Q1061.59 1448.96 1064.05 1448.39 Q1066.5 1447.81 1068.54 1447.81 Q1073.91 1447.81 1077.1 1450.49 Q1080.3 1453.18 1080.3 1457.67 Q1080.3 1459.8 1079.48 1461.72 Q1078.7 1463.62 1076.59 1466.21 Q1076.01 1466.88 1072.91 1470.1 Q1069.81 1473.29 1064.16 1479.06 Z" fill="#000000" fill-rule="evenodd" fill-opacity="1" /><path clip-path="url(#clip350)" d="M1606.94 1451.51 Q1603.33 1451.51 1601.5 1455.08 Q1599.69 1458.62 1599.69 1465.75 Q1599.69 1472.85 1601.5 1476.42 Q1603.33 1479.96 1606.94 1479.96 Q1610.57 1479.96 1612.38 1476.42 Q1614.21 1472.85 1614.21 1465.75 Q1614.21 1458.62 1612.38 1455.08 Q1610.57 1451.51 1606.94 1451.51 M1606.94 1447.81 Q1612.75 1447.81 1615.8 1452.41 Q1618.88 1457 1618.88 1465.75 Q1618.88 1474.47 1615.8 1479.08 Q1612.75 1483.66 1606.94 1483.66 Q1601.13 1483.66 1598.05 1479.08 Q1594.99 1474.47 1594.99 1465.75 Q1594.99 1457 1598.05 1452.41 Q1601.13 1447.81 1606.94 1447.81 Z" fill="#000000" fill-rule="evenodd" fill-opacity="1" /><path clip-path="url(#clip350)" d="M2158.11 1479.06 L2174.43 1479.06 L2174.43 1482.99 L2152.48 1482.99 L2152.48 1479.06 Q2155.14 1476.3 2159.73 1471.67 Q2164.33 1467.02 2165.51 1465.68 Q2167.76 1463.15 2168.64 1461.42 Q2169.54 1459.66 2169.54 1457.97 Q2169.54 1455.21 2167.6 1453.48 Q2165.68 1451.74 2162.57 1451.74 Q2160.38 1451.74 2157.92 1452.51 Q2155.49 1453.27 2152.71 1454.82 L2152.71 1450.1 Q2155.54 1448.96 2157.99 1448.39 Q2160.44 1447.81 2162.48 1447.81 Q2167.85 1447.81 2171.05 1450.49 Q2174.24 1453.18 2174.24 1457.67 Q2174.24 1459.8 2173.43 1461.72 Q2172.64 1463.62 2170.54 1466.21 Q2169.96 1466.88 2166.86 1470.1 Q2163.75 1473.29 2158.11 1479.06 Z" fill="#000000" fill-rule="evenodd" fill-opacity="1" /><polyline clip-path="url(#clip352)" style="stroke:#000000; stroke-linecap:butt; stroke-linejoin:round; stroke-width:2; stroke-opacity:0.1; fill:none" points="
  148.231,1383.18 2256.76,1383.18 
  "/>
<polyline clip-path="url(#clip352)" style="stroke:#000000; stroke-linecap:butt; stroke-linejoin:round; stroke-width:2; stroke-opacity:0.1; fill:none" points="
  148.231,1066.42 2256.76,1066.42 
  "/>
<polyline clip-path="url(#clip352)" style="stroke:#000000; stroke-linecap:butt; stroke-linejoin:round; stroke-width:2; stroke-opacity:0.1; fill:none" points="
  148.231,749.664 2256.76,749.664 
  "/>
<polyline clip-path="url(#clip352)" style="stroke:#000000; stroke-linecap:butt; stroke-linejoin:round; stroke-width:2; stroke-opacity:0.1; fill:none" points="
  148.231,432.906 2256.76,432.906 
  "/>
<polyline clip-path="url(#clip350)" style="stroke:#000000; stroke-linecap:butt; stroke-linejoin:round; stroke-width:4; stroke-opacity:1; fill:none" points="
  148.231,1423.09 148.231,123.472 
  "/>
<polyline clip-path="url(#clip350)" style="stroke:#000000; stroke-linecap:butt; stroke-linejoin:round; stroke-width:4; stroke-opacity:1; fill:none" points="
  148.231,1383.18 167.129,1383.18 
  "/>
<polyline clip-path="url(#clip350)" style="stroke:#000000; stroke-linecap:butt; stroke-linejoin:round; stroke-width:4; stroke-opacity:1; fill:none" points="
  148.231,1066.42 167.129,1066.42 
  "/>
<polyline clip-path="url(#clip350)" style="stroke:#000000; stroke-linecap:butt; stroke-linejoin:round; stroke-width:4; stroke-opacity:1; fill:none" points="
  148.231,749.664 167.129,749.664 
  "/>
<polyline clip-path="url(#clip350)" style="stroke:#000000; stroke-linecap:butt; stroke-linejoin:round; stroke-width:4; stroke-opacity:1; fill:none" points="
  148.231,432.906 167.129,432.906 
  "/>
<path clip-path="url(#clip350)" d="M51.7962 1383.63 L81.472 1383.63 L81.472 1387.57 L51.7962 1387.57 L51.7962 1383.63 Z" fill="#000000" fill-rule="evenodd" fill-opacity="1" /><path clip-path="url(#clip350)" d="M102.143 1381.32 Q98.995 1381.32 97.1432 1383.47 Q95.3145 1385.62 95.3145 1389.37 Q95.3145 1393.1 97.1432 1395.28 Q98.995 1397.43 102.143 1397.43 Q105.291 1397.43 107.12 1395.28 Q108.972 1393.1 108.972 1389.37 Q108.972 1385.62 107.12 1383.47 Q105.291 1381.32 102.143 1381.32 M111.426 1366.66 L111.426 1370.92 Q109.666 1370.09 107.861 1369.65 Q106.078 1369.21 104.319 1369.21 Q99.6895 1369.21 97.2358 1372.34 Q94.8052 1375.46 94.458 1381.78 Q95.8237 1379.77 97.8839 1378.7 Q99.9441 1377.61 102.421 1377.61 Q107.629 1377.61 110.638 1380.79 Q113.671 1383.93 113.671 1389.37 Q113.671 1394.7 110.523 1397.91 Q107.375 1401.13 102.143 1401.13 Q96.1478 1401.13 92.9765 1396.55 Q89.8053 1391.94 89.8053 1383.22 Q89.8053 1375.02 93.6941 1370.16 Q97.583 1365.28 104.134 1365.28 Q105.893 1365.28 107.676 1365.62 Q109.481 1365.97 111.426 1366.66 Z" fill="#000000" fill-rule="evenodd" fill-opacity="1" /><path clip-path="url(#clip350)" d="M51.4721 1066.87 L81.1479 1066.87 L81.1479 1070.81 L51.4721 1070.81 L51.4721 1066.87 Z" fill="#000000" fill-rule="evenodd" fill-opacity="1" /><path clip-path="url(#clip350)" d="M104.088 1053.22 L92.2821 1071.67 L104.088 1071.67 L104.088 1053.22 M102.861 1049.14 L108.74 1049.14 L108.74 1071.67 L113.671 1071.67 L113.671 1075.55 L108.74 1075.55 L108.74 1083.7 L104.088 1083.7 L104.088 1075.55 L88.4858 1075.55 L88.4858 1071.04 L102.861 1049.14 Z" fill="#000000" fill-rule="evenodd" fill-opacity="1" /><path clip-path="url(#clip350)" d="M53.5554 750.116 L83.2312 750.116 L83.2312 754.051 L53.5554 754.051 L53.5554 750.116 Z" fill="#000000" fill-rule="evenodd" fill-opacity="1" /><path clip-path="url(#clip350)" d="M97.3515 763.009 L113.671 763.009 L113.671 766.944 L91.7265 766.944 L91.7265 763.009 Q94.3886 760.255 98.9719 755.625 Q103.578 750.972 104.759 749.63 Q107.004 747.107 107.884 745.37 Q108.787 743.611 108.787 741.921 Q108.787 739.167 106.842 737.431 Q104.921 735.695 101.819 735.695 Q99.62 735.695 97.1663 736.459 Q94.7358 737.222 91.958 738.773 L91.958 734.051 Q94.7821 732.917 97.2358 732.338 Q99.6895 731.759 101.726 731.759 Q107.097 731.759 110.291 734.445 Q113.486 737.13 113.486 741.621 Q113.486 743.75 112.676 745.671 Q111.888 747.57 109.782 750.162 Q109.203 750.833 106.101 754.051 Q103 757.245 97.3515 763.009 Z" fill="#000000" fill-rule="evenodd" fill-opacity="1" /><path clip-path="url(#clip350)" d="M101.726 418.705 Q98.1154 418.705 96.2867 422.27 Q94.4812 425.811 94.4812 432.941 Q94.4812 440.047 96.2867 443.612 Q98.1154 447.154 101.726 447.154 Q105.361 447.154 107.166 443.612 Q108.995 440.047 108.995 432.941 Q108.995 425.811 107.166 422.27 Q105.361 418.705 101.726 418.705 M101.726 415.001 Q107.537 415.001 110.592 419.608 Q113.671 424.191 113.671 432.941 Q113.671 441.668 110.592 446.274 Q107.537 450.857 101.726 450.857 Q95.9163 450.857 92.8376 446.274 Q89.7821 441.668 89.7821 432.941 Q89.7821 424.191 92.8376 419.608 Q95.9163 415.001 101.726 415.001 Z" fill="#000000" fill-rule="evenodd" fill-opacity="1" /><path clip-path="url(#clip350)" d="M873.681 14.0809 L873.681 22.0612 Q869.023 19.8332 864.891 18.7395 Q860.759 17.6457 856.911 17.6457 Q850.227 17.6457 846.581 20.2383 Q842.976 22.8309 842.976 27.611 Q842.976 31.6214 845.366 33.6873 Q847.796 35.7128 854.521 36.9686 L859.463 37.9813 Q868.618 39.7232 872.952 44.1387 Q877.327 48.5136 877.327 55.8863 Q877.327 64.6767 871.413 69.2137 Q865.539 73.7508 854.156 73.7508 Q849.862 73.7508 845.001 72.7785 Q840.181 71.8063 834.995 69.9024 L834.995 61.4765 Q839.978 64.2716 844.758 65.6895 Q849.538 67.1073 854.156 67.1073 Q861.164 67.1073 864.972 64.3527 Q868.78 61.598 868.78 56.4939 Q868.78 52.0379 866.025 49.5264 Q863.311 47.0148 857.073 45.759 L852.09 44.7868 Q842.935 42.9639 838.844 39.075 Q834.752 35.1862 834.752 28.2591 Q834.752 20.2383 840.383 15.6203 Q846.054 11.0023 855.979 11.0023 Q860.232 11.0023 864.648 11.7719 Q869.063 12.5416 873.681 14.0809 Z" fill="#000000" fill-rule="evenodd" fill-opacity="1" /><path clip-path="url(#clip350)" d="M908.641 76.7889 Q905.481 84.8907 902.483 87.3618 Q899.486 89.8329 894.463 89.8329 L888.508 89.8329 L888.508 83.5945 L892.883 83.5945 Q895.961 83.5945 897.663 82.1361 Q899.364 80.6778 901.43 75.2496 L902.767 71.8468 L884.416 27.2059 L892.316 27.2059 L906.494 62.6918 L920.672 27.2059 L928.571 27.2059 L908.641 76.7889 Z" fill="#000000" fill-rule="evenodd" fill-opacity="1" /><path clip-path="url(#clip350)" d="M976.574 45.1919 L976.574 72.576 L969.121 72.576 L969.121 45.4349 Q969.121 38.994 966.609 35.7938 Q964.098 32.5936 959.075 32.5936 Q953.039 32.5936 949.555 36.4419 Q946.071 40.2903 946.071 46.9338 L946.071 72.576 L938.577 72.576 L938.577 27.2059 L946.071 27.2059 L946.071 34.2544 Q948.745 30.163 952.35 28.1376 Q955.996 26.1121 960.735 26.1121 Q968.554 26.1121 972.564 30.9732 Q976.574 35.7938 976.574 45.1919 Z" fill="#000000" fill-rule="evenodd" fill-opacity="1" /><path clip-path="url(#clip350)" d="M998.814 14.324 L998.814 27.2059 L1014.17 27.2059 L1014.17 32.9987 L998.814 32.9987 L998.814 57.6282 Q998.814 63.1779 1000.31 64.7578 Q1001.85 66.3376 1006.51 66.3376 L1014.17 66.3376 L1014.17 72.576 L1006.51 72.576 Q997.882 72.576 994.601 69.3758 Q991.32 66.1351 991.32 57.6282 L991.32 32.9987 L985.851 32.9987 L985.851 27.2059 L991.32 27.2059 L991.32 14.324 L998.814 14.324 Z" fill="#000000" fill-rule="evenodd" fill-opacity="1" /><path clip-path="url(#clip350)" d="M1061.68 45.1919 L1061.68 72.576 L1054.23 72.576 L1054.23 45.4349 Q1054.23 38.994 1051.72 35.7938 Q1049.21 32.5936 1044.18 32.5936 Q1038.15 32.5936 1034.66 36.4419 Q1031.18 40.2903 1031.18 46.9338 L1031.18 72.576 L1023.69 72.576 L1023.69 9.54393 L1031.18 9.54393 L1031.18 34.2544 Q1033.85 30.163 1037.46 28.1376 Q1041.11 26.1121 1045.84 26.1121 Q1053.66 26.1121 1057.67 30.9732 Q1061.68 35.7938 1061.68 45.1919 Z" fill="#000000" fill-rule="evenodd" fill-opacity="1" /><path clip-path="url(#clip350)" d="M1115.36 48.0275 L1115.36 51.6733 L1081.09 51.6733 Q1081.57 59.3701 1085.71 63.421 Q1089.88 67.4314 1097.29 67.4314 Q1101.59 67.4314 1105.6 66.3781 Q1109.65 65.3249 1113.62 63.2184 L1113.62 70.267 Q1109.61 71.9684 1105.39 72.8596 Q1101.18 73.7508 1096.85 73.7508 Q1085.99 73.7508 1079.63 67.4314 Q1073.31 61.1119 1073.31 50.3365 Q1073.31 39.1965 1079.31 32.6746 Q1085.34 26.1121 1095.55 26.1121 Q1104.7 26.1121 1110.01 32.0264 Q1115.36 37.9003 1115.36 48.0275 M1107.9 45.84 Q1107.82 39.7232 1104.46 36.0774 Q1101.14 32.4315 1095.63 32.4315 Q1089.39 32.4315 1085.62 35.9558 Q1081.9 39.4801 1081.33 45.8805 L1107.9 45.84 Z" fill="#000000" fill-rule="evenodd" fill-opacity="1" /><path clip-path="url(#clip350)" d="M1134.96 14.324 L1134.96 27.2059 L1150.32 27.2059 L1150.32 32.9987 L1134.96 32.9987 L1134.96 57.6282 Q1134.96 63.1779 1136.46 64.7578 Q1138 66.3376 1142.66 66.3376 L1150.32 66.3376 L1150.32 72.576 L1142.66 72.576 Q1134.03 72.576 1130.75 69.3758 Q1127.47 66.1351 1127.47 57.6282 L1127.47 32.9987 L1122 32.9987 L1122 27.2059 L1127.47 27.2059 L1127.47 14.324 L1134.96 14.324 Z" fill="#000000" fill-rule="evenodd" fill-opacity="1" /><path clip-path="url(#clip350)" d="M1160.12 27.2059 L1167.57 27.2059 L1167.57 72.576 L1160.12 72.576 L1160.12 27.2059 M1160.12 9.54393 L1167.57 9.54393 L1167.57 18.9825 L1160.12 18.9825 L1160.12 9.54393 Z" fill="#000000" fill-rule="evenodd" fill-opacity="1" /><path clip-path="url(#clip350)" d="M1215.82 28.9478 L1215.82 35.9153 Q1212.66 34.1734 1209.46 33.3227 Q1206.3 32.4315 1203.06 32.4315 Q1195.81 32.4315 1191.8 37.0496 Q1187.79 41.6271 1187.79 49.9314 Q1187.79 58.2358 1191.8 62.8538 Q1195.81 67.4314 1203.06 67.4314 Q1206.3 67.4314 1209.46 66.5807 Q1212.66 65.6895 1215.82 63.9476 L1215.82 70.8341 Q1212.7 72.2924 1209.34 73.0216 Q1206.02 73.7508 1202.25 73.7508 Q1192 73.7508 1185.97 67.3098 Q1179.93 60.8689 1179.93 49.9314 Q1179.93 38.832 1186.01 32.472 Q1192.12 26.1121 1202.74 26.1121 Q1206.18 26.1121 1209.46 26.8413 Q1212.74 27.5299 1215.82 28.9478 Z" fill="#000000" fill-rule="evenodd" fill-opacity="1" /><path clip-path="url(#clip350)" d="M1263.66 18.8205 L1263.66 65.8515 L1273.55 65.8515 Q1286.06 65.8515 1291.86 60.1802 Q1297.69 54.509 1297.69 42.2752 Q1297.69 30.1225 1291.86 24.4918 Q1286.06 18.8205 1273.55 18.8205 L1263.66 18.8205 M1255.48 12.096 L1272.29 12.096 Q1289.87 12.096 1298.09 19.4281 Q1306.32 26.7198 1306.32 42.2752 Q1306.32 57.9117 1298.05 65.2439 Q1289.79 72.576 1272.29 72.576 L1255.48 72.576 L1255.48 12.096 Z" fill="#000000" fill-rule="evenodd" fill-opacity="1" /><path clip-path="url(#clip350)" d="M1339.66 49.7694 Q1330.62 49.7694 1327.14 51.8354 Q1323.66 53.9013 1323.66 58.8839 Q1323.66 62.8538 1326.25 65.2034 Q1328.88 67.5124 1333.38 67.5124 Q1339.58 67.5124 1343.3 63.1374 Q1347.07 58.7219 1347.07 51.4303 L1347.07 49.7694 L1339.66 49.7694 M1354.52 46.6907 L1354.52 72.576 L1347.07 72.576 L1347.07 65.6895 Q1344.52 69.8214 1340.71 71.8063 Q1336.9 73.7508 1331.39 73.7508 Q1324.43 73.7508 1320.29 69.8619 Q1316.2 65.9325 1316.2 59.3701 Q1316.2 51.7138 1321.31 47.825 Q1326.45 43.9361 1336.62 43.9361 L1347.07 43.9361 L1347.07 43.2069 Q1347.07 38.0623 1343.67 35.2672 Q1340.31 32.4315 1334.19 32.4315 Q1330.3 32.4315 1326.61 33.3632 Q1322.93 34.295 1319.52 36.1584 L1319.52 29.2718 Q1323.62 27.692 1327.46 26.9223 Q1331.31 26.1121 1334.96 26.1121 Q1344.8 26.1121 1349.66 31.2163 Q1354.52 36.3204 1354.52 46.6907 Z" fill="#000000" fill-rule="evenodd" fill-opacity="1" /><path clip-path="url(#clip350)" d="M1377.25 14.324 L1377.25 27.2059 L1392.6 27.2059 L1392.6 32.9987 L1377.25 32.9987 L1377.25 57.6282 Q1377.25 63.1779 1378.75 64.7578 Q1380.29 66.3376 1384.95 66.3376 L1392.6 66.3376 L1392.6 72.576 L1384.95 72.576 Q1376.32 72.576 1373.04 69.3758 Q1369.76 66.1351 1369.76 57.6282 L1369.76 32.9987 L1364.29 32.9987 L1364.29 27.2059 L1369.76 27.2059 L1369.76 14.324 L1377.25 14.324 Z" fill="#000000" fill-rule="evenodd" fill-opacity="1" /><path clip-path="url(#clip350)" d="M1423.02 49.7694 Q1413.99 49.7694 1410.51 51.8354 Q1407.02 53.9013 1407.02 58.8839 Q1407.02 62.8538 1409.62 65.2034 Q1412.25 67.5124 1416.75 67.5124 Q1422.94 67.5124 1426.67 63.1374 Q1430.44 58.7219 1430.44 51.4303 L1430.44 49.7694 L1423.02 49.7694 M1437.89 46.6907 L1437.89 72.576 L1430.44 72.576 L1430.44 65.6895 Q1427.89 69.8214 1424.08 71.8063 Q1420.27 73.7508 1414.76 73.7508 Q1407.79 73.7508 1403.66 69.8619 Q1399.57 65.9325 1399.57 59.3701 Q1399.57 51.7138 1404.67 47.825 Q1409.82 43.9361 1419.99 43.9361 L1430.44 43.9361 L1430.44 43.2069 Q1430.44 38.0623 1427.04 35.2672 Q1423.67 32.4315 1417.56 32.4315 Q1413.67 32.4315 1409.98 33.3632 Q1406.29 34.295 1402.89 36.1584 L1402.89 29.2718 Q1406.98 27.692 1410.83 26.9223 Q1414.68 26.1121 1418.33 26.1121 Q1428.17 26.1121 1433.03 31.2163 Q1437.89 36.3204 1437.89 46.6907 Z" fill="#000000" fill-rule="evenodd" fill-opacity="1" /><path clip-path="url(#clip350)" d="M1482.17 28.5427 L1482.17 35.5912 Q1479.01 33.9709 1475.61 33.1607 Q1472.2 32.3505 1468.56 32.3505 Q1463.01 32.3505 1460.21 34.0519 Q1457.46 35.7533 1457.46 39.156 Q1457.46 41.7486 1459.44 43.2475 Q1461.43 44.7058 1467.42 46.0426 L1469.97 46.6097 Q1477.91 48.3111 1481.24 51.4303 Q1484.6 54.509 1484.6 60.0587 Q1484.6 66.3781 1479.58 70.0644 Q1474.59 73.7508 1465.84 73.7508 Q1462.2 73.7508 1458.23 73.0216 Q1454.3 72.3329 1449.92 70.9151 L1449.92 63.2184 Q1454.05 65.3654 1458.06 66.4591 Q1462.08 67.5124 1466 67.5124 Q1471.27 67.5124 1474.11 65.73 Q1476.94 63.9071 1476.94 60.6258 Q1476.94 57.5877 1474.88 55.9673 Q1472.85 54.3469 1465.92 52.8481 L1463.33 52.2405 Q1456.4 50.7821 1453.33 47.7845 Q1450.25 44.7463 1450.25 39.4801 Q1450.25 33.0797 1454.78 29.5959 Q1459.32 26.1121 1467.67 26.1121 Q1471.8 26.1121 1475.44 26.7198 Q1479.09 27.3274 1482.17 28.5427 Z" fill="#000000" fill-rule="evenodd" fill-opacity="1" /><path clip-path="url(#clip350)" d="M1535.28 48.0275 L1535.28 51.6733 L1501 51.6733 Q1501.49 59.3701 1505.62 63.421 Q1509.79 67.4314 1517.21 67.4314 Q1521.5 67.4314 1525.51 66.3781 Q1529.56 65.3249 1533.53 63.2184 L1533.53 70.267 Q1529.52 71.9684 1525.31 72.8596 Q1521.1 73.7508 1516.76 73.7508 Q1505.91 73.7508 1499.55 67.4314 Q1493.23 61.1119 1493.23 50.3365 Q1493.23 39.1965 1499.22 32.6746 Q1505.26 26.1121 1515.47 26.1121 Q1524.62 26.1121 1529.93 32.0264 Q1535.28 37.9003 1535.28 48.0275 M1527.82 45.84 Q1527.74 39.7232 1524.38 36.0774 Q1521.06 32.4315 1515.55 32.4315 Q1509.31 32.4315 1505.54 35.9558 Q1501.81 39.4801 1501.25 45.8805 L1527.82 45.84 Z" fill="#000000" fill-rule="evenodd" fill-opacity="1" /><path clip-path="url(#clip350)" d="M1554.88 14.324 L1554.88 27.2059 L1570.23 27.2059 L1570.23 32.9987 L1554.88 32.9987 L1554.88 57.6282 Q1554.88 63.1779 1556.38 64.7578 Q1557.92 66.3376 1562.58 66.3376 L1570.23 66.3376 L1570.23 72.576 L1562.58 72.576 Q1553.95 72.576 1550.67 69.3758 Q1547.39 66.1351 1547.39 57.6282 L1547.39 32.9987 L1541.92 32.9987 L1541.92 27.2059 L1547.39 27.2059 L1547.39 14.324 L1554.88 14.324 Z" fill="#000000" fill-rule="evenodd" fill-opacity="1" /><circle clip-path="url(#clip352)" cx="964.595" cy="1386.31" r="14" fill="#009af9" fill-rule="evenodd" fill-opacity="1" stroke="#000000" stroke-opacity="1" stroke-width="3.072"/>
<circle clip-path="url(#clip352)" cx="1210.37" cy="1141.38" r="14" fill="#009af9" fill-rule="evenodd" fill-opacity="1" stroke="#000000" stroke-opacity="1" stroke-width="3.072"/>
<circle clip-path="url(#clip352)" cx="604.763" cy="1231.54" r="14" fill="#009af9" fill-rule="evenodd" fill-opacity="1" stroke="#000000" stroke-opacity="1" stroke-width="3.072"/>
<circle clip-path="url(#clip352)" cx="661.082" cy="987.546" r="14" fill="#009af9" fill-rule="evenodd" fill-opacity="1" stroke="#000000" stroke-opacity="1" stroke-width="3.072"/>
<circle clip-path="url(#clip352)" cx="913.739" cy="853.526" r="14" fill="#009af9" fill-rule="evenodd" fill-opacity="1" stroke="#000000" stroke-opacity="1" stroke-width="3.072"/>
<circle clip-path="url(#clip352)" cx="955.279" cy="1062.49" r="14" fill="#009af9" fill-rule="evenodd" fill-opacity="1" stroke="#000000" stroke-opacity="1" stroke-width="3.072"/>
<circle clip-path="url(#clip352)" cx="564.971" cy="975.85" r="14" fill="#009af9" fill-rule="evenodd" fill-opacity="1" stroke="#000000" stroke-opacity="1" stroke-width="3.072"/>
<circle clip-path="url(#clip352)" cx="490.342" cy="1237.51" r="14" fill="#009af9" fill-rule="evenodd" fill-opacity="1" stroke="#000000" stroke-opacity="1" stroke-width="3.072"/>
<circle clip-path="url(#clip352)" cx="775.409" cy="1099.25" r="14" fill="#009af9" fill-rule="evenodd" fill-opacity="1" stroke="#000000" stroke-opacity="1" stroke-width="3.072"/>
<circle clip-path="url(#clip352)" cx="308.56" cy="1055.72" r="14" fill="#009af9" fill-rule="evenodd" fill-opacity="1" stroke="#000000" stroke-opacity="1" stroke-width="3.072"/>
<circle clip-path="url(#clip352)" cx="435.763" cy="1020.24" r="14" fill="#009af9" fill-rule="evenodd" fill-opacity="1" stroke="#000000" stroke-opacity="1" stroke-width="3.072"/>
<circle clip-path="url(#clip352)" cx="425.446" cy="931.123" r="14" fill="#009af9" fill-rule="evenodd" fill-opacity="1" stroke="#000000" stroke-opacity="1" stroke-width="3.072"/>
<circle clip-path="url(#clip352)" cx="543.89" cy="769.618" r="14" fill="#009af9" fill-rule="evenodd" fill-opacity="1" stroke="#000000" stroke-opacity="1" stroke-width="3.072"/>
<circle clip-path="url(#clip352)" cx="728.34" cy="1081.56" r="14" fill="#009af9" fill-rule="evenodd" fill-opacity="1" stroke="#000000" stroke-opacity="1" stroke-width="3.072"/>
<circle clip-path="url(#clip352)" cx="803.591" cy="888.714" r="14" fill="#009af9" fill-rule="evenodd" fill-opacity="1" stroke="#000000" stroke-opacity="1" stroke-width="3.072"/>
<circle clip-path="url(#clip352)" cx="430.208" cy="886.907" r="14" fill="#009af9" fill-rule="evenodd" fill-opacity="1" stroke="#000000" stroke-opacity="1" stroke-width="3.072"/>
<circle clip-path="url(#clip352)" cx="824.319" cy="1008.63" r="14" fill="#009af9" fill-rule="evenodd" fill-opacity="1" stroke="#000000" stroke-opacity="1" stroke-width="3.072"/>
<circle clip-path="url(#clip352)" cx="770.167" cy="962.414" r="14" fill="#009af9" fill-rule="evenodd" fill-opacity="1" stroke="#000000" stroke-opacity="1" stroke-width="3.072"/>
<circle clip-path="url(#clip352)" cx="977.958" cy="1178.94" r="14" fill="#009af9" fill-rule="evenodd" fill-opacity="1" stroke="#000000" stroke-opacity="1" stroke-width="3.072"/>
<circle clip-path="url(#clip352)" cx="545.617" cy="871.004" r="14" fill="#009af9" fill-rule="evenodd" fill-opacity="1" stroke="#000000" stroke-opacity="1" stroke-width="3.072"/>
<circle clip-path="url(#clip352)" cx="207.906" cy="785.974" r="14" fill="#009af9" fill-rule="evenodd" fill-opacity="1" stroke="#000000" stroke-opacity="1" stroke-width="3.072"/>
<circle clip-path="url(#clip352)" cx="711.649" cy="1084.48" r="14" fill="#009af9" fill-rule="evenodd" fill-opacity="1" stroke="#000000" stroke-opacity="1" stroke-width="3.072"/>
<circle clip-path="url(#clip352)" cx="1060.44" cy="1161.83" r="14" fill="#009af9" fill-rule="evenodd" fill-opacity="1" stroke="#000000" stroke-opacity="1" stroke-width="3.072"/>
<circle clip-path="url(#clip352)" cx="432.257" cy="1063.92" r="14" fill="#009af9" fill-rule="evenodd" fill-opacity="1" stroke="#000000" stroke-opacity="1" stroke-width="3.072"/>
<circle clip-path="url(#clip352)" cx="933.25" cy="954.147" r="14" fill="#009af9" fill-rule="evenodd" fill-opacity="1" stroke="#000000" stroke-opacity="1" stroke-width="3.072"/>
<circle clip-path="url(#clip352)" cx="442.173" cy="1028.47" r="14" fill="#009af9" fill-rule="evenodd" fill-opacity="1" stroke="#000000" stroke-opacity="1" stroke-width="3.072"/>
<circle clip-path="url(#clip352)" cx="515.657" cy="1126.32" r="14" fill="#009af9" fill-rule="evenodd" fill-opacity="1" stroke="#000000" stroke-opacity="1" stroke-width="3.072"/>
<circle clip-path="url(#clip352)" cx="837.463" cy="754.759" r="14" fill="#009af9" fill-rule="evenodd" fill-opacity="1" stroke="#000000" stroke-opacity="1" stroke-width="3.072"/>
<circle clip-path="url(#clip352)" cx="543.602" cy="1063.68" r="14" fill="#009af9" fill-rule="evenodd" fill-opacity="1" stroke="#000000" stroke-opacity="1" stroke-width="3.072"/>
<circle clip-path="url(#clip352)" cx="482.682" cy="866.205" r="14" fill="#009af9" fill-rule="evenodd" fill-opacity="1" stroke="#000000" stroke-opacity="1" stroke-width="3.072"/>
<circle clip-path="url(#clip352)" cx="1707.36" cy="597.545" r="14" fill="#009af9" fill-rule="evenodd" fill-opacity="1" stroke="#000000" stroke-opacity="1" stroke-width="3.072"/>
<circle clip-path="url(#clip352)" cx="1495.27" cy="239.505" r="14" fill="#009af9" fill-rule="evenodd" fill-opacity="1" stroke="#000000" stroke-opacity="1" stroke-width="3.072"/>
<circle clip-path="url(#clip352)" cx="1389.6" cy="346.082" r="14" fill="#009af9" fill-rule="evenodd" fill-opacity="1" stroke="#000000" stroke-opacity="1" stroke-width="3.072"/>
<circle clip-path="url(#clip352)" cx="2006.77" cy="381.477" r="14" fill="#009af9" fill-rule="evenodd" fill-opacity="1" stroke="#000000" stroke-opacity="1" stroke-width="3.072"/>
<circle clip-path="url(#clip352)" cx="1325.46" cy="267.08" r="14" fill="#009af9" fill-rule="evenodd" fill-opacity="1" stroke="#000000" stroke-opacity="1" stroke-width="3.072"/>
<circle clip-path="url(#clip352)" cx="1370.59" cy="342.9" r="14" fill="#009af9" fill-rule="evenodd" fill-opacity="1" stroke="#000000" stroke-opacity="1" stroke-width="3.072"/>
<circle clip-path="url(#clip352)" cx="1287.01" cy="370.95" r="14" fill="#009af9" fill-rule="evenodd" fill-opacity="1" stroke="#000000" stroke-opacity="1" stroke-width="3.072"/>
<circle clip-path="url(#clip352)" cx="1330.4" cy="436.438" r="14" fill="#009af9" fill-rule="evenodd" fill-opacity="1" stroke="#000000" stroke-opacity="1" stroke-width="3.072"/>
<circle clip-path="url(#clip352)" cx="1270.9" cy="449.814" r="14" fill="#009af9" fill-rule="evenodd" fill-opacity="1" stroke="#000000" stroke-opacity="1" stroke-width="3.072"/>
<circle clip-path="url(#clip352)" cx="1532.22" cy="471.622" r="14" fill="#009af9" fill-rule="evenodd" fill-opacity="1" stroke="#000000" stroke-opacity="1" stroke-width="3.072"/>
<circle clip-path="url(#clip352)" cx="1920.64" cy="226.243" r="14" fill="#009af9" fill-rule="evenodd" fill-opacity="1" stroke="#000000" stroke-opacity="1" stroke-width="3.072"/>
<circle clip-path="url(#clip352)" cx="2074.05" cy="532.514" r="14" fill="#009af9" fill-rule="evenodd" fill-opacity="1" stroke="#000000" stroke-opacity="1" stroke-width="3.072"/>
<circle clip-path="url(#clip352)" cx="1551.56" cy="427.282" r="14" fill="#009af9" fill-rule="evenodd" fill-opacity="1" stroke="#000000" stroke-opacity="1" stroke-width="3.072"/>
<circle clip-path="url(#clip352)" cx="1534.8" cy="246.001" r="14" fill="#009af9" fill-rule="evenodd" fill-opacity="1" stroke="#000000" stroke-opacity="1" stroke-width="3.072"/>
<circle clip-path="url(#clip352)" cx="2197.08" cy="311.003" r="14" fill="#009af9" fill-rule="evenodd" fill-opacity="1" stroke="#000000" stroke-opacity="1" stroke-width="3.072"/>
<circle clip-path="url(#clip352)" cx="1783.65" cy="165.068" r="14" fill="#009af9" fill-rule="evenodd" fill-opacity="1" stroke="#000000" stroke-opacity="1" stroke-width="3.072"/>
<circle clip-path="url(#clip352)" cx="1684.68" cy="648.982" r="14" fill="#009af9" fill-rule="evenodd" fill-opacity="1" stroke="#000000" stroke-opacity="1" stroke-width="3.072"/>
<circle clip-path="url(#clip352)" cx="1912.73" cy="330.333" r="14" fill="#009af9" fill-rule="evenodd" fill-opacity="1" stroke="#000000" stroke-opacity="1" stroke-width="3.072"/>
<circle clip-path="url(#clip352)" cx="1612.32" cy="271.833" r="14" fill="#009af9" fill-rule="evenodd" fill-opacity="1" stroke="#000000" stroke-opacity="1" stroke-width="3.072"/>
<circle clip-path="url(#clip352)" cx="2080.24" cy="388.317" r="14" fill="#009af9" fill-rule="evenodd" fill-opacity="1" stroke="#000000" stroke-opacity="1" stroke-width="3.072"/>
<circle clip-path="url(#clip352)" cx="1295.55" cy="227.408" r="14" fill="#009af9" fill-rule="evenodd" fill-opacity="1" stroke="#000000" stroke-opacity="1" stroke-width="3.072"/>
<circle clip-path="url(#clip352)" cx="1738.74" cy="160.254" r="14" fill="#009af9" fill-rule="evenodd" fill-opacity="1" stroke="#000000" stroke-opacity="1" stroke-width="3.072"/>
<circle clip-path="url(#clip352)" cx="2111.81" cy="532.408" r="14" fill="#009af9" fill-rule="evenodd" fill-opacity="1" stroke="#000000" stroke-opacity="1" stroke-width="3.072"/>
<circle clip-path="url(#clip352)" cx="1621.98" cy="549.963" r="14" fill="#009af9" fill-rule="evenodd" fill-opacity="1" stroke="#000000" stroke-opacity="1" stroke-width="3.072"/>
<circle clip-path="url(#clip352)" cx="1479.09" cy="651.81" r="14" fill="#009af9" fill-rule="evenodd" fill-opacity="1" stroke="#000000" stroke-opacity="1" stroke-width="3.072"/>
<circle clip-path="url(#clip352)" cx="1545.25" cy="212.355" r="14" fill="#009af9" fill-rule="evenodd" fill-opacity="1" stroke="#000000" stroke-opacity="1" stroke-width="3.072"/>
<circle clip-path="url(#clip352)" cx="1826.62" cy="435.355" r="14" fill="#009af9" fill-rule="evenodd" fill-opacity="1" stroke="#000000" stroke-opacity="1" stroke-width="3.072"/>
<circle clip-path="url(#clip352)" cx="1689.65" cy="369.612" r="14" fill="#009af9" fill-rule="evenodd" fill-opacity="1" stroke="#000000" stroke-opacity="1" stroke-width="3.072"/>
<circle clip-path="url(#clip352)" cx="1378.23" cy="515.323" r="14" fill="#009af9" fill-rule="evenodd" fill-opacity="1" stroke="#000000" stroke-opacity="1" stroke-width="3.072"/>
<circle clip-path="url(#clip352)" cx="1378.43" cy="513.468" r="14" fill="#009af9" fill-rule="evenodd" fill-opacity="1" stroke="#000000" stroke-opacity="1" stroke-width="3.072"/>
</svg>
