<?xml version="1.0" encoding="utf-8"?>
<svg xmlns="http://www.w3.org/2000/svg" xmlns:xlink="http://www.w3.org/1999/xlink" width="500" height="250" viewBox="0 0 2000 1000">
<defs>
  <clipPath id="clip4300">
    <rect x="0" y="0" width="2000" height="1000"/>
  </clipPath>
</defs>
<path clip-path="url(#clip4300)" d="
M0 1000 L2000 1000 L2000 0 L0 0  Z
  " fill="#ffffff" fill-rule="evenodd" fill-opacity="1"/>
<defs>
  <clipPath id="clip4301">
    <rect x="400" y="0" width="1401" height="1000"/>
  </clipPath>
</defs>
<path clip-path="url(#clip4300)" d="
M109.754 851.529 L1952.76 851.529 L1952.76 47.2441 L109.754 47.2441  Z
  " fill="#ffffff" fill-rule="evenodd" fill-opacity="1"/>
<defs>
  <clipPath id="clip4302">
    <rect x="109" y="47" width="1844" height="805"/>
  </clipPath>
</defs>
<polyline clip-path="url(#clip4302)" style="stroke:#000000; stroke-width:2; stroke-opacity:0.1; fill:none" points="
  109.754,851.529 109.754,47.2441 
  "/>
<polyline clip-path="url(#clip4302)" style="stroke:#000000; stroke-width:2; stroke-opacity:0.1; fill:none" points="
  478.355,851.529 478.355,47.2441 
  "/>
<polyline clip-path="url(#clip4302)" style="stroke:#000000; stroke-width:2; stroke-opacity:0.1; fill:none" points="
  846.955,851.529 846.955,47.2441 
  "/>
<polyline clip-path="url(#clip4302)" style="stroke:#000000; stroke-width:2; stroke-opacity:0.1; fill:none" points="
  1215.56,851.529 1215.56,47.2441 
  "/>
<polyline clip-path="url(#clip4302)" style="stroke:#000000; stroke-width:2; stroke-opacity:0.1; fill:none" points="
  1584.16,851.529 1584.16,47.2441 
  "/>
<polyline clip-path="url(#clip4302)" style="stroke:#000000; stroke-width:2; stroke-opacity:0.1; fill:none" points="
  1952.76,851.529 1952.76,47.2441 
  "/>
<polyline clip-path="url(#clip4302)" style="stroke:#000000; stroke-width:2; stroke-opacity:0.1; fill:none" points="
  109.754,828.766 1952.76,828.766 
  "/>
<polyline clip-path="url(#clip4302)" style="stroke:#000000; stroke-width:2; stroke-opacity:0.1; fill:none" points="
  109.754,639.245 1952.76,639.245 
  "/>
<polyline clip-path="url(#clip4302)" style="stroke:#000000; stroke-width:2; stroke-opacity:0.1; fill:none" points="
  109.754,449.724 1952.76,449.724 
  "/>
<polyline clip-path="url(#clip4302)" style="stroke:#000000; stroke-width:2; stroke-opacity:0.1; fill:none" points="
  109.754,260.204 1952.76,260.204 
  "/>
<polyline clip-path="url(#clip4302)" style="stroke:#000000; stroke-width:2; stroke-opacity:0.1; fill:none" points="
  109.754,70.6826 1952.76,70.6826 
  "/>
<polyline clip-path="url(#clip4300)" style="stroke:#000000; stroke-width:4; stroke-opacity:1; fill:none" points="
  109.754,851.529 1952.76,851.529 
  "/>
<polyline clip-path="url(#clip4300)" style="stroke:#000000; stroke-width:4; stroke-opacity:1; fill:none" points="
  109.754,851.529 109.754,47.2441 
  "/>
<polyline clip-path="url(#clip4300)" style="stroke:#000000; stroke-width:4; stroke-opacity:1; fill:none" points="
  109.754,851.529 109.754,841.878 
  "/>
<polyline clip-path="url(#clip4300)" style="stroke:#000000; stroke-width:4; stroke-opacity:1; fill:none" points="
  478.355,851.529 478.355,841.878 
  "/>
<polyline clip-path="url(#clip4300)" style="stroke:#000000; stroke-width:4; stroke-opacity:1; fill:none" points="
  846.955,851.529 846.955,841.878 
  "/>
<polyline clip-path="url(#clip4300)" style="stroke:#000000; stroke-width:4; stroke-opacity:1; fill:none" points="
  1215.56,851.529 1215.56,841.878 
  "/>
<polyline clip-path="url(#clip4300)" style="stroke:#000000; stroke-width:4; stroke-opacity:1; fill:none" points="
  1584.16,851.529 1584.16,841.878 
  "/>
<polyline clip-path="url(#clip4300)" style="stroke:#000000; stroke-width:4; stroke-opacity:1; fill:none" points="
  1952.76,851.529 1952.76,841.878 
  "/>
<polyline clip-path="url(#clip4300)" style="stroke:#000000; stroke-width:4; stroke-opacity:1; fill:none" points="
  109.754,828.766 131.87,828.766 
  "/>
<polyline clip-path="url(#clip4300)" style="stroke:#000000; stroke-width:4; stroke-opacity:1; fill:none" points="
  109.754,639.245 131.87,639.245 
  "/>
<polyline clip-path="url(#clip4300)" style="stroke:#000000; stroke-width:4; stroke-opacity:1; fill:none" points="
  109.754,449.724 131.87,449.724 
  "/>
<polyline clip-path="url(#clip4300)" style="stroke:#000000; stroke-width:4; stroke-opacity:1; fill:none" points="
  109.754,260.204 131.87,260.204 
  "/>
<polyline clip-path="url(#clip4300)" style="stroke:#000000; stroke-width:4; stroke-opacity:1; fill:none" points="
  109.754,70.6826 131.87,70.6826 
  "/>
<g clip-path="url(#clip4300)">
<text style="fill:#000000; fill-opacity:1; font-family:Arial,Helvetica Neue,Helvetica,sans-serif; font-size:48px; text-anchor:middle;" transform="rotate(0, 109.754, 903.529)" x="109.754" y="903.529">0.0</text>
</g>
<g clip-path="url(#clip4300)">
<text style="fill:#000000; fill-opacity:1; font-family:Arial,Helvetica Neue,Helvetica,sans-serif; font-size:48px; text-anchor:middle;" transform="rotate(0, 478.355, 903.529)" x="478.355" y="903.529">0.2</text>
</g>
<g clip-path="url(#clip4300)">
<text style="fill:#000000; fill-opacity:1; font-family:Arial,Helvetica Neue,Helvetica,sans-serif; font-size:48px; text-anchor:middle;" transform="rotate(0, 846.955, 903.529)" x="846.955" y="903.529">0.4</text>
</g>
<g clip-path="url(#clip4300)">
<text style="fill:#000000; fill-opacity:1; font-family:Arial,Helvetica Neue,Helvetica,sans-serif; font-size:48px; text-anchor:middle;" transform="rotate(0, 1215.56, 903.529)" x="1215.56" y="903.529">0.6</text>
</g>
<g clip-path="url(#clip4300)">
<text style="fill:#000000; fill-opacity:1; font-family:Arial,Helvetica Neue,Helvetica,sans-serif; font-size:48px; text-anchor:middle;" transform="rotate(0, 1584.16, 903.529)" x="1584.16" y="903.529">0.8</text>
</g>
<g clip-path="url(#clip4300)">
<text style="fill:#000000; fill-opacity:1; font-family:Arial,Helvetica Neue,Helvetica,sans-serif; font-size:48px; text-anchor:middle;" transform="rotate(0, 1952.76, 903.529)" x="1952.76" y="903.529">1.0</text>
</g>
<g clip-path="url(#clip4300)">
<text style="fill:#000000; fill-opacity:1; font-family:Arial,Helvetica Neue,Helvetica,sans-serif; font-size:48px; text-anchor:end;" transform="rotate(0, 89.7545, 846.266)" x="89.7545" y="846.266">0</text>
</g>
<g clip-path="url(#clip4300)">
<text style="fill:#000000; fill-opacity:1; font-family:Arial,Helvetica Neue,Helvetica,sans-serif; font-size:48px; text-anchor:end;" transform="rotate(0, 89.7545, 656.745)" x="89.7545" y="656.745">2</text>
</g>
<g clip-path="url(#clip4300)">
<text style="fill:#000000; fill-opacity:1; font-family:Arial,Helvetica Neue,Helvetica,sans-serif; font-size:48px; text-anchor:end;" transform="rotate(0, 89.7545, 467.224)" x="89.7545" y="467.224">4</text>
</g>
<g clip-path="url(#clip4300)">
<text style="fill:#000000; fill-opacity:1; font-family:Arial,Helvetica Neue,Helvetica,sans-serif; font-size:48px; text-anchor:end;" transform="rotate(0, 89.7545, 277.704)" x="89.7545" y="277.704">6</text>
</g>
<g clip-path="url(#clip4300)">
<text style="fill:#000000; fill-opacity:1; font-family:Arial,Helvetica Neue,Helvetica,sans-serif; font-size:48px; text-anchor:end;" transform="rotate(0, 89.7545, 88.1826)" x="89.7545" y="88.1826">8</text>
</g>
<g clip-path="url(#clip4300)">
<text style="fill:#000000; fill-opacity:1; font-family:Arial,Helvetica Neue,Helvetica,sans-serif; font-size:66px; text-anchor:middle;" transform="rotate(0, 1031.26, 981.391)" x="1031.26" y="981.391">probability of heads</text>
</g>
<polyline clip-path="url(#clip4302)" style="stroke:#0000ff; stroke-width:8; stroke-opacity:1; fill:none" points="
  703.869,828.764 707.546,828.762 711.222,828.759 714.899,828.752 718.575,828.74 722.252,828.719 725.929,828.684 729.605,828.626 733.282,828.534 736.958,828.392 
  740.635,828.182 744.312,827.881 747.988,827.463 751.665,826.904 755.341,826.182 759.018,825.282 762.694,824.202 766.371,822.956 770.048,821.572 773.724,820.097 
  777.401,818.588 781.077,817.105 784.754,815.699 788.431,814.4 792.107,813.209 795.784,812.087 799.46,810.956 803.137,809.704 806.813,808.199 810.49,806.307 
  814.167,803.909 817.843,800.923 821.52,797.314 825.196,793.102 828.873,788.354 832.55,783.174 836.226,777.685 839.903,772.008 843.579,766.24 847.256,760.448 
  850.933,754.658 854.609,748.864 858.286,743.033 861.962,737.126 865.639,731.105 869.315,724.942 872.992,718.627 876.669,712.158 880.345,705.534 884.022,698.743 
  887.698,691.754 891.375,684.508 895.052,676.925 898.728,668.903 902.405,660.342 906.081,651.151 909.758,641.267 913.434,630.669 917.111,619.378 920.788,607.463 
  924.464,595.031 928.141,582.211 931.817,569.139 935.494,555.938 939.171,542.699 942.847,529.474 946.524,516.264 950.2,503.027 953.877,489.688 957.553,476.156 
  961.23,462.339 964.907,448.162 968.583,433.578 972.26,418.565 975.936,403.128 979.613,387.282 983.29,371.046 986.966,354.437 990.643,337.463 994.319,320.127 
  997.996,302.436 1001.67,284.406 1005.35,266.067 1009.03,247.474 1012.7,228.711 1016.38,209.899 1020.06,191.209 1023.73,172.871 1027.41,155.176 1031.09,138.481 
  1034.76,123.184 1038.44,109.696 1042.11,98.3924 1045.79,89.5668 1049.47,83.3809 1053.14,79.8349 1056.82,78.7604 1060.5,79.8406 1064.17,82.6557 1067.85,86.7466 
  1071.53,91.6821 1075.2,97.1185 1078.88,102.838 1082.56,108.763 1086.23,114.935 1089.91,121.484 1093.59,128.576 1097.26,136.367 1100.94,144.97 1104.62,154.438 
  1108.29,164.769 1111.97,175.931 1115.65,187.886 1119.32,200.616 1123,214.134 1126.68,228.483 1130.35,243.715 1134.03,259.856 1137.71,276.882 1141.38,294.694 
  1145.06,313.109 1148.74,331.881 1152.41,350.723 1156.09,369.351 1159.77,387.523 1163.44,405.065 1167.12,421.885 1170.8,437.967 1174.47,453.352 1178.15,468.111 
  1181.83,482.316 1185.5,496.029 1189.18,509.292 1192.85,522.133 1196.53,534.58 1200.21,546.674 1203.88,558.477 1207.56,570.069 1211.24,581.547 1214.91,593.001 
  1218.59,604.507 1222.27,616.109 1225.94,627.812 1229.62,639.582 1233.3,651.356 1236.97,663.043 1240.65,674.547 1244.33,685.767 1248,696.611 1251.68,706.999 
  1255.36,716.862 1259.03,726.145 1262.71,734.808 1266.39,742.821 1270.06,750.167 1273.74,756.848 1277.42,762.882 1281.09,768.306 1284.77,773.177 1288.45,777.567 
  1292.12,781.559 1295.8,785.236 1299.48,788.673 1303.15,791.932 1306.83,795.048 1310.51,798.033 1314.18,800.88 1317.86,803.563 1321.54,806.053 1325.21,808.323 
  1328.89,810.358 1332.57,812.16 1336.24,813.75 1339.92,815.161 1343.59,816.435 1347.27,817.616 1350.95,818.742 1354.62,819.839 1358.3,820.919 1361.98,821.979 
  1365.65,823.006 1369.33,823.982 1373.01,824.884 1376.68,825.693 1380.36,826.396 1384.04,826.987 1387.71,827.467 1391.39,827.844 1395.07,828.13 1398.74,828.34 
  1402.42,828.489 1406.1,828.591 1409.77,828.659 1413.45,828.702 1417.13,828.729 1420.8,828.745 1424.48,828.755 1428.16,828.76 1431.83,828.763 1435.51,828.764 
  
  "/>
<path clip-path="url(#clip4302)" d="
M109.754 828.766 L128.371 828.766 L146.987 828.766 L165.603 828.766 L184.219 828.766 L202.835 828.766 L221.452 828.766 L240.068 828.766 L258.684 828.766 L277.3 828.766 
  L295.916 828.766 L314.532 828.766 L333.149 828.766 L351.765 828.766 L370.381 828.766 L388.997 828.766 L407.613 828.766 L426.229 828.766 L444.846 828.766 L463.462 828.766 
  L482.078 828.766 L500.694 828.766 L519.31 828.766 L537.927 828.766 L556.543 828.766 L575.159 828.766 L593.775 828.766 L612.391 828.765 L631.007 828.763 L649.624 828.756 
  L668.24 828.737 L686.856 828.687 L705.472 828.564 L724.088 828.279 L742.704 827.66 L761.321 826.394 L779.937 823.947 L798.553 819.473 L817.169 811.727 L835.785 799.016 
  L854.402 779.233 L873.018 750.029 L891.634 709.138 L910.25 654.882 L928.866 586.761 L947.482 506.046 L966.099 416.171 L984.715 322.796 L1003.33 233.394 L1021.95 156.36 
  L1040.56 99.7661 L1059.18 70.0069 L1077.8 70.6312 L1096.41 101.662 L1115.03 159.573 L1133.64 237.934 L1152.26 328.572 L1170.88 422.946 L1189.49 513.443 L1208.11 594.311 
  L1226.73 662.102 L1245.34 715.62 L1263.96 755.496 L1282.57 783.57 L1301.19 802.251 L1319.81 813.997 L1338.42 820.971 L1357.04 824.876 L1375.65 826.935 L1394.27 827.955 
  L1412.89 828.43 L1431.5 828.636 L1450.12 828.719 L1468.74 828.75 L1487.35 828.761 L1505.97 828.765 L1524.58 828.766 L1543.2 828.766 L1561.82 828.766 L1580.43 828.766 
  L1599.05 828.766 L1617.66 828.766 L1636.28 828.766 L1654.9 828.766 L1673.51 828.766 L1692.13 828.766 L1710.75 828.766 L1729.36 828.766 L1747.98 828.766 L1766.59 828.766 
  L1785.21 828.766 L1803.83 828.766 L1822.44 828.766 L1841.06 828.766 L1859.68 828.766 L1878.29 828.766 L1896.91 828.766 L1915.52 828.766 L1934.14 828.766 L1952.76 828.766 
  L1952.76 828.766 L1934.14 828.766 L1915.52 828.766 L1896.91 828.766 L1878.29 828.766 L1859.68 828.766 L1841.06 828.766 L1822.44 828.766 L1803.83 828.766 L1785.21 828.766 
  L1766.59 828.766 L1747.98 828.766 L1729.36 828.766 L1710.75 828.766 L1692.13 828.766 L1673.51 828.766 L1654.9 828.766 L1636.28 828.766 L1617.66 828.766 L1599.05 828.766 
  L1580.43 828.766 L1561.82 828.766 L1543.2 828.766 L1524.58 828.766 L1505.97 828.766 L1487.35 828.766 L1468.74 828.766 L1450.12 828.766 L1431.5 828.766 L1412.89 828.766 
  L1394.27 828.766 L1375.65 828.766 L1357.04 828.766 L1338.42 828.766 L1319.81 828.766 L1301.19 828.766 L1282.57 828.766 L1263.96 828.766 L1245.34 828.766 L1226.73 828.766 
  L1208.11 828.766 L1189.49 828.766 L1170.88 828.766 L1152.26 828.766 L1133.64 828.766 L1115.03 828.766 L1096.41 828.766 L1077.8 828.766 L1059.18 828.766 L1040.56 828.766 
  L1021.95 828.766 L1003.33 828.766 L984.715 828.766 L966.099 828.766 L947.482 828.766 L928.866 828.766 L910.25 828.766 L891.634 828.766 L873.018 828.766 L854.402 828.766 
  L835.785 828.766 L817.169 828.766 L798.553 828.766 L779.937 828.766 L761.321 828.766 L742.704 828.766 L724.088 828.766 L705.472 828.766 L686.856 828.766 L668.24 828.766 
  L649.624 828.766 L631.007 828.766 L612.391 828.766 L593.775 828.766 L575.159 828.766 L556.543 828.766 L537.927 828.766 L519.31 828.766 L500.694 828.766 L482.078 828.766 
  L463.462 828.766 L444.846 828.766 L426.229 828.766 L407.613 828.766 L388.997 828.766 L370.381 828.766 L351.765 828.766 L333.149 828.766 L314.532 828.766 L295.916 828.766 
  L277.3 828.766 L258.684 828.766 L240.068 828.766 L221.452 828.766 L202.835 828.766 L184.219 828.766 L165.603 828.766 L146.987 828.766 L128.371 828.766 L109.754 828.766 
   Z
  " fill="#90ee90" fill-rule="evenodd" fill-opacity="0.3"/>
<polyline clip-path="url(#clip4302)" style="stroke:#90ee90; stroke-width:12; stroke-opacity:0.3; fill:none" points="
  109.754,828.766 128.371,828.766 146.987,828.766 165.603,828.766 184.219,828.766 202.835,828.766 221.452,828.766 240.068,828.766 258.684,828.766 277.3,828.766 
  295.916,828.766 314.532,828.766 333.149,828.766 351.765,828.766 370.381,828.766 388.997,828.766 407.613,828.766 426.229,828.766 444.846,828.766 463.462,828.766 
  482.078,828.766 500.694,828.766 519.31,828.766 537.927,828.766 556.543,828.766 575.159,828.766 593.775,828.766 612.391,828.765 631.007,828.763 649.624,828.756 
  668.24,828.737 686.856,828.687 705.472,828.564 724.088,828.279 742.704,827.66 761.321,826.394 779.937,823.947 798.553,819.473 817.169,811.727 835.785,799.016 
  854.402,779.233 873.018,750.029 891.634,709.138 910.25,654.882 928.866,586.761 947.482,506.046 966.099,416.171 984.715,322.796 1003.33,233.394 1021.95,156.36 
  1040.56,99.7661 1059.18,70.0069 1077.8,70.6312 1096.41,101.662 1115.03,159.573 1133.64,237.934 1152.26,328.572 1170.88,422.946 1189.49,513.443 1208.11,594.311 
  1226.73,662.102 1245.34,715.62 1263.96,755.496 1282.57,783.57 1301.19,802.251 1319.81,813.997 1338.42,820.971 1357.04,824.876 1375.65,826.935 1394.27,827.955 
  1412.89,828.43 1431.5,828.636 1450.12,828.719 1468.74,828.75 1487.35,828.761 1505.97,828.765 1524.58,828.766 1543.2,828.766 1561.82,828.766 1580.43,828.766 
  1599.05,828.766 1617.66,828.766 1636.28,828.766 1654.9,828.766 1673.51,828.766 1692.13,828.766 1710.75,828.766 1729.36,828.766 1747.98,828.766 1766.59,828.766 
  1785.21,828.766 1803.83,828.766 1822.44,828.766 1841.06,828.766 1859.68,828.766 1878.29,828.766 1896.91,828.766 1915.52,828.766 1934.14,828.766 1952.76,828.766 
  
  "/>
<polyline clip-path="url(#clip4302)" style="stroke:#ff0000; stroke-width:4; stroke-opacity:1; fill:none" points="
  1031.26,1655.81 1031.26,-757.041 
  "/>
<path clip-path="url(#clip4300)" d="
M1361.07 348.684 L1892.76 348.684 L1892.76 106.764 L1361.07 106.764  Z
  " fill="#ffffff" fill-rule="evenodd" fill-opacity="1"/>
<polyline clip-path="url(#clip4300)" style="stroke:#000000; stroke-width:4; stroke-opacity:1; fill:none" points="
  1361.07,348.684 1892.76,348.684 1892.76,106.764 1361.07,106.764 1361.07,348.684 
  "/>
<polyline clip-path="url(#clip4300)" style="stroke:#0000ff; stroke-width:8; stroke-opacity:1; fill:none" points="
  1381.07,167.244 1501.07,167.244 
  "/>
<g clip-path="url(#clip4300)">
<text style="fill:#000000; fill-opacity:1; font-family:Arial,Helvetica Neue,Helvetica,sans-serif; font-size:48px; text-anchor:start;" transform="rotate(0, 1521.07, 184.744)" x="1521.07" y="184.744">[&quot;Chain 1&quot;]</text>
</g>
<path clip-path="url(#clip4300)" d="
M1381.07 251.916 L1501.07 251.916 L1501.07 203.532 L1381.07 203.532 L1381.07 251.916  Z
  " fill="#90ee90" fill-rule="evenodd" fill-opacity="0.3"/>
<polyline clip-path="url(#clip4300)" style="stroke:#90ee90; stroke-width:12; stroke-opacity:0.3; fill:none" points="
  1381.07,203.532 1501.07,203.532 
  "/>
<g clip-path="url(#clip4300)">
<text style="fill:#000000; fill-opacity:1; font-family:Arial,Helvetica Neue,Helvetica,sans-serif; font-size:48px; text-anchor:start;" transform="rotate(0, 1521.07, 245.224)" x="1521.07" y="245.224">Closed-form</text>
</g>
<polyline clip-path="url(#clip4300)" style="stroke:#ff0000; stroke-width:4; stroke-opacity:1; fill:none" points="
  1381.07,288.204 1501.07,288.204 
  "/>
<g clip-path="url(#clip4300)">
<text style="fill:#000000; fill-opacity:1; font-family:Arial,Helvetica Neue,Helvetica,sans-serif; font-size:48px; text-anchor:start;" transform="rotate(0, 1521.07, 305.704)" x="1521.07" y="305.704">True probability</text>
</g>
</svg>
