<?xml version="1.0" encoding="utf-8"?>
<svg xmlns="http://www.w3.org/2000/svg" xmlns:xlink="http://www.w3.org/1999/xlink" width="500" height="250" viewBox="0 0 2000 1000">
<defs>
  <clipPath id="clip290">
    <rect x="0" y="0" width="2000" height="1000"/>
  </clipPath>
</defs>
<path clip-path="url(#clip290)" d="
M0 1000 L2000 1000 L2000 0 L0 0  Z
  " fill="#ffffff" fill-rule="evenodd" fill-opacity="1"/>
<defs>
  <clipPath id="clip291">
    <rect x="400" y="0" width="1401" height="1000"/>
  </clipPath>
</defs>
<path clip-path="url(#clip290)" d="
M108.177 849.7 L1952.76 849.7 L1952.76 47.2441 L108.177 47.2441  Z
  " fill="#ffffff" fill-rule="evenodd" fill-opacity="1"/>
<defs>
  <clipPath id="clip292">
    <rect x="108" y="47" width="1846" height="803"/>
  </clipPath>
</defs>
<polyline clip-path="url(#clip292)" style="stroke:#000000; stroke-width:2; stroke-opacity:0.1; fill:none" points="
  108.177,849.7 108.177,47.2441 
  "/>
<polyline clip-path="url(#clip292)" style="stroke:#000000; stroke-width:2; stroke-opacity:0.1; fill:none" points="
  477.093,849.7 477.093,47.2441 
  "/>
<polyline clip-path="url(#clip292)" style="stroke:#000000; stroke-width:2; stroke-opacity:0.1; fill:none" points="
  846.009,849.7 846.009,47.2441 
  "/>
<polyline clip-path="url(#clip292)" style="stroke:#000000; stroke-width:2; stroke-opacity:0.1; fill:none" points="
  1214.92,849.7 1214.92,47.2441 
  "/>
<polyline clip-path="url(#clip292)" style="stroke:#000000; stroke-width:2; stroke-opacity:0.1; fill:none" points="
  1583.84,849.7 1583.84,47.2441 
  "/>
<polyline clip-path="url(#clip292)" style="stroke:#000000; stroke-width:2; stroke-opacity:0.1; fill:none" points="
  1952.76,849.7 1952.76,47.2441 
  "/>
<polyline clip-path="url(#clip292)" style="stroke:#000000; stroke-width:2; stroke-opacity:0.1; fill:none" points="
  108.177,826.989 1952.76,826.989 
  "/>
<polyline clip-path="url(#clip292)" style="stroke:#000000; stroke-width:2; stroke-opacity:0.1; fill:none" points="
  108.177,637.899 1952.76,637.899 
  "/>
<polyline clip-path="url(#clip292)" style="stroke:#000000; stroke-width:2; stroke-opacity:0.1; fill:none" points="
  108.177,448.809 1952.76,448.809 
  "/>
<polyline clip-path="url(#clip292)" style="stroke:#000000; stroke-width:2; stroke-opacity:0.1; fill:none" points="
  108.177,259.719 1952.76,259.719 
  "/>
<polyline clip-path="url(#clip292)" style="stroke:#000000; stroke-width:2; stroke-opacity:0.1; fill:none" points="
  108.177,70.6293 1952.76,70.6293 
  "/>
<polyline clip-path="url(#clip290)" style="stroke:#000000; stroke-width:4; stroke-opacity:1; fill:none" points="
  108.177,849.7 1952.76,849.7 
  "/>
<polyline clip-path="url(#clip290)" style="stroke:#000000; stroke-width:4; stroke-opacity:1; fill:none" points="
  108.177,849.7 108.177,47.2441 
  "/>
<polyline clip-path="url(#clip290)" style="stroke:#000000; stroke-width:4; stroke-opacity:1; fill:none" points="
  108.177,849.7 108.177,840.07 
  "/>
<polyline clip-path="url(#clip290)" style="stroke:#000000; stroke-width:4; stroke-opacity:1; fill:none" points="
  477.093,849.7 477.093,840.07 
  "/>
<polyline clip-path="url(#clip290)" style="stroke:#000000; stroke-width:4; stroke-opacity:1; fill:none" points="
  846.009,849.7 846.009,840.07 
  "/>
<polyline clip-path="url(#clip290)" style="stroke:#000000; stroke-width:4; stroke-opacity:1; fill:none" points="
  1214.92,849.7 1214.92,840.07 
  "/>
<polyline clip-path="url(#clip290)" style="stroke:#000000; stroke-width:4; stroke-opacity:1; fill:none" points="
  1583.84,849.7 1583.84,840.07 
  "/>
<polyline clip-path="url(#clip290)" style="stroke:#000000; stroke-width:4; stroke-opacity:1; fill:none" points="
  1952.76,849.7 1952.76,840.07 
  "/>
<polyline clip-path="url(#clip290)" style="stroke:#000000; stroke-width:4; stroke-opacity:1; fill:none" points="
  108.177,826.989 130.312,826.989 
  "/>
<polyline clip-path="url(#clip290)" style="stroke:#000000; stroke-width:4; stroke-opacity:1; fill:none" points="
  108.177,637.899 130.312,637.899 
  "/>
<polyline clip-path="url(#clip290)" style="stroke:#000000; stroke-width:4; stroke-opacity:1; fill:none" points="
  108.177,448.809 130.312,448.809 
  "/>
<polyline clip-path="url(#clip290)" style="stroke:#000000; stroke-width:4; stroke-opacity:1; fill:none" points="
  108.177,259.719 130.312,259.719 
  "/>
<polyline clip-path="url(#clip290)" style="stroke:#000000; stroke-width:4; stroke-opacity:1; fill:none" points="
  108.177,70.6293 130.312,70.6293 
  "/>
<path clip-path="url(#clip290)" d="M 0 0 M89.6935 869.691 Q86.0824 869.691 84.2537 873.255 Q82.4481 876.797 82.4481 883.927 Q82.4481 891.033 84.2537 894.598 Q86.0824 898.139 89.6935 898.139 Q93.3277 898.139 95.1333 894.598 Q96.962 891.033 96.962 883.927 Q96.962 876.797 95.1333 873.255 Q93.3277 869.691 89.6935 869.691 M89.6935 865.987 Q95.5036 865.987 98.5592 870.593 Q101.638 875.177 101.638 883.927 Q101.638 892.653 98.5592 897.26 Q95.5036 901.843 89.6935 901.843 Q83.8833 901.843 80.8046 897.26 Q77.7491 892.653 77.7491 883.927 Q77.7491 875.177 80.8046 870.593 Q83.8833 865.987 89.6935 865.987 Z" fill="#000000" fill-rule="evenodd" fill-opacity="1" /><path clip-path="url(#clip290)" d="M 0 0 M106.707 895.292 L111.592 895.292 L111.592 901.172 L106.707 901.172 L106.707 895.292 Z" fill="#000000" fill-rule="evenodd" fill-opacity="1" /><path clip-path="url(#clip290)" d="M 0 0 M126.661 869.691 Q123.05 869.691 121.221 873.255 Q119.416 876.797 119.416 883.927 Q119.416 891.033 121.221 894.598 Q123.05 898.139 126.661 898.139 Q130.295 898.139 132.101 894.598 Q133.929 891.033 133.929 883.927 Q133.929 876.797 132.101 873.255 Q130.295 869.691 126.661 869.691 M126.661 865.987 Q132.471 865.987 135.527 870.593 Q138.605 875.177 138.605 883.927 Q138.605 892.653 135.527 897.26 Q132.471 901.843 126.661 901.843 Q120.851 901.843 117.772 897.26 Q114.716 892.653 114.716 883.927 Q114.716 875.177 117.772 870.593 Q120.851 865.987 126.661 865.987 Z" fill="#000000" fill-rule="evenodd" fill-opacity="1" /><path clip-path="url(#clip290)" d="M 0 0 M459.408 869.691 Q455.797 869.691 453.968 873.255 Q452.163 876.797 452.163 883.927 Q452.163 891.033 453.968 894.598 Q455.797 898.139 459.408 898.139 Q463.042 898.139 464.848 894.598 Q466.676 891.033 466.676 883.927 Q466.676 876.797 464.848 873.255 Q463.042 869.691 459.408 869.691 M459.408 865.987 Q465.218 865.987 468.274 870.593 Q471.352 875.177 471.352 883.927 Q471.352 892.653 468.274 897.26 Q465.218 901.843 459.408 901.843 Q453.598 901.843 450.519 897.26 Q447.463 892.653 447.463 883.927 Q447.463 875.177 450.519 870.593 Q453.598 865.987 459.408 865.987 Z" fill="#000000" fill-rule="evenodd" fill-opacity="1" /><path clip-path="url(#clip290)" d="M 0 0 M476.422 895.292 L481.306 895.292 L481.306 901.172 L476.422 901.172 L476.422 895.292 Z" fill="#000000" fill-rule="evenodd" fill-opacity="1" /><path clip-path="url(#clip290)" d="M 0 0 M490.403 897.237 L506.722 897.237 L506.722 901.172 L484.778 901.172 L484.778 897.237 Q487.44 894.482 492.023 889.852 Q496.63 885.2 497.81 883.857 Q500.056 881.334 500.935 879.598 Q501.838 877.839 501.838 876.149 Q501.838 873.394 499.894 871.658 Q497.972 869.922 494.871 869.922 Q492.672 869.922 490.218 870.686 Q487.787 871.45 485.01 873.001 L485.01 868.279 Q487.834 867.144 490.287 866.566 Q492.741 865.987 494.778 865.987 Q500.148 865.987 503.343 868.672 Q506.537 871.357 506.537 875.848 Q506.537 877.978 505.727 879.899 Q504.94 881.797 502.834 884.39 Q502.255 885.061 499.153 888.278 Q496.051 891.473 490.403 897.237 Z" fill="#000000" fill-rule="evenodd" fill-opacity="1" /><path clip-path="url(#clip290)" d="M 0 0 M827.282 869.691 Q823.671 869.691 821.842 873.255 Q820.037 876.797 820.037 883.927 Q820.037 891.033 821.842 894.598 Q823.671 898.139 827.282 898.139 Q830.916 898.139 832.722 894.598 Q834.55 891.033 834.55 883.927 Q834.55 876.797 832.722 873.255 Q830.916 869.691 827.282 869.691 M827.282 865.987 Q833.092 865.987 836.148 870.593 Q839.226 875.177 839.226 883.927 Q839.226 892.653 836.148 897.26 Q833.092 901.843 827.282 901.843 Q821.472 901.843 818.393 897.26 Q815.338 892.653 815.338 883.927 Q815.338 875.177 818.393 870.593 Q821.472 865.987 827.282 865.987 Z" fill="#000000" fill-rule="evenodd" fill-opacity="1" /><path clip-path="url(#clip290)" d="M 0 0 M844.296 895.292 L849.18 895.292 L849.18 901.172 L844.296 901.172 L844.296 895.292 Z" fill="#000000" fill-rule="evenodd" fill-opacity="1" /><path clip-path="url(#clip290)" d="M 0 0 M867.097 870.686 L855.291 889.135 L867.097 889.135 L867.097 870.686 M865.87 866.612 L871.749 866.612 L871.749 889.135 L876.68 889.135 L876.68 893.024 L871.749 893.024 L871.749 901.172 L867.097 901.172 L867.097 893.024 L851.495 893.024 L851.495 888.51 L865.87 866.612 Z" fill="#000000" fill-rule="evenodd" fill-opacity="1" /><path clip-path="url(#clip290)" d="M 0 0 M1196.36 869.691 Q1192.75 869.691 1190.92 873.255 Q1189.11 876.797 1189.11 883.927 Q1189.11 891.033 1190.92 894.598 Q1192.75 898.139 1196.36 898.139 Q1199.99 898.139 1201.8 894.598 Q1203.63 891.033 1203.63 883.927 Q1203.63 876.797 1201.8 873.255 Q1199.99 869.691 1196.36 869.691 M1196.36 865.987 Q1202.17 865.987 1205.23 870.593 Q1208.3 875.177 1208.3 883.927 Q1208.3 892.653 1205.23 897.26 Q1202.17 901.843 1196.36 901.843 Q1190.55 901.843 1187.47 897.26 Q1184.42 892.653 1184.42 883.927 Q1184.42 875.177 1187.47 870.593 Q1190.55 865.987 1196.36 865.987 Z" fill="#000000" fill-rule="evenodd" fill-opacity="1" /><path clip-path="url(#clip290)" d="M 0 0 M1213.37 895.292 L1218.26 895.292 L1218.26 901.172 L1213.37 901.172 L1213.37 895.292 Z" fill="#000000" fill-rule="evenodd" fill-opacity="1" /><path clip-path="url(#clip290)" d="M 0 0 M1233.91 882.028 Q1230.76 882.028 1228.91 884.181 Q1227.08 886.334 1227.08 890.084 Q1227.08 893.811 1228.91 895.987 Q1230.76 898.139 1233.91 898.139 Q1237.05 898.139 1238.88 895.987 Q1240.73 893.811 1240.73 890.084 Q1240.73 886.334 1238.88 884.181 Q1237.05 882.028 1233.91 882.028 M1243.19 867.376 L1243.19 871.635 Q1241.43 870.802 1239.62 870.362 Q1237.84 869.922 1236.08 869.922 Q1231.45 869.922 1229 873.047 Q1226.57 876.172 1226.22 882.491 Q1227.59 880.478 1229.65 879.413 Q1231.71 878.325 1234.18 878.325 Q1239.39 878.325 1242.4 881.496 Q1245.43 884.644 1245.43 890.084 Q1245.43 895.408 1242.29 898.626 Q1239.14 901.843 1233.91 901.843 Q1227.91 901.843 1224.74 897.26 Q1221.57 892.653 1221.57 883.927 Q1221.57 875.732 1225.46 870.871 Q1229.35 865.987 1235.9 865.987 Q1237.66 865.987 1239.44 866.334 Q1241.24 866.681 1243.19 867.376 Z" fill="#000000" fill-rule="evenodd" fill-opacity="1" /><path clip-path="url(#clip290)" d="M 0 0 M1565.4 869.691 Q1561.79 869.691 1559.96 873.255 Q1558.16 876.797 1558.16 883.927 Q1558.16 891.033 1559.96 894.598 Q1561.79 898.139 1565.4 898.139 Q1569.04 898.139 1570.84 894.598 Q1572.67 891.033 1572.67 883.927 Q1572.67 876.797 1570.84 873.255 Q1569.04 869.691 1565.4 869.691 M1565.4 865.987 Q1571.21 865.987 1574.27 870.593 Q1577.35 875.177 1577.35 883.927 Q1577.35 892.653 1574.27 897.26 Q1571.21 901.843 1565.4 901.843 Q1559.59 901.843 1556.51 897.26 Q1553.46 892.653 1553.46 883.927 Q1553.46 875.177 1556.51 870.593 Q1559.59 865.987 1565.4 865.987 Z" fill="#000000" fill-rule="evenodd" fill-opacity="1" /><path clip-path="url(#clip290)" d="M 0 0 M1582.42 895.292 L1587.3 895.292 L1587.3 901.172 L1582.42 901.172 L1582.42 895.292 Z" fill="#000000" fill-rule="evenodd" fill-opacity="1" /><path clip-path="url(#clip290)" d="M 0 0 M1602.37 884.76 Q1599.04 884.76 1597.12 886.542 Q1595.22 888.325 1595.22 891.45 Q1595.22 894.575 1597.12 896.357 Q1599.04 898.139 1602.37 898.139 Q1605.7 898.139 1607.62 896.357 Q1609.55 894.552 1609.55 891.45 Q1609.55 888.325 1607.62 886.542 Q1605.73 884.76 1602.37 884.76 M1597.69 882.769 Q1594.69 882.028 1593 879.968 Q1591.33 877.908 1591.33 874.945 Q1591.33 870.802 1594.27 868.394 Q1597.23 865.987 1602.37 865.987 Q1607.53 865.987 1610.47 868.394 Q1613.41 870.802 1613.41 874.945 Q1613.41 877.908 1611.72 879.968 Q1610.06 882.028 1607.07 882.769 Q1610.45 883.556 1612.32 885.848 Q1614.22 888.14 1614.22 891.45 Q1614.22 896.473 1611.14 899.158 Q1608.09 901.843 1602.37 901.843 Q1596.65 901.843 1593.57 899.158 Q1590.52 896.473 1590.52 891.45 Q1590.52 888.14 1592.42 885.848 Q1594.31 883.556 1597.69 882.769 M1595.98 875.385 Q1595.98 878.07 1597.65 879.575 Q1599.34 881.079 1602.37 881.079 Q1605.38 881.079 1607.07 879.575 Q1608.78 878.07 1608.78 875.385 Q1608.78 872.7 1607.07 871.195 Q1605.38 869.691 1602.37 869.691 Q1599.34 869.691 1597.65 871.195 Q1595.98 872.7 1595.98 875.385 Z" fill="#000000" fill-rule="evenodd" fill-opacity="1" /><path clip-path="url(#clip290)" d="M 0 0 M1924.65 897.237 L1932.29 897.237 L1932.29 870.871 L1923.98 872.538 L1923.98 868.279 L1932.25 866.612 L1936.92 866.612 L1936.92 897.237 L1944.56 897.237 L1944.56 901.172 L1924.65 901.172 L1924.65 897.237 Z" fill="#000000" fill-rule="evenodd" fill-opacity="1" /><path clip-path="url(#clip290)" d="M 0 0 M1949.63 895.292 L1954.52 895.292 L1954.52 901.172 L1949.63 901.172 L1949.63 895.292 Z" fill="#000000" fill-rule="evenodd" fill-opacity="1" /><path clip-path="url(#clip290)" d="M 0 0 M1969.58 869.691 Q1965.97 869.691 1964.14 873.255 Q1962.34 876.797 1962.34 883.927 Q1962.34 891.033 1964.14 894.598 Q1965.97 898.139 1969.58 898.139 Q1973.22 898.139 1975.02 894.598 Q1976.85 891.033 1976.85 883.927 Q1976.85 876.797 1975.02 873.255 Q1973.22 869.691 1969.58 869.691 M1969.58 865.987 Q1975.39 865.987 1978.45 870.593 Q1981.53 875.177 1981.53 883.927 Q1981.53 892.653 1978.45 897.26 Q1975.39 901.843 1969.58 901.843 Q1963.77 901.843 1960.7 897.26 Q1957.64 892.653 1957.64 883.927 Q1957.64 875.177 1960.7 870.593 Q1963.77 865.987 1969.58 865.987 Z" fill="#000000" fill-rule="evenodd" fill-opacity="1" /><path clip-path="url(#clip290)" d="M 0 0 M76.2328 812.788 Q72.6217 812.788 70.793 816.352 Q68.9875 819.894 68.9875 827.024 Q68.9875 834.13 70.793 837.695 Q72.6217 841.236 76.2328 841.236 Q79.867 841.236 81.6726 837.695 Q83.5013 834.13 83.5013 827.024 Q83.5013 819.894 81.6726 816.352 Q79.867 812.788 76.2328 812.788 M76.2328 809.084 Q82.0429 809.084 85.0985 813.69 Q88.1772 818.274 88.1772 827.024 Q88.1772 835.75 85.0985 840.357 Q82.0429 844.94 76.2328 844.94 Q70.4226 844.94 67.344 840.357 Q64.2884 835.75 64.2884 827.024 Q64.2884 818.274 67.344 813.69 Q70.4226 809.084 76.2328 809.084 Z" fill="#000000" fill-rule="evenodd" fill-opacity="1" /><path clip-path="url(#clip290)" d="M 0 0 M71.8578 651.244 L88.1772 651.244 L88.1772 655.179 L66.2328 655.179 L66.2328 651.244 Q68.8949 648.489 73.4782 643.86 Q78.0846 639.207 79.2652 637.864 Q81.5105 635.341 82.3902 633.605 Q83.2929 631.846 83.2929 630.156 Q83.2929 627.401 81.3485 625.665 Q79.4272 623.929 76.3254 623.929 Q74.1263 623.929 71.6726 624.693 Q69.2421 625.457 66.4643 627.008 L66.4643 622.286 Q69.2884 621.151 71.7421 620.573 Q74.1958 619.994 76.2328 619.994 Q81.6031 619.994 84.7976 622.679 Q87.992 625.364 87.992 629.855 Q87.992 631.985 87.1818 633.906 Q86.3948 635.804 84.2883 638.397 Q83.7096 639.068 80.6078 642.286 Q77.5059 645.48 71.8578 651.244 Z" fill="#000000" fill-rule="evenodd" fill-opacity="1" /><path clip-path="url(#clip290)" d="M 0 0 M78.5939 435.603 L66.7884 454.052 L78.5939 454.052 L78.5939 435.603 M77.367 431.529 L83.2466 431.529 L83.2466 454.052 L88.1772 454.052 L88.1772 457.941 L83.2466 457.941 L83.2466 466.089 L78.5939 466.089 L78.5939 457.941 L62.9921 457.941 L62.9921 453.427 L77.367 431.529 Z" fill="#000000" fill-rule="evenodd" fill-opacity="1" /><path clip-path="url(#clip290)" d="M 0 0 M76.6495 257.856 Q73.5013 257.856 71.6495 260.009 Q69.8208 262.161 69.8208 265.911 Q69.8208 269.638 71.6495 271.814 Q73.5013 273.967 76.6495 273.967 Q79.7976 273.967 81.6263 271.814 Q83.4781 269.638 83.4781 265.911 Q83.4781 262.161 81.6263 260.009 Q79.7976 257.856 76.6495 257.856 M85.9318 243.203 L85.9318 247.462 Q84.1726 246.629 82.367 246.189 Q80.5846 245.749 78.8254 245.749 Q74.1958 245.749 71.7421 248.874 Q69.3115 251.999 68.9643 258.319 Q70.33 256.305 72.3902 255.24 Q74.4504 254.152 76.9272 254.152 Q82.1355 254.152 85.1448 257.323 Q88.1772 260.472 88.1772 265.911 Q88.1772 271.235 85.029 274.453 Q81.8809 277.67 76.6495 277.67 Q70.6541 277.67 67.4828 273.087 Q64.3116 268.481 64.3116 259.754 Q64.3116 251.56 68.2004 246.698 Q72.0893 241.814 78.6402 241.814 Q80.3994 241.814 82.1818 242.161 Q83.9874 242.509 85.9318 243.203 Z" fill="#000000" fill-rule="evenodd" fill-opacity="1" /><path clip-path="url(#clip290)" d="M 0 0 M76.3254 71.4974 Q72.9921 71.4974 71.0708 73.2798 Q69.1726 75.0622 69.1726 78.1871 Q69.1726 81.3121 71.0708 83.0945 Q72.9921 84.8769 76.3254 84.8769 Q79.6587 84.8769 81.58 83.0945 Q83.5013 81.289 83.5013 78.1871 Q83.5013 75.0622 81.58 73.2798 Q79.6819 71.4974 76.3254 71.4974 M71.6495 69.5066 Q68.6402 68.7659 66.9504 66.7057 Q65.2838 64.6456 65.2838 61.6826 Q65.2838 57.5391 68.2236 55.1317 Q71.1865 52.7243 76.3254 52.7243 Q81.4874 52.7243 84.4272 55.1317 Q87.367 57.5391 87.367 61.6826 Q87.367 64.6456 85.6772 66.7057 Q84.0105 68.7659 81.0244 69.5066 Q84.404 70.2937 86.279 72.5853 Q88.1772 74.877 88.1772 78.1871 Q88.1772 83.2103 85.0985 85.8954 Q82.0429 88.5806 76.3254 88.5806 Q70.6078 88.5806 67.5291 85.8954 Q64.4736 83.2103 64.4736 78.1871 Q64.4736 74.877 66.3717 72.5853 Q68.2699 70.2937 71.6495 69.5066 M69.9365 62.1224 Q69.9365 64.8076 71.6032 66.3122 Q73.293 67.8168 76.3254 67.8168 Q79.3346 67.8168 81.0244 66.3122 Q82.7374 64.8076 82.7374 62.1224 Q82.7374 59.4372 81.0244 57.9326 Q79.3346 56.428 76.3254 56.428 Q73.293 56.428 71.6032 57.9326 Q69.9365 59.4372 69.9365 62.1224 Z" fill="#000000" fill-rule="evenodd" fill-opacity="1" /><path clip-path="url(#clip290)" d="M 0 0 M749.118 973.217 L749.118 992.123 L743.23 992.123 L743.23 942.916 L749.118 942.916 L749.118 948.327 Q750.964 945.144 753.765 943.616 Q756.598 942.057 760.513 942.057 Q767.006 942.057 771.048 947.213 Q775.122 952.369 775.122 960.772 Q775.122 969.174 771.048 974.331 Q767.006 979.487 760.513 979.487 Q756.598 979.487 753.765 977.959 Q750.964 976.4 749.118 973.217 M769.043 960.772 Q769.043 954.311 766.369 950.65 Q763.728 946.958 759.081 946.958 Q754.434 946.958 751.76 950.65 Q749.118 954.311 749.118 960.772 Q749.118 967.233 751.76 970.925 Q754.434 974.585 759.081 974.585 Q763.728 974.585 766.369 970.925 Q769.043 967.233 769.043 960.772 Z" fill="#000000" fill-rule="evenodd" fill-opacity="1" /><path clip-path="url(#clip290)" d="M 0 0 M801.922 948.39 Q800.935 947.817 799.757 947.563 Q798.612 947.276 797.211 947.276 Q792.246 947.276 789.572 950.523 Q786.931 953.738 786.931 959.785 L786.931 978.564 L781.042 978.564 L781.042 942.916 L786.931 942.916 L786.931 948.454 Q788.777 945.208 791.737 943.648 Q794.697 942.057 798.93 942.057 Q799.535 942.057 800.267 942.152 Q800.999 942.216 801.89 942.375 L801.922 948.39 Z" fill="#000000" fill-rule="evenodd" fill-opacity="1" /><path clip-path="url(#clip290)" d="M 0 0 M820.446 947.022 Q815.735 947.022 812.998 950.714 Q810.261 954.374 810.261 960.772 Q810.261 967.169 812.966 970.861 Q815.704 974.522 820.446 974.522 Q825.125 974.522 827.862 970.83 Q830.599 967.137 830.599 960.772 Q830.599 954.438 827.862 950.746 Q825.125 947.022 820.446 947.022 M820.446 942.057 Q828.085 942.057 832.445 947.022 Q836.806 951.987 836.806 960.772 Q836.806 969.525 832.445 974.522 Q828.085 979.487 820.446 979.487 Q812.775 979.487 808.415 974.522 Q804.086 969.525 804.086 960.772 Q804.086 951.987 808.415 947.022 Q812.775 942.057 820.446 942.057 Z" fill="#000000" fill-rule="evenodd" fill-opacity="1" /><path clip-path="url(#clip290)" d="M 0 0 M868.539 960.772 Q868.539 954.311 865.865 950.65 Q863.224 946.958 858.577 946.958 Q853.93 946.958 851.256 950.65 Q848.614 954.311 848.614 960.772 Q848.614 967.233 851.256 970.925 Q853.93 974.585 858.577 974.585 Q863.224 974.585 865.865 970.925 Q868.539 967.233 868.539 960.772 M848.614 948.327 Q850.46 945.144 853.261 943.616 Q856.094 942.057 860.009 942.057 Q866.502 942.057 870.544 947.213 Q874.618 952.369 874.618 960.772 Q874.618 969.174 870.544 974.331 Q866.502 979.487 860.009 979.487 Q856.094 979.487 853.261 977.959 Q850.46 976.4 848.614 973.217 L848.614 978.564 L842.726 978.564 L842.726 929.039 L848.614 929.039 L848.614 948.327 Z" fill="#000000" fill-rule="evenodd" fill-opacity="1" /><path clip-path="url(#clip290)" d="M 0 0 M896.962 960.644 Q889.864 960.644 887.127 962.268 Q884.389 963.891 884.389 967.806 Q884.389 970.925 886.427 972.771 Q888.495 974.585 892.028 974.585 Q896.898 974.585 899.826 971.148 Q902.786 967.678 902.786 961.949 L902.786 960.644 L896.962 960.644 M908.643 958.225 L908.643 978.564 L902.786 978.564 L902.786 973.153 Q900.781 976.4 897.789 977.959 Q894.797 979.487 890.469 979.487 Q884.994 979.487 881.748 976.431 Q878.533 973.344 878.533 968.188 Q878.533 962.172 882.543 959.117 Q886.586 956.061 894.575 956.061 L902.786 956.061 L902.786 955.488 Q902.786 951.446 900.113 949.25 Q897.471 947.022 892.665 947.022 Q889.609 947.022 886.713 947.754 Q883.817 948.486 881.143 949.95 L881.143 944.539 Q884.358 943.298 887.381 942.693 Q890.405 942.057 893.27 942.057 Q901.004 942.057 904.823 946.067 Q908.643 950.077 908.643 958.225 Z" fill="#000000" fill-rule="evenodd" fill-opacity="1" /><path clip-path="url(#clip290)" d="M 0 0 M940.376 960.772 Q940.376 954.311 937.702 950.65 Q935.061 946.958 930.414 946.958 Q925.767 946.958 923.093 950.65 Q920.451 954.311 920.451 960.772 Q920.451 967.233 923.093 970.925 Q925.767 974.585 930.414 974.585 Q935.061 974.585 937.702 970.925 Q940.376 967.233 940.376 960.772 M920.451 948.327 Q922.297 945.144 925.098 943.616 Q927.931 942.057 931.846 942.057 Q938.339 942.057 942.381 947.213 Q946.455 952.369 946.455 960.772 Q946.455 969.174 942.381 974.331 Q938.339 979.487 931.846 979.487 Q927.931 979.487 925.098 977.959 Q922.297 976.4 920.451 973.217 L920.451 978.564 L914.563 978.564 L914.563 929.039 L920.451 929.039 L920.451 948.327 Z" fill="#000000" fill-rule="evenodd" fill-opacity="1" /><path clip-path="url(#clip290)" d="M 0 0 M952.598 942.916 L958.454 942.916 L958.454 978.564 L952.598 978.564 L952.598 942.916 M952.598 929.039 L958.454 929.039 L958.454 936.455 L952.598 936.455 L952.598 929.039 Z" fill="#000000" fill-rule="evenodd" fill-opacity="1" /><path clip-path="url(#clip290)" d="M 0 0 M964.597 929.039 L970.454 929.039 L970.454 978.564 L964.597 978.564 L964.597 929.039 Z" fill="#000000" fill-rule="evenodd" fill-opacity="1" /><path clip-path="url(#clip290)" d="M 0 0 M976.597 942.916 L982.453 942.916 L982.453 978.564 L976.597 978.564 L976.597 942.916 M976.597 929.039 L982.453 929.039 L982.453 936.455 L976.597 936.455 L976.597 929.039 Z" fill="#000000" fill-rule="evenodd" fill-opacity="1" /><path clip-path="url(#clip290)" d="M 0 0 M994.389 932.794 L994.389 942.916 L1006.45 942.916 L1006.45 947.467 L994.389 947.467 L994.389 966.819 Q994.389 971.18 995.567 972.421 Q996.776 973.662 1000.44 973.662 L1006.45 973.662 L1006.45 978.564 L1000.44 978.564 Q993.657 978.564 991.079 976.049 Q988.501 973.503 988.501 966.819 L988.501 947.467 L984.204 947.467 L984.204 942.916 L988.501 942.916 L988.501 932.794 L994.389 932.794 Z" fill="#000000" fill-rule="evenodd" fill-opacity="1" /><path clip-path="url(#clip290)" d="M 0 0 M1027.43 981.874 Q1024.94 988.24 1022.59 990.181 Q1020.23 992.123 1016.29 992.123 L1011.61 992.123 L1011.61 987.221 L1015.05 987.221 Q1017.46 987.221 1018.8 986.075 Q1020.14 984.93 1021.76 980.665 L1022.81 977.991 L1008.39 942.916 L1014.6 942.916 L1025.74 970.798 L1036.88 942.916 L1043.09 942.916 L1027.43 981.874 Z" fill="#000000" fill-rule="evenodd" fill-opacity="1" /><path clip-path="url(#clip290)" d="M 0 0 M1083.76 947.022 Q1079.05 947.022 1076.32 950.714 Q1073.58 954.374 1073.58 960.772 Q1073.58 967.169 1076.28 970.861 Q1079.02 974.522 1083.76 974.522 Q1088.44 974.522 1091.18 970.83 Q1093.92 967.137 1093.92 960.772 Q1093.92 954.438 1091.18 950.746 Q1088.44 947.022 1083.76 947.022 M1083.76 942.057 Q1091.4 942.057 1095.76 947.022 Q1100.12 951.987 1100.12 960.772 Q1100.12 969.525 1095.76 974.522 Q1091.4 979.487 1083.76 979.487 Q1076.09 979.487 1071.73 974.522 Q1067.4 969.525 1067.4 960.772 Q1067.4 951.987 1071.73 947.022 Q1076.09 942.057 1083.76 942.057 Z" fill="#000000" fill-rule="evenodd" fill-opacity="1" /><path clip-path="url(#clip290)" d="M 0 0 M1124.31 929.039 L1124.31 933.908 L1118.71 933.908 Q1115.56 933.908 1114.32 935.182 Q1113.11 936.455 1113.11 939.765 L1113.11 942.916 L1122.75 942.916 L1122.75 947.467 L1113.11 947.467 L1113.11 978.564 L1107.22 978.564 L1107.22 947.467 L1101.62 947.467 L1101.62 942.916 L1107.22 942.916 L1107.22 940.433 Q1107.22 934.481 1109.99 931.776 Q1112.76 929.039 1118.77 929.039 L1124.31 929.039 Z" fill="#000000" fill-rule="evenodd" fill-opacity="1" /><path clip-path="url(#clip290)" d="M 0 0 M1180.81 957.048 L1180.81 978.564 L1174.95 978.564 L1174.95 957.239 Q1174.95 952.178 1172.98 949.664 Q1171.01 947.149 1167.06 947.149 Q1162.32 947.149 1159.58 950.173 Q1156.84 953.197 1156.84 958.416 L1156.84 978.564 L1150.95 978.564 L1150.95 929.039 L1156.84 929.039 L1156.84 948.454 Q1158.94 945.239 1161.78 943.648 Q1164.64 942.057 1168.36 942.057 Q1174.51 942.057 1177.66 945.876 Q1180.81 949.664 1180.81 957.048 Z" fill="#000000" fill-rule="evenodd" fill-opacity="1" /><path clip-path="url(#clip290)" d="M 0 0 M1217.44 959.276 L1217.44 962.14 L1190.52 962.14 Q1190.9 968.188 1194.14 971.371 Q1197.42 974.522 1203.25 974.522 Q1206.62 974.522 1209.77 973.694 Q1212.96 972.867 1216.07 971.211 L1216.07 976.75 Q1212.92 978.086 1209.61 978.787 Q1206.3 979.487 1202.9 979.487 Q1194.37 979.487 1189.37 974.522 Q1184.41 969.556 1184.41 961.09 Q1184.41 952.337 1189.12 947.213 Q1193.86 942.057 1201.88 942.057 Q1209.07 942.057 1213.24 946.703 Q1217.44 951.319 1217.44 959.276 M1211.59 957.557 Q1211.52 952.751 1208.88 949.886 Q1206.27 947.022 1201.94 947.022 Q1197.04 947.022 1194.08 949.791 Q1191.15 952.56 1190.71 957.589 L1211.59 957.557 Z" fill="#000000" fill-rule="evenodd" fill-opacity="1" /><path clip-path="url(#clip290)" d="M 0 0 M1239.79 960.644 Q1232.69 960.644 1229.95 962.268 Q1227.21 963.891 1227.21 967.806 Q1227.21 970.925 1229.25 972.771 Q1231.32 974.585 1234.85 974.585 Q1239.72 974.585 1242.65 971.148 Q1245.61 967.678 1245.61 961.949 L1245.61 960.644 L1239.79 960.644 M1251.47 958.225 L1251.47 978.564 L1245.61 978.564 L1245.61 973.153 Q1243.61 976.4 1240.61 977.959 Q1237.62 979.487 1233.29 979.487 Q1227.82 979.487 1224.57 976.431 Q1221.36 973.344 1221.36 968.188 Q1221.36 962.172 1225.37 959.117 Q1229.41 956.061 1237.4 956.061 L1245.61 956.061 L1245.61 955.488 Q1245.61 951.446 1242.94 949.25 Q1240.3 947.022 1235.49 947.022 Q1232.43 947.022 1229.54 947.754 Q1226.64 948.486 1223.97 949.95 L1223.97 944.539 Q1227.18 943.298 1230.21 942.693 Q1233.23 942.057 1236.09 942.057 Q1243.83 942.057 1247.65 946.067 Q1251.47 950.077 1251.47 958.225 Z" fill="#000000" fill-rule="evenodd" fill-opacity="1" /><path clip-path="url(#clip290)" d="M 0 0 M1281.07 948.327 L1281.07 929.039 L1286.92 929.039 L1286.92 978.564 L1281.07 978.564 L1281.07 973.217 Q1279.22 976.4 1276.39 977.959 Q1273.59 979.487 1269.64 979.487 Q1263.18 979.487 1259.11 974.331 Q1255.06 969.174 1255.06 960.772 Q1255.06 952.369 1259.11 947.213 Q1263.18 942.057 1269.64 942.057 Q1273.59 942.057 1276.39 943.616 Q1279.22 945.144 1281.07 948.327 M1261.11 960.772 Q1261.11 967.233 1263.75 970.925 Q1266.43 974.585 1271.07 974.585 Q1275.72 974.585 1278.39 970.925 Q1281.07 967.233 1281.07 960.772 Q1281.07 954.311 1278.39 950.65 Q1275.72 946.958 1271.07 946.958 Q1266.43 946.958 1263.75 950.65 Q1261.11 954.311 1261.11 960.772 Z" fill="#000000" fill-rule="evenodd" fill-opacity="1" /><path clip-path="url(#clip290)" d="M 0 0 M1315.79 943.966 L1315.79 949.504 Q1313.31 948.231 1310.64 947.595 Q1307.96 946.958 1305.1 946.958 Q1300.74 946.958 1298.54 948.295 Q1296.38 949.632 1296.38 952.305 Q1296.38 954.342 1297.94 955.52 Q1299.5 956.666 1304.21 957.716 L1306.21 958.162 Q1312.45 959.499 1315.06 961.949 Q1317.7 964.368 1317.7 968.729 Q1317.7 973.694 1313.76 976.59 Q1309.84 979.487 1302.97 979.487 Q1300.1 979.487 1296.98 978.914 Q1293.9 978.373 1290.46 977.259 L1290.46 971.211 Q1293.7 972.898 1296.86 973.758 Q1300.01 974.585 1303.09 974.585 Q1307.23 974.585 1309.46 973.185 Q1311.69 971.753 1311.69 969.174 Q1311.69 966.787 1310.06 965.514 Q1308.47 964.241 1303.03 963.063 L1300.99 962.586 Q1295.55 961.44 1293.13 959.085 Q1290.71 956.698 1290.71 952.56 Q1290.71 947.531 1294.28 944.794 Q1297.84 942.057 1304.4 942.057 Q1307.65 942.057 1310.51 942.534 Q1313.37 943.011 1315.79 943.966 Z" fill="#000000" fill-rule="evenodd" fill-opacity="1" /><polyline clip-path="url(#clip292)" style="stroke:#0000ff; stroke-width:8; stroke-opacity:1; fill:none" points="
  597.278,826.987 601.947,826.986 606.616,826.983 611.285,826.976 615.954,826.962 620.623,826.937 625.292,826.894 629.961,826.82 634.63,826.705 639.299,826.534 
  643.968,826.294 648.637,825.976 653.306,825.58 657.975,825.116 662.645,824.607 667.314,824.084 671.983,823.583 676.652,823.137 681.321,822.771 685.99,822.498 
  690.659,822.318 695.328,822.227 699.997,822.221 704.666,822.295 709.335,822.453 714.004,822.697 718.673,823.021 723.342,823.407 728.011,823.822 732.68,824.214 
  737.349,824.515 742.018,824.654 746.687,824.558 751.356,824.165 756.025,823.432 760.694,822.348 765.363,820.939 770.032,819.274 774.701,817.46 779.37,815.619 
  784.039,813.86 788.708,812.245 793.377,810.757 798.046,809.282 802.715,807.621 807.384,805.522 812.053,802.735 816.722,799.07 821.391,794.442 826.06,788.892 
  830.729,782.57 835.398,775.69 840.067,768.471 844.736,761.083 849.405,753.614 854.074,746.063 858.743,738.374 863.412,730.472 868.081,722.306 872.75,713.866 
  877.42,705.179 882.089,696.275 886.758,687.153 891.427,677.747 896.096,667.917 900.765,657.468 905.434,646.189 910.103,633.9 914.772,620.499 919.441,605.987 
  924.11,590.47 928.779,574.136 933.448,557.215 938.117,539.934 942.786,522.471 947.455,504.932 952.124,487.351 956.793,469.702 961.462,451.935 966.131,434.002 
  970.8,415.873 975.469,397.528 980.138,378.937 984.807,360.037 989.476,340.728 994.145,320.881 998.814,300.381 1003.48,279.162 1008.15,257.257 1012.82,234.829 
  1017.49,212.192 1022.16,189.826 1026.83,168.362 1031.5,148.547 1036.17,131.165 1040.84,116.932 1045.5,106.368 1050.17,99.6897 1054.84,96.7589 1059.51,97.1084 
  1064.18,100.045 1068.85,104.8 1073.52,110.696 1078.19,117.255 1082.86,124.254 1087.53,131.689 1092.19,139.695 1096.86,148.443 1101.53,158.071 1106.2,168.66 
  1110.87,180.256 1115.54,192.931 1120.21,206.818 1124.88,222.118 1129.55,239.048 1134.22,257.754 1138.88,278.22 1143.55,300.21 1148.22,323.28 1152.89,346.847 
  1157.56,370.311 1162.23,393.17 1166.9,415.102 1171.57,435.974 1176.24,455.802 1180.91,474.679 1185.57,492.707 1190.24,509.965 1194.91,526.514 1199.58,542.429 
  1204.25,557.824 1208.92,572.863 1213.59,587.74 1218.26,602.633 1222.93,617.663 1227.6,632.858 1232.27,648.142 1236.93,663.349 1241.6,678.248 1246.27,692.586 
  1250.94,706.12 1255.61,718.656 1260.28,730.063 1264.95,740.284 1269.62,749.331 1274.29,757.276 1278.96,764.234 1283.62,770.35 1288.29,775.786 1292.96,780.7 
  1297.63,785.233 1302.3,789.487 1306.97,793.517 1311.64,797.327 1316.31,800.879 1320.98,804.118 1325.65,806.993 1330.31,809.486 1334.98,811.617 1339.65,813.444 
  1344.32,815.048 1348.99,816.508 1353.66,817.881 1358.33,819.193 1363,820.429 1367.67,821.551 1372.34,822.505 1377,823.241 1381.67,823.726 1386.34,823.955 
  1391.01,823.948 1395.68,823.75 1400.35,823.423 1405.02,823.031 1409.69,822.635 1414.36,822.286 1419.03,822.019 1423.7,821.858 1428.36,821.816 1433.03,821.899 
  1437.7,822.107 1442.37,822.435 1447.04,822.866 1451.71,823.379 1456.38,823.94 1461.05,824.511 1465.72,825.056 1470.39,825.544 1475.05,825.956 1479.72,826.283 
  1484.39,826.529 1489.06,826.703 1493.73,826.819 1498.4,826.893 1503.07,826.937 1507.74,826.962 1512.41,826.976 1517.08,826.983 1521.74,826.986 1526.41,826.987 
  
  "/>
<path clip-path="url(#clip292)" d="
M108.177 826.989 L126.809 826.989 L145.441 826.989 L164.074 826.989 L182.706 826.989 L201.338 826.989 L219.97 826.989 L238.602 826.989 L257.234 826.989 L275.866 826.989 
  L294.498 826.989 L313.13 826.989 L331.762 826.989 L350.395 826.989 L369.027 826.989 L387.659 826.989 L406.291 826.989 L424.923 826.989 L443.555 826.989 L462.187 826.989 
  L480.819 826.989 L499.451 826.989 L518.084 826.989 L536.716 826.989 L555.348 826.989 L573.98 826.989 L592.612 826.989 L611.244 826.988 L629.876 826.986 L648.508 826.979 
  L667.14 826.96 L685.773 826.91 L704.405 826.787 L723.037 826.503 L741.669 825.886 L760.301 824.623 L778.933 822.181 L797.565 817.717 L816.197 809.988 L834.829 797.306 
  L853.462 777.569 L872.094 748.431 L890.726 707.633 L909.358 653.5 L927.99 585.535 L946.622 505.002 L965.254 415.332 L983.886 322.17 L1002.52 232.971 L1021.15 156.112 
  L1039.78 99.6467 L1058.41 69.9551 L1077.05 70.578 L1095.68 101.538 L1114.31 159.317 L1132.94 237.501 L1151.58 327.932 L1170.21 422.091 L1188.84 512.382 L1207.47 593.067 
  L1226.1 660.704 L1244.74 714.1 L1263.37 753.885 L1282 781.895 L1300.63 800.534 L1319.26 812.253 L1337.9 819.211 L1356.53 823.108 L1375.16 825.162 L1393.79 826.18 
  L1412.42 826.653 L1431.06 826.859 L1449.69 826.942 L1468.32 826.973 L1486.95 826.984 L1505.59 826.987 L1524.22 826.988 L1542.85 826.989 L1561.48 826.989 L1580.11 826.989 
  L1598.75 826.989 L1617.38 826.989 L1636.01 826.989 L1654.64 826.989 L1673.27 826.989 L1691.91 826.989 L1710.54 826.989 L1729.17 826.989 L1747.8 826.989 L1766.43 826.989 
  L1785.07 826.989 L1803.7 826.989 L1822.33 826.989 L1840.96 826.989 L1859.6 826.989 L1878.23 826.989 L1896.86 826.989 L1915.49 826.989 L1934.12 826.989 L1952.76 826.989 
  L1952.76 826.989 L1934.12 826.989 L1915.49 826.989 L1896.86 826.989 L1878.23 826.989 L1859.6 826.989 L1840.96 826.989 L1822.33 826.989 L1803.7 826.989 L1785.07 826.989 
  L1766.43 826.989 L1747.8 826.989 L1729.17 826.989 L1710.54 826.989 L1691.91 826.989 L1673.27 826.989 L1654.64 826.989 L1636.01 826.989 L1617.38 826.989 L1598.75 826.989 
  L1580.11 826.989 L1561.48 826.989 L1542.85 826.989 L1524.22 826.989 L1505.59 826.989 L1486.95 826.989 L1468.32 826.989 L1449.69 826.989 L1431.06 826.989 L1412.42 826.989 
  L1393.79 826.989 L1375.16 826.989 L1356.53 826.989 L1337.9 826.989 L1319.26 826.989 L1300.63 826.989 L1282 826.989 L1263.37 826.989 L1244.74 826.989 L1226.1 826.989 
  L1207.47 826.989 L1188.84 826.989 L1170.21 826.989 L1151.58 826.989 L1132.94 826.989 L1114.31 826.989 L1095.68 826.989 L1077.05 826.989 L1058.41 826.989 L1039.78 826.989 
  L1021.15 826.989 L1002.52 826.989 L983.886 826.989 L965.254 826.989 L946.622 826.989 L927.99 826.989 L909.358 826.989 L890.726 826.989 L872.094 826.989 L853.462 826.989 
  L834.829 826.989 L816.197 826.989 L797.565 826.989 L778.933 826.989 L760.301 826.989 L741.669 826.989 L723.037 826.989 L704.405 826.989 L685.773 826.989 L667.14 826.989 
  L648.508 826.989 L629.876 826.989 L611.244 826.989 L592.612 826.989 L573.98 826.989 L555.348 826.989 L536.716 826.989 L518.084 826.989 L499.451 826.989 L480.819 826.989 
  L462.187 826.989 L443.555 826.989 L424.923 826.989 L406.291 826.989 L387.659 826.989 L369.027 826.989 L350.395 826.989 L331.762 826.989 L313.13 826.989 L294.498 826.989 
  L275.866 826.989 L257.234 826.989 L238.602 826.989 L219.97 826.989 L201.338 826.989 L182.706 826.989 L164.074 826.989 L145.441 826.989 L126.809 826.989 L108.177 826.989 
   Z
  " fill="#90ee90" fill-rule="evenodd" fill-opacity="0.3"/>
<polyline clip-path="url(#clip292)" style="stroke:#90ee90; stroke-width:12; stroke-opacity:0.3; fill:none" points="
  108.177,826.989 126.809,826.989 145.441,826.989 164.074,826.989 182.706,826.989 201.338,826.989 219.97,826.989 238.602,826.989 257.234,826.989 275.866,826.989 
  294.498,826.989 313.13,826.989 331.762,826.989 350.395,826.989 369.027,826.989 387.659,826.989 406.291,826.989 424.923,826.989 443.555,826.989 462.187,826.989 
  480.819,826.989 499.451,826.989 518.084,826.989 536.716,826.989 555.348,826.989 573.98,826.989 592.612,826.989 611.244,826.988 629.876,826.986 648.508,826.979 
  667.14,826.96 685.773,826.91 704.405,826.787 723.037,826.503 741.669,825.886 760.301,824.623 778.933,822.181 797.565,817.717 816.197,809.988 834.829,797.306 
  853.462,777.569 872.094,748.431 890.726,707.633 909.358,653.5 927.99,585.535 946.622,505.002 965.254,415.332 983.886,322.17 1002.52,232.971 1021.15,156.112 
  1039.78,99.6467 1058.41,69.9551 1077.05,70.578 1095.68,101.538 1114.31,159.317 1132.94,237.501 1151.58,327.932 1170.21,422.091 1188.84,512.382 1207.47,593.067 
  1226.1,660.704 1244.74,714.1 1263.37,753.885 1282,781.895 1300.63,800.534 1319.26,812.253 1337.9,819.211 1356.53,823.108 1375.16,825.162 1393.79,826.18 
  1412.42,826.653 1431.06,826.859 1449.69,826.942 1468.32,826.973 1486.95,826.984 1505.59,826.987 1524.22,826.988 1542.85,826.989 1561.48,826.989 1580.11,826.989 
  1598.75,826.989 1617.38,826.989 1636.01,826.989 1654.64,826.989 1673.27,826.989 1691.91,826.989 1710.54,826.989 1729.17,826.989 1747.8,826.989 1766.43,826.989 
  1785.07,826.989 1803.7,826.989 1822.33,826.989 1840.96,826.989 1859.6,826.989 1878.23,826.989 1896.86,826.989 1915.49,826.989 1934.12,826.989 1952.76,826.989 
  
  "/>
<polyline clip-path="url(#clip292)" style="stroke:#ff0000; stroke-width:4; stroke-opacity:1; fill:none" points="
  1030.47,1652.16 1030.47,-755.212 
  "/>
<path clip-path="url(#clip290)" d="
M1361.16 348.684 L1892.76 348.684 L1892.76 106.764 L1361.16 106.764  Z
  " fill="#ffffff" fill-rule="evenodd" fill-opacity="1"/>
<polyline clip-path="url(#clip290)" style="stroke:#000000; stroke-width:4; stroke-opacity:1; fill:none" points="
  1361.16,348.684 1892.76,348.684 1892.76,106.764 1361.16,106.764 1361.16,348.684 
  "/>
<polyline clip-path="url(#clip290)" style="stroke:#0000ff; stroke-width:4; stroke-opacity:1; fill:none" points="
  1381.16,167.244 1501.16,167.244 
  "/>
<path clip-path="url(#clip290)" d="M 0 0 M1521.16 148.506 L1530.98 148.506 L1530.98 151.816 L1525.42 151.816 L1525.42 187.464 L1530.98 187.464 L1530.98 190.774 L1521.16 190.774 L1521.16 148.506 Z" fill="#000000" fill-rule="evenodd" fill-opacity="1" /><path clip-path="url(#clip290)" d="M 0 0 M1539.47 149.964 L1539.47 162.811 L1535.54 162.811 L1535.54 149.964 L1539.47 149.964 M1548.22 149.964 L1548.22 162.811 L1544.29 162.811 L1544.29 149.964 L1548.22 149.964 Z" fill="#000000" fill-rule="evenodd" fill-opacity="1" /><path clip-path="url(#clip290)" d="M 0 0 M1578.75 152.626 L1578.75 157.557 Q1576.39 155.358 1573.71 154.27 Q1571.04 153.182 1568.04 153.182 Q1562.11 153.182 1558.96 156.816 Q1555.81 160.427 1555.81 167.279 Q1555.81 174.107 1558.96 177.742 Q1562.11 181.353 1568.04 181.353 Q1571.04 181.353 1573.71 180.265 Q1576.39 179.177 1578.75 176.978 L1578.75 181.862 Q1576.3 183.529 1573.54 184.362 Q1570.81 185.195 1567.76 185.195 Q1559.91 185.195 1555.4 180.404 Q1550.88 175.589 1550.88 167.279 Q1550.88 158.946 1555.4 154.154 Q1559.91 149.339 1567.76 149.339 Q1570.86 149.339 1573.59 150.172 Q1576.35 150.983 1578.75 152.626 Z" fill="#000000" fill-rule="evenodd" fill-opacity="1" /><path clip-path="url(#clip290)" d="M 0 0 M1604.77 168.876 L1604.77 184.524 L1600.51 184.524 L1600.51 169.015 Q1600.51 165.334 1599.08 163.506 Q1597.64 161.677 1594.77 161.677 Q1591.32 161.677 1589.33 163.876 Q1587.34 166.075 1587.34 169.871 L1587.34 184.524 L1583.06 184.524 L1583.06 148.506 L1587.34 148.506 L1587.34 162.626 Q1588.87 160.288 1590.93 159.131 Q1593.01 157.973 1595.72 157.973 Q1600.19 157.973 1602.48 160.751 Q1604.77 163.506 1604.77 168.876 Z" fill="#000000" fill-rule="evenodd" fill-opacity="1" /><path clip-path="url(#clip290)" d="M 0 0 M1621.02 171.492 Q1615.86 171.492 1613.87 172.672 Q1611.88 173.853 1611.88 176.7 Q1611.88 178.969 1613.36 180.311 Q1614.86 181.631 1617.43 181.631 Q1620.97 181.631 1623.1 179.131 Q1625.26 176.607 1625.26 172.441 L1625.26 171.492 L1621.02 171.492 M1629.52 169.733 L1629.52 184.524 L1625.26 184.524 L1625.26 180.589 Q1623.8 182.95 1621.62 184.084 Q1619.45 185.195 1616.3 185.195 Q1612.32 185.195 1609.96 182.973 Q1607.62 180.728 1607.62 176.978 Q1607.62 172.603 1610.53 170.381 Q1613.47 168.158 1619.28 168.158 L1625.26 168.158 L1625.26 167.742 Q1625.26 164.802 1623.31 163.205 Q1621.39 161.584 1617.9 161.584 Q1615.67 161.584 1613.57 162.117 Q1611.46 162.649 1609.52 163.714 L1609.52 159.779 Q1611.85 158.876 1614.05 158.436 Q1616.25 157.973 1618.34 157.973 Q1623.96 157.973 1626.74 160.89 Q1629.52 163.807 1629.52 169.733 Z" fill="#000000" fill-rule="evenodd" fill-opacity="1" /><path clip-path="url(#clip290)" d="M 0 0 M1633.98 158.598 L1638.24 158.598 L1638.24 184.524 L1633.98 184.524 L1633.98 158.598 M1633.98 148.506 L1638.24 148.506 L1638.24 153.899 L1633.98 153.899 L1633.98 148.506 Z" fill="#000000" fill-rule="evenodd" fill-opacity="1" /><path clip-path="url(#clip290)" d="M 0 0 M1664.26 168.876 L1664.26 184.524 L1660 184.524 L1660 169.015 Q1660 165.334 1658.57 163.506 Q1657.13 161.677 1654.26 161.677 Q1650.81 161.677 1648.82 163.876 Q1646.83 166.075 1646.83 169.871 L1646.83 184.524 L1642.55 184.524 L1642.55 158.598 L1646.83 158.598 L1646.83 162.626 Q1648.36 160.288 1650.42 159.131 Q1652.5 157.973 1655.21 157.973 Q1659.68 157.973 1661.97 160.751 Q1664.26 163.506 1664.26 168.876 Z" fill="#000000" fill-rule="evenodd" fill-opacity="1" /><path clip-path="url(#clip290)" d="M 0 0 M1685.21 180.589 L1692.85 180.589 L1692.85 154.223 L1684.54 155.89 L1684.54 151.631 L1692.8 149.964 L1697.48 149.964 L1697.48 180.589 L1705.12 180.589 L1705.12 184.524 L1685.21 184.524 L1685.21 180.589 Z" fill="#000000" fill-rule="evenodd" fill-opacity="1" /><path clip-path="url(#clip290)" d="M 0 0 M1713.61 149.964 L1713.61 162.811 L1709.68 162.811 L1709.68 149.964 L1713.61 149.964 M1722.36 149.964 L1722.36 162.811 L1718.43 162.811 L1718.43 149.964 L1722.36 149.964 Z" fill="#000000" fill-rule="evenodd" fill-opacity="1" /><path clip-path="url(#clip290)" d="M 0 0 M1736.78 148.506 L1736.78 190.774 L1726.97 190.774 L1726.97 187.464 L1732.5 187.464 L1732.5 151.816 L1726.97 151.816 L1726.97 148.506 L1736.78 148.506 Z" fill="#000000" fill-rule="evenodd" fill-opacity="1" /><path clip-path="url(#clip290)" d="
M1381.16 251.916 L1501.16 251.916 L1501.16 203.532 L1381.16 203.532 L1381.16 251.916  Z
  " fill="#90ee90" fill-rule="evenodd" fill-opacity="0.3"/>
<polyline clip-path="url(#clip290)" style="stroke:#90ee90; stroke-width:12; stroke-opacity:0.3; fill:none" points="
  1381.16,203.532 1501.16,203.532 
  "/>
<path clip-path="url(#clip290)" d="M 0 0 M1549.03 213.106 L1549.03 218.037 Q1546.67 215.838 1543.98 214.75 Q1541.32 213.662 1538.31 213.662 Q1532.39 213.662 1529.24 217.296 Q1526.09 220.907 1526.09 227.759 Q1526.09 234.587 1529.24 238.222 Q1532.39 241.833 1538.31 241.833 Q1541.32 241.833 1543.98 240.745 Q1546.67 239.657 1549.03 237.458 L1549.03 242.342 Q1546.58 244.009 1543.82 244.842 Q1541.09 245.675 1538.04 245.675 Q1530.19 245.675 1525.67 240.884 Q1521.16 236.069 1521.16 227.759 Q1521.16 219.426 1525.67 214.634 Q1530.19 209.819 1538.04 209.819 Q1541.14 209.819 1543.87 210.652 Q1546.62 211.463 1549.03 213.106 Z" fill="#000000" fill-rule="evenodd" fill-opacity="1" /><path clip-path="url(#clip290)" d="M 0 0 M1553.5 208.986 L1557.76 208.986 L1557.76 245.004 L1553.5 245.004 L1553.5 208.986 Z" fill="#000000" fill-rule="evenodd" fill-opacity="1" /><path clip-path="url(#clip290)" d="M 0 0 M1572.27 222.064 Q1568.85 222.064 1566.85 224.75 Q1564.86 227.412 1564.86 232.064 Q1564.86 236.717 1566.83 239.402 Q1568.82 242.064 1572.27 242.064 Q1575.67 242.064 1577.66 239.379 Q1579.66 236.694 1579.66 232.064 Q1579.66 227.458 1577.66 224.773 Q1575.67 222.064 1572.27 222.064 M1572.27 218.453 Q1577.83 218.453 1581 222.064 Q1584.17 225.675 1584.17 232.064 Q1584.17 238.43 1581 242.064 Q1577.83 245.675 1572.27 245.675 Q1566.69 245.675 1563.52 242.064 Q1560.37 238.43 1560.37 232.064 Q1560.37 225.675 1563.52 222.064 Q1566.69 218.453 1572.27 218.453 Z" fill="#000000" fill-rule="evenodd" fill-opacity="1" /><path clip-path="url(#clip290)" d="M 0 0 M1605.16 219.842 L1605.16 223.87 Q1603.36 222.944 1601.41 222.481 Q1599.47 222.018 1597.39 222.018 Q1594.22 222.018 1592.62 222.99 Q1591.04 223.963 1591.04 225.907 Q1591.04 227.388 1592.18 228.245 Q1593.31 229.078 1596.74 229.842 L1598.2 230.166 Q1602.73 231.138 1604.63 232.921 Q1606.55 234.68 1606.55 237.851 Q1606.55 241.462 1603.68 243.569 Q1600.84 245.675 1595.84 245.675 Q1593.75 245.675 1591.48 245.259 Q1589.24 244.865 1586.74 244.055 L1586.74 239.657 Q1589.1 240.884 1591.39 241.509 Q1593.68 242.111 1595.93 242.111 Q1598.94 242.111 1600.56 241.092 Q1602.18 240.05 1602.18 238.175 Q1602.18 236.439 1601 235.513 Q1599.84 234.587 1595.88 233.731 L1594.4 233.384 Q1590.44 232.55 1588.68 230.838 Q1586.92 229.101 1586.92 226.092 Q1586.92 222.435 1589.52 220.444 Q1592.11 218.453 1596.88 218.453 Q1599.24 218.453 1601.32 218.801 Q1603.41 219.148 1605.16 219.842 Z" fill="#000000" fill-rule="evenodd" fill-opacity="1" /><path clip-path="url(#clip290)" d="M 0 0 M1633.2 230.976 L1633.2 233.06 L1613.61 233.06 Q1613.89 237.458 1616.25 239.773 Q1618.64 242.064 1622.87 242.064 Q1625.33 242.064 1627.62 241.462 Q1629.93 240.861 1632.2 239.657 L1632.2 243.685 Q1629.91 244.657 1627.5 245.166 Q1625.1 245.675 1622.62 245.675 Q1616.41 245.675 1612.78 242.064 Q1609.17 238.453 1609.17 232.296 Q1609.17 225.93 1612.6 222.203 Q1616.04 218.453 1621.88 218.453 Q1627.11 218.453 1630.14 221.833 Q1633.2 225.189 1633.2 230.976 M1628.94 229.726 Q1628.89 226.231 1626.97 224.148 Q1625.07 222.064 1621.92 222.064 Q1618.36 222.064 1616.21 224.078 Q1614.08 226.092 1613.75 229.75 L1628.94 229.726 Z" fill="#000000" fill-rule="evenodd" fill-opacity="1" /><path clip-path="url(#clip290)" d="M 0 0 M1654.72 223.013 L1654.72 208.986 L1658.98 208.986 L1658.98 245.004 L1654.72 245.004 L1654.72 241.115 Q1653.38 243.43 1651.32 244.564 Q1649.28 245.675 1646.41 245.675 Q1641.72 245.675 1638.75 241.925 Q1635.81 238.175 1635.81 232.064 Q1635.81 225.953 1638.75 222.203 Q1641.72 218.453 1646.41 218.453 Q1649.28 218.453 1651.32 219.588 Q1653.38 220.699 1654.72 223.013 M1640.21 232.064 Q1640.21 236.763 1642.13 239.449 Q1644.08 242.111 1647.46 242.111 Q1650.84 242.111 1652.78 239.449 Q1654.72 236.763 1654.72 232.064 Q1654.72 227.365 1652.78 224.703 Q1650.84 222.018 1647.46 222.018 Q1644.08 222.018 1642.13 224.703 Q1640.21 227.365 1640.21 232.064 Z" fill="#000000" fill-rule="evenodd" fill-opacity="1" /><path clip-path="url(#clip290)" d="M 0 0 M1661.3 230.12 L1673.78 230.12 L1673.78 233.916 L1661.3 233.916 L1661.3 230.12 Z" fill="#000000" fill-rule="evenodd" fill-opacity="1" /><path clip-path="url(#clip290)" d="M 0 0 M1691.37 208.986 L1691.37 212.527 L1687.29 212.527 Q1685 212.527 1684.1 213.453 Q1683.22 214.379 1683.22 216.787 L1683.22 219.078 L1690.23 219.078 L1690.23 222.388 L1683.22 222.388 L1683.22 245.004 L1678.94 245.004 L1678.94 222.388 L1674.86 222.388 L1674.86 219.078 L1678.94 219.078 L1678.94 217.273 Q1678.94 212.944 1680.95 210.976 Q1682.97 208.986 1687.34 208.986 L1691.37 208.986 Z" fill="#000000" fill-rule="evenodd" fill-opacity="1" /><path clip-path="url(#clip290)" d="M 0 0 M1705.88 222.064 Q1702.46 222.064 1700.47 224.75 Q1698.47 227.412 1698.47 232.064 Q1698.47 236.717 1700.44 239.402 Q1702.43 242.064 1705.88 242.064 Q1709.28 242.064 1711.28 239.379 Q1713.27 236.694 1713.27 232.064 Q1713.27 227.458 1711.28 224.773 Q1709.28 222.064 1705.88 222.064 M1705.88 218.453 Q1711.44 218.453 1714.61 222.064 Q1717.78 225.675 1717.78 232.064 Q1717.78 238.43 1714.61 242.064 Q1711.44 245.675 1705.88 245.675 Q1700.3 245.675 1697.13 242.064 Q1693.98 238.43 1693.98 232.064 Q1693.98 225.675 1697.13 222.064 Q1700.3 218.453 1705.88 218.453 Z" fill="#000000" fill-rule="evenodd" fill-opacity="1" /><path clip-path="url(#clip290)" d="M 0 0 M1737.27 223.06 Q1736.55 222.643 1735.7 222.458 Q1734.86 222.25 1733.84 222.25 Q1730.23 222.25 1728.29 224.611 Q1726.37 226.949 1726.37 231.347 L1726.37 245.004 L1722.09 245.004 L1722.09 219.078 L1726.37 219.078 L1726.37 223.106 Q1727.71 220.745 1729.86 219.611 Q1732.02 218.453 1735.09 218.453 Q1735.53 218.453 1736.07 218.523 Q1736.6 218.569 1737.25 218.685 L1737.27 223.06 Z" fill="#000000" fill-rule="evenodd" fill-opacity="1" /><path clip-path="url(#clip290)" d="M 0 0 M1761.09 224.055 Q1762.69 221.185 1764.91 219.819 Q1767.13 218.453 1770.14 218.453 Q1774.19 218.453 1776.39 221.301 Q1778.59 224.125 1778.59 229.356 L1778.59 245.004 L1774.31 245.004 L1774.31 229.495 Q1774.31 225.768 1772.99 223.963 Q1771.67 222.157 1768.96 222.157 Q1765.65 222.157 1763.73 224.356 Q1761.81 226.555 1761.81 230.351 L1761.81 245.004 L1757.52 245.004 L1757.52 229.495 Q1757.52 225.745 1756.21 223.963 Q1754.89 222.157 1752.13 222.157 Q1748.87 222.157 1746.95 224.379 Q1745.03 226.578 1745.03 230.351 L1745.03 245.004 L1740.74 245.004 L1740.74 219.078 L1745.03 219.078 L1745.03 223.106 Q1746.48 220.722 1748.52 219.588 Q1750.56 218.453 1753.36 218.453 Q1756.18 218.453 1758.15 219.888 Q1760.14 221.324 1761.09 224.055 Z" fill="#000000" fill-rule="evenodd" fill-opacity="1" /><polyline clip-path="url(#clip290)" style="stroke:#ff0000; stroke-width:4; stroke-opacity:1; fill:none" points="
  1381.16,288.204 1501.16,288.204 
  "/>
<path clip-path="url(#clip290)" d="M 0 0 M1521.16 270.924 L1550.4 270.924 L1550.4 274.859 L1538.13 274.859 L1538.13 305.484 L1533.43 305.484 L1533.43 274.859 L1521.16 274.859 L1521.16 270.924 Z" fill="#000000" fill-rule="evenodd" fill-opacity="1" /><path clip-path="url(#clip290)" d="M 0 0 M1562.92 283.54 Q1562.2 283.123 1561.35 282.938 Q1560.51 282.73 1559.49 282.73 Q1555.88 282.73 1553.94 285.091 Q1552.02 287.429 1552.02 291.827 L1552.02 305.484 L1547.73 305.484 L1547.73 279.558 L1552.02 279.558 L1552.02 283.586 Q1553.36 281.225 1555.51 280.091 Q1557.66 278.933 1560.74 278.933 Q1561.18 278.933 1561.72 279.003 Q1562.25 279.049 1562.9 279.165 L1562.92 283.54 Z" fill="#000000" fill-rule="evenodd" fill-opacity="1" /><path clip-path="url(#clip290)" d="M 0 0 M1566.95 295.253 L1566.95 279.558 L1571.21 279.558 L1571.21 295.091 Q1571.21 298.771 1572.64 300.623 Q1574.08 302.452 1576.95 302.452 Q1580.4 302.452 1582.39 300.253 Q1584.4 298.054 1584.4 294.257 L1584.4 279.558 L1588.66 279.558 L1588.66 305.484 L1584.4 305.484 L1584.4 301.503 Q1582.85 303.864 1580.79 305.021 Q1578.75 306.155 1576.04 306.155 Q1571.58 306.155 1569.26 303.378 Q1566.95 300.6 1566.95 295.253 M1577.66 278.933 L1577.66 278.933 Z" fill="#000000" fill-rule="evenodd" fill-opacity="1" /><path clip-path="url(#clip290)" d="M 0 0 M1615.3 291.456 L1615.3 293.54 L1595.72 293.54 Q1596 297.938 1598.36 300.253 Q1600.74 302.544 1604.98 302.544 Q1607.43 302.544 1609.72 301.942 Q1612.04 301.341 1614.31 300.137 L1614.31 304.165 Q1612.02 305.137 1609.61 305.646 Q1607.2 306.155 1604.72 306.155 Q1598.52 306.155 1594.89 302.544 Q1591.28 298.933 1591.28 292.776 Q1591.28 286.41 1594.7 282.683 Q1598.15 278.933 1603.98 278.933 Q1609.22 278.933 1612.25 282.313 Q1615.3 285.669 1615.3 291.456 M1611.04 290.206 Q1611 286.711 1609.08 284.628 Q1607.18 282.544 1604.03 282.544 Q1600.47 282.544 1598.31 284.558 Q1596.18 286.572 1595.86 290.23 L1611.04 290.206 Z" fill="#000000" fill-rule="evenodd" fill-opacity="1" /><path clip-path="url(#clip290)" d="M 0 0 M1638.96 301.595 L1638.96 315.345 L1634.68 315.345 L1634.68 279.558 L1638.96 279.558 L1638.96 283.493 Q1640.3 281.179 1642.34 280.068 Q1644.4 278.933 1647.25 278.933 Q1651.97 278.933 1654.91 282.683 Q1657.87 286.433 1657.87 292.544 Q1657.87 298.655 1654.91 302.405 Q1651.97 306.155 1647.25 306.155 Q1644.4 306.155 1642.34 305.044 Q1640.3 303.91 1638.96 301.595 M1653.45 292.544 Q1653.45 287.845 1651.51 285.183 Q1649.59 282.498 1646.21 282.498 Q1642.83 282.498 1640.88 285.183 Q1638.96 287.845 1638.96 292.544 Q1638.96 297.243 1640.88 299.929 Q1642.83 302.591 1646.21 302.591 Q1649.59 302.591 1651.51 299.929 Q1653.45 297.243 1653.45 292.544 Z" fill="#000000" fill-rule="evenodd" fill-opacity="1" /><path clip-path="url(#clip290)" d="M 0 0 M1677.36 283.54 Q1676.65 283.123 1675.79 282.938 Q1674.96 282.73 1673.94 282.73 Q1670.33 282.73 1668.38 285.091 Q1666.46 287.429 1666.46 291.827 L1666.46 305.484 L1662.18 305.484 L1662.18 279.558 L1666.46 279.558 L1666.46 283.586 Q1667.8 281.225 1669.96 280.091 Q1672.11 278.933 1675.19 278.933 Q1675.63 278.933 1676.16 279.003 Q1676.69 279.049 1677.34 279.165 L1677.36 283.54 Z" fill="#000000" fill-rule="evenodd" fill-opacity="1" /><path clip-path="url(#clip290)" d="M 0 0 M1690.84 282.544 Q1687.41 282.544 1685.42 285.23 Q1683.43 287.892 1683.43 292.544 Q1683.43 297.197 1685.4 299.882 Q1687.39 302.544 1690.84 302.544 Q1694.24 302.544 1696.23 299.859 Q1698.22 297.174 1698.22 292.544 Q1698.22 287.938 1696.23 285.253 Q1694.24 282.544 1690.84 282.544 M1690.84 278.933 Q1696.39 278.933 1699.56 282.544 Q1702.73 286.155 1702.73 292.544 Q1702.73 298.91 1699.56 302.544 Q1696.39 306.155 1690.84 306.155 Q1685.26 306.155 1682.09 302.544 Q1678.94 298.91 1678.94 292.544 Q1678.94 286.155 1682.09 282.544 Q1685.26 278.933 1690.84 278.933 Z" fill="#000000" fill-rule="evenodd" fill-opacity="1" /><path clip-path="url(#clip290)" d="M 0 0 M1725.81 292.544 Q1725.81 287.845 1723.87 285.183 Q1721.95 282.498 1718.57 282.498 Q1715.19 282.498 1713.24 285.183 Q1711.32 287.845 1711.32 292.544 Q1711.32 297.243 1713.24 299.929 Q1715.19 302.591 1718.57 302.591 Q1721.95 302.591 1723.87 299.929 Q1725.81 297.243 1725.81 292.544 M1711.32 283.493 Q1712.66 281.179 1714.7 280.068 Q1716.76 278.933 1719.61 278.933 Q1724.33 278.933 1727.27 282.683 Q1730.23 286.433 1730.23 292.544 Q1730.23 298.655 1727.27 302.405 Q1724.33 306.155 1719.61 306.155 Q1716.76 306.155 1714.7 305.044 Q1712.66 303.91 1711.32 301.595 L1711.32 305.484 L1707.04 305.484 L1707.04 269.466 L1711.32 269.466 L1711.32 283.493 Z" fill="#000000" fill-rule="evenodd" fill-opacity="1" /><path clip-path="url(#clip290)" d="M 0 0 M1746.48 292.452 Q1741.32 292.452 1739.33 293.632 Q1737.34 294.813 1737.34 297.66 Q1737.34 299.929 1738.82 301.271 Q1740.33 302.591 1742.9 302.591 Q1746.44 302.591 1748.57 300.091 Q1750.72 297.567 1750.72 293.401 L1750.72 292.452 L1746.48 292.452 M1754.98 290.693 L1754.98 305.484 L1750.72 305.484 L1750.72 301.549 Q1749.26 303.91 1747.09 305.044 Q1744.91 306.155 1741.76 306.155 Q1737.78 306.155 1735.42 303.933 Q1733.08 301.688 1733.08 297.938 Q1733.08 293.563 1736 291.341 Q1738.94 289.118 1744.75 289.118 L1750.72 289.118 L1750.72 288.702 Q1750.72 285.762 1748.77 284.165 Q1746.85 282.544 1743.36 282.544 Q1741.14 282.544 1739.03 283.077 Q1736.92 283.609 1734.98 284.674 L1734.98 280.739 Q1737.32 279.836 1739.52 279.396 Q1741.71 278.933 1743.8 278.933 Q1749.42 278.933 1752.2 281.85 Q1754.98 284.767 1754.98 290.693 Z" fill="#000000" fill-rule="evenodd" fill-opacity="1" /><path clip-path="url(#clip290)" d="M 0 0 M1778.06 292.544 Q1778.06 287.845 1776.11 285.183 Q1774.19 282.498 1770.81 282.498 Q1767.43 282.498 1765.49 285.183 Q1763.57 287.845 1763.57 292.544 Q1763.57 297.243 1765.49 299.929 Q1767.43 302.591 1770.81 302.591 Q1774.19 302.591 1776.11 299.929 Q1778.06 297.243 1778.06 292.544 M1763.57 283.493 Q1764.91 281.179 1766.95 280.068 Q1769.01 278.933 1771.85 278.933 Q1776.58 278.933 1779.52 282.683 Q1782.48 286.433 1782.48 292.544 Q1782.48 298.655 1779.52 302.405 Q1776.58 306.155 1771.85 306.155 Q1769.01 306.155 1766.95 305.044 Q1764.91 303.91 1763.57 301.595 L1763.57 305.484 L1759.28 305.484 L1759.28 269.466 L1763.57 269.466 L1763.57 283.493 Z" fill="#000000" fill-rule="evenodd" fill-opacity="1" /><path clip-path="url(#clip290)" d="M 0 0 M1786.95 279.558 L1791.21 279.558 L1791.21 305.484 L1786.95 305.484 L1786.95 279.558 M1786.95 269.466 L1791.21 269.466 L1791.21 274.859 L1786.95 274.859 L1786.95 269.466 Z" fill="#000000" fill-rule="evenodd" fill-opacity="1" /><path clip-path="url(#clip290)" d="M 0 0 M1795.67 269.466 L1799.93 269.466 L1799.93 305.484 L1795.67 305.484 L1795.67 269.466 Z" fill="#000000" fill-rule="evenodd" fill-opacity="1" /><path clip-path="url(#clip290)" d="M 0 0 M1804.4 279.558 L1808.66 279.558 L1808.66 305.484 L1804.4 305.484 L1804.4 279.558 M1804.4 269.466 L1808.66 269.466 L1808.66 274.859 L1804.4 274.859 L1804.4 269.466 Z" fill="#000000" fill-rule="evenodd" fill-opacity="1" /><path clip-path="url(#clip290)" d="M 0 0 M1817.34 272.197 L1817.34 279.558 L1826.11 279.558 L1826.11 282.868 L1817.34 282.868 L1817.34 296.942 Q1817.34 300.114 1818.2 301.017 Q1819.08 301.919 1821.74 301.919 L1826.11 301.919 L1826.11 305.484 L1821.74 305.484 Q1816.81 305.484 1814.93 303.655 Q1813.06 301.804 1813.06 296.942 L1813.06 282.868 L1809.93 282.868 L1809.93 279.558 L1813.06 279.558 L1813.06 272.197 L1817.34 272.197 Z" fill="#000000" fill-rule="evenodd" fill-opacity="1" /><path clip-path="url(#clip290)" d="M 0 0 M1841.37 307.891 Q1839.56 312.521 1837.85 313.933 Q1836.14 315.345 1833.27 315.345 L1829.86 315.345 L1829.86 311.78 L1832.36 311.78 Q1834.12 311.78 1835.09 310.947 Q1836.07 310.114 1837.25 307.012 L1838.01 305.067 L1827.52 279.558 L1832.04 279.558 L1840.14 299.836 L1848.24 279.558 L1852.76 279.558 L1841.37 307.891 Z" fill="#000000" fill-rule="evenodd" fill-opacity="1" /></svg>
