<?xml version="1.0" encoding="utf-8"?>
<svg xmlns="http://www.w3.org/2000/svg" xmlns:xlink="http://www.w3.org/1999/xlink" width="500" height="250" viewBox="0 0 2000 1000">
<defs>
  <clipPath id="clip3900">
    <rect x="0" y="0" width="2000" height="1000"/>
  </clipPath>
</defs>
<path clip-path="url(#clip3900)" d="
M0 1000 L2000 1000 L2000 0 L0 0  Z
  " fill="#ffffff" fill-rule="evenodd" fill-opacity="1"/>
<defs>
  <clipPath id="clip3901">
    <rect x="400" y="0" width="1401" height="1000"/>
  </clipPath>
</defs>
<path clip-path="url(#clip3900)" d="
M213.608 851.529 L1952.76 851.529 L1952.76 107.004 L213.608 107.004  Z
  " fill="#ffffff" fill-rule="evenodd" fill-opacity="1"/>
<defs>
  <clipPath id="clip3902">
    <rect x="213" y="107" width="1740" height="746"/>
  </clipPath>
</defs>
<polyline clip-path="url(#clip3902)" style="stroke:#000000; stroke-width:2; stroke-opacity:0.1; fill:none" points="
  260.895,851.529 260.895,107.004 
  "/>
<polyline clip-path="url(#clip3902)" style="stroke:#000000; stroke-width:2; stroke-opacity:0.1; fill:none" points="
  502.744,851.529 502.744,107.004 
  "/>
<polyline clip-path="url(#clip3902)" style="stroke:#000000; stroke-width:2; stroke-opacity:0.1; fill:none" points="
  744.593,851.529 744.593,107.004 
  "/>
<polyline clip-path="url(#clip3902)" style="stroke:#000000; stroke-width:2; stroke-opacity:0.1; fill:none" points="
  986.442,851.529 986.442,107.004 
  "/>
<polyline clip-path="url(#clip3902)" style="stroke:#000000; stroke-width:2; stroke-opacity:0.1; fill:none" points="
  1228.29,851.529 1228.29,107.004 
  "/>
<polyline clip-path="url(#clip3902)" style="stroke:#000000; stroke-width:2; stroke-opacity:0.1; fill:none" points="
  1470.14,851.529 1470.14,107.004 
  "/>
<polyline clip-path="url(#clip3902)" style="stroke:#000000; stroke-width:2; stroke-opacity:0.1; fill:none" points="
  1711.99,851.529 1711.99,107.004 
  "/>
<polyline clip-path="url(#clip3902)" style="stroke:#000000; stroke-width:2; stroke-opacity:0.1; fill:none" points="
  213.608,830.457 1952.76,830.457 
  "/>
<polyline clip-path="url(#clip3902)" style="stroke:#000000; stroke-width:2; stroke-opacity:0.1; fill:none" points="
  213.608,621.415 1952.76,621.415 
  "/>
<polyline clip-path="url(#clip3902)" style="stroke:#000000; stroke-width:2; stroke-opacity:0.1; fill:none" points="
  213.608,412.373 1952.76,412.373 
  "/>
<polyline clip-path="url(#clip3902)" style="stroke:#000000; stroke-width:2; stroke-opacity:0.1; fill:none" points="
  213.608,203.331 1952.76,203.331 
  "/>
<polyline clip-path="url(#clip3900)" style="stroke:#000000; stroke-width:4; stroke-opacity:1; fill:none" points="
  213.608,851.529 1952.76,851.529 
  "/>
<polyline clip-path="url(#clip3900)" style="stroke:#000000; stroke-width:4; stroke-opacity:1; fill:none" points="
  213.608,851.529 213.608,107.004 
  "/>
<polyline clip-path="url(#clip3900)" style="stroke:#000000; stroke-width:4; stroke-opacity:1; fill:none" points="
  260.895,851.529 260.895,842.595 
  "/>
<polyline clip-path="url(#clip3900)" style="stroke:#000000; stroke-width:4; stroke-opacity:1; fill:none" points="
  502.744,851.529 502.744,842.595 
  "/>
<polyline clip-path="url(#clip3900)" style="stroke:#000000; stroke-width:4; stroke-opacity:1; fill:none" points="
  744.593,851.529 744.593,842.595 
  "/>
<polyline clip-path="url(#clip3900)" style="stroke:#000000; stroke-width:4; stroke-opacity:1; fill:none" points="
  986.442,851.529 986.442,842.595 
  "/>
<polyline clip-path="url(#clip3900)" style="stroke:#000000; stroke-width:4; stroke-opacity:1; fill:none" points="
  1228.29,851.529 1228.29,842.595 
  "/>
<polyline clip-path="url(#clip3900)" style="stroke:#000000; stroke-width:4; stroke-opacity:1; fill:none" points="
  1470.14,851.529 1470.14,842.595 
  "/>
<polyline clip-path="url(#clip3900)" style="stroke:#000000; stroke-width:4; stroke-opacity:1; fill:none" points="
  1711.99,851.529 1711.99,842.595 
  "/>
<polyline clip-path="url(#clip3900)" style="stroke:#000000; stroke-width:4; stroke-opacity:1; fill:none" points="
  213.608,830.457 234.478,830.457 
  "/>
<polyline clip-path="url(#clip3900)" style="stroke:#000000; stroke-width:4; stroke-opacity:1; fill:none" points="
  213.608,621.415 234.478,621.415 
  "/>
<polyline clip-path="url(#clip3900)" style="stroke:#000000; stroke-width:4; stroke-opacity:1; fill:none" points="
  213.608,412.373 234.478,412.373 
  "/>
<polyline clip-path="url(#clip3900)" style="stroke:#000000; stroke-width:4; stroke-opacity:1; fill:none" points="
  213.608,203.331 234.478,203.331 
  "/>
<g clip-path="url(#clip3900)">
<text style="fill:#000000; fill-opacity:1; font-family:Arial,Helvetica Neue,Helvetica,sans-serif; font-size:48px; text-anchor:middle;" transform="rotate(0, 260.895, 903.529)" x="260.895" y="903.529">0.35</text>
</g>
<g clip-path="url(#clip3900)">
<text style="fill:#000000; fill-opacity:1; font-family:Arial,Helvetica Neue,Helvetica,sans-serif; font-size:48px; text-anchor:middle;" transform="rotate(0, 502.744, 903.529)" x="502.744" y="903.529">0.40</text>
</g>
<g clip-path="url(#clip3900)">
<text style="fill:#000000; fill-opacity:1; font-family:Arial,Helvetica Neue,Helvetica,sans-serif; font-size:48px; text-anchor:middle;" transform="rotate(0, 744.593, 903.529)" x="744.593" y="903.529">0.45</text>
</g>
<g clip-path="url(#clip3900)">
<text style="fill:#000000; fill-opacity:1; font-family:Arial,Helvetica Neue,Helvetica,sans-serif; font-size:48px; text-anchor:middle;" transform="rotate(0, 986.442, 903.529)" x="986.442" y="903.529">0.50</text>
</g>
<g clip-path="url(#clip3900)">
<text style="fill:#000000; fill-opacity:1; font-family:Arial,Helvetica Neue,Helvetica,sans-serif; font-size:48px; text-anchor:middle;" transform="rotate(0, 1228.29, 903.529)" x="1228.29" y="903.529">0.55</text>
</g>
<g clip-path="url(#clip3900)">
<text style="fill:#000000; fill-opacity:1; font-family:Arial,Helvetica Neue,Helvetica,sans-serif; font-size:48px; text-anchor:middle;" transform="rotate(0, 1470.14, 903.529)" x="1470.14" y="903.529">0.60</text>
</g>
<g clip-path="url(#clip3900)">
<text style="fill:#000000; fill-opacity:1; font-family:Arial,Helvetica Neue,Helvetica,sans-serif; font-size:48px; text-anchor:middle;" transform="rotate(0, 1711.99, 903.529)" x="1711.99" y="903.529">0.65</text>
</g>
<g clip-path="url(#clip3900)">
<text style="fill:#000000; fill-opacity:1; font-family:Arial,Helvetica Neue,Helvetica,sans-serif; font-size:48px; text-anchor:end;" transform="rotate(0, 193.608, 847.957)" x="193.608" y="847.957">0</text>
</g>
<g clip-path="url(#clip3900)">
<text style="fill:#000000; fill-opacity:1; font-family:Arial,Helvetica Neue,Helvetica,sans-serif; font-size:48px; text-anchor:end;" transform="rotate(0, 193.608, 638.915)" x="193.608" y="638.915">50</text>
</g>
<g clip-path="url(#clip3900)">
<text style="fill:#000000; fill-opacity:1; font-family:Arial,Helvetica Neue,Helvetica,sans-serif; font-size:48px; text-anchor:end;" transform="rotate(0, 193.608, 429.873)" x="193.608" y="429.873">100</text>
</g>
<g clip-path="url(#clip3900)">
<text style="fill:#000000; fill-opacity:1; font-family:Arial,Helvetica Neue,Helvetica,sans-serif; font-size:48px; text-anchor:end;" transform="rotate(0, 193.608, 220.831)" x="193.608" y="220.831">150</text>
</g>
<g clip-path="url(#clip3900)">
<text style="fill:#000000; fill-opacity:1; font-family:Arial,Helvetica Neue,Helvetica,sans-serif; font-size:84px; text-anchor:middle;" transform="rotate(0, 1083.18, 73.2)" x="1083.18" y="73.2">p</text>
</g>
<g clip-path="url(#clip3900)">
<text style="fill:#000000; fill-opacity:1; font-family:Arial,Helvetica Neue,Helvetica,sans-serif; font-size:66px; text-anchor:middle;" transform="rotate(0, 1083.18, 981.391)" x="1083.18" y="981.391">Sample value</text>
</g>
<g clip-path="url(#clip3900)">
<text style="fill:#000000; fill-opacity:1; font-family:Arial,Helvetica Neue,Helvetica,sans-serif; font-size:66px; text-anchor:middle;" transform="rotate(-90, 81.7591, 479.267)" x="81.7591" y="479.267">Frequency</text>
</g>
<path clip-path="url(#clip3902)" d="
M309.264 813.734 L309.264 830.457 L406.004 830.457 L406.004 813.734 L309.264 813.734 L309.264 813.734  Z
  " fill="#009af9" fill-rule="evenodd" fill-opacity="0.7"/>
<polyline clip-path="url(#clip3902)" style="stroke:#000000; stroke-width:4; stroke-opacity:1; fill:none" points="
  309.264,813.734 309.264,830.457 406.004,830.457 406.004,813.734 309.264,813.734 
  "/>
<path clip-path="url(#clip3902)" d="
M406.004 801.192 L406.004 830.457 L502.744 830.457 L502.744 801.192 L406.004 801.192 L406.004 801.192  Z
  " fill="#009af9" fill-rule="evenodd" fill-opacity="0.7"/>
<polyline clip-path="url(#clip3902)" style="stroke:#000000; stroke-width:4; stroke-opacity:1; fill:none" points="
  406.004,801.192 406.004,830.457 502.744,830.457 502.744,801.192 406.004,801.192 
  "/>
<path clip-path="url(#clip3902)" d="
M502.744 746.841 L502.744 830.457 L599.484 830.457 L599.484 746.841 L502.744 746.841 L502.744 746.841  Z
  " fill="#009af9" fill-rule="evenodd" fill-opacity="0.7"/>
<polyline clip-path="url(#clip3902)" style="stroke:#000000; stroke-width:4; stroke-opacity:1; fill:none" points="
  502.744,746.841 502.744,830.457 599.484,830.457 599.484,746.841 502.744,746.841 
  "/>
<path clip-path="url(#clip3902)" d="
M599.484 692.49 L599.484 830.457 L696.223 830.457 L696.223 692.49 L599.484 692.49 L599.484 692.49  Z
  " fill="#009af9" fill-rule="evenodd" fill-opacity="0.7"/>
<polyline clip-path="url(#clip3902)" style="stroke:#000000; stroke-width:4; stroke-opacity:1; fill:none" points="
  599.484,692.49 599.484,830.457 696.223,830.457 696.223,692.49 599.484,692.49 
  "/>
<path clip-path="url(#clip3902)" d="
M696.223 575.426 L696.223 830.457 L792.963 830.457 L792.963 575.426 L696.223 575.426 L696.223 575.426  Z
  " fill="#009af9" fill-rule="evenodd" fill-opacity="0.7"/>
<polyline clip-path="url(#clip3902)" style="stroke:#000000; stroke-width:4; stroke-opacity:1; fill:none" points="
  696.223,575.426 696.223,830.457 792.963,830.457 792.963,575.426 696.223,575.426 
  "/>
<path clip-path="url(#clip3902)" d="
M792.963 450.001 L792.963 830.457 L889.703 830.457 L889.703 450.001 L792.963 450.001 L792.963 450.001  Z
  " fill="#009af9" fill-rule="evenodd" fill-opacity="0.7"/>
<polyline clip-path="url(#clip3902)" style="stroke:#000000; stroke-width:4; stroke-opacity:1; fill:none" points="
  792.963,450.001 792.963,830.457 889.703,830.457 889.703,450.001 792.963,450.001 
  "/>
<path clip-path="url(#clip3902)" d="
M889.703 312.033 L889.703 830.457 L986.442 830.457 L986.442 312.033 L889.703 312.033 L889.703 312.033  Z
  " fill="#009af9" fill-rule="evenodd" fill-opacity="0.7"/>
<polyline clip-path="url(#clip3902)" style="stroke:#000000; stroke-width:4; stroke-opacity:1; fill:none" points="
  889.703,312.033 889.703,830.457 986.442,830.457 986.442,312.033 889.703,312.033 
  "/>
<path clip-path="url(#clip3902)" d="
M986.442 128.076 L986.442 830.457 L1083.18 830.457 L1083.18 128.076 L986.442 128.076 L986.442 128.076  Z
  " fill="#009af9" fill-rule="evenodd" fill-opacity="0.7"/>
<polyline clip-path="url(#clip3902)" style="stroke:#000000; stroke-width:4; stroke-opacity:1; fill:none" points="
  986.442,128.076 986.442,830.457 1083.18,830.457 1083.18,128.076 986.442,128.076 
  "/>
<path clip-path="url(#clip3902)" d="
M1083.18 194.969 L1083.18 830.457 L1179.92 830.457 L1179.92 194.969 L1083.18 194.969 L1083.18 194.969  Z
  " fill="#009af9" fill-rule="evenodd" fill-opacity="0.7"/>
<polyline clip-path="url(#clip3902)" style="stroke:#000000; stroke-width:4; stroke-opacity:1; fill:none" points="
  1083.18,194.969 1083.18,830.457 1179.92,830.457 1179.92,194.969 1083.18,194.969 
  "/>
<path clip-path="url(#clip3902)" d="
M1179.92 282.767 L1179.92 830.457 L1276.66 830.457 L1276.66 282.767 L1179.92 282.767 L1179.92 282.767  Z
  " fill="#009af9" fill-rule="evenodd" fill-opacity="0.7"/>
<polyline clip-path="url(#clip3902)" style="stroke:#000000; stroke-width:4; stroke-opacity:1; fill:none" points="
  1179.92,282.767 1179.92,830.457 1276.66,830.457 1276.66,282.767 1179.92,282.767 
  "/>
<path clip-path="url(#clip3902)" d="
M1276.66 454.182 L1276.66 830.457 L1373.4 830.457 L1373.4 454.182 L1276.66 454.182 L1276.66 454.182  Z
  " fill="#009af9" fill-rule="evenodd" fill-opacity="0.7"/>
<polyline clip-path="url(#clip3902)" style="stroke:#000000; stroke-width:4; stroke-opacity:1; fill:none" points="
  1276.66,454.182 1276.66,830.457 1373.4,830.457 1373.4,454.182 1276.66,454.182 
  "/>
<path clip-path="url(#clip3902)" d="
M1373.4 592.149 L1373.4 830.457 L1470.14 830.457 L1470.14 592.149 L1373.4 592.149 L1373.4 592.149  Z
  " fill="#009af9" fill-rule="evenodd" fill-opacity="0.7"/>
<polyline clip-path="url(#clip3902)" style="stroke:#000000; stroke-width:4; stroke-opacity:1; fill:none" points="
  1373.4,592.149 1373.4,830.457 1470.14,830.457 1470.14,592.149 1373.4,592.149 
  "/>
<path clip-path="url(#clip3902)" d="
M1470.14 671.585 L1470.14 830.457 L1566.88 830.457 L1566.88 671.585 L1470.14 671.585 L1470.14 671.585  Z
  " fill="#009af9" fill-rule="evenodd" fill-opacity="0.7"/>
<polyline clip-path="url(#clip3902)" style="stroke:#000000; stroke-width:4; stroke-opacity:1; fill:none" points="
  1470.14,671.585 1470.14,830.457 1566.88,830.457 1566.88,671.585 1470.14,671.585 
  "/>
<path clip-path="url(#clip3902)" d="
M1566.88 767.745 L1566.88 830.457 L1663.62 830.457 L1663.62 767.745 L1566.88 767.745 L1566.88 767.745  Z
  " fill="#009af9" fill-rule="evenodd" fill-opacity="0.7"/>
<polyline clip-path="url(#clip3902)" style="stroke:#000000; stroke-width:4; stroke-opacity:1; fill:none" points="
  1566.88,767.745 1566.88,830.457 1663.62,830.457 1663.62,767.745 1566.88,767.745 
  "/>
<path clip-path="url(#clip3902)" d="
M1663.62 805.372 L1663.62 830.457 L1760.36 830.457 L1760.36 805.372 L1663.62 805.372 L1663.62 805.372  Z
  " fill="#009af9" fill-rule="evenodd" fill-opacity="0.7"/>
<polyline clip-path="url(#clip3902)" style="stroke:#000000; stroke-width:4; stroke-opacity:1; fill:none" points="
  1663.62,805.372 1663.62,830.457 1760.36,830.457 1760.36,805.372 1663.62,805.372 
  "/>
<path clip-path="url(#clip3902)" d="
M1760.36 817.915 L1760.36 830.457 L1857.1 830.457 L1857.1 817.915 L1760.36 817.915 L1760.36 817.915  Z
  " fill="#009af9" fill-rule="evenodd" fill-opacity="0.7"/>
<polyline clip-path="url(#clip3902)" style="stroke:#000000; stroke-width:4; stroke-opacity:1; fill:none" points="
  1760.36,817.915 1760.36,830.457 1857.1,830.457 1857.1,817.915 1760.36,817.915 
  "/>
</svg>
