<?xml version="1.0" encoding="utf-8"?>
<svg xmlns="http://www.w3.org/2000/svg" xmlns:xlink="http://www.w3.org/1999/xlink" width="500" height="250" viewBox="0 0 2000 1000">
<defs>
  <clipPath id="clip250">
    <rect x="0" y="0" width="2000" height="1000"/>
  </clipPath>
</defs>
<path clip-path="url(#clip250)" d="
M0 1000 L2000 1000 L2000 0 L0 0  Z
  " fill="#ffffff" fill-rule="evenodd" fill-opacity="1"/>
<defs>
  <clipPath id="clip251">
    <rect x="400" y="0" width="1401" height="1000"/>
  </clipPath>
</defs>
<path clip-path="url(#clip250)" d="
M208.986 849.7 L1952.76 849.7 L1952.76 108.352 L208.986 108.352  Z
  " fill="#ffffff" fill-rule="evenodd" fill-opacity="1"/>
<defs>
  <clipPath id="clip252">
    <rect x="208" y="108" width="1745" height="742"/>
  </clipPath>
</defs>
<polyline clip-path="url(#clip252)" style="stroke:#000000; stroke-width:2; stroke-opacity:0.1; fill:none" points="
  304.897,849.7 304.897,108.352 
  "/>
<polyline clip-path="url(#clip252)" style="stroke:#000000; stroke-width:2; stroke-opacity:0.1; fill:none" points="
  657.612,849.7 657.612,108.352 
  "/>
<polyline clip-path="url(#clip252)" style="stroke:#000000; stroke-width:2; stroke-opacity:0.1; fill:none" points="
  1010.33,849.7 1010.33,108.352 
  "/>
<polyline clip-path="url(#clip252)" style="stroke:#000000; stroke-width:2; stroke-opacity:0.1; fill:none" points="
  1363.04,849.7 1363.04,108.352 
  "/>
<polyline clip-path="url(#clip252)" style="stroke:#000000; stroke-width:2; stroke-opacity:0.1; fill:none" points="
  1715.76,849.7 1715.76,108.352 
  "/>
<polyline clip-path="url(#clip252)" style="stroke:#000000; stroke-width:2; stroke-opacity:0.1; fill:none" points="
  208.986,828.718 1952.76,828.718 
  "/>
<polyline clip-path="url(#clip252)" style="stroke:#000000; stroke-width:2; stroke-opacity:0.1; fill:none" points="
  208.986,612.859 1952.76,612.859 
  "/>
<polyline clip-path="url(#clip252)" style="stroke:#000000; stroke-width:2; stroke-opacity:0.1; fill:none" points="
  208.986,396.999 1952.76,396.999 
  "/>
<polyline clip-path="url(#clip252)" style="stroke:#000000; stroke-width:2; stroke-opacity:0.1; fill:none" points="
  208.986,181.14 1952.76,181.14 
  "/>
<polyline clip-path="url(#clip250)" style="stroke:#000000; stroke-width:4; stroke-opacity:1; fill:none" points="
  208.986,849.7 1952.76,849.7 
  "/>
<polyline clip-path="url(#clip250)" style="stroke:#000000; stroke-width:4; stroke-opacity:1; fill:none" points="
  208.986,849.7 208.986,108.352 
  "/>
<polyline clip-path="url(#clip250)" style="stroke:#000000; stroke-width:4; stroke-opacity:1; fill:none" points="
  304.897,849.7 304.897,840.804 
  "/>
<polyline clip-path="url(#clip250)" style="stroke:#000000; stroke-width:4; stroke-opacity:1; fill:none" points="
  657.612,849.7 657.612,840.804 
  "/>
<polyline clip-path="url(#clip250)" style="stroke:#000000; stroke-width:4; stroke-opacity:1; fill:none" points="
  1010.33,849.7 1010.33,840.804 
  "/>
<polyline clip-path="url(#clip250)" style="stroke:#000000; stroke-width:4; stroke-opacity:1; fill:none" points="
  1363.04,849.7 1363.04,840.804 
  "/>
<polyline clip-path="url(#clip250)" style="stroke:#000000; stroke-width:4; stroke-opacity:1; fill:none" points="
  1715.76,849.7 1715.76,840.804 
  "/>
<polyline clip-path="url(#clip250)" style="stroke:#000000; stroke-width:4; stroke-opacity:1; fill:none" points="
  208.986,828.718 229.911,828.718 
  "/>
<polyline clip-path="url(#clip250)" style="stroke:#000000; stroke-width:4; stroke-opacity:1; fill:none" points="
  208.986,612.859 229.911,612.859 
  "/>
<polyline clip-path="url(#clip250)" style="stroke:#000000; stroke-width:4; stroke-opacity:1; fill:none" points="
  208.986,396.999 229.911,396.999 
  "/>
<polyline clip-path="url(#clip250)" style="stroke:#000000; stroke-width:4; stroke-opacity:1; fill:none" points="
  208.986,181.14 229.911,181.14 
  "/>
<path clip-path="url(#clip250)" d="M 0 0 M286.737 869.691 Q283.126 869.691 281.297 873.255 Q279.492 876.797 279.492 883.927 Q279.492 891.033 281.297 894.598 Q283.126 898.139 286.737 898.139 Q290.371 898.139 292.177 894.598 Q294.006 891.033 294.006 883.927 Q294.006 876.797 292.177 873.255 Q290.371 869.691 286.737 869.691 M286.737 865.987 Q292.547 865.987 295.603 870.593 Q298.681 875.177 298.681 883.927 Q298.681 892.653 295.603 897.26 Q292.547 901.843 286.737 901.843 Q280.927 901.843 277.848 897.26 Q274.793 892.653 274.793 883.927 Q274.793 875.177 277.848 870.593 Q280.927 865.987 286.737 865.987 Z" fill="#000000" fill-rule="evenodd" fill-opacity="1" /><path clip-path="url(#clip250)" d="M 0 0 M303.751 895.292 L308.635 895.292 L308.635 901.172 L303.751 901.172 L303.751 895.292 Z" fill="#000000" fill-rule="evenodd" fill-opacity="1" /><path clip-path="url(#clip250)" d="M 0 0 M327.871 882.538 Q331.228 883.255 333.103 885.524 Q335.001 887.792 335.001 891.126 Q335.001 896.241 331.482 899.042 Q327.964 901.843 321.482 901.843 Q319.306 901.843 316.992 901.403 Q314.7 900.987 312.246 900.13 L312.246 895.616 Q314.191 896.751 316.505 897.329 Q318.82 897.908 321.343 897.908 Q325.741 897.908 328.033 896.172 Q330.348 894.436 330.348 891.126 Q330.348 888.07 328.195 886.357 Q326.066 884.621 322.246 884.621 L318.218 884.621 L318.218 880.778 L322.431 880.778 Q325.88 880.778 327.709 879.413 Q329.538 878.024 329.538 875.431 Q329.538 872.769 327.64 871.357 Q325.765 869.922 322.246 869.922 Q320.325 869.922 318.126 870.339 Q315.927 870.755 313.288 871.635 L313.288 867.468 Q315.95 866.728 318.265 866.357 Q320.603 865.987 322.663 865.987 Q327.987 865.987 331.089 868.417 Q334.19 870.825 334.19 874.945 Q334.19 877.815 332.547 879.806 Q330.903 881.774 327.871 882.538 Z" fill="#000000" fill-rule="evenodd" fill-opacity="1" /><path clip-path="url(#clip250)" d="M 0 0 M638.886 869.691 Q635.274 869.691 633.446 873.255 Q631.64 876.797 631.64 883.927 Q631.64 891.033 633.446 894.598 Q635.274 898.139 638.886 898.139 Q642.52 898.139 644.325 894.598 Q646.154 891.033 646.154 883.927 Q646.154 876.797 644.325 873.255 Q642.52 869.691 638.886 869.691 M638.886 865.987 Q644.696 865.987 647.751 870.593 Q650.83 875.177 650.83 883.927 Q650.83 892.653 647.751 897.26 Q644.696 901.843 638.886 901.843 Q633.075 901.843 629.997 897.26 Q626.941 892.653 626.941 883.927 Q626.941 875.177 629.997 870.593 Q633.075 865.987 638.886 865.987 Z" fill="#000000" fill-rule="evenodd" fill-opacity="1" /><path clip-path="url(#clip250)" d="M 0 0 M655.899 895.292 L660.784 895.292 L660.784 901.172 L655.899 901.172 L655.899 895.292 Z" fill="#000000" fill-rule="evenodd" fill-opacity="1" /><path clip-path="url(#clip250)" d="M 0 0 M678.7 870.686 L666.895 889.135 L678.7 889.135 L678.7 870.686 M677.473 866.612 L683.353 866.612 L683.353 889.135 L688.283 889.135 L688.283 893.024 L683.353 893.024 L683.353 901.172 L678.7 901.172 L678.7 893.024 L663.098 893.024 L663.098 888.51 L677.473 866.612 Z" fill="#000000" fill-rule="evenodd" fill-opacity="1" /><path clip-path="url(#clip250)" d="M 0 0 M992.342 869.691 Q988.731 869.691 986.902 873.255 Q985.097 876.797 985.097 883.927 Q985.097 891.033 986.902 894.598 Q988.731 898.139 992.342 898.139 Q995.976 898.139 997.782 894.598 Q999.61 891.033 999.61 883.927 Q999.61 876.797 997.782 873.255 Q995.976 869.691 992.342 869.691 M992.342 865.987 Q998.152 865.987 1001.21 870.593 Q1004.29 875.177 1004.29 883.927 Q1004.29 892.653 1001.21 897.26 Q998.152 901.843 992.342 901.843 Q986.532 901.843 983.453 897.26 Q980.398 892.653 980.398 883.927 Q980.398 875.177 983.453 870.593 Q986.532 865.987 992.342 865.987 Z" fill="#000000" fill-rule="evenodd" fill-opacity="1" /><path clip-path="url(#clip250)" d="M 0 0 M1009.36 895.292 L1014.24 895.292 L1014.24 901.172 L1009.36 901.172 L1009.36 895.292 Z" fill="#000000" fill-rule="evenodd" fill-opacity="1" /><path clip-path="url(#clip250)" d="M 0 0 M1019.36 866.612 L1037.71 866.612 L1037.71 870.547 L1023.64 870.547 L1023.64 879.019 Q1024.66 878.672 1025.68 878.51 Q1026.69 878.325 1027.71 878.325 Q1033.5 878.325 1036.88 881.496 Q1040.26 884.667 1040.26 890.084 Q1040.26 895.663 1036.79 898.764 Q1033.31 901.843 1026.99 901.843 Q1024.82 901.843 1022.55 901.473 Q1020.3 901.102 1017.9 900.362 L1017.9 895.663 Q1019.98 896.797 1022.2 897.352 Q1024.43 897.908 1026.9 897.908 Q1030.91 897.908 1033.24 895.802 Q1035.58 893.695 1035.58 890.084 Q1035.58 886.473 1033.24 884.366 Q1030.91 882.26 1026.9 882.26 Q1025.03 882.26 1023.15 882.677 Q1021.3 883.093 1019.36 883.973 L1019.36 866.612 Z" fill="#000000" fill-rule="evenodd" fill-opacity="1" /><path clip-path="url(#clip250)" d="M 0 0 M1344.48 869.691 Q1340.87 869.691 1339.04 873.255 Q1337.23 876.797 1337.23 883.927 Q1337.23 891.033 1339.04 894.598 Q1340.87 898.139 1344.48 898.139 Q1348.11 898.139 1349.92 894.598 Q1351.75 891.033 1351.75 883.927 Q1351.75 876.797 1349.92 873.255 Q1348.11 869.691 1344.48 869.691 M1344.48 865.987 Q1350.29 865.987 1353.34 870.593 Q1356.42 875.177 1356.42 883.927 Q1356.42 892.653 1353.34 897.26 Q1350.29 901.843 1344.48 901.843 Q1338.67 901.843 1335.59 897.26 Q1332.53 892.653 1332.53 883.927 Q1332.53 875.177 1335.59 870.593 Q1338.67 865.987 1344.48 865.987 Z" fill="#000000" fill-rule="evenodd" fill-opacity="1" /><path clip-path="url(#clip250)" d="M 0 0 M1361.49 895.292 L1366.38 895.292 L1366.38 901.172 L1361.49 901.172 L1361.49 895.292 Z" fill="#000000" fill-rule="evenodd" fill-opacity="1" /><path clip-path="url(#clip250)" d="M 0 0 M1382.02 882.028 Q1378.88 882.028 1377.02 884.181 Q1375.2 886.334 1375.2 890.084 Q1375.2 893.811 1377.02 895.987 Q1378.88 898.139 1382.02 898.139 Q1385.17 898.139 1387 895.987 Q1388.85 893.811 1388.85 890.084 Q1388.85 886.334 1387 884.181 Q1385.17 882.028 1382.02 882.028 M1391.31 867.376 L1391.31 871.635 Q1389.55 870.802 1387.74 870.362 Q1385.96 869.922 1384.2 869.922 Q1379.57 869.922 1377.12 873.047 Q1374.69 876.172 1374.34 882.491 Q1375.71 880.478 1377.77 879.413 Q1379.83 878.325 1382.3 878.325 Q1387.51 878.325 1390.52 881.496 Q1393.55 884.644 1393.55 890.084 Q1393.55 895.408 1390.4 898.626 Q1387.26 901.843 1382.02 901.843 Q1376.03 901.843 1372.86 897.26 Q1369.69 892.653 1369.69 883.927 Q1369.69 875.732 1373.58 870.871 Q1377.46 865.987 1384.02 865.987 Q1385.77 865.987 1387.56 866.334 Q1389.36 866.681 1391.31 867.376 Z" fill="#000000" fill-rule="evenodd" fill-opacity="1" /><path clip-path="url(#clip250)" d="M 0 0 M1697.73 869.691 Q1694.12 869.691 1692.29 873.255 Q1690.48 876.797 1690.48 883.927 Q1690.48 891.033 1692.29 894.598 Q1694.12 898.139 1697.73 898.139 Q1701.36 898.139 1703.17 894.598 Q1705 891.033 1705 883.927 Q1705 876.797 1703.17 873.255 Q1701.36 869.691 1697.73 869.691 M1697.73 865.987 Q1703.54 865.987 1706.59 870.593 Q1709.67 875.177 1709.67 883.927 Q1709.67 892.653 1706.59 897.26 Q1703.54 901.843 1697.73 901.843 Q1691.92 901.843 1688.84 897.26 Q1685.78 892.653 1685.78 883.927 Q1685.78 875.177 1688.84 870.593 Q1691.92 865.987 1697.73 865.987 Z" fill="#000000" fill-rule="evenodd" fill-opacity="1" /><path clip-path="url(#clip250)" d="M 0 0 M1714.74 895.292 L1719.62 895.292 L1719.62 901.172 L1714.74 901.172 L1714.74 895.292 Z" fill="#000000" fill-rule="evenodd" fill-opacity="1" /><path clip-path="url(#clip250)" d="M 0 0 M1723.51 866.612 L1745.74 866.612 L1745.74 868.603 L1733.19 901.172 L1728.31 901.172 L1740.11 870.547 L1723.51 870.547 L1723.51 866.612 Z" fill="#000000" fill-rule="evenodd" fill-opacity="1" /><path clip-path="url(#clip250)" d="M 0 0 M177.042 814.517 Q173.431 814.517 171.602 818.082 Q169.797 821.623 169.797 828.753 Q169.797 835.859 171.602 839.424 Q173.431 842.966 177.042 842.966 Q180.676 842.966 182.482 839.424 Q184.31 835.859 184.31 828.753 Q184.31 821.623 182.482 818.082 Q180.676 814.517 177.042 814.517 M177.042 810.813 Q182.852 810.813 185.908 815.42 Q188.986 820.003 188.986 828.753 Q188.986 837.48 185.908 842.086 Q182.852 846.67 177.042 846.67 Q171.232 846.67 168.153 842.086 Q165.097 837.48 165.097 828.753 Q165.097 820.003 168.153 815.42 Q171.232 810.813 177.042 810.813 Z" fill="#000000" fill-rule="evenodd" fill-opacity="1" /><path clip-path="url(#clip250)" d="M 0 0 M141.07 595.579 L159.426 595.579 L159.426 599.514 L145.352 599.514 L145.352 607.986 Q146.371 607.639 147.389 607.477 Q148.408 607.292 149.426 607.292 Q155.213 607.292 158.593 610.463 Q161.972 613.634 161.972 619.051 Q161.972 624.63 158.5 627.731 Q155.028 630.81 148.709 630.81 Q146.533 630.81 144.264 630.44 Q142.019 630.069 139.612 629.329 L139.612 624.63 Q141.695 625.764 143.917 626.319 Q146.139 626.875 148.616 626.875 Q152.621 626.875 154.959 624.769 Q157.297 622.662 157.297 619.051 Q157.297 615.44 154.959 613.333 Q152.621 611.227 148.616 611.227 Q146.741 611.227 144.866 611.644 Q143.014 612.06 141.07 612.94 L141.07 595.579 Z" fill="#000000" fill-rule="evenodd" fill-opacity="1" /><path clip-path="url(#clip250)" d="M 0 0 M177.042 598.658 Q173.431 598.658 171.602 602.222 Q169.797 605.764 169.797 612.894 Q169.797 620 171.602 623.565 Q173.431 627.106 177.042 627.106 Q180.676 627.106 182.482 623.565 Q184.31 620 184.31 612.894 Q184.31 605.764 182.482 602.222 Q180.676 598.658 177.042 598.658 M177.042 594.954 Q182.852 594.954 185.908 599.56 Q188.986 604.144 188.986 612.894 Q188.986 621.62 185.908 626.227 Q182.852 630.81 177.042 630.81 Q171.232 630.81 168.153 626.227 Q165.097 621.62 165.097 612.894 Q165.097 604.144 168.153 599.56 Q171.232 594.954 177.042 594.954 Z" fill="#000000" fill-rule="evenodd" fill-opacity="1" /><path clip-path="url(#clip250)" d="M 0 0 M115.051 410.344 L122.69 410.344 L122.69 383.979 L114.38 385.645 L114.38 381.386 L122.644 379.719 L127.32 379.719 L127.32 410.344 L134.959 410.344 L134.959 414.279 L115.051 414.279 L115.051 410.344 Z" fill="#000000" fill-rule="evenodd" fill-opacity="1" /><path clip-path="url(#clip250)" d="M 0 0 M150.028 382.798 Q146.417 382.798 144.588 386.363 Q142.783 389.905 142.783 397.034 Q142.783 404.141 144.588 407.705 Q146.417 411.247 150.028 411.247 Q153.662 411.247 155.468 407.705 Q157.297 404.141 157.297 397.034 Q157.297 389.905 155.468 386.363 Q153.662 382.798 150.028 382.798 M150.028 379.094 Q155.838 379.094 158.894 383.701 Q161.972 388.284 161.972 397.034 Q161.972 405.761 158.894 410.367 Q155.838 414.951 150.028 414.951 Q144.218 414.951 141.139 410.367 Q138.084 405.761 138.084 397.034 Q138.084 388.284 141.139 383.701 Q144.218 379.094 150.028 379.094 Z" fill="#000000" fill-rule="evenodd" fill-opacity="1" /><path clip-path="url(#clip250)" d="M 0 0 M177.042 382.798 Q173.431 382.798 171.602 386.363 Q169.797 389.905 169.797 397.034 Q169.797 404.141 171.602 407.705 Q173.431 411.247 177.042 411.247 Q180.676 411.247 182.482 407.705 Q184.31 404.141 184.31 397.034 Q184.31 389.905 182.482 386.363 Q180.676 382.798 177.042 382.798 M177.042 379.094 Q182.852 379.094 185.908 383.701 Q188.986 388.284 188.986 397.034 Q188.986 405.761 185.908 410.367 Q182.852 414.951 177.042 414.951 Q171.232 414.951 168.153 410.367 Q165.097 405.761 165.097 397.034 Q165.097 388.284 168.153 383.701 Q171.232 379.094 177.042 379.094 Z" fill="#000000" fill-rule="evenodd" fill-opacity="1" /><path clip-path="url(#clip250)" d="M 0 0 M116.047 194.485 L123.686 194.485 L123.686 168.119 L115.376 169.786 L115.376 165.527 L123.639 163.86 L128.315 163.86 L128.315 194.485 L135.954 194.485 L135.954 198.42 L116.047 198.42 L116.047 194.485 Z" fill="#000000" fill-rule="evenodd" fill-opacity="1" /><path clip-path="url(#clip250)" d="M 0 0 M141.07 163.86 L159.426 163.86 L159.426 167.795 L145.352 167.795 L145.352 176.267 Q146.371 175.92 147.389 175.758 Q148.408 175.573 149.426 175.573 Q155.213 175.573 158.593 178.744 Q161.972 181.915 161.972 187.332 Q161.972 192.911 158.5 196.013 Q155.028 199.091 148.709 199.091 Q146.533 199.091 144.264 198.721 Q142.019 198.35 139.612 197.61 L139.612 192.911 Q141.695 194.045 143.917 194.601 Q146.139 195.156 148.616 195.156 Q152.621 195.156 154.959 193.05 Q157.297 190.943 157.297 187.332 Q157.297 183.721 154.959 181.614 Q152.621 179.508 148.616 179.508 Q146.741 179.508 144.866 179.925 Q143.014 180.341 141.07 181.221 L141.07 163.86 Z" fill="#000000" fill-rule="evenodd" fill-opacity="1" /><path clip-path="url(#clip250)" d="M 0 0 M177.042 166.939 Q173.431 166.939 171.602 170.503 Q169.797 174.045 169.797 181.175 Q169.797 188.281 171.602 191.846 Q173.431 195.388 177.042 195.388 Q180.676 195.388 182.482 191.846 Q184.31 188.281 184.31 181.175 Q184.31 174.045 182.482 170.503 Q180.676 166.939 177.042 166.939 M177.042 163.235 Q182.852 163.235 185.908 167.841 Q188.986 172.425 188.986 181.175 Q188.986 189.901 185.908 194.508 Q182.852 199.091 177.042 199.091 Q171.232 199.091 168.153 194.508 Q165.097 189.901 165.097 181.175 Q165.097 172.425 168.153 167.841 Q171.232 163.235 177.042 163.235 Z" fill="#000000" fill-rule="evenodd" fill-opacity="1" /><path clip-path="url(#clip250)" d="M 0 0 M1068.07 65.7705 L1068.07 89.8329 L1060.58 89.8329 L1060.58 27.2059 L1068.07 27.2059 L1068.07 34.0924 Q1070.42 30.0415 1073.98 28.0971 Q1077.59 26.1121 1082.57 26.1121 Q1090.84 26.1121 1095.98 32.6746 Q1101.17 39.2371 1101.17 49.9314 Q1101.17 60.6258 1095.98 67.1883 Q1090.84 73.7508 1082.57 73.7508 Q1077.59 73.7508 1073.98 71.8063 Q1070.42 69.8214 1068.07 65.7705 M1093.43 49.9314 Q1093.43 41.7081 1090.03 37.0496 Q1086.66 32.3505 1080.75 32.3505 Q1074.84 32.3505 1071.43 37.0496 Q1068.07 41.7081 1068.07 49.9314 Q1068.07 58.1548 1071.43 62.8538 Q1074.84 67.5124 1080.75 67.5124 Q1086.66 67.5124 1090.03 62.8538 Q1093.43 58.1548 1093.43 49.9314 Z" fill="#000000" fill-rule="evenodd" fill-opacity="1" /><path clip-path="url(#clip250)" d="M 0 0 M917.813 932.603 L917.813 938.874 Q914.153 937.123 910.907 936.264 Q907.66 935.404 904.636 935.404 Q899.385 935.404 896.52 937.441 Q893.687 939.478 893.687 943.234 Q893.687 946.385 895.565 948.008 Q897.475 949.6 902.759 950.587 L906.642 951.382 Q913.835 952.751 917.241 956.22 Q920.678 959.658 920.678 965.45 Q920.678 972.357 916.031 975.922 Q911.416 979.487 902.472 979.487 Q899.098 979.487 895.279 978.723 Q891.491 977.959 887.417 976.463 L887.417 969.843 Q891.332 972.039 895.088 973.153 Q898.844 974.267 902.472 974.267 Q907.978 974.267 910.97 972.103 Q913.962 969.938 913.962 965.928 Q913.962 962.427 911.798 960.453 Q909.665 958.48 904.764 957.493 L900.849 956.729 Q893.656 955.297 890.441 952.242 Q887.226 949.186 887.226 943.743 Q887.226 937.441 891.65 933.813 Q896.106 930.184 903.904 930.184 Q907.246 930.184 910.716 930.789 Q914.185 931.394 917.813 932.603 Z" fill="#000000" fill-rule="evenodd" fill-opacity="1" /><path clip-path="url(#clip250)" d="M 0 0 M943.022 960.644 Q935.924 960.644 933.187 962.268 Q930.449 963.891 930.449 967.806 Q930.449 970.925 932.486 972.771 Q934.555 974.585 938.088 974.585 Q942.958 974.585 945.886 971.148 Q948.846 967.678 948.846 961.949 L948.846 960.644 L943.022 960.644 M954.703 958.225 L954.703 978.564 L948.846 978.564 L948.846 973.153 Q946.841 976.4 943.849 977.959 Q940.857 979.487 936.529 979.487 Q931.054 979.487 927.808 976.431 Q924.593 973.344 924.593 968.188 Q924.593 962.172 928.603 959.117 Q932.646 956.061 940.635 956.061 L948.846 956.061 L948.846 955.488 Q948.846 951.446 946.173 949.25 Q943.531 947.022 938.725 947.022 Q935.669 947.022 932.773 947.754 Q929.877 948.486 927.203 949.95 L927.203 944.539 Q930.418 943.298 933.441 942.693 Q936.465 942.057 939.33 942.057 Q947.064 942.057 950.883 946.067 Q954.703 950.077 954.703 958.225 Z" fill="#000000" fill-rule="evenodd" fill-opacity="1" /><path clip-path="url(#clip250)" d="M 0 0 M988.6 949.759 Q990.796 945.812 993.852 943.934 Q996.907 942.057 1001.05 942.057 Q1006.62 942.057 1009.64 945.971 Q1012.66 949.855 1012.66 957.048 L1012.66 978.564 L1006.77 978.564 L1006.77 957.239 Q1006.77 952.114 1004.96 949.632 Q1003.15 947.149 999.422 947.149 Q994.87 947.149 992.229 950.173 Q989.587 953.197 989.587 958.416 L989.587 978.564 L983.699 978.564 L983.699 957.239 Q983.699 952.083 981.884 949.632 Q980.07 947.149 976.283 947.149 Q971.795 947.149 969.153 950.205 Q966.511 953.228 966.511 958.416 L966.511 978.564 L960.623 978.564 L960.623 942.916 L966.511 942.916 L966.511 948.454 Q968.516 945.176 971.317 943.616 Q974.118 942.057 977.969 942.057 Q981.853 942.057 984.558 944.03 Q987.295 946.003 988.6 949.759 Z" fill="#000000" fill-rule="evenodd" fill-opacity="1" /><path clip-path="url(#clip250)" d="M 0 0 M1024.47 973.217 L1024.47 992.123 L1018.58 992.123 L1018.58 942.916 L1024.47 942.916 L1024.47 948.327 Q1026.32 945.144 1029.12 943.616 Q1031.95 942.057 1035.87 942.057 Q1042.36 942.057 1046.4 947.213 Q1050.47 952.369 1050.47 960.772 Q1050.47 969.174 1046.4 974.331 Q1042.36 979.487 1035.87 979.487 Q1031.95 979.487 1029.12 977.959 Q1026.32 976.4 1024.47 973.217 M1044.4 960.772 Q1044.4 954.311 1041.72 950.65 Q1039.08 946.958 1034.43 946.958 Q1029.79 946.958 1027.11 950.65 Q1024.47 954.311 1024.47 960.772 Q1024.47 967.233 1027.11 970.925 Q1029.79 974.585 1034.43 974.585 Q1039.08 974.585 1041.72 970.925 Q1044.4 967.233 1044.4 960.772 Z" fill="#000000" fill-rule="evenodd" fill-opacity="1" /><path clip-path="url(#clip250)" d="M 0 0 M1056.62 929.039 L1062.47 929.039 L1062.47 978.564 L1056.62 978.564 L1056.62 929.039 Z" fill="#000000" fill-rule="evenodd" fill-opacity="1" /><path clip-path="url(#clip250)" d="M 0 0 M1099.11 959.276 L1099.11 962.14 L1072.18 962.14 Q1072.56 968.188 1075.81 971.371 Q1079.09 974.522 1084.91 974.522 Q1088.29 974.522 1091.44 973.694 Q1094.62 972.867 1097.74 971.211 L1097.74 976.75 Q1094.59 978.086 1091.28 978.787 Q1087.97 979.487 1084.56 979.487 Q1076.03 979.487 1071.04 974.522 Q1066.07 969.556 1066.07 961.09 Q1066.07 952.337 1070.78 947.213 Q1075.52 942.057 1083.54 942.057 Q1090.74 942.057 1094.91 946.703 Q1099.11 951.319 1099.11 959.276 M1093.25 957.557 Q1093.19 952.751 1090.55 949.886 Q1087.94 947.022 1083.61 947.022 Q1078.71 947.022 1075.75 949.791 Q1072.82 952.56 1072.37 957.589 L1093.25 957.557 Z" fill="#000000" fill-rule="evenodd" fill-opacity="1" /><path clip-path="url(#clip250)" d="M 0 0 M1121.77 942.916 L1127.98 942.916 L1139.12 972.835 L1150.26 942.916 L1156.46 942.916 L1143.1 978.564 L1135.14 978.564 L1121.77 942.916 Z" fill="#000000" fill-rule="evenodd" fill-opacity="1" /><path clip-path="url(#clip250)" d="M 0 0 M1178.81 960.644 Q1171.71 960.644 1168.97 962.268 Q1166.24 963.891 1166.24 967.806 Q1166.24 970.925 1168.27 972.771 Q1170.34 974.585 1173.87 974.585 Q1178.74 974.585 1181.67 971.148 Q1184.63 967.678 1184.63 961.949 L1184.63 960.644 L1178.81 960.644 M1190.49 958.225 L1190.49 978.564 L1184.63 978.564 L1184.63 973.153 Q1182.63 976.4 1179.64 977.959 Q1176.64 979.487 1172.31 979.487 Q1166.84 979.487 1163.59 976.431 Q1160.38 973.344 1160.38 968.188 Q1160.38 962.172 1164.39 959.117 Q1168.43 956.061 1176.42 956.061 L1184.63 956.061 L1184.63 955.488 Q1184.63 951.446 1181.96 949.25 Q1179.32 947.022 1174.51 947.022 Q1171.46 947.022 1168.56 947.754 Q1165.66 948.486 1162.99 949.95 L1162.99 944.539 Q1166.2 943.298 1169.23 942.693 Q1172.25 942.057 1175.12 942.057 Q1182.85 942.057 1186.67 946.067 Q1190.49 950.077 1190.49 958.225 Z" fill="#000000" fill-rule="evenodd" fill-opacity="1" /><path clip-path="url(#clip250)" d="M 0 0 M1196.63 929.039 L1202.49 929.039 L1202.49 978.564 L1196.63 978.564 L1196.63 929.039 Z" fill="#000000" fill-rule="evenodd" fill-opacity="1" /><path clip-path="url(#clip250)" d="M 0 0 M1208.03 964.496 L1208.03 942.916 L1213.88 942.916 L1213.88 964.273 Q1213.88 969.334 1215.86 971.88 Q1217.83 974.394 1221.78 974.394 Q1226.52 974.394 1229.26 971.371 Q1232.02 968.347 1232.02 963.127 L1232.02 942.916 L1237.88 942.916 L1237.88 978.564 L1232.02 978.564 L1232.02 973.089 Q1229.89 976.336 1227.06 977.927 Q1224.26 979.487 1220.53 979.487 Q1214.39 979.487 1211.21 975.667 Q1208.03 971.848 1208.03 964.496 M1222.76 942.057 L1222.76 942.057 Z" fill="#000000" fill-rule="evenodd" fill-opacity="1" /><path clip-path="url(#clip250)" d="M 0 0 M1274.52 959.276 L1274.52 962.14 L1247.59 962.14 Q1247.97 968.188 1251.22 971.371 Q1254.5 974.522 1260.32 974.522 Q1263.69 974.522 1266.85 973.694 Q1270.03 972.867 1273.15 971.211 L1273.15 976.75 Q1270 978.086 1266.69 978.787 Q1263.38 979.487 1259.97 979.487 Q1251.44 979.487 1246.44 974.522 Q1241.48 969.556 1241.48 961.09 Q1241.48 952.337 1246.19 947.213 Q1250.93 942.057 1258.95 942.057 Q1266.14 942.057 1270.31 946.703 Q1274.52 951.319 1274.52 959.276 M1268.66 957.557 Q1268.6 952.751 1265.95 949.886 Q1263.34 947.022 1259.02 947.022 Q1254.11 947.022 1251.15 949.791 Q1248.23 952.56 1247.78 957.589 L1268.66 957.557 Z" fill="#000000" fill-rule="evenodd" fill-opacity="1" /><path clip-path="url(#clip250)" d="M 0 0 M32.6042 627.156 L32.6042 599.847 L38.015 599.847 L38.015 620.727 L52.0196 620.727 L52.0196 601.884 L57.4304 601.884 L57.4304 620.727 L80.1242 620.727 L80.1242 627.156 L32.6042 627.156 Z" fill="#000000" fill-rule="evenodd" fill-opacity="1" /><path clip-path="url(#clip250)" d="M 0 0 M49.9507 577.79 Q49.3778 578.777 49.1232 579.954 Q48.8367 581.1 48.8367 582.501 Q48.8367 587.466 52.0832 590.139 Q55.2979 592.781 61.3453 592.781 L80.1242 592.781 L80.1242 598.669 L44.4762 598.669 L44.4762 592.781 L50.0144 592.781 Q46.7679 590.935 45.2083 587.975 Q43.6168 585.015 43.6168 580.782 Q43.6168 580.177 43.7123 579.445 Q43.776 578.713 43.9351 577.822 L49.9507 577.79 Z" fill="#000000" fill-rule="evenodd" fill-opacity="1" /><path clip-path="url(#clip250)" d="M 0 0 M60.8361 542.588 L63.7006 542.588 L63.7006 569.515 Q69.7481 569.133 72.9309 565.886 Q76.0819 562.608 76.0819 556.783 Q76.0819 553.409 75.2544 550.258 Q74.4269 547.075 72.7718 543.956 L78.3099 543.956 Q79.6467 547.107 80.347 550.417 Q81.0472 553.728 81.0472 557.133 Q81.0472 565.663 76.0819 570.66 Q71.1167 575.626 62.6503 575.626 Q53.8974 575.626 48.7731 570.915 Q43.6168 566.173 43.6168 558.152 Q43.6168 550.958 48.2638 546.789 Q52.8789 542.588 60.8361 542.588 M59.1173 548.444 Q54.3112 548.508 51.4466 551.149 Q48.5821 553.759 48.5821 558.088 Q48.5821 562.99 51.3512 565.95 Q54.1202 568.878 59.1492 569.324 L59.1173 548.444 Z" fill="#000000" fill-rule="evenodd" fill-opacity="1" /><path clip-path="url(#clip250)" d="M 0 0 M62.332 532.944 Q68.7932 532.944 72.4853 530.302 Q76.1456 527.628 76.1456 522.981 Q76.1456 518.334 72.4853 515.661 Q68.7932 512.987 62.332 512.987 Q55.8708 512.987 52.2105 515.661 Q48.5184 518.334 48.5184 522.981 Q48.5184 527.628 52.2105 530.302 Q55.8708 532.944 62.332 532.944 M74.777 512.987 Q77.9598 514.833 79.5194 517.666 Q81.0472 520.467 81.0472 524.413 Q81.0472 530.875 75.891 534.949 Q70.7347 538.991 62.332 538.991 Q53.9293 538.991 48.7731 534.949 Q43.6168 530.875 43.6168 524.413 Q43.6168 520.467 45.1764 517.666 Q46.7042 514.833 49.8871 512.987 L44.4762 512.987 L44.4762 507.131 L93.6831 507.131 L93.6831 512.987 L74.777 512.987 Z" fill="#000000" fill-rule="evenodd" fill-opacity="1" /><path clip-path="url(#clip250)" d="M 0 0 M66.0559 501.592 L44.4762 501.592 L44.4762 495.736 L65.8331 495.736 Q70.8939 495.736 73.4402 493.763 Q75.9546 491.789 75.9546 487.842 Q75.9546 483.1 72.9309 480.363 Q69.9072 477.594 64.6873 477.594 L44.4762 477.594 L44.4762 471.737 L80.1242 471.737 L80.1242 477.594 L74.6496 477.594 Q77.8962 479.726 79.4876 482.559 Q81.0472 485.36 81.0472 489.084 Q81.0472 495.227 77.2278 498.41 Q73.4083 501.592 66.0559 501.592 M43.6168 486.856 L43.6168 486.856 Z" fill="#000000" fill-rule="evenodd" fill-opacity="1" /><path clip-path="url(#clip250)" d="M 0 0 M60.8361 435.103 L63.7006 435.103 L63.7006 462.03 Q69.7481 461.648 72.9309 458.401 Q76.0819 455.123 76.0819 449.298 Q76.0819 445.924 75.2544 442.773 Q74.4269 439.59 72.7718 436.471 L78.3099 436.471 Q79.6467 439.622 80.347 442.932 Q81.0472 446.243 81.0472 449.648 Q81.0472 458.178 76.0819 463.175 Q71.1167 468.141 62.6503 468.141 Q53.8974 468.141 48.7731 463.43 Q43.6168 458.688 43.6168 450.667 Q43.6168 443.474 48.2638 439.304 Q52.8789 435.103 60.8361 435.103 M59.1173 440.959 Q54.3112 441.023 51.4466 443.664 Q48.5821 446.274 48.5821 450.603 Q48.5821 455.505 51.3512 458.465 Q54.1202 461.393 59.1492 461.839 L59.1173 440.959 Z" fill="#000000" fill-rule="evenodd" fill-opacity="1" /><path clip-path="url(#clip250)" d="M 0 0 M58.6081 399.327 L80.1242 399.327 L80.1242 405.184 L58.799 405.184 Q53.7383 405.184 51.2238 407.157 Q48.7094 409.131 48.7094 413.077 Q48.7094 417.82 51.7331 420.557 Q54.7568 423.294 59.9767 423.294 L80.1242 423.294 L80.1242 429.183 L44.4762 429.183 L44.4762 423.294 L50.0144 423.294 Q46.7997 421.194 45.2083 418.361 Q43.6168 415.496 43.6168 411.772 Q43.6168 405.629 47.4363 402.478 Q51.2238 399.327 58.6081 399.327 Z" fill="#000000" fill-rule="evenodd" fill-opacity="1" /><path clip-path="url(#clip250)" d="M 0 0 M45.8448 367.531 L51.3193 367.531 Q49.9507 370.013 49.2823 372.528 Q48.5821 375.01 48.5821 377.557 Q48.5821 383.254 52.2105 386.405 Q55.8072 389.556 62.332 389.556 Q68.8569 389.556 72.4853 386.405 Q76.0819 383.254 76.0819 377.557 Q76.0819 375.01 75.4135 372.528 Q74.7133 370.013 73.3447 367.531 L78.7555 367.531 Q79.9014 369.981 80.4743 372.623 Q81.0472 375.233 81.0472 378.193 Q81.0472 386.246 75.9864 390.988 Q70.9257 395.731 62.332 395.731 Q53.611 395.731 48.6139 390.956 Q43.6168 386.15 43.6168 377.811 Q43.6168 375.106 44.1897 372.528 Q44.7308 369.95 45.8448 367.531 Z" fill="#000000" fill-rule="evenodd" fill-opacity="1" /><path clip-path="url(#clip250)" d="M 0 0 M83.4343 346.556 Q89.8 349.038 91.7416 351.394 Q93.6831 353.749 93.6831 357.696 L93.6831 362.374 L88.7815 362.374 L88.7815 358.937 Q88.7815 356.518 87.6357 355.181 Q86.4899 353.844 82.2248 352.221 L79.5512 351.171 L44.4762 365.589 L44.4762 359.383 L72.358 348.243 L44.4762 337.103 L44.4762 330.896 L83.4343 346.556 Z" fill="#000000" fill-rule="evenodd" fill-opacity="1" /><path clip-path="url(#clip252)" d="
M304.897 824.401 L304.897 828.718 L375.44 828.718 L375.44 824.401 L304.897 824.401 L304.897 824.401  Z
  " fill="#009af9" fill-rule="evenodd" fill-opacity="0.7"/>
<polyline clip-path="url(#clip252)" style="stroke:#000000; stroke-width:4; stroke-opacity:1; fill:none" points="
  304.897,824.401 304.897,828.718 375.44,828.718 375.44,824.401 304.897,824.401 
  "/>
<path clip-path="url(#clip252)" d="
M375.44 824.401 L375.44 828.718 L445.983 828.718 L445.983 824.401 L375.44 824.401 L375.44 824.401  Z
  " fill="#009af9" fill-rule="evenodd" fill-opacity="0.7"/>
<polyline clip-path="url(#clip252)" style="stroke:#000000; stroke-width:4; stroke-opacity:1; fill:none" points="
  375.44,824.401 375.44,828.718 445.983,828.718 445.983,824.401 375.44,824.401 
  "/>
<path clip-path="url(#clip252)" d="
M445.983 828.718 L445.983 828.718 L516.526 828.718 L516.526 828.718 L445.983 828.718 L445.983 828.718  Z
  " fill="#009af9" fill-rule="evenodd" fill-opacity="0.7"/>
<polyline clip-path="url(#clip252)" style="stroke:#000000; stroke-width:4; stroke-opacity:1; fill:none" points="
  445.983,828.718 445.983,828.718 516.526,828.718 445.983,828.718 
  "/>
<path clip-path="url(#clip252)" d="
M516.526 811.45 L516.526 828.718 L587.069 828.718 L587.069 811.45 L516.526 811.45 L516.526 811.45  Z
  " fill="#009af9" fill-rule="evenodd" fill-opacity="0.7"/>
<polyline clip-path="url(#clip252)" style="stroke:#000000; stroke-width:4; stroke-opacity:1; fill:none" points="
  516.526,811.45 516.526,828.718 587.069,828.718 587.069,811.45 516.526,811.45 
  "/>
<path clip-path="url(#clip252)" d="
M587.069 798.498 L587.069 828.718 L657.612 828.718 L657.612 798.498 L587.069 798.498 L587.069 798.498  Z
  " fill="#009af9" fill-rule="evenodd" fill-opacity="0.7"/>
<polyline clip-path="url(#clip252)" style="stroke:#000000; stroke-width:4; stroke-opacity:1; fill:none" points="
  587.069,798.498 587.069,828.718 657.612,828.718 657.612,798.498 587.069,798.498 
  "/>
<path clip-path="url(#clip252)" d="
M657.612 742.375 L657.612 828.718 L728.155 828.718 L728.155 742.375 L657.612 742.375 L657.612 742.375  Z
  " fill="#009af9" fill-rule="evenodd" fill-opacity="0.7"/>
<polyline clip-path="url(#clip252)" style="stroke:#000000; stroke-width:4; stroke-opacity:1; fill:none" points="
  657.612,742.375 657.612,828.718 728.155,828.718 728.155,742.375 657.612,742.375 
  "/>
<path clip-path="url(#clip252)" d="
M728.155 681.934 L728.155 828.718 L798.699 828.718 L798.699 681.934 L728.155 681.934 L728.155 681.934  Z
  " fill="#009af9" fill-rule="evenodd" fill-opacity="0.7"/>
<polyline clip-path="url(#clip252)" style="stroke:#000000; stroke-width:4; stroke-opacity:1; fill:none" points="
  728.155,681.934 728.155,828.718 798.699,828.718 798.699,681.934 728.155,681.934 
  "/>
<path clip-path="url(#clip252)" d="
M798.699 569.687 L798.699 828.718 L869.242 828.718 L869.242 569.687 L798.699 569.687 L798.699 569.687  Z
  " fill="#009af9" fill-rule="evenodd" fill-opacity="0.7"/>
<polyline clip-path="url(#clip252)" style="stroke:#000000; stroke-width:4; stroke-opacity:1; fill:none" points="
  798.699,569.687 798.699,828.718 869.242,828.718 869.242,569.687 798.699,569.687 
  "/>
<path clip-path="url(#clip252)" d="
M869.242 422.903 L869.242 828.718 L939.785 828.718 L939.785 422.903 L869.242 422.903 L869.242 422.903  Z
  " fill="#009af9" fill-rule="evenodd" fill-opacity="0.7"/>
<polyline clip-path="url(#clip252)" style="stroke:#000000; stroke-width:4; stroke-opacity:1; fill:none" points="
  869.242,422.903 869.242,828.718 939.785,828.718 939.785,422.903 869.242,422.903 
  "/>
<path clip-path="url(#clip252)" d="
M939.785 302.021 L939.785 828.718 L1010.33 828.718 L1010.33 302.021 L939.785 302.021 L939.785 302.021  Z
  " fill="#009af9" fill-rule="evenodd" fill-opacity="0.7"/>
<polyline clip-path="url(#clip252)" style="stroke:#000000; stroke-width:4; stroke-opacity:1; fill:none" points="
  939.785,302.021 939.785,828.718 1010.33,828.718 1010.33,302.021 939.785,302.021 
  "/>
<path clip-path="url(#clip252)" d="
M1010.33 129.334 L1010.33 828.718 L1080.87 828.718 L1080.87 129.334 L1010.33 129.334 L1010.33 129.334  Z
  " fill="#009af9" fill-rule="evenodd" fill-opacity="0.7"/>
<polyline clip-path="url(#clip252)" style="stroke:#000000; stroke-width:4; stroke-opacity:1; fill:none" points="
  1010.33,129.334 1010.33,828.718 1080.87,828.718 1080.87,129.334 1010.33,129.334 
  "/>
<path clip-path="url(#clip252)" d="
M1080.87 185.457 L1080.87 828.718 L1151.41 828.718 L1151.41 185.457 L1080.87 185.457 L1080.87 185.457  Z
  " fill="#009af9" fill-rule="evenodd" fill-opacity="0.7"/>
<polyline clip-path="url(#clip252)" style="stroke:#000000; stroke-width:4; stroke-opacity:1; fill:none" points="
  1080.87,185.457 1080.87,828.718 1151.41,828.718 1151.41,185.457 1080.87,185.457 
  "/>
<path clip-path="url(#clip252)" d="
M1151.41 263.167 L1151.41 828.718 L1221.96 828.718 L1221.96 263.167 L1151.41 263.167 L1151.41 263.167  Z
  " fill="#009af9" fill-rule="evenodd" fill-opacity="0.7"/>
<polyline clip-path="url(#clip252)" style="stroke:#000000; stroke-width:4; stroke-opacity:1; fill:none" points="
  1151.41,263.167 1151.41,828.718 1221.96,828.718 1221.96,263.167 1151.41,263.167 
  "/>
<path clip-path="url(#clip252)" d="
M1221.96 427.22 L1221.96 828.718 L1292.5 828.718 L1292.5 427.22 L1221.96 427.22 L1221.96 427.22  Z
  " fill="#009af9" fill-rule="evenodd" fill-opacity="0.7"/>
<polyline clip-path="url(#clip252)" style="stroke:#000000; stroke-width:4; stroke-opacity:1; fill:none" points="
  1221.96,427.22 1221.96,828.718 1292.5,828.718 1292.5,427.22 1221.96,427.22 
  "/>
<path clip-path="url(#clip252)" d="
M1292.5 578.321 L1292.5 828.718 L1363.04 828.718 L1363.04 578.321 L1292.5 578.321 L1292.5 578.321  Z
  " fill="#009af9" fill-rule="evenodd" fill-opacity="0.7"/>
<polyline clip-path="url(#clip252)" style="stroke:#000000; stroke-width:4; stroke-opacity:1; fill:none" points="
  1292.5,578.321 1292.5,828.718 1363.04,828.718 1363.04,578.321 1292.5,578.321 
  "/>
<path clip-path="url(#clip252)" d="
M1363.04 660.348 L1363.04 828.718 L1433.59 828.718 L1433.59 660.348 L1363.04 660.348 L1363.04 660.348  Z
  " fill="#009af9" fill-rule="evenodd" fill-opacity="0.7"/>
<polyline clip-path="url(#clip252)" style="stroke:#000000; stroke-width:4; stroke-opacity:1; fill:none" points="
  1363.04,660.348 1363.04,828.718 1433.59,828.718 1433.59,660.348 1363.04,660.348 
  "/>
<path clip-path="url(#clip252)" d="
M1433.59 768.278 L1433.59 828.718 L1504.13 828.718 L1504.13 768.278 L1433.59 768.278 L1433.59 768.278  Z
  " fill="#009af9" fill-rule="evenodd" fill-opacity="0.7"/>
<polyline clip-path="url(#clip252)" style="stroke:#000000; stroke-width:4; stroke-opacity:1; fill:none" points="
  1433.59,768.278 1433.59,828.718 1504.13,828.718 1504.13,768.278 1433.59,768.278 
  "/>
<path clip-path="url(#clip252)" d="
M1504.13 802.815 L1504.13 828.718 L1574.67 828.718 L1574.67 802.815 L1504.13 802.815 L1504.13 802.815  Z
  " fill="#009af9" fill-rule="evenodd" fill-opacity="0.7"/>
<polyline clip-path="url(#clip252)" style="stroke:#000000; stroke-width:4; stroke-opacity:1; fill:none" points="
  1504.13,802.815 1504.13,828.718 1574.67,828.718 1574.67,802.815 1504.13,802.815 
  "/>
<path clip-path="url(#clip252)" d="
M1574.67 815.767 L1574.67 828.718 L1645.22 828.718 L1645.22 815.767 L1574.67 815.767 L1574.67 815.767  Z
  " fill="#009af9" fill-rule="evenodd" fill-opacity="0.7"/>
<polyline clip-path="url(#clip252)" style="stroke:#000000; stroke-width:4; stroke-opacity:1; fill:none" points="
  1574.67,815.767 1574.67,828.718 1645.22,828.718 1645.22,815.767 1574.67,815.767 
  "/>
<path clip-path="url(#clip252)" d="
M1645.22 828.718 L1645.22 828.718 L1715.76 828.718 L1715.76 828.718 L1645.22 828.718 L1645.22 828.718  Z
  " fill="#009af9" fill-rule="evenodd" fill-opacity="0.7"/>
<polyline clip-path="url(#clip252)" style="stroke:#000000; stroke-width:4; stroke-opacity:1; fill:none" points="
  1645.22,828.718 1645.22,828.718 1715.76,828.718 1645.22,828.718 
  "/>
<path clip-path="url(#clip252)" d="
M1715.76 824.401 L1715.76 828.718 L1786.3 828.718 L1786.3 824.401 L1715.76 824.401 L1715.76 824.401  Z
  " fill="#009af9" fill-rule="evenodd" fill-opacity="0.7"/>
<polyline clip-path="url(#clip252)" style="stroke:#000000; stroke-width:4; stroke-opacity:1; fill:none" points="
  1715.76,824.401 1715.76,828.718 1786.3,828.718 1786.3,824.401 1715.76,824.401 
  "/>
<path clip-path="url(#clip252)" d="
M1786.3 824.401 L1786.3 828.718 L1856.85 828.718 L1856.85 824.401 L1786.3 824.401 L1786.3 824.401  Z
  " fill="#009af9" fill-rule="evenodd" fill-opacity="0.7"/>
<polyline clip-path="url(#clip252)" style="stroke:#000000; stroke-width:4; stroke-opacity:1; fill:none" points="
  1786.3,824.401 1786.3,828.718 1856.85,828.718 1856.85,824.401 1786.3,824.401 
  "/>
</svg>
