<?xml version="1.0" encoding="utf-8"?>
<svg xmlns="http://www.w3.org/2000/svg" xmlns:xlink="http://www.w3.org/1999/xlink" width="600" height="400" viewBox="0 0 2400 1600">
<defs>
  <clipPath id="clip100">
    <rect x="0" y="0" width="2400" height="1600"/>
  </clipPath>
</defs>
<path clip-path="url(#clip100)" d="
M0 1600 L2400 1600 L2400 0 L0 0  Z
  " fill="#ffffff" fill-rule="evenodd" fill-opacity="1"/>
<defs>
  <clipPath id="clip101">
    <rect x="480" y="0" width="1681" height="1600"/>
  </clipPath>
</defs>
<path clip-path="url(#clip100)" d="
M112.177 1486.45 L2352.76 1486.45 L2352.76 47.2441 L112.177 47.2441  Z
  " fill="#ffffff" fill-rule="evenodd" fill-opacity="1"/>
<defs>
  <clipPath id="clip102">
    <rect x="112" y="47" width="2242" height="1440"/>
  </clipPath>
</defs>
<polyline clip-path="url(#clip102)" style="stroke:#000000; stroke-width:2; stroke-opacity:0.1; fill:none" points="
  175.59,1486.45 175.59,47.2441 
  "/>
<polyline clip-path="url(#clip102)" style="stroke:#000000; stroke-width:2; stroke-opacity:0.1; fill:none" points="
  704.028,1486.45 704.028,47.2441 
  "/>
<polyline clip-path="url(#clip102)" style="stroke:#000000; stroke-width:2; stroke-opacity:0.1; fill:none" points="
  1232.47,1486.45 1232.47,47.2441 
  "/>
<polyline clip-path="url(#clip102)" style="stroke:#000000; stroke-width:2; stroke-opacity:0.1; fill:none" points="
  1760.9,1486.45 1760.9,47.2441 
  "/>
<polyline clip-path="url(#clip102)" style="stroke:#000000; stroke-width:2; stroke-opacity:0.1; fill:none" points="
  2289.34,1486.45 2289.34,47.2441 
  "/>
<polyline clip-path="url(#clip102)" style="stroke:#000000; stroke-width:2; stroke-opacity:0.1; fill:none" points="
  112.177,1445.85 2352.76,1445.85 
  "/>
<polyline clip-path="url(#clip102)" style="stroke:#000000; stroke-width:2; stroke-opacity:0.1; fill:none" points="
  112.177,1049.11 2352.76,1049.11 
  "/>
<polyline clip-path="url(#clip102)" style="stroke:#000000; stroke-width:2; stroke-opacity:0.1; fill:none" points="
  112.177,652.382 2352.76,652.382 
  "/>
<polyline clip-path="url(#clip102)" style="stroke:#000000; stroke-width:2; stroke-opacity:0.1; fill:none" points="
  112.177,255.65 2352.76,255.65 
  "/>
<polyline clip-path="url(#clip100)" style="stroke:#000000; stroke-width:4; stroke-opacity:1; fill:none" points="
  112.177,1486.45 2352.76,1486.45 
  "/>
<polyline clip-path="url(#clip100)" style="stroke:#000000; stroke-width:4; stroke-opacity:1; fill:none" points="
  112.177,1486.45 112.177,47.2441 
  "/>
<polyline clip-path="url(#clip100)" style="stroke:#000000; stroke-width:4; stroke-opacity:1; fill:none" points="
  175.59,1486.45 175.59,1469.18 
  "/>
<polyline clip-path="url(#clip100)" style="stroke:#000000; stroke-width:4; stroke-opacity:1; fill:none" points="
  704.028,1486.45 704.028,1469.18 
  "/>
<polyline clip-path="url(#clip100)" style="stroke:#000000; stroke-width:4; stroke-opacity:1; fill:none" points="
  1232.47,1486.45 1232.47,1469.18 
  "/>
<polyline clip-path="url(#clip100)" style="stroke:#000000; stroke-width:4; stroke-opacity:1; fill:none" points="
  1760.9,1486.45 1760.9,1469.18 
  "/>
<polyline clip-path="url(#clip100)" style="stroke:#000000; stroke-width:4; stroke-opacity:1; fill:none" points="
  2289.34,1486.45 2289.34,1469.18 
  "/>
<polyline clip-path="url(#clip100)" style="stroke:#000000; stroke-width:4; stroke-opacity:1; fill:none" points="
  112.177,1445.85 139.064,1445.85 
  "/>
<polyline clip-path="url(#clip100)" style="stroke:#000000; stroke-width:4; stroke-opacity:1; fill:none" points="
  112.177,1049.11 139.064,1049.11 
  "/>
<polyline clip-path="url(#clip100)" style="stroke:#000000; stroke-width:4; stroke-opacity:1; fill:none" points="
  112.177,652.382 139.064,652.382 
  "/>
<polyline clip-path="url(#clip100)" style="stroke:#000000; stroke-width:4; stroke-opacity:1; fill:none" points="
  112.177,255.65 139.064,255.65 
  "/>
<path clip-path="url(#clip100)" d="M 0 0 M157.106 1508.44 Q153.495 1508.44 151.666 1512 Q149.861 1515.55 149.861 1522.67 Q149.861 1529.78 151.666 1533.35 Q153.495 1536.89 157.106 1536.89 Q160.74 1536.89 162.546 1533.35 Q164.375 1529.78 164.375 1522.67 Q164.375 1515.55 162.546 1512 Q160.74 1508.44 157.106 1508.44 M157.106 1504.73 Q162.916 1504.73 165.972 1509.34 Q169.05 1513.92 169.05 1522.67 Q169.05 1531.4 165.972 1536.01 Q162.916 1540.59 157.106 1540.59 Q151.296 1540.59 148.217 1536.01 Q145.162 1531.4 145.162 1522.67 Q145.162 1513.92 148.217 1509.34 Q151.296 1504.73 157.106 1504.73 Z" fill="#000000" fill-rule="evenodd" fill-opacity="1" /><path clip-path="url(#clip100)" d="M 0 0 M174.12 1534.04 L179.004 1534.04 L179.004 1539.92 L174.12 1539.92 L174.12 1534.04 Z" fill="#000000" fill-rule="evenodd" fill-opacity="1" /><path clip-path="url(#clip100)" d="M 0 0 M194.073 1508.44 Q190.462 1508.44 188.634 1512 Q186.828 1515.55 186.828 1522.67 Q186.828 1529.78 188.634 1533.35 Q190.462 1536.89 194.073 1536.89 Q197.708 1536.89 199.513 1533.35 Q201.342 1529.78 201.342 1522.67 Q201.342 1515.55 199.513 1512 Q197.708 1508.44 194.073 1508.44 M194.073 1504.73 Q199.884 1504.73 202.939 1509.34 Q206.018 1513.92 206.018 1522.67 Q206.018 1531.4 202.939 1536.01 Q199.884 1540.59 194.073 1540.59 Q188.263 1540.59 185.185 1536.01 Q182.129 1531.4 182.129 1522.67 Q182.129 1513.92 185.185 1509.34 Q188.263 1504.73 194.073 1504.73 Z" fill="#000000" fill-rule="evenodd" fill-opacity="1" /><path clip-path="url(#clip100)" d="M 0 0 M680.695 1535.98 L697.014 1535.98 L697.014 1539.92 L675.07 1539.92 L675.07 1535.98 Q677.732 1533.23 682.315 1528.6 Q686.922 1523.95 688.102 1522.61 Q690.348 1520.08 691.227 1518.35 Q692.13 1516.59 692.13 1514.9 Q692.13 1512.14 690.186 1510.41 Q688.264 1508.67 685.163 1508.67 Q682.963 1508.67 680.51 1509.43 Q678.079 1510.2 675.301 1511.75 L675.301 1507.03 Q678.126 1505.89 680.579 1505.31 Q683.033 1504.73 685.07 1504.73 Q690.44 1504.73 693.635 1507.42 Q696.829 1510.11 696.829 1514.6 Q696.829 1516.73 696.019 1518.65 Q695.232 1520.54 693.125 1523.14 Q692.547 1523.81 689.445 1527.03 Q686.343 1530.22 680.695 1535.98 Z" fill="#000000" fill-rule="evenodd" fill-opacity="1" /><path clip-path="url(#clip100)" d="M 0 0 M702.084 1534.04 L706.968 1534.04 L706.968 1539.92 L702.084 1539.92 L702.084 1534.04 Z" fill="#000000" fill-rule="evenodd" fill-opacity="1" /><path clip-path="url(#clip100)" d="M 0 0 M712.084 1505.36 L730.44 1505.36 L730.44 1509.3 L716.366 1509.3 L716.366 1517.77 Q717.385 1517.42 718.403 1517.26 Q719.422 1517.07 720.44 1517.07 Q726.227 1517.07 729.607 1520.24 Q732.986 1523.42 732.986 1528.83 Q732.986 1534.41 729.514 1537.51 Q726.042 1540.59 719.723 1540.59 Q717.547 1540.59 715.278 1540.22 Q713.033 1539.85 710.625 1539.11 L710.625 1534.41 Q712.709 1535.54 714.931 1536.1 Q717.153 1536.66 719.63 1536.66 Q723.635 1536.66 725.972 1534.55 Q728.31 1532.44 728.31 1528.83 Q728.31 1525.22 725.972 1523.11 Q723.635 1521.01 719.63 1521.01 Q717.755 1521.01 715.88 1521.42 Q714.028 1521.84 712.084 1522.72 L712.084 1505.36 Z" fill="#000000" fill-rule="evenodd" fill-opacity="1" /><path clip-path="url(#clip100)" d="M 0 0 M1204.26 1505.36 L1222.62 1505.36 L1222.62 1509.3 L1208.54 1509.3 L1208.54 1517.77 Q1209.56 1517.42 1210.58 1517.26 Q1211.6 1517.07 1212.62 1517.07 Q1218.4 1517.07 1221.78 1520.24 Q1225.16 1523.42 1225.16 1528.83 Q1225.16 1534.41 1221.69 1537.51 Q1218.22 1540.59 1211.9 1540.59 Q1209.72 1540.59 1207.46 1540.22 Q1205.21 1539.85 1202.8 1539.11 L1202.8 1534.41 Q1204.89 1535.54 1207.11 1536.1 Q1209.33 1536.66 1211.81 1536.66 Q1215.81 1536.66 1218.15 1534.55 Q1220.49 1532.44 1220.49 1528.83 Q1220.49 1525.22 1218.15 1523.11 Q1215.81 1521.01 1211.81 1521.01 Q1209.93 1521.01 1208.06 1521.42 Q1206.21 1521.84 1204.26 1522.72 L1204.26 1505.36 Z" fill="#000000" fill-rule="evenodd" fill-opacity="1" /><path clip-path="url(#clip100)" d="M 0 0 M1230.23 1534.04 L1235.12 1534.04 L1235.12 1539.92 L1230.23 1539.92 L1230.23 1534.04 Z" fill="#000000" fill-rule="evenodd" fill-opacity="1" /><path clip-path="url(#clip100)" d="M 0 0 M1250.19 1508.44 Q1246.58 1508.44 1244.75 1512 Q1242.94 1515.55 1242.94 1522.67 Q1242.94 1529.78 1244.75 1533.35 Q1246.58 1536.89 1250.19 1536.89 Q1253.82 1536.89 1255.63 1533.35 Q1257.45 1529.78 1257.45 1522.67 Q1257.45 1515.55 1255.63 1512 Q1253.82 1508.44 1250.19 1508.44 M1250.19 1504.73 Q1256 1504.73 1259.05 1509.34 Q1262.13 1513.92 1262.13 1522.67 Q1262.13 1531.4 1259.05 1536.01 Q1256 1540.59 1250.19 1540.59 Q1244.38 1540.59 1241.3 1536.01 Q1238.24 1531.4 1238.24 1522.67 Q1238.24 1513.92 1241.3 1509.34 Q1244.38 1504.73 1250.19 1504.73 Z" fill="#000000" fill-rule="evenodd" fill-opacity="1" /><path clip-path="url(#clip100)" d="M 0 0 M1731.81 1505.36 L1754.03 1505.36 L1754.03 1507.35 L1741.48 1539.92 L1736.6 1539.92 L1748.4 1509.3 L1731.81 1509.3 L1731.81 1505.36 Z" fill="#000000" fill-rule="evenodd" fill-opacity="1" /><path clip-path="url(#clip100)" d="M 0 0 M1759.1 1534.04 L1763.98 1534.04 L1763.98 1539.92 L1759.1 1539.92 L1759.1 1534.04 Z" fill="#000000" fill-rule="evenodd" fill-opacity="1" /><path clip-path="url(#clip100)" d="M 0 0 M1769.1 1505.36 L1787.46 1505.36 L1787.46 1509.3 L1773.38 1509.3 L1773.38 1517.77 Q1774.4 1517.42 1775.42 1517.26 Q1776.44 1517.07 1777.46 1517.07 Q1783.24 1517.07 1786.62 1520.24 Q1790 1523.42 1790 1528.83 Q1790 1534.41 1786.53 1537.51 Q1783.06 1540.59 1776.74 1540.59 Q1774.56 1540.59 1772.29 1540.22 Q1770.05 1539.85 1767.64 1539.11 L1767.64 1534.41 Q1769.72 1535.54 1771.95 1536.1 Q1774.17 1536.66 1776.65 1536.66 Q1780.65 1536.66 1782.99 1534.55 Q1785.33 1532.44 1785.33 1528.83 Q1785.33 1525.22 1782.99 1523.11 Q1780.65 1521.01 1776.65 1521.01 Q1774.77 1521.01 1772.9 1521.42 Q1771.04 1521.84 1769.1 1522.72 L1769.1 1505.36 Z" fill="#000000" fill-rule="evenodd" fill-opacity="1" /><path clip-path="url(#clip100)" d="M 0 0 M2247.73 1535.98 L2255.37 1535.98 L2255.37 1509.62 L2247.06 1511.29 L2247.06 1507.03 L2255.33 1505.36 L2260 1505.36 L2260 1535.98 L2267.64 1535.98 L2267.64 1539.92 L2247.73 1539.92 L2247.73 1535.98 Z" fill="#000000" fill-rule="evenodd" fill-opacity="1" /><path clip-path="url(#clip100)" d="M 0 0 M2282.71 1508.44 Q2279.1 1508.44 2277.27 1512 Q2275.47 1515.55 2275.47 1522.67 Q2275.47 1529.78 2277.27 1533.35 Q2279.1 1536.89 2282.71 1536.89 Q2286.35 1536.89 2288.15 1533.35 Q2289.98 1529.78 2289.98 1522.67 Q2289.98 1515.55 2288.15 1512 Q2286.35 1508.44 2282.71 1508.44 M2282.71 1504.73 Q2288.52 1504.73 2291.58 1509.34 Q2294.66 1513.92 2294.66 1522.67 Q2294.66 1531.4 2291.58 1536.01 Q2288.52 1540.59 2282.71 1540.59 Q2276.9 1540.59 2273.82 1536.01 Q2270.77 1531.4 2270.77 1522.67 Q2270.77 1513.92 2273.82 1509.34 Q2276.9 1504.73 2282.71 1504.73 Z" fill="#000000" fill-rule="evenodd" fill-opacity="1" /><path clip-path="url(#clip100)" d="M 0 0 M2299.73 1534.04 L2304.61 1534.04 L2304.61 1539.92 L2299.73 1539.92 L2299.73 1534.04 Z" fill="#000000" fill-rule="evenodd" fill-opacity="1" /><path clip-path="url(#clip100)" d="M 0 0 M2319.68 1508.44 Q2316.07 1508.44 2314.24 1512 Q2312.43 1515.55 2312.43 1522.67 Q2312.43 1529.78 2314.24 1533.35 Q2316.07 1536.89 2319.68 1536.89 Q2323.31 1536.89 2325.12 1533.35 Q2326.95 1529.78 2326.95 1522.67 Q2326.95 1515.55 2325.12 1512 Q2323.31 1508.44 2319.68 1508.44 M2319.68 1504.73 Q2325.49 1504.73 2328.54 1509.34 Q2331.62 1513.92 2331.62 1522.67 Q2331.62 1531.4 2328.54 1536.01 Q2325.49 1540.59 2319.68 1540.59 Q2313.87 1540.59 2310.79 1536.01 Q2307.73 1531.4 2307.73 1522.67 Q2307.73 1513.92 2310.79 1509.34 Q2313.87 1504.73 2319.68 1504.73 Z" fill="#000000" fill-rule="evenodd" fill-opacity="1" /><path clip-path="url(#clip100)" d="M 0 0 M76.2328 1431.65 Q72.6217 1431.65 70.793 1435.21 Q68.9875 1438.75 68.9875 1445.88 Q68.9875 1452.99 70.793 1456.55 Q72.6217 1460.09 76.2328 1460.09 Q79.867 1460.09 81.6726 1456.55 Q83.5013 1452.99 83.5013 1445.88 Q83.5013 1438.75 81.6726 1435.21 Q79.867 1431.65 76.2328 1431.65 M76.2328 1427.94 Q82.0429 1427.94 85.0985 1432.55 Q88.1772 1437.13 88.1772 1445.88 Q88.1772 1454.61 85.0985 1459.21 Q82.0429 1463.8 76.2328 1463.8 Q70.4226 1463.8 67.344 1459.21 Q64.2884 1454.61 64.2884 1445.88 Q64.2884 1437.13 67.344 1432.55 Q70.4226 1427.94 76.2328 1427.94 Z" fill="#000000" fill-rule="evenodd" fill-opacity="1" /><path clip-path="url(#clip100)" d="M 0 0 M71.8578 1062.46 L88.1772 1062.46 L88.1772 1066.39 L66.2328 1066.39 L66.2328 1062.46 Q68.8949 1059.7 73.4782 1055.08 Q78.0846 1050.42 79.2652 1049.08 Q81.5105 1046.56 82.3902 1044.82 Q83.2929 1043.06 83.2929 1041.37 Q83.2929 1038.62 81.3485 1036.88 Q79.4272 1035.14 76.3254 1035.14 Q74.1263 1035.14 71.6726 1035.91 Q69.2421 1036.67 66.4643 1038.22 L66.4643 1033.5 Q69.2884 1032.37 71.7421 1031.79 Q74.1958 1031.21 76.2328 1031.21 Q81.6031 1031.21 84.7976 1033.89 Q87.992 1036.58 87.992 1041.07 Q87.992 1043.2 87.1818 1045.12 Q86.3948 1047.02 84.2883 1049.61 Q83.7096 1050.28 80.6078 1053.5 Q77.5059 1056.7 71.8578 1062.46 Z" fill="#000000" fill-rule="evenodd" fill-opacity="1" /><path clip-path="url(#clip100)" d="M 0 0 M78.5939 639.176 L66.7884 657.625 L78.5939 657.625 L78.5939 639.176 M77.367 635.102 L83.2466 635.102 L83.2466 657.625 L88.1772 657.625 L88.1772 661.514 L83.2466 661.514 L83.2466 669.662 L78.5939 669.662 L78.5939 661.514 L62.9921 661.514 L62.9921 657 L77.367 635.102 Z" fill="#000000" fill-rule="evenodd" fill-opacity="1" /><path clip-path="url(#clip100)" d="M 0 0 M76.6495 253.787 Q73.5013 253.787 71.6495 255.94 Q69.8208 258.092 69.8208 261.842 Q69.8208 265.569 71.6495 267.745 Q73.5013 269.898 76.6495 269.898 Q79.7976 269.898 81.6263 267.745 Q83.4781 265.569 83.4781 261.842 Q83.4781 258.092 81.6263 255.94 Q79.7976 253.787 76.6495 253.787 M85.9318 239.134 L85.9318 243.393 Q84.1726 242.56 82.367 242.12 Q80.5846 241.68 78.8254 241.68 Q74.1958 241.68 71.7421 244.805 Q69.3115 247.93 68.9643 254.25 Q70.33 252.236 72.3902 251.171 Q74.4504 250.083 76.9272 250.083 Q82.1355 250.083 85.1448 253.254 Q88.1772 256.403 88.1772 261.842 Q88.1772 267.166 85.029 270.384 Q81.8809 273.601 76.6495 273.601 Q70.6541 273.601 67.4828 269.018 Q64.3116 264.412 64.3116 255.685 Q64.3116 247.491 68.2004 242.629 Q72.0893 237.745 78.6402 237.745 Q80.3994 237.745 82.1818 238.092 Q83.9874 238.44 85.9318 239.134 Z" fill="#000000" fill-rule="evenodd" fill-opacity="1" /><path clip-path="url(#clip102)" d="
M175.59 1247.48 L196.727 1268.57 L217.865 1278.75 L239.002 1285.26 L260.14 1301.42 L281.277 1320.42 L302.415 1342.34 L323.553 1365.97 L344.69 1389.41 L365.828 1406.61 
  L386.965 1419.58 L408.103 1426.71 L429.24 1432.73 L450.378 1436.44 L471.515 1438.81 L492.653 1440.06 L513.79 1440.93 L534.928 1441.93 L556.065 1442.6 L577.203 1443.06 
  L598.34 1443.57 L619.478 1443.85 L640.616 1444.06 L661.753 1444.24 L682.891 1444.14 L704.028 1444.32 L725.166 1444.39 L746.303 1444.37 L767.441 1444.48 L788.578 1444.42 
  L809.716 1444.4 L830.853 1444.4 L851.991 1444.41 L873.128 1444.27 L894.266 1444.18 L915.404 1444.1 L936.541 1444.05 L957.679 1443.88 L978.816 1443.75 L999.954 1443.64 
  L1021.09 1443.4 L1042.23 1443.06 L1063.37 1442.67 L1084.5 1442.36 L1105.64 1441.91 L1126.78 1441.61 L1147.92 1441.16 L1169.05 1440.22 L1190.19 1439.64 L1211.33 1438.82 
  L1232.47 1438.33 L1253.6 1437.28 L1274.74 1436.17 L1295.88 1434.73 L1317.02 1433.32 L1338.15 1430.77 L1359.29 1429.42 L1380.43 1428.86 L1401.57 1429.35 L1422.7 1430.25 
  L1443.84 1431.21 L1464.98 1430.59 L1486.12 1429.47 L1507.25 1430.04 L1528.39 1432.53 L1549.53 1435.65 L1570.67 1437.05 L1591.8 1438.79 L1612.94 1439.72 L1634.08 1440.64 
  L1655.22 1442.04 L1676.35 1442.34 L1697.49 1442.45 L1718.63 1443.01 L1739.77 1443.63 L1760.9 1444.35 L1782.04 1444.32 L1803.18 1444.49 L1824.32 1444.69 L1845.46 1444.86 
  L1866.59 1444.94 L1887.73 1445.12 L1908.87 1445.19 L1930.01 1445.28 L1951.14 1445.4 L1972.28 1445.47 L1993.42 1445.5 L2014.56 1445.49 L2035.69 1445.55 L2056.83 1445.55 
  L2077.97 1445.58 L2099.11 1445.61 L2120.24 1445.63 L2141.38 1445.64 L2162.52 1445.65 L2183.66 1445.66 L2204.79 1445.66 L2225.93 1445.67 L2247.07 1445.66 L2268.21 1445.72 
  L2289.34 1445.7 L2289.34 1299.83 L2268.21 1306.23 L2247.07 1308.13 L2225.93 1307.64 L2204.79 1312.52 L2183.66 1320.71 L2162.52 1325.31 L2141.38 1328.68 L2120.24 1329.49 
  L2099.11 1333.41 L2077.97 1334.86 L2056.83 1338.37 L2035.69 1337.68 L2014.56 1321.36 L1993.42 1305.74 L1972.28 1304.06 L1951.14 1257.39 L1930.01 1245.59 L1908.87 1215.12 
  L1887.73 1206.31 L1866.59 1174.58 L1845.46 1151.84 L1824.32 1143.54 L1803.18 1125.02 L1782.04 1122 L1760.9 1114.31 L1739.77 1101.7 L1718.63 1106.81 L1697.49 1104.46 
  L1676.35 1113.14 L1655.22 1136.2 L1634.08 1138.48 L1612.94 1148.29 L1591.8 1155.2 L1570.67 1153.61 L1549.53 1151.46 L1528.39 1146.48 L1507.25 1136.3 L1486.12 1148.11 
  L1464.98 1167.92 L1443.84 1163.46 L1422.7 1169.13 L1401.57 1172.26 L1380.43 1162.71 L1359.29 1174.42 L1338.15 1180.96 L1317.02 1201.95 L1295.88 1223.36 L1274.74 1229.07 
  L1253.6 1236.59 L1232.47 1244.64 L1211.33 1260.33 L1190.19 1268.63 L1169.05 1277.92 L1147.92 1288.12 L1126.78 1300.06 L1105.64 1308.63 L1084.5 1313.88 L1063.37 1322.09 
  L1042.23 1332.7 L1021.09 1346.03 L999.954 1354.06 L978.816 1363.34 L957.679 1367.86 L936.541 1372.21 L915.404 1376.99 L894.266 1381.74 L873.128 1385.86 L851.991 1391.6 
  L830.853 1395.04 L809.716 1397.12 L788.578 1399.23 L767.441 1399.95 L746.303 1402.05 L725.166 1402.16 L704.028 1405.41 L682.891 1404.13 L661.753 1405.86 L640.616 1406.23 
  L619.478 1403.53 L598.34 1403.55 L577.203 1402.1 L556.065 1398.85 L534.928 1397.19 L513.79 1394.24 L492.653 1388.55 L471.515 1382.36 L450.378 1373.68 L429.24 1359.91 
  L408.103 1351.66 L386.965 1336.53 L365.828 1314.98 L344.69 1292.47 L323.553 1266.66 L302.415 1243.28 L281.277 1210.87 L260.14 1191.24 L239.002 1187.45 L217.865 1190.6 
  L196.727 1206.21 L175.59 1247.48  Z
  " fill="#009af9" fill-rule="evenodd" fill-opacity="0.2"/>
<polyline clip-path="url(#clip102)" style="stroke:#009af9; stroke-width:12; stroke-opacity:1; fill:none" points="
  175.59,1247.48 196.727,1239.28 217.865,1236.48 239.002,1239.17 260.14,1250.48 281.277,1271.14 302.415,1296.77 323.553,1322.98 344.69,1347.26 365.828,1367.07 
  386.965,1382.78 408.103,1395.09 429.24,1404.27 450.378,1411.31 471.515,1416.81 492.653,1420.58 513.79,1423.64 534.928,1426.02 556.065,1427.61 577.203,1428.89 
  598.34,1430.03 619.478,1430.63 640.616,1431.09 661.753,1431.29 682.891,1431.13 704.028,1431.01 725.166,1430.8 746.303,1430.4 767.441,1429.98 788.578,1429.46 
  809.716,1428.75 830.853,1427.78 851.991,1426.66 873.128,1425.41 894.266,1423.94 915.404,1422.38 936.541,1420.66 957.679,1418.83 978.816,1416.6 999.954,1413.76 
  1021.09,1410.61 1042.23,1407.16 1063.37,1403.48 1084.5,1399.71 1105.64,1395.68 1126.78,1391.42 1147.92,1386.8 1169.05,1381.59 1190.19,1375.95 1211.33,1370.67 
  1232.47,1365.16 1253.6,1359.94 1274.74,1354.71 1295.88,1349.53 1317.02,1344.3 1338.15,1338.69 1359.29,1332.91 1380.43,1327.93 1401.57,1325.38 1422.7,1322.88 
  1443.84,1321.63 1464.98,1321.28 1486.12,1320.52 1507.25,1320.14 1528.39,1321.22 1549.53,1323.1 1570.67,1325.74 1591.8,1329.12 1612.94,1332.4 1634.08,1336.7 
  1655.22,1340.25 1676.35,1342.48 1697.49,1345.15 1718.63,1348.6 1739.77,1352.71 1760.9,1359.45 1782.04,1366.24 1803.18,1372.87 1824.32,1378.72 1845.46,1385.28 
  1866.59,1390.78 1887.73,1395.6 1908.87,1398.64 1930.01,1402.26 1951.14,1405.49 1972.28,1408.13 1993.42,1410.41 2014.56,1412.04 2035.69,1413.2 2056.83,1414.47 
  2077.97,1415.37 2099.11,1415.92 2120.24,1415.94 2141.38,1415.32 2162.52,1414.36 2183.66,1413.21 2204.79,1412.24 2225.93,1410.9 2247.07,1409.38 2268.21,1408.07 
  2289.34,1406.33 
  "/>
<path clip-path="url(#clip102)" d="
M175.59 1247.48 L196.727 1238.63 L217.865 1207.75 L239.002 1170.21 L260.14 1128.71 L281.277 1074.89 L302.415 1037.31 L323.553 993.072 L344.69 975.368 L365.828 959.612 
  L386.965 967.678 L408.103 960.038 L429.24 992.269 L450.378 1015.99 L471.515 1038.09 L492.653 1064.52 L513.79 1092.27 L534.928 1116.17 L556.065 1132.36 L577.203 1160.07 
  L598.34 1189.57 L619.478 1206.49 L640.616 1223.09 L661.753 1242.77 L682.891 1259.76 L704.028 1279.77 L725.166 1297.61 L746.303 1312.2 L767.441 1320.88 L788.578 1331.56 
  L809.716 1341.37 L830.853 1351.38 L851.991 1357.95 L873.128 1368.03 L894.266 1375.25 L915.404 1381.07 L936.541 1384.65 L957.679 1391.99 L978.816 1397.12 L999.954 1400.98 
  L1021.09 1404.9 L1042.23 1406.38 L1063.37 1411.35 L1084.5 1412.22 L1105.64 1414.54 L1126.78 1417.14 L1147.92 1418.75 L1169.05 1420.58 L1190.19 1422.41 L1211.33 1424.05 
  L1232.47 1425.73 L1253.6 1426.45 L1274.74 1426.64 L1295.88 1427.32 L1317.02 1428.26 L1338.15 1428.97 L1359.29 1429.73 L1380.43 1430.8 L1401.57 1431.7 L1422.7 1432.36 
  L1443.84 1433.13 L1464.98 1432.82 L1486.12 1432.91 L1507.25 1433.48 L1528.39 1432.77 L1549.53 1433.18 L1570.67 1431.79 L1591.8 1431.85 L1612.94 1431.44 L1634.08 1429.91 
  L1655.22 1427.45 L1676.35 1424.26 L1697.49 1422.41 L1718.63 1417.58 L1739.77 1418.63 L1760.9 1412.92 L1782.04 1402.27 L1803.18 1394.62 L1824.32 1378.14 L1845.46 1368.28 
  L1866.59 1358.56 L1887.73 1362.99 L1908.87 1357 L1930.01 1368.92 L1951.14 1370.56 L1972.28 1370.81 L1993.42 1374.69 L2014.56 1376.98 L2035.69 1379.69 L2056.83 1385.82 
  L2077.97 1387.5 L2099.11 1391.91 L2120.24 1392.49 L2141.38 1397.24 L2162.52 1399.58 L2183.66 1405.21 L2204.79 1406.34 L2225.93 1409.13 L2247.07 1411.85 L2268.21 1414.53 
  L2289.34 1415.81 L2289.34 781.398 L2268.21 837.745 L2247.07 815.805 L2225.93 832.262 L2204.79 746.771 L2183.66 759.297 L2162.52 668.859 L2141.38 644.99 L2120.24 521.681 
  L2099.11 470.108 L2077.97 448.008 L2056.83 397.957 L2035.69 345.552 L2014.56 297.476 L1993.42 287.116 L1972.28 232.899 L1951.14 191.806 L1930.01 197.674 L1908.87 105.902 
  L1887.73 100.188 L1866.59 87.9763 L1845.46 140.286 L1824.32 165.213 L1803.18 131.475 L1782.04 221.787 L1760.9 204.793 L1739.77 271.877 L1718.63 312.247 L1697.49 243.057 
  L1676.35 247.714 L1655.22 241.933 L1634.08 247.665 L1612.94 266.832 L1591.8 285.796 L1570.67 348.395 L1549.53 331.366 L1528.39 390.891 L1507.25 416.169 L1486.12 451.099 
  L1464.98 479.211 L1443.84 548.883 L1422.7 595.18 L1401.57 649.941 L1380.43 699.18 L1359.29 797.224 L1338.15 788.846 L1317.02 822.796 L1295.88 840.081 L1274.74 896.498 
  L1253.6 947.703 L1232.47 974.229 L1211.33 1052.26 L1190.19 1092.69 L1169.05 1117.62 L1147.92 1149.95 L1126.78 1163.04 L1105.64 1182.15 L1084.5 1223.87 L1063.37 1235.89 
  L1042.23 1227.69 L1021.09 1223.62 L999.954 1229.77 L978.816 1219.26 L957.679 1206.1 L936.541 1206.71 L915.404 1201.86 L894.266 1184.71 L873.128 1160.5 L851.991 1146.67 
  L830.853 1129.11 L809.716 1102.09 L788.578 1080.16 L767.441 1049.35 L746.303 1029.33 L725.166 1006.31 L704.028 972.328 L682.891 942.319 L661.753 895.88 L640.616 856.199 
  L619.478 819.313 L598.34 738.157 L577.203 716.624 L556.065 667.303 L534.928 616.142 L513.79 540.313 L492.653 508.909 L471.515 455.724 L450.378 390.796 L429.24 367.477 
  L408.103 332.915 L386.965 281.353 L365.828 270.977 L344.69 289.175 L323.553 376.993 L302.415 488.33 L281.277 623.96 L260.14 804.703 L239.002 961.386 L217.865 1075.8 
  L196.727 1164.7 L175.59 1247.48  Z
  " fill="#e26f46" fill-rule="evenodd" fill-opacity="0.2"/>
<polyline clip-path="url(#clip102)" style="stroke:#e26f46; stroke-width:12; stroke-opacity:1; fill:none" points="
  175.59,1247.48 196.727,1201.88 217.865,1143.62 239.002,1070.82 260.14,982.933 281.277,889.165 302.415,802.493 323.553,727.79 344.69,681.602 365.828,662.749 
  386.965,668.041 408.103,681.548 429.24,709.003 450.378,743.969 471.515,779.185 492.653,814.868 513.79,854.751 534.928,898.582 556.065,937.096 577.203,976.419 
  598.34,1010.68 619.478,1046.26 640.616,1075.01 661.753,1103.77 682.891,1130.02 704.028,1153.05 725.166,1174.18 746.303,1192.59 767.441,1209.76 788.578,1227.44 
  809.716,1245.4 830.853,1260.45 851.991,1273.7 873.128,1285.2 894.266,1295.69 915.404,1305.6 936.541,1313.17 957.679,1321.19 978.816,1328.07 999.954,1333.51 
  1021.09,1339.01 1042.23,1343.49 1063.37,1347.03 1084.5,1348.71 1105.64,1348.72 1126.78,1347.88 1147.92,1345.76 1169.05,1342.38 1190.19,1337.67 1211.33,1331.22 
  1232.47,1323.39 1253.6,1314.89 1274.74,1303.76 1295.88,1292.25 1317.02,1280.07 1338.15,1266.97 1359.29,1252.15 1380.43,1232.54 1401.57,1211.7 1422.7,1190.21 
  1443.84,1164.28 1464.98,1139.23 1486.12,1114.1 1507.25,1092.8 1528.39,1070.84 1549.53,1050.52 1570.67,1025.17 1591.8,1005.32 1612.94,985.524 1634.08,971.805 
  1655.22,962.314 1676.35,955.591 1697.49,951.37 1718.63,948.376 1739.77,937.313 1760.9,926.075 1782.04,919.767 1803.18,915.859 1824.32,918.962 1845.46,926.064 
  1866.59,939.821 1887.73,953.993 1908.87,970.015 1930.01,987.083 1951.14,1003.68 1972.28,1022.35 1993.42,1040.55 2014.56,1062.36 2035.69,1082.13 2056.83,1101.43 
  2077.97,1116.58 2099.11,1130.96 2120.24,1148.85 2141.38,1169.39 2162.52,1185.27 2183.66,1200.27 2204.79,1210.88 2225.93,1222.34 2247.07,1232.64 2268.21,1242.85 
  2289.34,1250.52 
  "/>
</svg>
