<?xml version="1.0" encoding="utf-8"?>
<svg xmlns="http://www.w3.org/2000/svg" xmlns:xlink="http://www.w3.org/1999/xlink" width="600" height="400" viewBox="0 0 2400 1600">
<defs>
  <clipPath id="clip590">
    <rect x="0" y="0" width="2400" height="1600"/>
  </clipPath>
</defs>
<path clip-path="url(#clip590)" d="
M0 1600 L2400 1600 L2400 0 L0 0  Z
  " fill="#ffffff" fill-rule="evenodd" fill-opacity="1"/>
<defs>
  <clipPath id="clip591">
    <rect x="480" y="0" width="1681" height="1600"/>
  </clipPath>
</defs>
<path clip-path="url(#clip590)" d="
M112.177 1486.45 L2352.76 1486.45 L2352.76 47.2441 L112.177 47.2441  Z
  " fill="#ffffff" fill-rule="evenodd" fill-opacity="1"/>
<defs>
  <clipPath id="clip592">
    <rect x="112" y="47" width="2242" height="1440"/>
  </clipPath>
</defs>
<polyline clip-path="url(#clip592)" style="stroke:#000000; stroke-width:2; stroke-opacity:0.1; fill:none" points="
  175.59,1486.45 175.59,47.2441 
  "/>
<polyline clip-path="url(#clip592)" style="stroke:#000000; stroke-width:2; stroke-opacity:0.1; fill:none" points="
  704.028,1486.45 704.028,47.2441 
  "/>
<polyline clip-path="url(#clip592)" style="stroke:#000000; stroke-width:2; stroke-opacity:0.1; fill:none" points="
  1232.47,1486.45 1232.47,47.2441 
  "/>
<polyline clip-path="url(#clip592)" style="stroke:#000000; stroke-width:2; stroke-opacity:0.1; fill:none" points="
  1760.9,1486.45 1760.9,47.2441 
  "/>
<polyline clip-path="url(#clip592)" style="stroke:#000000; stroke-width:2; stroke-opacity:0.1; fill:none" points="
  2289.34,1486.45 2289.34,47.2441 
  "/>
<polyline clip-path="url(#clip592)" style="stroke:#000000; stroke-width:2; stroke-opacity:0.1; fill:none" points="
  112.177,1445.94 2352.76,1445.94 
  "/>
<polyline clip-path="url(#clip592)" style="stroke:#000000; stroke-width:2; stroke-opacity:0.1; fill:none" points="
  112.177,1235.5 2352.76,1235.5 
  "/>
<polyline clip-path="url(#clip592)" style="stroke:#000000; stroke-width:2; stroke-opacity:0.1; fill:none" points="
  112.177,1025.07 2352.76,1025.07 
  "/>
<polyline clip-path="url(#clip592)" style="stroke:#000000; stroke-width:2; stroke-opacity:0.1; fill:none" points="
  112.177,814.637 2352.76,814.637 
  "/>
<polyline clip-path="url(#clip592)" style="stroke:#000000; stroke-width:2; stroke-opacity:0.1; fill:none" points="
  112.177,604.203 2352.76,604.203 
  "/>
<polyline clip-path="url(#clip592)" style="stroke:#000000; stroke-width:2; stroke-opacity:0.1; fill:none" points="
  112.177,393.77 2352.76,393.77 
  "/>
<polyline clip-path="url(#clip592)" style="stroke:#000000; stroke-width:2; stroke-opacity:0.1; fill:none" points="
  112.177,183.336 2352.76,183.336 
  "/>
<polyline clip-path="url(#clip590)" style="stroke:#000000; stroke-width:4; stroke-opacity:1; fill:none" points="
  112.177,1486.45 2352.76,1486.45 
  "/>
<polyline clip-path="url(#clip590)" style="stroke:#000000; stroke-width:4; stroke-opacity:1; fill:none" points="
  112.177,1486.45 112.177,47.2441 
  "/>
<polyline clip-path="url(#clip590)" style="stroke:#000000; stroke-width:4; stroke-opacity:1; fill:none" points="
  175.59,1486.45 175.59,1469.18 
  "/>
<polyline clip-path="url(#clip590)" style="stroke:#000000; stroke-width:4; stroke-opacity:1; fill:none" points="
  704.028,1486.45 704.028,1469.18 
  "/>
<polyline clip-path="url(#clip590)" style="stroke:#000000; stroke-width:4; stroke-opacity:1; fill:none" points="
  1232.47,1486.45 1232.47,1469.18 
  "/>
<polyline clip-path="url(#clip590)" style="stroke:#000000; stroke-width:4; stroke-opacity:1; fill:none" points="
  1760.9,1486.45 1760.9,1469.18 
  "/>
<polyline clip-path="url(#clip590)" style="stroke:#000000; stroke-width:4; stroke-opacity:1; fill:none" points="
  2289.34,1486.45 2289.34,1469.18 
  "/>
<polyline clip-path="url(#clip590)" style="stroke:#000000; stroke-width:4; stroke-opacity:1; fill:none" points="
  112.177,1445.94 139.064,1445.94 
  "/>
<polyline clip-path="url(#clip590)" style="stroke:#000000; stroke-width:4; stroke-opacity:1; fill:none" points="
  112.177,1235.5 139.064,1235.5 
  "/>
<polyline clip-path="url(#clip590)" style="stroke:#000000; stroke-width:4; stroke-opacity:1; fill:none" points="
  112.177,1025.07 139.064,1025.07 
  "/>
<polyline clip-path="url(#clip590)" style="stroke:#000000; stroke-width:4; stroke-opacity:1; fill:none" points="
  112.177,814.637 139.064,814.637 
  "/>
<polyline clip-path="url(#clip590)" style="stroke:#000000; stroke-width:4; stroke-opacity:1; fill:none" points="
  112.177,604.203 139.064,604.203 
  "/>
<polyline clip-path="url(#clip590)" style="stroke:#000000; stroke-width:4; stroke-opacity:1; fill:none" points="
  112.177,393.77 139.064,393.77 
  "/>
<polyline clip-path="url(#clip590)" style="stroke:#000000; stroke-width:4; stroke-opacity:1; fill:none" points="
  112.177,183.336 139.064,183.336 
  "/>
<path clip-path="url(#clip590)" d="M 0 0 M157.106 1508.44 Q153.495 1508.44 151.666 1512 Q149.861 1515.55 149.861 1522.67 Q149.861 1529.78 151.666 1533.35 Q153.495 1536.89 157.106 1536.89 Q160.74 1536.89 162.546 1533.35 Q164.375 1529.78 164.375 1522.67 Q164.375 1515.55 162.546 1512 Q160.74 1508.44 157.106 1508.44 M157.106 1504.73 Q162.916 1504.73 165.972 1509.34 Q169.05 1513.92 169.05 1522.67 Q169.05 1531.4 165.972 1536.01 Q162.916 1540.59 157.106 1540.59 Q151.296 1540.59 148.217 1536.01 Q145.162 1531.4 145.162 1522.67 Q145.162 1513.92 148.217 1509.34 Q151.296 1504.73 157.106 1504.73 Z" fill="#000000" fill-rule="evenodd" fill-opacity="1" /><path clip-path="url(#clip590)" d="M 0 0 M174.12 1534.04 L179.004 1534.04 L179.004 1539.92 L174.12 1539.92 L174.12 1534.04 Z" fill="#000000" fill-rule="evenodd" fill-opacity="1" /><path clip-path="url(#clip590)" d="M 0 0 M194.073 1508.44 Q190.462 1508.44 188.634 1512 Q186.828 1515.55 186.828 1522.67 Q186.828 1529.78 188.634 1533.35 Q190.462 1536.89 194.073 1536.89 Q197.708 1536.89 199.513 1533.35 Q201.342 1529.78 201.342 1522.67 Q201.342 1515.55 199.513 1512 Q197.708 1508.44 194.073 1508.44 M194.073 1504.73 Q199.884 1504.73 202.939 1509.34 Q206.018 1513.92 206.018 1522.67 Q206.018 1531.4 202.939 1536.01 Q199.884 1540.59 194.073 1540.59 Q188.263 1540.59 185.185 1536.01 Q182.129 1531.4 182.129 1522.67 Q182.129 1513.92 185.185 1509.34 Q188.263 1504.73 194.073 1504.73 Z" fill="#000000" fill-rule="evenodd" fill-opacity="1" /><path clip-path="url(#clip590)" d="M 0 0 M680.695 1535.98 L697.014 1535.98 L697.014 1539.92 L675.07 1539.92 L675.07 1535.98 Q677.732 1533.23 682.315 1528.6 Q686.922 1523.95 688.102 1522.61 Q690.348 1520.08 691.227 1518.35 Q692.13 1516.59 692.13 1514.9 Q692.13 1512.14 690.186 1510.41 Q688.264 1508.67 685.163 1508.67 Q682.963 1508.67 680.51 1509.43 Q678.079 1510.2 675.301 1511.75 L675.301 1507.03 Q678.126 1505.89 680.579 1505.31 Q683.033 1504.73 685.07 1504.73 Q690.44 1504.73 693.635 1507.42 Q696.829 1510.11 696.829 1514.6 Q696.829 1516.73 696.019 1518.65 Q695.232 1520.54 693.125 1523.14 Q692.547 1523.81 689.445 1527.03 Q686.343 1530.22 680.695 1535.98 Z" fill="#000000" fill-rule="evenodd" fill-opacity="1" /><path clip-path="url(#clip590)" d="M 0 0 M702.084 1534.04 L706.968 1534.04 L706.968 1539.92 L702.084 1539.92 L702.084 1534.04 Z" fill="#000000" fill-rule="evenodd" fill-opacity="1" /><path clip-path="url(#clip590)" d="M 0 0 M712.084 1505.36 L730.44 1505.36 L730.44 1509.3 L716.366 1509.3 L716.366 1517.77 Q717.385 1517.42 718.403 1517.26 Q719.422 1517.07 720.44 1517.07 Q726.227 1517.07 729.607 1520.24 Q732.986 1523.42 732.986 1528.83 Q732.986 1534.41 729.514 1537.51 Q726.042 1540.59 719.723 1540.59 Q717.547 1540.59 715.278 1540.22 Q713.033 1539.85 710.625 1539.11 L710.625 1534.41 Q712.709 1535.54 714.931 1536.1 Q717.153 1536.66 719.63 1536.66 Q723.635 1536.66 725.972 1534.55 Q728.31 1532.44 728.31 1528.83 Q728.31 1525.22 725.972 1523.11 Q723.635 1521.01 719.63 1521.01 Q717.755 1521.01 715.88 1521.42 Q714.028 1521.84 712.084 1522.72 L712.084 1505.36 Z" fill="#000000" fill-rule="evenodd" fill-opacity="1" /><path clip-path="url(#clip590)" d="M 0 0 M1204.26 1505.36 L1222.62 1505.36 L1222.62 1509.3 L1208.54 1509.3 L1208.54 1517.77 Q1209.56 1517.42 1210.58 1517.26 Q1211.6 1517.07 1212.62 1517.07 Q1218.4 1517.07 1221.78 1520.24 Q1225.16 1523.42 1225.16 1528.83 Q1225.16 1534.41 1221.69 1537.51 Q1218.22 1540.59 1211.9 1540.59 Q1209.72 1540.59 1207.46 1540.22 Q1205.21 1539.85 1202.8 1539.11 L1202.8 1534.41 Q1204.89 1535.54 1207.11 1536.1 Q1209.33 1536.66 1211.81 1536.66 Q1215.81 1536.66 1218.15 1534.55 Q1220.49 1532.44 1220.49 1528.83 Q1220.49 1525.22 1218.15 1523.11 Q1215.81 1521.01 1211.81 1521.01 Q1209.93 1521.01 1208.06 1521.42 Q1206.21 1521.84 1204.26 1522.72 L1204.26 1505.36 Z" fill="#000000" fill-rule="evenodd" fill-opacity="1" /><path clip-path="url(#clip590)" d="M 0 0 M1230.23 1534.04 L1235.12 1534.04 L1235.12 1539.92 L1230.23 1539.92 L1230.23 1534.04 Z" fill="#000000" fill-rule="evenodd" fill-opacity="1" /><path clip-path="url(#clip590)" d="M 0 0 M1250.19 1508.44 Q1246.58 1508.44 1244.75 1512 Q1242.94 1515.55 1242.94 1522.67 Q1242.94 1529.78 1244.75 1533.35 Q1246.58 1536.89 1250.19 1536.89 Q1253.82 1536.89 1255.63 1533.35 Q1257.45 1529.78 1257.45 1522.67 Q1257.45 1515.55 1255.63 1512 Q1253.82 1508.44 1250.19 1508.44 M1250.19 1504.73 Q1256 1504.73 1259.05 1509.34 Q1262.13 1513.92 1262.13 1522.67 Q1262.13 1531.4 1259.05 1536.01 Q1256 1540.59 1250.19 1540.59 Q1244.38 1540.59 1241.3 1536.01 Q1238.24 1531.4 1238.24 1522.67 Q1238.24 1513.92 1241.3 1509.34 Q1244.38 1504.73 1250.19 1504.73 Z" fill="#000000" fill-rule="evenodd" fill-opacity="1" /><path clip-path="url(#clip590)" d="M 0 0 M1731.81 1505.36 L1754.03 1505.36 L1754.03 1507.35 L1741.48 1539.92 L1736.6 1539.92 L1748.4 1509.3 L1731.81 1509.3 L1731.81 1505.36 Z" fill="#000000" fill-rule="evenodd" fill-opacity="1" /><path clip-path="url(#clip590)" d="M 0 0 M1759.1 1534.04 L1763.98 1534.04 L1763.98 1539.92 L1759.1 1539.92 L1759.1 1534.04 Z" fill="#000000" fill-rule="evenodd" fill-opacity="1" /><path clip-path="url(#clip590)" d="M 0 0 M1769.1 1505.36 L1787.46 1505.36 L1787.46 1509.3 L1773.38 1509.3 L1773.38 1517.77 Q1774.4 1517.42 1775.42 1517.26 Q1776.44 1517.07 1777.46 1517.07 Q1783.24 1517.07 1786.62 1520.24 Q1790 1523.42 1790 1528.83 Q1790 1534.41 1786.53 1537.51 Q1783.06 1540.59 1776.74 1540.59 Q1774.56 1540.59 1772.29 1540.22 Q1770.05 1539.85 1767.64 1539.11 L1767.64 1534.41 Q1769.72 1535.54 1771.95 1536.1 Q1774.17 1536.66 1776.65 1536.66 Q1780.65 1536.66 1782.99 1534.55 Q1785.33 1532.44 1785.33 1528.83 Q1785.33 1525.22 1782.99 1523.11 Q1780.65 1521.01 1776.65 1521.01 Q1774.77 1521.01 1772.9 1521.42 Q1771.04 1521.84 1769.1 1522.72 L1769.1 1505.36 Z" fill="#000000" fill-rule="evenodd" fill-opacity="1" /><path clip-path="url(#clip590)" d="M 0 0 M2247.73 1535.98 L2255.37 1535.98 L2255.37 1509.62 L2247.06 1511.29 L2247.06 1507.03 L2255.33 1505.36 L2260 1505.36 L2260 1535.98 L2267.64 1535.98 L2267.64 1539.92 L2247.73 1539.92 L2247.73 1535.98 Z" fill="#000000" fill-rule="evenodd" fill-opacity="1" /><path clip-path="url(#clip590)" d="M 0 0 M2282.71 1508.44 Q2279.1 1508.44 2277.27 1512 Q2275.47 1515.55 2275.47 1522.67 Q2275.47 1529.78 2277.27 1533.35 Q2279.1 1536.89 2282.71 1536.89 Q2286.35 1536.89 2288.15 1533.35 Q2289.98 1529.78 2289.98 1522.67 Q2289.98 1515.55 2288.15 1512 Q2286.35 1508.44 2282.71 1508.44 M2282.71 1504.73 Q2288.52 1504.73 2291.58 1509.34 Q2294.66 1513.92 2294.66 1522.67 Q2294.66 1531.4 2291.58 1536.01 Q2288.52 1540.59 2282.71 1540.59 Q2276.9 1540.59 2273.82 1536.01 Q2270.77 1531.4 2270.77 1522.67 Q2270.77 1513.92 2273.82 1509.34 Q2276.9 1504.73 2282.71 1504.73 Z" fill="#000000" fill-rule="evenodd" fill-opacity="1" /><path clip-path="url(#clip590)" d="M 0 0 M2299.73 1534.04 L2304.61 1534.04 L2304.61 1539.92 L2299.73 1539.92 L2299.73 1534.04 Z" fill="#000000" fill-rule="evenodd" fill-opacity="1" /><path clip-path="url(#clip590)" d="M 0 0 M2319.68 1508.44 Q2316.07 1508.44 2314.24 1512 Q2312.43 1515.55 2312.43 1522.67 Q2312.43 1529.78 2314.24 1533.35 Q2316.07 1536.89 2319.68 1536.89 Q2323.31 1536.89 2325.12 1533.35 Q2326.95 1529.78 2326.95 1522.67 Q2326.95 1515.55 2325.12 1512 Q2323.31 1508.44 2319.68 1508.44 M2319.68 1504.73 Q2325.49 1504.73 2328.54 1509.34 Q2331.62 1513.92 2331.62 1522.67 Q2331.62 1531.4 2328.54 1536.01 Q2325.49 1540.59 2319.68 1540.59 Q2313.87 1540.59 2310.79 1536.01 Q2307.73 1531.4 2307.73 1522.67 Q2307.73 1513.92 2310.79 1509.34 Q2313.87 1504.73 2319.68 1504.73 Z" fill="#000000" fill-rule="evenodd" fill-opacity="1" /><path clip-path="url(#clip590)" d="M 0 0 M76.2328 1431.74 Q72.6217 1431.74 70.793 1435.3 Q68.9875 1438.84 68.9875 1445.97 Q68.9875 1453.08 70.793 1456.64 Q72.6217 1460.19 76.2328 1460.19 Q79.867 1460.19 81.6726 1456.64 Q83.5013 1453.08 83.5013 1445.97 Q83.5013 1438.84 81.6726 1435.3 Q79.867 1431.74 76.2328 1431.74 M76.2328 1428.03 Q82.0429 1428.03 85.0985 1432.64 Q88.1772 1437.22 88.1772 1445.97 Q88.1772 1454.7 85.0985 1459.31 Q82.0429 1463.89 76.2328 1463.89 Q70.4226 1463.89 67.344 1459.31 Q64.2884 1454.7 64.2884 1445.97 Q64.2884 1437.22 67.344 1432.64 Q70.4226 1428.03 76.2328 1428.03 Z" fill="#000000" fill-rule="evenodd" fill-opacity="1" /><path clip-path="url(#clip590)" d="M 0 0 M68.2699 1248.85 L75.9087 1248.85 L75.9087 1222.48 L67.5986 1224.15 L67.5986 1219.89 L75.8624 1218.22 L80.5383 1218.22 L80.5383 1248.85 L88.1772 1248.85 L88.1772 1252.78 L68.2699 1252.78 L68.2699 1248.85 Z" fill="#000000" fill-rule="evenodd" fill-opacity="1" /><path clip-path="url(#clip590)" d="M 0 0 M71.8578 1038.42 L88.1772 1038.42 L88.1772 1042.35 L66.2328 1042.35 L66.2328 1038.42 Q68.8949 1035.66 73.4782 1031.03 Q78.0846 1026.38 79.2652 1025.04 Q81.5105 1022.51 82.3902 1020.78 Q83.2929 1019.02 83.2929 1017.33 Q83.2929 1014.57 81.3485 1012.84 Q79.4272 1011.1 76.3254 1011.1 Q74.1263 1011.1 71.6726 1011.86 Q69.2421 1012.63 66.4643 1014.18 L66.4643 1009.46 Q69.2884 1008.32 71.7421 1007.74 Q74.1958 1007.17 76.2328 1007.17 Q81.6031 1007.17 84.7976 1009.85 Q87.992 1012.54 87.992 1017.03 Q87.992 1019.16 87.1818 1021.08 Q86.3948 1022.98 84.2883 1025.57 Q83.7096 1026.24 80.6078 1029.46 Q77.5059 1032.65 71.8578 1038.42 Z" fill="#000000" fill-rule="evenodd" fill-opacity="1" /><path clip-path="url(#clip590)" d="M 0 0 M81.0476 813.283 Q84.404 814.001 86.279 816.269 Q88.1772 818.538 88.1772 821.871 Q88.1772 826.987 84.6587 829.788 Q81.1402 832.588 74.6587 832.588 Q72.4828 832.588 70.168 832.149 Q67.8764 831.732 65.4227 830.875 L65.4227 826.362 Q67.3671 827.496 69.6819 828.075 Q71.9967 828.653 74.5198 828.653 Q78.918 828.653 81.2096 826.917 Q83.5244 825.181 83.5244 821.871 Q83.5244 818.815 81.3717 817.102 Q79.242 815.366 75.4226 815.366 L71.3949 815.366 L71.3949 811.524 L75.6078 811.524 Q79.0569 811.524 80.8855 810.158 Q82.7142 808.769 82.7142 806.177 Q82.7142 803.515 80.8161 802.102 Q78.9411 800.667 75.4226 800.667 Q73.5013 800.667 71.3023 801.084 Q69.1032 801.501 66.4643 802.38 L66.4643 798.214 Q69.1264 797.473 71.4412 797.103 Q73.7791 796.732 75.8393 796.732 Q81.1633 796.732 84.2652 799.163 Q87.367 801.57 87.367 805.69 Q87.367 808.561 85.7235 810.552 Q84.08 812.519 81.0476 813.283 Z" fill="#000000" fill-rule="evenodd" fill-opacity="1" /><path clip-path="url(#clip590)" d="M 0 0 M78.5939 590.998 L66.7884 609.447 L78.5939 609.447 L78.5939 590.998 M77.367 586.923 L83.2466 586.923 L83.2466 609.447 L88.1772 609.447 L88.1772 613.335 L83.2466 613.335 L83.2466 621.483 L78.5939 621.483 L78.5939 613.335 L62.9921 613.335 L62.9921 608.822 L77.367 586.923 Z" fill="#000000" fill-rule="evenodd" fill-opacity="1" /><path clip-path="url(#clip590)" d="M 0 0 M67.2745 376.49 L85.6309 376.49 L85.6309 380.425 L71.5569 380.425 L71.5569 388.897 Q72.5754 388.55 73.5939 388.388 Q74.6124 388.203 75.6309 388.203 Q81.418 388.203 84.7976 391.374 Q88.1772 394.545 88.1772 399.962 Q88.1772 405.541 84.705 408.642 Q81.2328 411.721 74.9134 411.721 Q72.7374 411.721 70.4689 411.351 Q68.2236 410.98 65.8162 410.24 L65.8162 405.541 Q67.8995 406.675 70.1217 407.23 Q72.3439 407.786 74.8208 407.786 Q78.8254 407.786 81.1633 405.679 Q83.5013 403.573 83.5013 399.962 Q83.5013 396.351 81.1633 394.244 Q78.8254 392.138 74.8208 392.138 Q72.9458 392.138 71.0708 392.555 Q69.2189 392.971 67.2745 393.851 L67.2745 376.49 Z" fill="#000000" fill-rule="evenodd" fill-opacity="1" /><path clip-path="url(#clip590)" d="M 0 0 M76.6495 181.473 Q73.5013 181.473 71.6495 183.626 Q69.8208 185.778 69.8208 189.528 Q69.8208 193.255 71.6495 195.431 Q73.5013 197.584 76.6495 197.584 Q79.7976 197.584 81.6263 195.431 Q83.4781 193.255 83.4781 189.528 Q83.4781 185.778 81.6263 183.626 Q79.7976 181.473 76.6495 181.473 M85.9318 166.82 L85.9318 171.079 Q84.1726 170.246 82.367 169.806 Q80.5846 169.366 78.8254 169.366 Q74.1958 169.366 71.7421 172.491 Q69.3115 175.616 68.9643 181.936 Q70.33 179.922 72.3902 178.857 Q74.4504 177.769 76.9272 177.769 Q82.1355 177.769 85.1448 180.94 Q88.1772 184.088 88.1772 189.528 Q88.1772 194.852 85.029 198.07 Q81.8809 201.287 76.6495 201.287 Q70.6541 201.287 67.4828 196.704 Q64.3116 192.098 64.3116 183.371 Q64.3116 175.177 68.2004 170.315 Q72.0893 165.431 78.6402 165.431 Q80.3994 165.431 82.1818 165.778 Q83.9874 166.126 85.9318 166.82 Z" fill="#000000" fill-rule="evenodd" fill-opacity="1" /><path clip-path="url(#clip592)" d="
M175.59 1235.5 L196.727 1259.88 L217.865 1269.54 L239.002 1277.88 L260.14 1294.92 L281.277 1315.32 L302.415 1340.13 L323.553 1362.75 L344.69 1381.91 L365.828 1401.13 
  L386.965 1415.01 L408.103 1425.4 L429.24 1431.52 L450.378 1435.03 L471.515 1438.22 L492.653 1440.48 L513.79 1442.03 L534.928 1442.89 L556.065 1443.35 L577.203 1443.59 
  L598.34 1443.93 L619.478 1444.17 L640.616 1444.33 L661.753 1444.41 L682.891 1444.56 L704.028 1444.66 L725.166 1444.69 L746.303 1444.64 L767.441 1444.66 L788.578 1444.66 
  L809.716 1444.59 L830.853 1444.58 L851.991 1444.53 L873.128 1444.45 L894.266 1444.42 L915.404 1444.31 L936.541 1444.13 L957.679 1444.2 L978.816 1444.15 L999.954 1444.11 
  L1021.09 1443.96 L1042.23 1443.64 L1063.37 1443.52 L1084.5 1443.37 L1105.64 1443.1 L1126.78 1442.39 L1147.92 1442.13 L1169.05 1441.73 L1190.19 1441.23 L1211.33 1440.6 
  L1232.47 1440.26 L1253.6 1439.68 L1274.74 1439.18 L1295.88 1438.47 L1317.02 1437.41 L1338.15 1437.03 L1359.29 1435.79 L1380.43 1435.23 L1401.57 1433.94 L1422.7 1434.78 
  L1443.84 1434.27 L1464.98 1433.17 L1486.12 1433.98 L1507.25 1434.35 L1528.39 1434.31 L1549.53 1437.03 L1570.67 1438.31 L1591.8 1438.5 L1612.94 1439.92 L1634.08 1441.11 
  L1655.22 1441.49 L1676.35 1442.36 L1697.49 1442.9 L1718.63 1443.32 L1739.77 1443.49 L1760.9 1444.05 L1782.04 1444.22 L1803.18 1444.47 L1824.32 1444.58 L1845.46 1444.77 
  L1866.59 1444.97 L1887.73 1445.01 L1908.87 1445.19 L1930.01 1445.25 L1951.14 1445.29 L1972.28 1445.33 L1993.42 1445.41 L2014.56 1445.42 L2035.69 1445.48 L2056.83 1445.47 
  L2077.97 1445.53 L2099.11 1445.56 L2120.24 1445.65 L2141.38 1445.67 L2162.52 1445.68 L2183.66 1445.69 L2204.79 1445.67 L2225.93 1445.7 L2247.07 1445.69 L2268.21 1445.7 
  L2289.34 1445.72 L2289.34 1275.69 L2268.21 1283.43 L2247.07 1295.12 L2225.93 1302.01 L2204.79 1298.93 L2183.66 1304.5 L2162.52 1312.55 L2141.38 1305.29 L2120.24 1308.72 
  L2099.11 1308.61 L2077.97 1297.81 L2056.83 1297.77 L2035.69 1301.38 L2014.56 1280.91 L1993.42 1234.53 L1972.28 1211.22 L1951.14 1194.5 L1930.01 1201.9 L1908.87 1183.99 
  L1887.73 1197.97 L1866.59 1176.07 L1845.46 1156.07 L1824.32 1149.03 L1803.18 1148.82 L1782.04 1130.4 L1760.9 1105.37 L1739.77 1099.83 L1718.63 1104.79 L1697.49 1093.61 
  L1676.35 1097.16 L1655.22 1096.42 L1634.08 1103.11 L1612.94 1108.91 L1591.8 1111.51 L1570.67 1125.93 L1549.53 1130.74 L1528.39 1123.99 L1507.25 1139.21 L1486.12 1139.71 
  L1464.98 1149.55 L1443.84 1160.62 L1422.7 1156.64 L1401.57 1168.35 L1380.43 1167.62 L1359.29 1177.71 L1338.15 1180.08 L1317.02 1191.74 L1295.88 1203.29 L1274.74 1213.68 
  L1253.6 1232.17 L1232.47 1235.32 L1211.33 1244.62 L1190.19 1256.1 L1169.05 1261.44 L1147.92 1270.18 L1126.78 1280.63 L1105.64 1295.81 L1084.5 1299.56 L1063.37 1311.82 
  L1042.23 1322.97 L1021.09 1331.33 L999.954 1340.27 L978.816 1346.9 L957.679 1355.24 L936.541 1360.64 L915.404 1369.48 L894.266 1374.95 L873.128 1380.33 L851.991 1386.12 
  L830.853 1389.89 L809.716 1393.64 L788.578 1394.95 L767.441 1395.21 L746.303 1399.33 L725.166 1401.89 L704.028 1402.05 L682.891 1403.16 L661.753 1402.68 L640.616 1399.16 
  L619.478 1400.62 L598.34 1403.25 L577.203 1396.56 L556.065 1393 L534.928 1390.99 L513.79 1384.52 L492.653 1382.58 L471.515 1376.77 L450.378 1365.26 L429.24 1359.18 
  L408.103 1341.29 L386.965 1325.85 L365.828 1307.1 L344.69 1280.92 L323.553 1254.02 L302.415 1224.52 L281.277 1200.15 L260.14 1177.66 L239.002 1166.62 L217.865 1170.28 
  L196.727 1191.34 L175.59 1235.5  Z
  " fill="#009af9" fill-rule="evenodd" fill-opacity="0.2"/>
<polyline clip-path="url(#clip592)" style="stroke:#009af9; stroke-width:12; stroke-opacity:1; fill:none" points="
  175.59,1235.5 196.727,1226.63 217.865,1223.12 239.002,1228.8 260.14,1242.36 281.277,1262.94 302.415,1287.06 323.553,1314.79 344.69,1339.82 365.828,1361.6 
  386.965,1378.68 408.103,1391.74 429.24,1401.45 450.378,1408.8 471.515,1414.33 492.653,1418.6 513.79,1421.84 534.928,1424.4 556.065,1426.17 577.203,1427.59 
  598.34,1428.79 619.478,1429.5 640.616,1430 661.753,1430.31 682.891,1430.37 704.028,1430.23 725.166,1429.93 746.303,1429.45 767.441,1428.82 788.578,1428.06 
  809.716,1427.35 830.853,1426.26 851.991,1425.08 873.128,1423.68 894.266,1421.98 915.404,1420.07 936.541,1417.84 957.679,1415.47 978.816,1412.97 999.954,1410.13 
  1021.09,1407.11 1042.23,1403.5 1063.37,1399.88 1084.5,1395.87 1105.64,1391.39 1126.78,1386.73 1147.92,1382.47 1169.05,1377.15 1190.19,1371.74 1211.33,1366.33 
  1232.47,1360.89 1253.6,1355.58 1274.74,1349.9 1295.88,1343.53 1317.02,1338.45 1338.15,1333.43 1359.29,1328.89 1380.43,1324.07 1401.57,1321.35 1422.7,1319.13 
  1443.84,1318.11 1464.98,1316.59 1486.12,1316.41 1507.25,1316.31 1528.39,1317.3 1549.53,1318.3 1570.67,1320.59 1591.8,1324.51 1612.94,1327.53 1634.08,1332.32 
  1655.22,1336.69 1676.35,1340.4 1697.49,1344.88 1718.63,1351.25 1739.77,1357.47 1760.9,1363.52 1782.04,1369.19 1803.18,1374.84 1824.32,1380.3 1845.46,1386.18 
  1866.59,1391.32 1887.73,1394.72 1908.87,1397.29 1930.01,1398.82 1951.14,1400.68 1972.28,1403.19 1993.42,1405.41 2014.56,1406.1 2035.69,1406.37 2056.83,1405.91 
  2077.97,1406.15 2099.11,1406.98 2120.24,1408.15 2141.38,1408.91 2162.52,1408.47 2183.66,1408.44 2204.79,1407.67 2225.93,1406.73 2247.07,1405.78 2268.21,1404.47 
  2289.34,1403.07 
  "/>
<path clip-path="url(#clip592)" d="
M175.59 1235.5 L196.727 1224.6 L217.865 1189.55 L239.002 1154.75 L260.14 1112.15 L281.277 1079.64 L302.415 1019.41 L323.553 977.595 L344.69 944.988 L365.828 922.893 
  L386.965 927.483 L408.103 954.085 L429.24 955.328 L450.378 994.806 L471.515 1018.18 L492.653 1049.4 L513.79 1075.03 L534.928 1087.71 L556.065 1125.67 L577.203 1155.52 
  L598.34 1177.52 L619.478 1201.19 L640.616 1223.02 L661.753 1244.39 L682.891 1263.83 L704.028 1280.84 L725.166 1297.04 L746.303 1312.99 L767.441 1320.82 L788.578 1335.35 
  L809.716 1342.67 L830.853 1354.94 L851.991 1362.64 L873.128 1366.79 L894.266 1376.13 L915.404 1380.87 L936.541 1385.45 L957.679 1391.19 L978.816 1394.41 L999.954 1399.65 
  L1021.09 1401.01 L1042.23 1404.25 L1063.37 1407.13 L1084.5 1409.71 L1105.64 1412.33 L1126.78 1414.99 L1147.92 1416.79 L1169.05 1418.99 L1190.19 1419.47 L1211.33 1421.62 
  L1232.47 1423.64 L1253.6 1424.78 L1274.74 1426.13 L1295.88 1427.58 L1317.02 1428.25 L1338.15 1429.75 L1359.29 1430.69 L1380.43 1431.54 L1401.57 1431.79 L1422.7 1432.45 
  L1443.84 1433.35 L1464.98 1434.27 L1486.12 1433.83 L1507.25 1433.81 L1528.39 1433.7 L1549.53 1433.49 L1570.67 1433.71 L1591.8 1433.45 L1612.94 1433.02 L1634.08 1432.91 
  L1655.22 1433.21 L1676.35 1433.66 L1697.49 1434.74 L1718.63 1433.18 L1739.77 1431.73 L1760.9 1430.84 L1782.04 1430.01 L1803.18 1426.02 L1824.32 1419.58 L1845.46 1407.6 
  L1866.59 1394.26 L1887.73 1384.38 L1908.87 1390.34 L1930.01 1393.94 L1951.14 1390.95 L1972.28 1392.2 L1993.42 1394.68 L2014.56 1392.96 L2035.69 1388.28 L2056.83 1392.48 
  L2077.97 1396.23 L2099.11 1397.47 L2120.24 1400.71 L2141.38 1403.32 L2162.52 1404.73 L2183.66 1404.95 L2204.79 1407.67 L2225.93 1408.11 L2247.07 1407.45 L2268.21 1410.27 
  L2289.34 1412.34 L2289.34 733.797 L2268.21 680.633 L2247.07 652.045 L2225.93 570.568 L2204.79 511.948 L2183.66 504.924 L2162.52 388.159 L2141.38 423.917 L2120.24 396.162 
  L2099.11 390.745 L2077.97 409.383 L2056.83 366.371 L2035.69 407.17 L2014.56 287.159 L1993.42 223.887 L1972.28 192.221 L1951.14 235.809 L1930.01 186.444 L1908.87 114.206 
  L1887.73 131.884 L1866.59 107.351 L1845.46 99.1997 L1824.32 99.2832 L1803.18 87.9763 L1782.04 99.0319 L1760.9 147.416 L1739.77 156.54 L1718.63 157.809 L1697.49 159.729 
  L1676.35 243.46 L1655.22 232.022 L1634.08 172.293 L1612.94 176.682 L1591.8 193.761 L1570.67 224.348 L1549.53 296.783 L1528.39 371.819 L1507.25 438.675 L1486.12 457.572 
  L1464.98 488.222 L1443.84 456.316 L1422.7 512.602 L1401.57 563.095 L1380.43 595.122 L1359.29 659.426 L1338.15 696.816 L1317.02 769.57 L1295.88 873.984 L1274.74 906.301 
  L1253.6 927.39 L1232.47 985.953 L1211.33 1029.77 L1190.19 1071.84 L1169.05 1109.82 L1147.92 1140.58 L1126.78 1157.48 L1105.64 1170.25 L1084.5 1176.44 L1063.37 1171.4 
  L1042.23 1177.54 L1021.09 1185.37 L999.954 1175.52 L978.816 1190.55 L957.679 1183.42 L936.541 1171.12 L915.404 1145.62 L894.266 1125.57 L873.128 1113.27 L851.991 1099.96 
  L830.853 1088.5 L809.716 1054.8 L788.578 1018.07 L767.441 1003.99 L746.303 967.353 L725.166 938.131 L704.028 901.075 L682.891 851.823 L661.753 823.117 L640.616 774.14 
  L619.478 749.43 L598.34 705.728 L577.203 636.702 L556.065 604.513 L534.928 530.993 L513.79 510.41 L492.653 441.677 L471.515 385.523 L450.378 317.106 L429.24 299.051 
  L408.103 251.831 L386.965 252.062 L365.828 224.625 L344.69 277.777 L323.553 351.671 L302.415 503.277 L281.277 647.559 L260.14 786.223 L239.002 923.759 L217.865 1045.36 
  L196.727 1142.23 L175.59 1235.5  Z
  " fill="#e26f46" fill-rule="evenodd" fill-opacity="0.2"/>
<polyline clip-path="url(#clip592)" style="stroke:#e26f46; stroke-width:12; stroke-opacity:1; fill:none" points="
  175.59,1235.5 196.727,1187.52 217.865,1124.33 239.002,1048.14 260.14,959.906 281.277,866.259 302.415,775.683 323.553,701.918 344.69,652.446 365.828,629.116 
  386.965,628.73 408.103,641.831 429.24,668.807 450.378,705.564 471.515,743.29 492.653,784.814 513.79,824.162 534.928,864.852 556.065,906.925 577.203,942.825 
  598.34,980.525 619.478,1014.52 640.616,1043.18 661.753,1074.23 682.891,1104.69 704.028,1130.15 725.166,1153.06 746.303,1174.9 767.441,1193.89 788.578,1212.94 
  809.716,1230.57 830.853,1246.99 851.991,1261.48 873.128,1273.75 894.266,1284.77 915.404,1294.36 936.541,1303.96 957.679,1311.74 978.816,1318.11 999.954,1323.9 
  1021.09,1328.79 1042.23,1333.52 1063.37,1336.53 1084.5,1338.21 1105.64,1338.81 1126.78,1337.84 1147.92,1335.99 1169.05,1332.5 1190.19,1327.59 1211.33,1321.23 
  1232.47,1312.42 1253.6,1304.89 1274.74,1293.48 1295.88,1281.55 1317.02,1266.61 1338.15,1247.36 1359.29,1230.03 1380.43,1208.69 1401.57,1189.92 1422.7,1166.67 
  1443.84,1143.4 1464.98,1122.33 1486.12,1098.13 1507.25,1075.66 1528.39,1055.19 1549.53,1031.6 1570.67,1006.07 1591.8,982.889 1612.94,967.718 1634.08,950.632 
  1655.22,937.914 1676.35,926.934 1697.49,917.283 1718.63,908.703 1739.77,903.803 1760.9,902.723 1782.04,905.033 1803.18,905.144 1824.32,910.736 1845.46,913.964 
  1866.59,926.593 1887.73,943.204 1908.87,959.487 1930.01,980.57 1951.14,997.575 1972.28,1010.97 1993.42,1027.7 2014.56,1047.82 2035.69,1070.29 2056.83,1092.86 
  2077.97,1108.58 2099.11,1122.22 2120.24,1132.39 2141.38,1145.28 2162.52,1153.87 2183.66,1164.42 2204.79,1177.02 2225.93,1187.33 2247.07,1200.94 2268.21,1212.34 
  2289.34,1218.7 
  "/>
</svg>
