<?xml version="1.0" encoding="utf-8"?>
<svg xmlns="http://www.w3.org/2000/svg" xmlns:xlink="http://www.w3.org/1999/xlink" width="600" height="400" viewBox="0 0 2400 1600">
<defs>
  <clipPath id="clip980">
    <rect x="0" y="0" width="2400" height="1600"/>
  </clipPath>
</defs>
<path clip-path="url(#clip980)" d="
M0 1600 L2400 1600 L2400 0 L0 0  Z
  " fill="#ffffff" fill-rule="evenodd" fill-opacity="1"/>
<defs>
  <clipPath id="clip981">
    <rect x="480" y="0" width="1681" height="1600"/>
  </clipPath>
</defs>
<path clip-path="url(#clip980)" d="
M112.177 1423.18 L2352.76 1423.18 L2352.76 47.2441 L112.177 47.2441  Z
  " fill="#ffffff" fill-rule="evenodd" fill-opacity="1"/>
<defs>
  <clipPath id="clip982">
    <rect x="112" y="47" width="2242" height="1377"/>
  </clipPath>
</defs>
<polyline clip-path="url(#clip982)" style="stroke:#000000; stroke-width:2; stroke-opacity:0.1; fill:none" points="
  112.177,1423.18 112.177,47.2441 
  "/>
<polyline clip-path="url(#clip982)" style="stroke:#000000; stroke-width:2; stroke-opacity:0.1; fill:none" points="
  560.293,1423.18 560.293,47.2441 
  "/>
<polyline clip-path="url(#clip982)" style="stroke:#000000; stroke-width:2; stroke-opacity:0.1; fill:none" points="
  1008.41,1423.18 1008.41,47.2441 
  "/>
<polyline clip-path="url(#clip982)" style="stroke:#000000; stroke-width:2; stroke-opacity:0.1; fill:none" points="
  1456.52,1423.18 1456.52,47.2441 
  "/>
<polyline clip-path="url(#clip982)" style="stroke:#000000; stroke-width:2; stroke-opacity:0.1; fill:none" points="
  1904.64,1423.18 1904.64,47.2441 
  "/>
<polyline clip-path="url(#clip982)" style="stroke:#000000; stroke-width:2; stroke-opacity:0.1; fill:none" points="
  2352.76,1423.18 2352.76,47.2441 
  "/>
<polyline clip-path="url(#clip982)" style="stroke:#000000; stroke-width:2; stroke-opacity:0.1; fill:none" points="
  112.177,1384.64 2352.76,1384.64 
  "/>
<polyline clip-path="url(#clip982)" style="stroke:#000000; stroke-width:2; stroke-opacity:0.1; fill:none" points="
  112.177,1162.21 2352.76,1162.21 
  "/>
<polyline clip-path="url(#clip982)" style="stroke:#000000; stroke-width:2; stroke-opacity:0.1; fill:none" points="
  112.177,939.792 2352.76,939.792 
  "/>
<polyline clip-path="url(#clip982)" style="stroke:#000000; stroke-width:2; stroke-opacity:0.1; fill:none" points="
  112.177,717.37 2352.76,717.37 
  "/>
<polyline clip-path="url(#clip982)" style="stroke:#000000; stroke-width:2; stroke-opacity:0.1; fill:none" points="
  112.177,494.948 2352.76,494.948 
  "/>
<polyline clip-path="url(#clip982)" style="stroke:#000000; stroke-width:2; stroke-opacity:0.1; fill:none" points="
  112.177,272.527 2352.76,272.527 
  "/>
<polyline clip-path="url(#clip982)" style="stroke:#000000; stroke-width:2; stroke-opacity:0.1; fill:none" points="
  112.177,50.105 2352.76,50.105 
  "/>
<polyline clip-path="url(#clip980)" style="stroke:#000000; stroke-width:4; stroke-opacity:1; fill:none" points="
  112.177,1423.18 2352.76,1423.18 
  "/>
<polyline clip-path="url(#clip980)" style="stroke:#000000; stroke-width:4; stroke-opacity:1; fill:none" points="
  112.177,1423.18 112.177,47.2441 
  "/>
<polyline clip-path="url(#clip980)" style="stroke:#000000; stroke-width:4; stroke-opacity:1; fill:none" points="
  112.177,1423.18 112.177,1406.67 
  "/>
<polyline clip-path="url(#clip980)" style="stroke:#000000; stroke-width:4; stroke-opacity:1; fill:none" points="
  560.293,1423.18 560.293,1406.67 
  "/>
<polyline clip-path="url(#clip980)" style="stroke:#000000; stroke-width:4; stroke-opacity:1; fill:none" points="
  1008.41,1423.18 1008.41,1406.67 
  "/>
<polyline clip-path="url(#clip980)" style="stroke:#000000; stroke-width:4; stroke-opacity:1; fill:none" points="
  1456.52,1423.18 1456.52,1406.67 
  "/>
<polyline clip-path="url(#clip980)" style="stroke:#000000; stroke-width:4; stroke-opacity:1; fill:none" points="
  1904.64,1423.18 1904.64,1406.67 
  "/>
<polyline clip-path="url(#clip980)" style="stroke:#000000; stroke-width:4; stroke-opacity:1; fill:none" points="
  2352.76,1423.18 2352.76,1406.67 
  "/>
<polyline clip-path="url(#clip980)" style="stroke:#000000; stroke-width:4; stroke-opacity:1; fill:none" points="
  112.177,1384.64 139.064,1384.64 
  "/>
<polyline clip-path="url(#clip980)" style="stroke:#000000; stroke-width:4; stroke-opacity:1; fill:none" points="
  112.177,1162.21 139.064,1162.21 
  "/>
<polyline clip-path="url(#clip980)" style="stroke:#000000; stroke-width:4; stroke-opacity:1; fill:none" points="
  112.177,939.792 139.064,939.792 
  "/>
<polyline clip-path="url(#clip980)" style="stroke:#000000; stroke-width:4; stroke-opacity:1; fill:none" points="
  112.177,717.37 139.064,717.37 
  "/>
<polyline clip-path="url(#clip980)" style="stroke:#000000; stroke-width:4; stroke-opacity:1; fill:none" points="
  112.177,494.948 139.064,494.948 
  "/>
<polyline clip-path="url(#clip980)" style="stroke:#000000; stroke-width:4; stroke-opacity:1; fill:none" points="
  112.177,272.527 139.064,272.527 
  "/>
<polyline clip-path="url(#clip980)" style="stroke:#000000; stroke-width:4; stroke-opacity:1; fill:none" points="
  112.177,50.105 139.064,50.105 
  "/>
<path clip-path="url(#clip980)" d="M 0 0 M112.177 1445.17 Q108.566 1445.17 106.737 1448.74 Q104.932 1452.28 104.932 1459.41 Q104.932 1466.51 106.737 1470.08 Q108.566 1473.62 112.177 1473.62 Q115.811 1473.62 117.617 1470.08 Q119.446 1466.51 119.446 1459.41 Q119.446 1452.28 117.617 1448.74 Q115.811 1445.17 112.177 1445.17 M112.177 1441.47 Q117.987 1441.47 121.043 1446.07 Q124.122 1450.66 124.122 1459.41 Q124.122 1468.13 121.043 1472.74 Q117.987 1477.32 112.177 1477.32 Q106.367 1477.32 103.288 1472.74 Q100.233 1468.13 100.233 1459.41 Q100.233 1450.66 103.288 1446.07 Q106.367 1441.47 112.177 1441.47 Z" fill="#000000" fill-rule="evenodd" fill-opacity="1" /><path clip-path="url(#clip980)" d="M 0 0 M554.946 1472.72 L571.265 1472.72 L571.265 1476.65 L549.321 1476.65 L549.321 1472.72 Q551.983 1469.96 556.566 1465.33 Q561.173 1460.68 562.353 1459.34 Q564.598 1456.81 565.478 1455.08 Q566.381 1453.32 566.381 1451.63 Q566.381 1448.87 564.436 1447.14 Q562.515 1445.4 559.413 1445.4 Q557.214 1445.4 554.761 1446.17 Q552.33 1446.93 549.552 1448.48 L549.552 1443.76 Q552.376 1442.62 554.83 1442.05 Q557.284 1441.47 559.321 1441.47 Q564.691 1441.47 567.885 1444.15 Q571.08 1446.84 571.08 1451.33 Q571.08 1453.46 570.27 1455.38 Q569.483 1457.28 567.376 1459.87 Q566.798 1460.54 563.696 1463.76 Q560.594 1466.95 554.946 1472.72 Z" fill="#000000" fill-rule="evenodd" fill-opacity="1" /><path clip-path="url(#clip980)" d="M 0 0 M1011.42 1446.17 L999.612 1464.61 L1011.42 1464.61 L1011.42 1446.17 M1010.19 1442.09 L1016.07 1442.09 L1016.07 1464.61 L1021 1464.61 L1021 1468.5 L1016.07 1468.5 L1016.07 1476.65 L1011.42 1476.65 L1011.42 1468.5 L995.816 1468.5 L995.816 1463.99 L1010.19 1442.09 Z" fill="#000000" fill-rule="evenodd" fill-opacity="1" /><path clip-path="url(#clip980)" d="M 0 0 M1456.93 1457.51 Q1453.78 1457.51 1451.93 1459.66 Q1450.1 1461.81 1450.1 1465.56 Q1450.1 1469.29 1451.93 1471.47 Q1453.78 1473.62 1456.93 1473.62 Q1460.08 1473.62 1461.91 1471.47 Q1463.76 1469.29 1463.76 1465.56 Q1463.76 1461.81 1461.91 1459.66 Q1460.08 1457.51 1456.93 1457.51 M1466.21 1442.86 L1466.21 1447.11 Q1464.45 1446.28 1462.65 1445.84 Q1460.86 1445.4 1459.11 1445.4 Q1454.48 1445.4 1452.02 1448.53 Q1449.59 1451.65 1449.24 1457.97 Q1450.61 1455.96 1452.67 1454.89 Q1454.73 1453.8 1457.21 1453.8 Q1462.42 1453.8 1465.42 1456.98 Q1468.46 1460.12 1468.46 1465.56 Q1468.46 1470.89 1465.31 1474.11 Q1462.16 1477.32 1456.93 1477.32 Q1450.93 1477.32 1447.76 1472.74 Q1444.59 1468.13 1444.59 1459.41 Q1444.59 1451.21 1448.48 1446.35 Q1452.37 1441.47 1458.92 1441.47 Q1460.68 1441.47 1462.46 1441.81 Q1464.27 1442.16 1466.21 1442.86 Z" fill="#000000" fill-rule="evenodd" fill-opacity="1" /><path clip-path="url(#clip980)" d="M 0 0 M1904.64 1460.24 Q1901.31 1460.24 1899.39 1462.02 Q1897.49 1463.8 1897.49 1466.93 Q1897.49 1470.05 1899.39 1471.84 Q1901.31 1473.62 1904.64 1473.62 Q1907.97 1473.62 1909.89 1471.84 Q1911.82 1470.03 1911.82 1466.93 Q1911.82 1463.8 1909.89 1462.02 Q1908 1460.24 1904.64 1460.24 M1899.96 1458.25 Q1896.96 1457.51 1895.27 1455.45 Q1893.6 1453.39 1893.6 1450.43 Q1893.6 1446.28 1896.54 1443.87 Q1899.5 1441.47 1904.64 1441.47 Q1909.8 1441.47 1912.74 1443.87 Q1915.68 1446.28 1915.68 1450.43 Q1915.68 1453.39 1913.99 1455.45 Q1912.33 1457.51 1909.34 1458.25 Q1912.72 1459.04 1914.59 1461.33 Q1916.49 1463.62 1916.49 1466.93 Q1916.49 1471.95 1913.41 1474.64 Q1910.36 1477.32 1904.64 1477.32 Q1898.92 1477.32 1895.84 1474.64 Q1892.79 1471.95 1892.79 1466.93 Q1892.79 1463.62 1894.69 1461.33 Q1896.58 1459.04 1899.96 1458.25 M1898.25 1450.86 Q1898.25 1453.55 1899.92 1455.05 Q1901.61 1456.56 1904.64 1456.56 Q1907.65 1456.56 1909.34 1455.05 Q1911.05 1453.55 1911.05 1450.86 Q1911.05 1448.18 1909.34 1446.68 Q1907.65 1445.17 1904.64 1445.17 Q1901.61 1445.17 1899.92 1446.68 Q1898.25 1448.18 1898.25 1450.86 Z" fill="#000000" fill-rule="evenodd" fill-opacity="1" /><path clip-path="url(#clip980)" d="M 0 0 M2329.63 1472.72 L2337.27 1472.72 L2337.27 1446.35 L2328.96 1448.02 L2328.96 1443.76 L2337.22 1442.09 L2341.9 1442.09 L2341.9 1472.72 L2349.54 1472.72 L2349.54 1476.65 L2329.63 1476.65 L2329.63 1472.72 Z" fill="#000000" fill-rule="evenodd" fill-opacity="1" /><path clip-path="url(#clip980)" d="M 0 0 M2364.61 1445.17 Q2361 1445.17 2359.17 1448.74 Q2357.36 1452.28 2357.36 1459.41 Q2357.36 1466.51 2359.17 1470.08 Q2361 1473.62 2364.61 1473.62 Q2368.24 1473.62 2370.05 1470.08 Q2371.88 1466.51 2371.88 1459.41 Q2371.88 1452.28 2370.05 1448.74 Q2368.24 1445.17 2364.61 1445.17 M2364.61 1441.47 Q2370.42 1441.47 2373.47 1446.07 Q2376.55 1450.66 2376.55 1459.41 Q2376.55 1468.13 2373.47 1472.74 Q2370.42 1477.32 2364.61 1477.32 Q2358.8 1477.32 2355.72 1472.74 Q2352.66 1468.13 2352.66 1459.41 Q2352.66 1450.66 2355.72 1446.07 Q2358.8 1441.47 2364.61 1441.47 Z" fill="#000000" fill-rule="evenodd" fill-opacity="1" /><path clip-path="url(#clip980)" d="M 0 0 M76.2328 1370.43 Q72.6217 1370.43 70.793 1374 Q68.9875 1377.54 68.9875 1384.67 Q68.9875 1391.78 70.793 1395.34 Q72.6217 1398.88 76.2328 1398.88 Q79.867 1398.88 81.6726 1395.34 Q83.5013 1391.78 83.5013 1384.67 Q83.5013 1377.54 81.6726 1374 Q79.867 1370.43 76.2328 1370.43 M76.2328 1366.73 Q82.0429 1366.73 85.0985 1371.34 Q88.1772 1375.92 88.1772 1384.67 Q88.1772 1393.4 85.0985 1398 Q82.0429 1402.59 76.2328 1402.59 Q70.4226 1402.59 67.344 1398 Q64.2884 1393.4 64.2884 1384.67 Q64.2884 1375.92 67.344 1371.34 Q70.4226 1366.73 76.2328 1366.73 Z" fill="#000000" fill-rule="evenodd" fill-opacity="1" /><path clip-path="url(#clip980)" d="M 0 0 M68.2699 1175.56 L75.9087 1175.56 L75.9087 1149.19 L67.5986 1150.86 L67.5986 1146.6 L75.8624 1144.93 L80.5383 1144.93 L80.5383 1175.56 L88.1772 1175.56 L88.1772 1179.49 L68.2699 1179.49 L68.2699 1175.56 Z" fill="#000000" fill-rule="evenodd" fill-opacity="1" /><path clip-path="url(#clip980)" d="M 0 0 M71.8578 953.137 L88.1772 953.137 L88.1772 957.072 L66.2328 957.072 L66.2328 953.137 Q68.8949 950.382 73.4782 945.753 Q78.0846 941.1 79.2652 939.757 Q81.5105 937.234 82.3902 935.498 Q83.2929 933.739 83.2929 932.049 Q83.2929 929.294 81.3485 927.558 Q79.4272 925.822 76.3254 925.822 Q74.1263 925.822 71.6726 926.586 Q69.2421 927.35 66.4643 928.901 L66.4643 924.179 Q69.2884 923.044 71.7421 922.466 Q74.1958 921.887 76.2328 921.887 Q81.6031 921.887 84.7976 924.572 Q87.992 927.257 87.992 931.748 Q87.992 933.878 87.1818 935.799 Q86.3948 937.697 84.2883 940.29 Q83.7096 940.961 80.6078 944.179 Q77.5059 947.373 71.8578 953.137 Z" fill="#000000" fill-rule="evenodd" fill-opacity="1" /><path clip-path="url(#clip980)" d="M 0 0 M81.0476 716.016 Q84.404 716.734 86.279 719.002 Q88.1772 721.271 88.1772 724.604 Q88.1772 729.72 84.6587 732.521 Q81.1402 735.322 74.6587 735.322 Q72.4828 735.322 70.168 734.882 Q67.8764 734.465 65.4227 733.609 L65.4227 729.095 Q67.3671 730.229 69.6819 730.808 Q71.9967 731.386 74.5198 731.386 Q78.918 731.386 81.2096 729.65 Q83.5244 727.914 83.5244 724.604 Q83.5244 721.548 81.3717 719.836 Q79.242 718.099 75.4226 718.099 L71.3949 718.099 L71.3949 714.257 L75.6078 714.257 Q79.0569 714.257 80.8855 712.891 Q82.7142 711.502 82.7142 708.91 Q82.7142 706.248 80.8161 704.836 Q78.9411 703.4 75.4226 703.4 Q73.5013 703.4 71.3023 703.817 Q69.1032 704.234 66.4643 705.113 L66.4643 700.947 Q69.1264 700.206 71.4412 699.836 Q73.7791 699.465 75.8393 699.465 Q81.1633 699.465 84.2652 701.896 Q87.367 704.303 87.367 708.424 Q87.367 711.294 85.7235 713.285 Q84.08 715.252 81.0476 716.016 Z" fill="#000000" fill-rule="evenodd" fill-opacity="1" /><path clip-path="url(#clip980)" d="M 0 0 M78.5939 481.743 L66.7884 500.192 L78.5939 500.192 L78.5939 481.743 M77.367 477.668 L83.2466 477.668 L83.2466 500.192 L88.1772 500.192 L88.1772 504.08 L83.2466 504.08 L83.2466 512.228 L78.5939 512.228 L78.5939 504.08 L62.9921 504.08 L62.9921 499.567 L77.367 477.668 Z" fill="#000000" fill-rule="evenodd" fill-opacity="1" /><path clip-path="url(#clip980)" d="M 0 0 M67.2745 255.247 L85.6309 255.247 L85.6309 259.182 L71.5569 259.182 L71.5569 267.654 Q72.5754 267.307 73.5939 267.145 Q74.6124 266.96 75.6309 266.96 Q81.418 266.96 84.7976 270.131 Q88.1772 273.302 88.1772 278.719 Q88.1772 284.298 84.705 287.399 Q81.2328 290.478 74.9134 290.478 Q72.7374 290.478 70.4689 290.108 Q68.2236 289.737 65.8162 288.997 L65.8162 284.298 Q67.8995 285.432 70.1217 285.987 Q72.3439 286.543 74.8208 286.543 Q78.8254 286.543 81.1633 284.436 Q83.5013 282.33 83.5013 278.719 Q83.5013 275.108 81.1633 273.001 Q78.8254 270.895 74.8208 270.895 Q72.9458 270.895 71.0708 271.311 Q69.2189 271.728 67.2745 272.608 L67.2745 255.247 Z" fill="#000000" fill-rule="evenodd" fill-opacity="1" /><path clip-path="url(#clip980)" d="M 0 0 M76.6495 48.2416 Q73.5013 48.2416 71.6495 50.3944 Q69.8208 52.5471 69.8208 56.2971 Q69.8208 60.0239 71.6495 62.1998 Q73.5013 64.3526 76.6495 64.3526 Q79.7976 64.3526 81.6263 62.1998 Q83.4781 60.0239 83.4781 56.2971 Q83.4781 52.5471 81.6263 50.3944 Q79.7976 48.2416 76.6495 48.2416 M85.9318 33.5889 L85.9318 37.8481 Q84.1726 37.0148 82.367 36.575 Q80.5846 36.1352 78.8254 36.1352 Q74.1958 36.1352 71.7421 39.2602 Q69.3115 42.3851 68.9643 48.7046 Q70.33 46.6907 72.3902 45.6259 Q74.4504 44.5379 76.9272 44.5379 Q82.1355 44.5379 85.1448 47.7092 Q88.1772 50.8573 88.1772 56.2971 Q88.1772 61.6211 85.029 64.8387 Q81.8809 68.0563 76.6495 68.0563 Q70.6541 68.0563 67.4828 63.473 Q64.3116 58.8665 64.3116 50.1397 Q64.3116 41.9453 68.2004 37.0842 Q72.0893 32.2 78.6402 32.2 Q80.3994 32.2 82.1818 32.5472 Q83.9874 32.8944 85.9318 33.5889 Z" fill="#000000" fill-rule="evenodd" fill-opacity="1" /><path clip-path="url(#clip980)" d="M 0 0 M1231.53 1510.27 L1231.53 1520.4 L1243.59 1520.4 L1243.59 1524.95 L1231.53 1524.95 L1231.53 1544.3 Q1231.53 1548.66 1232.71 1549.9 Q1233.91 1551.14 1237.58 1551.14 L1243.59 1551.14 L1243.59 1556.04 L1237.58 1556.04 Q1230.8 1556.04 1228.22 1553.53 Q1225.64 1550.98 1225.64 1544.3 L1225.64 1524.95 L1221.34 1524.95 L1221.34 1520.4 L1225.64 1520.4 L1225.64 1510.27 L1231.53 1510.27 Z" fill="#000000" fill-rule="evenodd" fill-opacity="1" /><polyline clip-path="url(#clip982)" style="stroke:#009af9; stroke-width:4; stroke-opacity:1; fill:none" points="
  112.177,1162.21 114.42,1159.54 116.663,1156.88 118.906,1154.22 121.148,1151.58 123.391,1148.94 125.634,1146.33 127.877,1143.72 130.12,1141.14 132.363,1138.58 
  134.605,1136.05 136.848,1133.55 139.091,1131.07 141.334,1128.64 143.577,1126.24 145.819,1123.88 148.062,1121.57 150.305,1119.31 152.548,1117.1 154.791,1114.95 
  157.034,1112.86 159.276,1110.83 161.519,1108.87 163.762,1106.99 166.005,1105.18 168.248,1103.45 170.491,1101.81 172.733,1100.26 174.976,1098.8 177.219,1097.45 
  179.462,1096.2 181.705,1095.05 183.947,1094.02 186.19,1093.11 188.433,1092.31 190.676,1091.65 192.919,1091.11 195.162,1090.7 197.404,1090.43 199.647,1090.31 
  201.89,1090.33 204.133,1090.49 206.376,1090.81 208.619,1091.28 210.861,1091.9 213.104,1092.69 215.347,1093.63 217.59,1094.74 219.833,1096.01 222.075,1097.44 
  224.318,1099.03 226.561,1100.79 228.804,1102.71 231.047,1104.79 233.29,1107.03 235.532,1109.42 237.775,1111.98 240.018,1114.68 242.261,1117.53 244.504,1120.53 
  246.746,1123.67 248.989,1126.95 251.232,1130.35 253.475,1133.88 255.718,1137.52 257.961,1141.27 260.203,1145.13 262.446,1149.08 264.689,1153.13 266.932,1157.25 
  269.175,1161.45 271.418,1165.72 273.66,1170.05 275.903,1174.44 278.146,1178.86 280.389,1183.32 282.632,1187.8 284.874,1192.31 287.117,1196.82 289.36,1201.33 
  291.603,1205.85 293.846,1210.35 296.089,1214.83 298.331,1219.28 300.574,1223.71 302.817,1228.1 305.06,1232.44 307.303,1236.74 309.545,1240.98 311.788,1245.17 
  314.031,1249.29 316.274,1253.35 318.517,1257.34 320.76,1261.25 323.002,1265.1 325.245,1268.86 327.488,1272.54 329.731,1276.15 331.974,1279.67 334.217,1283.1 
  336.459,1286.45 338.702,1289.72 340.945,1292.9 343.188,1295.99 345.431,1299 347.673,1301.93 349.916,1304.77 352.159,1307.53 354.402,1310.21 356.645,1312.8 
  358.888,1315.32 361.13,1317.75 363.373,1320.11 365.616,1322.39 367.859,1324.59 370.102,1326.72 372.344,1328.78 374.587,1330.77 376.83,1332.69 379.073,1334.54 
  381.316,1336.33 383.559,1338.06 385.801,1339.73 388.044,1341.33 390.287,1342.88 392.53,1344.38 394.773,1345.82 397.016,1347.21 399.258,1348.55 401.501,1349.83 
  403.744,1351.07 405.987,1352.27 408.23,1353.42 410.472,1354.52 412.715,1355.59 414.958,1356.61 417.201,1357.6 419.444,1358.55 421.687,1359.46 423.929,1360.34 
  426.172,1361.18 428.415,1361.99 430.658,1362.77 432.901,1363.52 435.143,1364.25 437.386,1364.94 439.629,1365.61 441.872,1366.26 444.115,1366.88 446.358,1367.48 
  448.6,1368.05 450.843,1368.61 453.086,1369.14 455.329,1369.66 457.572,1370.15 459.815,1370.63 462.057,1371.09 464.3,1371.53 466.543,1371.95 468.786,1372.36 
  471.029,1372.76 473.271,1373.13 475.514,1373.5 477.757,1373.85 480,1374.19 482.243,1374.52 484.486,1374.83 486.728,1375.14 488.971,1375.43 491.214,1375.71 
  493.457,1375.99 495.7,1376.25 497.942,1376.5 500.185,1376.75 502.428,1376.98 504.671,1377.21 506.914,1377.43 509.157,1377.64 511.399,1377.84 513.642,1378.04 
  515.885,1378.23 518.128,1378.41 520.371,1378.59 522.614,1378.76 524.856,1378.93 527.099,1379.09 529.342,1379.24 531.585,1379.39 533.828,1379.53 536.07,1379.67 
  538.313,1379.81 540.556,1379.94 542.799,1380.06 545.042,1380.19 547.285,1380.3 549.527,1380.42 551.77,1380.53 554.013,1380.63 556.256,1380.74 558.499,1380.84 
  560.741,1380.93 562.984,1381.03 565.227,1381.12 567.47,1381.2 569.713,1381.29 571.956,1381.37 574.198,1381.45 576.441,1381.53 578.684,1381.6 580.927,1381.68 
  583.17,1381.75 585.413,1381.81 587.655,1381.88 589.898,1381.94 592.141,1382.01 594.384,1382.07 596.627,1382.12 598.869,1382.18 601.112,1382.24 603.355,1382.29 
  605.598,1382.34 607.841,1382.39 610.084,1382.44 612.326,1382.49 614.569,1382.53 616.812,1382.58 619.055,1382.62 621.298,1382.66 623.54,1382.7 625.783,1382.74 
  628.026,1382.78 630.269,1382.82 632.512,1382.86 634.755,1382.89 636.997,1382.93 639.24,1382.96 641.483,1382.99 643.726,1383.02 645.969,1383.06 648.212,1383.09 
  650.454,1383.11 652.697,1383.14 654.94,1383.17 657.183,1383.2 659.426,1383.22 661.668,1383.25 663.911,1383.27 666.154,1383.3 668.397,1383.32 670.64,1383.34 
  672.883,1383.37 675.125,1383.39 677.368,1383.41 679.611,1383.43 681.854,1383.45 684.097,1383.47 686.339,1383.49 688.582,1383.51 690.825,1383.53 693.068,1383.54 
  695.311,1383.56 697.554,1383.58 699.796,1383.59 702.039,1383.61 704.282,1383.63 706.525,1383.64 708.768,1383.66 711.011,1383.67 713.253,1383.69 715.496,1383.7 
  717.739,1383.71 719.982,1383.73 722.225,1383.74 724.467,1383.75 726.71,1383.76 728.953,1383.77 731.196,1383.79 733.439,1383.8 735.682,1383.81 737.924,1383.82 
  740.167,1383.83 742.41,1383.84 744.653,1383.85 746.896,1383.86 749.138,1383.87 751.381,1383.88 753.624,1383.89 755.867,1383.9 758.11,1383.91 760.353,1383.92 
  762.595,1383.92 764.838,1383.93 767.081,1383.94 769.324,1383.95 771.567,1383.96 773.81,1383.96 776.052,1383.97 778.295,1383.98 780.538,1383.98 782.781,1383.99 
  785.024,1384 787.266,1384 789.509,1384.01 791.752,1384.02 793.995,1384.02 796.238,1384.03 798.481,1384.04 800.723,1384.04 802.966,1384.05 805.209,1384.05 
  807.452,1384.06 809.695,1384.06 811.938,1384.07 814.18,1384.07 816.423,1384.08 818.666,1384.08 820.909,1384.09 823.152,1384.09 825.394,1384.1 827.637,1384.1 
  829.88,1384.1 832.123,1384.11 834.366,1384.11 836.609,1384.12 838.851,1384.12 841.094,1384.12 843.337,1384.13 845.58,1384.13 847.823,1384.14 850.065,1384.14 
  852.308,1384.14 854.551,1384.15 856.794,1384.15 859.037,1384.15 861.28,1384.15 863.522,1384.16 865.765,1384.16 868.008,1384.16 870.251,1384.17 872.494,1384.17 
  874.737,1384.17 876.979,1384.17 879.222,1384.18 881.465,1384.18 883.708,1384.18 885.951,1384.18 888.193,1384.19 890.436,1384.19 892.679,1384.19 894.922,1384.19 
  897.165,1384.19 899.408,1384.2 901.65,1384.2 903.893,1384.2 906.136,1384.2 908.379,1384.2 910.622,1384.21 912.864,1384.21 915.107,1384.21 917.35,1384.21 
  919.593,1384.21 921.836,1384.21 924.079,1384.21 926.321,1384.22 928.564,1384.22 930.807,1384.22 933.05,1384.22 935.293,1384.22 937.536,1384.22 939.778,1384.22 
  942.021,1384.22 944.264,1384.23 946.507,1384.23 948.75,1384.23 950.992,1384.23 953.235,1384.23 955.478,1384.23 957.721,1384.23 959.964,1384.23 962.207,1384.23 
  964.449,1384.23 966.692,1384.23 968.935,1384.23 971.178,1384.23 973.421,1384.24 975.663,1384.24 977.906,1384.24 980.149,1384.24 982.392,1384.24 984.635,1384.24 
  986.878,1384.24 989.12,1384.24 991.363,1384.24 993.606,1384.24 995.849,1384.24 998.092,1384.24 1000.33,1384.24 1002.58,1384.24 1004.82,1384.24 1007.06,1384.24 
  1009.31,1384.24 1011.55,1384.24 1013.79,1384.24 1016.03,1384.24 1018.28,1384.24 1020.52,1384.24 1022.76,1384.24 1025.01,1384.24 1027.25,1384.24 1029.49,1384.24 
  1031.73,1384.24 1033.98,1384.24 1036.22,1384.23 1038.46,1384.23 1040.71,1384.23 1042.95,1384.23 1045.19,1384.23 1047.43,1384.23 1049.68,1384.23 1051.92,1384.23 
  1054.16,1384.23 1056.41,1384.23 1058.65,1384.23 1060.89,1384.23 1063.13,1384.23 1065.38,1384.23 1067.62,1384.22 1069.86,1384.22 1072.1,1384.22 1074.35,1384.22 
  1076.59,1384.22 1078.83,1384.22 1081.08,1384.22 1083.32,1384.22 1085.56,1384.22 1087.8,1384.21 1090.05,1384.21 1092.29,1384.21 1094.53,1384.21 1096.78,1384.21 
  1099.02,1384.21 1101.26,1384.21 1103.5,1384.2 1105.75,1384.2 1107.99,1384.2 1110.23,1384.2 1112.48,1384.2 1114.72,1384.2 1116.96,1384.19 1119.2,1384.19 
  1121.45,1384.19 1123.69,1384.19 1125.93,1384.19 1128.18,1384.18 1130.42,1384.18 1132.66,1384.18 1134.9,1384.18 1137.15,1384.18 1139.39,1384.17 1141.63,1384.17 
  1143.88,1384.17 1146.12,1384.17 1148.36,1384.17 1150.6,1384.16 1152.85,1384.16 1155.09,1384.16 1157.33,1384.16 1159.57,1384.15 1161.82,1384.15 1164.06,1384.15 
  1166.3,1384.15 1168.55,1384.14 1170.79,1384.14 1173.03,1384.14 1175.27,1384.13 1177.52,1384.13 1179.76,1384.13 1182,1384.13 1184.25,1384.12 1186.49,1384.12 
  1188.73,1384.12 1190.97,1384.11 1193.22,1384.11 1195.46,1384.11 1197.7,1384.1 1199.95,1384.1 1202.19,1384.1 1204.43,1384.09 1206.67,1384.09 1208.92,1384.09 
  1211.16,1384.08 1213.4,1384.08 1215.65,1384.07 1217.89,1384.07 1220.13,1384.07 1222.37,1384.06 1224.62,1384.06 1226.86,1384.05 1229.1,1384.05 1231.35,1384.05 
  1233.59,1384.04 1235.83,1384.04 1238.07,1384.03 1240.32,1384.03 1242.56,1384.02 1244.8,1384.02 1247.04,1384.01 1249.29,1384.01 1251.53,1384 1253.77,1384 
  1256.02,1383.99 1258.26,1383.99 1260.5,1383.98 1262.74,1383.98 1264.99,1383.97 1267.23,1383.97 1269.47,1383.96 1271.72,1383.96 1273.96,1383.95 1276.2,1383.94 
  1278.44,1383.94 1280.69,1383.93 1282.93,1383.93 1285.17,1383.92 1287.42,1383.91 1289.66,1383.91 1291.9,1383.9 1294.14,1383.89 1296.39,1383.89 1298.63,1383.88 
  1300.87,1383.87 1303.12,1383.87 1305.36,1383.86 1307.6,1383.85 1309.84,1383.85 1312.09,1383.84 1314.33,1383.83 1316.57,1383.82 1318.82,1383.82 1321.06,1383.81 
  1323.3,1383.8 1325.54,1383.79 1327.79,1383.78 1330.03,1383.78 1332.27,1383.77 1334.51,1383.76 1336.76,1383.75 1339,1383.74 1341.24,1383.73 1343.49,1383.72 
  1345.73,1383.72 1347.97,1383.71 1350.21,1383.7 1352.46,1383.69 1354.7,1383.68 1356.94,1383.67 1359.19,1383.66 1361.43,1383.65 1363.67,1383.64 1365.91,1383.63 
  1368.16,1383.62 1370.4,1383.61 1372.64,1383.6 1374.89,1383.58 1377.13,1383.57 1379.37,1383.56 1381.61,1383.55 1383.86,1383.54 1386.1,1383.53 1388.34,1383.52 
  1390.59,1383.5 1392.83,1383.49 1395.07,1383.48 1397.31,1383.47 1399.56,1383.45 1401.8,1383.44 1404.04,1383.43 1406.29,1383.41 1408.53,1383.4 1410.77,1383.38 
  1413.01,1383.37 1415.26,1383.36 1417.5,1383.34 1419.74,1383.33 1421.98,1383.31 1424.23,1383.3 1426.47,1383.28 1428.71,1383.26 1430.96,1383.25 1433.2,1383.23 
  1435.44,1383.22 1437.68,1383.2 1439.93,1383.18 1442.17,1383.16 1444.41,1383.15 1446.66,1383.13 1448.9,1383.11 1451.14,1383.09 1453.38,1383.07 1455.63,1383.05 
  1457.87,1383.04 1460.11,1383.02 1462.36,1383 1464.6,1382.98 1466.84,1382.96 1469.08,1382.93 1471.33,1382.91 1473.57,1382.89 1475.81,1382.87 1478.06,1382.85 
  1480.3,1382.83 1482.54,1382.8 1484.78,1382.78 1487.03,1382.76 1489.27,1382.73 1491.51,1382.71 1493.76,1382.68 1496,1382.66 1498.24,1382.63 1500.48,1382.61 
  1502.73,1382.58 1504.97,1382.55 1507.21,1382.53 1509.46,1382.5 1511.7,1382.47 1513.94,1382.44 1516.18,1382.42 1518.43,1382.39 1520.67,1382.36 1522.91,1382.33 
  1525.15,1382.3 1527.4,1382.26 1529.64,1382.23 1531.88,1382.2 1534.13,1382.17 1536.37,1382.13 1538.61,1382.1 1540.85,1382.07 1543.1,1382.03 1545.34,1382 
  1547.58,1381.96 1549.83,1381.93 1552.07,1381.89 1554.31,1381.85 1556.55,1381.81 1558.8,1381.77 1561.04,1381.73 1563.28,1381.69 1565.53,1381.65 1567.77,1381.61 
  1570.01,1381.57 1572.25,1381.53 1574.5,1381.48 1576.74,1381.44 1578.98,1381.4 1581.23,1381.35 1583.47,1381.3 1585.71,1381.26 1587.95,1381.21 1590.2,1381.16 
  1592.44,1381.11 1594.68,1381.06 1596.93,1381.01 1599.17,1380.96 1601.41,1380.91 1603.65,1380.85 1605.9,1380.8 1608.14,1380.74 1610.38,1380.69 1612.62,1380.63 
  1614.87,1380.57 1617.11,1380.51 1619.35,1380.45 1621.6,1380.39 1623.84,1380.33 1626.08,1380.27 1628.32,1380.2 1630.57,1380.14 1632.81,1380.07 1635.05,1380 
  1637.3,1379.93 1639.54,1379.86 1641.78,1379.79 1644.02,1379.72 1646.27,1379.65 1648.51,1379.57 1650.75,1379.5 1653,1379.42 1655.24,1379.34 1657.48,1379.26 
  1659.72,1379.18 1661.97,1379.1 1664.21,1379.02 1666.45,1378.93 1668.7,1378.85 1670.94,1378.76 1673.18,1378.67 1675.42,1378.58 1677.67,1378.49 1679.91,1378.39 
  1682.15,1378.3 1684.4,1378.2 1686.64,1378.1 1688.88,1378 1691.12,1377.9 1693.37,1377.79 1695.61,1377.69 1697.85,1377.58 1700.09,1377.47 1702.34,1377.36 
  1704.58,1377.25 1706.82,1377.13 1709.07,1377.02 1711.31,1376.9 1713.55,1376.78 1715.79,1376.66 1718.04,1376.53 1720.28,1376.4 1722.52,1376.28 1724.77,1376.14 
  1727.01,1376.01 1729.25,1375.88 1731.49,1375.74 1733.74,1375.6 1735.98,1375.45 1738.22,1375.31 1740.47,1375.16 1742.71,1375.01 1744.95,1374.86 1747.19,1374.7 
  1749.44,1374.55 1751.68,1374.39 1753.92,1374.22 1756.17,1374.06 1758.41,1373.89 1760.65,1373.71 1762.89,1373.54 1765.14,1373.36 1767.38,1373.18 1769.62,1373 
  1771.87,1372.81 1774.11,1372.62 1776.35,1372.42 1778.59,1372.23 1780.84,1372.02 1783.08,1371.82 1785.32,1371.61 1787.56,1371.4 1789.81,1371.18 1792.05,1370.97 
  1794.29,1370.74 1796.54,1370.52 1798.78,1370.29 1801.02,1370.05 1803.26,1369.81 1805.51,1369.57 1807.75,1369.32 1809.99,1369.07 1812.24,1368.81 1814.48,1368.55 
  1816.72,1368.29 1818.96,1368.02 1821.21,1367.74 1823.45,1367.47 1825.69,1367.18 1827.94,1366.89 1830.18,1366.6 1832.42,1366.3 1834.66,1366 1836.91,1365.69 
  1839.15,1365.37 1841.39,1365.05 1843.64,1364.73 1845.88,1364.4 1848.12,1364.06 1850.36,1363.72 1852.61,1363.37 1854.85,1363.02 1857.09,1362.66 1859.34,1362.29 
  1861.58,1361.92 1863.82,1361.54 1866.06,1361.15 1868.31,1360.76 1870.55,1360.36 1872.79,1359.95 1875.03,1359.54 1877.28,1359.12 1879.52,1358.69 1881.76,1358.26 
  1884.01,1357.82 1886.25,1357.36 1888.49,1356.91 1890.73,1356.44 1892.98,1355.97 1895.22,1355.48 1897.46,1354.99 1899.71,1354.49 1901.95,1353.99 1904.19,1353.47 
  1906.43,1352.94 1908.68,1352.41 1910.92,1351.86 1913.16,1351.31 1915.41,1350.75 1917.65,1350.17 1919.89,1349.59 1922.13,1349 1924.38,1348.39 1926.62,1347.78 
  1928.86,1347.16 1931.11,1346.52 1933.35,1345.88 1935.59,1345.22 1937.83,1344.55 1940.08,1343.87 1942.32,1343.18 1944.56,1342.47 1946.81,1341.76 1949.05,1341.03 
  1951.29,1340.29 1953.53,1339.54 1955.78,1338.77 1958.02,1338 1960.26,1337.2 1962.5,1336.4 1964.75,1335.58 1966.99,1334.75 1969.23,1333.9 1971.48,1333.04 
  1973.72,1332.17 1975.96,1331.28 1978.2,1330.37 1980.45,1329.45 1982.69,1328.52 1984.93,1327.57 1987.18,1326.6 1989.42,1325.62 1991.66,1324.63 1993.9,1323.61 
  1996.15,1322.58 1998.39,1321.53 2000.63,1320.47 2002.88,1319.39 2005.12,1318.29 2007.36,1317.17 2009.6,1316.04 2011.85,1314.88 2014.09,1313.72 2016.33,1312.53 
  2018.58,1311.34 2020.82,1310.12 2023.06,1308.89 2025.3,1307.64 2027.55,1306.37 2029.79,1305.09 2032.03,1303.78 2034.28,1302.45 2036.52,1301.11 2038.76,1299.74 
  2041,1298.35 2043.25,1296.94 2045.49,1295.5 2047.73,1294.04 2049.97,1292.56 2052.22,1291.05 2054.46,1289.52 2056.7,1287.97 2058.95,1286.39 2061.19,1284.78 
  2063.43,1283.15 2065.67,1281.5 2067.92,1279.81 2070.16,1278.11 2072.4,1276.37 2074.65,1274.61 2076.89,1272.82 2079.13,1271.01 2081.37,1269.17 2083.62,1267.3 
  2085.86,1265.4 2088.1,1263.48 2090.35,1261.54 2092.59,1259.56 2094.83,1257.56 2097.07,1255.53 2099.32,1253.48 2101.56,1251.4 2103.8,1249.3 2106.05,1247.17 
  2108.29,1245.01 2110.53,1242.83 2112.77,1240.63 2115.02,1238.4 2117.26,1236.15 2119.5,1233.87 2121.75,1231.57 2123.99,1229.25 2126.23,1226.91 2128.47,1224.54 
  2130.72,1222.15 2132.96,1219.75 2135.2,1217.32 2137.45,1214.87 2139.69,1212.4 2141.93,1209.92 2144.17,1207.42 2146.42,1204.9 2148.66,1202.36 2150.9,1199.81 
  2153.14,1197.25 2155.39,1194.67 2157.63,1192.08 2159.87,1189.47 2162.12,1186.86 2164.36,1184.23 2166.6,1181.6 2168.84,1178.96 2171.09,1176.3 2173.33,1173.65 
  2175.57,1170.98 2177.82,1168.32 2180.06,1165.65 2182.3,1162.97 2184.54,1160.3 2186.79,1157.63 2189.03,1154.96 2191.27,1152.3 2193.52,1149.65 2195.76,1147.02 
  2198,1144.4 2200.24,1141.8 2202.49,1139.22 2204.73,1136.67 2206.97,1134.15 2209.22,1131.66 2211.46,1129.2 2213.7,1126.78 2215.94,1124.41 2218.19,1122.08 
  2220.43,1119.8 2222.67,1117.58 2224.92,1115.41 2227.16,1113.3 2229.4,1111.25 2231.64,1109.27 2233.89,1107.36 2236.13,1105.53 2238.37,1103.78 2240.61,1102.11 
  2242.86,1100.53 2245.1,1099.05 2247.34,1097.66 2249.59,1096.37 2251.83,1095.18 2254.07,1094.11 2256.31,1093.14 2258.56,1092.3 2260.8,1091.58 2263.04,1090.99 
  2265.29,1090.53 2267.53,1090.21 2269.77,1090.03 2272.01,1090 2274.26,1090.13 2276.5,1090.4 2278.74,1090.83 2280.99,1091.42 2283.23,1092.17 2285.47,1093.08 
  2287.71,1094.14 2289.96,1095.38 2292.2,1096.77 2294.44,1098.32 2296.69,1100.04 2298.93,1101.92 2301.17,1103.95 2303.41,1106.14 2305.66,1108.49 2307.9,1110.98 
  2310.14,1113.63 2312.39,1116.43 2314.63,1119.36 2316.87,1122.44 2319.11,1125.65 2321.36,1128.99 2323.6,1132.46 2325.84,1136.05 2328.08,1139.75 2330.33,1143.56 
  2332.57,1147.47 2334.81,1151.48 2337.06,1155.57 2339.3,1159.75 2341.54,1164 2343.78,1168.31 2346.03,1172.69 2348.27,1177.1 2350.51,1181.55 2352.76,1186.04 
  
  "/>
<polyline clip-path="url(#clip982)" style="stroke:#e26f46; stroke-width:4; stroke-opacity:1; fill:none" points="
  112.177,1162.21 114.42,1158.6 116.663,1154.86 118.906,1151.01 121.148,1147.04 123.391,1142.95 125.634,1138.72 127.877,1134.37 130.12,1129.87 132.363,1125.24 
  134.605,1120.46 136.848,1115.53 139.091,1110.45 141.334,1105.21 143.577,1099.81 145.819,1094.24 148.062,1088.5 150.305,1082.58 152.548,1076.49 154.791,1070.21 
  157.034,1063.74 159.276,1057.08 161.519,1050.22 163.762,1043.15 166.005,1035.88 168.248,1028.4 170.491,1020.7 172.733,1012.78 174.976,1004.64 177.219,996.273 
  179.462,987.671 181.705,978.836 183.947,969.764 186.19,960.452 188.433,950.898 190.676,941.1 192.919,931.057 195.162,920.766 197.404,910.228 199.647,899.441 
  201.89,888.406 204.133,877.125 206.376,865.598 208.619,853.827 210.861,841.816 213.104,829.568 215.347,817.089 217.59,804.382 219.833,791.454 222.075,778.313 
  224.318,764.965 226.561,751.419 228.804,737.685 231.047,723.772 233.29,709.691 235.532,695.453 237.775,681.071 240.018,666.558 242.261,651.925 244.504,637.191 
  246.746,622.371 248.989,607.483 251.232,592.545 253.475,577.573 255.718,562.586 257.961,547.601 260.203,532.636 262.446,517.708 264.689,502.835 266.932,488.036 
  269.175,473.328 271.418,458.73 273.66,444.259 275.903,429.935 278.146,415.775 280.389,401.799 282.632,388.024 284.874,374.468 287.117,361.144 289.36,348.067 
  291.603,335.25 293.846,322.705 296.089,310.444 298.331,298.478 300.574,286.817 302.817,275.47 305.06,264.445 307.303,253.749 309.545,243.389 311.788,233.37 
  314.031,223.696 316.274,214.373 318.517,205.402 320.76,196.785 323.002,188.523 325.245,180.617 327.488,173.066 329.731,165.868 331.974,159.021 334.217,152.522 
  336.459,146.368 338.702,140.555 340.945,135.077 343.188,129.929 345.431,125.104 347.673,120.598 349.916,116.403 352.159,112.515 354.402,108.925 356.645,105.629 
  358.888,102.619 361.13,99.8881 363.373,97.4298 365.616,95.2367 367.859,93.3017 370.102,91.6173 372.344,90.1758 374.587,88.9696 376.83,87.9907 379.073,87.231 
  381.316,86.6824 383.559,86.3364 385.801,86.1857 388.044,86.2239 390.287,86.4449 392.53,86.8424 394.773,87.4106 397.016,88.1433 399.258,89.0348 401.501,90.0793 
  403.744,91.2712 405.987,92.6047 408.23,94.0745 410.472,95.6752 412.715,97.4014 414.958,99.248 417.201,101.21 419.444,103.282 421.687,105.459 423.929,107.737 
  426.172,110.11 428.415,112.575 430.658,115.126 432.901,117.759 435.143,120.469 437.386,123.253 439.629,126.106 441.872,129.025 444.115,132.007 446.358,135.05 
  448.6,138.152 450.843,141.309 453.086,144.519 455.329,147.779 457.572,151.087 459.815,154.44 462.057,157.836 464.3,161.271 466.543,164.745 468.786,168.255 
  471.029,171.798 473.271,175.373 475.514,178.979 477.757,182.612 480,186.271 482.243,189.955 484.486,193.662 486.728,197.391 488.971,201.139 491.214,204.906 
  493.457,208.69 495.7,212.491 497.942,216.306 500.185,220.134 502.428,223.976 504.671,227.829 506.914,231.692 509.157,235.565 511.399,239.446 513.642,243.335 
  515.885,247.231 518.128,251.133 520.371,255.039 522.614,258.95 524.856,262.864 527.099,266.781 529.342,270.7 531.585,274.62 533.828,278.541 536.07,282.462 
  538.313,286.383 540.556,290.303 542.799,294.221 545.042,298.137 547.285,302.051 549.527,305.962 551.77,309.87 554.013,313.774 556.256,317.673 558.499,321.569 
  560.741,325.459 562.984,329.345 565.227,333.224 567.47,337.098 569.713,340.966 571.956,344.827 574.198,348.682 576.441,352.53 578.684,356.37 580.927,360.203 
  583.17,364.028 585.413,367.845 587.655,371.654 589.898,375.454 592.141,379.246 594.384,383.03 596.627,386.804 598.869,390.569 601.112,394.325 603.355,398.071 
  605.598,401.808 607.841,405.536 610.084,409.253 612.326,412.961 614.569,416.658 616.812,420.346 619.055,424.023 621.298,427.69 623.54,431.347 625.783,434.993 
  628.026,438.628 630.269,442.253 632.512,445.867 634.755,449.47 636.997,453.062 639.24,456.643 641.483,460.214 643.726,463.773 645.969,467.321 648.212,470.858 
  650.454,474.384 652.697,477.898 654.94,481.401 657.183,484.893 659.426,488.373 661.668,491.842 663.911,495.3 666.154,498.746 668.397,502.181 670.64,505.604 
  672.883,509.016 675.125,512.416 677.368,515.805 679.611,519.182 681.854,522.547 684.097,525.901 686.339,529.244 688.582,532.575 690.825,535.894 693.068,539.202 
  695.311,542.498 697.554,545.783 699.796,549.056 702.039,552.318 704.282,555.568 706.525,558.807 708.768,562.034 711.011,565.249 713.253,568.453 715.496,571.646 
  717.739,574.827 719.982,577.996 722.225,581.154 724.467,584.301 726.71,587.436 728.953,590.56 731.196,593.672 733.439,596.773 735.682,599.863 737.924,602.941 
  740.167,606.008 742.41,609.063 744.653,612.108 746.896,615.141 749.138,618.162 751.381,621.173 753.624,624.172 755.867,627.16 758.11,630.137 760.353,633.103 
  762.595,636.058 764.838,639.002 767.081,641.935 769.324,644.856 771.567,647.767 773.81,650.667 776.052,653.556 778.295,656.434 780.538,659.301 782.781,662.157 
  785.024,665.003 787.266,667.838 789.509,670.662 791.752,673.475 793.995,676.278 796.238,679.07 798.481,681.851 800.723,684.622 802.966,687.382 805.209,690.131 
  807.452,692.87 809.695,695.599 811.938,698.317 814.18,701.025 816.423,703.722 818.666,706.409 820.909,709.086 823.152,711.752 825.394,714.409 827.637,717.055 
  829.88,719.69 832.123,722.316 834.366,724.931 836.609,727.537 838.851,730.132 841.094,732.717 843.337,735.293 845.58,737.858 847.823,740.413 850.065,742.959 
  852.308,745.494 854.551,748.02 856.794,750.536 859.037,753.043 861.28,755.539 863.522,758.026 865.765,760.503 868.008,762.971 870.251,765.429 872.494,767.877 
  874.737,770.316 876.979,772.745 879.222,775.165 881.465,777.575 883.708,779.976 885.951,782.368 888.193,784.751 890.436,787.124 892.679,789.487 894.922,791.842 
  897.165,794.187 899.408,796.523 901.65,798.85 903.893,801.168 906.136,803.477 908.379,805.777 910.622,808.068 912.864,810.349 915.107,812.622 917.35,814.886 
  919.593,817.141 921.836,819.387 924.079,821.625 926.321,823.853 928.564,826.073 930.807,828.284 933.05,830.487 935.293,832.681 937.536,834.866 939.778,837.042 
  942.021,839.21 944.264,841.37 946.507,843.521 948.75,845.663 950.992,847.797 953.235,849.923 955.478,852.04 957.721,854.149 959.964,856.249 962.207,858.342 
  964.449,860.426 966.692,862.502 968.935,864.569 971.178,866.629 973.421,868.68 975.663,870.723 977.906,872.759 980.149,874.786 982.392,876.805 984.635,878.816 
  986.878,880.819 989.12,882.814 991.363,884.802 993.606,886.781 995.849,888.753 998.092,890.717 1000.33,892.673 1002.58,894.621 1004.82,896.562 1007.06,898.495 
  1009.31,900.42 1011.55,902.338 1013.79,904.248 1016.03,906.151 1018.28,908.046 1020.52,909.933 1022.76,911.813 1025.01,913.685 1027.25,915.55 1029.49,917.408 
  1031.73,919.258 1033.98,921.101 1036.22,922.937 1038.46,924.765 1040.71,926.586 1042.95,928.4 1045.19,930.207 1047.43,932.006 1049.68,933.799 1051.92,935.584 
  1054.16,937.362 1056.41,939.133 1058.65,940.897 1060.89,942.654 1063.13,944.404 1065.38,946.147 1067.62,947.883 1069.86,949.612 1072.1,951.334 1074.35,953.05 
  1076.59,954.758 1078.83,956.46 1081.08,958.155 1083.32,959.843 1085.56,961.525 1087.8,963.199 1090.05,964.868 1092.29,966.529 1094.53,968.184 1096.78,969.832 
  1099.02,971.474 1101.26,973.109 1103.5,974.737 1105.75,976.36 1107.99,977.975 1110.23,979.584 1112.48,981.187 1114.72,982.783 1116.96,984.373 1119.2,985.957 
  1121.45,987.534 1123.69,989.105 1125.93,990.67 1128.18,992.228 1130.42,993.78 1132.66,995.326 1134.9,996.866 1137.15,998.4 1139.39,999.927 1141.63,1001.45 
  1143.88,1002.96 1146.12,1004.47 1148.36,1005.98 1150.6,1007.47 1152.85,1008.96 1155.09,1010.45 1157.33,1011.93 1159.57,1013.4 1161.82,1014.87 1164.06,1016.33 
  1166.3,1017.79 1168.55,1019.24 1170.79,1020.68 1173.03,1022.12 1175.27,1023.55 1177.52,1024.98 1179.76,1026.4 1182,1027.81 1184.25,1029.22 1186.49,1030.63 
  1188.73,1032.03 1190.97,1033.42 1193.22,1034.8 1195.46,1036.19 1197.7,1037.56 1199.95,1038.93 1202.19,1040.3 1204.43,1041.66 1206.67,1043.01 1208.92,1044.36 
  1211.16,1045.7 1213.4,1047.04 1215.65,1048.37 1217.89,1049.7 1220.13,1051.02 1222.37,1052.33 1224.62,1053.65 1226.86,1054.95 1229.1,1056.25 1231.35,1057.55 
  1233.59,1058.84 1235.83,1060.12 1238.07,1061.4 1240.32,1062.67 1242.56,1063.94 1244.8,1065.21 1247.04,1066.46 1249.29,1067.72 1251.53,1068.97 1253.77,1070.21 
  1256.02,1071.45 1258.26,1072.68 1260.5,1073.91 1262.74,1075.13 1264.99,1076.35 1267.23,1077.57 1269.47,1078.77 1271.72,1079.98 1273.96,1081.18 1276.2,1082.37 
  1278.44,1083.56 1280.69,1084.74 1282.93,1085.92 1285.17,1087.1 1287.42,1088.27 1289.66,1089.43 1291.9,1090.59 1294.14,1091.75 1296.39,1092.9 1298.63,1094.05 
  1300.87,1095.19 1303.12,1096.32 1305.36,1097.46 1307.6,1098.58 1309.84,1099.71 1312.09,1100.83 1314.33,1101.94 1316.57,1103.05 1318.82,1104.15 1321.06,1105.25 
  1323.3,1106.35 1325.54,1107.44 1327.79,1108.53 1330.03,1109.61 1332.27,1110.69 1334.51,1111.76 1336.76,1112.83 1339,1113.89 1341.24,1114.95 1343.49,1116.01 
  1345.73,1117.06 1347.97,1118.11 1350.21,1119.15 1352.46,1120.19 1354.7,1121.22 1356.94,1122.25 1359.19,1123.28 1361.43,1124.3 1363.67,1125.32 1365.91,1126.33 
  1368.16,1127.34 1370.4,1128.34 1372.64,1129.34 1374.89,1130.34 1377.13,1131.33 1379.37,1132.32 1381.61,1133.3 1383.86,1134.28 1386.1,1135.26 1388.34,1136.23 
  1390.59,1137.2 1392.83,1138.16 1395.07,1139.12 1397.31,1140.08 1399.56,1141.03 1401.8,1141.98 1404.04,1142.92 1406.29,1143.86 1408.53,1144.79 1410.77,1145.73 
  1413.01,1146.65 1415.26,1147.58 1417.5,1148.5 1419.74,1149.41 1421.98,1150.33 1424.23,1151.23 1426.47,1152.14 1428.71,1153.04 1430.96,1153.94 1433.2,1154.83 
  1435.44,1155.72 1437.68,1156.6 1439.93,1157.48 1442.17,1158.36 1444.41,1159.24 1446.66,1160.11 1448.9,1160.97 1451.14,1161.84 1453.38,1162.7 1455.63,1163.55 
  1457.87,1164.4 1460.11,1165.25 1462.36,1166.1 1464.6,1166.94 1466.84,1167.77 1469.08,1168.61 1471.33,1169.44 1473.57,1170.26 1475.81,1171.09 1478.06,1171.91 
  1480.3,1172.72 1482.54,1173.53 1484.78,1174.34 1487.03,1175.15 1489.27,1175.95 1491.51,1176.75 1493.76,1177.54 1496,1178.33 1498.24,1179.12 1500.48,1179.91 
  1502.73,1180.69 1504.97,1181.46 1507.21,1182.24 1509.46,1183.01 1511.7,1183.77 1513.94,1184.54 1516.18,1185.3 1518.43,1186.05 1520.67,1186.81 1522.91,1187.56 
  1525.15,1188.3 1527.4,1189.05 1529.64,1189.79 1531.88,1190.52 1534.13,1191.26 1536.37,1191.99 1538.61,1192.71 1540.85,1193.44 1543.1,1194.16 1545.34,1194.87 
  1547.58,1195.59 1549.83,1196.3 1552.07,1197 1554.31,1197.7 1556.55,1198.4 1558.8,1199.1 1561.04,1199.8 1563.28,1200.49 1565.53,1201.17 1567.77,1201.86 
  1570.01,1202.54 1572.25,1203.21 1574.5,1203.89 1576.74,1204.56 1578.98,1205.23 1581.23,1205.89 1583.47,1206.55 1585.71,1207.21 1587.95,1207.87 1590.2,1208.52 
  1592.44,1209.17 1594.68,1209.81 1596.93,1210.45 1599.17,1211.09 1601.41,1211.73 1603.65,1212.36 1605.9,1212.99 1608.14,1213.62 1610.38,1214.24 1612.62,1214.86 
  1614.87,1215.48 1617.11,1216.09 1619.35,1216.7 1621.6,1217.31 1623.84,1217.91 1626.08,1218.51 1628.32,1219.11 1630.57,1219.71 1632.81,1220.3 1635.05,1220.89 
  1637.3,1221.47 1639.54,1222.06 1641.78,1222.64 1644.02,1223.21 1646.27,1223.79 1648.51,1224.36 1650.75,1224.92 1653,1225.49 1655.24,1226.05 1657.48,1226.61 
  1659.72,1227.16 1661.97,1227.71 1664.21,1228.26 1666.45,1228.81 1668.7,1229.35 1670.94,1229.89 1673.18,1230.42 1675.42,1230.96 1677.67,1231.49 1679.91,1232.01 
  1682.15,1232.54 1684.4,1233.06 1686.64,1233.58 1688.88,1234.09 1691.12,1234.6 1693.37,1235.11 1695.61,1235.62 1697.85,1236.12 1700.09,1236.62 1702.34,1237.11 
  1704.58,1237.61 1706.82,1238.1 1709.07,1238.58 1711.31,1239.07 1713.55,1239.55 1715.79,1240.02 1718.04,1240.5 1720.28,1240.97 1722.52,1241.43 1724.77,1241.9 
  1727.01,1242.36 1729.25,1242.82 1731.49,1243.27 1733.74,1243.72 1735.98,1244.17 1738.22,1244.62 1740.47,1245.06 1742.71,1245.5 1744.95,1245.93 1747.19,1246.36 
  1749.44,1246.79 1751.68,1247.22 1753.92,1247.64 1756.17,1248.06 1758.41,1248.47 1760.65,1248.89 1762.89,1249.29 1765.14,1249.7 1767.38,1250.1 1769.62,1250.5 
  1771.87,1250.89 1774.11,1251.29 1776.35,1251.67 1778.59,1252.06 1780.84,1252.44 1783.08,1252.82 1785.32,1253.19 1787.56,1253.56 1789.81,1253.93 1792.05,1254.29 
  1794.29,1254.65 1796.54,1255.01 1798.78,1255.36 1801.02,1255.71 1803.26,1256.05 1805.51,1256.39 1807.75,1256.73 1809.99,1257.06 1812.24,1257.39 1814.48,1257.72 
  1816.72,1258.04 1818.96,1258.36 1821.21,1258.67 1823.45,1258.98 1825.69,1259.29 1827.94,1259.59 1830.18,1259.89 1832.42,1260.19 1834.66,1260.48 1836.91,1260.76 
  1839.15,1261.05 1841.39,1261.33 1843.64,1261.6 1845.88,1261.87 1848.12,1262.13 1850.36,1262.4 1852.61,1262.65 1854.85,1262.9 1857.09,1263.15 1859.34,1263.39 
  1861.58,1263.63 1863.82,1263.87 1866.06,1264.1 1868.31,1264.32 1870.55,1264.54 1872.79,1264.76 1875.03,1264.97 1877.28,1265.17 1879.52,1265.38 1881.76,1265.57 
  1884.01,1265.76 1886.25,1265.95 1888.49,1266.13 1890.73,1266.31 1892.98,1266.48 1895.22,1266.65 1897.46,1266.81 1899.71,1266.96 1901.95,1267.11 1904.19,1267.26 
  1906.43,1267.4 1908.68,1267.53 1910.92,1267.66 1913.16,1267.78 1915.41,1267.9 1917.65,1268 1919.89,1268.11 1922.13,1268.21 1924.38,1268.3 1926.62,1268.38 
  1928.86,1268.46 1931.11,1268.53 1933.35,1268.6 1935.59,1268.65 1937.83,1268.71 1940.08,1268.75 1942.32,1268.79 1944.56,1268.82 1946.81,1268.84 1949.05,1268.85 
  1951.29,1268.86 1953.53,1268.86 1955.78,1268.85 1958.02,1268.83 1960.26,1268.8 1962.5,1268.77 1964.75,1268.72 1966.99,1268.67 1969.23,1268.61 1971.48,1268.54 
  1973.72,1268.46 1975.96,1268.37 1978.2,1268.27 1980.45,1268.17 1982.69,1268.05 1984.93,1267.92 1987.18,1267.78 1989.42,1267.63 1991.66,1267.47 1993.9,1267.3 
  1996.15,1267.12 1998.39,1266.93 2000.63,1266.72 2002.88,1266.51 2005.12,1266.28 2007.36,1266.04 2009.6,1265.79 2011.85,1265.52 2014.09,1265.24 2016.33,1264.94 
  2018.58,1264.62 2020.82,1264.29 2023.06,1263.93 2025.3,1263.56 2027.55,1263.17 2029.79,1262.77 2032.03,1262.34 2034.28,1261.9 2036.52,1261.45 2038.76,1260.98 
  2041,1260.49 2043.25,1259.98 2045.49,1259.46 2047.73,1258.92 2049.97,1258.36 2052.22,1257.79 2054.46,1257.19 2056.7,1256.58 2058.95,1255.95 2061.19,1255.31 
  2063.43,1254.64 2065.67,1253.95 2067.92,1253.24 2070.16,1252.51 2072.4,1251.76 2074.65,1250.99 2076.89,1250.19 2079.13,1249.37 2081.37,1248.53 2083.62,1247.66 
  2085.86,1246.76 2088.1,1245.84 2090.35,1244.88 2092.59,1243.9 2094.83,1242.89 2097.07,1241.85 2099.32,1240.77 2101.56,1239.66 2103.8,1238.52 2106.05,1237.34 
  2108.29,1236.12 2110.53,1234.86 2112.77,1233.56 2115.02,1232.22 2117.26,1230.84 2119.5,1229.41 2121.75,1227.94 2123.99,1226.41 2126.23,1224.84 2128.47,1223.22 
  2130.72,1221.54 2132.96,1219.81 2135.2,1218.03 2137.45,1216.18 2139.69,1214.27 2141.93,1212.3 2144.17,1210.27 2146.42,1208.17 2148.66,1206 2150.9,1203.77 
  2153.14,1201.45 2155.39,1199.07 2157.63,1196.61 2159.87,1194.06 2162.12,1191.44 2164.36,1188.73 2166.6,1185.93 2168.84,1183.05 2171.09,1180.08 2173.33,1177.01 
  2175.57,1173.84 2177.82,1170.57 2180.06,1167.21 2182.3,1163.73 2184.54,1160.16 2186.79,1156.47 2189.03,1152.66 2191.27,1148.74 2193.52,1144.7 2195.76,1140.53 
  2198,1136.23 2200.24,1131.79 2202.49,1127.21 2204.73,1122.48 2206.97,1117.61 2209.22,1112.57 2211.46,1107.38 2213.7,1102.03 2215.94,1096.5 2218.19,1090.81 
  2220.43,1084.94 2222.67,1078.88 2224.92,1072.65 2227.16,1066.22 2229.4,1059.61 2231.64,1052.79 2233.89,1045.78 2236.13,1038.56 2238.37,1031.13 2240.61,1023.49 
  2242.86,1015.64 2245.1,1007.56 2247.34,999.266 2249.59,990.744 2251.83,981.992 2254.07,973.006 2256.31,963.784 2258.56,954.322 2260.8,944.617 2263.04,934.666 
  2265.29,924.465 2267.53,914.011 2269.77,903.302 2272.01,892.327 2274.26,881.087 2276.5,869.588 2278.74,857.836 2280.99,845.835 2283.23,833.594 2285.47,821.118 
  2287.71,808.416 2289.96,795.496 2292.2,782.366 2294.44,769.035 2296.69,755.513 2298.93,741.809 2301.17,727.933 2303.41,713.898 2305.66,699.713 2307.9,685.391 
  2310.14,670.944 2312.39,656.384 2314.63,641.726 2316.87,626.982 2319.11,612.166 2321.36,597.294 2323.6,582.38 2325.84,567.44 2328.08,552.49 2330.33,537.545 
  2332.57,522.625 2334.81,507.744 2337.06,492.923 2339.3,478.178 2341.54,463.528 2343.78,448.994 2346.03,434.596 2348.27,420.359 2350.51,406.299 2352.76,392.433 
  
  "/>
<path clip-path="url(#clip980)" d="
M1946.68 312.204 L2280.76 312.204 L2280.76 130.764 L1946.68 130.764  Z
  " fill="#ffffff" fill-rule="evenodd" fill-opacity="1"/>
<polyline clip-path="url(#clip980)" style="stroke:#000000; stroke-width:4; stroke-opacity:1; fill:none" points="
  1946.68,312.204 2280.76,312.204 2280.76,130.764 1946.68,130.764 1946.68,312.204 
  "/>
<polyline clip-path="url(#clip980)" style="stroke:#009af9; stroke-width:4; stroke-opacity:1; fill:none" points="
  1970.68,191.244 2114.68,191.244 
  "/>
<path clip-path="url(#clip980)" d="M 0 0 M2138.68 198.293 L2138.68 182.598 L2142.94 182.598 L2142.94 198.131 Q2142.94 201.811 2144.38 203.663 Q2145.81 205.492 2148.68 205.492 Q2152.13 205.492 2154.12 203.293 Q2156.14 201.094 2156.14 197.297 L2156.14 182.598 L2160.4 182.598 L2160.4 208.524 L2156.14 208.524 L2156.14 204.543 Q2154.59 206.904 2152.52 208.061 Q2150.49 209.195 2147.78 209.195 Q2143.31 209.195 2141 206.418 Q2138.68 203.64 2138.68 198.293 M2149.4 181.973 L2149.4 181.973 Z" fill="#000000" fill-rule="evenodd" fill-opacity="1" /><path clip-path="url(#clip980)" d="M 0 0 M2166.27 204.589 L2173.91 204.589 L2173.91 178.223 L2165.6 179.89 L2165.6 175.631 L2173.87 173.964 L2178.54 173.964 L2178.54 204.589 L2186.18 204.589 L2186.18 208.524 L2166.27 208.524 L2166.27 204.589 Z" fill="#000000" fill-rule="evenodd" fill-opacity="1" /><path clip-path="url(#clip980)" d="M 0 0 M2200.88 172.552 Q2197.78 177.876 2196.27 183.084 Q2194.77 188.293 2194.77 193.64 Q2194.77 198.987 2196.27 204.242 Q2197.8 209.473 2200.88 214.774 L2197.18 214.774 Q2193.71 209.334 2191.97 204.08 Q2190.26 198.825 2190.26 193.64 Q2190.26 188.478 2191.97 183.246 Q2193.68 178.015 2197.18 172.552 L2200.88 172.552 Z" fill="#000000" fill-rule="evenodd" fill-opacity="1" /><path clip-path="url(#clip980)" d="M 0 0 M2209.56 175.237 L2209.56 182.598 L2218.33 182.598 L2218.33 185.908 L2209.56 185.908 L2209.56 199.982 Q2209.56 203.154 2210.42 204.057 Q2211.3 204.959 2213.96 204.959 L2218.33 204.959 L2218.33 208.524 L2213.96 208.524 Q2209.03 208.524 2207.15 206.695 Q2205.28 204.844 2205.28 199.982 L2205.28 185.908 L2202.15 185.908 L2202.15 182.598 L2205.28 182.598 L2205.28 175.237 L2209.56 175.237 Z" fill="#000000" fill-rule="evenodd" fill-opacity="1" /><path clip-path="url(#clip980)" d="M 0 0 M2222.13 172.552 L2225.83 172.552 Q2229.31 178.015 2231.02 183.246 Q2232.76 188.478 2232.76 193.64 Q2232.76 198.825 2231.02 204.08 Q2229.31 209.334 2225.83 214.774 L2222.13 214.774 Q2225.21 209.473 2226.71 204.242 Q2228.24 198.987 2228.24 193.64 Q2228.24 188.293 2226.71 183.084 Q2225.21 177.876 2222.13 172.552 Z" fill="#000000" fill-rule="evenodd" fill-opacity="1" /><polyline clip-path="url(#clip980)" style="stroke:#e26f46; stroke-width:4; stroke-opacity:1; fill:none" points="
  1970.68,251.724 2114.68,251.724 
  "/>
<path clip-path="url(#clip980)" d="M 0 0 M2138.68 258.773 L2138.68 243.078 L2142.94 243.078 L2142.94 258.611 Q2142.94 262.291 2144.38 264.143 Q2145.81 265.972 2148.68 265.972 Q2152.13 265.972 2154.12 263.773 Q2156.14 261.574 2156.14 257.777 L2156.14 243.078 L2160.4 243.078 L2160.4 269.004 L2156.14 269.004 L2156.14 265.023 Q2154.59 267.384 2152.52 268.541 Q2150.49 269.675 2147.78 269.675 Q2143.31 269.675 2141 266.898 Q2138.68 264.12 2138.68 258.773 M2149.4 242.453 L2149.4 242.453 Z" fill="#000000" fill-rule="evenodd" fill-opacity="1" /><path clip-path="url(#clip980)" d="M 0 0 M2169.49 265.069 L2185.81 265.069 L2185.81 269.004 L2163.87 269.004 L2163.87 265.069 Q2166.53 262.314 2171.11 257.685 Q2175.72 253.032 2176.9 251.689 Q2179.15 249.166 2180.02 247.43 Q2180.93 245.671 2180.93 243.981 Q2180.93 241.226 2178.98 239.49 Q2177.06 237.754 2173.96 237.754 Q2171.76 237.754 2169.31 238.518 Q2166.88 239.282 2164.1 240.833 L2164.1 236.111 Q2166.92 234.976 2169.38 234.398 Q2171.83 233.819 2173.87 233.819 Q2179.24 233.819 2182.43 236.504 Q2185.63 239.189 2185.63 243.68 Q2185.63 245.81 2184.82 247.731 Q2184.03 249.629 2181.92 252.222 Q2181.34 252.893 2178.24 256.111 Q2175.14 259.305 2169.49 265.069 Z" fill="#000000" fill-rule="evenodd" fill-opacity="1" /><path clip-path="url(#clip980)" d="M 0 0 M2200.51 233.032 Q2197.41 238.356 2195.9 243.564 Q2194.4 248.773 2194.4 254.12 Q2194.4 259.467 2195.9 264.722 Q2197.43 269.953 2200.51 275.254 L2196.81 275.254 Q2193.33 269.814 2191.6 264.56 Q2189.89 259.305 2189.89 254.12 Q2189.89 248.958 2191.6 243.726 Q2193.31 238.495 2196.81 233.032 L2200.51 233.032 Z" fill="#000000" fill-rule="evenodd" fill-opacity="1" /><path clip-path="url(#clip980)" d="M 0 0 M2209.19 235.717 L2209.19 243.078 L2217.96 243.078 L2217.96 246.388 L2209.19 246.388 L2209.19 260.462 Q2209.19 263.634 2210.05 264.537 Q2210.93 265.439 2213.59 265.439 L2217.96 265.439 L2217.96 269.004 L2213.59 269.004 Q2208.66 269.004 2206.78 267.175 Q2204.91 265.324 2204.91 260.462 L2204.91 246.388 L2201.78 246.388 L2201.78 243.078 L2204.91 243.078 L2204.91 235.717 L2209.19 235.717 Z" fill="#000000" fill-rule="evenodd" fill-opacity="1" /><path clip-path="url(#clip980)" d="M 0 0 M2221.76 233.032 L2225.46 233.032 Q2228.94 238.495 2230.65 243.726 Q2232.39 248.958 2232.39 254.12 Q2232.39 259.305 2230.65 264.56 Q2228.94 269.814 2225.46 275.254 L2221.76 275.254 Q2224.84 269.953 2226.34 264.722 Q2227.87 259.467 2227.87 254.12 Q2227.87 248.773 2226.34 243.564 Q2224.84 238.356 2221.76 233.032 Z" fill="#000000" fill-rule="evenodd" fill-opacity="1" /></svg>
