<?xml version="1.0" encoding="utf-8"?>
<svg xmlns="http://www.w3.org/2000/svg" xmlns:xlink="http://www.w3.org/1999/xlink" width="600" height="400" viewBox="0 0 2400 1600">
<defs>
  <clipPath id="clip470">
    <rect x="0" y="0" width="2400" height="1600"/>
  </clipPath>
</defs>
<path clip-path="url(#clip470)" d="
M0 1600 L2400 1600 L2400 0 L0 0  Z
  " fill="#ffffff" fill-rule="evenodd" fill-opacity="1"/>
<defs>
  <clipPath id="clip471">
    <rect x="480" y="0" width="1681" height="1600"/>
  </clipPath>
</defs>
<path clip-path="url(#clip470)" d="
M112.177 1423.18 L2352.76 1423.18 L2352.76 47.2441 L112.177 47.2441  Z
  " fill="#ffffff" fill-rule="evenodd" fill-opacity="1"/>
<defs>
  <clipPath id="clip472">
    <rect x="112" y="47" width="2242" height="1377"/>
  </clipPath>
</defs>
<polyline clip-path="url(#clip472)" style="stroke:#000000; stroke-width:2; stroke-opacity:0.1; fill:none" points="
  112.177,1423.18 112.177,47.2441 
  "/>
<polyline clip-path="url(#clip472)" style="stroke:#000000; stroke-width:2; stroke-opacity:0.1; fill:none" points="
  560.293,1423.18 560.293,47.2441 
  "/>
<polyline clip-path="url(#clip472)" style="stroke:#000000; stroke-width:2; stroke-opacity:0.1; fill:none" points="
  1008.41,1423.18 1008.41,47.2441 
  "/>
<polyline clip-path="url(#clip472)" style="stroke:#000000; stroke-width:2; stroke-opacity:0.1; fill:none" points="
  1456.52,1423.18 1456.52,47.2441 
  "/>
<polyline clip-path="url(#clip472)" style="stroke:#000000; stroke-width:2; stroke-opacity:0.1; fill:none" points="
  1904.64,1423.18 1904.64,47.2441 
  "/>
<polyline clip-path="url(#clip472)" style="stroke:#000000; stroke-width:2; stroke-opacity:0.1; fill:none" points="
  2352.76,1423.18 2352.76,47.2441 
  "/>
<polyline clip-path="url(#clip472)" style="stroke:#000000; stroke-width:2; stroke-opacity:0.1; fill:none" points="
  112.177,1401.55 2352.76,1401.55 
  "/>
<polyline clip-path="url(#clip472)" style="stroke:#000000; stroke-width:2; stroke-opacity:0.1; fill:none" points="
  112.177,1070.16 2352.76,1070.16 
  "/>
<polyline clip-path="url(#clip472)" style="stroke:#000000; stroke-width:2; stroke-opacity:0.1; fill:none" points="
  112.177,738.778 2352.76,738.778 
  "/>
<polyline clip-path="url(#clip472)" style="stroke:#000000; stroke-width:2; stroke-opacity:0.1; fill:none" points="
  112.177,407.392 2352.76,407.392 
  "/>
<polyline clip-path="url(#clip472)" style="stroke:#000000; stroke-width:2; stroke-opacity:0.1; fill:none" points="
  112.177,76.0059 2352.76,76.0059 
  "/>
<polyline clip-path="url(#clip470)" style="stroke:#000000; stroke-width:4; stroke-opacity:1; fill:none" points="
  112.177,1423.18 2352.76,1423.18 
  "/>
<polyline clip-path="url(#clip470)" style="stroke:#000000; stroke-width:4; stroke-opacity:1; fill:none" points="
  112.177,1423.18 112.177,47.2441 
  "/>
<polyline clip-path="url(#clip470)" style="stroke:#000000; stroke-width:4; stroke-opacity:1; fill:none" points="
  112.177,1423.18 112.177,1406.67 
  "/>
<polyline clip-path="url(#clip470)" style="stroke:#000000; stroke-width:4; stroke-opacity:1; fill:none" points="
  560.293,1423.18 560.293,1406.67 
  "/>
<polyline clip-path="url(#clip470)" style="stroke:#000000; stroke-width:4; stroke-opacity:1; fill:none" points="
  1008.41,1423.18 1008.41,1406.67 
  "/>
<polyline clip-path="url(#clip470)" style="stroke:#000000; stroke-width:4; stroke-opacity:1; fill:none" points="
  1456.52,1423.18 1456.52,1406.67 
  "/>
<polyline clip-path="url(#clip470)" style="stroke:#000000; stroke-width:4; stroke-opacity:1; fill:none" points="
  1904.64,1423.18 1904.64,1406.67 
  "/>
<polyline clip-path="url(#clip470)" style="stroke:#000000; stroke-width:4; stroke-opacity:1; fill:none" points="
  2352.76,1423.18 2352.76,1406.67 
  "/>
<polyline clip-path="url(#clip470)" style="stroke:#000000; stroke-width:4; stroke-opacity:1; fill:none" points="
  112.177,1401.55 139.064,1401.55 
  "/>
<polyline clip-path="url(#clip470)" style="stroke:#000000; stroke-width:4; stroke-opacity:1; fill:none" points="
  112.177,1070.16 139.064,1070.16 
  "/>
<polyline clip-path="url(#clip470)" style="stroke:#000000; stroke-width:4; stroke-opacity:1; fill:none" points="
  112.177,738.778 139.064,738.778 
  "/>
<polyline clip-path="url(#clip470)" style="stroke:#000000; stroke-width:4; stroke-opacity:1; fill:none" points="
  112.177,407.392 139.064,407.392 
  "/>
<polyline clip-path="url(#clip470)" style="stroke:#000000; stroke-width:4; stroke-opacity:1; fill:none" points="
  112.177,76.0059 139.064,76.0059 
  "/>
<path clip-path="url(#clip470)" d="M 0 0 M112.177 1445.17 Q108.566 1445.17 106.737 1448.74 Q104.932 1452.28 104.932 1459.41 Q104.932 1466.51 106.737 1470.08 Q108.566 1473.62 112.177 1473.62 Q115.811 1473.62 117.617 1470.08 Q119.446 1466.51 119.446 1459.41 Q119.446 1452.28 117.617 1448.74 Q115.811 1445.17 112.177 1445.17 M112.177 1441.47 Q117.987 1441.47 121.043 1446.07 Q124.122 1450.66 124.122 1459.41 Q124.122 1468.13 121.043 1472.74 Q117.987 1477.32 112.177 1477.32 Q106.367 1477.32 103.288 1472.74 Q100.233 1468.13 100.233 1459.41 Q100.233 1450.66 103.288 1446.07 Q106.367 1441.47 112.177 1441.47 Z" fill="#000000" fill-rule="evenodd" fill-opacity="1" /><path clip-path="url(#clip470)" d="M 0 0 M554.946 1472.72 L571.265 1472.72 L571.265 1476.65 L549.321 1476.65 L549.321 1472.72 Q551.983 1469.96 556.566 1465.33 Q561.173 1460.68 562.353 1459.34 Q564.598 1456.81 565.478 1455.08 Q566.381 1453.32 566.381 1451.63 Q566.381 1448.87 564.436 1447.14 Q562.515 1445.4 559.413 1445.4 Q557.214 1445.4 554.761 1446.17 Q552.33 1446.93 549.552 1448.48 L549.552 1443.76 Q552.376 1442.62 554.83 1442.05 Q557.284 1441.47 559.321 1441.47 Q564.691 1441.47 567.885 1444.15 Q571.08 1446.84 571.08 1451.33 Q571.08 1453.46 570.27 1455.38 Q569.483 1457.28 567.376 1459.87 Q566.798 1460.54 563.696 1463.76 Q560.594 1466.95 554.946 1472.72 Z" fill="#000000" fill-rule="evenodd" fill-opacity="1" /><path clip-path="url(#clip470)" d="M 0 0 M1011.42 1446.17 L999.612 1464.61 L1011.42 1464.61 L1011.42 1446.17 M1010.19 1442.09 L1016.07 1442.09 L1016.07 1464.61 L1021 1464.61 L1021 1468.5 L1016.07 1468.5 L1016.07 1476.65 L1011.42 1476.65 L1011.42 1468.5 L995.816 1468.5 L995.816 1463.99 L1010.19 1442.09 Z" fill="#000000" fill-rule="evenodd" fill-opacity="1" /><path clip-path="url(#clip470)" d="M 0 0 M1456.93 1457.51 Q1453.78 1457.51 1451.93 1459.66 Q1450.1 1461.81 1450.1 1465.56 Q1450.1 1469.29 1451.93 1471.47 Q1453.78 1473.62 1456.93 1473.62 Q1460.08 1473.62 1461.91 1471.47 Q1463.76 1469.29 1463.76 1465.56 Q1463.76 1461.81 1461.91 1459.66 Q1460.08 1457.51 1456.93 1457.51 M1466.21 1442.86 L1466.21 1447.11 Q1464.45 1446.28 1462.65 1445.84 Q1460.86 1445.4 1459.11 1445.4 Q1454.48 1445.4 1452.02 1448.53 Q1449.59 1451.65 1449.24 1457.97 Q1450.61 1455.96 1452.67 1454.89 Q1454.73 1453.8 1457.21 1453.8 Q1462.42 1453.8 1465.42 1456.98 Q1468.46 1460.12 1468.46 1465.56 Q1468.46 1470.89 1465.31 1474.11 Q1462.16 1477.32 1456.93 1477.32 Q1450.93 1477.32 1447.76 1472.74 Q1444.59 1468.13 1444.59 1459.41 Q1444.59 1451.21 1448.48 1446.35 Q1452.37 1441.47 1458.92 1441.47 Q1460.68 1441.47 1462.46 1441.81 Q1464.27 1442.16 1466.21 1442.86 Z" fill="#000000" fill-rule="evenodd" fill-opacity="1" /><path clip-path="url(#clip470)" d="M 0 0 M1904.64 1460.24 Q1901.31 1460.24 1899.39 1462.02 Q1897.49 1463.8 1897.49 1466.93 Q1897.49 1470.05 1899.39 1471.84 Q1901.31 1473.62 1904.64 1473.62 Q1907.97 1473.62 1909.89 1471.84 Q1911.82 1470.03 1911.82 1466.93 Q1911.82 1463.8 1909.89 1462.02 Q1908 1460.24 1904.64 1460.24 M1899.96 1458.25 Q1896.96 1457.51 1895.27 1455.45 Q1893.6 1453.39 1893.6 1450.43 Q1893.6 1446.28 1896.54 1443.87 Q1899.5 1441.47 1904.64 1441.47 Q1909.8 1441.47 1912.74 1443.87 Q1915.68 1446.28 1915.68 1450.43 Q1915.68 1453.39 1913.99 1455.45 Q1912.33 1457.51 1909.34 1458.25 Q1912.72 1459.04 1914.59 1461.33 Q1916.49 1463.62 1916.49 1466.93 Q1916.49 1471.95 1913.41 1474.64 Q1910.36 1477.32 1904.64 1477.32 Q1898.92 1477.32 1895.84 1474.64 Q1892.79 1471.95 1892.79 1466.93 Q1892.79 1463.62 1894.69 1461.33 Q1896.58 1459.04 1899.96 1458.25 M1898.25 1450.86 Q1898.25 1453.55 1899.92 1455.05 Q1901.61 1456.56 1904.64 1456.56 Q1907.65 1456.56 1909.34 1455.05 Q1911.05 1453.55 1911.05 1450.86 Q1911.05 1448.18 1909.34 1446.68 Q1907.65 1445.17 1904.64 1445.17 Q1901.61 1445.17 1899.92 1446.68 Q1898.25 1448.18 1898.25 1450.86 Z" fill="#000000" fill-rule="evenodd" fill-opacity="1" /><path clip-path="url(#clip470)" d="M 0 0 M2329.63 1472.72 L2337.27 1472.72 L2337.27 1446.35 L2328.96 1448.02 L2328.96 1443.76 L2337.22 1442.09 L2341.9 1442.09 L2341.9 1472.72 L2349.54 1472.72 L2349.54 1476.65 L2329.63 1476.65 L2329.63 1472.72 Z" fill="#000000" fill-rule="evenodd" fill-opacity="1" /><path clip-path="url(#clip470)" d="M 0 0 M2364.61 1445.17 Q2361 1445.17 2359.17 1448.74 Q2357.36 1452.28 2357.36 1459.41 Q2357.36 1466.51 2359.17 1470.08 Q2361 1473.62 2364.61 1473.62 Q2368.24 1473.62 2370.05 1470.08 Q2371.88 1466.51 2371.88 1459.41 Q2371.88 1452.28 2370.05 1448.74 Q2368.24 1445.17 2364.61 1445.17 M2364.61 1441.47 Q2370.42 1441.47 2373.47 1446.07 Q2376.55 1450.66 2376.55 1459.41 Q2376.55 1468.13 2373.47 1472.74 Q2370.42 1477.32 2364.61 1477.32 Q2358.8 1477.32 2355.72 1472.74 Q2352.66 1468.13 2352.66 1459.41 Q2352.66 1450.66 2355.72 1446.07 Q2358.8 1441.47 2364.61 1441.47 Z" fill="#000000" fill-rule="evenodd" fill-opacity="1" /><path clip-path="url(#clip470)" d="M 0 0 M76.2328 1387.35 Q72.6217 1387.35 70.793 1390.91 Q68.9875 1394.46 68.9875 1401.59 Q68.9875 1408.69 70.793 1412.26 Q72.6217 1415.8 76.2328 1415.8 Q79.867 1415.8 81.6726 1412.26 Q83.5013 1408.69 83.5013 1401.59 Q83.5013 1394.46 81.6726 1390.91 Q79.867 1387.35 76.2328 1387.35 M76.2328 1383.65 Q82.0429 1383.65 85.0985 1388.25 Q88.1772 1392.84 88.1772 1401.59 Q88.1772 1410.31 85.0985 1414.92 Q82.0429 1419.5 76.2328 1419.5 Q70.4226 1419.5 67.344 1414.92 Q64.2884 1410.31 64.2884 1401.59 Q64.2884 1392.84 67.344 1388.25 Q70.4226 1383.65 76.2328 1383.65 Z" fill="#000000" fill-rule="evenodd" fill-opacity="1" /><path clip-path="url(#clip470)" d="M 0 0 M68.2699 1083.51 L75.9087 1083.51 L75.9087 1057.14 L67.5986 1058.81 L67.5986 1054.55 L75.8624 1052.88 L80.5383 1052.88 L80.5383 1083.51 L88.1772 1083.51 L88.1772 1087.44 L68.2699 1087.44 L68.2699 1083.51 Z" fill="#000000" fill-rule="evenodd" fill-opacity="1" /><path clip-path="url(#clip470)" d="M 0 0 M71.8578 752.123 L88.1772 752.123 L88.1772 756.058 L66.2328 756.058 L66.2328 752.123 Q68.8949 749.368 73.4782 744.739 Q78.0846 740.086 79.2652 738.743 Q81.5105 736.22 82.3902 734.484 Q83.2929 732.725 83.2929 731.035 Q83.2929 728.281 81.3485 726.544 Q79.4272 724.808 76.3254 724.808 Q74.1263 724.808 71.6726 725.572 Q69.2421 726.336 66.4643 727.887 L66.4643 723.165 Q69.2884 722.031 71.7421 721.452 Q74.1958 720.873 76.2328 720.873 Q81.6031 720.873 84.7976 723.558 Q87.992 726.244 87.992 730.734 Q87.992 732.864 87.1818 734.785 Q86.3948 736.683 84.2883 739.276 Q83.7096 739.947 80.6078 743.165 Q77.5059 746.359 71.8578 752.123 Z" fill="#000000" fill-rule="evenodd" fill-opacity="1" /><path clip-path="url(#clip470)" d="M 0 0 M81.0476 406.038 Q84.404 406.755 86.279 409.024 Q88.1772 411.292 88.1772 414.626 Q88.1772 419.741 84.6587 422.542 Q81.1402 425.343 74.6587 425.343 Q72.4828 425.343 70.168 424.904 Q67.8764 424.487 65.4227 423.63 L65.4227 419.117 Q67.3671 420.251 69.6819 420.829 Q71.9967 421.408 74.5198 421.408 Q78.918 421.408 81.2096 419.672 Q83.5244 417.936 83.5244 414.626 Q83.5244 411.57 81.3717 409.857 Q79.242 408.121 75.4226 408.121 L71.3949 408.121 L71.3949 404.279 L75.6078 404.279 Q79.0569 404.279 80.8855 402.913 Q82.7142 401.524 82.7142 398.931 Q82.7142 396.269 80.8161 394.857 Q78.9411 393.422 75.4226 393.422 Q73.5013 393.422 71.3023 393.839 Q69.1032 394.256 66.4643 395.135 L66.4643 390.969 Q69.1264 390.228 71.4412 389.857 Q73.7791 389.487 75.8393 389.487 Q81.1633 389.487 84.2652 391.918 Q87.367 394.325 87.367 398.445 Q87.367 401.316 85.7235 403.306 Q84.08 405.274 81.0476 406.038 Z" fill="#000000" fill-rule="evenodd" fill-opacity="1" /><path clip-path="url(#clip470)" d="M 0 0 M78.5939 62.7999 L66.7884 81.2489 L78.5939 81.2489 L78.5939 62.7999 M77.367 58.7259 L83.2466 58.7259 L83.2466 81.2489 L88.1772 81.2489 L88.1772 85.1378 L83.2466 85.1378 L83.2466 93.2859 L78.5939 93.2859 L78.5939 85.1378 L62.9921 85.1378 L62.9921 80.6239 L77.367 58.7259 Z" fill="#000000" fill-rule="evenodd" fill-opacity="1" /><path clip-path="url(#clip470)" d="M 0 0 M1231.53 1510.27 L1231.53 1520.4 L1243.59 1520.4 L1243.59 1524.95 L1231.53 1524.95 L1231.53 1544.3 Q1231.53 1548.66 1232.71 1549.9 Q1233.91 1551.14 1237.58 1551.14 L1243.59 1551.14 L1243.59 1556.04 L1237.58 1556.04 Q1230.8 1556.04 1228.22 1553.53 Q1225.64 1550.98 1225.64 1544.3 L1225.64 1524.95 L1221.34 1524.95 L1221.34 1520.4 L1225.64 1520.4 L1225.64 1510.27 L1231.53 1510.27 Z" fill="#000000" fill-rule="evenodd" fill-opacity="1" /><polyline clip-path="url(#clip472)" style="stroke:#009af9; stroke-width:4; stroke-opacity:1; fill:none" points="
  112.177,1070.16 114.42,1068.54 116.663,1066.97 118.906,1065.46 121.148,1064.02 123.391,1062.66 125.634,1061.36 127.877,1060.14 130.12,1059 132.363,1057.94 
  134.605,1056.96 136.848,1056.07 139.091,1055.28 141.334,1054.57 143.577,1053.96 145.819,1053.46 148.062,1053.05 150.305,1052.75 152.548,1052.55 154.791,1052.47 
  157.034,1052.5 159.276,1052.64 161.519,1052.9 163.762,1053.28 166.005,1053.78 168.248,1054.41 170.491,1055.16 172.733,1056.04 174.976,1057.04 177.219,1058.18 
  179.462,1059.44 181.705,1060.84 183.947,1062.37 186.19,1064.02 188.433,1065.81 190.676,1067.73 192.919,1069.78 195.162,1071.95 197.404,1074.26 199.647,1076.69 
  201.89,1079.25 204.133,1081.92 206.376,1084.72 208.619,1087.63 210.861,1090.66 213.104,1093.79 215.347,1097.04 217.59,1100.38 219.833,1103.82 222.075,1107.36 
  224.318,1110.99 226.561,1114.7 228.804,1118.49 231.047,1122.36 233.29,1126.3 235.532,1130.3 237.775,1134.35 240.018,1138.47 242.261,1142.62 244.504,1146.82 
  246.746,1151.06 248.989,1155.33 251.232,1159.61 253.475,1163.92 255.718,1168.24 257.961,1172.56 260.203,1176.89 262.446,1181.21 264.689,1185.52 266.932,1189.82 
  269.175,1194.1 271.418,1198.36 273.66,1202.59 275.903,1206.79 278.146,1210.96 280.389,1215.08 282.632,1219.17 284.874,1223.21 287.117,1227.19 289.36,1231.13 
  291.603,1235.01 293.846,1238.83 296.089,1242.6 298.331,1246.3 300.574,1249.94 302.817,1253.52 305.06,1257.03 307.303,1260.48 309.545,1263.86 311.788,1267.17 
  314.031,1270.41 316.274,1273.59 318.517,1276.7 320.76,1279.73 323.002,1282.7 325.245,1285.6 327.488,1288.43 329.731,1291.19 331.974,1293.88 334.217,1296.51 
  336.459,1299.07 338.702,1301.56 340.945,1303.99 343.188,1306.36 345.431,1308.67 347.673,1310.91 349.916,1313.09 352.159,1315.22 354.402,1317.28 356.645,1319.29 
  358.888,1321.24 361.13,1323.14 363.373,1324.99 365.616,1326.78 367.859,1328.52 370.102,1330.22 372.344,1331.86 374.587,1333.46 376.83,1335.01 379.073,1336.51 
  381.316,1337.97 383.559,1339.39 385.801,1340.77 388.044,1342.11 390.287,1343.4 392.53,1344.66 394.773,1345.88 397.016,1347.07 399.258,1348.21 401.501,1349.33 
  403.744,1350.41 405.987,1351.46 408.23,1352.48 410.472,1353.47 412.715,1354.43 414.958,1355.36 417.201,1356.26 419.444,1357.14 421.687,1357.99 423.929,1358.82 
  426.172,1359.62 428.415,1360.4 430.658,1361.15 432.901,1361.88 435.143,1362.59 437.386,1363.28 439.629,1363.95 441.872,1364.6 444.115,1365.23 446.358,1365.85 
  448.6,1366.44 450.843,1367.02 453.086,1367.58 455.329,1368.12 457.572,1368.65 459.815,1369.17 462.057,1369.66 464.3,1370.15 466.543,1370.62 468.786,1371.07 
  471.029,1371.51 473.271,1371.94 475.514,1372.36 477.757,1372.77 480,1373.16 482.243,1373.54 484.486,1373.91 486.728,1374.28 488.971,1374.63 491.214,1374.97 
  493.457,1375.3 495.7,1375.62 497.942,1375.93 500.185,1376.23 502.428,1376.52 504.671,1376.81 506.914,1377.08 509.157,1377.35 511.399,1377.61 513.642,1377.87 
  515.885,1378.11 518.128,1378.35 520.371,1378.58 522.614,1378.81 524.856,1379.03 527.099,1379.24 529.342,1379.45 531.585,1379.65 533.828,1379.84 536.07,1380.03 
  538.313,1380.21 540.556,1380.39 542.799,1380.56 545.042,1380.73 547.285,1380.89 549.527,1381.04 551.77,1381.19 554.013,1381.34 556.256,1381.48 558.499,1381.62 
  560.741,1381.75 562.984,1381.88 565.227,1382 567.47,1382.12 569.713,1382.24 571.956,1382.35 574.198,1382.45 576.441,1382.56 578.684,1382.66 580.927,1382.75 
  583.17,1382.85 585.413,1382.94 587.655,1383.02 589.898,1383.1 592.141,1383.18 594.384,1383.26 596.627,1383.33 598.869,1383.4 601.112,1383.46 603.355,1383.53 
  605.598,1383.59 607.841,1383.64 610.084,1383.7 612.326,1383.75 614.569,1383.8 616.812,1383.84 619.055,1383.89 621.298,1383.93 623.54,1383.97 625.783,1384 
  628.026,1384.03 630.269,1384.06 632.512,1384.09 634.755,1384.12 636.997,1384.14 639.24,1384.16 641.483,1384.18 643.726,1384.19 645.969,1384.21 648.212,1384.22 
  650.454,1384.23 652.697,1384.23 654.94,1384.24 657.183,1384.24 659.426,1384.24 661.668,1384.24 663.911,1384.23 666.154,1384.22 668.397,1384.21 670.64,1384.2 
  672.883,1384.19 675.125,1384.18 677.368,1384.16 679.611,1384.14 681.854,1384.12 684.097,1384.09 686.339,1384.07 688.582,1384.04 690.825,1384.01 693.068,1383.98 
  695.311,1383.95 697.554,1383.91 699.796,1383.87 702.039,1383.83 704.282,1383.79 706.525,1383.75 708.768,1383.7 711.011,1383.65 713.253,1383.6 715.496,1383.55 
  717.739,1383.5 719.982,1383.44 722.225,1383.39 724.467,1383.33 726.71,1383.27 728.953,1383.2 731.196,1383.14 733.439,1383.07 735.682,1383 737.924,1382.93 
  740.167,1382.85 742.41,1382.78 744.653,1382.7 746.896,1382.62 749.138,1382.54 751.381,1382.46 753.624,1382.37 755.867,1382.28 758.11,1382.19 760.353,1382.1 
  762.595,1382.01 764.838,1381.91 767.081,1381.82 769.324,1381.72 771.567,1381.61 773.81,1381.51 776.052,1381.4 778.295,1381.29 780.538,1381.18 782.781,1381.07 
  785.024,1380.95 787.266,1380.84 789.509,1380.72 791.752,1380.59 793.995,1380.47 796.238,1380.34 798.481,1380.21 800.723,1380.08 802.966,1379.95 805.209,1379.81 
  807.452,1379.67 809.695,1379.53 811.938,1379.39 814.18,1379.24 816.423,1379.1 818.666,1378.95 820.909,1378.79 823.152,1378.64 825.394,1378.48 827.637,1378.32 
  829.88,1378.15 832.123,1377.99 834.366,1377.82 836.609,1377.65 838.851,1377.47 841.094,1377.3 843.337,1377.12 845.58,1376.93 847.823,1376.75 850.065,1376.56 
  852.308,1376.37 854.551,1376.18 856.794,1375.98 859.037,1375.78 861.28,1375.58 863.522,1375.37 865.765,1375.16 868.008,1374.95 870.251,1374.74 872.494,1374.52 
  874.737,1374.3 876.979,1374.07 879.222,1373.84 881.465,1373.61 883.708,1373.38 885.951,1373.14 888.193,1372.9 890.436,1372.65 892.679,1372.4 894.922,1372.15 
  897.165,1371.9 899.408,1371.64 901.65,1371.38 903.893,1371.11 906.136,1370.84 908.379,1370.57 910.622,1370.29 912.864,1370.01 915.107,1369.72 917.35,1369.43 
  919.593,1369.14 921.836,1368.84 924.079,1368.54 926.321,1368.23 928.564,1367.92 930.807,1367.61 933.05,1367.29 935.293,1366.97 937.536,1366.64 939.778,1366.31 
  942.021,1365.97 944.264,1365.63 946.507,1365.29 948.75,1364.94 950.992,1364.58 953.235,1364.23 955.478,1363.86 957.721,1363.49 959.964,1363.12 962.207,1362.74 
  964.449,1362.36 966.692,1361.97 968.935,1361.57 971.178,1361.17 973.421,1360.77 975.663,1360.36 977.906,1359.94 980.149,1359.52 982.392,1359.09 984.635,1358.66 
  986.878,1358.22 989.12,1357.78 991.363,1357.33 993.606,1356.88 995.849,1356.41 998.092,1355.95 1000.33,1355.47 1002.58,1354.99 1004.82,1354.51 1007.06,1354.01 
  1009.31,1353.52 1011.55,1353.01 1013.79,1352.5 1016.03,1351.98 1018.28,1351.45 1020.52,1350.92 1022.76,1350.38 1025.01,1349.84 1027.25,1349.29 1029.49,1348.73 
  1031.73,1348.16 1033.98,1347.58 1036.22,1347 1038.46,1346.41 1040.71,1345.82 1042.95,1345.21 1045.19,1344.6 1047.43,1343.98 1049.68,1343.35 1051.92,1342.71 
  1054.16,1342.07 1056.41,1341.42 1058.65,1340.76 1060.89,1340.09 1063.13,1339.41 1065.38,1338.72 1067.62,1338.03 1069.86,1337.33 1072.1,1336.61 1074.35,1335.89 
  1076.59,1335.16 1078.83,1334.42 1081.08,1333.67 1083.32,1332.91 1085.56,1332.15 1087.8,1331.37 1090.05,1330.58 1092.29,1329.78 1094.53,1328.98 1096.78,1328.16 
  1099.02,1327.33 1101.26,1326.49 1103.5,1325.65 1105.75,1324.79 1107.99,1323.92 1110.23,1323.04 1112.48,1322.15 1114.72,1321.25 1116.96,1320.34 1119.2,1319.41 
  1121.45,1318.48 1123.69,1317.53 1125.93,1316.57 1128.18,1315.6 1130.42,1314.62 1132.66,1313.63 1134.9,1312.62 1137.15,1311.61 1139.39,1310.58 1141.63,1309.53 
  1143.88,1308.48 1146.12,1307.41 1148.36,1306.33 1150.6,1305.24 1152.85,1304.14 1155.09,1303.02 1157.33,1301.88 1159.57,1300.74 1161.82,1299.58 1164.06,1298.41 
  1166.3,1297.23 1168.55,1296.03 1170.79,1294.82 1173.03,1293.6 1175.27,1292.36 1177.52,1291.11 1179.76,1289.84 1182,1288.56 1184.25,1287.27 1186.49,1285.96 
  1188.73,1284.64 1190.97,1283.3 1193.22,1281.95 1195.46,1280.58 1197.7,1279.19 1199.95,1277.79 1202.19,1276.37 1204.43,1274.94 1206.67,1273.49 1208.92,1272.02 
  1211.16,1270.54 1213.4,1269.04 1215.65,1267.52 1217.89,1265.99 1220.13,1264.44 1222.37,1262.87 1224.62,1261.29 1226.86,1259.68 1229.1,1258.06 1231.35,1256.43 
  1233.59,1254.77 1235.83,1253.1 1238.07,1251.41 1240.32,1249.7 1242.56,1247.98 1244.8,1246.24 1247.04,1244.48 1249.29,1242.7 1251.53,1240.91 1253.77,1239.1 
  1256.02,1237.27 1258.26,1235.42 1260.5,1233.56 1262.74,1231.67 1264.99,1229.78 1267.23,1227.86 1269.47,1225.93 1271.72,1223.98 1273.96,1222.01 1276.2,1220.03 
  1278.44,1218.03 1280.69,1216.02 1282.93,1213.98 1285.17,1211.94 1287.42,1209.87 1289.66,1207.79 1291.9,1205.7 1294.14,1203.59 1296.39,1201.46 1298.63,1199.32 
  1300.87,1197.16 1303.12,1194.99 1305.36,1192.81 1307.6,1190.61 1309.84,1188.39 1312.09,1186.17 1314.33,1183.93 1316.57,1181.67 1318.82,1179.41 1321.06,1177.13 
  1323.3,1174.84 1325.54,1172.53 1327.79,1170.22 1330.03,1167.89 1332.27,1165.55 1334.51,1163.2 1336.76,1160.84 1339,1158.47 1341.24,1156.08 1343.49,1153.68 
  1345.73,1151.27 1347.97,1148.85 1350.21,1146.42 1352.46,1143.99 1354.7,1141.55 1356.94,1139.1 1359.19,1136.66 1361.43,1134.21 1363.67,1131.76 1365.91,1129.32 
  1368.16,1126.88 1370.4,1124.45 1372.64,1122.03 1374.89,1119.61 1377.13,1117.21 1379.37,1114.82 1381.61,1112.44 1383.86,1110.08 1386.1,1107.74 1388.34,1105.42 
  1390.59,1103.12 1392.83,1100.85 1395.07,1098.6 1397.31,1096.38 1399.56,1094.19 1401.8,1092.03 1404.04,1089.9 1406.29,1087.81 1408.53,1085.76 1410.77,1083.75 
  1413.01,1081.78 1415.26,1079.86 1417.5,1077.98 1419.74,1076.15 1421.98,1074.37 1424.23,1072.65 1426.47,1070.98 1428.71,1069.36 1430.96,1067.81 1433.2,1066.32 
  1435.44,1064.9 1437.68,1063.54 1439.93,1062.25 1442.17,1061.03 1444.41,1059.89 1446.66,1058.82 1448.9,1057.84 1451.14,1056.93 1453.38,1056.11 1455.63,1055.38 
  1457.87,1054.74 1460.11,1054.19 1462.36,1053.73 1464.6,1053.37 1466.84,1053.11 1469.08,1052.95 1471.33,1052.9 1473.57,1052.96 1475.81,1053.13 1478.06,1053.41 
  1480.3,1053.81 1482.54,1054.33 1484.78,1054.97 1487.03,1055.74 1489.27,1056.63 1491.51,1057.66 1493.76,1058.82 1496,1060.12 1498.24,1061.55 1500.48,1063.14 
  1502.73,1064.86 1504.97,1066.73 1507.21,1068.74 1509.46,1070.88 1511.7,1073.15 1513.94,1075.55 1516.18,1078.07 1518.43,1080.71 1520.67,1083.47 1522.91,1086.34 
  1525.15,1089.32 1527.4,1092.41 1529.64,1095.59 1531.88,1098.88 1534.13,1102.25 1536.37,1105.72 1538.61,1109.26 1540.85,1112.89 1543.1,1116.6 1545.34,1120.38 
  1547.58,1124.22 1549.83,1128.13 1552.07,1132.09 1554.31,1136.11 1556.55,1140.18 1558.8,1144.3 1561.04,1148.45 1563.28,1152.64 1565.53,1156.87 1567.77,1161.11 
  1570.01,1165.38 1572.25,1169.67 1574.5,1173.96 1576.74,1178.27 1578.98,1182.57 1581.23,1186.87 1583.47,1191.16 1585.71,1195.44 1587.95,1199.7 1590.2,1203.94 
  1592.44,1208.14 1594.68,1212.31 1596.93,1216.44 1599.17,1220.52 1601.41,1224.55 1603.65,1228.52 1605.9,1232.44 1608.14,1236.29 1610.38,1240.09 1612.62,1243.82 
  1614.87,1247.49 1617.11,1251.1 1619.35,1254.65 1621.6,1258.13 1623.84,1261.54 1626.08,1264.89 1628.32,1268.18 1630.57,1271.4 1632.81,1274.55 1635.05,1277.63 
  1637.3,1280.65 1639.54,1283.6 1641.78,1286.48 1644.02,1289.29 1646.27,1292.04 1648.51,1294.72 1650.75,1297.34 1653,1299.88 1655.24,1302.36 1657.48,1304.78 
  1659.72,1307.13 1661.97,1309.42 1664.21,1311.64 1666.45,1313.81 1668.7,1315.91 1670.94,1317.95 1673.18,1319.93 1675.42,1321.85 1677.67,1323.72 1679.91,1325.53 
  1682.15,1327.29 1684.4,1328.99 1686.64,1330.64 1688.88,1332.25 1691.12,1333.8 1693.37,1335.31 1695.61,1336.78 1697.85,1338.2 1700.09,1339.59 1702.34,1340.94 
  1704.58,1342.25 1706.82,1343.53 1709.07,1344.77 1711.31,1345.99 1713.55,1347.17 1715.79,1348.31 1718.04,1349.42 1720.28,1350.5 1722.52,1351.55 1724.77,1352.57 
  1727.01,1353.56 1729.25,1354.52 1731.49,1355.45 1733.74,1356.36 1735.98,1357.24 1738.22,1358.09 1740.47,1358.91 1742.71,1359.72 1744.95,1360.5 1747.19,1361.25 
  1749.44,1361.99 1751.68,1362.7 1753.92,1363.39 1756.17,1364.06 1758.41,1364.71 1760.65,1365.34 1762.89,1365.95 1765.14,1366.55 1767.38,1367.12 1769.62,1367.68 
  1771.87,1368.23 1774.11,1368.76 1776.35,1369.27 1778.59,1369.76 1780.84,1370.25 1783.08,1370.71 1785.32,1371.17 1787.56,1371.61 1789.81,1372.04 1792.05,1372.45 
  1794.29,1372.86 1796.54,1373.25 1798.78,1373.63 1801.02,1374 1803.26,1374.36 1805.51,1374.71 1807.75,1375.04 1809.99,1375.37 1812.24,1375.69 1814.48,1376 
  1816.72,1376.3 1818.96,1376.59 1821.21,1376.87 1823.45,1377.15 1825.69,1377.42 1827.94,1377.68 1830.18,1377.93 1832.42,1378.17 1834.66,1378.41 1836.91,1378.64 
  1839.15,1378.86 1841.39,1379.08 1843.64,1379.29 1845.88,1379.49 1848.12,1379.69 1850.36,1379.88 1852.61,1380.07 1854.85,1380.25 1857.09,1380.42 1859.34,1380.59 
  1861.58,1380.76 1863.82,1380.91 1866.06,1381.07 1868.31,1381.22 1870.55,1381.36 1872.79,1381.5 1875.03,1381.64 1877.28,1381.77 1879.52,1381.9 1881.76,1382.02 
  1884.01,1382.14 1886.25,1382.25 1888.49,1382.36 1890.73,1382.47 1892.98,1382.57 1895.22,1382.67 1897.46,1382.77 1899.71,1382.86 1901.95,1382.95 1904.19,1383.03 
  1906.43,1383.11 1908.68,1383.19 1910.92,1383.26 1913.16,1383.34 1915.41,1383.4 1917.65,1383.47 1919.89,1383.53 1922.13,1383.59 1924.38,1383.65 1926.62,1383.7 
  1928.86,1383.75 1931.11,1383.8 1933.35,1383.84 1935.59,1383.89 1937.83,1383.93 1940.08,1383.96 1942.32,1384 1944.56,1384.03 1946.81,1384.06 1949.05,1384.09 
  1951.29,1384.11 1953.53,1384.13 1955.78,1384.15 1958.02,1384.17 1960.26,1384.18 1962.5,1384.2 1964.75,1384.21 1966.99,1384.21 1969.23,1384.22 1971.48,1384.22 
  1973.72,1384.22 1975.96,1384.22 1978.2,1384.22 1980.45,1384.21 1982.69,1384.21 1984.93,1384.2 1987.18,1384.18 1989.42,1384.17 1991.66,1384.15 1993.9,1384.14 
  1996.15,1384.12 1998.39,1384.09 2000.63,1384.07 2002.88,1384.04 2005.12,1384.02 2007.36,1383.99 2009.6,1383.95 2011.85,1383.92 2014.09,1383.88 2016.33,1383.84 
  2018.58,1383.8 2020.82,1383.76 2023.06,1383.72 2025.3,1383.67 2027.55,1383.62 2029.79,1383.57 2032.03,1383.52 2034.28,1383.47 2036.52,1383.41 2038.76,1383.35 
  2041,1383.29 2043.25,1383.23 2045.49,1383.17 2047.73,1383.1 2049.97,1383.03 2052.22,1382.96 2054.46,1382.89 2056.7,1382.82 2058.95,1382.74 2061.19,1382.66 
  2063.43,1382.58 2065.67,1382.5 2067.92,1382.42 2070.16,1382.33 2072.4,1382.24 2074.65,1382.15 2076.89,1382.06 2079.13,1381.96 2081.37,1381.87 2083.62,1381.77 
  2085.86,1381.67 2088.1,1381.56 2090.35,1381.46 2092.59,1381.35 2094.83,1381.24 2097.07,1381.13 2099.32,1381.02 2101.56,1380.9 2103.8,1380.78 2106.05,1380.66 
  2108.29,1380.54 2110.53,1380.41 2112.77,1380.29 2115.02,1380.16 2117.26,1380.02 2119.5,1379.89 2121.75,1379.75 2123.99,1379.61 2126.23,1379.47 2128.47,1379.33 
  2130.72,1379.18 2132.96,1379.03 2135.2,1378.88 2137.45,1378.73 2139.69,1378.57 2141.93,1378.41 2144.17,1378.25 2146.42,1378.08 2148.66,1377.92 2150.9,1377.75 
  2153.14,1377.58 2155.39,1377.4 2157.63,1377.22 2159.87,1377.04 2162.12,1376.86 2164.36,1376.67 2166.6,1376.48 2168.84,1376.29 2171.09,1376.09 2173.33,1375.9 
  2175.57,1375.7 2177.82,1375.49 2180.06,1375.28 2182.3,1375.07 2184.54,1374.86 2186.79,1374.65 2189.03,1374.43 2191.27,1374.2 2193.52,1373.98 2195.76,1373.75 
  2198,1373.52 2200.24,1373.28 2202.49,1373.04 2204.73,1372.8 2206.97,1372.55 2209.22,1372.3 2211.46,1372.05 2213.7,1371.79 2215.94,1371.53 2218.19,1371.27 
  2220.43,1371 2222.67,1370.73 2224.92,1370.46 2227.16,1370.18 2229.4,1369.89 2231.64,1369.61 2233.89,1369.32 2236.13,1369.02 2238.37,1368.72 2240.61,1368.42 
  2242.86,1368.12 2245.1,1367.8 2247.34,1367.49 2249.59,1367.17 2251.83,1366.85 2254.07,1366.52 2256.31,1366.18 2258.56,1365.85 2260.8,1365.5 2263.04,1365.16 
  2265.29,1364.81 2267.53,1364.45 2269.77,1364.09 2272.01,1363.72 2274.26,1363.35 2276.5,1362.98 2278.74,1362.6 2280.99,1362.21 2283.23,1361.82 2285.47,1361.43 
  2287.71,1361.02 2289.96,1360.62 2292.2,1360.21 2294.44,1359.79 2296.69,1359.37 2298.93,1358.94 2301.17,1358.5 2303.41,1358.06 2305.66,1357.62 2307.9,1357.17 
  2310.14,1356.71 2312.39,1356.24 2314.63,1355.77 2316.87,1355.3 2319.11,1354.82 2321.36,1354.33 2323.6,1353.83 2325.84,1353.33 2328.08,1352.83 2330.33,1352.31 
  2332.57,1351.79 2334.81,1351.26 2337.06,1350.73 2339.3,1350.19 2341.54,1349.64 2343.78,1349.08 2346.03,1348.52 2348.27,1347.95 2350.51,1347.37 2352.76,1346.79 
  
  "/>
<polyline clip-path="url(#clip472)" style="stroke:#e26f46; stroke-width:4; stroke-opacity:1; fill:none" points="
  112.177,1070.16 114.42,1063.44 116.663,1056.53 118.906,1049.42 121.148,1042.12 123.391,1034.63 125.634,1026.93 127.877,1019.03 130.12,1010.92 132.363,1002.6 
  134.605,994.062 136.848,985.308 139.091,976.332 141.334,967.133 143.577,957.709 145.819,948.057 148.062,938.176 150.305,928.065 152.548,917.723 154.791,907.149 
  157.034,896.342 159.276,885.303 161.519,874.033 163.762,862.532 166.005,850.802 168.248,838.846 170.491,826.666 172.733,814.265 174.976,801.648 177.219,788.82 
  179.462,775.785 181.705,762.55 183.947,749.121 186.19,735.507 188.433,721.715 190.676,707.754 192.919,693.633 195.162,679.363 197.404,664.954 199.647,650.416 
  201.89,635.765 204.133,621.014 206.376,606.177 208.619,591.269 210.861,576.306 213.104,561.301 215.347,546.272 217.59,531.234 219.833,516.204 222.075,501.198 
  224.318,486.235 226.561,471.33 228.804,456.503 231.047,441.772 233.29,427.154 235.532,412.67 237.775,398.338 240.018,384.176 242.261,370.198 244.504,356.424 
  246.746,342.871 248.989,329.555 251.232,316.494 253.475,303.703 255.718,291.196 257.961,278.986 260.203,267.088 262.446,255.513 264.689,244.272 266.932,233.377 
  269.175,222.837 271.418,212.661 273.66,202.857 275.903,193.434 278.146,184.397 280.389,175.753 282.632,167.507 284.874,159.663 287.117,152.224 289.36,145.194 
  291.603,138.575 293.846,132.365 296.089,126.563 298.331,121.167 300.574,116.175 302.817,111.584 305.06,107.391 307.303,103.592 309.545,100.183 311.788,97.1605 
  314.031,94.5185 316.274,92.2521 318.517,90.3553 320.76,88.8221 323.002,87.6459 325.245,86.8195 327.488,86.3354 329.731,86.1857 331.974,86.362 334.217,86.8556 
  336.459,87.6572 338.702,88.7571 340.945,90.1485 343.188,91.8238 345.431,93.774 347.673,95.99 349.916,98.4632 352.159,101.185 354.402,104.146 356.645,107.339 
  358.888,110.755 361.13,114.386 363.373,118.224 365.616,122.261 367.859,126.489 370.102,130.901 372.344,135.489 374.587,140.246 376.83,145.165 379.073,150.238 
  381.316,155.458 383.559,160.82 385.801,166.315 388.044,171.937 390.287,177.681 392.53,183.539 394.773,189.506 397.016,195.575 399.258,201.74 401.501,207.996 
  403.744,214.338 405.987,220.759 408.23,227.255 410.472,233.822 412.715,240.454 414.958,247.148 417.201,253.898 419.444,260.701 421.687,267.553 423.929,274.449 
  426.172,281.387 428.415,288.361 430.658,295.369 432.901,302.407 435.143,309.472 437.386,316.56 439.629,323.668 441.872,330.794 444.115,337.934 446.358,345.086 
  448.6,352.247 450.843,359.414 453.086,366.586 455.329,373.759 457.572,380.932 459.815,388.104 462.057,395.271 464.3,402.432 466.543,409.585 468.786,416.728 
  471.029,423.859 473.271,430.976 475.514,438.078 477.757,445.164 480,452.233 482.243,459.282 484.486,466.311 486.728,473.319 488.971,480.305 491.214,487.266 
  493.457,494.203 495.7,501.114 497.942,507.998 500.185,514.855 502.428,521.683 504.671,528.481 506.914,535.249 509.157,541.985 511.399,548.69 513.642,555.362 
  515.885,562.001 518.128,568.606 520.371,575.176 522.614,581.711 524.856,588.21 527.099,594.674 529.342,601.101 531.585,607.49 533.828,613.843 536.07,620.158 
  538.313,626.436 540.556,632.675 542.799,638.876 545.042,645.038 547.285,651.163 549.527,657.248 551.77,663.295 554.013,669.303 556.256,675.272 558.499,681.201 
  560.741,687.091 562.984,692.94 565.227,698.75 567.47,704.52 569.713,710.25 571.956,715.94 574.198,721.589 576.441,727.199 578.684,732.769 580.927,738.299 
  583.17,743.788 585.413,749.238 587.655,754.647 589.898,760.017 592.141,765.347 594.384,770.637 596.627,775.887 598.869,781.097 601.112,786.267 603.355,791.398 
  605.598,796.49 607.841,801.542 610.084,806.555 612.326,811.529 614.569,816.464 616.812,821.36 619.055,826.217 621.298,831.036 623.54,835.816 625.783,840.558 
  628.026,845.262 630.269,849.929 632.512,854.557 634.755,859.149 636.997,863.702 639.24,868.219 641.483,872.699 643.726,877.141 645.969,881.547 648.212,885.917 
  650.454,890.251 652.697,894.548 654.94,898.809 657.183,903.035 659.426,907.226 661.668,911.381 663.911,915.501 666.154,919.586 668.397,923.637 670.64,927.653 
  672.883,931.635 675.125,935.582 677.368,939.496 679.611,943.377 681.854,947.224 684.097,951.037 686.339,954.818 688.582,958.566 690.825,962.281 693.068,965.964 
  695.311,969.615 697.554,973.233 699.796,976.82 702.039,980.376 704.282,983.9 706.525,987.393 708.768,990.855 711.011,994.286 713.253,997.687 715.496,1001.06 
  717.739,1004.4 719.982,1007.71 722.225,1010.99 724.467,1014.24 726.71,1017.46 728.953,1020.66 731.196,1023.82 733.439,1026.96 735.682,1030.07 737.924,1033.15 
  740.167,1036.2 742.41,1039.22 744.653,1042.22 746.896,1045.19 749.138,1048.13 751.381,1051.05 753.624,1053.94 755.867,1056.8 758.11,1059.64 760.353,1062.45 
  762.595,1065.23 764.838,1067.99 767.081,1070.72 769.324,1073.43 771.567,1076.11 773.81,1078.77 776.052,1081.4 778.295,1084.01 780.538,1086.59 782.781,1089.15 
  785.024,1091.69 787.266,1094.2 789.509,1096.69 791.752,1099.15 793.995,1101.59 796.238,1104.01 798.481,1106.4 800.723,1108.78 802.966,1111.13 805.209,1113.45 
  807.452,1115.76 809.695,1118.04 811.938,1120.3 814.18,1122.54 816.423,1124.76 818.666,1126.96 820.909,1129.13 823.152,1131.29 825.394,1133.42 827.637,1135.54 
  829.88,1137.63 832.123,1139.7 834.366,1141.75 836.609,1143.78 838.851,1145.8 841.094,1147.79 843.337,1149.76 845.58,1151.71 847.823,1153.65 850.065,1155.56 
  852.308,1157.46 854.551,1159.34 856.794,1161.19 859.037,1163.03 861.28,1164.86 863.522,1166.66 865.765,1168.44 868.008,1170.21 870.251,1171.96 872.494,1173.69 
  874.737,1175.4 876.979,1177.1 879.222,1178.78 881.465,1180.44 883.708,1182.08 885.951,1183.71 888.193,1185.32 890.436,1186.92 892.679,1188.5 894.922,1190.06 
  897.165,1191.6 899.408,1193.13 901.65,1194.64 903.893,1196.14 906.136,1197.62 908.379,1199.09 910.622,1200.54 912.864,1201.97 915.107,1203.39 917.35,1204.8 
  919.593,1206.19 921.836,1207.56 924.079,1208.92 926.321,1210.26 928.564,1211.59 930.807,1212.91 933.05,1214.21 935.293,1215.5 937.536,1216.77 939.778,1218.03 
  942.021,1219.27 944.264,1220.5 946.507,1221.72 948.75,1222.92 950.992,1224.11 953.235,1225.28 955.478,1226.44 957.721,1227.59 959.964,1228.73 962.207,1229.85 
  964.449,1230.96 966.692,1232.05 968.935,1233.14 971.178,1234.21 973.421,1235.26 975.663,1236.31 977.906,1237.34 980.149,1238.36 982.392,1239.36 984.635,1240.36 
  986.878,1241.34 989.12,1242.31 991.363,1243.26 993.606,1244.21 995.849,1245.14 998.092,1246.06 1000.33,1246.97 1002.58,1247.86 1004.82,1248.75 1007.06,1249.62 
  1009.31,1250.48 1011.55,1251.33 1013.79,1252.17 1016.03,1252.99 1018.28,1253.81 1020.52,1254.61 1022.76,1255.4 1025.01,1256.18 1027.25,1256.95 1029.49,1257.7 
  1031.73,1258.45 1033.98,1259.18 1036.22,1259.9 1038.46,1260.62 1040.71,1261.32 1042.95,1262.01 1045.19,1262.68 1047.43,1263.35 1049.68,1264.01 1051.92,1264.65 
  1054.16,1265.29 1056.41,1265.91 1058.65,1266.53 1060.89,1267.13 1063.13,1267.72 1065.38,1268.3 1067.62,1268.87 1069.86,1269.43 1072.1,1269.98 1074.35,1270.52 
  1076.59,1271.04 1078.83,1271.56 1081.08,1272.07 1083.32,1272.56 1085.56,1273.04 1087.8,1273.52 1090.05,1273.98 1092.29,1274.43 1094.53,1274.87 1096.78,1275.3 
  1099.02,1275.72 1101.26,1276.13 1103.5,1276.53 1105.75,1276.91 1107.99,1277.29 1110.23,1277.65 1112.48,1278.01 1114.72,1278.35 1116.96,1278.68 1119.2,1279 
  1121.45,1279.31 1123.69,1279.61 1125.93,1279.9 1128.18,1280.17 1130.42,1280.43 1132.66,1280.69 1134.9,1280.93 1137.15,1281.16 1139.39,1281.37 1141.63,1281.58 
  1143.88,1281.78 1146.12,1281.96 1148.36,1282.13 1150.6,1282.29 1152.85,1282.43 1155.09,1282.57 1157.33,1282.69 1159.57,1282.8 1161.82,1282.9 1164.06,1282.98 
  1166.3,1283.05 1168.55,1283.1 1170.79,1283.14 1173.03,1283.17 1175.27,1283.18 1177.52,1283.17 1179.76,1283.15 1182,1283.12 1184.25,1283.07 1186.49,1283.01 
  1188.73,1282.94 1190.97,1282.85 1193.22,1282.74 1195.46,1282.62 1197.7,1282.49 1199.95,1282.34 1202.19,1282.18 1204.43,1282.01 1206.67,1281.81 1208.92,1281.61 
  1211.16,1281.39 1213.4,1281.15 1215.65,1280.9 1217.89,1280.63 1220.13,1280.34 1222.37,1280.04 1224.62,1279.72 1226.86,1279.39 1229.1,1279.03 1231.35,1278.66 
  1233.59,1278.27 1235.83,1277.86 1238.07,1277.43 1240.32,1276.99 1242.56,1276.52 1244.8,1276.03 1247.04,1275.52 1249.29,1274.99 1251.53,1274.44 1253.77,1273.86 
  1256.02,1273.26 1258.26,1272.64 1260.5,1271.99 1262.74,1271.31 1264.99,1270.62 1267.23,1269.89 1269.47,1269.14 1271.72,1268.35 1273.96,1267.54 1276.2,1266.7 
  1278.44,1265.83 1280.69,1264.93 1282.93,1264 1285.17,1263.03 1287.42,1262.03 1289.66,1261 1291.9,1259.93 1294.14,1258.82 1296.39,1257.67 1298.63,1256.49 
  1300.87,1255.27 1303.12,1254.01 1305.36,1252.7 1307.6,1251.36 1309.84,1249.97 1312.09,1248.53 1314.33,1247.06 1316.57,1245.53 1318.82,1243.96 1321.06,1242.33 
  1323.3,1240.66 1325.54,1238.93 1327.79,1237.16 1330.03,1235.32 1332.27,1233.44 1334.51,1231.5 1336.76,1229.5 1339,1227.46 1341.24,1225.37 1343.49,1223.22 
  1345.73,1221.03 1347.97,1218.77 1350.21,1216.45 1352.46,1214.07 1354.7,1211.61 1356.94,1209.07 1359.19,1206.46 1361.43,1203.76 1363.67,1200.98 1365.91,1198.1 
  1368.16,1195.13 1370.4,1192.06 1372.64,1188.89 1374.89,1185.62 1377.13,1182.23 1379.37,1178.73 1381.61,1175.12 1383.86,1171.38 1386.1,1167.52 1388.34,1163.54 
  1390.59,1159.43 1392.83,1155.18 1395.07,1150.8 1397.31,1146.27 1399.56,1141.61 1401.8,1136.8 1404.04,1131.84 1406.29,1126.73 1408.53,1121.47 1410.77,1116.05 
  1413.01,1110.47 1415.26,1104.73 1417.5,1098.82 1419.74,1092.74 1421.98,1086.5 1424.23,1080.08 1426.47,1073.48 1428.71,1066.71 1430.96,1059.75 1433.2,1052.62 
  1435.44,1045.29 1437.68,1037.78 1439.93,1030.09 1442.17,1022.19 1444.41,1014.11 1446.66,1005.83 1448.9,997.345 1451.14,988.664 1453.38,979.78 1455.63,970.693 
  1457.87,961.399 1460.11,951.897 1462.36,942.186 1464.6,932.263 1466.84,922.127 1469.08,911.776 1471.33,901.209 1473.57,890.423 1475.81,879.418 1478.06,868.193 
  1480.3,856.745 1482.54,845.073 1484.78,833.176 1487.03,821.053 1489.27,808.703 1491.51,796.124 1493.76,783.315 1496,770.275 1498.24,757.003 1500.48,743.499 
  1502.73,729.774 1504.97,715.845 1507.21,701.732 1509.46,687.452 1511.7,673.023 1513.94,658.463 1516.18,643.79 1518.43,629.021 1520.67,614.173 1522.91,599.264 
  1525.15,584.31 1527.4,569.328 1529.64,554.334 1531.88,539.345 1534.13,524.377 1536.37,509.445 1538.61,494.567 1540.85,479.756 1543.1,465.029 1545.34,450.401 
  1547.58,435.887 1549.83,421.501 1552.07,407.259 1554.31,393.174 1556.55,379.262 1558.8,365.536 1561.04,352.011 1563.28,338.699 1565.53,325.615 1567.77,312.772 
  1570.01,300.183 1572.25,287.861 1574.5,275.819 1576.74,264.07 1578.98,252.626 1581.23,241.499 1583.47,230.702 1585.71,220.247 1587.95,210.144 1590.2,200.407 
  1592.44,191.045 1594.68,182.071 1596.93,173.495 1599.17,165.329 1601.41,157.582 1603.65,150.266 1605.9,143.383 1608.14,136.924 1610.38,130.885 1612.62,125.26 
  1614.87,120.044 1617.11,115.232 1619.35,110.82 1621.6,106.801 1623.84,103.17 1626.08,99.9222 1628.32,97.0508 1630.57,94.5502 1632.81,92.4146 1635.05,90.6378 
  1637.3,89.2137 1639.54,88.1358 1641.78,87.3978 1644.02,86.9931 1646.27,86.915 1648.51,87.1566 1650.75,87.711 1653,88.5713 1655.24,89.7302 1657.48,91.1805 
  1659.72,92.9146 1661.97,94.9252 1664.21,97.2046 1666.45,99.745 1668.7,102.538 1670.94,105.577 1673.18,108.853 1675.42,112.357 1677.67,116.082 1679.91,120.018 
  1682.15,124.159 1684.4,128.493 1686.64,133.013 1688.88,137.711 1691.12,142.576 1693.37,147.599 1695.61,152.772 1697.85,158.084 1700.09,163.527 1702.34,169.09 
  1704.58,174.764 1706.82,180.539 1709.07,186.405 1711.31,192.363 1713.55,198.414 1715.79,204.554 1718.04,210.779 1720.28,217.083 1722.52,223.465 1724.77,229.918 
  1727.01,236.44 1729.25,243.026 1731.49,249.673 1733.74,256.377 1735.98,263.135 1738.22,269.942 1740.47,276.795 1742.71,283.692 1744.95,290.628 1747.19,297.6 
  1749.44,304.605 1751.68,311.639 1753.92,318.701 1756.17,325.786 1758.41,332.892 1760.65,340.016 1762.89,347.155 1765.14,354.306 1767.38,361.467 1769.62,368.635 
  1771.87,375.808 1774.11,382.983 1776.35,390.157 1778.59,397.329 1780.84,404.496 1783.08,411.657 1785.32,418.808 1787.56,425.948 1789.81,433.075 1792.05,440.187 
  1794.29,447.282 1796.54,454.359 1798.78,461.415 1801.02,468.45 1803.26,475.462 1805.51,482.448 1807.75,489.409 1809.99,496.342 1812.24,503.246 1814.48,510.121 
  1816.72,516.965 1818.96,523.781 1821.21,530.566 1823.45,537.321 1825.69,544.044 1827.94,550.736 1830.18,557.395 1832.42,564.02 1834.66,570.612 1836.91,577.17 
  1839.15,583.693 1841.39,590.181 1843.64,596.632 1845.88,603.048 1848.12,609.427 1850.36,615.769 1852.61,622.074 1854.85,628.341 1857.09,634.57 1859.34,640.761 
  1861.58,646.913 1863.82,653.026 1866.06,659.101 1868.31,665.135 1870.55,671.131 1872.79,677.087 1875.03,683.002 1877.28,688.878 1879.52,694.714 1881.76,700.51 
  1884.01,706.266 1886.25,711.982 1888.49,717.658 1890.73,723.293 1892.98,728.889 1895.22,734.444 1897.46,739.96 1899.71,745.436 1901.95,750.872 1904.19,756.268 
  1906.43,761.624 1908.68,766.94 1910.92,772.216 1913.16,777.453 1915.41,782.65 1917.65,787.807 1919.89,792.925 1922.13,798.004 1924.38,803.043 1926.62,808.043 
  1928.86,813.005 1931.11,817.928 1933.35,822.812 1935.59,827.657 1937.83,832.465 1940.08,837.234 1942.32,841.965 1944.56,846.658 1946.81,851.313 1949.05,855.93 
  1951.29,860.511 1953.53,865.053 1955.78,869.559 1958.02,874.028 1960.26,878.46 1962.5,882.855 1964.75,887.214 1966.99,891.537 1969.23,895.823 1971.48,900.074 
  1973.72,904.289 1975.96,908.468 1978.2,912.613 1980.45,916.722 1982.69,920.796 1984.93,924.835 1987.18,928.84 1989.42,932.811 1991.66,936.747 1993.9,940.65 
  1996.15,944.519 1998.39,948.355 2000.63,952.157 2002.88,955.927 2005.12,959.664 2007.36,963.368 2009.6,967.04 2011.85,970.68 2014.09,974.289 2016.33,977.865 
  2018.58,981.411 2020.82,984.925 2023.06,988.409 2025.3,991.861 2027.55,995.283 2029.79,998.675 2032.03,1002.04 2034.28,1005.37 2036.52,1008.67 2038.76,1011.94 
  2041,1015.18 2043.25,1018.4 2045.49,1021.58 2047.73,1024.74 2049.97,1027.87 2052.22,1030.97 2054.46,1034.04 2056.7,1037.08 2058.95,1040.1 2061.19,1043.08 
  2063.43,1046.05 2065.67,1048.98 2067.92,1051.89 2070.16,1054.77 2072.4,1057.62 2074.65,1060.45 2076.89,1063.25 2079.13,1066.03 2081.37,1068.78 2083.62,1071.5 
  2085.86,1074.2 2088.1,1076.88 2090.35,1079.53 2092.59,1082.15 2094.83,1084.75 2097.07,1087.33 2099.32,1089.88 2101.56,1092.41 2103.8,1094.91 2106.05,1097.39 
  2108.29,1099.85 2110.53,1102.28 2112.77,1104.7 2115.02,1107.08 2117.26,1109.45 2119.5,1111.79 2121.75,1114.11 2123.99,1116.41 2126.23,1118.69 2128.47,1120.94 
  2130.72,1123.17 2132.96,1125.39 2135.2,1127.58 2137.45,1129.75 2139.69,1131.89 2141.93,1134.02 2144.17,1136.13 2146.42,1138.21 2148.66,1140.28 2150.9,1142.32 
  2153.14,1144.35 2155.39,1146.35 2157.63,1148.34 2159.87,1150.3 2162.12,1152.25 2164.36,1154.18 2166.6,1156.09 2168.84,1157.97 2171.09,1159.84 2173.33,1161.7 
  2175.57,1163.53 2177.82,1165.34 2180.06,1167.14 2182.3,1168.92 2184.54,1170.68 2186.79,1172.42 2189.03,1174.14 2191.27,1175.85 2193.52,1177.54 2195.76,1179.21 
  2198,1180.87 2200.24,1182.51 2202.49,1184.13 2204.73,1185.73 2206.97,1187.32 2209.22,1188.9 2211.46,1190.45 2213.7,1191.99 2215.94,1193.51 2218.19,1195.02 
  2220.43,1196.51 2222.67,1197.99 2224.92,1199.45 2227.16,1200.9 2229.4,1202.33 2231.64,1203.74 2233.89,1205.14 2236.13,1206.53 2238.37,1207.89 2240.61,1209.25 
  2242.86,1210.59 2245.1,1211.92 2247.34,1213.23 2249.59,1214.52 2251.83,1215.81 2254.07,1217.07 2256.31,1218.33 2258.56,1219.57 2260.8,1220.8 2263.04,1222.01 
  2265.29,1223.21 2267.53,1224.39 2269.77,1225.56 2272.01,1226.72 2274.26,1227.87 2276.5,1229 2278.74,1230.12 2280.99,1231.22 2283.23,1232.32 2285.47,1233.4 
  2287.71,1234.46 2289.96,1235.52 2292.2,1236.56 2294.44,1237.58 2296.69,1238.6 2298.93,1239.6 2301.17,1240.59 2303.41,1241.57 2305.66,1242.54 2307.9,1243.49 
  2310.14,1244.43 2312.39,1245.36 2314.63,1246.28 2316.87,1247.19 2319.11,1248.08 2321.36,1248.96 2323.6,1249.83 2325.84,1250.69 2328.08,1251.53 2330.33,1252.37 
  2332.57,1253.19 2334.81,1254 2337.06,1254.8 2339.3,1255.59 2341.54,1256.36 2343.78,1257.13 2346.03,1257.88 2348.27,1258.62 2350.51,1259.35 2352.76,1260.07 
  
  "/>
<path clip-path="url(#clip470)" d="
M1946.68 312.204 L2280.76 312.204 L2280.76 130.764 L1946.68 130.764  Z
  " fill="#ffffff" fill-rule="evenodd" fill-opacity="1"/>
<polyline clip-path="url(#clip470)" style="stroke:#000000; stroke-width:4; stroke-opacity:1; fill:none" points="
  1946.68,312.204 2280.76,312.204 2280.76,130.764 1946.68,130.764 1946.68,312.204 
  "/>
<polyline clip-path="url(#clip470)" style="stroke:#009af9; stroke-width:4; stroke-opacity:1; fill:none" points="
  1970.68,191.244 2114.68,191.244 
  "/>
<path clip-path="url(#clip470)" d="M 0 0 M2138.68 198.293 L2138.68 182.598 L2142.94 182.598 L2142.94 198.131 Q2142.94 201.811 2144.38 203.663 Q2145.81 205.492 2148.68 205.492 Q2152.13 205.492 2154.12 203.293 Q2156.14 201.094 2156.14 197.297 L2156.14 182.598 L2160.4 182.598 L2160.4 208.524 L2156.14 208.524 L2156.14 204.543 Q2154.59 206.904 2152.52 208.061 Q2150.49 209.195 2147.78 209.195 Q2143.31 209.195 2141 206.418 Q2138.68 203.64 2138.68 198.293 M2149.4 181.973 L2149.4 181.973 Z" fill="#000000" fill-rule="evenodd" fill-opacity="1" /><path clip-path="url(#clip470)" d="M 0 0 M2166.27 204.589 L2173.91 204.589 L2173.91 178.223 L2165.6 179.89 L2165.6 175.631 L2173.87 173.964 L2178.54 173.964 L2178.54 204.589 L2186.18 204.589 L2186.18 208.524 L2166.27 208.524 L2166.27 204.589 Z" fill="#000000" fill-rule="evenodd" fill-opacity="1" /><path clip-path="url(#clip470)" d="M 0 0 M2200.88 172.552 Q2197.78 177.876 2196.27 183.084 Q2194.77 188.293 2194.77 193.64 Q2194.77 198.987 2196.27 204.242 Q2197.8 209.473 2200.88 214.774 L2197.18 214.774 Q2193.71 209.334 2191.97 204.08 Q2190.26 198.825 2190.26 193.64 Q2190.26 188.478 2191.97 183.246 Q2193.68 178.015 2197.18 172.552 L2200.88 172.552 Z" fill="#000000" fill-rule="evenodd" fill-opacity="1" /><path clip-path="url(#clip470)" d="M 0 0 M2209.56 175.237 L2209.56 182.598 L2218.33 182.598 L2218.33 185.908 L2209.56 185.908 L2209.56 199.982 Q2209.56 203.154 2210.42 204.057 Q2211.3 204.959 2213.96 204.959 L2218.33 204.959 L2218.33 208.524 L2213.96 208.524 Q2209.03 208.524 2207.15 206.695 Q2205.28 204.844 2205.28 199.982 L2205.28 185.908 L2202.15 185.908 L2202.15 182.598 L2205.28 182.598 L2205.28 175.237 L2209.56 175.237 Z" fill="#000000" fill-rule="evenodd" fill-opacity="1" /><path clip-path="url(#clip470)" d="M 0 0 M2222.13 172.552 L2225.83 172.552 Q2229.31 178.015 2231.02 183.246 Q2232.76 188.478 2232.76 193.64 Q2232.76 198.825 2231.02 204.08 Q2229.31 209.334 2225.83 214.774 L2222.13 214.774 Q2225.21 209.473 2226.71 204.242 Q2228.24 198.987 2228.24 193.64 Q2228.24 188.293 2226.71 183.084 Q2225.21 177.876 2222.13 172.552 Z" fill="#000000" fill-rule="evenodd" fill-opacity="1" /><polyline clip-path="url(#clip470)" style="stroke:#e26f46; stroke-width:4; stroke-opacity:1; fill:none" points="
  1970.68,251.724 2114.68,251.724 
  "/>
<path clip-path="url(#clip470)" d="M 0 0 M2138.68 258.773 L2138.68 243.078 L2142.94 243.078 L2142.94 258.611 Q2142.94 262.291 2144.38 264.143 Q2145.81 265.972 2148.68 265.972 Q2152.13 265.972 2154.12 263.773 Q2156.14 261.574 2156.14 257.777 L2156.14 243.078 L2160.4 243.078 L2160.4 269.004 L2156.14 269.004 L2156.14 265.023 Q2154.59 267.384 2152.52 268.541 Q2150.49 269.675 2147.78 269.675 Q2143.31 269.675 2141 266.898 Q2138.68 264.12 2138.68 258.773 M2149.4 242.453 L2149.4 242.453 Z" fill="#000000" fill-rule="evenodd" fill-opacity="1" /><path clip-path="url(#clip470)" d="M 0 0 M2169.49 265.069 L2185.81 265.069 L2185.81 269.004 L2163.87 269.004 L2163.87 265.069 Q2166.53 262.314 2171.11 257.685 Q2175.72 253.032 2176.9 251.689 Q2179.15 249.166 2180.02 247.43 Q2180.93 245.671 2180.93 243.981 Q2180.93 241.226 2178.98 239.49 Q2177.06 237.754 2173.96 237.754 Q2171.76 237.754 2169.31 238.518 Q2166.88 239.282 2164.1 240.833 L2164.1 236.111 Q2166.92 234.976 2169.38 234.398 Q2171.83 233.819 2173.87 233.819 Q2179.24 233.819 2182.43 236.504 Q2185.63 239.189 2185.63 243.68 Q2185.63 245.81 2184.82 247.731 Q2184.03 249.629 2181.92 252.222 Q2181.34 252.893 2178.24 256.111 Q2175.14 259.305 2169.49 265.069 Z" fill="#000000" fill-rule="evenodd" fill-opacity="1" /><path clip-path="url(#clip470)" d="M 0 0 M2200.51 233.032 Q2197.41 238.356 2195.9 243.564 Q2194.4 248.773 2194.4 254.12 Q2194.4 259.467 2195.9 264.722 Q2197.43 269.953 2200.51 275.254 L2196.81 275.254 Q2193.33 269.814 2191.6 264.56 Q2189.89 259.305 2189.89 254.12 Q2189.89 248.958 2191.6 243.726 Q2193.31 238.495 2196.81 233.032 L2200.51 233.032 Z" fill="#000000" fill-rule="evenodd" fill-opacity="1" /><path clip-path="url(#clip470)" d="M 0 0 M2209.19 235.717 L2209.19 243.078 L2217.96 243.078 L2217.96 246.388 L2209.19 246.388 L2209.19 260.462 Q2209.19 263.634 2210.05 264.537 Q2210.93 265.439 2213.59 265.439 L2217.96 265.439 L2217.96 269.004 L2213.59 269.004 Q2208.66 269.004 2206.78 267.175 Q2204.91 265.324 2204.91 260.462 L2204.91 246.388 L2201.78 246.388 L2201.78 243.078 L2204.91 243.078 L2204.91 235.717 L2209.19 235.717 Z" fill="#000000" fill-rule="evenodd" fill-opacity="1" /><path clip-path="url(#clip470)" d="M 0 0 M2221.76 233.032 L2225.46 233.032 Q2228.94 238.495 2230.65 243.726 Q2232.39 248.958 2232.39 254.12 Q2232.39 259.305 2230.65 264.56 Q2228.94 269.814 2225.46 275.254 L2221.76 275.254 Q2224.84 269.953 2226.34 264.722 Q2227.87 259.467 2227.87 254.12 Q2227.87 248.773 2226.34 243.564 Q2224.84 238.356 2221.76 233.032 Z" fill="#000000" fill-rule="evenodd" fill-opacity="1" /></svg>
