<?xml version="1.0" encoding="utf-8"?>
<svg xmlns="http://www.w3.org/2000/svg" xmlns:xlink="http://www.w3.org/1999/xlink" width="600" height="400" viewBox="0 0 2400 1600">
<defs>
  <clipPath id="clip830">
    <rect x="0" y="0" width="2400" height="1600"/>
  </clipPath>
</defs>
<path clip-path="url(#clip830)" d="
M0 1600 L2400 1600 L2400 0 L0 0  Z
  " fill="#ffffff" fill-rule="evenodd" fill-opacity="1"/>
<defs>
  <clipPath id="clip831">
    <rect x="480" y="0" width="1681" height="1600"/>
  </clipPath>
</defs>
<path clip-path="url(#clip830)" d="
M112.177 1486.45 L2352.76 1486.45 L2352.76 47.2441 L112.177 47.2441  Z
  " fill="#ffffff" fill-rule="evenodd" fill-opacity="1"/>
<defs>
  <clipPath id="clip832">
    <rect x="112" y="47" width="2242" height="1440"/>
  </clipPath>
</defs>
<polyline clip-path="url(#clip832)" style="stroke:#000000; stroke-width:2; stroke-opacity:0.1; fill:none" points="
  175.59,1486.45 175.59,47.2441 
  "/>
<polyline clip-path="url(#clip832)" style="stroke:#000000; stroke-width:2; stroke-opacity:0.1; fill:none" points="
  704.028,1486.45 704.028,47.2441 
  "/>
<polyline clip-path="url(#clip832)" style="stroke:#000000; stroke-width:2; stroke-opacity:0.1; fill:none" points="
  1232.47,1486.45 1232.47,47.2441 
  "/>
<polyline clip-path="url(#clip832)" style="stroke:#000000; stroke-width:2; stroke-opacity:0.1; fill:none" points="
  1760.9,1486.45 1760.9,47.2441 
  "/>
<polyline clip-path="url(#clip832)" style="stroke:#000000; stroke-width:2; stroke-opacity:0.1; fill:none" points="
  2289.34,1486.45 2289.34,47.2441 
  "/>
<polyline clip-path="url(#clip832)" style="stroke:#000000; stroke-width:2; stroke-opacity:0.1; fill:none" points="
  112.177,1462.1 2352.76,1462.1 
  "/>
<polyline clip-path="url(#clip832)" style="stroke:#000000; stroke-width:2; stroke-opacity:0.1; fill:none" points="
  112.177,1133.45 2352.76,1133.45 
  "/>
<polyline clip-path="url(#clip832)" style="stroke:#000000; stroke-width:2; stroke-opacity:0.1; fill:none" points="
  112.177,804.802 2352.76,804.802 
  "/>
<polyline clip-path="url(#clip832)" style="stroke:#000000; stroke-width:2; stroke-opacity:0.1; fill:none" points="
  112.177,476.154 2352.76,476.154 
  "/>
<polyline clip-path="url(#clip832)" style="stroke:#000000; stroke-width:2; stroke-opacity:0.1; fill:none" points="
  112.177,147.507 2352.76,147.507 
  "/>
<polyline clip-path="url(#clip830)" style="stroke:#000000; stroke-width:4; stroke-opacity:1; fill:none" points="
  112.177,1486.45 2352.76,1486.45 
  "/>
<polyline clip-path="url(#clip830)" style="stroke:#000000; stroke-width:4; stroke-opacity:1; fill:none" points="
  112.177,1486.45 112.177,47.2441 
  "/>
<polyline clip-path="url(#clip830)" style="stroke:#000000; stroke-width:4; stroke-opacity:1; fill:none" points="
  175.59,1486.45 175.59,1469.18 
  "/>
<polyline clip-path="url(#clip830)" style="stroke:#000000; stroke-width:4; stroke-opacity:1; fill:none" points="
  704.028,1486.45 704.028,1469.18 
  "/>
<polyline clip-path="url(#clip830)" style="stroke:#000000; stroke-width:4; stroke-opacity:1; fill:none" points="
  1232.47,1486.45 1232.47,1469.18 
  "/>
<polyline clip-path="url(#clip830)" style="stroke:#000000; stroke-width:4; stroke-opacity:1; fill:none" points="
  1760.9,1486.45 1760.9,1469.18 
  "/>
<polyline clip-path="url(#clip830)" style="stroke:#000000; stroke-width:4; stroke-opacity:1; fill:none" points="
  2289.34,1486.45 2289.34,1469.18 
  "/>
<polyline clip-path="url(#clip830)" style="stroke:#000000; stroke-width:4; stroke-opacity:1; fill:none" points="
  112.177,1462.1 139.064,1462.1 
  "/>
<polyline clip-path="url(#clip830)" style="stroke:#000000; stroke-width:4; stroke-opacity:1; fill:none" points="
  112.177,1133.45 139.064,1133.45 
  "/>
<polyline clip-path="url(#clip830)" style="stroke:#000000; stroke-width:4; stroke-opacity:1; fill:none" points="
  112.177,804.802 139.064,804.802 
  "/>
<polyline clip-path="url(#clip830)" style="stroke:#000000; stroke-width:4; stroke-opacity:1; fill:none" points="
  112.177,476.154 139.064,476.154 
  "/>
<polyline clip-path="url(#clip830)" style="stroke:#000000; stroke-width:4; stroke-opacity:1; fill:none" points="
  112.177,147.507 139.064,147.507 
  "/>
<path clip-path="url(#clip830)" d="M 0 0 M157.106 1508.44 Q153.495 1508.44 151.666 1512 Q149.861 1515.55 149.861 1522.67 Q149.861 1529.78 151.666 1533.35 Q153.495 1536.89 157.106 1536.89 Q160.74 1536.89 162.546 1533.35 Q164.375 1529.78 164.375 1522.67 Q164.375 1515.55 162.546 1512 Q160.74 1508.44 157.106 1508.44 M157.106 1504.73 Q162.916 1504.73 165.972 1509.34 Q169.05 1513.92 169.05 1522.67 Q169.05 1531.4 165.972 1536.01 Q162.916 1540.59 157.106 1540.59 Q151.296 1540.59 148.217 1536.01 Q145.162 1531.4 145.162 1522.67 Q145.162 1513.92 148.217 1509.34 Q151.296 1504.73 157.106 1504.73 Z" fill="#000000" fill-rule="evenodd" fill-opacity="1" /><path clip-path="url(#clip830)" d="M 0 0 M174.12 1534.04 L179.004 1534.04 L179.004 1539.92 L174.12 1539.92 L174.12 1534.04 Z" fill="#000000" fill-rule="evenodd" fill-opacity="1" /><path clip-path="url(#clip830)" d="M 0 0 M194.073 1508.44 Q190.462 1508.44 188.634 1512 Q186.828 1515.55 186.828 1522.67 Q186.828 1529.78 188.634 1533.35 Q190.462 1536.89 194.073 1536.89 Q197.708 1536.89 199.513 1533.35 Q201.342 1529.78 201.342 1522.67 Q201.342 1515.55 199.513 1512 Q197.708 1508.44 194.073 1508.44 M194.073 1504.73 Q199.884 1504.73 202.939 1509.34 Q206.018 1513.92 206.018 1522.67 Q206.018 1531.4 202.939 1536.01 Q199.884 1540.59 194.073 1540.59 Q188.263 1540.59 185.185 1536.01 Q182.129 1531.4 182.129 1522.67 Q182.129 1513.92 185.185 1509.34 Q188.263 1504.73 194.073 1504.73 Z" fill="#000000" fill-rule="evenodd" fill-opacity="1" /><path clip-path="url(#clip830)" d="M 0 0 M680.695 1535.98 L697.014 1535.98 L697.014 1539.92 L675.07 1539.92 L675.07 1535.98 Q677.732 1533.23 682.315 1528.6 Q686.922 1523.95 688.102 1522.61 Q690.348 1520.08 691.227 1518.35 Q692.13 1516.59 692.13 1514.9 Q692.13 1512.14 690.186 1510.41 Q688.264 1508.67 685.163 1508.67 Q682.963 1508.67 680.51 1509.43 Q678.079 1510.2 675.301 1511.75 L675.301 1507.03 Q678.126 1505.89 680.579 1505.31 Q683.033 1504.73 685.07 1504.73 Q690.44 1504.73 693.635 1507.42 Q696.829 1510.11 696.829 1514.6 Q696.829 1516.73 696.019 1518.65 Q695.232 1520.54 693.125 1523.14 Q692.547 1523.81 689.445 1527.03 Q686.343 1530.22 680.695 1535.98 Z" fill="#000000" fill-rule="evenodd" fill-opacity="1" /><path clip-path="url(#clip830)" d="M 0 0 M702.084 1534.04 L706.968 1534.04 L706.968 1539.92 L702.084 1539.92 L702.084 1534.04 Z" fill="#000000" fill-rule="evenodd" fill-opacity="1" /><path clip-path="url(#clip830)" d="M 0 0 M712.084 1505.36 L730.44 1505.36 L730.44 1509.3 L716.366 1509.3 L716.366 1517.77 Q717.385 1517.42 718.403 1517.26 Q719.422 1517.07 720.44 1517.07 Q726.227 1517.07 729.607 1520.24 Q732.986 1523.42 732.986 1528.83 Q732.986 1534.41 729.514 1537.51 Q726.042 1540.59 719.723 1540.59 Q717.547 1540.59 715.278 1540.22 Q713.033 1539.85 710.625 1539.11 L710.625 1534.41 Q712.709 1535.54 714.931 1536.1 Q717.153 1536.66 719.63 1536.66 Q723.635 1536.66 725.972 1534.55 Q728.31 1532.44 728.31 1528.83 Q728.31 1525.22 725.972 1523.11 Q723.635 1521.01 719.63 1521.01 Q717.755 1521.01 715.88 1521.42 Q714.028 1521.84 712.084 1522.72 L712.084 1505.36 Z" fill="#000000" fill-rule="evenodd" fill-opacity="1" /><path clip-path="url(#clip830)" d="M 0 0 M1204.26 1505.36 L1222.62 1505.36 L1222.62 1509.3 L1208.54 1509.3 L1208.54 1517.77 Q1209.56 1517.42 1210.58 1517.26 Q1211.6 1517.07 1212.62 1517.07 Q1218.4 1517.07 1221.78 1520.24 Q1225.16 1523.42 1225.16 1528.83 Q1225.16 1534.41 1221.69 1537.51 Q1218.22 1540.59 1211.9 1540.59 Q1209.72 1540.59 1207.46 1540.22 Q1205.21 1539.85 1202.8 1539.11 L1202.8 1534.41 Q1204.89 1535.54 1207.11 1536.1 Q1209.33 1536.66 1211.81 1536.66 Q1215.81 1536.66 1218.15 1534.55 Q1220.49 1532.44 1220.49 1528.83 Q1220.49 1525.22 1218.15 1523.11 Q1215.81 1521.01 1211.81 1521.01 Q1209.93 1521.01 1208.06 1521.42 Q1206.21 1521.84 1204.26 1522.72 L1204.26 1505.36 Z" fill="#000000" fill-rule="evenodd" fill-opacity="1" /><path clip-path="url(#clip830)" d="M 0 0 M1230.23 1534.04 L1235.12 1534.04 L1235.12 1539.92 L1230.23 1539.92 L1230.23 1534.04 Z" fill="#000000" fill-rule="evenodd" fill-opacity="1" /><path clip-path="url(#clip830)" d="M 0 0 M1250.19 1508.44 Q1246.58 1508.44 1244.75 1512 Q1242.94 1515.55 1242.94 1522.67 Q1242.94 1529.78 1244.75 1533.35 Q1246.58 1536.89 1250.19 1536.89 Q1253.82 1536.89 1255.63 1533.35 Q1257.45 1529.78 1257.45 1522.67 Q1257.45 1515.55 1255.63 1512 Q1253.82 1508.44 1250.19 1508.44 M1250.19 1504.73 Q1256 1504.73 1259.05 1509.34 Q1262.13 1513.92 1262.13 1522.67 Q1262.13 1531.4 1259.05 1536.01 Q1256 1540.59 1250.19 1540.59 Q1244.38 1540.59 1241.3 1536.01 Q1238.24 1531.4 1238.24 1522.67 Q1238.24 1513.92 1241.3 1509.34 Q1244.38 1504.73 1250.19 1504.73 Z" fill="#000000" fill-rule="evenodd" fill-opacity="1" /><path clip-path="url(#clip830)" d="M 0 0 M1731.81 1505.36 L1754.03 1505.36 L1754.03 1507.35 L1741.48 1539.92 L1736.6 1539.92 L1748.4 1509.3 L1731.81 1509.3 L1731.81 1505.36 Z" fill="#000000" fill-rule="evenodd" fill-opacity="1" /><path clip-path="url(#clip830)" d="M 0 0 M1759.1 1534.04 L1763.98 1534.04 L1763.98 1539.92 L1759.1 1539.92 L1759.1 1534.04 Z" fill="#000000" fill-rule="evenodd" fill-opacity="1" /><path clip-path="url(#clip830)" d="M 0 0 M1769.1 1505.36 L1787.46 1505.36 L1787.46 1509.3 L1773.38 1509.3 L1773.38 1517.77 Q1774.4 1517.42 1775.42 1517.26 Q1776.44 1517.07 1777.46 1517.07 Q1783.24 1517.07 1786.62 1520.24 Q1790 1523.42 1790 1528.83 Q1790 1534.41 1786.53 1537.51 Q1783.06 1540.59 1776.74 1540.59 Q1774.56 1540.59 1772.29 1540.22 Q1770.05 1539.85 1767.64 1539.11 L1767.64 1534.41 Q1769.72 1535.54 1771.95 1536.1 Q1774.17 1536.66 1776.65 1536.66 Q1780.65 1536.66 1782.99 1534.55 Q1785.33 1532.44 1785.33 1528.83 Q1785.33 1525.22 1782.99 1523.11 Q1780.65 1521.01 1776.65 1521.01 Q1774.77 1521.01 1772.9 1521.42 Q1771.04 1521.84 1769.1 1522.72 L1769.1 1505.36 Z" fill="#000000" fill-rule="evenodd" fill-opacity="1" /><path clip-path="url(#clip830)" d="M 0 0 M2247.73 1535.98 L2255.37 1535.98 L2255.37 1509.62 L2247.06 1511.29 L2247.06 1507.03 L2255.33 1505.36 L2260 1505.36 L2260 1535.98 L2267.64 1535.98 L2267.64 1539.92 L2247.73 1539.92 L2247.73 1535.98 Z" fill="#000000" fill-rule="evenodd" fill-opacity="1" /><path clip-path="url(#clip830)" d="M 0 0 M2282.71 1508.44 Q2279.1 1508.44 2277.27 1512 Q2275.47 1515.55 2275.47 1522.67 Q2275.47 1529.78 2277.27 1533.35 Q2279.1 1536.89 2282.71 1536.89 Q2286.35 1536.89 2288.15 1533.35 Q2289.98 1529.78 2289.98 1522.67 Q2289.98 1515.55 2288.15 1512 Q2286.35 1508.44 2282.71 1508.44 M2282.71 1504.73 Q2288.52 1504.73 2291.58 1509.34 Q2294.66 1513.92 2294.66 1522.67 Q2294.66 1531.4 2291.58 1536.01 Q2288.52 1540.59 2282.71 1540.59 Q2276.9 1540.59 2273.82 1536.01 Q2270.77 1531.4 2270.77 1522.67 Q2270.77 1513.92 2273.82 1509.34 Q2276.9 1504.73 2282.71 1504.73 Z" fill="#000000" fill-rule="evenodd" fill-opacity="1" /><path clip-path="url(#clip830)" d="M 0 0 M2299.73 1534.04 L2304.61 1534.04 L2304.61 1539.92 L2299.73 1539.92 L2299.73 1534.04 Z" fill="#000000" fill-rule="evenodd" fill-opacity="1" /><path clip-path="url(#clip830)" d="M 0 0 M2319.68 1508.44 Q2316.07 1508.44 2314.24 1512 Q2312.43 1515.55 2312.43 1522.67 Q2312.43 1529.78 2314.24 1533.35 Q2316.07 1536.89 2319.68 1536.89 Q2323.31 1536.89 2325.12 1533.35 Q2326.95 1529.78 2326.95 1522.67 Q2326.95 1515.55 2325.12 1512 Q2323.31 1508.44 2319.68 1508.44 M2319.68 1504.73 Q2325.49 1504.73 2328.54 1509.34 Q2331.62 1513.92 2331.62 1522.67 Q2331.62 1531.4 2328.54 1536.01 Q2325.49 1540.59 2319.68 1540.59 Q2313.87 1540.59 2310.79 1536.01 Q2307.73 1531.4 2307.73 1522.67 Q2307.73 1513.92 2310.79 1509.34 Q2313.87 1504.73 2319.68 1504.73 Z" fill="#000000" fill-rule="evenodd" fill-opacity="1" /><path clip-path="url(#clip830)" d="M 0 0 M76.2328 1447.9 Q72.6217 1447.9 70.793 1451.46 Q68.9875 1455 68.9875 1462.13 Q68.9875 1469.24 70.793 1472.8 Q72.6217 1476.34 76.2328 1476.34 Q79.867 1476.34 81.6726 1472.8 Q83.5013 1469.24 83.5013 1462.13 Q83.5013 1455 81.6726 1451.46 Q79.867 1447.9 76.2328 1447.9 M76.2328 1444.19 Q82.0429 1444.19 85.0985 1448.8 Q88.1772 1453.38 88.1772 1462.13 Q88.1772 1470.86 85.0985 1475.47 Q82.0429 1480.05 76.2328 1480.05 Q70.4226 1480.05 67.344 1475.47 Q64.2884 1470.86 64.2884 1462.13 Q64.2884 1453.38 67.344 1448.8 Q70.4226 1444.19 76.2328 1444.19 Z" fill="#000000" fill-rule="evenodd" fill-opacity="1" /><path clip-path="url(#clip830)" d="M 0 0 M71.8578 1146.79 L88.1772 1146.79 L88.1772 1150.73 L66.2328 1150.73 L66.2328 1146.79 Q68.8949 1144.04 73.4782 1139.41 Q78.0846 1134.76 79.2652 1133.41 Q81.5105 1130.89 82.3902 1129.16 Q83.2929 1127.4 83.2929 1125.71 Q83.2929 1122.95 81.3485 1121.22 Q79.4272 1119.48 76.3254 1119.48 Q74.1263 1119.48 71.6726 1120.24 Q69.2421 1121.01 66.4643 1122.56 L66.4643 1117.84 Q69.2884 1116.7 71.7421 1116.12 Q74.1958 1115.54 76.2328 1115.54 Q81.6031 1115.54 84.7976 1118.23 Q87.992 1120.92 87.992 1125.41 Q87.992 1127.54 87.1818 1129.46 Q86.3948 1131.35 84.2883 1133.95 Q83.7096 1134.62 80.6078 1137.84 Q77.5059 1141.03 71.8578 1146.79 Z" fill="#000000" fill-rule="evenodd" fill-opacity="1" /><path clip-path="url(#clip830)" d="M 0 0 M78.5939 791.596 L66.7884 810.045 L78.5939 810.045 L78.5939 791.596 M77.367 787.522 L83.2466 787.522 L83.2466 810.045 L88.1772 810.045 L88.1772 813.934 L83.2466 813.934 L83.2466 822.082 L78.5939 822.082 L78.5939 813.934 L62.9921 813.934 L62.9921 809.42 L77.367 787.522 Z" fill="#000000" fill-rule="evenodd" fill-opacity="1" /><path clip-path="url(#clip830)" d="M 0 0 M76.6495 474.291 Q73.5013 474.291 71.6495 476.444 Q69.8208 478.597 69.8208 482.347 Q69.8208 486.073 71.6495 488.249 Q73.5013 490.402 76.6495 490.402 Q79.7976 490.402 81.6263 488.249 Q83.4781 486.073 83.4781 482.347 Q83.4781 478.597 81.6263 476.444 Q79.7976 474.291 76.6495 474.291 M85.9318 459.638 L85.9318 463.898 Q84.1726 463.064 82.367 462.624 Q80.5846 462.185 78.8254 462.185 Q74.1958 462.185 71.7421 465.31 Q69.3115 468.435 68.9643 474.754 Q70.33 472.74 72.3902 471.675 Q74.4504 470.587 76.9272 470.587 Q82.1355 470.587 85.1448 473.759 Q88.1772 476.907 88.1772 482.347 Q88.1772 487.671 85.029 490.888 Q81.8809 494.106 76.6495 494.106 Q70.6541 494.106 67.4828 489.522 Q64.3116 484.916 64.3116 476.189 Q64.3116 467.995 68.2004 463.134 Q72.0893 458.249 78.6402 458.249 Q80.3994 458.249 82.1818 458.597 Q83.9874 458.944 85.9318 459.638 Z" fill="#000000" fill-rule="evenodd" fill-opacity="1" /><path clip-path="url(#clip830)" d="M 0 0 M76.3254 148.375 Q72.9921 148.375 71.0708 150.157 Q69.1726 151.94 69.1726 155.065 Q69.1726 158.19 71.0708 159.972 Q72.9921 161.754 76.3254 161.754 Q79.6587 161.754 81.58 159.972 Q83.5013 158.167 83.5013 155.065 Q83.5013 151.94 81.58 150.157 Q79.6819 148.375 76.3254 148.375 M71.6495 146.384 Q68.6402 145.643 66.9504 143.583 Q65.2838 141.523 65.2838 138.56 Q65.2838 134.417 68.2236 132.009 Q71.1865 129.602 76.3254 129.602 Q81.4874 129.602 84.4272 132.009 Q87.367 134.417 87.367 138.56 Q87.367 141.523 85.6772 143.583 Q84.0105 145.643 81.0244 146.384 Q84.404 147.171 86.279 149.463 Q88.1772 151.755 88.1772 155.065 Q88.1772 160.088 85.0985 162.773 Q82.0429 165.458 76.3254 165.458 Q70.6078 165.458 67.5291 162.773 Q64.4736 160.088 64.4736 155.065 Q64.4736 151.755 66.3717 149.463 Q68.2699 147.171 71.6495 146.384 M69.9365 139 Q69.9365 141.685 71.6032 143.19 Q73.293 144.694 76.3254 144.694 Q79.3346 144.694 81.0244 143.19 Q82.7374 141.685 82.7374 139 Q82.7374 136.315 81.0244 134.81 Q79.3346 133.306 76.3254 133.306 Q73.293 133.306 71.6032 134.81 Q69.9365 136.315 69.9365 139 Z" fill="#000000" fill-rule="evenodd" fill-opacity="1" /><path clip-path="url(#clip832)" d="
M175.59 1297.77 L196.727 1296.37 L217.865 1286.88 L239.002 1273.91 L260.14 1257.72 L281.277 1238.72 L302.415 1213.34 L323.553 1186.54 L344.69 1151.37 L365.828 1115.38 
  L386.965 1072.98 L408.103 1020.99 L429.24 965.376 L450.378 903.907 L471.515 831.731 L492.653 758.422 L513.79 673.043 L534.928 595.088 L556.065 521.93 L577.203 490.516 
  L598.34 559.926 L619.478 730.746 L640.616 901.341 L661.753 1051.17 L682.891 1160.67 L704.028 1235.63 L725.166 1282.03 L746.303 1311.02 L767.441 1329.18 L788.578 1341.47 
  L809.716 1347.21 L830.853 1350.47 L851.991 1352.53 L873.128 1348.02 L894.266 1343.87 L915.404 1336.5 L936.541 1326.94 L957.679 1313.74 L978.816 1297.02 L999.954 1277.55 
  L1021.09 1256.46 L1042.23 1231.37 L1063.37 1197.51 L1084.5 1161.75 L1105.64 1125.23 L1126.78 1077.76 L1147.92 1028.33 L1169.05 966.894 L1190.19 895.642 L1211.33 816.803 
  L1232.47 736.061 L1253.6 680.08 L1274.74 707.372 L1295.88 808.673 L1317.02 940.872 L1338.15 1058.33 L1359.29 1142.18 L1380.43 1206.03 L1401.57 1251.71 L1422.7 1282.28 
  L1443.84 1309.16 L1464.98 1330.21 L1486.12 1345.91 L1507.25 1352.4 L1528.39 1359.32 L1549.53 1364.68 L1570.67 1366.01 L1591.8 1364.99 L1612.94 1364.55 L1634.08 1360.6 
  L1655.22 1351.74 L1676.35 1344.13 L1697.49 1334.42 L1718.63 1321.1 L1739.77 1303.62 L1760.9 1284.99 L1782.04 1260.42 L1803.18 1233.09 L1824.32 1202.89 L1845.46 1164.05 
  L1866.59 1129.8 L1887.73 1083.38 L1908.87 1030.25 L1930.01 974.016 L1951.14 931.485 L1972.28 912.566 L1993.42 976.193 L2014.56 1051.92 L2035.69 1133.39 L2056.83 1189.42 
  L2077.97 1236.75 L2099.11 1265.59 L2120.24 1290.14 L2141.38 1310.28 L2162.52 1323.3 L2183.66 1337.19 L2204.79 1350.07 L2225.93 1355.6 L2247.07 1364.08 L2268.21 1371.79 
  L2289.34 1375.67 L2289.34 1114.28 L2268.21 1127.24 L2247.07 1117.07 L2225.93 1068.72 L2204.79 889.394 L2183.66 583.273 L2162.52 334.185 L2141.38 179.487 L2120.24 110.025 
  L2099.11 87.9763 L2077.97 94.0588 L2056.83 94.5345 L2035.69 130.263 L2014.56 162.826 L1993.42 202.306 L1972.28 233.169 L1951.14 268.54 L1930.01 317.163 L1908.87 375.789 
  L1887.73 437.627 L1866.59 509.735 L1845.46 565.866 L1824.32 627.953 L1803.18 701.364 L1782.04 780.785 L1760.9 848.519 L1739.77 902.804 L1718.63 955.662 L1697.49 1013.61 
  L1676.35 1055.32 L1655.22 1094.84 L1634.08 1130.13 L1612.94 1160.9 L1591.8 1181.81 L1570.67 1196.05 L1549.53 1213.14 L1528.39 1210.89 L1507.25 1195.83 L1486.12 1145.13 
  L1464.98 1026.53 L1443.84 859.784 L1422.7 620.461 L1401.57 379.865 L1380.43 199.848 L1359.29 144.83 L1338.15 126.997 L1317.02 126.647 L1295.88 154.125 L1274.74 194.406 
  L1253.6 244.152 L1232.47 305.731 L1211.33 384.818 L1190.19 461.495 L1169.05 534.661 L1147.92 621.664 L1126.78 705.518 L1105.64 774.341 L1084.5 850.582 L1063.37 918.249 
  L1042.23 982.22 L1021.09 1034.1 L999.954 1080.18 L978.816 1117.72 L957.679 1154.56 L936.541 1179.41 L915.404 1206.4 L894.266 1225.27 L873.128 1238.6 L851.991 1246.56 
  L830.853 1247.64 L809.716 1239.88 L788.578 1219.36 L767.441 1179 L746.303 1113.02 L725.166 1005.39 L704.028 851.613 L682.891 654.865 L661.753 460.682 L640.616 311.534 
  L619.478 225.851 L598.34 196.539 L577.203 208.749 L556.065 238.41 L534.928 310.907 L513.79 393.307 L492.653 495.289 L471.515 596.998 L450.378 686.948 L429.24 778.683 
  L408.103 862.752 L386.965 932.537 L365.828 995.781 L344.69 1054.14 L323.553 1101.84 L302.415 1142.84 L281.277 1180.96 L260.14 1212.25 L239.002 1238.09 L217.865 1259.91 
  L196.727 1277.92 L175.59 1297.77  Z
  " fill="#009af9" fill-rule="evenodd" fill-opacity="0.2"/>
<polyline clip-path="url(#clip832)" style="stroke:#009af9; stroke-width:12; stroke-opacity:1; fill:none" points="
  175.59,1297.77 196.727,1287.57 217.865,1274.05 239.002,1256.51 260.14,1235.45 281.277,1209.6 302.415,1179.71 323.553,1145.31 344.69,1105.17 365.828,1059.86 
  386.965,1006.97 408.103,946.446 429.24,878.033 450.378,803.602 471.515,721.834 492.653,633.193 513.79,540.984 534.928,454.177 556.065,382.296 577.203,349.399 
  598.34,371.436 619.478,460.735 640.616,608.254 661.753,783.798 682.891,947.314 704.028,1076.4 725.166,1166.85 746.303,1226.21 767.441,1263.51 788.578,1285.76 
  809.716,1297.82 830.853,1302.71 851.991,1302.08 873.128,1297.32 894.266,1288.35 915.404,1275.52 936.541,1259.13 957.679,1239.33 978.816,1215.42 999.954,1186.63 
  1021.09,1153.05 1042.23,1114.59 1063.37,1070.82 1084.5,1020.62 1105.64,964.444 1126.78,901.044 1147.92,830.055 1169.05,752.091 1190.19,670.781 1211.33,589.643 
  1232.47,513.812 1253.6,453.508 1274.74,419.213 1295.88,421.848 1317.02,470.774 1338.15,566.446 1359.29,696.462 1380.43,839.197 1401.57,972.081 1422.7,1083.44 
  1443.84,1167.1 1464.98,1225.11 1486.12,1262.01 1507.25,1283.07 1528.39,1293.8 1549.53,1296.57 1570.67,1293.83 1591.8,1286.28 1612.94,1274.83 1634.08,1259.81 
  1655.22,1241.29 1676.35,1218.9 1697.49,1191.93 1718.63,1160.81 1739.77,1124.85 1760.9,1083.65 1782.04,1037.53 1803.18,985.434 1824.32,927.588 1845.46,865.537 
  1866.59,800.93 1887.73,732.905 1908.87,665.505 1930.01,605.858 1951.14,558.978 1972.28,528.959 1993.42,523.051 2014.56,544.495 2035.69,591.231 2056.83,660.009 
  2077.97,747.334 2099.11,843.944 2120.24,942.75 2141.38,1033.34 2162.52,1109.76 2183.66,1170.21 2204.79,1213.94 2225.93,1243.31 2247.07,1261.27 2268.21,1269.57 
  2289.34,1270.2 
  "/>
<path clip-path="url(#clip832)" d="
M175.59 1297.77 L196.727 1333.71 L217.865 1358.42 L239.002 1376.98 L260.14 1391.55 L281.277 1402.43 L302.415 1411.13 L323.553 1417.51 L344.69 1422.34 L365.828 1425.61 
  L386.965 1427.84 L408.103 1428.5 L429.24 1428.76 L450.378 1427.78 L471.515 1425 L492.653 1419.79 L513.79 1411.65 L534.928 1399.4 L556.065 1377.75 L577.203 1345.21 
  L598.34 1295.69 L619.478 1211.03 L640.616 1098.35 L661.753 979.914 L682.891 891.117 L704.028 907.67 L725.166 981.099 L746.303 1057.04 L767.441 1126.8 L788.578 1187.58 
  L809.716 1237.06 L830.853 1281.42 L851.991 1313.79 L873.128 1340.36 L894.266 1362.66 L915.404 1381.06 L936.541 1395.21 L957.679 1405.44 L978.816 1414.6 L999.954 1421.33 
  L1021.09 1426.54 L1042.23 1431.11 L1063.37 1434.68 L1084.5 1436.79 L1105.64 1438.77 L1126.78 1439.92 L1147.92 1440.26 L1169.05 1440.12 L1190.19 1438.74 L1211.33 1436.9 
  L1232.47 1433.25 L1253.6 1426.89 L1274.74 1417.22 L1295.88 1402.59 L1317.02 1371.15 L1338.15 1319.01 L1359.29 1238.15 L1380.43 1104.24 L1401.57 1064.65 L1422.7 1095.1 
  L1443.84 1144.14 L1464.98 1192.93 L1486.12 1236.32 L1507.25 1278.74 L1528.39 1309.38 L1549.53 1333.94 L1570.67 1354.58 L1591.8 1373.6 L1612.94 1388.03 L1634.08 1399.74 
  L1655.22 1409.07 L1676.35 1415.26 L1697.49 1420.61 L1718.63 1426.38 L1739.77 1430.32 L1760.9 1434.21 L1782.04 1437.24 L1803.18 1439.5 L1824.32 1441.23 L1845.46 1443.06 
  L1866.59 1444.56 L1887.73 1445.61 L1908.87 1445.72 L1930.01 1445.24 L1951.14 1444.57 L1972.28 1442.5 L1993.42 1439.59 L2014.56 1434.01 L2035.69 1425.05 L2056.83 1410.27 
  L2077.97 1385.41 L2099.11 1326.42 L2120.24 1274 L2141.38 1253.96 L2162.52 1256.85 L2183.66 1287.32 L2204.79 1311.65 L2225.93 1332.47 L2247.07 1351.61 L2268.21 1368.07 
  L2289.34 1383.56 L2289.34 878.456 L2268.21 782.961 L2247.07 652.266 L2225.93 564.561 L2204.79 510.289 L2183.66 501.839 L2162.52 501.039 L2141.38 498.172 L2120.24 553.695 
  L2099.11 565.454 L2077.97 612.831 L2056.83 651.698 L2035.69 680.132 L2014.56 749.916 L1993.42 813.362 L1972.28 882.426 L1951.14 956.671 L1930.01 1046.55 L1908.87 1144.39 
  L1887.73 1221.76 L1866.59 1274.97 L1845.46 1312.76 L1824.32 1340.27 L1803.18 1357.51 L1782.04 1369.11 L1760.9 1373.9 L1739.77 1369.85 L1718.63 1363.22 L1697.49 1350.09 
  L1676.35 1329.54 L1655.22 1300.25 L1634.08 1268.4 L1612.94 1222.18 L1591.8 1156.93 L1570.67 1082.85 L1549.53 999.874 L1528.39 893.007 L1507.25 787.379 L1486.12 664.067 
  L1464.98 587.439 L1443.84 550.137 L1422.7 537.967 L1401.57 534.717 L1380.43 564.566 L1359.29 604.517 L1338.15 667.301 L1317.02 762.459 L1295.88 841.468 L1274.74 943.667 
  L1253.6 1054.69 L1232.47 1154.89 L1211.33 1238.72 L1190.19 1292.38 L1169.05 1331.84 L1147.92 1358.89 L1126.78 1376.11 L1105.64 1383.22 L1084.5 1386.21 L1063.37 1387.99 
  L1042.23 1385.34 L1021.09 1379.08 L999.954 1370.95 L978.816 1359.24 L957.679 1342.51 L936.541 1319.29 L915.404 1292.04 L894.266 1257.56 L873.128 1213.68 L851.991 1160.04 
  L830.853 1093.88 L809.716 1013.6 L788.578 917.143 L767.441 819.756 L746.303 723.704 L725.166 645.782 L704.028 592.373 L682.891 583.304 L661.753 588.691 L640.616 655.431 
  L619.478 758.119 L598.34 909.057 L577.203 1066.85 L556.065 1190.68 L534.928 1271.29 L513.79 1326.81 L492.653 1360.74 L471.515 1382.36 L450.378 1396.29 L429.24 1403.72 
  L408.103 1408.31 L386.965 1409.36 L365.828 1408.83 L344.69 1405.77 L323.553 1401.23 L302.415 1394.84 L281.277 1386.39 L260.14 1374.69 L239.002 1360.12 L217.865 1342.18 
  L196.727 1319.82 L175.59 1297.77  Z
  " fill="#e26f46" fill-rule="evenodd" fill-opacity="0.2"/>
<polyline clip-path="url(#clip832)" style="stroke:#e26f46; stroke-width:12; stroke-opacity:1; fill:none" points="
  175.59,1297.77 196.727,1327.19 217.865,1350.37 239.002,1368.65 260.14,1383.25 281.277,1394.54 302.415,1403.24 323.553,1409.74 344.69,1414.48 365.828,1417.59 
  386.965,1419.27 408.103,1419.43 429.24,1417.81 450.378,1414.04 471.515,1407.24 492.653,1395.96 513.79,1377.73 534.928,1348.24 556.065,1301.13 577.203,1228.38 
  598.34,1125.13 619.478,998.072 640.616,868.79 661.753,774.158 682.891,737.358 704.028,757.235 725.166,819.292 746.303,901.225 767.441,987.237 788.578,1066.83 
  809.716,1136.89 830.853,1196.61 851.991,1245.53 873.128,1285.11 894.266,1317.05 915.404,1342.33 936.541,1362.15 957.679,1377.75 978.816,1389.94 999.954,1399.33 
  1021.09,1406.32 1042.23,1411.4 1063.37,1414.77 1084.5,1416.43 1105.64,1416.43 1126.78,1414.46 1147.92,1410.1 1169.05,1402.35 1190.19,1389.81 1211.33,1370.27 
  1232.47,1340.75 1253.6,1297.28 1274.74,1236.35 1295.88,1156.53 1317.02,1060.48 1338.15,959.086 1359.29,870.694 1380.43,812.598 1401.57,794.24 1422.7,815.869 
  1443.84,867.975 1464.98,938.522 1486.12,1014.47 1507.25,1087.66 1528.39,1153.55 1549.53,1209.65 1570.67,1255.98 1591.8,1293.01 1612.94,1323.07 1634.08,1346.77 
  1655.22,1365.46 1676.35,1380.01 1697.49,1391.22 1718.63,1399.61 1739.77,1405.63 1760.9,1409.29 1782.04,1411.02 1803.18,1410.66 1824.32,1408.02 1845.46,1402.48 
  1866.59,1393.27 1887.73,1379.29 1908.87,1358.83 1930.01,1329.9 1951.14,1291.72 1972.28,1241.9 1993.42,1182.03 2014.56,1115.36 2035.69,1047.65 2056.83,985.645 
  2077.97,935.692 2099.11,901.118 2120.24,888.51 2141.38,897.467 2162.52,927.394 2183.66,972.397 2204.79,1026.33 2225.93,1083.45 2247.07,1138.81 2268.21,1190.27 
  2289.34,1235.12 
  "/>
</svg>
