<?xml version="1.0" encoding="utf-8"?>
<svg xmlns="http://www.w3.org/2000/svg" xmlns:xlink="http://www.w3.org/1999/xlink" width="600" height="400" viewBox="0 0 2400 1600">
<defs>
  <clipPath id="clip1500">
    <rect x="0" y="0" width="2400" height="1600"/>
  </clipPath>
</defs>
<path clip-path="url(#clip1500)" d="
M0 1600 L2400 1600 L2400 0 L0 0  Z
  " fill="#ffffff" fill-rule="evenodd" fill-opacity="1"/>
<defs>
  <clipPath id="clip1501">
    <rect x="480" y="0" width="1681" height="1600"/>
  </clipPath>
</defs>
<path clip-path="url(#clip1500)" d="
M157.865 1469.28 L2112.76 1469.28 L2112.76 129.011 L157.865 129.011  Z
  " fill="#ffffff" fill-rule="evenodd" fill-opacity="1"/>
<defs>
  <clipPath id="clip1502">
    <rect x="157" y="129" width="1956" height="1341"/>
  </clipPath>
</defs>
<polyline clip-path="url(#clip1502)" style="stroke:#000000; stroke-width:2; stroke-opacity:0.1; fill:none" points="
  449.315,1469.28 449.315,129.011 
  "/>
<polyline clip-path="url(#clip1502)" style="stroke:#000000; stroke-width:2; stroke-opacity:0.1; fill:none" points="
  908.776,1469.28 908.776,129.011 
  "/>
<polyline clip-path="url(#clip1502)" style="stroke:#000000; stroke-width:2; stroke-opacity:0.1; fill:none" points="
  1368.24,1469.28 1368.24,129.011 
  "/>
<polyline clip-path="url(#clip1502)" style="stroke:#000000; stroke-width:2; stroke-opacity:0.1; fill:none" points="
  1827.7,1469.28 1827.7,129.011 
  "/>
<polyline clip-path="url(#clip1502)" style="stroke:#000000; stroke-width:2; stroke-opacity:0.1; fill:none" points="
  157.865,1428.24 2112.76,1428.24 
  "/>
<polyline clip-path="url(#clip1502)" style="stroke:#000000; stroke-width:2; stroke-opacity:0.1; fill:none" points="
  157.865,1112.92 2112.76,1112.92 
  "/>
<polyline clip-path="url(#clip1502)" style="stroke:#000000; stroke-width:2; stroke-opacity:0.1; fill:none" points="
  157.865,797.591 2112.76,797.591 
  "/>
<polyline clip-path="url(#clip1502)" style="stroke:#000000; stroke-width:2; stroke-opacity:0.1; fill:none" points="
  157.865,482.267 2112.76,482.267 
  "/>
<polyline clip-path="url(#clip1502)" style="stroke:#000000; stroke-width:2; stroke-opacity:0.1; fill:none" points="
  157.865,166.943 2112.76,166.943 
  "/>
<polyline clip-path="url(#clip1500)" style="stroke:#000000; stroke-width:4; stroke-opacity:1; fill:none" points="
  157.865,1469.28 2112.76,1469.28 
  "/>
<polyline clip-path="url(#clip1500)" style="stroke:#000000; stroke-width:4; stroke-opacity:1; fill:none" points="
  157.865,1469.28 157.865,129.011 
  "/>
<polyline clip-path="url(#clip1500)" style="stroke:#000000; stroke-width:4; stroke-opacity:1; fill:none" points="
  449.315,1469.28 449.315,1453.2 
  "/>
<polyline clip-path="url(#clip1500)" style="stroke:#000000; stroke-width:4; stroke-opacity:1; fill:none" points="
  908.776,1469.28 908.776,1453.2 
  "/>
<polyline clip-path="url(#clip1500)" style="stroke:#000000; stroke-width:4; stroke-opacity:1; fill:none" points="
  1368.24,1469.28 1368.24,1453.2 
  "/>
<polyline clip-path="url(#clip1500)" style="stroke:#000000; stroke-width:4; stroke-opacity:1; fill:none" points="
  1827.7,1469.28 1827.7,1453.2 
  "/>
<polyline clip-path="url(#clip1500)" style="stroke:#000000; stroke-width:4; stroke-opacity:1; fill:none" points="
  157.865,1428.24 181.323,1428.24 
  "/>
<polyline clip-path="url(#clip1500)" style="stroke:#000000; stroke-width:4; stroke-opacity:1; fill:none" points="
  157.865,1112.92 181.323,1112.92 
  "/>
<polyline clip-path="url(#clip1500)" style="stroke:#000000; stroke-width:4; stroke-opacity:1; fill:none" points="
  157.865,797.591 181.323,797.591 
  "/>
<polyline clip-path="url(#clip1500)" style="stroke:#000000; stroke-width:4; stroke-opacity:1; fill:none" points="
  157.865,482.267 181.323,482.267 
  "/>
<polyline clip-path="url(#clip1500)" style="stroke:#000000; stroke-width:4; stroke-opacity:1; fill:none" points="
  157.865,166.943 181.323,166.943 
  "/>
<g clip-path="url(#clip1500)">
<text style="fill:#000000; fill-opacity:1; font-family:Arial,Helvetica Neue,Helvetica,sans-serif; font-size:48px; text-anchor:middle;" transform="rotate(0, 449.315, 1523.28)" x="449.315" y="1523.28">-4</text>
</g>
<g clip-path="url(#clip1500)">
<text style="fill:#000000; fill-opacity:1; font-family:Arial,Helvetica Neue,Helvetica,sans-serif; font-size:48px; text-anchor:middle;" transform="rotate(0, 908.776, 1523.28)" x="908.776" y="1523.28">-2</text>
</g>
<g clip-path="url(#clip1500)">
<text style="fill:#000000; fill-opacity:1; font-family:Arial,Helvetica Neue,Helvetica,sans-serif; font-size:48px; text-anchor:middle;" transform="rotate(0, 1368.24, 1523.28)" x="1368.24" y="1523.28">0</text>
</g>
<g clip-path="url(#clip1500)">
<text style="fill:#000000; fill-opacity:1; font-family:Arial,Helvetica Neue,Helvetica,sans-serif; font-size:48px; text-anchor:middle;" transform="rotate(0, 1827.7, 1523.28)" x="1827.7" y="1523.28">2</text>
</g>
<g clip-path="url(#clip1500)">
<text style="fill:#000000; fill-opacity:1; font-family:Arial,Helvetica Neue,Helvetica,sans-serif; font-size:48px; text-anchor:end;" transform="rotate(0, 133.865, 1445.74)" x="133.865" y="1445.74">-6</text>
</g>
<g clip-path="url(#clip1500)">
<text style="fill:#000000; fill-opacity:1; font-family:Arial,Helvetica Neue,Helvetica,sans-serif; font-size:48px; text-anchor:end;" transform="rotate(0, 133.865, 1130.42)" x="133.865" y="1130.42">-4</text>
</g>
<g clip-path="url(#clip1500)">
<text style="fill:#000000; fill-opacity:1; font-family:Arial,Helvetica Neue,Helvetica,sans-serif; font-size:48px; text-anchor:end;" transform="rotate(0, 133.865, 815.091)" x="133.865" y="815.091">-2</text>
</g>
<g clip-path="url(#clip1500)">
<text style="fill:#000000; fill-opacity:1; font-family:Arial,Helvetica Neue,Helvetica,sans-serif; font-size:48px; text-anchor:end;" transform="rotate(0, 133.865, 499.767)" x="133.865" y="499.767">0</text>
</g>
<g clip-path="url(#clip1500)">
<text style="fill:#000000; fill-opacity:1; font-family:Arial,Helvetica Neue,Helvetica,sans-serif; font-size:48px; text-anchor:end;" transform="rotate(0, 133.865, 184.443)" x="133.865" y="184.443">2</text>
</g>
<g clip-path="url(#clip1500)">
<text style="fill:#000000; fill-opacity:1; font-family:Arial,Helvetica Neue,Helvetica,sans-serif; font-size:84px; text-anchor:middle;" transform="rotate(0, 1135.31, 73.2)" x="1135.31" y="73.2">Synthetic Dataset</text>
</g>
<polyline clip-path="url(#clip1502)" style="stroke:#fbaa0f; stroke-width:4; stroke-opacity:1; fill:none" points="
  238.059,1428.24 219.584,1421.79 
  "/>
<polyline clip-path="url(#clip1502)" style="stroke:#f8c933; stroke-width:4; stroke-opacity:1; fill:none" points="
  219.584,1311.53 449.315,1391.68 679.045,1394.33 908.776,1319.47 982.487,1270.58 1103.52,1112.92 1114.46,955.253 1138.51,844.089 1368.24,828.729 1597.97,806.645 
  1625.01,797.591 1827.7,689.957 1881.11,639.929 1949.92,482.267 1919.22,324.605 1827.7,213.798 1759.43,166.943 
  "/>
<polyline clip-path="url(#clip1502)" style="stroke:#fbaa0f; stroke-width:4; stroke-opacity:1; fill:none" points="
  1930.57,166.943 2057.43,320.538 
  "/>
<polyline clip-path="url(#clip1502)" style="stroke:#fbaa0f; stroke-width:4; stroke-opacity:1; fill:none" points="
  2057.43,560.312 2022.68,639.929 1854.36,797.591 1827.7,813.285 1597.97,890.266 1368.24,922.632 1302.15,955.253 1227.52,1112.92 1145.29,1270.58 1138.51,1277.36 
  911.025,1428.24 
  "/>
<polyline clip-path="url(#clip1502)" style="stroke:#f88c0a; stroke-width:4; stroke-opacity:1; fill:none" points="
  1077.27,1428.24 1138.51,1387.63 1255.55,1270.58 1340.23,1112.92 1368.24,1069.43 1597.97,970.003 1653.23,955.253 1827.7,896.628 1995.93,797.591 2057.43,739.986 
  
  "/>
<polyline clip-path="url(#clip1502)" style="stroke:#e25832; stroke-width:4; stroke-opacity:1; fill:none" points="
  2057.43,928.06 2011.24,955.253 1827.7,1034.23 1597.97,1102.39 1578.84,1112.92 1450.2,1270.58 1368.24,1378.33 1318.31,1428.24 
  "/>
<polyline clip-path="url(#clip1502)" style="stroke:#f0711e; stroke-width:4; stroke-opacity:1; fill:none" points="
  1208.12,1428.24 1365.81,1270.58 1368.24,1266.1 1458.6,1112.92 1597.97,1036.19 1827.7,973.319 1869.68,955.253 2057.43,844.725 
  "/>
<polyline clip-path="url(#clip1502)" style="stroke:#ba3655; stroke-width:4; stroke-opacity:1; fill:none" points="
  2057.43,1056.95 1927.56,1112.92 1827.7,1149.11 1618.79,1270.58 1597.97,1295.87 1495.78,1428.24 
  "/>
<polyline clip-path="url(#clip1502)" style="stroke:#a12b61; stroke-width:4; stroke-opacity:1; fill:none" points="
  1578.22,1428.24 1597.97,1402.66 1706.69,1270.58 1827.7,1200.22 2057.43,1116.7 
  "/>
<polyline clip-path="url(#clip1502)" style="stroke:#550f6d; stroke-width:4; stroke-opacity:1; fill:none" points="
  2057.43,1260.41 2030.87,1270.58 1827.7,1381.52 1782.1,1428.24 
  "/>
<polyline clip-path="url(#clip1502)" style="stroke:#6e186e; stroke-width:4; stroke-opacity:1; fill:none" points="
  1715.4,1428.24 1827.7,1313.18 1905.72,1270.58 2057.43,1212.51 
  "/>
<polyline clip-path="url(#clip1502)" style="stroke:#88216a; stroke-width:4; stroke-opacity:1; fill:none" points="
  2057.43,1164.6 1827.7,1251.33 1794.59,1270.58 1648.69,1428.24 
  "/>
<polyline clip-path="url(#clip1502)" style="stroke:#0a0622; stroke-width:4; stroke-opacity:1; fill:none" points="
  1988.16,1428.24 2057.43,1386.62 
  "/>
<polyline clip-path="url(#clip1502)" style="stroke:#1f0b46; stroke-width:4; stroke-opacity:1; fill:none" points="
  2057.43,1344.99 1918.89,1428.24 
  "/>
<polyline clip-path="url(#clip1502)" style="stroke:#3b0963; stroke-width:4; stroke-opacity:1; fill:none" points="
  1849.62,1428.24 2057.43,1303.37 
  "/>
<polyline clip-path="url(#clip1502)" style="stroke:#d04544; stroke-width:4; stroke-opacity:1; fill:none" points="
  2057.43,996.19 1827.7,1095.14 1768.52,1112.92 1597.97,1195.57 1534.01,1270.58 1413.33,1428.24 
  "/>
<polyline clip-path="url(#clip1502)" style="stroke:#f0711e; stroke-width:4; stroke-opacity:1; fill:none" points="
  219.584,483.93 226.112,482.267 449.315,420.254 561.106,324.605 652.722,166.943 
  "/>
<polyline clip-path="url(#clip1502)" style="stroke:#d04544; stroke-width:4; stroke-opacity:1; fill:none" points="
  475.212,166.943 449.315,207.557 328.88,324.605 219.584,368.498 
  "/>
<polyline clip-path="url(#clip1502)" style="stroke:#e25832; stroke-width:4; stroke-opacity:1; fill:none" points="
  219.584,426.015 449.315,337.732 464.658,324.605 563.967,166.943 
  "/>
<polyline clip-path="url(#clip1502)" style="stroke:#f88c0a; stroke-width:4; stroke-opacity:1; fill:none" points="
  764.468,166.943 679.045,286.676 657.554,324.605 512.672,482.267 449.315,501.491 219.584,559.601 
  "/>
<polyline clip-path="url(#clip1502)" style="stroke:#fbaa0f; stroke-width:4; stroke-opacity:1; fill:none" points="
  219.584,635.271 449.315,578.843 679.045,527.62 726.578,482.267 773.739,324.605 885.908,166.943 
  "/>
<polyline clip-path="url(#clip1502)" style="stroke:#f8c933; stroke-width:4; stroke-opacity:1; fill:none" points="
  1065.61,166.943 908.776,306.049 895.583,324.605 863.405,482.267 841.024,639.929 679.045,656.43 449.315,663.943 219.584,747.004 
  "/>
<polyline clip-path="url(#clip1502)" style="stroke:#f2e763; stroke-width:4; stroke-opacity:1; fill:none" points="
  219.584,926.853 395.49,797.591 449.315,778.141 679.045,774.501 750.086,797.591 908.776,906.499 942.42,955.253 937.117,1112.92 908.776,1149.85 720.427,1270.58 
  679.045,1284.06 449.315,1281.42 418.248,1270.58 219.584,1134.24 
  "/>
<polyline clip-path="url(#clip1502)" style="stroke:#88216a; stroke-width:4; stroke-opacity:1; fill:none" points="
  219.584,189.663 247.631,166.943 
  "/>
<polyline clip-path="url(#clip1502)" style="stroke:#a12b61; stroke-width:4; stroke-opacity:1; fill:none" points="
  322.102,166.943 219.584,249.989 
  "/>
<polyline clip-path="url(#clip1502)" style="stroke:#ba3655; stroke-width:4; stroke-opacity:1; fill:none" points="
  219.584,310.316 396.574,166.943 
  "/>
<polyline clip-path="url(#clip1502)" style="stroke:#f2e763; stroke-width:4; stroke-opacity:1; fill:none" points="
  1038.63,482.267 1130.38,639.929 1138.51,645.505 1368.24,708.475 1597.97,679.328 1672.17,639.929 1793.56,482.267 1739.39,324.605 1597.97,227.545 1368.24,190.371 
  1138.51,273.683 1081.1,324.605 1038.63,482.267 
  "/>
<circle clip-path="url(#clip1502)" cx="837.917" cy="1431.35" r="14" fill="#e26f46" fill-rule="evenodd" fill-opacity="1" stroke="#000000" stroke-opacity="1" stroke-width="3.2"/>
<circle clip-path="url(#clip1502)" cx="1040.83" cy="1187.53" r="14" fill="#e26f46" fill-rule="evenodd" fill-opacity="1" stroke="#000000" stroke-opacity="1" stroke-width="3.2"/>
<circle clip-path="url(#clip1502)" cx="540.838" cy="1277.28" r="14" fill="#e26f46" fill-rule="evenodd" fill-opacity="1" stroke="#000000" stroke-opacity="1" stroke-width="3.2"/>
<circle clip-path="url(#clip1502)" cx="587.335" cy="1034.4" r="14" fill="#e26f46" fill-rule="evenodd" fill-opacity="1" stroke="#000000" stroke-opacity="1" stroke-width="3.2"/>
<circle clip-path="url(#clip1502)" cx="795.93" cy="900.982" r="14" fill="#e26f46" fill-rule="evenodd" fill-opacity="1" stroke="#000000" stroke-opacity="1" stroke-width="3.2"/>
<circle clip-path="url(#clip1502)" cx="830.225" cy="1109" r="14" fill="#e26f46" fill-rule="evenodd" fill-opacity="1" stroke="#000000" stroke-opacity="1" stroke-width="3.2"/>
<circle clip-path="url(#clip1502)" cx="507.985" cy="1022.75" r="14" fill="#e26f46" fill-rule="evenodd" fill-opacity="1" stroke="#000000" stroke-opacity="1" stroke-width="3.2"/>
<circle clip-path="url(#clip1502)" cx="446.372" cy="1283.23" r="14" fill="#e26f46" fill-rule="evenodd" fill-opacity="1" stroke="#000000" stroke-opacity="1" stroke-width="3.2"/>
<circle clip-path="url(#clip1502)" cx="681.724" cy="1145.59" r="14" fill="#e26f46" fill-rule="evenodd" fill-opacity="1" stroke="#000000" stroke-opacity="1" stroke-width="3.2"/>
<circle clip-path="url(#clip1502)" cx="296.292" cy="1102.26" r="14" fill="#e26f46" fill-rule="evenodd" fill-opacity="1" stroke="#000000" stroke-opacity="1" stroke-width="3.2"/>
<circle clip-path="url(#clip1502)" cx="401.311" cy="1066.94" r="14" fill="#e26f46" fill-rule="evenodd" fill-opacity="1" stroke="#000000" stroke-opacity="1" stroke-width="3.2"/>
<circle clip-path="url(#clip1502)" cx="392.794" cy="978.228" r="14" fill="#e26f46" fill-rule="evenodd" fill-opacity="1" stroke="#000000" stroke-opacity="1" stroke-width="3.2"/>
<circle clip-path="url(#clip1502)" cx="490.581" cy="817.454" r="14" fill="#e26f46" fill-rule="evenodd" fill-opacity="1" stroke="#000000" stroke-opacity="1" stroke-width="3.2"/>
<circle clip-path="url(#clip1502)" cx="642.863" cy="1127.99" r="14" fill="#e26f46" fill-rule="evenodd" fill-opacity="1" stroke="#000000" stroke-opacity="1" stroke-width="3.2"/>
<circle clip-path="url(#clip1502)" cx="704.991" cy="936.012" r="14" fill="#e26f46" fill-rule="evenodd" fill-opacity="1" stroke="#000000" stroke-opacity="1" stroke-width="3.2"/>
<circle clip-path="url(#clip1502)" cx="396.725" cy="934.213" r="14" fill="#e26f46" fill-rule="evenodd" fill-opacity="1" stroke="#000000" stroke-opacity="1" stroke-width="3.2"/>
<circle clip-path="url(#clip1502)" cx="722.104" cy="1055.38" r="14" fill="#e26f46" fill-rule="evenodd" fill-opacity="1" stroke="#000000" stroke-opacity="1" stroke-width="3.2"/>
<circle clip-path="url(#clip1502)" cx="677.396" cy="1009.38" r="14" fill="#e26f46" fill-rule="evenodd" fill-opacity="1" stroke="#000000" stroke-opacity="1" stroke-width="3.2"/>
<circle clip-path="url(#clip1502)" cx="848.949" cy="1224.93" r="14" fill="#e26f46" fill-rule="evenodd" fill-opacity="1" stroke="#000000" stroke-opacity="1" stroke-width="3.2"/>
<circle clip-path="url(#clip1502)" cx="492.007" cy="918.381" r="14" fill="#e26f46" fill-rule="evenodd" fill-opacity="1" stroke="#000000" stroke-opacity="1" stroke-width="3.2"/>
<circle clip-path="url(#clip1502)" cx="213.192" cy="833.736" r="14" fill="#e26f46" fill-rule="evenodd" fill-opacity="1" stroke="#000000" stroke-opacity="1" stroke-width="3.2"/>
<circle clip-path="url(#clip1502)" cx="629.084" cy="1130.89" r="14" fill="#e26f46" fill-rule="evenodd" fill-opacity="1" stroke="#000000" stroke-opacity="1" stroke-width="3.2"/>
<circle clip-path="url(#clip1502)" cx="917.043" cy="1207.89" r="14" fill="#e26f46" fill-rule="evenodd" fill-opacity="1" stroke="#000000" stroke-opacity="1" stroke-width="3.2"/>
<circle clip-path="url(#clip1502)" cx="398.417" cy="1110.42" r="14" fill="#e26f46" fill-rule="evenodd" fill-opacity="1" stroke="#000000" stroke-opacity="1" stroke-width="3.2"/>
<circle clip-path="url(#clip1502)" cx="812.038" cy="1001.15" r="14" fill="#e26f46" fill-rule="evenodd" fill-opacity="1" stroke="#000000" stroke-opacity="1" stroke-width="3.2"/>
<circle clip-path="url(#clip1502)" cx="406.603" cy="1075.13" r="14" fill="#e26f46" fill-rule="evenodd" fill-opacity="1" stroke="#000000" stroke-opacity="1" stroke-width="3.2"/>
<circle clip-path="url(#clip1502)" cx="467.271" cy="1172.54" r="14" fill="#e26f46" fill-rule="evenodd" fill-opacity="1" stroke="#000000" stroke-opacity="1" stroke-width="3.2"/>
<circle clip-path="url(#clip1502)" cx="732.956" cy="802.663" r="14" fill="#e26f46" fill-rule="evenodd" fill-opacity="1" stroke="#000000" stroke-opacity="1" stroke-width="3.2"/>
<circle clip-path="url(#clip1502)" cx="490.344" cy="1110.19" r="14" fill="#e26f46" fill-rule="evenodd" fill-opacity="1" stroke="#000000" stroke-opacity="1" stroke-width="3.2"/>
<circle clip-path="url(#clip1502)" cx="440.048" cy="913.604" r="14" fill="#e26f46" fill-rule="evenodd" fill-opacity="1" stroke="#000000" stroke-opacity="1" stroke-width="3.2"/>
<circle clip-path="url(#clip1502)" cx="1451.15" cy="646.161" r="14" fill="#e26f46" fill-rule="evenodd" fill-opacity="1" stroke="#000000" stroke-opacity="1" stroke-width="3.2"/>
<circle clip-path="url(#clip1502)" cx="1276.04" cy="289.741" r="14" fill="#e26f46" fill-rule="evenodd" fill-opacity="1" stroke="#000000" stroke-opacity="1" stroke-width="3.2"/>
<circle clip-path="url(#clip1502)" cx="1188.81" cy="395.836" r="14" fill="#e26f46" fill-rule="evenodd" fill-opacity="1" stroke="#000000" stroke-opacity="1" stroke-width="3.2"/>
<circle clip-path="url(#clip1502)" cx="1698.34" cy="431.071" r="14" fill="#e26f46" fill-rule="evenodd" fill-opacity="1" stroke="#000000" stroke-opacity="1" stroke-width="3.2"/>
<circle clip-path="url(#clip1502)" cx="1135.85" cy="317.192" r="14" fill="#e26f46" fill-rule="evenodd" fill-opacity="1" stroke="#000000" stroke-opacity="1" stroke-width="3.2"/>
<circle clip-path="url(#clip1502)" cx="1173.11" cy="392.668" r="14" fill="#e26f46" fill-rule="evenodd" fill-opacity="1" stroke="#000000" stroke-opacity="1" stroke-width="3.2"/>
<circle clip-path="url(#clip1502)" cx="1104.1" cy="420.591" r="14" fill="#e26f46" fill-rule="evenodd" fill-opacity="1" stroke="#000000" stroke-opacity="1" stroke-width="3.2"/>
<circle clip-path="url(#clip1502)" cx="1139.92" cy="485.783" r="14" fill="#e26f46" fill-rule="evenodd" fill-opacity="1" stroke="#000000" stroke-opacity="1" stroke-width="3.2"/>
<circle clip-path="url(#clip1502)" cx="1090.8" cy="499.098" r="14" fill="#e26f46" fill-rule="evenodd" fill-opacity="1" stroke="#000000" stroke-opacity="1" stroke-width="3.2"/>
<circle clip-path="url(#clip1502)" cx="1306.55" cy="520.807" r="14" fill="#e26f46" fill-rule="evenodd" fill-opacity="1" stroke="#000000" stroke-opacity="1" stroke-width="3.2"/>
<circle clip-path="url(#clip1502)" cx="1627.23" cy="276.539" r="14" fill="#e26f46" fill-rule="evenodd" fill-opacity="1" stroke="#000000" stroke-opacity="1" stroke-width="3.2"/>
<circle clip-path="url(#clip1502)" cx="1753.89" cy="581.424" r="14" fill="#e26f46" fill-rule="evenodd" fill-opacity="1" stroke="#000000" stroke-opacity="1" stroke-width="3.2"/>
<circle clip-path="url(#clip1502)" cx="1322.52" cy="476.669" r="14" fill="#e26f46" fill-rule="evenodd" fill-opacity="1" stroke="#000000" stroke-opacity="1" stroke-width="3.2"/>
<circle clip-path="url(#clip1502)" cx="1308.68" cy="296.208" r="14" fill="#e26f46" fill-rule="evenodd" fill-opacity="1" stroke="#000000" stroke-opacity="1" stroke-width="3.2"/>
<circle clip-path="url(#clip1502)" cx="1855.46" cy="360.916" r="14" fill="#e26f46" fill-rule="evenodd" fill-opacity="1" stroke="#000000" stroke-opacity="1" stroke-width="3.2"/>
<circle clip-path="url(#clip1502)" cx="1514.13" cy="215.642" r="14" fill="#e26f46" fill-rule="evenodd" fill-opacity="1" stroke="#000000" stroke-opacity="1" stroke-width="3.2"/>
<circle clip-path="url(#clip1502)" cx="1432.42" cy="697.365" r="14" fill="#e26f46" fill-rule="evenodd" fill-opacity="1" stroke="#000000" stroke-opacity="1" stroke-width="3.2"/>
<circle clip-path="url(#clip1502)" cx="1620.7" cy="380.159" r="14" fill="#e26f46" fill-rule="evenodd" fill-opacity="1" stroke="#000000" stroke-opacity="1" stroke-width="3.2"/>
<circle clip-path="url(#clip1502)" cx="1372.68" cy="321.923" r="14" fill="#e26f46" fill-rule="evenodd" fill-opacity="1" stroke="#000000" stroke-opacity="1" stroke-width="3.2"/>
<circle clip-path="url(#clip1502)" cx="1759" cy="437.88" r="14" fill="#e26f46" fill-rule="evenodd" fill-opacity="1" stroke="#000000" stroke-opacity="1" stroke-width="3.2"/>
<circle clip-path="url(#clip1502)" cx="1111.15" cy="277.699" r="14" fill="#e26f46" fill-rule="evenodd" fill-opacity="1" stroke="#000000" stroke-opacity="1" stroke-width="3.2"/>
<circle clip-path="url(#clip1502)" cx="1477.06" cy="210.849" r="14" fill="#e26f46" fill-rule="evenodd" fill-opacity="1" stroke="#000000" stroke-opacity="1" stroke-width="3.2"/>
<circle clip-path="url(#clip1502)" cx="1785.06" cy="581.319" r="14" fill="#e26f46" fill-rule="evenodd" fill-opacity="1" stroke="#000000" stroke-opacity="1" stroke-width="3.2"/>
<circle clip-path="url(#clip1502)" cx="1380.66" cy="598.794" r="14" fill="#e26f46" fill-rule="evenodd" fill-opacity="1" stroke="#000000" stroke-opacity="1" stroke-width="3.2"/>
<circle clip-path="url(#clip1502)" cx="1262.69" cy="700.18" r="14" fill="#e26f46" fill-rule="evenodd" fill-opacity="1" stroke="#000000" stroke-opacity="1" stroke-width="3.2"/>
<circle clip-path="url(#clip1502)" cx="1317.31" cy="262.714" r="14" fill="#e26f46" fill-rule="evenodd" fill-opacity="1" stroke="#000000" stroke-opacity="1" stroke-width="3.2"/>
<circle clip-path="url(#clip1502)" cx="1549.6" cy="484.705" r="14" fill="#e26f46" fill-rule="evenodd" fill-opacity="1" stroke="#000000" stroke-opacity="1" stroke-width="3.2"/>
<circle clip-path="url(#clip1502)" cx="1436.52" cy="419.26" r="14" fill="#e26f46" fill-rule="evenodd" fill-opacity="1" stroke="#000000" stroke-opacity="1" stroke-width="3.2"/>
<circle clip-path="url(#clip1502)" cx="1179.42" cy="564.311" r="14" fill="#e26f46" fill-rule="evenodd" fill-opacity="1" stroke="#000000" stroke-opacity="1" stroke-width="3.2"/>
<circle clip-path="url(#clip1502)" cx="1179.58" cy="562.464" r="14" fill="#e26f46" fill-rule="evenodd" fill-opacity="1" stroke="#000000" stroke-opacity="1" stroke-width="3.2"/>
<defs>
  <clipPath id="clip1503">
    <rect x="2160" y="129" width="73" height="1341"/>
  </clipPath>
</defs>
<polyline clip-path="url(#clip1503)" style="stroke:#0b0724; stroke-width:4; stroke-opacity:1; fill:none" points="
  2160.76,1385.52 2232.76,1385.52 
  "/>
<polyline clip-path="url(#clip1503)" style="stroke:#200b49; stroke-width:4; stroke-opacity:1; fill:none" points="
  2160.76,1301.75 2232.76,1301.75 
  "/>
<polyline clip-path="url(#clip1503)" style="stroke:#3c0964; stroke-width:4; stroke-opacity:1; fill:none" points="
  2160.76,1217.98 2232.76,1217.98 
  "/>
<polyline clip-path="url(#clip1503)" style="stroke:#57106d; stroke-width:4; stroke-opacity:1; fill:none" points="
  2160.76,1134.21 2232.76,1134.21 
  "/>
<polyline clip-path="url(#clip1503)" style="stroke:#70196e; stroke-width:4; stroke-opacity:1; fill:none" points="
  2160.76,1050.45 2232.76,1050.45 
  "/>
<polyline clip-path="url(#clip1503)" style="stroke:#8a2269; stroke-width:4; stroke-opacity:1; fill:none" points="
  2160.76,966.681 2232.76,966.681 
  "/>
<polyline clip-path="url(#clip1503)" style="stroke:#a32b61; stroke-width:4; stroke-opacity:1; fill:none" points="
  2160.76,882.914 2232.76,882.914 
  "/>
<polyline clip-path="url(#clip1503)" style="stroke:#bb3754; stroke-width:4; stroke-opacity:1; fill:none" points="
  2160.76,799.147 2232.76,799.147 
  "/>
<polyline clip-path="url(#clip1503)" style="stroke:#d04544; stroke-width:4; stroke-opacity:1; fill:none" points="
  2160.76,715.38 2232.76,715.38 
  "/>
<polyline clip-path="url(#clip1503)" style="stroke:#e25832; stroke-width:4; stroke-opacity:1; fill:none" points="
  2160.76,631.613 2232.76,631.613 
  "/>
<polyline clip-path="url(#clip1503)" style="stroke:#f0711e; stroke-width:4; stroke-opacity:1; fill:none" points="
  2160.76,547.846 2232.76,547.846 
  "/>
<polyline clip-path="url(#clip1503)" style="stroke:#f88c0a; stroke-width:4; stroke-opacity:1; fill:none" points="
  2160.76,464.079 2232.76,464.079 
  "/>
<polyline clip-path="url(#clip1503)" style="stroke:#fbaa0f; stroke-width:4; stroke-opacity:1; fill:none" points="
  2160.76,380.312 2232.76,380.312 
  "/>
<polyline clip-path="url(#clip1503)" style="stroke:#f8c933; stroke-width:4; stroke-opacity:1; fill:none" points="
  2160.76,296.545 2232.76,296.545 
  "/>
<polyline clip-path="url(#clip1503)" style="stroke:#f2e763; stroke-width:4; stroke-opacity:1; fill:none" points="
  2160.76,212.778 2232.76,212.778 
  "/>
<g clip-path="url(#clip1500)">
<text style="fill:#000000; fill-opacity:1; font-family:Arial,Helvetica Neue,Helvetica,sans-serif; font-size:48px; text-anchor:start;" transform="rotate(0, 2268.76, 1463.52)" x="2268.76" y="1463.52">-</text>
</g>
<g clip-path="url(#clip1500)">
<text style="fill:#000000; fill-opacity:1; font-family:Arial,Helvetica Neue,Helvetica,sans-serif; font-size:48px; text-anchor:start;" transform="rotate(0, 2296.87, 1463.52)" x="2296.87" y="1463.52">25.0</text>
</g>
<g clip-path="url(#clip1500)">
<text style="fill:#000000; fill-opacity:1; font-family:Arial,Helvetica Neue,Helvetica,sans-serif; font-size:48px; text-anchor:start;" transform="rotate(0, 2268.76, 1316.31)" x="2268.76" y="1316.31">-</text>
</g>
<g clip-path="url(#clip1500)">
<text style="fill:#000000; fill-opacity:1; font-family:Arial,Helvetica Neue,Helvetica,sans-serif; font-size:48px; text-anchor:start;" transform="rotate(0, 2296.87, 1316.31)" x="2296.87" y="1316.31">22.5</text>
</g>
<g clip-path="url(#clip1500)">
<text style="fill:#000000; fill-opacity:1; font-family:Arial,Helvetica Neue,Helvetica,sans-serif; font-size:48px; text-anchor:start;" transform="rotate(0, 2268.76, 1169.11)" x="2268.76" y="1169.11">-</text>
</g>
<g clip-path="url(#clip1500)">
<text style="fill:#000000; fill-opacity:1; font-family:Arial,Helvetica Neue,Helvetica,sans-serif; font-size:48px; text-anchor:start;" transform="rotate(0, 2296.87, 1169.11)" x="2296.87" y="1169.11">20.0</text>
</g>
<g clip-path="url(#clip1500)">
<text style="fill:#000000; fill-opacity:1; font-family:Arial,Helvetica Neue,Helvetica,sans-serif; font-size:48px; text-anchor:start;" transform="rotate(0, 2268.76, 1021.9)" x="2268.76" y="1021.9">-</text>
</g>
<g clip-path="url(#clip1500)">
<text style="fill:#000000; fill-opacity:1; font-family:Arial,Helvetica Neue,Helvetica,sans-serif; font-size:48px; text-anchor:start;" transform="rotate(0, 2296.87, 1021.9)" x="2296.87" y="1021.9">17.5</text>
</g>
<g clip-path="url(#clip1500)">
<text style="fill:#000000; fill-opacity:1; font-family:Arial,Helvetica Neue,Helvetica,sans-serif; font-size:48px; text-anchor:start;" transform="rotate(0, 2268.76, 874.699)" x="2268.76" y="874.699">-</text>
</g>
<g clip-path="url(#clip1500)">
<text style="fill:#000000; fill-opacity:1; font-family:Arial,Helvetica Neue,Helvetica,sans-serif; font-size:48px; text-anchor:start;" transform="rotate(0, 2296.87, 874.699)" x="2296.87" y="874.699">15.0</text>
</g>
<g clip-path="url(#clip1500)">
<text style="fill:#000000; fill-opacity:1; font-family:Arial,Helvetica Neue,Helvetica,sans-serif; font-size:48px; text-anchor:start;" transform="rotate(0, 2268.76, 727.494)" x="2268.76" y="727.494">-</text>
</g>
<g clip-path="url(#clip1500)">
<text style="fill:#000000; fill-opacity:1; font-family:Arial,Helvetica Neue,Helvetica,sans-serif; font-size:48px; text-anchor:start;" transform="rotate(0, 2296.87, 727.494)" x="2296.87" y="727.494">12.5</text>
</g>
<g clip-path="url(#clip1500)">
<text style="fill:#000000; fill-opacity:1; font-family:Arial,Helvetica Neue,Helvetica,sans-serif; font-size:48px; text-anchor:start;" transform="rotate(0, 2268.76, 580.29)" x="2268.76" y="580.29">-</text>
</g>
<g clip-path="url(#clip1500)">
<text style="fill:#000000; fill-opacity:1; font-family:Arial,Helvetica Neue,Helvetica,sans-serif; font-size:48px; text-anchor:start;" transform="rotate(0, 2296.87, 580.29)" x="2296.87" y="580.29">10.0</text>
</g>
<g clip-path="url(#clip1500)">
<text style="fill:#000000; fill-opacity:1; font-family:Arial,Helvetica Neue,Helvetica,sans-serif; font-size:48px; text-anchor:start;" transform="rotate(0, 2268.76, 433.086)" x="2268.76" y="433.086">-</text>
</g>
<g clip-path="url(#clip1500)">
<text style="fill:#000000; fill-opacity:1; font-family:Arial,Helvetica Neue,Helvetica,sans-serif; font-size:48px; text-anchor:start;" transform="rotate(0, 2296.87, 433.086)" x="2296.87" y="433.086">7.5</text>
</g>
<g clip-path="url(#clip1500)">
<text style="fill:#000000; fill-opacity:1; font-family:Arial,Helvetica Neue,Helvetica,sans-serif; font-size:48px; text-anchor:start;" transform="rotate(0, 2268.76, 285.881)" x="2268.76" y="285.881">-</text>
</g>
<g clip-path="url(#clip1500)">
<text style="fill:#000000; fill-opacity:1; font-family:Arial,Helvetica Neue,Helvetica,sans-serif; font-size:48px; text-anchor:start;" transform="rotate(0, 2296.87, 285.881)" x="2296.87" y="285.881">5.0</text>
</g>
<polyline clip-path="url(#clip1500)" style="stroke:#000000; stroke-width:4; stroke-opacity:1; fill:none" points="
  2232.76,1469.28 2232.76,1449.87 2256.76,1449.87 2232.76,1449.87 2232.76,1302.66 2256.76,1302.66 2232.76,1302.66 2232.76,1155.46 2256.76,1155.46 2232.76,1155.46 
  2232.76,1008.25 2256.76,1008.25 2232.76,1008.25 2232.76,861.048 2256.76,861.048 2232.76,861.048 2232.76,713.843 2256.76,713.843 2232.76,713.843 2232.76,566.639 
  2256.76,566.639 2232.76,566.639 2232.76,419.434 2256.76,419.434 2232.76,419.434 2232.76,272.23 2256.76,272.23 2232.76,272.23 2232.76,129.011 
  "/>
</svg>
