<?xml version="1.0" encoding="utf-8"?>
<svg xmlns="http://www.w3.org/2000/svg" xmlns:xlink="http://www.w3.org/1999/xlink" width="576" height="384" viewBox="0 0 2304 1536">
<defs>
  <clipPath id="clip860">
    <rect x="0" y="0" width="2304" height="1536"/>
  </clipPath>
</defs>
<path clip-path="url(#clip860)" d="
M0 1536 L2304 1536 L2304 0 L0 0  Z
  " fill="#ffffff" fill-rule="evenodd" fill-opacity="1"/>
<defs>
  <clipPath id="clip861">
    <rect x="460" y="0" width="1614" height="1536"/>
  </clipPath>
</defs>
<path clip-path="url(#clip860)" d="
M143.208 1423.09 L2256.76 1423.09 L2256.76 47.2441 L143.208 47.2441  Z
  " fill="#ffffff" fill-rule="evenodd" fill-opacity="1"/>
<defs>
  <clipPath id="clip862">
    <rect x="143" y="47" width="2115" height="1377"/>
  </clipPath>
</defs>
<polyline clip-path="url(#clip862)" style="stroke:#000000; stroke-width:2; stroke-opacity:0.1; fill:none" points="
  382.358,1423.09 382.358,47.2441 
  "/>
<polyline clip-path="url(#clip862)" style="stroke:#000000; stroke-width:2; stroke-opacity:0.1; fill:none" points="
  794.51,1423.09 794.51,47.2441 
  "/>
<polyline clip-path="url(#clip862)" style="stroke:#000000; stroke-width:2; stroke-opacity:0.1; fill:none" points="
  1206.66,1423.09 1206.66,47.2441 
  "/>
<polyline clip-path="url(#clip862)" style="stroke:#000000; stroke-width:2; stroke-opacity:0.1; fill:none" points="
  1618.81,1423.09 1618.81,47.2441 
  "/>
<polyline clip-path="url(#clip862)" style="stroke:#000000; stroke-width:2; stroke-opacity:0.1; fill:none" points="
  2030.97,1423.09 2030.97,47.2441 
  "/>
<polyline clip-path="url(#clip860)" style="stroke:#000000; stroke-width:4; stroke-opacity:1; fill:none" points="
  143.208,1423.09 2256.76,1423.09 
  "/>
<polyline clip-path="url(#clip860)" style="stroke:#000000; stroke-width:4; stroke-opacity:1; fill:none" points="
  382.358,1423.09 382.358,1406.58 
  "/>
<polyline clip-path="url(#clip860)" style="stroke:#000000; stroke-width:4; stroke-opacity:1; fill:none" points="
  794.51,1423.09 794.51,1406.58 
  "/>
<polyline clip-path="url(#clip860)" style="stroke:#000000; stroke-width:4; stroke-opacity:1; fill:none" points="
  1206.66,1423.09 1206.66,1406.58 
  "/>
<polyline clip-path="url(#clip860)" style="stroke:#000000; stroke-width:4; stroke-opacity:1; fill:none" points="
  1618.81,1423.09 1618.81,1406.58 
  "/>
<polyline clip-path="url(#clip860)" style="stroke:#000000; stroke-width:4; stroke-opacity:1; fill:none" points="
  2030.97,1423.09 2030.97,1406.58 
  "/>
<path clip-path="url(#clip860)" d="M 0 0 M353.77 1466.16 L383.446 1466.16 L383.446 1470.1 L353.77 1470.1 L353.77 1466.16 Z" fill="#000000" fill-rule="evenodd" fill-opacity="1" /><path clip-path="url(#clip860)" d="M 0 0 M401.363 1452.51 L389.557 1470.95 L401.363 1470.95 L401.363 1452.51 M400.136 1448.43 L406.015 1448.43 L406.015 1470.95 L410.946 1470.95 L410.946 1474.84 L406.015 1474.84 L406.015 1482.99 L401.363 1482.99 L401.363 1474.84 L385.761 1474.84 L385.761 1470.33 L400.136 1448.43 Z" fill="#000000" fill-rule="evenodd" fill-opacity="1" /><path clip-path="url(#clip860)" d="M 0 0 M766.964 1466.16 L796.64 1466.16 L796.64 1470.1 L766.964 1470.1 L766.964 1466.16 Z" fill="#000000" fill-rule="evenodd" fill-opacity="1" /><path clip-path="url(#clip860)" d="M 0 0 M805.737 1479.06 L822.056 1479.06 L822.056 1482.99 L800.112 1482.99 L800.112 1479.06 Q802.774 1476.3 807.357 1471.67 Q811.964 1467.02 813.144 1465.68 Q815.39 1463.15 816.269 1461.42 Q817.172 1459.66 817.172 1457.97 Q817.172 1455.21 815.228 1453.48 Q813.306 1451.74 810.205 1451.74 Q808.006 1451.74 805.552 1452.51 Q803.121 1453.27 800.344 1454.82 L800.344 1450.1 Q803.168 1448.96 805.621 1448.39 Q808.075 1447.81 810.112 1447.81 Q815.482 1447.81 818.677 1450.49 Q821.871 1453.18 821.871 1457.67 Q821.871 1459.8 821.061 1461.72 Q820.274 1463.62 818.167 1466.21 Q817.589 1466.88 814.487 1470.1 Q811.385 1473.29 805.737 1479.06 Z" fill="#000000" fill-rule="evenodd" fill-opacity="1" /><path clip-path="url(#clip860)" d="M 0 0 M1206.66 1451.51 Q1203.05 1451.51 1201.22 1455.08 Q1199.42 1458.62 1199.42 1465.75 Q1199.42 1472.85 1201.22 1476.42 Q1203.05 1479.96 1206.66 1479.96 Q1210.3 1479.96 1212.1 1476.42 Q1213.93 1472.85 1213.93 1465.75 Q1213.93 1458.62 1212.1 1455.08 Q1210.3 1451.51 1206.66 1451.51 M1206.66 1447.81 Q1212.47 1447.81 1215.53 1452.41 Q1218.61 1457 1218.61 1465.75 Q1218.61 1474.47 1215.53 1479.08 Q1212.47 1483.66 1206.66 1483.66 Q1200.85 1483.66 1197.77 1479.08 Q1194.72 1474.47 1194.72 1465.75 Q1194.72 1457 1197.77 1452.41 Q1200.85 1447.81 1206.66 1447.81 Z" fill="#000000" fill-rule="evenodd" fill-opacity="1" /><path clip-path="url(#clip860)" d="M 0 0 M1613.47 1479.06 L1629.79 1479.06 L1629.79 1482.99 L1607.84 1482.99 L1607.84 1479.06 Q1610.5 1476.3 1615.09 1471.67 Q1619.69 1467.02 1620.87 1465.68 Q1623.12 1463.15 1624 1461.42 Q1624.9 1459.66 1624.9 1457.97 Q1624.9 1455.21 1622.96 1453.48 Q1621.04 1451.74 1617.94 1451.74 Q1615.74 1451.74 1613.28 1452.51 Q1610.85 1453.27 1608.07 1454.82 L1608.07 1450.1 Q1610.9 1448.96 1613.35 1448.39 Q1615.81 1447.81 1617.84 1447.81 Q1623.21 1447.81 1626.41 1450.49 Q1629.6 1453.18 1629.6 1457.67 Q1629.6 1459.8 1628.79 1461.72 Q1628 1463.62 1625.9 1466.21 Q1625.32 1466.88 1622.22 1470.1 Q1619.12 1473.29 1613.47 1479.06 Z" fill="#000000" fill-rule="evenodd" fill-opacity="1" /><path clip-path="url(#clip860)" d="M 0 0 M2033.98 1452.51 L2022.17 1470.95 L2033.98 1470.95 L2033.98 1452.51 M2032.75 1448.43 L2038.63 1448.43 L2038.63 1470.95 L2043.56 1470.95 L2043.56 1474.84 L2038.63 1474.84 L2038.63 1482.99 L2033.98 1482.99 L2033.98 1474.84 L2018.37 1474.84 L2018.37 1470.33 L2032.75 1448.43 Z" fill="#000000" fill-rule="evenodd" fill-opacity="1" /><polyline clip-path="url(#clip862)" style="stroke:#000000; stroke-width:2; stroke-opacity:0.1; fill:none" points="
  143.208,1261.09 2256.76,1261.09 
  "/>
<polyline clip-path="url(#clip862)" style="stroke:#000000; stroke-width:2; stroke-opacity:0.1; fill:none" points="
  143.208,999.213 2256.76,999.213 
  "/>
<polyline clip-path="url(#clip862)" style="stroke:#000000; stroke-width:2; stroke-opacity:0.1; fill:none" points="
  143.208,737.337 2256.76,737.337 
  "/>
<polyline clip-path="url(#clip862)" style="stroke:#000000; stroke-width:2; stroke-opacity:0.1; fill:none" points="
  143.208,475.461 2256.76,475.461 
  "/>
<polyline clip-path="url(#clip862)" style="stroke:#000000; stroke-width:2; stroke-opacity:0.1; fill:none" points="
  143.208,213.584 2256.76,213.584 
  "/>
<polyline clip-path="url(#clip860)" style="stroke:#000000; stroke-width:4; stroke-opacity:1; fill:none" points="
  143.208,1423.09 143.208,47.2441 
  "/>
<polyline clip-path="url(#clip860)" style="stroke:#000000; stroke-width:4; stroke-opacity:1; fill:none" points="
  143.208,1261.09 168.57,1261.09 
  "/>
<polyline clip-path="url(#clip860)" style="stroke:#000000; stroke-width:4; stroke-opacity:1; fill:none" points="
  143.208,999.213 168.57,999.213 
  "/>
<polyline clip-path="url(#clip860)" style="stroke:#000000; stroke-width:4; stroke-opacity:1; fill:none" points="
  143.208,737.337 168.57,737.337 
  "/>
<polyline clip-path="url(#clip860)" style="stroke:#000000; stroke-width:4; stroke-opacity:1; fill:none" points="
  143.208,475.461 168.57,475.461 
  "/>
<polyline clip-path="url(#clip860)" style="stroke:#000000; stroke-width:4; stroke-opacity:1; fill:none" points="
  143.208,213.584 168.57,213.584 
  "/>
<path clip-path="url(#clip860)" d="M 0 0 M51.4721 1261.54 L81.1479 1261.54 L81.1479 1265.48 L51.4721 1265.48 L51.4721 1261.54 Z" fill="#000000" fill-rule="evenodd" fill-opacity="1" /><path clip-path="url(#clip860)" d="M 0 0 M99.0645 1247.88 L87.259 1266.33 L99.0645 1266.33 L99.0645 1247.88 M97.8376 1243.81 L103.717 1243.81 L103.717 1266.33 L108.648 1266.33 L108.648 1270.22 L103.717 1270.22 L103.717 1278.37 L99.0645 1278.37 L99.0645 1270.22 L83.4627 1270.22 L83.4627 1265.71 L97.8376 1243.81 Z" fill="#000000" fill-rule="evenodd" fill-opacity="1" /><path clip-path="url(#clip860)" d="M 0 0 M53.5554 999.665 L83.2312 999.665 L83.2312 1003.6 L53.5554 1003.6 L53.5554 999.665 Z" fill="#000000" fill-rule="evenodd" fill-opacity="1" /><path clip-path="url(#clip860)" d="M 0 0 M92.3284 1012.56 L108.648 1012.56 L108.648 1016.49 L86.7034 1016.49 L86.7034 1012.56 Q89.3654 1009.8 93.9488 1005.17 Q98.5552 1000.52 99.7358 999.179 Q101.981 996.656 102.861 994.92 Q103.764 993.16 103.764 991.47 Q103.764 988.716 101.819 986.98 Q99.8978 985.244 96.796 985.244 Q94.5969 985.244 92.1432 986.008 Q89.7127 986.771 86.9349 988.322 L86.9349 983.6 Q89.759 982.466 92.2126 981.887 Q94.6663 981.308 96.7034 981.308 Q102.074 981.308 105.268 983.994 Q108.463 986.679 108.463 991.17 Q108.463 993.299 107.652 995.22 Q106.865 997.119 104.759 999.711 Q104.18 1000.38 101.078 1003.6 Q97.9765 1006.79 92.3284 1012.56 Z" fill="#000000" fill-rule="evenodd" fill-opacity="1" /><path clip-path="url(#clip860)" d="M 0 0 M96.7034 723.136 Q93.0923 723.136 91.2636 726.701 Q89.458 730.242 89.458 737.372 Q89.458 744.478 91.2636 748.043 Q93.0923 751.585 96.7034 751.585 Q100.338 751.585 102.143 748.043 Q103.972 744.478 103.972 737.372 Q103.972 730.242 102.143 726.701 Q100.338 723.136 96.7034 723.136 M96.7034 719.432 Q102.514 719.432 105.569 724.039 Q108.648 728.622 108.648 737.372 Q108.648 746.099 105.569 750.705 Q102.514 755.288 96.7034 755.288 Q90.8932 755.288 87.8145 750.705 Q84.759 746.099 84.759 737.372 Q84.759 728.622 87.8145 724.039 Q90.8932 719.432 96.7034 719.432 Z" fill="#000000" fill-rule="evenodd" fill-opacity="1" /><path clip-path="url(#clip860)" d="M 0 0 M92.3284 488.805 L108.648 488.805 L108.648 492.741 L86.7034 492.741 L86.7034 488.805 Q89.3654 486.051 93.9488 481.421 Q98.5552 476.768 99.7358 475.426 Q101.981 472.903 102.861 471.167 Q103.764 469.407 103.764 467.718 Q103.764 464.963 101.819 463.227 Q99.8978 461.491 96.796 461.491 Q94.5969 461.491 92.1432 462.255 Q89.7127 463.019 86.9349 464.569 L86.9349 459.847 Q89.759 458.713 92.2126 458.134 Q94.6663 457.556 96.7034 457.556 Q102.074 457.556 105.268 460.241 Q108.463 462.926 108.463 467.417 Q108.463 469.546 107.652 471.468 Q106.865 473.366 104.759 475.958 Q104.18 476.63 101.078 479.847 Q97.9765 483.042 92.3284 488.805 Z" fill="#000000" fill-rule="evenodd" fill-opacity="1" /><path clip-path="url(#clip860)" d="M 0 0 M99.0645 200.378 L87.259 218.827 L99.0645 218.827 L99.0645 200.378 M97.8376 196.304 L103.717 196.304 L103.717 218.827 L108.648 218.827 L108.648 222.716 L103.717 222.716 L103.717 230.864 L99.0645 230.864 L99.0645 222.716 L83.4627 222.716 L83.4627 218.202 L97.8376 196.304 Z" fill="#000000" fill-rule="evenodd" fill-opacity="1" /><circle clip-path="url(#clip862)" cx="1857.62" cy="111.813" r="14" fill="#ff0000" fill-rule="evenodd" fill-opacity="1" stroke="#000000" stroke-opacity="1" stroke-width="3.072"/>
<circle clip-path="url(#clip862)" cx="2020.78" cy="103.463" r="14" fill="#ff0000" fill-rule="evenodd" fill-opacity="1" stroke="#000000" stroke-opacity="1" stroke-width="3.072"/>
<circle clip-path="url(#clip862)" cx="1834.8" cy="114.596" r="14" fill="#ff0000" fill-rule="evenodd" fill-opacity="1" stroke="#000000" stroke-opacity="1" stroke-width="3.072"/>
<circle clip-path="url(#clip862)" cx="1736.36" cy="206.439" r="14" fill="#ff0000" fill-rule="evenodd" fill-opacity="1" stroke="#000000" stroke-opacity="1" stroke-width="3.072"/>
<circle clip-path="url(#clip862)" cx="2046.03" cy="188.022" r="14" fill="#ff0000" fill-rule="evenodd" fill-opacity="1" stroke="#000000" stroke-opacity="1" stroke-width="3.072"/>
<circle clip-path="url(#clip862)" cx="2101.79" cy="651.74" r="14" fill="#ff0000" fill-rule="evenodd" fill-opacity="1" stroke="#000000" stroke-opacity="1" stroke-width="3.072"/>
<circle clip-path="url(#clip862)" cx="1495.71" cy="616.16" r="14" fill="#ff0000" fill-rule="evenodd" fill-opacity="1" stroke="#000000" stroke-opacity="1" stroke-width="3.072"/>
<circle clip-path="url(#clip862)" cx="1586.62" cy="486.306" r="14" fill="#ff0000" fill-rule="evenodd" fill-opacity="1" stroke="#000000" stroke-opacity="1" stroke-width="3.072"/>
<circle clip-path="url(#clip862)" cx="1538.6" cy="596.56" r="14" fill="#ff0000" fill-rule="evenodd" fill-opacity="1" stroke="#000000" stroke-opacity="1" stroke-width="3.072"/>
<circle clip-path="url(#clip862)" cx="1847.26" cy="451.389" r="14" fill="#ff0000" fill-rule="evenodd" fill-opacity="1" stroke="#000000" stroke-opacity="1" stroke-width="3.072"/>
<circle clip-path="url(#clip862)" cx="1911.44" cy="123.234" r="14" fill="#ff0000" fill-rule="evenodd" fill-opacity="1" stroke="#000000" stroke-opacity="1" stroke-width="3.072"/>
<circle clip-path="url(#clip862)" cx="1319.81" cy="413.235" r="14" fill="#ff0000" fill-rule="evenodd" fill-opacity="1" stroke="#000000" stroke-opacity="1" stroke-width="3.072"/>
<circle clip-path="url(#clip862)" cx="1371.3" cy="526.411" r="14" fill="#ff0000" fill-rule="evenodd" fill-opacity="1" stroke="#000000" stroke-opacity="1" stroke-width="3.072"/>
<circle clip-path="url(#clip862)" cx="2196.94" cy="664.904" r="14" fill="#ff0000" fill-rule="evenodd" fill-opacity="1" stroke="#000000" stroke-opacity="1" stroke-width="3.072"/>
<circle clip-path="url(#clip862)" cx="1909.4" cy="644.738" r="14" fill="#ff0000" fill-rule="evenodd" fill-opacity="1" stroke="#000000" stroke-opacity="1" stroke-width="3.072"/>
<circle clip-path="url(#clip862)" cx="1414.01" cy="379.514" r="14" fill="#ff0000" fill-rule="evenodd" fill-opacity="1" stroke="#000000" stroke-opacity="1" stroke-width="3.072"/>
<circle clip-path="url(#clip862)" cx="1565.67" cy="240.557" r="14" fill="#ff0000" fill-rule="evenodd" fill-opacity="1" stroke="#000000" stroke-opacity="1" stroke-width="3.072"/>
<circle clip-path="url(#clip862)" cx="1914.02" cy="495.657" r="14" fill="#ff0000" fill-rule="evenodd" fill-opacity="1" stroke="#000000" stroke-opacity="1" stroke-width="3.072"/>
<circle clip-path="url(#clip862)" cx="1362.23" cy="407.2" r="14" fill="#ff0000" fill-rule="evenodd" fill-opacity="1" stroke="#000000" stroke-opacity="1" stroke-width="3.072"/>
<circle clip-path="url(#clip862)" cx="2091.18" cy="156.242" r="14" fill="#ff0000" fill-rule="evenodd" fill-opacity="1" stroke="#000000" stroke-opacity="1" stroke-width="3.072"/>
<circle clip-path="url(#clip862)" cx="219.207" cy="1012.74" r="14" fill="#ff0000" fill-rule="evenodd" fill-opacity="1" stroke="#000000" stroke-opacity="1" stroke-width="3.072"/>
<circle clip-path="url(#clip862)" cx="823.897" cy="1155.5" r="14" fill="#ff0000" fill-rule="evenodd" fill-opacity="1" stroke="#000000" stroke-opacity="1" stroke-width="3.072"/>
<circle clip-path="url(#clip862)" cx="514.863" cy="1082.65" r="14" fill="#ff0000" fill-rule="evenodd" fill-opacity="1" stroke="#000000" stroke-opacity="1" stroke-width="3.072"/>
<circle clip-path="url(#clip862)" cx="456.782" cy="1031.42" r="14" fill="#ff0000" fill-rule="evenodd" fill-opacity="1" stroke="#000000" stroke-opacity="1" stroke-width="3.072"/>
<circle clip-path="url(#clip862)" cx="521.787" cy="1137.14" r="14" fill="#ff0000" fill-rule="evenodd" fill-opacity="1" stroke="#000000" stroke-opacity="1" stroke-width="3.072"/>
<circle clip-path="url(#clip862)" cx="315.854" cy="1343.59" r="14" fill="#ff0000" fill-rule="evenodd" fill-opacity="1" stroke="#000000" stroke-opacity="1" stroke-width="3.072"/>
<circle clip-path="url(#clip862)" cx="312.907" cy="1274.74" r="14" fill="#ff0000" fill-rule="evenodd" fill-opacity="1" stroke="#000000" stroke-opacity="1" stroke-width="3.072"/>
<circle clip-path="url(#clip862)" cx="439.092" cy="1052.59" r="14" fill="#ff0000" fill-rule="evenodd" fill-opacity="1" stroke="#000000" stroke-opacity="1" stroke-width="3.072"/>
<circle clip-path="url(#clip862)" cx="551.812" cy="1263.47" r="14" fill="#ff0000" fill-rule="evenodd" fill-opacity="1" stroke="#000000" stroke-opacity="1" stroke-width="3.072"/>
<circle clip-path="url(#clip862)" cx="639.518" cy="1178.71" r="14" fill="#ff0000" fill-rule="evenodd" fill-opacity="1" stroke="#000000" stroke-opacity="1" stroke-width="3.072"/>
<circle clip-path="url(#clip862)" cx="787.229" cy="1271.4" r="14" fill="#ff0000" fill-rule="evenodd" fill-opacity="1" stroke="#000000" stroke-opacity="1" stroke-width="3.072"/>
<circle clip-path="url(#clip862)" cx="654.445" cy="842.294" r="14" fill="#ff0000" fill-rule="evenodd" fill-opacity="1" stroke="#000000" stroke-opacity="1" stroke-width="3.072"/>
<circle clip-path="url(#clip862)" cx="418.054" cy="904.587" r="14" fill="#ff0000" fill-rule="evenodd" fill-opacity="1" stroke="#000000" stroke-opacity="1" stroke-width="3.072"/>
<circle clip-path="url(#clip862)" cx="728.533" cy="1333.52" r="14" fill="#ff0000" fill-rule="evenodd" fill-opacity="1" stroke="#000000" stroke-opacity="1" stroke-width="3.072"/>
<circle clip-path="url(#clip862)" cx="447.494" cy="1018.28" r="14" fill="#ff0000" fill-rule="evenodd" fill-opacity="1" stroke="#000000" stroke-opacity="1" stroke-width="3.072"/>
<circle clip-path="url(#clip862)" cx="443.894" cy="1313.83" r="14" fill="#ff0000" fill-rule="evenodd" fill-opacity="1" stroke="#000000" stroke-opacity="1" stroke-width="3.072"/>
<circle clip-path="url(#clip862)" cx="749.528" cy="935.267" r="14" fill="#ff0000" fill-rule="evenodd" fill-opacity="1" stroke="#000000" stroke-opacity="1" stroke-width="3.072"/>
<circle clip-path="url(#clip862)" cx="792.278" cy="879.855" r="14" fill="#ff0000" fill-rule="evenodd" fill-opacity="1" stroke="#000000" stroke-opacity="1" stroke-width="3.072"/>
<circle clip-path="url(#clip862)" cx="875.042" cy="1368.67" r="14" fill="#ff0000" fill-rule="evenodd" fill-opacity="1" stroke="#000000" stroke-opacity="1" stroke-width="3.072"/>
<circle clip-path="url(#clip862)" cx="210.486" cy="926.301" r="14" fill="#ff0000" fill-rule="evenodd" fill-opacity="1" stroke="#000000" stroke-opacity="1" stroke-width="3.072"/>
<circle clip-path="url(#clip862)" cx="1709.56" cy="1220.52" r="14" fill="#0000ff" fill-rule="evenodd" fill-opacity="1" stroke="#000000" stroke-opacity="1" stroke-width="3.072"/>
<circle clip-path="url(#clip862)" cx="1437.36" cy="1031.05" r="14" fill="#0000ff" fill-rule="evenodd" fill-opacity="1" stroke="#000000" stroke-opacity="1" stroke-width="3.072"/>
<circle clip-path="url(#clip862)" cx="1873.6" cy="976.175" r="14" fill="#0000ff" fill-rule="evenodd" fill-opacity="1" stroke="#000000" stroke-opacity="1" stroke-width="3.072"/>
<circle clip-path="url(#clip862)" cx="1546.22" cy="1092.49" r="14" fill="#0000ff" fill-rule="evenodd" fill-opacity="1" stroke="#000000" stroke-opacity="1" stroke-width="3.072"/>
<circle clip-path="url(#clip862)" cx="1772.2" cy="1113.59" r="14" fill="#0000ff" fill-rule="evenodd" fill-opacity="1" stroke="#000000" stroke-opacity="1" stroke-width="3.072"/>
<circle clip-path="url(#clip862)" cx="1396.9" cy="1031.1" r="14" fill="#0000ff" fill-rule="evenodd" fill-opacity="1" stroke="#000000" stroke-opacity="1" stroke-width="3.072"/>
<circle clip-path="url(#clip862)" cx="1796.64" cy="1278.52" r="14" fill="#0000ff" fill-rule="evenodd" fill-opacity="1" stroke="#000000" stroke-opacity="1" stroke-width="3.072"/>
<circle clip-path="url(#clip862)" cx="1555.92" cy="890.559" r="14" fill="#0000ff" fill-rule="evenodd" fill-opacity="1" stroke="#000000" stroke-opacity="1" stroke-width="3.072"/>
<circle clip-path="url(#clip862)" cx="1411.8" cy="831.049" r="14" fill="#0000ff" fill-rule="evenodd" fill-opacity="1" stroke="#000000" stroke-opacity="1" stroke-width="3.072"/>
<circle clip-path="url(#clip862)" cx="2083.44" cy="923.572" r="14" fill="#0000ff" fill-rule="evenodd" fill-opacity="1" stroke="#000000" stroke-opacity="1" stroke-width="3.072"/>
<circle clip-path="url(#clip862)" cx="1897.1" cy="1116.23" r="14" fill="#0000ff" fill-rule="evenodd" fill-opacity="1" stroke="#000000" stroke-opacity="1" stroke-width="3.072"/>
<circle clip-path="url(#clip862)" cx="1623.02" cy="1335.95" r="14" fill="#0000ff" fill-rule="evenodd" fill-opacity="1" stroke="#000000" stroke-opacity="1" stroke-width="3.072"/>
<circle clip-path="url(#clip862)" cx="1414.48" cy="963.214" r="14" fill="#0000ff" fill-rule="evenodd" fill-opacity="1" stroke="#000000" stroke-opacity="1" stroke-width="3.072"/>
<circle clip-path="url(#clip862)" cx="2035.8" cy="813.116" r="14" fill="#0000ff" fill-rule="evenodd" fill-opacity="1" stroke="#000000" stroke-opacity="1" stroke-width="3.072"/>
<circle clip-path="url(#clip862)" cx="2086.85" cy="1140.41" r="14" fill="#0000ff" fill-rule="evenodd" fill-opacity="1" stroke="#000000" stroke-opacity="1" stroke-width="3.072"/>
<circle clip-path="url(#clip862)" cx="1391.18" cy="1116.31" r="14" fill="#0000ff" fill-rule="evenodd" fill-opacity="1" stroke="#000000" stroke-opacity="1" stroke-width="3.072"/>
<circle clip-path="url(#clip862)" cx="1668.18" cy="891.822" r="14" fill="#0000ff" fill-rule="evenodd" fill-opacity="1" stroke="#000000" stroke-opacity="1" stroke-width="3.072"/>
<circle clip-path="url(#clip862)" cx="1616.26" cy="1062.86" r="14" fill="#0000ff" fill-rule="evenodd" fill-opacity="1" stroke="#000000" stroke-opacity="1" stroke-width="3.072"/>
<circle clip-path="url(#clip862)" cx="2003.39" cy="916.272" r="14" fill="#0000ff" fill-rule="evenodd" fill-opacity="1" stroke="#000000" stroke-opacity="1" stroke-width="3.072"/>
<circle clip-path="url(#clip862)" cx="1556" cy="1384.15" r="14" fill="#0000ff" fill-rule="evenodd" fill-opacity="1" stroke="#000000" stroke-opacity="1" stroke-width="3.072"/>
<circle clip-path="url(#clip862)" cx="504.746" cy="178.994" r="14" fill="#0000ff" fill-rule="evenodd" fill-opacity="1" stroke="#000000" stroke-opacity="1" stroke-width="3.072"/>
<circle clip-path="url(#clip862)" cx="299.525" cy="413.596" r="14" fill="#0000ff" fill-rule="evenodd" fill-opacity="1" stroke="#000000" stroke-opacity="1" stroke-width="3.072"/>
<circle clip-path="url(#clip862)" cx="455.18" cy="265.319" r="14" fill="#0000ff" fill-rule="evenodd" fill-opacity="1" stroke="#000000" stroke-opacity="1" stroke-width="3.072"/>
<circle clip-path="url(#clip862)" cx="356.657" cy="452.524" r="14" fill="#0000ff" fill-rule="evenodd" fill-opacity="1" stroke="#000000" stroke-opacity="1" stroke-width="3.072"/>
<circle clip-path="url(#clip862)" cx="995.778" cy="498.128" r="14" fill="#0000ff" fill-rule="evenodd" fill-opacity="1" stroke="#000000" stroke-opacity="1" stroke-width="3.072"/>
<circle clip-path="url(#clip862)" cx="239.155" cy="261.586" r="14" fill="#0000ff" fill-rule="evenodd" fill-opacity="1" stroke="#000000" stroke-opacity="1" stroke-width="3.072"/>
<circle clip-path="url(#clip862)" cx="203.025" cy="476.037" r="14" fill="#0000ff" fill-rule="evenodd" fill-opacity="1" stroke="#000000" stroke-opacity="1" stroke-width="3.072"/>
<circle clip-path="url(#clip862)" cx="699.867" cy="427.291" r="14" fill="#0000ff" fill-rule="evenodd" fill-opacity="1" stroke="#000000" stroke-opacity="1" stroke-width="3.072"/>
<circle clip-path="url(#clip862)" cx="731.639" cy="316.199" r="14" fill="#0000ff" fill-rule="evenodd" fill-opacity="1" stroke="#000000" stroke-opacity="1" stroke-width="3.072"/>
<circle clip-path="url(#clip862)" cx="457.875" cy="645.72" r="14" fill="#0000ff" fill-rule="evenodd" fill-opacity="1" stroke="#000000" stroke-opacity="1" stroke-width="3.072"/>
<circle clip-path="url(#clip862)" cx="640.625" cy="132.329" r="14" fill="#0000ff" fill-rule="evenodd" fill-opacity="1" stroke="#000000" stroke-opacity="1" stroke-width="3.072"/>
<circle clip-path="url(#clip862)" cx="556.463" cy="452.487" r="14" fill="#0000ff" fill-rule="evenodd" fill-opacity="1" stroke="#000000" stroke-opacity="1" stroke-width="3.072"/>
<circle clip-path="url(#clip862)" cx="311.983" cy="605.267" r="14" fill="#0000ff" fill-rule="evenodd" fill-opacity="1" stroke="#000000" stroke-opacity="1" stroke-width="3.072"/>
<circle clip-path="url(#clip862)" cx="776.345" cy="276.987" r="14" fill="#0000ff" fill-rule="evenodd" fill-opacity="1" stroke="#000000" stroke-opacity="1" stroke-width="3.072"/>
<circle clip-path="url(#clip862)" cx="1102.28" cy="589.098" r="14" fill="#0000ff" fill-rule="evenodd" fill-opacity="1" stroke="#000000" stroke-opacity="1" stroke-width="3.072"/>
<circle clip-path="url(#clip862)" cx="635.682" cy="623.949" r="14" fill="#0000ff" fill-rule="evenodd" fill-opacity="1" stroke="#000000" stroke-opacity="1" stroke-width="3.072"/>
<circle clip-path="url(#clip862)" cx="783.036" cy="395.006" r="14" fill="#0000ff" fill-rule="evenodd" fill-opacity="1" stroke="#000000" stroke-opacity="1" stroke-width="3.072"/>
<circle clip-path="url(#clip862)" cx="950.528" cy="86.1831" r="14" fill="#0000ff" fill-rule="evenodd" fill-opacity="1" stroke="#000000" stroke-opacity="1" stroke-width="3.072"/>
<circle clip-path="url(#clip862)" cx="561.743" cy="462.21" r="14" fill="#0000ff" fill-rule="evenodd" fill-opacity="1" stroke="#000000" stroke-opacity="1" stroke-width="3.072"/>
<circle clip-path="url(#clip862)" cx="345.76" cy="574.568" r="14" fill="#0000ff" fill-rule="evenodd" fill-opacity="1" stroke="#000000" stroke-opacity="1" stroke-width="3.072"/>
<path clip-path="url(#clip860)" d="
M1900.45 274.546 L2186.3 274.546 L2186.3 93.1056 L1900.45 93.1056  Z
  " fill="#ffffff" fill-rule="evenodd" fill-opacity="1"/>
<polyline clip-path="url(#clip860)" style="stroke:#000000; stroke-width:4; stroke-opacity:1; fill:none" points="
  1900.45,274.546 2186.3,274.546 2186.3,93.1056 1900.45,93.1056 1900.45,274.546 
  "/>
<circle clip-path="url(#clip860)" cx="1994.38" cy="153.586" r="23" fill="#ff0000" fill-rule="evenodd" fill-opacity="1" stroke="#000000" stroke-opacity="1" stroke-width="4.9152"/>
<path clip-path="url(#clip860)" d="M 0 0 M2102.16 173.273 Q2100.36 177.903 2098.64 179.315 Q2096.93 180.727 2094.06 180.727 L2090.66 180.727 L2090.66 177.162 L2093.16 177.162 Q2094.92 177.162 2095.89 176.328 Q2096.86 175.495 2098.04 172.393 L2098.8 170.449 L2088.32 144.94 L2092.83 144.94 L2100.93 165.217 L2109.04 144.94 L2113.55 144.94 L2102.16 173.273 Z" fill="#000000" fill-rule="evenodd" fill-opacity="1" /><path clip-path="url(#clip860)" d="M 0 0 M2119.43 166.93 L2127.07 166.93 L2127.07 140.565 L2118.76 142.231 L2118.76 137.972 L2127.02 136.306 L2131.7 136.306 L2131.7 166.93 L2139.34 166.93 L2139.34 170.866 L2119.43 170.866 L2119.43 166.93 Z" fill="#000000" fill-rule="evenodd" fill-opacity="1" /><circle clip-path="url(#clip860)" cx="1994.38" cy="214.066" r="23" fill="#0000ff" fill-rule="evenodd" fill-opacity="1" stroke="#000000" stroke-opacity="1" stroke-width="4.9152"/>
<path clip-path="url(#clip860)" d="M 0 0 M2102.16 233.753 Q2100.36 238.383 2098.64 239.795 Q2096.93 241.207 2094.06 241.207 L2090.66 241.207 L2090.66 237.642 L2093.16 237.642 Q2094.92 237.642 2095.89 236.808 Q2096.86 235.975 2098.04 232.873 L2098.8 230.929 L2088.32 205.42 L2092.83 205.42 L2100.93 225.697 L2109.04 205.42 L2113.55 205.42 L2102.16 233.753 Z" fill="#000000" fill-rule="evenodd" fill-opacity="1" /><path clip-path="url(#clip860)" d="M 0 0 M2122.65 227.41 L2138.97 227.41 L2138.97 231.346 L2117.02 231.346 L2117.02 227.41 Q2119.68 224.656 2124.27 220.026 Q2128.87 215.373 2130.05 214.031 Q2132.3 211.508 2133.18 209.772 Q2134.08 208.012 2134.08 206.323 Q2134.08 203.568 2132.14 201.832 Q2130.22 200.096 2127.11 200.096 Q2124.92 200.096 2122.46 200.86 Q2120.03 201.623 2117.25 203.174 L2117.25 198.452 Q2120.08 197.318 2122.53 196.739 Q2124.98 196.161 2127.02 196.161 Q2132.39 196.161 2135.59 198.846 Q2138.78 201.531 2138.78 206.022 Q2138.78 208.151 2137.97 210.073 Q2137.18 211.971 2135.08 214.563 Q2134.5 215.235 2131.4 218.452 Q2128.29 221.647 2122.65 227.41 Z" fill="#000000" fill-rule="evenodd" fill-opacity="1" /></svg>
