<?xml version="1.0" encoding="utf-8"?>
<svg xmlns="http://www.w3.org/2000/svg" xmlns:xlink="http://www.w3.org/1999/xlink" width="576" height="384" viewBox="0 0 2304 1536">
<defs>
  <clipPath id="clip730">
    <rect x="0" y="0" width="2304" height="1536"/>
  </clipPath>
</defs>
<path clip-path="url(#clip730)" d="
M0 1536 L2304 1536 L2304 0 L0 0  Z
  " fill="#ffffff" fill-rule="evenodd" fill-opacity="1"/>
<defs>
  <clipPath id="clip731">
    <rect x="460" y="0" width="1614" height="1536"/>
  </clipPath>
</defs>
<path clip-path="url(#clip730)" d="
M160.638 1423.09 L2256.76 1423.09 L2256.76 47.2441 L160.638 47.2441  Z
  " fill="#ffffff" fill-rule="evenodd" fill-opacity="1"/>
<defs>
  <clipPath id="clip732">
    <rect x="160" y="47" width="2097" height="1377"/>
  </clipPath>
</defs>
<polyline clip-path="url(#clip732)" style="stroke:#000000; stroke-width:2; stroke-opacity:0.1; fill:none" points="
  217.63,1423.09 217.63,47.2441 
  "/>
<polyline clip-path="url(#clip732)" style="stroke:#000000; stroke-width:2; stroke-opacity:0.1; fill:none" points="
  509.121,1423.09 509.121,47.2441 
  "/>
<polyline clip-path="url(#clip732)" style="stroke:#000000; stroke-width:2; stroke-opacity:0.1; fill:none" points="
  800.611,1423.09 800.611,47.2441 
  "/>
<polyline clip-path="url(#clip732)" style="stroke:#000000; stroke-width:2; stroke-opacity:0.1; fill:none" points="
  1092.1,1423.09 1092.1,47.2441 
  "/>
<polyline clip-path="url(#clip732)" style="stroke:#000000; stroke-width:2; stroke-opacity:0.1; fill:none" points="
  1383.59,1423.09 1383.59,47.2441 
  "/>
<polyline clip-path="url(#clip732)" style="stroke:#000000; stroke-width:2; stroke-opacity:0.1; fill:none" points="
  1675.08,1423.09 1675.08,47.2441 
  "/>
<polyline clip-path="url(#clip732)" style="stroke:#000000; stroke-width:2; stroke-opacity:0.1; fill:none" points="
  1966.57,1423.09 1966.57,47.2441 
  "/>
<polyline clip-path="url(#clip730)" style="stroke:#000000; stroke-width:4; stroke-opacity:1; fill:none" points="
  160.638,1423.09 2256.76,1423.09 
  "/>
<polyline clip-path="url(#clip730)" style="stroke:#000000; stroke-width:4; stroke-opacity:1; fill:none" points="
  217.63,1423.09 217.63,1406.58 
  "/>
<polyline clip-path="url(#clip730)" style="stroke:#000000; stroke-width:4; stroke-opacity:1; fill:none" points="
  509.121,1423.09 509.121,1406.58 
  "/>
<polyline clip-path="url(#clip730)" style="stroke:#000000; stroke-width:4; stroke-opacity:1; fill:none" points="
  800.611,1423.09 800.611,1406.58 
  "/>
<polyline clip-path="url(#clip730)" style="stroke:#000000; stroke-width:4; stroke-opacity:1; fill:none" points="
  1092.1,1423.09 1092.1,1406.58 
  "/>
<polyline clip-path="url(#clip730)" style="stroke:#000000; stroke-width:4; stroke-opacity:1; fill:none" points="
  1383.59,1423.09 1383.59,1406.58 
  "/>
<polyline clip-path="url(#clip730)" style="stroke:#000000; stroke-width:4; stroke-opacity:1; fill:none" points="
  1675.08,1423.09 1675.08,1406.58 
  "/>
<polyline clip-path="url(#clip730)" style="stroke:#000000; stroke-width:4; stroke-opacity:1; fill:none" points="
  1966.57,1423.09 1966.57,1406.58 
  "/>
<path clip-path="url(#clip730)" d="M 0 0 M186.462 1451.51 Q182.85 1451.51 181.022 1455.08 Q179.216 1458.62 179.216 1465.75 Q179.216 1472.85 181.022 1476.42 Q182.85 1479.96 186.462 1479.96 Q190.096 1479.96 191.901 1476.42 Q193.73 1472.85 193.73 1465.75 Q193.73 1458.62 191.901 1455.08 Q190.096 1451.51 186.462 1451.51 M186.462 1447.81 Q192.272 1447.81 195.327 1452.41 Q198.406 1457 198.406 1465.75 Q198.406 1474.47 195.327 1479.08 Q192.272 1483.66 186.462 1483.66 Q180.651 1483.66 177.573 1479.08 Q174.517 1474.47 174.517 1465.75 Q174.517 1457 177.573 1452.41 Q180.651 1447.81 186.462 1447.81 Z" fill="#000000" fill-rule="evenodd" fill-opacity="1" /><path clip-path="url(#clip730)" d="M 0 0 M203.475 1477.11 L208.36 1477.11 L208.36 1482.99 L203.475 1482.99 L203.475 1477.11 Z" fill="#000000" fill-rule="evenodd" fill-opacity="1" /><path clip-path="url(#clip730)" d="M 0 0 M227.596 1464.36 Q230.952 1465.08 232.827 1467.34 Q234.725 1469.61 234.725 1472.95 Q234.725 1478.06 231.207 1480.86 Q227.688 1483.66 221.207 1483.66 Q219.031 1483.66 216.716 1483.22 Q214.424 1482.81 211.971 1481.95 L211.971 1477.44 Q213.915 1478.57 216.23 1479.15 Q218.545 1479.73 221.068 1479.73 Q225.466 1479.73 227.758 1477.99 Q230.072 1476.26 230.072 1472.95 Q230.072 1469.89 227.92 1468.18 Q225.79 1466.44 221.971 1466.44 L217.943 1466.44 L217.943 1462.6 L222.156 1462.6 Q225.605 1462.6 227.434 1461.23 Q229.262 1459.84 229.262 1457.25 Q229.262 1454.59 227.364 1453.18 Q225.489 1451.74 221.971 1451.74 Q220.049 1451.74 217.85 1452.16 Q215.651 1452.58 213.012 1453.45 L213.012 1449.29 Q215.674 1448.55 217.989 1448.18 Q220.327 1447.81 222.387 1447.81 Q227.711 1447.81 230.813 1450.24 Q233.915 1452.64 233.915 1456.77 Q233.915 1459.64 232.271 1461.63 Q230.628 1463.59 227.596 1464.36 Z" fill="#000000" fill-rule="evenodd" fill-opacity="1" /><path clip-path="url(#clip730)" d="M 0 0 M239.841 1448.43 L258.197 1448.43 L258.197 1452.37 L244.123 1452.37 L244.123 1460.84 Q245.142 1460.49 246.16 1460.33 Q247.179 1460.14 248.197 1460.14 Q253.984 1460.14 257.364 1463.32 Q260.744 1466.49 260.744 1471.9 Q260.744 1477.48 257.271 1480.58 Q253.799 1483.66 247.48 1483.66 Q245.304 1483.66 243.035 1483.29 Q240.79 1482.92 238.383 1482.18 L238.383 1477.48 Q240.466 1478.62 242.688 1479.17 Q244.91 1479.73 247.387 1479.73 Q251.392 1479.73 253.73 1477.62 Q256.068 1475.52 256.068 1471.9 Q256.068 1468.29 253.73 1466.19 Q251.392 1464.08 247.387 1464.08 Q245.512 1464.08 243.637 1464.5 Q241.785 1464.91 239.841 1465.79 L239.841 1448.43 Z" fill="#000000" fill-rule="evenodd" fill-opacity="1" /><path clip-path="url(#clip730)" d="M 0 0 M476.887 1451.51 Q473.276 1451.51 471.447 1455.08 Q469.642 1458.62 469.642 1465.75 Q469.642 1472.85 471.447 1476.42 Q473.276 1479.96 476.887 1479.96 Q480.521 1479.96 482.327 1476.42 Q484.155 1472.85 484.155 1465.75 Q484.155 1458.62 482.327 1455.08 Q480.521 1451.51 476.887 1451.51 M476.887 1447.81 Q482.697 1447.81 485.753 1452.41 Q488.831 1457 488.831 1465.75 Q488.831 1474.47 485.753 1479.08 Q482.697 1483.66 476.887 1483.66 Q471.077 1483.66 467.998 1479.08 Q464.943 1474.47 464.943 1465.75 Q464.943 1457 467.998 1452.41 Q471.077 1447.81 476.887 1447.81 Z" fill="#000000" fill-rule="evenodd" fill-opacity="1" /><path clip-path="url(#clip730)" d="M 0 0 M493.901 1477.11 L498.785 1477.11 L498.785 1482.99 L493.901 1482.99 L493.901 1477.11 Z" fill="#000000" fill-rule="evenodd" fill-opacity="1" /><path clip-path="url(#clip730)" d="M 0 0 M516.702 1452.51 L504.896 1470.95 L516.702 1470.95 L516.702 1452.51 M515.475 1448.43 L521.354 1448.43 L521.354 1470.95 L526.285 1470.95 L526.285 1474.84 L521.354 1474.84 L521.354 1482.99 L516.702 1482.99 L516.702 1474.84 L501.1 1474.84 L501.1 1470.33 L515.475 1448.43 Z" fill="#000000" fill-rule="evenodd" fill-opacity="1" /><path clip-path="url(#clip730)" d="M 0 0 M541.354 1451.51 Q537.743 1451.51 535.914 1455.08 Q534.109 1458.62 534.109 1465.75 Q534.109 1472.85 535.914 1476.42 Q537.743 1479.96 541.354 1479.96 Q544.988 1479.96 546.794 1476.42 Q548.623 1472.85 548.623 1465.75 Q548.623 1458.62 546.794 1455.08 Q544.988 1451.51 541.354 1451.51 M541.354 1447.81 Q547.164 1447.81 550.22 1452.41 Q553.299 1457 553.299 1465.75 Q553.299 1474.47 550.22 1479.08 Q547.164 1483.66 541.354 1483.66 Q535.544 1483.66 532.465 1479.08 Q529.41 1474.47 529.41 1465.75 Q529.41 1457 532.465 1452.41 Q535.544 1447.81 541.354 1447.81 Z" fill="#000000" fill-rule="evenodd" fill-opacity="1" /><path clip-path="url(#clip730)" d="M 0 0 M768.875 1451.51 Q765.264 1451.51 763.435 1455.08 Q761.63 1458.62 761.63 1465.75 Q761.63 1472.85 763.435 1476.42 Q765.264 1479.96 768.875 1479.96 Q772.509 1479.96 774.315 1476.42 Q776.143 1472.85 776.143 1465.75 Q776.143 1458.62 774.315 1455.08 Q772.509 1451.51 768.875 1451.51 M768.875 1447.81 Q774.685 1447.81 777.741 1452.41 Q780.819 1457 780.819 1465.75 Q780.819 1474.47 777.741 1479.08 Q774.685 1483.66 768.875 1483.66 Q763.065 1483.66 759.986 1479.08 Q756.93 1474.47 756.93 1465.75 Q756.93 1457 759.986 1452.41 Q763.065 1447.81 768.875 1447.81 Z" fill="#000000" fill-rule="evenodd" fill-opacity="1" /><path clip-path="url(#clip730)" d="M 0 0 M785.889 1477.11 L790.773 1477.11 L790.773 1482.99 L785.889 1482.99 L785.889 1477.11 Z" fill="#000000" fill-rule="evenodd" fill-opacity="1" /><path clip-path="url(#clip730)" d="M 0 0 M808.689 1452.51 L796.884 1470.95 L808.689 1470.95 L808.689 1452.51 M807.463 1448.43 L813.342 1448.43 L813.342 1470.95 L818.273 1470.95 L818.273 1474.84 L813.342 1474.84 L813.342 1482.99 L808.689 1482.99 L808.689 1474.84 L793.088 1474.84 L793.088 1470.33 L807.463 1448.43 Z" fill="#000000" fill-rule="evenodd" fill-opacity="1" /><path clip-path="url(#clip730)" d="M 0 0 M823.388 1448.43 L841.745 1448.43 L841.745 1452.37 L827.671 1452.37 L827.671 1460.84 Q828.689 1460.49 829.708 1460.33 Q830.726 1460.14 831.745 1460.14 Q837.532 1460.14 840.911 1463.32 Q844.291 1466.49 844.291 1471.9 Q844.291 1477.48 840.819 1480.58 Q837.347 1483.66 831.027 1483.66 Q828.851 1483.66 826.583 1483.29 Q824.337 1482.92 821.93 1482.18 L821.93 1477.48 Q824.013 1478.62 826.236 1479.17 Q828.458 1479.73 830.935 1479.73 Q834.939 1479.73 837.277 1477.62 Q839.615 1475.52 839.615 1471.9 Q839.615 1468.29 837.277 1466.19 Q834.939 1464.08 830.935 1464.08 Q829.06 1464.08 827.185 1464.5 Q825.333 1464.91 823.388 1465.79 L823.388 1448.43 Z" fill="#000000" fill-rule="evenodd" fill-opacity="1" /><path clip-path="url(#clip730)" d="M 0 0 M1060.61 1451.51 Q1057 1451.51 1055.17 1455.08 Q1053.36 1458.62 1053.36 1465.75 Q1053.36 1472.85 1055.17 1476.42 Q1057 1479.96 1060.61 1479.96 Q1064.24 1479.96 1066.05 1476.42 Q1067.88 1472.85 1067.88 1465.75 Q1067.88 1458.62 1066.05 1455.08 Q1064.24 1451.51 1060.61 1451.51 M1060.61 1447.81 Q1066.42 1447.81 1069.47 1452.41 Q1072.55 1457 1072.55 1465.75 Q1072.55 1474.47 1069.47 1479.08 Q1066.42 1483.66 1060.61 1483.66 Q1054.8 1483.66 1051.72 1479.08 Q1048.66 1474.47 1048.66 1465.75 Q1048.66 1457 1051.72 1452.41 Q1054.8 1447.81 1060.61 1447.81 Z" fill="#000000" fill-rule="evenodd" fill-opacity="1" /><path clip-path="url(#clip730)" d="M 0 0 M1077.62 1477.11 L1082.51 1477.11 L1082.51 1482.99 L1077.62 1482.99 L1077.62 1477.11 Z" fill="#000000" fill-rule="evenodd" fill-opacity="1" /><path clip-path="url(#clip730)" d="M 0 0 M1087.62 1448.43 L1105.98 1448.43 L1105.98 1452.37 L1091.9 1452.37 L1091.9 1460.84 Q1092.92 1460.49 1093.94 1460.33 Q1094.96 1460.14 1095.98 1460.14 Q1101.77 1460.14 1105.14 1463.32 Q1108.52 1466.49 1108.52 1471.9 Q1108.52 1477.48 1105.05 1480.58 Q1101.58 1483.66 1095.26 1483.66 Q1093.08 1483.66 1090.82 1483.29 Q1088.57 1482.92 1086.16 1482.18 L1086.16 1477.48 Q1088.25 1478.62 1090.47 1479.17 Q1092.69 1479.73 1095.17 1479.73 Q1099.17 1479.73 1101.51 1477.62 Q1103.85 1475.52 1103.85 1471.9 Q1103.85 1468.29 1101.51 1466.19 Q1099.17 1464.08 1095.17 1464.08 Q1093.29 1464.08 1091.42 1464.5 Q1089.57 1464.91 1087.62 1465.79 L1087.62 1448.43 Z" fill="#000000" fill-rule="evenodd" fill-opacity="1" /><path clip-path="url(#clip730)" d="M 0 0 M1123.59 1451.51 Q1119.98 1451.51 1118.15 1455.08 Q1116.35 1458.62 1116.35 1465.75 Q1116.35 1472.85 1118.15 1476.42 Q1119.98 1479.96 1123.59 1479.96 Q1127.23 1479.96 1129.03 1476.42 Q1130.86 1472.85 1130.86 1465.75 Q1130.86 1458.62 1129.03 1455.08 Q1127.23 1451.51 1123.59 1451.51 M1123.59 1447.81 Q1129.4 1447.81 1132.46 1452.41 Q1135.54 1457 1135.54 1465.75 Q1135.54 1474.47 1132.46 1479.08 Q1129.4 1483.66 1123.59 1483.66 Q1117.78 1483.66 1114.71 1479.08 Q1111.65 1474.47 1111.65 1465.75 Q1111.65 1457 1114.71 1452.41 Q1117.78 1447.81 1123.59 1447.81 Z" fill="#000000" fill-rule="evenodd" fill-opacity="1" /><path clip-path="url(#clip730)" d="M 0 0 M1352.6 1451.51 Q1348.98 1451.51 1347.16 1455.08 Q1345.35 1458.62 1345.35 1465.75 Q1345.35 1472.85 1347.16 1476.42 Q1348.98 1479.96 1352.6 1479.96 Q1356.23 1479.96 1358.04 1476.42 Q1359.86 1472.85 1359.86 1465.75 Q1359.86 1458.62 1358.04 1455.08 Q1356.23 1451.51 1352.6 1451.51 M1352.6 1447.81 Q1358.41 1447.81 1361.46 1452.41 Q1364.54 1457 1364.54 1465.75 Q1364.54 1474.47 1361.46 1479.08 Q1358.41 1483.66 1352.6 1483.66 Q1346.79 1483.66 1343.71 1479.08 Q1340.65 1474.47 1340.65 1465.75 Q1340.65 1457 1343.71 1452.41 Q1346.79 1447.81 1352.6 1447.81 Z" fill="#000000" fill-rule="evenodd" fill-opacity="1" /><path clip-path="url(#clip730)" d="M 0 0 M1369.61 1477.11 L1374.49 1477.11 L1374.49 1482.99 L1369.61 1482.99 L1369.61 1477.11 Z" fill="#000000" fill-rule="evenodd" fill-opacity="1" /><path clip-path="url(#clip730)" d="M 0 0 M1379.61 1448.43 L1397.97 1448.43 L1397.97 1452.37 L1383.89 1452.37 L1383.89 1460.84 Q1384.91 1460.49 1385.93 1460.33 Q1386.95 1460.14 1387.97 1460.14 Q1393.75 1460.14 1397.13 1463.32 Q1400.51 1466.49 1400.51 1471.9 Q1400.51 1477.48 1397.04 1480.58 Q1393.57 1483.66 1387.25 1483.66 Q1385.07 1483.66 1382.8 1483.29 Q1380.56 1482.92 1378.15 1482.18 L1378.15 1477.48 Q1380.23 1478.62 1382.46 1479.17 Q1384.68 1479.73 1387.16 1479.73 Q1391.16 1479.73 1393.5 1477.62 Q1395.84 1475.52 1395.84 1471.9 Q1395.84 1468.29 1393.5 1466.19 Q1391.16 1464.08 1387.16 1464.08 Q1385.28 1464.08 1383.41 1464.5 Q1381.55 1464.91 1379.61 1465.79 L1379.61 1448.43 Z" fill="#000000" fill-rule="evenodd" fill-opacity="1" /><path clip-path="url(#clip730)" d="M 0 0 M1405.63 1448.43 L1423.98 1448.43 L1423.98 1452.37 L1409.91 1452.37 L1409.91 1460.84 Q1410.93 1460.49 1411.95 1460.33 Q1412.97 1460.14 1413.98 1460.14 Q1419.77 1460.14 1423.15 1463.32 Q1426.53 1466.49 1426.53 1471.9 Q1426.53 1477.48 1423.06 1480.58 Q1419.59 1483.66 1413.27 1483.66 Q1411.09 1483.66 1408.82 1483.29 Q1406.58 1482.92 1404.17 1482.18 L1404.17 1477.48 Q1406.25 1478.62 1408.48 1479.17 Q1410.7 1479.73 1413.17 1479.73 Q1417.18 1479.73 1419.52 1477.62 Q1421.85 1475.52 1421.85 1471.9 Q1421.85 1468.29 1419.52 1466.19 Q1417.18 1464.08 1413.17 1464.08 Q1411.3 1464.08 1409.42 1464.5 Q1407.57 1464.91 1405.63 1465.79 L1405.63 1448.43 Z" fill="#000000" fill-rule="evenodd" fill-opacity="1" /><path clip-path="url(#clip730)" d="M 0 0 M1643.01 1451.51 Q1639.4 1451.51 1637.57 1455.08 Q1635.76 1458.62 1635.76 1465.75 Q1635.76 1472.85 1637.57 1476.42 Q1639.4 1479.96 1643.01 1479.96 Q1646.64 1479.96 1648.45 1476.42 Q1650.28 1472.85 1650.28 1465.75 Q1650.28 1458.62 1648.45 1455.08 Q1646.64 1451.51 1643.01 1451.51 M1643.01 1447.81 Q1648.82 1447.81 1651.88 1452.41 Q1654.95 1457 1654.95 1465.75 Q1654.95 1474.47 1651.88 1479.08 Q1648.82 1483.66 1643.01 1483.66 Q1637.2 1483.66 1634.12 1479.08 Q1631.07 1474.47 1631.07 1465.75 Q1631.07 1457 1634.12 1452.41 Q1637.2 1447.81 1643.01 1447.81 Z" fill="#000000" fill-rule="evenodd" fill-opacity="1" /><path clip-path="url(#clip730)" d="M 0 0 M1660.02 1477.11 L1664.91 1477.11 L1664.91 1482.99 L1660.02 1482.99 L1660.02 1477.11 Z" fill="#000000" fill-rule="evenodd" fill-opacity="1" /><path clip-path="url(#clip730)" d="M 0 0 M1680.56 1463.85 Q1677.41 1463.85 1675.56 1466 Q1673.73 1468.15 1673.73 1471.9 Q1673.73 1475.63 1675.56 1477.81 Q1677.41 1479.96 1680.56 1479.96 Q1683.7 1479.96 1685.53 1477.81 Q1687.38 1475.63 1687.38 1471.9 Q1687.38 1468.15 1685.53 1466 Q1683.7 1463.85 1680.56 1463.85 M1689.84 1449.2 L1689.84 1453.45 Q1688.08 1452.62 1686.27 1452.18 Q1684.49 1451.74 1682.73 1451.74 Q1678.1 1451.74 1675.65 1454.87 Q1673.22 1457.99 1672.87 1464.31 Q1674.24 1462.3 1676.3 1461.23 Q1678.36 1460.14 1680.83 1460.14 Q1686.04 1460.14 1689.05 1463.32 Q1692.08 1466.46 1692.08 1471.9 Q1692.08 1477.23 1688.94 1480.45 Q1685.79 1483.66 1680.56 1483.66 Q1674.56 1483.66 1671.39 1479.08 Q1668.22 1474.47 1668.22 1465.75 Q1668.22 1457.55 1672.11 1452.69 Q1676 1447.81 1682.55 1447.81 Q1684.31 1447.81 1686.09 1448.15 Q1687.89 1448.5 1689.84 1449.2 Z" fill="#000000" fill-rule="evenodd" fill-opacity="1" /><path clip-path="url(#clip730)" d="M 0 0 M1707.15 1451.51 Q1703.54 1451.51 1701.71 1455.08 Q1699.91 1458.62 1699.91 1465.75 Q1699.91 1472.85 1701.71 1476.42 Q1703.54 1479.96 1707.15 1479.96 Q1710.79 1479.96 1712.59 1476.42 Q1714.42 1472.85 1714.42 1465.75 Q1714.42 1458.62 1712.59 1455.08 Q1710.79 1451.51 1707.15 1451.51 M1707.15 1447.81 Q1712.96 1447.81 1716.02 1452.41 Q1719.1 1457 1719.1 1465.75 Q1719.1 1474.47 1716.02 1479.08 Q1712.96 1483.66 1707.15 1483.66 Q1701.34 1483.66 1698.26 1479.08 Q1695.21 1474.47 1695.21 1465.75 Q1695.21 1457 1698.26 1452.41 Q1701.34 1447.81 1707.15 1447.81 Z" fill="#000000" fill-rule="evenodd" fill-opacity="1" /><path clip-path="url(#clip730)" d="M 0 0 M1935 1451.51 Q1931.39 1451.51 1929.56 1455.08 Q1927.75 1458.62 1927.75 1465.75 Q1927.75 1472.85 1929.56 1476.42 Q1931.39 1479.96 1935 1479.96 Q1938.63 1479.96 1940.44 1476.42 Q1942.27 1472.85 1942.27 1465.75 Q1942.27 1458.62 1940.44 1455.08 Q1938.63 1451.51 1935 1451.51 M1935 1447.81 Q1940.81 1447.81 1943.86 1452.41 Q1946.94 1457 1946.94 1465.75 Q1946.94 1474.47 1943.86 1479.08 Q1940.81 1483.66 1935 1483.66 Q1929.19 1483.66 1926.11 1479.08 Q1923.05 1474.47 1923.05 1465.75 Q1923.05 1457 1926.11 1452.41 Q1929.19 1447.81 1935 1447.81 Z" fill="#000000" fill-rule="evenodd" fill-opacity="1" /><path clip-path="url(#clip730)" d="M 0 0 M1952.01 1477.11 L1956.9 1477.11 L1956.9 1482.99 L1952.01 1482.99 L1952.01 1477.11 Z" fill="#000000" fill-rule="evenodd" fill-opacity="1" /><path clip-path="url(#clip730)" d="M 0 0 M1972.54 1463.85 Q1969.4 1463.85 1967.54 1466 Q1965.72 1468.15 1965.72 1471.9 Q1965.72 1475.63 1967.54 1477.81 Q1969.4 1479.96 1972.54 1479.96 Q1975.69 1479.96 1977.52 1477.81 Q1979.37 1475.63 1979.37 1471.9 Q1979.37 1468.15 1977.52 1466 Q1975.69 1463.85 1972.54 1463.85 M1981.83 1449.2 L1981.83 1453.45 Q1980.07 1452.62 1978.26 1452.18 Q1976.48 1451.74 1974.72 1451.74 Q1970.09 1451.74 1967.64 1454.87 Q1965.21 1457.99 1964.86 1464.31 Q1966.22 1462.3 1968.28 1461.23 Q1970.34 1460.14 1972.82 1460.14 Q1978.03 1460.14 1981.04 1463.32 Q1984.07 1466.46 1984.07 1471.9 Q1984.07 1477.23 1980.92 1480.45 Q1977.78 1483.66 1972.54 1483.66 Q1966.55 1483.66 1963.38 1479.08 Q1960.21 1474.47 1960.21 1465.75 Q1960.21 1457.55 1964.09 1452.69 Q1967.98 1447.81 1974.53 1447.81 Q1976.29 1447.81 1978.08 1448.15 Q1979.88 1448.5 1981.83 1449.2 Z" fill="#000000" fill-rule="evenodd" fill-opacity="1" /><path clip-path="url(#clip730)" d="M 0 0 M1989.19 1448.43 L2007.54 1448.43 L2007.54 1452.37 L1993.47 1452.37 L1993.47 1460.84 Q1994.49 1460.49 1995.51 1460.33 Q1996.53 1460.14 1997.54 1460.14 Q2003.33 1460.14 2006.71 1463.32 Q2010.09 1466.49 2010.09 1471.9 Q2010.09 1477.48 2006.62 1480.58 Q2003.15 1483.66 1996.83 1483.66 Q1994.65 1483.66 1992.38 1483.29 Q1990.14 1482.92 1987.73 1482.18 L1987.73 1477.48 Q1989.81 1478.62 1992.03 1479.17 Q1994.26 1479.73 1996.73 1479.73 Q2000.74 1479.73 2003.08 1477.62 Q2005.41 1475.52 2005.41 1471.9 Q2005.41 1468.29 2003.08 1466.19 Q2000.74 1464.08 1996.73 1464.08 Q1994.86 1464.08 1992.98 1464.5 Q1991.13 1464.91 1989.19 1465.79 L1989.19 1448.43 Z" fill="#000000" fill-rule="evenodd" fill-opacity="1" /><polyline clip-path="url(#clip732)" style="stroke:#000000; stroke-width:2; stroke-opacity:0.1; fill:none" points="
  160.638,1384.15 2256.76,1384.15 
  "/>
<polyline clip-path="url(#clip732)" style="stroke:#000000; stroke-width:2; stroke-opacity:0.1; fill:none" points="
  160.638,954.359 2256.76,954.359 
  "/>
<polyline clip-path="url(#clip732)" style="stroke:#000000; stroke-width:2; stroke-opacity:0.1; fill:none" points="
  160.638,524.569 2256.76,524.569 
  "/>
<polyline clip-path="url(#clip732)" style="stroke:#000000; stroke-width:2; stroke-opacity:0.1; fill:none" points="
  160.638,94.7789 2256.76,94.7789 
  "/>
<polyline clip-path="url(#clip730)" style="stroke:#000000; stroke-width:4; stroke-opacity:1; fill:none" points="
  160.638,1423.09 160.638,47.2441 
  "/>
<polyline clip-path="url(#clip730)" style="stroke:#000000; stroke-width:4; stroke-opacity:1; fill:none" points="
  160.638,1384.15 185.792,1384.15 
  "/>
<polyline clip-path="url(#clip730)" style="stroke:#000000; stroke-width:4; stroke-opacity:1; fill:none" points="
  160.638,954.359 185.792,954.359 
  "/>
<polyline clip-path="url(#clip730)" style="stroke:#000000; stroke-width:4; stroke-opacity:1; fill:none" points="
  160.638,524.569 185.792,524.569 
  "/>
<polyline clip-path="url(#clip730)" style="stroke:#000000; stroke-width:4; stroke-opacity:1; fill:none" points="
  160.638,94.7789 185.792,94.7789 
  "/>
<path clip-path="url(#clip730)" d="M 0 0 M114.134 1369.95 Q110.523 1369.95 108.694 1373.51 Q106.888 1377.05 106.888 1384.18 Q106.888 1391.29 108.694 1394.85 Q110.523 1398.4 114.134 1398.4 Q117.768 1398.4 119.574 1394.85 Q121.402 1391.29 121.402 1384.18 Q121.402 1377.05 119.574 1373.51 Q117.768 1369.95 114.134 1369.95 M114.134 1366.24 Q119.944 1366.24 123 1370.85 Q126.078 1375.43 126.078 1384.18 Q126.078 1392.91 123 1397.52 Q119.944 1402.1 114.134 1402.1 Q108.324 1402.1 105.245 1397.52 Q102.189 1392.91 102.189 1384.18 Q102.189 1375.43 105.245 1370.85 Q108.324 1366.24 114.134 1366.24 Z" fill="#000000" fill-rule="evenodd" fill-opacity="1" /><path clip-path="url(#clip730)" d="M 0 0 M78.1618 937.079 L96.5182 937.079 L96.5182 941.014 L82.4442 941.014 L82.4442 949.486 Q83.4627 949.139 84.4812 948.977 Q85.4997 948.792 86.5182 948.792 Q92.3052 948.792 95.6849 951.963 Q99.0645 955.134 99.0645 960.551 Q99.0645 966.13 95.5923 969.231 Q92.1201 972.31 85.8006 972.31 Q83.6247 972.31 81.3562 971.94 Q79.1109 971.569 76.7035 970.829 L76.7035 966.13 Q78.7868 967.264 81.009 967.819 Q83.2312 968.375 85.7081 968.375 Q89.7127 968.375 92.0506 966.269 Q94.3886 964.162 94.3886 960.551 Q94.3886 956.94 92.0506 954.833 Q89.7127 952.727 85.7081 952.727 Q83.8331 952.727 81.9581 953.144 Q80.1062 953.56 78.1618 954.44 L78.1618 937.079 Z" fill="#000000" fill-rule="evenodd" fill-opacity="1" /><path clip-path="url(#clip730)" d="M 0 0 M114.134 940.158 Q110.523 940.158 108.694 943.722 Q106.888 947.264 106.888 954.394 Q106.888 961.5 108.694 965.065 Q110.523 968.606 114.134 968.606 Q117.768 968.606 119.574 965.065 Q121.402 961.5 121.402 954.394 Q121.402 947.264 119.574 943.722 Q117.768 940.158 114.134 940.158 M114.134 936.454 Q119.944 936.454 123 941.06 Q126.078 945.644 126.078 954.394 Q126.078 963.12 123 967.727 Q119.944 972.31 114.134 972.31 Q108.324 972.31 105.245 967.727 Q102.189 963.12 102.189 954.394 Q102.189 945.644 105.245 941.06 Q108.324 936.454 114.134 936.454 Z" fill="#000000" fill-rule="evenodd" fill-opacity="1" /><path clip-path="url(#clip730)" d="M 0 0 M52.1434 537.914 L59.7823 537.914 L59.7823 511.548 L51.4721 513.215 L51.4721 508.956 L59.736 507.289 L64.4119 507.289 L64.4119 537.914 L72.0507 537.914 L72.0507 541.849 L52.1434 541.849 L52.1434 537.914 Z" fill="#000000" fill-rule="evenodd" fill-opacity="1" /><path clip-path="url(#clip730)" d="M 0 0 M87.1201 510.368 Q83.509 510.368 81.6803 513.932 Q79.8748 517.474 79.8748 524.604 Q79.8748 531.71 81.6803 535.275 Q83.509 538.816 87.1201 538.816 Q90.7543 538.816 92.5599 535.275 Q94.3886 531.71 94.3886 524.604 Q94.3886 517.474 92.5599 513.932 Q90.7543 510.368 87.1201 510.368 M87.1201 506.664 Q92.9302 506.664 95.9858 511.27 Q99.0645 515.854 99.0645 524.604 Q99.0645 533.33 95.9858 537.937 Q92.9302 542.52 87.1201 542.52 Q81.3099 542.52 78.2312 537.937 Q75.1757 533.33 75.1757 524.604 Q75.1757 515.854 78.2312 511.27 Q81.3099 506.664 87.1201 506.664 Z" fill="#000000" fill-rule="evenodd" fill-opacity="1" /><path clip-path="url(#clip730)" d="M 0 0 M114.134 510.368 Q110.523 510.368 108.694 513.932 Q106.888 517.474 106.888 524.604 Q106.888 531.71 108.694 535.275 Q110.523 538.816 114.134 538.816 Q117.768 538.816 119.574 535.275 Q121.402 531.71 121.402 524.604 Q121.402 517.474 119.574 513.932 Q117.768 510.368 114.134 510.368 M114.134 506.664 Q119.944 506.664 123 511.27 Q126.078 515.854 126.078 524.604 Q126.078 533.33 123 537.937 Q119.944 542.52 114.134 542.52 Q108.324 542.52 105.245 537.937 Q102.189 533.33 102.189 524.604 Q102.189 515.854 105.245 511.27 Q108.324 506.664 114.134 506.664 Z" fill="#000000" fill-rule="evenodd" fill-opacity="1" /><path clip-path="url(#clip730)" d="M 0 0 M53.1388 108.124 L60.7776 108.124 L60.7776 81.7581 L52.4675 83.4248 L52.4675 79.1655 L60.7313 77.4989 L65.4072 77.4989 L65.4072 108.124 L73.0461 108.124 L73.0461 112.059 L53.1388 112.059 L53.1388 108.124 Z" fill="#000000" fill-rule="evenodd" fill-opacity="1" /><path clip-path="url(#clip730)" d="M 0 0 M78.1618 77.4989 L96.5182 77.4989 L96.5182 81.434 L82.4442 81.434 L82.4442 89.9062 Q83.4627 89.559 84.4812 89.397 Q85.4997 89.2118 86.5182 89.2118 Q92.3052 89.2118 95.6849 92.383 Q99.0645 95.5543 99.0645 100.971 Q99.0645 106.55 95.5923 109.651 Q92.1201 112.73 85.8006 112.73 Q83.6247 112.73 81.3562 112.36 Q79.1109 111.989 76.7035 111.249 L76.7035 106.55 Q78.7868 107.684 81.009 108.239 Q83.2312 108.795 85.7081 108.795 Q89.7127 108.795 92.0506 106.689 Q94.3886 104.582 94.3886 100.971 Q94.3886 97.3599 92.0506 95.2534 Q89.7127 93.1469 85.7081 93.1469 Q83.8331 93.1469 81.9581 93.5636 Q80.1062 93.9803 78.1618 94.8599 L78.1618 77.4989 Z" fill="#000000" fill-rule="evenodd" fill-opacity="1" /><path clip-path="url(#clip730)" d="M 0 0 M114.134 80.5776 Q110.523 80.5776 108.694 84.1424 Q106.888 87.684 106.888 94.8136 Q106.888 101.92 108.694 105.485 Q110.523 109.026 114.134 109.026 Q117.768 109.026 119.574 105.485 Q121.402 101.92 121.402 94.8136 Q121.402 87.684 119.574 84.1424 Q117.768 80.5776 114.134 80.5776 M114.134 76.8739 Q119.944 76.8739 123 81.4803 Q126.078 86.0636 126.078 94.8136 Q126.078 103.54 123 108.147 Q119.944 112.73 114.134 112.73 Q108.324 112.73 105.245 108.147 Q102.189 103.54 102.189 94.8136 Q102.189 86.0636 105.245 81.4803 Q108.324 76.8739 114.134 76.8739 Z" fill="#000000" fill-rule="evenodd" fill-opacity="1" /><path clip-path="url(#clip732)" d="
M275.928 1332.57 L275.928 1384.15 L392.524 1384.15 L392.524 1332.57 L275.928 1332.57 L275.928 1332.57  Z
  " fill="#009af9" fill-rule="evenodd" fill-opacity="1"/>
<polyline clip-path="url(#clip732)" style="stroke:#000000; stroke-width:4; stroke-opacity:1; fill:none" points="
  275.928,1332.57 275.928,1384.15 392.524,1384.15 392.524,1332.57 275.928,1332.57 
  "/>
<path clip-path="url(#clip732)" d="
M392.524 1315.38 L392.524 1384.15 L509.121 1384.15 L509.121 1315.38 L392.524 1315.38 L392.524 1315.38  Z
  " fill="#009af9" fill-rule="evenodd" fill-opacity="1"/>
<polyline clip-path="url(#clip732)" style="stroke:#000000; stroke-width:4; stroke-opacity:1; fill:none" points="
  392.524,1315.38 392.524,1384.15 509.121,1384.15 509.121,1315.38 392.524,1315.38 
  "/>
<path clip-path="url(#clip732)" d="
M509.121 1195.04 L509.121 1384.15 L625.717 1384.15 L625.717 1195.04 L509.121 1195.04 L509.121 1195.04  Z
  " fill="#009af9" fill-rule="evenodd" fill-opacity="1"/>
<polyline clip-path="url(#clip732)" style="stroke:#000000; stroke-width:4; stroke-opacity:1; fill:none" points="
  509.121,1195.04 509.121,1384.15 625.717,1384.15 625.717,1195.04 509.121,1195.04 
  "/>
<path clip-path="url(#clip732)" d="
M625.717 1048.91 L625.717 1384.15 L742.313 1384.15 L742.313 1048.91 L625.717 1048.91 L625.717 1048.91  Z
  " fill="#009af9" fill-rule="evenodd" fill-opacity="1"/>
<polyline clip-path="url(#clip732)" style="stroke:#000000; stroke-width:4; stroke-opacity:1; fill:none" points="
  625.717,1048.91 625.717,1384.15 742.313,1384.15 742.313,1048.91 625.717,1048.91 
  "/>
<path clip-path="url(#clip732)" d="
M742.313 834.018 L742.313 1384.15 L858.909 1384.15 L858.909 834.018 L742.313 834.018 L742.313 834.018  Z
  " fill="#009af9" fill-rule="evenodd" fill-opacity="1"/>
<polyline clip-path="url(#clip732)" style="stroke:#000000; stroke-width:4; stroke-opacity:1; fill:none" points="
  742.313,834.018 742.313,1384.15 858.909,1384.15 858.909,834.018 742.313,834.018 
  "/>
<path clip-path="url(#clip732)" d="
M858.909 601.931 L858.909 1384.15 L975.505 1384.15 L975.505 601.931 L858.909 601.931 L858.909 601.931  Z
  " fill="#009af9" fill-rule="evenodd" fill-opacity="1"/>
<polyline clip-path="url(#clip732)" style="stroke:#000000; stroke-width:4; stroke-opacity:1; fill:none" points="
  858.909,601.931 858.909,1384.15 975.505,1384.15 975.505,601.931 858.909,601.931 
  "/>
<path clip-path="url(#clip732)" d="
M975.505 369.844 L975.505 1384.15 L1092.1 1384.15 L1092.1 369.844 L975.505 369.844 L975.505 369.844  Z
  " fill="#009af9" fill-rule="evenodd" fill-opacity="1"/>
<polyline clip-path="url(#clip732)" style="stroke:#000000; stroke-width:4; stroke-opacity:1; fill:none" points="
  975.505,369.844 975.505,1384.15 1092.1,1384.15 1092.1,369.844 975.505,369.844 
  "/>
<path clip-path="url(#clip732)" d="
M1092.1 120.566 L1092.1 1384.15 L1208.7 1384.15 L1208.7 120.566 L1092.1 120.566 L1092.1 120.566  Z
  " fill="#009af9" fill-rule="evenodd" fill-opacity="1"/>
<polyline clip-path="url(#clip732)" style="stroke:#000000; stroke-width:4; stroke-opacity:1; fill:none" points="
  1092.1,120.566 1092.1,1384.15 1208.7,1384.15 1208.7,120.566 1092.1,120.566 
  "/>
<path clip-path="url(#clip732)" d="
M1208.7 86.1831 L1208.7 1384.15 L1325.29 1384.15 L1325.29 86.1831 L1208.7 86.1831 L1208.7 86.1831  Z
  " fill="#009af9" fill-rule="evenodd" fill-opacity="1"/>
<polyline clip-path="url(#clip732)" style="stroke:#000000; stroke-width:4; stroke-opacity:1; fill:none" points="
  1208.7,86.1831 1208.7,1384.15 1325.29,1384.15 1325.29,86.1831 1208.7,86.1831 
  "/>
<path clip-path="url(#clip732)" d="
M1325.29 258.099 L1325.29 1384.15 L1441.89 1384.15 L1441.89 258.099 L1325.29 258.099 L1325.29 258.099  Z
  " fill="#009af9" fill-rule="evenodd" fill-opacity="1"/>
<polyline clip-path="url(#clip732)" style="stroke:#000000; stroke-width:4; stroke-opacity:1; fill:none" points="
  1325.29,258.099 1325.29,1384.15 1441.89,1384.15 1441.89,258.099 1325.29,258.099 
  "/>
<path clip-path="url(#clip732)" d="
M1441.89 593.335 L1441.89 1384.15 L1558.49 1384.15 L1558.49 593.335 L1441.89 593.335 L1441.89 593.335  Z
  " fill="#009af9" fill-rule="evenodd" fill-opacity="1"/>
<polyline clip-path="url(#clip732)" style="stroke:#000000; stroke-width:4; stroke-opacity:1; fill:none" points="
  1441.89,593.335 1441.89,1384.15 1558.49,1384.15 1558.49,593.335 1441.89,593.335 
  "/>
<path clip-path="url(#clip732)" d="
M1558.49 868.401 L1558.49 1384.15 L1675.08 1384.15 L1675.08 868.401 L1558.49 868.401 L1558.49 868.401  Z
  " fill="#009af9" fill-rule="evenodd" fill-opacity="1"/>
<polyline clip-path="url(#clip732)" style="stroke:#000000; stroke-width:4; stroke-opacity:1; fill:none" points="
  1558.49,868.401 1558.49,1384.15 1675.08,1384.15 1675.08,868.401 1558.49,868.401 
  "/>
<path clip-path="url(#clip732)" d="
M1675.08 1023.13 L1675.08 1384.15 L1791.68 1384.15 L1791.68 1023.13 L1675.08 1023.13 L1675.08 1023.13  Z
  " fill="#009af9" fill-rule="evenodd" fill-opacity="1"/>
<polyline clip-path="url(#clip732)" style="stroke:#000000; stroke-width:4; stroke-opacity:1; fill:none" points="
  1675.08,1023.13 1675.08,1384.15 1791.68,1384.15 1791.68,1023.13 1675.08,1023.13 
  "/>
<path clip-path="url(#clip732)" d="
M1791.68 1246.62 L1791.68 1384.15 L1908.27 1384.15 L1908.27 1246.62 L1791.68 1246.62 L1791.68 1246.62  Z
  " fill="#009af9" fill-rule="evenodd" fill-opacity="1"/>
<polyline clip-path="url(#clip732)" style="stroke:#000000; stroke-width:4; stroke-opacity:1; fill:none" points="
  1791.68,1246.62 1791.68,1384.15 1908.27,1384.15 1908.27,1246.62 1791.68,1246.62 
  "/>
<path clip-path="url(#clip732)" d="
M1908.27 1306.79 L1908.27 1384.15 L2024.87 1384.15 L2024.87 1306.79 L1908.27 1306.79 L1908.27 1306.79  Z
  " fill="#009af9" fill-rule="evenodd" fill-opacity="1"/>
<polyline clip-path="url(#clip732)" style="stroke:#000000; stroke-width:4; stroke-opacity:1; fill:none" points="
  1908.27,1306.79 1908.27,1384.15 2024.87,1384.15 2024.87,1306.79 1908.27,1306.79 
  "/>
<path clip-path="url(#clip732)" d="
M2024.87 1349.77 L2024.87 1384.15 L2141.47 1384.15 L2141.47 1349.77 L2024.87 1349.77 L2024.87 1349.77  Z
  " fill="#009af9" fill-rule="evenodd" fill-opacity="1"/>
<polyline clip-path="url(#clip732)" style="stroke:#000000; stroke-width:4; stroke-opacity:1; fill:none" points="
  2024.87,1349.77 2024.87,1384.15 2141.47,1384.15 2141.47,1349.77 2024.87,1349.77 
  "/>
<path clip-path="url(#clip730)" d="
M1902.97 214.066 L2186.89 214.066 L2186.89 93.1056 L1902.97 93.1056  Z
  " fill="#ffffff" fill-rule="evenodd" fill-opacity="1"/>
<polyline clip-path="url(#clip730)" style="stroke:#000000; stroke-width:4; stroke-opacity:1; fill:none" points="
  1902.97,214.066 2186.89,214.066 2186.89,93.1056 1902.97,93.1056 1902.97,214.066 
  "/>
<path clip-path="url(#clip730)" d="
M1926.26 177.778 L2066 177.778 L2066 129.394 L1926.26 129.394 L1926.26 177.778  Z
  " fill="#009af9" fill-rule="evenodd" fill-opacity="1"/>
<polyline clip-path="url(#clip730)" style="stroke:#000000; stroke-width:4; stroke-opacity:1; fill:none" points="
  1926.26,177.778 2066,177.778 2066,129.394 1926.26,129.394 1926.26,177.778 
  "/>
<path clip-path="url(#clip730)" d="M 0 0 M2103.13 173.273 Q2101.32 177.903 2099.61 179.315 Q2097.9 180.727 2095.03 180.727 L2091.62 180.727 L2091.62 177.162 L2094.12 177.162 Q2095.88 177.162 2096.86 176.328 Q2097.83 175.495 2099.01 172.393 L2099.77 170.449 L2089.29 144.94 L2093.8 144.94 L2101.9 165.217 L2110 144.94 L2114.52 144.94 L2103.13 173.273 Z" fill="#000000" fill-rule="evenodd" fill-opacity="1" /><path clip-path="url(#clip730)" d="M 0 0 M2120.4 166.93 L2128.04 166.93 L2128.04 140.565 L2119.73 142.231 L2119.73 137.972 L2127.99 136.306 L2132.67 136.306 L2132.67 166.93 L2140.3 166.93 L2140.3 170.866 L2120.4 170.866 L2120.4 166.93 Z" fill="#000000" fill-rule="evenodd" fill-opacity="1" /></svg>
