<?xml version="1.0" encoding="utf-8"?>
<svg xmlns="http://www.w3.org/2000/svg" xmlns:xlink="http://www.w3.org/1999/xlink" width="576" height="384" viewBox="0 0 2304 1536">
<defs>
  <clipPath id="clip770">
    <rect x="0" y="0" width="2304" height="1536"/>
  </clipPath>
</defs>
<path clip-path="url(#clip770)" d="
M0 1536 L2304 1536 L2304 0 L0 0  Z
  " fill="#ffffff" fill-rule="evenodd" fill-opacity="1"/>
<defs>
  <clipPath id="clip771">
    <rect x="460" y="0" width="1614" height="1536"/>
  </clipPath>
</defs>
<path clip-path="url(#clip770)" d="
M111.217 1359.82 L2256.76 1359.82 L2256.76 47.2441 L111.217 47.2441  Z
  " fill="#ffffff" fill-rule="evenodd" fill-opacity="1"/>
<defs>
  <clipPath id="clip772">
    <rect x="111" y="47" width="2147" height="1314"/>
  </clipPath>
</defs>
<polyline clip-path="url(#clip772)" style="stroke:#000000; stroke-width:2; stroke-opacity:0.1; fill:none" points="
  111.217,1359.82 111.217,47.2441 
  "/>
<polyline clip-path="url(#clip772)" style="stroke:#000000; stroke-width:2; stroke-opacity:0.1; fill:none" points="
  540.325,1359.82 540.325,47.2441 
  "/>
<polyline clip-path="url(#clip772)" style="stroke:#000000; stroke-width:2; stroke-opacity:0.1; fill:none" points="
  969.433,1359.82 969.433,47.2441 
  "/>
<polyline clip-path="url(#clip772)" style="stroke:#000000; stroke-width:2; stroke-opacity:0.1; fill:none" points="
  1398.54,1359.82 1398.54,47.2441 
  "/>
<polyline clip-path="url(#clip772)" style="stroke:#000000; stroke-width:2; stroke-opacity:0.1; fill:none" points="
  1827.65,1359.82 1827.65,47.2441 
  "/>
<polyline clip-path="url(#clip772)" style="stroke:#000000; stroke-width:2; stroke-opacity:0.1; fill:none" points="
  2256.76,1359.82 2256.76,47.2441 
  "/>
<polyline clip-path="url(#clip770)" style="stroke:#000000; stroke-width:4; stroke-opacity:1; fill:none" points="
  111.217,1359.82 2256.76,1359.82 
  "/>
<polyline clip-path="url(#clip770)" style="stroke:#000000; stroke-width:4; stroke-opacity:1; fill:none" points="
  111.217,1359.82 111.217,1344.07 
  "/>
<polyline clip-path="url(#clip770)" style="stroke:#000000; stroke-width:4; stroke-opacity:1; fill:none" points="
  540.325,1359.82 540.325,1344.07 
  "/>
<polyline clip-path="url(#clip770)" style="stroke:#000000; stroke-width:4; stroke-opacity:1; fill:none" points="
  969.433,1359.82 969.433,1344.07 
  "/>
<polyline clip-path="url(#clip770)" style="stroke:#000000; stroke-width:4; stroke-opacity:1; fill:none" points="
  1398.54,1359.82 1398.54,1344.07 
  "/>
<polyline clip-path="url(#clip770)" style="stroke:#000000; stroke-width:4; stroke-opacity:1; fill:none" points="
  1827.65,1359.82 1827.65,1344.07 
  "/>
<polyline clip-path="url(#clip770)" style="stroke:#000000; stroke-width:4; stroke-opacity:1; fill:none" points="
  2256.76,1359.82 2256.76,1344.07 
  "/>
<path clip-path="url(#clip770)" d="M 0 0 M92.7335 1388.24 Q89.1224 1388.24 87.2937 1391.81 Q85.4881 1395.35 85.4881 1402.48 Q85.4881 1409.59 87.2937 1413.15 Q89.1224 1416.69 92.7335 1416.69 Q96.3677 1416.69 98.1733 1413.15 Q100.002 1409.59 100.002 1402.48 Q100.002 1395.35 98.1733 1391.81 Q96.3677 1388.24 92.7335 1388.24 M92.7335 1384.54 Q98.5436 1384.54 101.599 1389.15 Q104.678 1393.73 104.678 1402.48 Q104.678 1411.21 101.599 1415.81 Q98.5436 1420.4 92.7335 1420.4 Q86.9233 1420.4 83.8446 1415.81 Q80.7891 1411.21 80.7891 1402.48 Q80.7891 1393.73 83.8446 1389.15 Q86.9233 1384.54 92.7335 1384.54 Z" fill="#000000" fill-rule="evenodd" fill-opacity="1" /><path clip-path="url(#clip770)" d="M 0 0 M109.747 1413.84 L114.632 1413.84 L114.632 1419.72 L109.747 1419.72 L109.747 1413.84 Z" fill="#000000" fill-rule="evenodd" fill-opacity="1" /><path clip-path="url(#clip770)" d="M 0 0 M129.701 1388.24 Q126.09 1388.24 124.261 1391.81 Q122.456 1395.35 122.456 1402.48 Q122.456 1409.59 124.261 1413.15 Q126.09 1416.69 129.701 1416.69 Q133.335 1416.69 135.141 1413.15 Q136.969 1409.59 136.969 1402.48 Q136.969 1395.35 135.141 1391.81 Q133.335 1388.24 129.701 1388.24 M129.701 1384.54 Q135.511 1384.54 138.567 1389.15 Q141.645 1393.73 141.645 1402.48 Q141.645 1411.21 138.567 1415.81 Q135.511 1420.4 129.701 1420.4 Q123.891 1420.4 120.812 1415.81 Q117.756 1411.21 117.756 1402.48 Q117.756 1393.73 120.812 1389.15 Q123.891 1384.54 129.701 1384.54 Z" fill="#000000" fill-rule="evenodd" fill-opacity="1" /><path clip-path="url(#clip770)" d="M 0 0 M522.64 1388.24 Q519.029 1388.24 517.2 1391.81 Q515.395 1395.35 515.395 1402.48 Q515.395 1409.59 517.2 1413.15 Q519.029 1416.69 522.64 1416.69 Q526.274 1416.69 528.08 1413.15 Q529.908 1409.59 529.908 1402.48 Q529.908 1395.35 528.08 1391.81 Q526.274 1388.24 522.64 1388.24 M522.64 1384.54 Q528.45 1384.54 531.506 1389.15 Q534.584 1393.73 534.584 1402.48 Q534.584 1411.21 531.506 1415.81 Q528.45 1420.4 522.64 1420.4 Q516.83 1420.4 513.751 1415.81 Q510.695 1411.21 510.695 1402.48 Q510.695 1393.73 513.751 1389.15 Q516.83 1384.54 522.64 1384.54 Z" fill="#000000" fill-rule="evenodd" fill-opacity="1" /><path clip-path="url(#clip770)" d="M 0 0 M539.654 1413.84 L544.538 1413.84 L544.538 1419.72 L539.654 1419.72 L539.654 1413.84 Z" fill="#000000" fill-rule="evenodd" fill-opacity="1" /><path clip-path="url(#clip770)" d="M 0 0 M553.635 1415.79 L569.954 1415.79 L569.954 1419.72 L548.01 1419.72 L548.01 1415.79 Q550.672 1413.03 555.255 1408.4 Q559.862 1403.75 561.042 1402.41 Q563.288 1399.89 564.167 1398.15 Q565.07 1396.39 565.07 1394.7 Q565.07 1391.95 563.126 1390.21 Q561.204 1388.47 558.103 1388.47 Q555.904 1388.47 553.45 1389.24 Q551.019 1390 548.242 1391.55 L548.242 1386.83 Q551.066 1385.7 553.519 1385.12 Q555.973 1384.54 558.01 1384.54 Q563.38 1384.54 566.575 1387.22 Q569.769 1389.91 569.769 1394.4 Q569.769 1396.53 568.959 1398.45 Q568.172 1400.35 566.066 1402.94 Q565.487 1403.61 562.385 1406.83 Q559.283 1410.02 553.635 1415.79 Z" fill="#000000" fill-rule="evenodd" fill-opacity="1" /><path clip-path="url(#clip770)" d="M 0 0 M950.706 1388.24 Q947.095 1388.24 945.266 1391.81 Q943.461 1395.35 943.461 1402.48 Q943.461 1409.59 945.266 1413.15 Q947.095 1416.69 950.706 1416.69 Q954.34 1416.69 956.146 1413.15 Q957.974 1409.59 957.974 1402.48 Q957.974 1395.35 956.146 1391.81 Q954.34 1388.24 950.706 1388.24 M950.706 1384.54 Q956.516 1384.54 959.572 1389.15 Q962.65 1393.73 962.65 1402.48 Q962.65 1411.21 959.572 1415.81 Q956.516 1420.4 950.706 1420.4 Q944.896 1420.4 941.817 1415.81 Q938.762 1411.21 938.762 1402.48 Q938.762 1393.73 941.817 1389.15 Q944.896 1384.54 950.706 1384.54 Z" fill="#000000" fill-rule="evenodd" fill-opacity="1" /><path clip-path="url(#clip770)" d="M 0 0 M967.72 1413.84 L972.604 1413.84 L972.604 1419.72 L967.72 1419.72 L967.72 1413.84 Z" fill="#000000" fill-rule="evenodd" fill-opacity="1" /><path clip-path="url(#clip770)" d="M 0 0 M990.521 1389.24 L978.715 1407.69 L990.521 1407.69 L990.521 1389.24 M989.294 1385.16 L995.173 1385.16 L995.173 1407.69 L1000.1 1407.69 L1000.1 1411.58 L995.173 1411.58 L995.173 1419.72 L990.521 1419.72 L990.521 1411.58 L974.919 1411.58 L974.919 1407.06 L989.294 1385.16 Z" fill="#000000" fill-rule="evenodd" fill-opacity="1" /><path clip-path="url(#clip770)" d="M 0 0 M1379.98 1388.24 Q1376.36 1388.24 1374.54 1391.81 Q1372.73 1395.35 1372.73 1402.48 Q1372.73 1409.59 1374.54 1413.15 Q1376.36 1416.69 1379.98 1416.69 Q1383.61 1416.69 1385.42 1413.15 Q1387.24 1409.59 1387.24 1402.48 Q1387.24 1395.35 1385.42 1391.81 Q1383.61 1388.24 1379.98 1388.24 M1379.98 1384.54 Q1385.79 1384.54 1388.84 1389.15 Q1391.92 1393.73 1391.92 1402.48 Q1391.92 1411.21 1388.84 1415.81 Q1385.79 1420.4 1379.98 1420.4 Q1374.17 1420.4 1371.09 1415.81 Q1368.03 1411.21 1368.03 1402.48 Q1368.03 1393.73 1371.09 1389.15 Q1374.17 1384.54 1379.98 1384.54 Z" fill="#000000" fill-rule="evenodd" fill-opacity="1" /><path clip-path="url(#clip770)" d="M 0 0 M1396.99 1413.84 L1401.87 1413.84 L1401.87 1419.72 L1396.99 1419.72 L1396.99 1413.84 Z" fill="#000000" fill-rule="evenodd" fill-opacity="1" /><path clip-path="url(#clip770)" d="M 0 0 M1417.52 1400.58 Q1414.37 1400.58 1412.52 1402.73 Q1410.69 1404.89 1410.69 1408.64 Q1410.69 1412.36 1412.52 1414.54 Q1414.37 1416.69 1417.52 1416.69 Q1420.67 1416.69 1422.5 1414.54 Q1424.35 1412.36 1424.35 1408.64 Q1424.35 1404.89 1422.5 1402.73 Q1420.67 1400.58 1417.52 1400.58 M1426.8 1385.93 L1426.8 1390.19 Q1425.04 1389.35 1423.24 1388.91 Q1421.46 1388.47 1419.7 1388.47 Q1415.07 1388.47 1412.61 1391.6 Q1410.18 1394.72 1409.84 1401.04 Q1411.2 1399.03 1413.26 1397.96 Q1415.32 1396.88 1417.8 1396.88 Q1423.01 1396.88 1426.02 1400.05 Q1429.05 1403.2 1429.05 1408.64 Q1429.05 1413.96 1425.9 1417.18 Q1422.75 1420.4 1417.52 1420.4 Q1411.53 1420.4 1408.36 1415.81 Q1405.18 1411.21 1405.18 1402.48 Q1405.18 1394.28 1409.07 1389.42 Q1412.96 1384.54 1419.51 1384.54 Q1421.27 1384.54 1423.05 1384.89 Q1424.86 1385.23 1426.8 1385.93 Z" fill="#000000" fill-rule="evenodd" fill-opacity="1" /><path clip-path="url(#clip770)" d="M 0 0 M1809.21 1388.24 Q1805.6 1388.24 1803.77 1391.81 Q1801.97 1395.35 1801.97 1402.48 Q1801.97 1409.59 1803.77 1413.15 Q1805.6 1416.69 1809.21 1416.69 Q1812.84 1416.69 1814.65 1413.15 Q1816.48 1409.59 1816.48 1402.48 Q1816.48 1395.35 1814.65 1391.81 Q1812.84 1388.24 1809.21 1388.24 M1809.21 1384.54 Q1815.02 1384.54 1818.08 1389.15 Q1821.16 1393.73 1821.16 1402.48 Q1821.16 1411.21 1818.08 1415.81 Q1815.02 1420.4 1809.21 1420.4 Q1803.4 1420.4 1800.32 1415.81 Q1797.27 1411.21 1797.27 1402.48 Q1797.27 1393.73 1800.32 1389.15 Q1803.4 1384.54 1809.21 1384.54 Z" fill="#000000" fill-rule="evenodd" fill-opacity="1" /><path clip-path="url(#clip770)" d="M 0 0 M1826.22 1413.84 L1831.11 1413.84 L1831.11 1419.72 L1826.22 1419.72 L1826.22 1413.84 Z" fill="#000000" fill-rule="evenodd" fill-opacity="1" /><path clip-path="url(#clip770)" d="M 0 0 M1846.18 1403.31 Q1842.84 1403.31 1840.92 1405.09 Q1839.03 1406.88 1839.03 1410 Q1839.03 1413.13 1840.92 1414.91 Q1842.84 1416.69 1846.18 1416.69 Q1849.51 1416.69 1851.43 1414.91 Q1853.35 1413.1 1853.35 1410 Q1853.35 1406.88 1851.43 1405.09 Q1849.53 1403.31 1846.18 1403.31 M1841.5 1401.32 Q1838.49 1400.58 1836.8 1398.52 Q1835.14 1396.46 1835.14 1393.5 Q1835.14 1389.35 1838.08 1386.95 Q1841.04 1384.54 1846.18 1384.54 Q1851.34 1384.54 1854.28 1386.95 Q1857.22 1389.35 1857.22 1393.5 Q1857.22 1396.46 1855.53 1398.52 Q1853.86 1400.58 1850.88 1401.32 Q1854.26 1402.11 1856.13 1404.4 Q1858.03 1406.69 1858.03 1410 Q1858.03 1415.02 1854.95 1417.71 Q1851.9 1420.4 1846.18 1420.4 Q1840.46 1420.4 1837.38 1417.71 Q1834.33 1415.02 1834.33 1410 Q1834.33 1406.69 1836.22 1404.4 Q1838.12 1402.11 1841.5 1401.32 M1839.79 1393.94 Q1839.79 1396.62 1841.46 1398.13 Q1843.15 1399.63 1846.18 1399.63 Q1849.19 1399.63 1850.88 1398.13 Q1852.59 1396.62 1852.59 1393.94 Q1852.59 1391.25 1850.88 1389.75 Q1849.19 1388.24 1846.18 1388.24 Q1843.15 1388.24 1841.46 1389.75 Q1839.79 1391.25 1839.79 1393.94 Z" fill="#000000" fill-rule="evenodd" fill-opacity="1" /><path clip-path="url(#clip770)" d="M 0 0 M2228.65 1415.79 L2236.29 1415.79 L2236.29 1389.42 L2227.98 1391.09 L2227.98 1386.83 L2236.25 1385.16 L2240.92 1385.16 L2240.92 1415.79 L2248.56 1415.79 L2248.56 1419.72 L2228.65 1419.72 L2228.65 1415.79 Z" fill="#000000" fill-rule="evenodd" fill-opacity="1" /><path clip-path="url(#clip770)" d="M 0 0 M2253.63 1413.84 L2258.52 1413.84 L2258.52 1419.72 L2253.63 1419.72 L2253.63 1413.84 Z" fill="#000000" fill-rule="evenodd" fill-opacity="1" /><path clip-path="url(#clip770)" d="M 0 0 M2273.58 1388.24 Q2269.97 1388.24 2268.14 1391.81 Q2266.34 1395.35 2266.34 1402.48 Q2266.34 1409.59 2268.14 1413.15 Q2269.97 1416.69 2273.58 1416.69 Q2277.22 1416.69 2279.02 1413.15 Q2280.85 1409.59 2280.85 1402.48 Q2280.85 1395.35 2279.02 1391.81 Q2277.22 1388.24 2273.58 1388.24 M2273.58 1384.54 Q2279.39 1384.54 2282.45 1389.15 Q2285.53 1393.73 2285.53 1402.48 Q2285.53 1411.21 2282.45 1415.81 Q2279.39 1420.4 2273.58 1420.4 Q2267.77 1420.4 2264.7 1415.81 Q2261.64 1411.21 2261.64 1402.48 Q2261.64 1393.73 2264.7 1389.15 Q2267.77 1384.54 2273.58 1384.54 Z" fill="#000000" fill-rule="evenodd" fill-opacity="1" /><path clip-path="url(#clip770)" d="M 0 0 M902.638 1497.9 L902.638 1516.8 L896.75 1516.8 L896.75 1467.6 L902.638 1467.6 L902.638 1473.01 Q904.484 1469.82 907.285 1468.3 Q910.118 1466.74 914.033 1466.74 Q920.526 1466.74 924.568 1471.89 Q928.642 1477.05 928.642 1485.45 Q928.642 1493.85 924.568 1499.01 Q920.526 1504.17 914.033 1504.17 Q910.118 1504.17 907.285 1502.64 Q904.484 1501.08 902.638 1497.9 M922.563 1485.45 Q922.563 1478.99 919.889 1475.33 Q917.248 1471.64 912.601 1471.64 Q907.954 1471.64 905.28 1475.33 Q902.638 1478.99 902.638 1485.45 Q902.638 1491.91 905.28 1495.6 Q907.954 1499.27 912.601 1499.27 Q917.248 1499.27 919.889 1495.6 Q922.563 1491.91 922.563 1485.45 Z" fill="#000000" fill-rule="evenodd" fill-opacity="1" /><path clip-path="url(#clip770)" d="M 0 0 M955.442 1473.07 Q954.455 1472.5 953.277 1472.24 Q952.132 1471.96 950.731 1471.96 Q945.766 1471.96 943.092 1475.2 Q940.451 1478.42 940.451 1484.47 L940.451 1503.24 L934.562 1503.24 L934.562 1467.6 L940.451 1467.6 L940.451 1473.13 Q942.297 1469.89 945.257 1468.33 Q948.217 1466.74 952.45 1466.74 Q953.055 1466.74 953.787 1466.83 Q954.519 1466.9 955.41 1467.05 L955.442 1473.07 Z" fill="#000000" fill-rule="evenodd" fill-opacity="1" /><path clip-path="url(#clip770)" d="M 0 0 M973.966 1471.7 Q969.255 1471.7 966.518 1475.39 Q963.781 1479.05 963.781 1485.45 Q963.781 1491.85 966.486 1495.54 Q969.224 1499.2 973.966 1499.2 Q978.645 1499.2 981.382 1495.51 Q984.119 1491.82 984.119 1485.45 Q984.119 1479.12 981.382 1475.43 Q978.645 1471.7 973.966 1471.7 M973.966 1466.74 Q981.605 1466.74 985.965 1471.7 Q990.326 1476.67 990.326 1485.45 Q990.326 1494.2 985.965 1499.2 Q981.605 1504.17 973.966 1504.17 Q966.295 1504.17 961.935 1499.2 Q957.606 1494.2 957.606 1485.45 Q957.606 1476.67 961.935 1471.7 Q966.295 1466.74 973.966 1466.74 Z" fill="#000000" fill-rule="evenodd" fill-opacity="1" /><path clip-path="url(#clip770)" d="M 0 0 M1022.06 1485.45 Q1022.06 1478.99 1019.39 1475.33 Q1016.74 1471.64 1012.1 1471.64 Q1007.45 1471.64 1004.78 1475.33 Q1002.13 1478.99 1002.13 1485.45 Q1002.13 1491.91 1004.78 1495.6 Q1007.45 1499.27 1012.1 1499.27 Q1016.74 1499.27 1019.39 1495.6 Q1022.06 1491.91 1022.06 1485.45 M1002.13 1473.01 Q1003.98 1469.82 1006.78 1468.3 Q1009.61 1466.74 1013.53 1466.74 Q1020.02 1466.74 1024.06 1471.89 Q1028.14 1477.05 1028.14 1485.45 Q1028.14 1493.85 1024.06 1499.01 Q1020.02 1504.17 1013.53 1504.17 Q1009.61 1504.17 1006.78 1502.64 Q1003.98 1501.08 1002.13 1497.9 L1002.13 1503.24 L996.246 1503.24 L996.246 1453.72 L1002.13 1453.72 L1002.13 1473.01 Z" fill="#000000" fill-rule="evenodd" fill-opacity="1" /><path clip-path="url(#clip770)" d="M 0 0 M1050.48 1485.32 Q1043.38 1485.32 1040.65 1486.95 Q1037.91 1488.57 1037.91 1492.49 Q1037.91 1495.6 1039.95 1497.45 Q1042.02 1499.27 1045.55 1499.27 Q1050.42 1499.27 1053.35 1495.83 Q1056.31 1492.36 1056.31 1486.63 L1056.31 1485.32 L1050.48 1485.32 M1062.16 1482.91 L1062.16 1503.24 L1056.31 1503.24 L1056.31 1497.83 Q1054.3 1501.08 1051.31 1502.64 Q1048.32 1504.17 1043.99 1504.17 Q1038.51 1504.17 1035.27 1501.11 Q1032.05 1498.02 1032.05 1492.87 Q1032.05 1486.85 1036.06 1483.8 Q1040.11 1480.74 1048.09 1480.74 L1056.31 1480.74 L1056.31 1480.17 Q1056.31 1476.13 1053.63 1473.93 Q1050.99 1471.7 1046.18 1471.7 Q1043.13 1471.7 1040.23 1472.43 Q1037.34 1473.17 1034.66 1474.63 L1034.66 1469.22 Q1037.88 1467.98 1040.9 1467.37 Q1043.93 1466.74 1046.79 1466.74 Q1054.52 1466.74 1058.34 1470.75 Q1062.16 1474.76 1062.16 1482.91 Z" fill="#000000" fill-rule="evenodd" fill-opacity="1" /><path clip-path="url(#clip770)" d="M 0 0 M1093.9 1485.45 Q1093.9 1478.99 1091.22 1475.33 Q1088.58 1471.64 1083.93 1471.64 Q1079.29 1471.64 1076.61 1475.33 Q1073.97 1478.99 1073.97 1485.45 Q1073.97 1491.91 1076.61 1495.6 Q1079.29 1499.27 1083.93 1499.27 Q1088.58 1499.27 1091.22 1495.6 Q1093.9 1491.91 1093.9 1485.45 M1073.97 1473.01 Q1075.82 1469.82 1078.62 1468.3 Q1081.45 1466.74 1085.37 1466.74 Q1091.86 1466.74 1095.9 1471.89 Q1099.98 1477.05 1099.98 1485.45 Q1099.98 1493.85 1095.9 1499.01 Q1091.86 1504.17 1085.37 1504.17 Q1081.45 1504.17 1078.62 1502.64 Q1075.82 1501.08 1073.97 1497.9 L1073.97 1503.24 L1068.08 1503.24 L1068.08 1453.72 L1073.97 1453.72 L1073.97 1473.01 Z" fill="#000000" fill-rule="evenodd" fill-opacity="1" /><path clip-path="url(#clip770)" d="M 0 0 M1106.12 1467.6 L1111.97 1467.6 L1111.97 1503.24 L1106.12 1503.24 L1106.12 1467.6 M1106.12 1453.72 L1111.97 1453.72 L1111.97 1461.13 L1106.12 1461.13 L1106.12 1453.72 Z" fill="#000000" fill-rule="evenodd" fill-opacity="1" /><path clip-path="url(#clip770)" d="M 0 0 M1118.12 1453.72 L1123.97 1453.72 L1123.97 1503.24 L1118.12 1503.24 L1118.12 1453.72 Z" fill="#000000" fill-rule="evenodd" fill-opacity="1" /><path clip-path="url(#clip770)" d="M 0 0 M1130.12 1467.6 L1135.97 1467.6 L1135.97 1503.24 L1130.12 1503.24 L1130.12 1467.6 M1130.12 1453.72 L1135.97 1453.72 L1135.97 1461.13 L1130.12 1461.13 L1130.12 1453.72 Z" fill="#000000" fill-rule="evenodd" fill-opacity="1" /><path clip-path="url(#clip770)" d="M 0 0 M1147.91 1457.47 L1147.91 1467.6 L1159.97 1467.6 L1159.97 1472.15 L1147.91 1472.15 L1147.91 1491.5 Q1147.91 1495.86 1149.09 1497.1 Q1150.3 1498.34 1153.96 1498.34 L1159.97 1498.34 L1159.97 1503.24 L1153.96 1503.24 Q1147.18 1503.24 1144.6 1500.73 Q1142.02 1498.18 1142.02 1491.5 L1142.02 1472.15 L1137.72 1472.15 L1137.72 1467.6 L1142.02 1467.6 L1142.02 1457.47 L1147.91 1457.47 Z" fill="#000000" fill-rule="evenodd" fill-opacity="1" /><path clip-path="url(#clip770)" d="M 0 0 M1180.95 1506.55 Q1178.46 1512.92 1176.11 1514.86 Q1173.75 1516.8 1169.81 1516.8 L1165.13 1516.8 L1165.13 1511.9 L1168.57 1511.9 Q1170.98 1511.9 1172.32 1510.76 Q1173.66 1509.61 1175.28 1505.34 L1176.33 1502.67 L1161.91 1467.6 L1168.12 1467.6 L1179.26 1495.48 L1190.4 1467.6 L1196.61 1467.6 L1180.95 1506.55 Z" fill="#000000" fill-rule="evenodd" fill-opacity="1" /><path clip-path="url(#clip770)" d="M 0 0 M1237.28 1471.7 Q1232.57 1471.7 1229.84 1475.39 Q1227.1 1479.05 1227.1 1485.45 Q1227.1 1491.85 1229.8 1495.54 Q1232.54 1499.2 1237.28 1499.2 Q1241.96 1499.2 1244.7 1495.51 Q1247.44 1491.82 1247.44 1485.45 Q1247.44 1479.12 1244.7 1475.43 Q1241.96 1471.7 1237.28 1471.7 M1237.28 1466.74 Q1244.92 1466.74 1249.28 1471.7 Q1253.64 1476.67 1253.64 1485.45 Q1253.64 1494.2 1249.28 1499.2 Q1244.92 1504.17 1237.28 1504.17 Q1229.61 1504.17 1225.25 1499.2 Q1220.92 1494.2 1220.92 1485.45 Q1220.92 1476.67 1225.25 1471.7 Q1229.61 1466.74 1237.28 1466.74 Z" fill="#000000" fill-rule="evenodd" fill-opacity="1" /><path clip-path="url(#clip770)" d="M 0 0 M1277.83 1453.72 L1277.83 1458.59 L1272.23 1458.59 Q1269.08 1458.59 1267.84 1459.86 Q1266.63 1461.13 1266.63 1464.44 L1266.63 1467.6 L1276.27 1467.6 L1276.27 1472.15 L1266.63 1472.15 L1266.63 1503.24 L1260.74 1503.24 L1260.74 1472.15 L1255.14 1472.15 L1255.14 1467.6 L1260.74 1467.6 L1260.74 1465.11 Q1260.74 1459.16 1263.51 1456.46 Q1266.28 1453.72 1272.29 1453.72 L1277.83 1453.72 Z" fill="#000000" fill-rule="evenodd" fill-opacity="1" /><path clip-path="url(#clip770)" d="M 0 0 M1334.33 1481.73 L1334.33 1503.24 L1328.47 1503.24 L1328.47 1481.92 Q1328.47 1476.86 1326.5 1474.34 Q1324.53 1471.83 1320.58 1471.83 Q1315.84 1471.83 1313.1 1474.85 Q1310.36 1477.88 1310.36 1483.1 L1310.36 1503.24 L1304.47 1503.24 L1304.47 1453.72 L1310.36 1453.72 L1310.36 1473.13 Q1312.46 1469.92 1315.3 1468.33 Q1318.16 1466.74 1321.88 1466.74 Q1328.03 1466.74 1331.18 1470.56 Q1334.33 1474.34 1334.33 1481.73 Z" fill="#000000" fill-rule="evenodd" fill-opacity="1" /><path clip-path="url(#clip770)" d="M 0 0 M1370.96 1483.96 L1370.96 1486.82 L1344.04 1486.82 Q1344.42 1492.87 1347.66 1496.05 Q1350.94 1499.2 1356.77 1499.2 Q1360.14 1499.2 1363.29 1498.37 Q1366.48 1497.55 1369.59 1495.89 L1369.59 1501.43 Q1366.44 1502.77 1363.13 1503.47 Q1359.82 1504.17 1356.42 1504.17 Q1347.89 1504.17 1342.89 1499.2 Q1337.93 1494.24 1337.93 1485.77 Q1337.93 1477.02 1342.64 1471.89 Q1347.38 1466.74 1355.4 1466.74 Q1362.59 1466.74 1366.76 1471.38 Q1370.96 1476 1370.96 1483.96 M1365.11 1482.24 Q1365.04 1477.43 1362.4 1474.57 Q1359.79 1471.7 1355.46 1471.7 Q1350.56 1471.7 1347.6 1474.47 Q1344.67 1477.24 1344.23 1482.27 L1365.11 1482.24 Z" fill="#000000" fill-rule="evenodd" fill-opacity="1" /><path clip-path="url(#clip770)" d="M 0 0 M1393.31 1485.32 Q1386.21 1485.32 1383.47 1486.95 Q1380.73 1488.57 1380.73 1492.49 Q1380.73 1495.6 1382.77 1497.45 Q1384.84 1499.27 1388.37 1499.27 Q1393.24 1499.27 1396.17 1495.83 Q1399.13 1492.36 1399.13 1486.63 L1399.13 1485.32 L1393.31 1485.32 M1404.99 1482.91 L1404.99 1503.24 L1399.13 1503.24 L1399.13 1497.83 Q1397.13 1501.08 1394.13 1502.64 Q1391.14 1504.17 1386.81 1504.17 Q1381.34 1504.17 1378.09 1501.11 Q1374.88 1498.02 1374.88 1492.87 Q1374.88 1486.85 1378.89 1483.8 Q1382.93 1480.74 1390.92 1480.74 L1399.13 1480.74 L1399.13 1480.17 Q1399.13 1476.13 1396.46 1473.93 Q1393.82 1471.7 1389.01 1471.7 Q1385.95 1471.7 1383.06 1472.43 Q1380.16 1473.17 1377.49 1474.63 L1377.49 1469.22 Q1380.7 1467.98 1383.73 1467.37 Q1386.75 1466.74 1389.61 1466.74 Q1397.35 1466.74 1401.17 1470.75 Q1404.99 1474.76 1404.99 1482.91 Z" fill="#000000" fill-rule="evenodd" fill-opacity="1" /><path clip-path="url(#clip770)" d="M 0 0 M1434.59 1473.01 L1434.59 1453.72 L1440.44 1453.72 L1440.44 1503.24 L1434.59 1503.24 L1434.59 1497.9 Q1432.74 1501.08 1429.91 1502.64 Q1427.11 1504.17 1423.16 1504.17 Q1416.7 1504.17 1412.63 1499.01 Q1408.58 1493.85 1408.58 1485.45 Q1408.58 1477.05 1412.63 1471.89 Q1416.7 1466.74 1423.16 1466.74 Q1427.11 1466.74 1429.91 1468.3 Q1432.74 1469.82 1434.59 1473.01 M1414.63 1485.45 Q1414.63 1491.91 1417.27 1495.6 Q1419.95 1499.27 1424.59 1499.27 Q1429.24 1499.27 1431.91 1495.6 Q1434.59 1491.91 1434.59 1485.45 Q1434.59 1478.99 1431.91 1475.33 Q1429.24 1471.64 1424.59 1471.64 Q1419.95 1471.64 1417.27 1475.33 Q1414.63 1478.99 1414.63 1485.45 Z" fill="#000000" fill-rule="evenodd" fill-opacity="1" /><path clip-path="url(#clip770)" d="M 0 0 M1469.31 1468.65 L1469.31 1474.18 Q1466.83 1472.91 1464.16 1472.27 Q1461.48 1471.64 1458.62 1471.64 Q1454.26 1471.64 1452.06 1472.97 Q1449.9 1474.31 1449.9 1476.99 Q1449.9 1479.02 1451.46 1480.2 Q1453.02 1481.35 1457.73 1482.4 L1459.73 1482.84 Q1465.97 1484.18 1468.58 1486.63 Q1471.22 1489.05 1471.22 1493.41 Q1471.22 1498.37 1467.28 1501.27 Q1463.36 1504.17 1456.49 1504.17 Q1453.62 1504.17 1450.5 1503.59 Q1447.42 1503.05 1443.98 1501.94 L1443.98 1495.89 Q1447.22 1497.58 1450.38 1498.44 Q1453.53 1499.27 1456.61 1499.27 Q1460.75 1499.27 1462.98 1497.86 Q1465.21 1496.43 1465.21 1493.85 Q1465.21 1491.47 1463.58 1490.19 Q1461.99 1488.92 1456.55 1487.74 L1454.51 1487.27 Q1449.07 1486.12 1446.65 1483.76 Q1444.23 1481.38 1444.23 1477.24 Q1444.23 1472.21 1447.8 1469.47 Q1451.36 1466.74 1457.92 1466.74 Q1461.17 1466.74 1464.03 1467.21 Q1466.89 1467.69 1469.31 1468.65 Z" fill="#000000" fill-rule="evenodd" fill-opacity="1" /><polyline clip-path="url(#clip772)" style="stroke:#000000; stroke-width:2; stroke-opacity:0.1; fill:none" points="
  111.217,1322.67 2256.76,1322.67 
  "/>
<polyline clip-path="url(#clip772)" style="stroke:#000000; stroke-width:2; stroke-opacity:0.1; fill:none" points="
  111.217,1013.38 2256.76,1013.38 
  "/>
<polyline clip-path="url(#clip772)" style="stroke:#000000; stroke-width:2; stroke-opacity:0.1; fill:none" points="
  111.217,704.083 2256.76,704.083 
  "/>
<polyline clip-path="url(#clip772)" style="stroke:#000000; stroke-width:2; stroke-opacity:0.1; fill:none" points="
  111.217,394.789 2256.76,394.789 
  "/>
<polyline clip-path="url(#clip772)" style="stroke:#000000; stroke-width:2; stroke-opacity:0.1; fill:none" points="
  111.217,85.4953 2256.76,85.4953 
  "/>
<polyline clip-path="url(#clip770)" style="stroke:#000000; stroke-width:4; stroke-opacity:1; fill:none" points="
  111.217,1359.82 111.217,47.2441 
  "/>
<polyline clip-path="url(#clip770)" style="stroke:#000000; stroke-width:4; stroke-opacity:1; fill:none" points="
  111.217,1322.67 136.964,1322.67 
  "/>
<polyline clip-path="url(#clip770)" style="stroke:#000000; stroke-width:4; stroke-opacity:1; fill:none" points="
  111.217,1013.38 136.964,1013.38 
  "/>
<polyline clip-path="url(#clip770)" style="stroke:#000000; stroke-width:4; stroke-opacity:1; fill:none" points="
  111.217,704.083 136.964,704.083 
  "/>
<polyline clip-path="url(#clip770)" style="stroke:#000000; stroke-width:4; stroke-opacity:1; fill:none" points="
  111.217,394.789 136.964,394.789 
  "/>
<polyline clip-path="url(#clip770)" style="stroke:#000000; stroke-width:4; stroke-opacity:1; fill:none" points="
  111.217,85.4953 136.964,85.4953 
  "/>
<path clip-path="url(#clip770)" d="M 0 0 M64.7128 1308.47 Q61.1017 1308.47 59.273 1312.03 Q57.4675 1315.58 57.4675 1322.71 Q57.4675 1329.81 59.273 1333.38 Q61.1017 1336.92 64.7128 1336.92 Q68.347 1336.92 70.1526 1333.38 Q71.9813 1329.81 71.9813 1322.71 Q71.9813 1315.58 70.1526 1312.03 Q68.347 1308.47 64.7128 1308.47 M64.7128 1304.77 Q70.5229 1304.77 73.5785 1309.37 Q76.6572 1313.96 76.6572 1322.71 Q76.6572 1331.43 73.5785 1336.04 Q70.5229 1340.62 64.7128 1340.62 Q58.9026 1340.62 55.824 1336.04 Q52.7684 1331.43 52.7684 1322.71 Q52.7684 1313.96 55.824 1309.37 Q58.9026 1304.77 64.7128 1304.77 Z" fill="#000000" fill-rule="evenodd" fill-opacity="1" /><path clip-path="url(#clip770)" d="M 0 0 M60.3378 1026.72 L76.6572 1026.72 L76.6572 1030.66 L54.7128 1030.66 L54.7128 1026.72 Q57.3749 1023.97 61.9582 1019.34 Q66.5646 1014.69 67.7452 1013.34 Q69.9905 1010.82 70.8702 1009.08 Q71.7729 1007.32 71.7729 1005.63 Q71.7729 1002.88 69.8285 1001.14 Q67.9072 999.408 64.8054 999.408 Q62.6063 999.408 60.1526 1000.17 Q57.7221 1000.94 54.9443 1002.49 L54.9443 997.764 Q57.7684 996.63 60.2221 996.051 Q62.6758 995.472 64.7128 995.472 Q70.0831 995.472 73.2776 998.158 Q76.472 1000.84 76.472 1005.33 Q76.472 1007.46 75.6618 1009.38 Q74.8748 1011.28 72.7683 1013.88 Q72.1896 1014.55 69.0878 1017.76 Q65.9859 1020.96 60.3378 1026.72 Z" fill="#000000" fill-rule="evenodd" fill-opacity="1" /><path clip-path="url(#clip770)" d="M 0 0 M67.0739 690.877 L55.2684 709.326 L67.0739 709.326 L67.0739 690.877 M65.847 686.803 L71.7266 686.803 L71.7266 709.326 L76.6572 709.326 L76.6572 713.215 L71.7266 713.215 L71.7266 721.363 L67.0739 721.363 L67.0739 713.215 L51.4721 713.215 L51.4721 708.701 L65.847 686.803 Z" fill="#000000" fill-rule="evenodd" fill-opacity="1" /><path clip-path="url(#clip770)" d="M 0 0 M65.1295 392.926 Q61.9813 392.926 60.1295 395.079 Q58.3008 397.231 58.3008 400.981 Q58.3008 404.708 60.1295 406.884 Q61.9813 409.037 65.1295 409.037 Q68.2776 409.037 70.1063 406.884 Q71.9581 404.708 71.9581 400.981 Q71.9581 397.231 70.1063 395.079 Q68.2776 392.926 65.1295 392.926 M74.4118 378.273 L74.4118 382.532 Q72.6526 381.699 70.847 381.259 Q69.0646 380.819 67.3054 380.819 Q62.6758 380.819 60.2221 383.944 Q57.7915 387.069 57.4443 393.389 Q58.81 391.375 60.8702 390.31 Q62.9304 389.222 65.4072 389.222 Q70.6155 389.222 73.6248 392.393 Q76.6572 395.542 76.6572 400.981 Q76.6572 406.305 73.509 409.523 Q70.3609 412.741 65.1295 412.741 Q59.1341 412.741 55.9628 408.157 Q52.7916 403.551 52.7916 394.824 Q52.7916 386.63 56.6804 381.769 Q60.5693 376.884 67.1202 376.884 Q68.8794 376.884 70.6618 377.232 Q72.4674 377.579 74.4118 378.273 Z" fill="#000000" fill-rule="evenodd" fill-opacity="1" /><path clip-path="url(#clip770)" d="M 0 0 M64.8054 86.3633 Q61.4721 86.3633 59.5508 88.1457 Q57.6526 89.9281 57.6526 93.0531 Q57.6526 96.1781 59.5508 97.9605 Q61.4721 99.7429 64.8054 99.7429 Q68.1387 99.7429 70.06 97.9605 Q71.9813 96.1549 71.9813 93.0531 Q71.9813 89.9281 70.06 88.1457 Q68.1619 86.3633 64.8054 86.3633 M60.1295 84.3726 Q57.1202 83.6319 55.4304 81.5717 Q53.7638 79.5115 53.7638 76.5486 Q53.7638 72.4051 56.7036 69.9977 Q59.6665 67.5903 64.8054 67.5903 Q69.9674 67.5903 72.9072 69.9977 Q75.847 72.4051 75.847 76.5486 Q75.847 79.5115 74.1572 81.5717 Q72.4905 83.6319 69.5044 84.3726 Q72.884 85.1596 74.759 87.4513 Q76.6572 89.7429 76.6572 93.0531 Q76.6572 98.0762 73.5785 100.761 Q70.5229 103.447 64.8054 103.447 Q59.0878 103.447 56.0091 100.761 Q52.9536 98.0762 52.9536 93.0531 Q52.9536 89.7429 54.8517 87.4513 Q56.7499 85.1596 60.1295 84.3726 M58.4165 76.9884 Q58.4165 79.6735 60.0832 81.1782 Q61.773 82.6828 64.8054 82.6828 Q67.8146 82.6828 69.5044 81.1782 Q71.2174 79.6735 71.2174 76.9884 Q71.2174 74.3032 69.5044 72.7986 Q67.8146 71.294 64.8054 71.294 Q61.773 71.294 60.0832 72.7986 Q58.4165 74.3032 58.4165 76.9884 Z" fill="#000000" fill-rule="evenodd" fill-opacity="1" /><polyline clip-path="url(#clip772)" style="stroke:#0000ff; stroke-width:8; stroke-opacity:1; fill:none" points="
  794.569,1322.67 798.951,1322.66 803.332,1322.66 807.714,1322.64 812.096,1322.62 816.477,1322.58 820.859,1322.51 825.24,1322.4 829.622,1322.23 834.004,1321.97 
  838.385,1321.57 842.767,1321.01 847.148,1320.22 851.53,1319.15 855.912,1317.76 860.293,1316.01 864.675,1313.87 869.056,1311.36 873.438,1308.51 877.819,1305.4 
  882.201,1302.13 886.583,1298.84 890.964,1295.65 895.346,1292.69 899.727,1290.03 904.109,1287.69 908.491,1285.62 912.872,1283.68 917.254,1281.68 921.635,1279.38 
  926.017,1276.55 930.399,1272.93 934.78,1268.36 939.162,1262.74 943.543,1256.02 947.925,1248.28 952.307,1239.63 956.688,1230.2 961.07,1220.15 965.451,1209.6 
  969.833,1198.64 974.214,1187.3 978.596,1175.58 982.978,1163.48 987.359,1150.97 991.741,1138.06 996.122,1124.76 1000.5,1111.15 1004.89,1097.29 1009.27,1083.24 
  1013.65,1069.05 1018.03,1054.74 1022.41,1040.29 1026.79,1025.63 1031.18,1010.68 1035.56,995.352 1039.94,979.593 1044.32,963.369 1048.7,946.691 1053.08,929.612 
  1057.46,912.207 1061.85,894.563 1066.23,876.751 1070.61,858.809 1074.99,840.73 1079.37,822.457 1083.75,803.887 1088.14,784.888 1092.52,765.318 1096.9,745.053 
  1101.28,724.003 1105.66,702.135 1110.04,679.477 1114.43,656.117 1118.81,632.194 1123.19,607.879 1127.57,583.351 1131.95,558.783 1136.33,534.325 1140.71,510.095 
  1145.1,486.178 1149.48,462.632 1153.86,439.495 1158.24,416.802 1162.62,394.603 1167,372.972 1171.39,352.03 1175.77,331.947 1180.15,312.946 1184.53,295.282 
  1188.91,279.219 1193.29,264.991 1197.68,252.754 1202.06,242.557 1206.44,234.317 1210.82,227.822 1215.2,222.762 1219.58,218.781 1223.97,215.536 1228.35,212.766 
  1232.73,210.342 1237.11,208.288 1241.49,206.781 1245.87,206.115 1250.25,206.65 1254.64,208.755 1259.02,212.756 1263.4,218.897 1267.78,227.334 1272.16,238.138 
  1276.54,251.325 1280.93,266.878 1285.31,284.772 1289.69,304.981 1294.07,327.472 1298.45,352.178 1302.83,378.979 1307.22,407.673 1311.6,437.967 1315.98,469.481 
  1320.36,501.772 1324.74,534.363 1329.12,566.782 1333.5,598.595 1337.89,629.427 1342.27,658.978 1346.65,687.019 1351.03,713.392 1355.41,738.004 1359.79,760.829 
  1364.18,781.908 1368.56,801.355 1372.94,819.367 1377.32,836.212 1381.7,852.218 1386.08,867.749 1390.47,883.168 1394.85,898.805 1399.23,914.923 1403.61,931.696 
  1407.99,949.204 1412.37,967.433 1416.76,986.291 1421.14,1005.62 1425.52,1025.23 1429.9,1044.9 1434.28,1064.4 1438.66,1083.5 1443.04,1101.96 1447.43,1119.59 
  1451.81,1136.2 1456.19,1151.63 1460.57,1165.76 1464.95,1178.56 1469.33,1190 1473.72,1200.15 1478.1,1209.13 1482.48,1217.1 1486.86,1224.24 1491.24,1230.76 
  1495.62,1236.85 1500.01,1242.67 1504.39,1248.33 1508.77,1253.89 1513.15,1259.36 1517.53,1264.7 1521.91,1269.86 1526.29,1274.74 1530.68,1279.28 1535.06,1283.43 
  1539.44,1287.18 1543.82,1290.54 1548.2,1293.56 1552.58,1296.31 1556.97,1298.86 1561.35,1301.29 1565.73,1303.62 1570.11,1305.9 1574.49,1308.12 1578.87,1310.27 
  1583.26,1312.3 1587.64,1314.18 1592.02,1315.88 1596.4,1317.36 1600.78,1318.63 1605.16,1319.67 1609.55,1320.5 1613.93,1321.14 1618.31,1321.62 1622.69,1321.97 
  1627.07,1322.22 1631.45,1322.38 1635.83,1322.5 1640.22,1322.57 1644.6,1322.61 1648.98,1322.64 1653.36,1322.65 1657.74,1322.66 1662.12,1322.67 1666.51,1322.67 
  
  "/>
<path clip-path="url(#clip772)" d="
M111.217 1322.67 L132.889 1322.67 L154.561 1322.67 L176.234 1322.67 L197.906 1322.67 L219.578 1322.67 L241.25 1322.67 L262.922 1322.67 L284.594 1322.67 L306.266 1322.67 
  L327.938 1322.67 L349.61 1322.67 L371.282 1322.67 L392.955 1322.67 L414.627 1322.67 L436.299 1322.67 L457.971 1322.67 L479.643 1322.67 L501.315 1322.67 L522.987 1322.67 
  L544.659 1322.67 L566.331 1322.67 L588.004 1322.67 L609.676 1322.67 L631.348 1322.67 L653.02 1322.67 L674.692 1322.67 L696.364 1322.67 L718.036 1322.67 L739.708 1322.66 
  L761.38 1322.62 L783.053 1322.54 L804.725 1322.34 L826.397 1321.88 L848.069 1320.87 L869.741 1318.8 L891.413 1314.81 L913.085 1307.51 L934.757 1294.86 L956.429 1274.12 
  L978.102 1241.84 L999.774 1194.17 L1021.45 1127.44 L1043.12 1038.9 L1064.79 927.725 L1086.46 795.998 L1108.13 649.324 L1129.81 496.94 L1151.48 351.037 L1173.15 225.319 
  L1194.82 132.959 L1216.49 84.3925 L1238.17 85.4114 L1259.84 136.053 L1281.51 230.562 L1303.18 358.447 L1324.86 506.365 L1346.53 660.381 L1368.2 808.07 L1389.87 940.046 
  L1411.54 1050.68 L1433.22 1138.02 L1454.89 1203.1 L1476.56 1248.91 L1498.23 1279.4 L1519.9 1298.57 L1541.58 1309.95 L1563.25 1316.32 L1584.92 1319.68 L1606.59 1321.35 
  L1628.26 1322.12 L1649.94 1322.46 L1671.61 1322.59 L1693.28 1322.65 L1714.95 1322.66 L1736.63 1322.67 L1758.3 1322.67 L1779.97 1322.67 L1801.64 1322.67 L1823.31 1322.67 
  L1844.99 1322.67 L1866.66 1322.67 L1888.33 1322.67 L1910 1322.67 L1931.67 1322.67 L1953.35 1322.67 L1975.02 1322.67 L1996.69 1322.67 L2018.36 1322.67 L2040.03 1322.67 
  L2061.71 1322.67 L2083.38 1322.67 L2105.05 1322.67 L2126.72 1322.67 L2148.4 1322.67 L2170.07 1322.67 L2191.74 1322.67 L2213.41 1322.67 L2235.08 1322.67 L2256.76 1322.67 
  L2256.76 1322.67 L2235.08 1322.67 L2213.41 1322.67 L2191.74 1322.67 L2170.07 1322.67 L2148.4 1322.67 L2126.72 1322.67 L2105.05 1322.67 L2083.38 1322.67 L2061.71 1322.67 
  L2040.03 1322.67 L2018.36 1322.67 L1996.69 1322.67 L1975.02 1322.67 L1953.35 1322.67 L1931.67 1322.67 L1910 1322.67 L1888.33 1322.67 L1866.66 1322.67 L1844.99 1322.67 
  L1823.31 1322.67 L1801.64 1322.67 L1779.97 1322.67 L1758.3 1322.67 L1736.63 1322.67 L1714.95 1322.67 L1693.28 1322.67 L1671.61 1322.67 L1649.94 1322.67 L1628.26 1322.67 
  L1606.59 1322.67 L1584.92 1322.67 L1563.25 1322.67 L1541.58 1322.67 L1519.9 1322.67 L1498.23 1322.67 L1476.56 1322.67 L1454.89 1322.67 L1433.22 1322.67 L1411.54 1322.67 
  L1389.87 1322.67 L1368.2 1322.67 L1346.53 1322.67 L1324.86 1322.67 L1303.18 1322.67 L1281.51 1322.67 L1259.84 1322.67 L1238.17 1322.67 L1216.49 1322.67 L1194.82 1322.67 
  L1173.15 1322.67 L1151.48 1322.67 L1129.81 1322.67 L1108.13 1322.67 L1086.46 1322.67 L1064.79 1322.67 L1043.12 1322.67 L1021.45 1322.67 L999.774 1322.67 L978.102 1322.67 
  L956.429 1322.67 L934.757 1322.67 L913.085 1322.67 L891.413 1322.67 L869.741 1322.67 L848.069 1322.67 L826.397 1322.67 L804.725 1322.67 L783.053 1322.67 L761.38 1322.67 
  L739.708 1322.67 L718.036 1322.67 L696.364 1322.67 L674.692 1322.67 L653.02 1322.67 L631.348 1322.67 L609.676 1322.67 L588.004 1322.67 L566.331 1322.67 L544.659 1322.67 
  L522.987 1322.67 L501.315 1322.67 L479.643 1322.67 L457.971 1322.67 L436.299 1322.67 L414.627 1322.67 L392.955 1322.67 L371.282 1322.67 L349.61 1322.67 L327.938 1322.67 
  L306.266 1322.67 L284.594 1322.67 L262.922 1322.67 L241.25 1322.67 L219.578 1322.67 L197.906 1322.67 L176.234 1322.67 L154.561 1322.67 L132.889 1322.67 L111.217 1322.67 
   Z
  " fill="#90ee90" fill-rule="evenodd" fill-opacity="0.3"/>
<polyline clip-path="url(#clip772)" style="stroke:#90ee90; stroke-width:12; stroke-opacity:0.3; fill:none" points="
  111.217,1322.67 132.889,1322.67 154.561,1322.67 176.234,1322.67 197.906,1322.67 219.578,1322.67 241.25,1322.67 262.922,1322.67 284.594,1322.67 306.266,1322.67 
  327.938,1322.67 349.61,1322.67 371.282,1322.67 392.955,1322.67 414.627,1322.67 436.299,1322.67 457.971,1322.67 479.643,1322.67 501.315,1322.67 522.987,1322.67 
  544.659,1322.67 566.331,1322.67 588.004,1322.67 609.676,1322.67 631.348,1322.67 653.02,1322.67 674.692,1322.67 696.364,1322.67 718.036,1322.67 739.708,1322.66 
  761.38,1322.62 783.053,1322.54 804.725,1322.34 826.397,1321.88 848.069,1320.87 869.741,1318.8 891.413,1314.81 913.085,1307.51 934.757,1294.86 956.429,1274.12 
  978.102,1241.84 999.774,1194.17 1021.45,1127.44 1043.12,1038.9 1064.79,927.725 1086.46,795.998 1108.13,649.324 1129.81,496.94 1151.48,351.037 1173.15,225.319 
  1194.82,132.959 1216.49,84.3925 1238.17,85.4114 1259.84,136.053 1281.51,230.562 1303.18,358.447 1324.86,506.365 1346.53,660.381 1368.2,808.07 1389.87,940.046 
  1411.54,1050.68 1433.22,1138.02 1454.89,1203.1 1476.56,1248.91 1498.23,1279.4 1519.9,1298.57 1541.58,1309.95 1563.25,1316.32 1584.92,1319.68 1606.59,1321.35 
  1628.26,1322.12 1649.94,1322.46 1671.61,1322.59 1693.28,1322.65 1714.95,1322.66 1736.63,1322.67 1758.3,1322.67 1779.97,1322.67 1801.64,1322.67 1823.31,1322.67 
  1844.99,1322.67 1866.66,1322.67 1888.33,1322.67 1910,1322.67 1931.67,1322.67 1953.35,1322.67 1975.02,1322.67 1996.69,1322.67 2018.36,1322.67 2040.03,1322.67 
  2061.71,1322.67 2083.38,1322.67 2105.05,1322.67 2126.72,1322.67 2148.4,1322.67 2170.07,1322.67 2191.74,1322.67 2213.41,1322.67 2235.08,1322.67 2256.76,1322.67 
  
  "/>
<polyline clip-path="url(#clip772)" style="stroke:#ff0000; stroke-width:4; stroke-opacity:1; fill:none" points="
  1183.99,2672.4 1183.99,-1265.33 
  "/>
<path clip-path="url(#clip770)" d="
M1615.25 332.917 L2185.24 332.917 L2185.24 90.9966 L1615.25 90.9966  Z
  " fill="#ffffff" fill-rule="evenodd" fill-opacity="1"/>
<polyline clip-path="url(#clip770)" style="stroke:#000000; stroke-width:4; stroke-opacity:1; fill:none" points="
  1615.25,332.917 2185.24,332.917 2185.24,90.9966 1615.25,90.9966 1615.25,332.917 
  "/>
<polyline clip-path="url(#clip770)" style="stroke:#0000ff; stroke-width:4; stroke-opacity:1; fill:none" points="
  1639.09,151.477 1782.12,151.477 
  "/>
<path clip-path="url(#clip770)" d="M 0 0 M1819.81 171.164 Q1818 175.794 1816.29 177.206 Q1814.57 178.618 1811.7 178.618 L1808.3 178.618 L1808.3 175.053 L1810.8 175.053 Q1812.56 175.053 1813.53 174.22 Q1814.51 173.386 1815.69 170.284 L1816.45 168.34 L1805.96 142.831 L1810.48 142.831 L1818.58 163.109 L1826.68 142.831 L1831.2 142.831 L1819.81 171.164 Z" fill="#000000" fill-rule="evenodd" fill-opacity="1" /><path clip-path="url(#clip770)" d="M 0 0 M1837.07 164.821 L1844.71 164.821 L1844.71 138.456 L1836.4 140.123 L1836.4 135.863 L1844.67 134.197 L1849.34 134.197 L1849.34 164.821 L1856.98 164.821 L1856.98 168.757 L1837.07 168.757 L1837.07 164.821 Z" fill="#000000" fill-rule="evenodd" fill-opacity="1" /><path clip-path="url(#clip770)" d="
M1639.09 236.149 L1782.12 236.149 L1782.12 187.765 L1639.09 187.765 L1639.09 236.149  Z
  " fill="#90ee90" fill-rule="evenodd" fill-opacity="0.3"/>
<polyline clip-path="url(#clip770)" style="stroke:#90ee90; stroke-width:12; stroke-opacity:0.3; fill:none" points="
  1639.09,187.765 1782.12,187.765 
  "/>
<path clip-path="url(#clip770)" d="M 0 0 M1833.83 197.339 L1833.83 202.269 Q1831.47 200.07 1828.79 198.982 Q1826.13 197.894 1823.12 197.894 Q1817.19 197.894 1814.04 201.528 Q1810.89 205.14 1810.89 211.991 Q1810.89 218.82 1814.04 222.454 Q1817.19 226.065 1823.12 226.065 Q1826.13 226.065 1828.79 224.977 Q1831.47 223.889 1833.83 221.69 L1833.83 226.575 Q1831.38 228.241 1828.63 229.075 Q1825.89 229.908 1822.84 229.908 Q1814.99 229.908 1810.48 225.116 Q1805.96 220.301 1805.96 211.991 Q1805.96 203.658 1810.48 198.866 Q1814.99 194.052 1822.84 194.052 Q1825.94 194.052 1828.67 194.885 Q1831.43 195.695 1833.83 197.339 Z" fill="#000000" fill-rule="evenodd" fill-opacity="1" /><path clip-path="url(#clip770)" d="M 0 0 M1838.3 193.218 L1842.56 193.218 L1842.56 229.237 L1838.3 229.237 L1838.3 193.218 Z" fill="#000000" fill-rule="evenodd" fill-opacity="1" /><path clip-path="url(#clip770)" d="M 0 0 M1857.07 206.297 Q1853.65 206.297 1851.66 208.982 Q1849.67 211.644 1849.67 216.297 Q1849.67 220.95 1851.63 223.635 Q1853.63 226.297 1857.07 226.297 Q1860.48 226.297 1862.47 223.612 Q1864.46 220.926 1864.46 216.297 Q1864.46 211.69 1862.47 209.005 Q1860.48 206.297 1857.07 206.297 M1857.07 202.686 Q1862.63 202.686 1865.8 206.297 Q1868.97 209.908 1868.97 216.297 Q1868.97 222.663 1865.8 226.297 Q1862.63 229.908 1857.07 229.908 Q1851.5 229.908 1848.32 226.297 Q1845.18 222.663 1845.18 216.297 Q1845.18 209.908 1848.32 206.297 Q1851.5 202.686 1857.07 202.686 Z" fill="#000000" fill-rule="evenodd" fill-opacity="1" /><path clip-path="url(#clip770)" d="M 0 0 M1889.97 204.075 L1889.97 208.102 Q1888.16 207.177 1886.22 206.714 Q1884.27 206.251 1882.19 206.251 Q1879.02 206.251 1877.42 207.223 Q1875.85 208.195 1875.85 210.139 Q1875.85 211.621 1876.98 212.477 Q1878.12 213.311 1881.54 214.075 L1883 214.399 Q1887.54 215.371 1889.44 217.153 Q1891.36 218.913 1891.36 222.084 Q1891.36 225.695 1888.49 227.801 Q1885.64 229.908 1880.64 229.908 Q1878.56 229.908 1876.29 229.491 Q1874.04 229.098 1871.54 228.288 L1871.54 223.889 Q1873.9 225.116 1876.19 225.741 Q1878.49 226.343 1880.73 226.343 Q1883.74 226.343 1885.36 225.325 Q1886.98 224.283 1886.98 222.408 Q1886.98 220.672 1885.8 219.746 Q1884.64 218.82 1880.69 217.964 L1879.2 217.616 Q1875.25 216.783 1873.49 215.07 Q1871.73 213.334 1871.73 210.325 Q1871.73 206.667 1874.32 204.677 Q1876.91 202.686 1881.68 202.686 Q1884.04 202.686 1886.13 203.033 Q1888.21 203.38 1889.97 204.075 Z" fill="#000000" fill-rule="evenodd" fill-opacity="1" /><path clip-path="url(#clip770)" d="M 0 0 M1918 215.209 L1918 217.292 L1898.42 217.292 Q1898.69 221.69 1901.06 224.005 Q1903.44 226.297 1907.68 226.297 Q1910.13 226.297 1912.42 225.695 Q1914.74 225.093 1917 223.889 L1917 227.917 Q1914.71 228.889 1912.31 229.399 Q1909.9 229.908 1907.42 229.908 Q1901.22 229.908 1897.58 226.297 Q1893.97 222.686 1893.97 216.528 Q1893.97 210.163 1897.4 206.436 Q1900.85 202.686 1906.68 202.686 Q1911.91 202.686 1914.94 206.065 Q1918 209.422 1918 215.209 M1913.74 213.959 Q1913.69 210.464 1911.77 208.38 Q1909.88 206.297 1906.73 206.297 Q1903.16 206.297 1901.01 208.311 Q1898.88 210.325 1898.56 213.982 L1913.74 213.959 Z" fill="#000000" fill-rule="evenodd" fill-opacity="1" /><path clip-path="url(#clip770)" d="M 0 0 M1939.53 207.246 L1939.53 193.218 L1943.79 193.218 L1943.79 229.237 L1939.53 229.237 L1939.53 225.348 Q1938.19 227.663 1936.13 228.797 Q1934.09 229.908 1931.22 229.908 Q1926.52 229.908 1923.56 226.158 Q1920.62 222.408 1920.62 216.297 Q1920.62 210.186 1923.56 206.436 Q1926.52 202.686 1931.22 202.686 Q1934.09 202.686 1936.13 203.82 Q1938.19 204.931 1939.53 207.246 M1925.01 216.297 Q1925.01 220.996 1926.94 223.681 Q1928.88 226.343 1932.26 226.343 Q1935.64 226.343 1937.58 223.681 Q1939.53 220.996 1939.53 216.297 Q1939.53 211.598 1937.58 208.936 Q1935.64 206.251 1932.26 206.251 Q1928.88 206.251 1926.94 208.936 Q1925.01 211.598 1925.01 216.297 Z" fill="#000000" fill-rule="evenodd" fill-opacity="1" /><path clip-path="url(#clip770)" d="M 0 0 M1946.1 214.352 L1958.58 214.352 L1958.58 218.149 L1946.1 218.149 L1946.1 214.352 Z" fill="#000000" fill-rule="evenodd" fill-opacity="1" /><path clip-path="url(#clip770)" d="M 0 0 M1976.17 193.218 L1976.17 196.76 L1972.1 196.76 Q1969.81 196.76 1968.9 197.686 Q1968.02 198.612 1968.02 201.019 L1968.02 203.311 L1975.04 203.311 L1975.04 206.621 L1968.02 206.621 L1968.02 229.237 L1963.74 229.237 L1963.74 206.621 L1959.67 206.621 L1959.67 203.311 L1963.74 203.311 L1963.74 201.505 Q1963.74 197.177 1965.75 195.209 Q1967.77 193.218 1972.14 193.218 L1976.17 193.218 Z" fill="#000000" fill-rule="evenodd" fill-opacity="1" /><path clip-path="url(#clip770)" d="M 0 0 M1990.69 206.297 Q1987.26 206.297 1985.27 208.982 Q1983.28 211.644 1983.28 216.297 Q1983.28 220.95 1985.25 223.635 Q1987.24 226.297 1990.69 226.297 Q1994.09 226.297 1996.08 223.612 Q1998.07 220.926 1998.07 216.297 Q1998.07 211.69 1996.08 209.005 Q1994.09 206.297 1990.69 206.297 M1990.69 202.686 Q1996.24 202.686 1999.41 206.297 Q2002.58 209.908 2002.58 216.297 Q2002.58 222.663 1999.41 226.297 Q1996.24 229.908 1990.69 229.908 Q1985.11 229.908 1981.94 226.297 Q1978.79 222.663 1978.79 216.297 Q1978.79 209.908 1981.94 206.297 Q1985.11 202.686 1990.69 202.686 Z" fill="#000000" fill-rule="evenodd" fill-opacity="1" /><path clip-path="url(#clip770)" d="M 0 0 M2022.07 207.292 Q2021.36 206.876 2020.5 206.69 Q2019.67 206.482 2018.65 206.482 Q2015.04 206.482 2013.09 208.843 Q2011.17 211.181 2011.17 215.579 L2011.17 229.237 L2006.89 229.237 L2006.89 203.311 L2011.17 203.311 L2011.17 207.339 Q2012.51 204.977 2014.67 203.843 Q2016.82 202.686 2019.9 202.686 Q2020.34 202.686 2020.87 202.755 Q2021.4 202.802 2022.05 202.917 L2022.07 207.292 Z" fill="#000000" fill-rule="evenodd" fill-opacity="1" /><path clip-path="url(#clip770)" d="M 0 0 M2045.89 208.288 Q2047.49 205.417 2049.71 204.052 Q2051.93 202.686 2054.94 202.686 Q2058.99 202.686 2061.19 205.533 Q2063.39 208.357 2063.39 213.589 L2063.39 229.237 L2059.11 229.237 L2059.11 213.727 Q2059.11 210.001 2057.79 208.195 Q2056.47 206.39 2053.76 206.39 Q2050.45 206.39 2048.53 208.589 Q2046.61 210.788 2046.61 214.584 L2046.61 229.237 L2042.33 229.237 L2042.33 213.727 Q2042.33 209.977 2041.01 208.195 Q2039.69 206.39 2036.93 206.39 Q2033.67 206.39 2031.75 208.612 Q2029.83 210.811 2029.83 214.584 L2029.83 229.237 L2025.55 229.237 L2025.55 203.311 L2029.83 203.311 L2029.83 207.339 Q2031.29 204.954 2033.32 203.82 Q2035.36 202.686 2038.16 202.686 Q2040.99 202.686 2042.95 204.121 Q2044.94 205.556 2045.89 208.288 Z" fill="#000000" fill-rule="evenodd" fill-opacity="1" /><polyline clip-path="url(#clip770)" style="stroke:#ff0000; stroke-width:4; stroke-opacity:1; fill:none" points="
  1639.09,272.437 1782.12,272.437 
  "/>
<path clip-path="url(#clip770)" d="M 0 0 M1805.96 255.157 L1835.2 255.157 L1835.2 259.092 L1822.93 259.092 L1822.93 289.717 L1818.23 289.717 L1818.23 259.092 L1805.96 259.092 L1805.96 255.157 Z" fill="#000000" fill-rule="evenodd" fill-opacity="1" /><path clip-path="url(#clip770)" d="M 0 0 M1847.72 267.772 Q1847.01 267.356 1846.15 267.17 Q1845.32 266.962 1844.3 266.962 Q1840.69 266.962 1838.74 269.323 Q1836.82 271.661 1836.82 276.059 L1836.82 289.717 L1832.54 289.717 L1832.54 263.791 L1836.82 263.791 L1836.82 267.819 Q1838.16 265.457 1840.32 264.323 Q1842.47 263.166 1845.55 263.166 Q1845.99 263.166 1846.52 263.235 Q1847.05 263.282 1847.7 263.397 L1847.72 267.772 Z" fill="#000000" fill-rule="evenodd" fill-opacity="1" /><path clip-path="url(#clip770)" d="M 0 0 M1851.75 279.485 L1851.75 263.791 L1856.01 263.791 L1856.01 279.323 Q1856.01 283.004 1857.45 284.856 Q1858.88 286.684 1861.75 286.684 Q1865.2 286.684 1867.19 284.485 Q1869.2 282.286 1869.2 278.49 L1869.2 263.791 L1873.46 263.791 L1873.46 289.717 L1869.2 289.717 L1869.2 285.735 Q1867.65 288.096 1865.59 289.254 Q1863.56 290.388 1860.85 290.388 Q1856.38 290.388 1854.07 287.61 Q1851.75 284.832 1851.75 279.485 M1862.47 263.166 L1862.47 263.166 Z" fill="#000000" fill-rule="evenodd" fill-opacity="1" /><path clip-path="url(#clip770)" d="M 0 0 M1900.11 275.689 L1900.11 277.772 L1880.52 277.772 Q1880.8 282.17 1883.16 284.485 Q1885.55 286.777 1889.78 286.777 Q1892.24 286.777 1894.53 286.175 Q1896.84 285.573 1899.11 284.369 L1899.11 288.397 Q1896.82 289.369 1894.41 289.879 Q1892.01 290.388 1889.53 290.388 Q1883.32 290.388 1879.69 286.777 Q1876.08 283.166 1876.08 277.008 Q1876.08 270.643 1879.51 266.916 Q1882.95 263.166 1888.79 263.166 Q1894.02 263.166 1897.05 266.545 Q1900.11 269.902 1900.11 275.689 M1895.85 274.439 Q1895.8 270.944 1893.88 268.86 Q1891.98 266.777 1888.83 266.777 Q1885.27 266.777 1883.12 268.791 Q1880.99 270.805 1880.66 274.462 L1895.85 274.439 Z" fill="#000000" fill-rule="evenodd" fill-opacity="1" /><path clip-path="url(#clip770)" d="M 0 0 M1923.76 285.828 L1923.76 299.578 L1919.48 299.578 L1919.48 263.791 L1923.76 263.791 L1923.76 267.726 Q1925.11 265.411 1927.14 264.3 Q1929.2 263.166 1932.05 263.166 Q1936.77 263.166 1939.71 266.916 Q1942.68 270.666 1942.68 276.777 Q1942.68 282.888 1939.71 286.638 Q1936.77 290.388 1932.05 290.388 Q1929.2 290.388 1927.14 289.277 Q1925.11 288.143 1923.76 285.828 M1938.25 276.777 Q1938.25 272.078 1936.31 269.416 Q1934.39 266.731 1931.01 266.731 Q1927.63 266.731 1925.69 269.416 Q1923.76 272.078 1923.76 276.777 Q1923.76 281.476 1925.69 284.161 Q1927.63 286.823 1931.01 286.823 Q1934.39 286.823 1936.31 284.161 Q1938.25 281.476 1938.25 276.777 Z" fill="#000000" fill-rule="evenodd" fill-opacity="1" /><path clip-path="url(#clip770)" d="M 0 0 M1962.17 267.772 Q1961.45 267.356 1960.59 267.17 Q1959.76 266.962 1958.74 266.962 Q1955.13 266.962 1953.19 269.323 Q1951.26 271.661 1951.26 276.059 L1951.26 289.717 L1946.98 289.717 L1946.98 263.791 L1951.26 263.791 L1951.26 267.819 Q1952.61 265.457 1954.76 264.323 Q1956.91 263.166 1959.99 263.166 Q1960.43 263.166 1960.96 263.235 Q1961.5 263.282 1962.14 263.397 L1962.17 267.772 Z" fill="#000000" fill-rule="evenodd" fill-opacity="1" /><path clip-path="url(#clip770)" d="M 0 0 M1975.64 266.777 Q1972.21 266.777 1970.22 269.462 Q1968.23 272.124 1968.23 276.777 Q1968.23 281.43 1970.2 284.115 Q1972.19 286.777 1975.64 286.777 Q1979.04 286.777 1981.03 284.092 Q1983.02 281.406 1983.02 276.777 Q1983.02 272.17 1981.03 269.485 Q1979.04 266.777 1975.64 266.777 M1975.64 263.166 Q1981.19 263.166 1984.37 266.777 Q1987.54 270.388 1987.54 276.777 Q1987.54 283.143 1984.37 286.777 Q1981.19 290.388 1975.64 290.388 Q1970.06 290.388 1966.89 286.777 Q1963.74 283.143 1963.74 276.777 Q1963.74 270.388 1966.89 266.777 Q1970.06 263.166 1975.64 263.166 Z" fill="#000000" fill-rule="evenodd" fill-opacity="1" /><path clip-path="url(#clip770)" d="M 0 0 M2010.62 276.777 Q2010.62 272.078 2008.67 269.416 Q2006.75 266.731 2003.37 266.731 Q1999.99 266.731 1998.05 269.416 Q1996.12 272.078 1996.12 276.777 Q1996.12 281.476 1998.05 284.161 Q1999.99 286.823 2003.37 286.823 Q2006.75 286.823 2008.67 284.161 Q2010.62 281.476 2010.62 276.777 M1996.12 267.726 Q1997.47 265.411 1999.5 264.3 Q2001.56 263.166 2004.41 263.166 Q2009.13 263.166 2012.07 266.916 Q2015.04 270.666 2015.04 276.777 Q2015.04 282.888 2012.07 286.638 Q2009.13 290.388 2004.41 290.388 Q2001.56 290.388 1999.5 289.277 Q1997.47 288.143 1996.12 285.828 L1996.12 289.717 L1991.84 289.717 L1991.84 253.698 L1996.12 253.698 L1996.12 267.726 Z" fill="#000000" fill-rule="evenodd" fill-opacity="1" /><path clip-path="url(#clip770)" d="M 0 0 M2031.29 276.684 Q2026.12 276.684 2024.13 277.865 Q2022.14 279.045 2022.14 281.893 Q2022.14 284.161 2023.62 285.504 Q2025.13 286.823 2027.7 286.823 Q2031.24 286.823 2033.37 284.323 Q2035.52 281.8 2035.52 277.633 L2035.52 276.684 L2031.29 276.684 M2039.78 274.925 L2039.78 289.717 L2035.52 289.717 L2035.52 285.781 Q2034.06 288.143 2031.89 289.277 Q2029.71 290.388 2026.56 290.388 Q2022.58 290.388 2020.22 288.166 Q2017.88 285.92 2017.88 282.17 Q2017.88 277.795 2020.8 275.573 Q2023.74 273.351 2029.55 273.351 L2035.52 273.351 L2035.52 272.934 Q2035.52 269.995 2033.58 268.397 Q2031.66 266.777 2028.16 266.777 Q2025.94 266.777 2023.83 267.309 Q2021.73 267.842 2019.78 268.907 L2019.78 264.971 Q2022.12 264.069 2024.32 263.629 Q2026.52 263.166 2028.6 263.166 Q2034.23 263.166 2037 266.082 Q2039.78 268.999 2039.78 274.925 Z" fill="#000000" fill-rule="evenodd" fill-opacity="1" /><path clip-path="url(#clip770)" d="M 0 0 M2062.86 276.777 Q2062.86 272.078 2060.92 269.416 Q2058.99 266.731 2055.62 266.731 Q2052.24 266.731 2050.29 269.416 Q2048.37 272.078 2048.37 276.777 Q2048.37 281.476 2050.29 284.161 Q2052.24 286.823 2055.62 286.823 Q2058.99 286.823 2060.92 284.161 Q2062.86 281.476 2062.86 276.777 M2048.37 267.726 Q2049.71 265.411 2051.75 264.3 Q2053.81 263.166 2056.66 263.166 Q2061.38 263.166 2064.32 266.916 Q2067.28 270.666 2067.28 276.777 Q2067.28 282.888 2064.32 286.638 Q2061.38 290.388 2056.66 290.388 Q2053.81 290.388 2051.75 289.277 Q2049.71 288.143 2048.37 285.828 L2048.37 289.717 L2044.09 289.717 L2044.09 253.698 L2048.37 253.698 L2048.37 267.726 Z" fill="#000000" fill-rule="evenodd" fill-opacity="1" /><path clip-path="url(#clip770)" d="M 0 0 M2071.75 263.791 L2076.01 263.791 L2076.01 289.717 L2071.75 289.717 L2071.75 263.791 M2071.75 253.698 L2076.01 253.698 L2076.01 259.092 L2071.75 259.092 L2071.75 253.698 Z" fill="#000000" fill-rule="evenodd" fill-opacity="1" /><path clip-path="url(#clip770)" d="M 0 0 M2080.48 253.698 L2084.74 253.698 L2084.74 289.717 L2080.48 289.717 L2080.48 253.698 Z" fill="#000000" fill-rule="evenodd" fill-opacity="1" /><path clip-path="url(#clip770)" d="M 0 0 M2089.2 263.791 L2093.46 263.791 L2093.46 289.717 L2089.2 289.717 L2089.2 263.791 M2089.2 253.698 L2093.46 253.698 L2093.46 259.092 L2089.2 259.092 L2089.2 253.698 Z" fill="#000000" fill-rule="evenodd" fill-opacity="1" /><path clip-path="url(#clip770)" d="M 0 0 M2102.14 256.43 L2102.14 263.791 L2110.92 263.791 L2110.92 267.101 L2102.14 267.101 L2102.14 281.175 Q2102.14 284.346 2103 285.249 Q2103.88 286.152 2106.54 286.152 L2110.92 286.152 L2110.92 289.717 L2106.54 289.717 Q2101.61 289.717 2099.74 287.888 Q2097.86 286.036 2097.86 281.175 L2097.86 267.101 L2094.74 267.101 L2094.74 263.791 L2097.86 263.791 L2097.86 256.43 L2102.14 256.43 Z" fill="#000000" fill-rule="evenodd" fill-opacity="1" /><path clip-path="url(#clip770)" d="M 0 0 M2126.17 292.124 Q2124.36 296.754 2122.65 298.166 Q2120.94 299.578 2118.07 299.578 L2114.67 299.578 L2114.67 296.013 L2117.17 296.013 Q2118.93 296.013 2119.9 295.18 Q2120.87 294.346 2122.05 291.244 L2122.81 289.3 L2112.33 263.791 L2116.84 263.791 L2124.94 284.069 L2133.05 263.791 L2137.56 263.791 L2126.17 292.124 Z" fill="#000000" fill-rule="evenodd" fill-opacity="1" /></svg>
