<?xml version="1.0" encoding="utf-8"?>
<svg xmlns="http://www.w3.org/2000/svg" xmlns:xlink="http://www.w3.org/1999/xlink" width="500" height="250" viewBox="0 0 2000 1000">
<defs>
  <clipPath id="clip3600">
    <rect x="0" y="0" width="2000" height="1000"/>
  </clipPath>
</defs>
<path clip-path="url(#clip3600)" d="
M0 1000 L2000 1000 L2000 0 L0 0  Z
  " fill="#ffffff" fill-rule="evenodd" fill-opacity="1"/>
<defs>
  <clipPath id="clip3601">
    <rect x="400" y="0" width="1401" height="1000"/>
  </clipPath>
</defs>
<path clip-path="url(#clip3600)" d="
M200.227 851.529 L1952.76 851.529 L1952.76 107.004 L200.227 107.004  Z
  " fill="#ffffff" fill-rule="evenodd" fill-opacity="1"/>
<defs>
  <clipPath id="clip3602">
    <rect x="200" y="107" width="1754" height="746"/>
  </clipPath>
</defs>
<polyline clip-path="url(#clip3602)" style="stroke:#000000; stroke-width:2; stroke-opacity:0.1; fill:none" points="
  233.127,851.529 233.127,107.004 
  "/>
<polyline clip-path="url(#clip3602)" style="stroke:#000000; stroke-width:2; stroke-opacity:0.1; fill:none" points="
  650.634,851.529 650.634,107.004 
  "/>
<polyline clip-path="url(#clip3602)" style="stroke:#000000; stroke-width:2; stroke-opacity:0.1; fill:none" points="
  1068.14,851.529 1068.14,107.004 
  "/>
<polyline clip-path="url(#clip3602)" style="stroke:#000000; stroke-width:2; stroke-opacity:0.1; fill:none" points="
  1485.65,851.529 1485.65,107.004 
  "/>
<polyline clip-path="url(#clip3602)" style="stroke:#000000; stroke-width:2; stroke-opacity:0.1; fill:none" points="
  1903.16,851.529 1903.16,107.004 
  "/>
<polyline clip-path="url(#clip3602)" style="stroke:#000000; stroke-width:2; stroke-opacity:0.1; fill:none" points="
  200.227,779.924 1952.76,779.924 
  "/>
<polyline clip-path="url(#clip3602)" style="stroke:#000000; stroke-width:2; stroke-opacity:0.1; fill:none" points="
  200.227,632.569 1952.76,632.569 
  "/>
<polyline clip-path="url(#clip3602)" style="stroke:#000000; stroke-width:2; stroke-opacity:0.1; fill:none" points="
  200.227,485.214 1952.76,485.214 
  "/>
<polyline clip-path="url(#clip3602)" style="stroke:#000000; stroke-width:2; stroke-opacity:0.1; fill:none" points="
  200.227,337.859 1952.76,337.859 
  "/>
<polyline clip-path="url(#clip3602)" style="stroke:#000000; stroke-width:2; stroke-opacity:0.1; fill:none" points="
  200.227,190.504 1952.76,190.504 
  "/>
<polyline clip-path="url(#clip3600)" style="stroke:#000000; stroke-width:4; stroke-opacity:1; fill:none" points="
  200.227,851.529 1952.76,851.529 
  "/>
<polyline clip-path="url(#clip3600)" style="stroke:#000000; stroke-width:4; stroke-opacity:1; fill:none" points="
  200.227,851.529 200.227,107.004 
  "/>
<polyline clip-path="url(#clip3600)" style="stroke:#000000; stroke-width:4; stroke-opacity:1; fill:none" points="
  233.127,851.529 233.127,842.595 
  "/>
<polyline clip-path="url(#clip3600)" style="stroke:#000000; stroke-width:4; stroke-opacity:1; fill:none" points="
  650.634,851.529 650.634,842.595 
  "/>
<polyline clip-path="url(#clip3600)" style="stroke:#000000; stroke-width:4; stroke-opacity:1; fill:none" points="
  1068.14,851.529 1068.14,842.595 
  "/>
<polyline clip-path="url(#clip3600)" style="stroke:#000000; stroke-width:4; stroke-opacity:1; fill:none" points="
  1485.65,851.529 1485.65,842.595 
  "/>
<polyline clip-path="url(#clip3600)" style="stroke:#000000; stroke-width:4; stroke-opacity:1; fill:none" points="
  1903.16,851.529 1903.16,842.595 
  "/>
<polyline clip-path="url(#clip3600)" style="stroke:#000000; stroke-width:4; stroke-opacity:1; fill:none" points="
  200.227,779.924 221.257,779.924 
  "/>
<polyline clip-path="url(#clip3600)" style="stroke:#000000; stroke-width:4; stroke-opacity:1; fill:none" points="
  200.227,632.569 221.257,632.569 
  "/>
<polyline clip-path="url(#clip3600)" style="stroke:#000000; stroke-width:4; stroke-opacity:1; fill:none" points="
  200.227,485.214 221.257,485.214 
  "/>
<polyline clip-path="url(#clip3600)" style="stroke:#000000; stroke-width:4; stroke-opacity:1; fill:none" points="
  200.227,337.859 221.257,337.859 
  "/>
<polyline clip-path="url(#clip3600)" style="stroke:#000000; stroke-width:4; stroke-opacity:1; fill:none" points="
  200.227,190.504 221.257,190.504 
  "/>
<g clip-path="url(#clip3600)">
<text style="fill:#000000; fill-opacity:1; font-family:Arial,Helvetica Neue,Helvetica,sans-serif; font-size:48px; text-anchor:middle;" transform="rotate(0, 233.127, 903.529)" x="233.127" y="903.529">0</text>
</g>
<g clip-path="url(#clip3600)">
<text style="fill:#000000; fill-opacity:1; font-family:Arial,Helvetica Neue,Helvetica,sans-serif; font-size:48px; text-anchor:middle;" transform="rotate(0, 650.634, 903.529)" x="650.634" y="903.529">25</text>
</g>
<g clip-path="url(#clip3600)">
<text style="fill:#000000; fill-opacity:1; font-family:Arial,Helvetica Neue,Helvetica,sans-serif; font-size:48px; text-anchor:middle;" transform="rotate(0, 1068.14, 903.529)" x="1068.14" y="903.529">50</text>
</g>
<g clip-path="url(#clip3600)">
<text style="fill:#000000; fill-opacity:1; font-family:Arial,Helvetica Neue,Helvetica,sans-serif; font-size:48px; text-anchor:middle;" transform="rotate(0, 1485.65, 903.529)" x="1485.65" y="903.529">75</text>
</g>
<g clip-path="url(#clip3600)">
<text style="fill:#000000; fill-opacity:1; font-family:Arial,Helvetica Neue,Helvetica,sans-serif; font-size:48px; text-anchor:middle;" transform="rotate(0, 1903.16, 903.529)" x="1903.16" y="903.529">100</text>
</g>
<g clip-path="url(#clip3600)">
<text style="fill:#000000; fill-opacity:1; font-family:Arial,Helvetica Neue,Helvetica,sans-serif; font-size:48px; text-anchor:end;" transform="rotate(0, 180.227, 797.424)" x="180.227" y="797.424">0.1</text>
</g>
<g clip-path="url(#clip3600)">
<text style="fill:#000000; fill-opacity:1; font-family:Arial,Helvetica Neue,Helvetica,sans-serif; font-size:48px; text-anchor:end;" transform="rotate(0, 180.227, 650.069)" x="180.227" y="650.069">0.2</text>
</g>
<g clip-path="url(#clip3600)">
<text style="fill:#000000; fill-opacity:1; font-family:Arial,Helvetica Neue,Helvetica,sans-serif; font-size:48px; text-anchor:end;" transform="rotate(0, 180.227, 502.714)" x="180.227" y="502.714">0.3</text>
</g>
<g clip-path="url(#clip3600)">
<text style="fill:#000000; fill-opacity:1; font-family:Arial,Helvetica Neue,Helvetica,sans-serif; font-size:48px; text-anchor:end;" transform="rotate(0, 180.227, 355.359)" x="180.227" y="355.359">0.4</text>
</g>
<g clip-path="url(#clip3600)">
<text style="fill:#000000; fill-opacity:1; font-family:Arial,Helvetica Neue,Helvetica,sans-serif; font-size:48px; text-anchor:end;" transform="rotate(0, 180.227, 208.004)" x="180.227" y="208.004">0.5</text>
</g>
<g clip-path="url(#clip3600)">
<text style="fill:#000000; fill-opacity:1; font-family:Arial,Helvetica Neue,Helvetica,sans-serif; font-size:84px; text-anchor:middle;" transform="rotate(0, 1076.49, 73.2)" x="1076.49" y="73.2">Persistence Probability</text>
</g>
<g clip-path="url(#clip3600)">
<text style="fill:#000000; fill-opacity:1; font-family:Arial,Helvetica Neue,Helvetica,sans-serif; font-size:66px; text-anchor:middle;" transform="rotate(0, 1076.49, 981.391)" x="1076.49" y="981.391">Iteration</text>
</g>
<g clip-path="url(#clip3600)">
<text style="fill:#000000; fill-opacity:1; font-family:Arial,Helvetica Neue,Helvetica,sans-serif; font-size:66px; text-anchor:middle;" transform="rotate(-90, 81.7591, 479.267)" x="81.7591" y="479.267">Sample value</text>
</g>
<polyline clip-path="url(#clip3602)" style="stroke:#009af9; stroke-width:4; stroke-opacity:1; fill:none" points="
  249.827,159.917 266.527,160.884 283.228,165.323 299.928,165.648 316.628,167.461 333.328,169.812 350.029,173.781 366.729,173.688 383.429,175.255 400.13,171.291 
  416.83,172.362 433.53,171.72 450.23,171.473 466.931,170.107 483.631,166.24 500.331,164.589 517.032,166.593 533.732,164.864 550.432,163.16 567.133,162.745 
  583.833,162.344 600.533,161.031 617.233,154.236 633.934,155.675 650.634,155.305 667.334,154.619 684.035,152.044 700.735,154.111 717.435,150.748 734.135,149.561 
  750.836,152.058 767.536,154.857 784.236,152.671 800.937,152.154 817.637,153.887 834.337,155.269 851.038,156.639 867.738,158.172 884.438,164.974 901.138,168.297 
  917.839,165.909 934.539,167.616 951.239,166.413 967.94,161.786 984.64,157.938 1001.34,158.349 1018.04,160.09 1034.74,159.018 1051.44,160.434 1068.14,155.856 
  1084.84,152.446 1101.54,149.06 1118.24,149.537 1134.94,147.227 1151.64,148.229 1168.34,146.641 1185.04,145.229 1201.74,144.214 1218.44,140.557 1235.14,137.048 
  1251.84,133.878 1268.54,135.225 1285.25,138.834 1301.95,140.536 1318.65,137.263 1335.35,137.754 1352.05,140.079 1368.75,132.82 1385.45,132.177 1402.15,132.285 
  1418.85,134.612 1435.55,135.253 1452.25,138.3 1468.95,140.226 1485.65,142.623 1502.35,142.344 1519.05,140.109 1535.75,137.771 1552.45,138.254 1569.15,138.743 
  1585.85,140.5 1602.55,142.758 1619.25,142.388 1635.95,137.18 1652.65,136.438 1669.35,135.14 1686.05,135.351 1702.75,128.076 1719.45,131.658 1736.15,129.987 
  1752.85,130.013 1769.55,132.325 1786.25,133.132 1802.95,135.666 1819.65,136.863 1836.35,137.887 1853.06,134.577 1869.76,134.043 1886.46,133.009 1903.16,132.886 
  
  "/>
<polyline clip-path="url(#clip3602)" style="stroke:#e26f46; stroke-width:4; stroke-opacity:1; fill:none" points="
  249.827,820.14 266.527,818.953 283.228,819.888 299.928,820.276 316.628,821.654 333.328,821.437 350.029,820.829 366.729,821.556 383.429,821.018 400.13,821.238 
  416.83,821.169 433.53,820.946 450.23,821.823 466.931,822.17 483.631,821.822 500.331,821.568 517.032,822.251 533.732,822.39 550.432,822.378 567.133,822.398 
  583.833,822.354 600.533,822.934 617.233,823.071 633.934,822.575 650.634,822.225 667.334,821.631 684.035,822.025 700.735,821.487 717.435,822.85 734.135,822.418 
  750.836,822.695 767.536,823.539 784.236,822.052 800.937,822.192 817.637,822.641 834.337,822.18 851.038,822.106 867.738,822.356 884.438,822.137 901.138,821.735 
  917.839,821.858 934.539,821.657 951.239,820.876 967.94,819.892 984.64,819.359 1001.34,819.201 1018.04,818.553 1034.74,817.1 1051.44,816.336 1068.14,816.075 
  1084.84,816.47 1101.54,815.997 1118.24,816.785 1134.94,818.265 1151.64,818.675 1168.34,819.65 1185.04,819.826 1201.74,820.078 1218.44,820.556 1235.14,821.237 
  1251.84,821.115 1268.54,821.725 1285.25,822.788 1301.95,823.566 1318.65,824.241 1335.35,824.026 1352.05,823.056 1368.75,822.688 1385.45,823.384 1402.15,824.383 
  1418.85,826.125 1435.55,825.931 1452.25,825.9 1468.95,825.569 1485.65,826.073 1502.35,826.257 1519.05,826.812 1535.75,827.557 1552.45,825.854 1569.15,826.172 
  1585.85,825.643 1602.55,826.197 1619.25,826.186 1635.95,826.261 1652.65,826.266 1669.35,827.123 1686.05,827.21 1702.75,828.167 1719.45,828.062 1736.15,828.586 
  1752.85,829.623 1769.55,830.306 1786.25,830.376 1802.95,830.457 1819.65,830.101 1836.35,828.396 1853.06,829.894 1869.76,829.147 1886.46,829.503 1903.16,830.214 
  
  "/>
<polyline clip-path="url(#clip3602)" style="stroke:#3da44d; stroke-width:4; stroke-opacity:1; fill:none" points="
  249.827,435.27 266.527,433.849 283.228,434.716 299.928,434.562 316.628,435.171 333.328,432.097 350.029,435.618 366.729,434.313 383.429,433.137 400.13,436.256 
  416.83,434.907 433.53,434.338 450.23,439.277 466.931,439.147 483.631,440.727 500.331,440.627 517.032,441.885 533.732,443.205 550.432,443.429 567.133,443.567 
  583.833,441.704 600.533,440.151 617.233,439.605 633.934,438.161 650.634,436.568 667.334,435.494 684.035,434.265 700.735,432.63 717.435,433.012 734.135,431.775 
  750.836,430.583 767.536,428.37 784.236,428.69 800.937,428.178 817.637,429.149 834.337,429.215 851.038,431.784 867.738,431.208 884.438,428.807 901.138,425.729 
  917.839,425.583 934.539,425.145 951.239,425.845 967.94,430.15 984.64,426.841 1001.34,429.324 1018.04,429.556 1034.74,429.899 1051.44,431.113 1068.14,432.524 
  1084.84,435.29 1101.54,438.52 1118.24,439.912 1134.94,438.645 1151.64,439.996 1168.34,441.236 1185.04,439.711 1201.74,439.02 1218.44,439.723 1235.14,440.142 
  1251.84,440.715 1268.54,442.726 1285.25,441.611 1301.95,444.121 1318.65,442.309 1335.35,443.975 1352.05,447.974 1368.75,449.119 1385.45,451.961 1402.15,453.045 
  1418.85,450.607 1435.55,448.233 1452.25,444.798 1468.95,443.689 1485.65,444.091 1502.35,443.517 1519.05,449.363 1535.75,446.409 1552.45,449.884 1569.15,446.882 
  1585.85,444.648 1602.55,443.332 1619.25,447.047 1635.95,449.024 1652.65,451.539 1669.35,451.779 1686.05,452.92 1702.75,454.505 1719.45,455.456 1736.15,456.28 
  1752.85,458.032 1769.55,456.222 1786.25,455.032 1802.95,457.571 1819.65,460.131 1836.35,458.538 1853.06,455.494 1869.76,456.431 1886.46,459.731 1903.16,461.199 
  
  "/>
<path clip-path="url(#clip3600)" d="
M1100.57 718.458 L1892.76 718.458 L1892.76 476.538 L1100.57 476.538  Z
  " fill="#ffffff" fill-rule="evenodd" fill-opacity="1"/>
<polyline clip-path="url(#clip3600)" style="stroke:#000000; stroke-width:4; stroke-opacity:1; fill:none" points="
  1100.57,718.458 1892.76,718.458 1892.76,476.538 1100.57,476.538 1100.57,718.458 
  "/>
<polyline clip-path="url(#clip3600)" style="stroke:#009af9; stroke-width:4; stroke-opacity:1; fill:none" points="
  1120.57,537.018 1240.57,537.018 
  "/>
<g clip-path="url(#clip3600)">
<text style="fill:#000000; fill-opacity:1; font-family:Arial,Helvetica Neue,Helvetica,sans-serif; font-size:48px; text-anchor:start;" transform="rotate(0, 1260.57, 554.518)" x="1260.57" y="554.518">[&quot;T[1][1]&quot;, &quot;T[2][2]&quot;, &quot;T[3][3]&quot;]</text>
</g>
<polyline clip-path="url(#clip3600)" style="stroke:#e26f46; stroke-width:4; stroke-opacity:1; fill:none" points="
  1120.57,597.498 1240.57,597.498 
  "/>
<g clip-path="url(#clip3600)">
<text style="fill:#000000; fill-opacity:1; font-family:Arial,Helvetica Neue,Helvetica,sans-serif; font-size:48px; text-anchor:start;" transform="rotate(0, 1260.57, 614.998)" x="1260.57" y="614.998">[&quot;T[1][1]&quot;, &quot;T[2][2]&quot;, &quot;T[3][3]&quot;]</text>
</g>
<polyline clip-path="url(#clip3600)" style="stroke:#3da44d; stroke-width:4; stroke-opacity:1; fill:none" points="
  1120.57,657.978 1240.57,657.978 
  "/>
<g clip-path="url(#clip3600)">
<text style="fill:#000000; fill-opacity:1; font-family:Arial,Helvetica Neue,Helvetica,sans-serif; font-size:48px; text-anchor:start;" transform="rotate(0, 1260.57, 675.478)" x="1260.57" y="675.478">[&quot;T[1][1]&quot;, &quot;T[2][2]&quot;, &quot;T[3][3]&quot;]</text>
</g>
</svg>
