<?xml version="1.0" encoding="utf-8"?>
<svg xmlns="http://www.w3.org/2000/svg" xmlns:xlink="http://www.w3.org/1999/xlink" width="600" height="400" viewBox="0 0 2400 1600">
<defs>
  <clipPath id="clip320">
    <rect x="0" y="0" width="2400" height="1600"/>
  </clipPath>
</defs>
<path clip-path="url(#clip320)" d="
M0 1600 L2400 1600 L2400 0 L0 0  Z
  " fill="#ffffff" fill-rule="evenodd" fill-opacity="1"/>
<defs>
  <clipPath id="clip321">
    <rect x="480" y="0" width="1681" height="1600"/>
  </clipPath>
</defs>
<path clip-path="url(#clip320)" d="
M162.964 1423.18 L2352.76 1423.18 L2352.76 47.2441 L162.964 47.2441  Z
  " fill="#ffffff" fill-rule="evenodd" fill-opacity="1"/>
<defs>
  <clipPath id="clip322">
    <rect x="162" y="47" width="2191" height="1377"/>
  </clipPath>
</defs>
<polyline clip-path="url(#clip322)" style="stroke:#000000; stroke-width:2; stroke-opacity:0.1; fill:none" points="
  543.261,1423.18 543.261,47.2441 
  "/>
<polyline clip-path="url(#clip322)" style="stroke:#000000; stroke-width:2; stroke-opacity:0.1; fill:none" points="
  1062.97,1423.18 1062.97,47.2441 
  "/>
<polyline clip-path="url(#clip322)" style="stroke:#000000; stroke-width:2; stroke-opacity:0.1; fill:none" points="
  1582.68,1423.18 1582.68,47.2441 
  "/>
<polyline clip-path="url(#clip322)" style="stroke:#000000; stroke-width:2; stroke-opacity:0.1; fill:none" points="
  2102.39,1423.18 2102.39,47.2441 
  "/>
<polyline clip-path="url(#clip322)" style="stroke:#000000; stroke-width:2; stroke-opacity:0.1; fill:none" points="
  162.964,1384.24 2352.76,1384.24 
  "/>
<polyline clip-path="url(#clip322)" style="stroke:#000000; stroke-width:2; stroke-opacity:0.1; fill:none" points="
  162.964,1126.69 2352.76,1126.69 
  "/>
<polyline clip-path="url(#clip322)" style="stroke:#000000; stroke-width:2; stroke-opacity:0.1; fill:none" points="
  162.964,869.138 2352.76,869.138 
  "/>
<polyline clip-path="url(#clip322)" style="stroke:#000000; stroke-width:2; stroke-opacity:0.1; fill:none" points="
  162.964,611.588 2352.76,611.588 
  "/>
<polyline clip-path="url(#clip322)" style="stroke:#000000; stroke-width:2; stroke-opacity:0.1; fill:none" points="
  162.964,354.038 2352.76,354.038 
  "/>
<polyline clip-path="url(#clip322)" style="stroke:#000000; stroke-width:2; stroke-opacity:0.1; fill:none" points="
  162.964,96.4877 2352.76,96.4877 
  "/>
<polyline clip-path="url(#clip320)" style="stroke:#000000; stroke-width:4; stroke-opacity:1; fill:none" points="
  162.964,1423.18 2352.76,1423.18 
  "/>
<polyline clip-path="url(#clip320)" style="stroke:#000000; stroke-width:4; stroke-opacity:1; fill:none" points="
  162.964,1423.18 162.964,47.2441 
  "/>
<polyline clip-path="url(#clip320)" style="stroke:#000000; stroke-width:4; stroke-opacity:1; fill:none" points="
  543.261,1423.18 543.261,1406.67 
  "/>
<polyline clip-path="url(#clip320)" style="stroke:#000000; stroke-width:4; stroke-opacity:1; fill:none" points="
  1062.97,1423.18 1062.97,1406.67 
  "/>
<polyline clip-path="url(#clip320)" style="stroke:#000000; stroke-width:4; stroke-opacity:1; fill:none" points="
  1582.68,1423.18 1582.68,1406.67 
  "/>
<polyline clip-path="url(#clip320)" style="stroke:#000000; stroke-width:4; stroke-opacity:1; fill:none" points="
  2102.39,1423.18 2102.39,1406.67 
  "/>
<polyline clip-path="url(#clip320)" style="stroke:#000000; stroke-width:4; stroke-opacity:1; fill:none" points="
  162.964,1384.24 189.241,1384.24 
  "/>
<polyline clip-path="url(#clip320)" style="stroke:#000000; stroke-width:4; stroke-opacity:1; fill:none" points="
  162.964,1126.69 189.241,1126.69 
  "/>
<polyline clip-path="url(#clip320)" style="stroke:#000000; stroke-width:4; stroke-opacity:1; fill:none" points="
  162.964,869.138 189.241,869.138 
  "/>
<polyline clip-path="url(#clip320)" style="stroke:#000000; stroke-width:4; stroke-opacity:1; fill:none" points="
  162.964,611.588 189.241,611.588 
  "/>
<polyline clip-path="url(#clip320)" style="stroke:#000000; stroke-width:4; stroke-opacity:1; fill:none" points="
  162.964,354.038 189.241,354.038 
  "/>
<polyline clip-path="url(#clip320)" style="stroke:#000000; stroke-width:4; stroke-opacity:1; fill:none" points="
  162.964,96.4877 189.241,96.4877 
  "/>
<path clip-path="url(#clip320)" d="M 0 0 M537.913 1472.72 L554.233 1472.72 L554.233 1476.65 L532.289 1476.65 L532.289 1472.72 Q534.951 1469.96 539.534 1465.33 Q544.14 1460.68 545.321 1459.34 Q547.566 1456.81 548.446 1455.08 Q549.349 1453.32 549.349 1451.63 Q549.349 1448.87 547.404 1447.14 Q545.483 1445.4 542.381 1445.4 Q540.182 1445.4 537.728 1446.17 Q535.298 1446.93 532.52 1448.48 L532.52 1443.76 Q535.344 1442.62 537.798 1442.05 Q540.251 1441.47 542.288 1441.47 Q547.659 1441.47 550.853 1444.15 Q554.048 1446.84 554.048 1451.33 Q554.048 1453.46 553.237 1455.38 Q552.45 1457.28 550.344 1459.87 Q549.765 1460.54 546.663 1463.76 Q543.562 1466.95 537.913 1472.72 Z" fill="#000000" fill-rule="evenodd" fill-opacity="1" /><path clip-path="url(#clip320)" d="M 0 0 M1065.98 1446.17 L1054.17 1464.61 L1065.98 1464.61 L1065.98 1446.17 M1064.75 1442.09 L1070.63 1442.09 L1070.63 1464.61 L1075.56 1464.61 L1075.56 1468.5 L1070.63 1468.5 L1070.63 1476.65 L1065.98 1476.65 L1065.98 1468.5 L1050.38 1468.5 L1050.38 1463.99 L1064.75 1442.09 Z" fill="#000000" fill-rule="evenodd" fill-opacity="1" /><path clip-path="url(#clip320)" d="M 0 0 M1583.08 1457.51 Q1579.93 1457.51 1578.08 1459.66 Q1576.25 1461.81 1576.25 1465.56 Q1576.25 1469.29 1578.08 1471.47 Q1579.93 1473.62 1583.08 1473.62 Q1586.23 1473.62 1588.06 1471.47 Q1589.91 1469.29 1589.91 1465.56 Q1589.91 1461.81 1588.06 1459.66 Q1586.23 1457.51 1583.08 1457.51 M1592.37 1442.86 L1592.37 1447.11 Q1590.61 1446.28 1588.8 1445.84 Q1587.02 1445.4 1585.26 1445.4 Q1580.63 1445.4 1578.18 1448.53 Q1575.74 1451.65 1575.4 1457.97 Q1576.76 1455.96 1578.82 1454.89 Q1580.88 1453.8 1583.36 1453.8 Q1588.57 1453.8 1591.58 1456.98 Q1594.61 1460.12 1594.61 1465.56 Q1594.61 1470.89 1591.46 1474.11 Q1588.31 1477.32 1583.08 1477.32 Q1577.09 1477.32 1573.92 1472.74 Q1570.74 1468.13 1570.74 1459.41 Q1570.74 1451.21 1574.63 1446.35 Q1578.52 1441.47 1585.07 1441.47 Q1586.83 1441.47 1588.62 1441.81 Q1590.42 1442.16 1592.37 1442.86 Z" fill="#000000" fill-rule="evenodd" fill-opacity="1" /><path clip-path="url(#clip320)" d="M 0 0 M2102.39 1460.24 Q2099.05 1460.24 2097.13 1462.02 Q2095.23 1463.8 2095.23 1466.93 Q2095.23 1470.05 2097.13 1471.84 Q2099.05 1473.62 2102.39 1473.62 Q2105.72 1473.62 2107.64 1471.84 Q2109.56 1470.03 2109.56 1466.93 Q2109.56 1463.8 2107.64 1462.02 Q2105.74 1460.24 2102.39 1460.24 M2097.71 1458.25 Q2094.7 1457.51 2093.01 1455.45 Q2091.34 1453.39 2091.34 1450.43 Q2091.34 1446.28 2094.28 1443.87 Q2097.25 1441.47 2102.39 1441.47 Q2107.55 1441.47 2110.49 1443.87 Q2113.43 1446.28 2113.43 1450.43 Q2113.43 1453.39 2111.74 1455.45 Q2110.07 1457.51 2107.09 1458.25 Q2110.46 1459.04 2112.34 1461.33 Q2114.24 1463.62 2114.24 1466.93 Q2114.24 1471.95 2111.16 1474.64 Q2108.1 1477.32 2102.39 1477.32 Q2096.67 1477.32 2093.59 1474.64 Q2090.53 1471.95 2090.53 1466.93 Q2090.53 1463.62 2092.43 1461.33 Q2094.33 1459.04 2097.71 1458.25 M2096 1450.86 Q2096 1453.55 2097.66 1455.05 Q2099.35 1456.56 2102.39 1456.56 Q2105.4 1456.56 2107.09 1455.05 Q2108.8 1453.55 2108.8 1450.86 Q2108.8 1448.18 2107.09 1446.68 Q2105.4 1445.17 2102.39 1445.17 Q2099.35 1445.17 2097.66 1446.68 Q2096 1448.18 2096 1450.86 Z" fill="#000000" fill-rule="evenodd" fill-opacity="1" /><path clip-path="url(#clip320)" d="M 0 0 M127.02 1370.04 Q123.408 1370.04 121.58 1373.6 Q119.774 1377.14 119.774 1384.27 Q119.774 1391.38 121.58 1394.94 Q123.408 1398.49 127.02 1398.49 Q130.654 1398.49 132.459 1394.94 Q134.288 1391.38 134.288 1384.27 Q134.288 1377.14 132.459 1373.6 Q130.654 1370.04 127.02 1370.04 M127.02 1366.33 Q132.83 1366.33 135.885 1370.94 Q138.964 1375.52 138.964 1384.27 Q138.964 1393 135.885 1397.61 Q132.83 1402.19 127.02 1402.19 Q121.209 1402.19 118.131 1397.61 Q115.075 1393 115.075 1384.27 Q115.075 1375.52 118.131 1370.94 Q121.209 1366.33 127.02 1366.33 Z" fill="#000000" fill-rule="evenodd" fill-opacity="1" /><path clip-path="url(#clip320)" d="M 0 0 M91.0475 1109.41 L109.404 1109.41 L109.404 1113.34 L95.3299 1113.34 L95.3299 1121.82 Q96.3484 1121.47 97.3669 1121.31 Q98.3855 1121.12 99.404 1121.12 Q105.191 1121.12 108.571 1124.29 Q111.95 1127.46 111.95 1132.88 Q111.95 1138.46 108.478 1141.56 Q105.006 1144.64 98.6864 1144.64 Q96.5105 1144.64 94.242 1144.27 Q91.9966 1143.9 89.5892 1143.16 L89.5892 1138.46 Q91.6725 1139.59 93.8947 1140.15 Q96.1169 1140.7 98.5938 1140.7 Q102.598 1140.7 104.936 1138.6 Q107.274 1136.49 107.274 1132.88 Q107.274 1129.27 104.936 1127.16 Q102.598 1125.06 98.5938 1125.06 Q96.7188 1125.06 94.8438 1125.47 Q92.992 1125.89 91.0475 1126.77 L91.0475 1109.41 Z" fill="#000000" fill-rule="evenodd" fill-opacity="1" /><path clip-path="url(#clip320)" d="M 0 0 M127.02 1112.49 Q123.408 1112.49 121.58 1116.05 Q119.774 1119.59 119.774 1126.72 Q119.774 1133.83 121.58 1137.39 Q123.408 1140.94 127.02 1140.94 Q130.654 1140.94 132.459 1137.39 Q134.288 1133.83 134.288 1126.72 Q134.288 1119.59 132.459 1116.05 Q130.654 1112.49 127.02 1112.49 M127.02 1108.78 Q132.83 1108.78 135.885 1113.39 Q138.964 1117.97 138.964 1126.72 Q138.964 1135.45 135.885 1140.06 Q132.83 1144.64 127.02 1144.64 Q121.209 1144.64 118.131 1140.06 Q115.075 1135.45 115.075 1126.72 Q115.075 1117.97 118.131 1113.39 Q121.209 1108.78 127.02 1108.78 Z" fill="#000000" fill-rule="evenodd" fill-opacity="1" /><path clip-path="url(#clip320)" d="M 0 0 M65.0292 882.483 L72.668 882.483 L72.668 856.117 L64.3579 857.784 L64.3579 853.525 L72.6217 851.858 L77.2976 851.858 L77.2976 882.483 L84.9365 882.483 L84.9365 886.418 L65.0292 886.418 L65.0292 882.483 Z" fill="#000000" fill-rule="evenodd" fill-opacity="1" /><path clip-path="url(#clip320)" d="M 0 0 M100.006 854.937 Q96.3947 854.937 94.566 858.502 Q92.7605 862.043 92.7605 869.173 Q92.7605 876.279 94.566 879.844 Q96.3947 883.386 100.006 883.386 Q103.64 883.386 105.446 879.844 Q107.274 876.279 107.274 869.173 Q107.274 862.043 105.446 858.502 Q103.64 854.937 100.006 854.937 M100.006 851.233 Q105.816 851.233 108.872 855.839 Q111.95 860.423 111.95 869.173 Q111.95 877.9 108.872 882.506 Q105.816 887.089 100.006 887.089 Q94.1957 887.089 91.117 882.506 Q88.0614 877.9 88.0614 869.173 Q88.0614 860.423 91.117 855.839 Q94.1957 851.233 100.006 851.233 Z" fill="#000000" fill-rule="evenodd" fill-opacity="1" /><path clip-path="url(#clip320)" d="M 0 0 M127.02 854.937 Q123.408 854.937 121.58 858.502 Q119.774 862.043 119.774 869.173 Q119.774 876.279 121.58 879.844 Q123.408 883.386 127.02 883.386 Q130.654 883.386 132.459 879.844 Q134.288 876.279 134.288 869.173 Q134.288 862.043 132.459 858.502 Q130.654 854.937 127.02 854.937 M127.02 851.233 Q132.83 851.233 135.885 855.839 Q138.964 860.423 138.964 869.173 Q138.964 877.9 135.885 882.506 Q132.83 887.089 127.02 887.089 Q121.209 887.089 118.131 882.506 Q115.075 877.9 115.075 869.173 Q115.075 860.423 118.131 855.839 Q121.209 851.233 127.02 851.233 Z" fill="#000000" fill-rule="evenodd" fill-opacity="1" /><path clip-path="url(#clip320)" d="M 0 0 M66.0245 624.933 L73.6634 624.933 L73.6634 598.567 L65.3532 600.234 L65.3532 595.975 L73.6171 594.308 L78.293 594.308 L78.293 624.933 L85.9318 624.933 L85.9318 628.868 L66.0245 628.868 L66.0245 624.933 Z" fill="#000000" fill-rule="evenodd" fill-opacity="1" /><path clip-path="url(#clip320)" d="M 0 0 M91.0475 594.308 L109.404 594.308 L109.404 598.243 L95.3299 598.243 L95.3299 606.715 Q96.3484 606.368 97.3669 606.206 Q98.3855 606.021 99.404 606.021 Q105.191 606.021 108.571 609.192 Q111.95 612.363 111.95 617.78 Q111.95 623.359 108.478 626.461 Q105.006 629.539 98.6864 629.539 Q96.5105 629.539 94.242 629.169 Q91.9966 628.798 89.5892 628.058 L89.5892 623.359 Q91.6725 624.493 93.8947 625.048 Q96.1169 625.604 98.5938 625.604 Q102.598 625.604 104.936 623.498 Q107.274 621.391 107.274 617.78 Q107.274 614.169 104.936 612.062 Q102.598 609.956 98.5938 609.956 Q96.7188 609.956 94.8438 610.373 Q92.992 610.789 91.0475 611.669 L91.0475 594.308 Z" fill="#000000" fill-rule="evenodd" fill-opacity="1" /><path clip-path="url(#clip320)" d="M 0 0 M127.02 597.387 Q123.408 597.387 121.58 600.951 Q119.774 604.493 119.774 611.623 Q119.774 618.729 121.58 622.294 Q123.408 625.836 127.02 625.836 Q130.654 625.836 132.459 622.294 Q134.288 618.729 134.288 611.623 Q134.288 604.493 132.459 600.951 Q130.654 597.387 127.02 597.387 M127.02 593.683 Q132.83 593.683 135.885 598.289 Q138.964 602.873 138.964 611.623 Q138.964 620.349 135.885 624.956 Q132.83 629.539 127.02 629.539 Q121.209 629.539 118.131 624.956 Q115.075 620.349 115.075 611.623 Q115.075 602.873 118.131 598.289 Q121.209 593.683 127.02 593.683 Z" fill="#000000" fill-rule="evenodd" fill-opacity="1" /><path clip-path="url(#clip320)" d="M 0 0 M68.6171 367.383 L84.9365 367.383 L84.9365 371.318 L62.9921 371.318 L62.9921 367.383 Q65.6541 364.628 70.2375 359.998 Q74.8439 355.346 76.0245 354.003 Q78.2698 351.48 79.1494 349.744 Q80.0522 347.985 80.0522 346.295 Q80.0522 343.54 78.1078 341.804 Q76.1865 340.068 73.0847 340.068 Q70.8856 340.068 68.4319 340.832 Q66.0014 341.596 63.2236 343.147 L63.2236 338.424 Q66.0477 337.29 68.5014 336.711 Q70.955 336.133 72.9921 336.133 Q78.3624 336.133 81.5568 338.818 Q84.7513 341.503 84.7513 345.994 Q84.7513 348.123 83.9411 350.045 Q83.1541 351.943 81.0476 354.535 Q80.4689 355.207 77.367 358.424 Q74.2652 361.619 68.6171 367.383 Z" fill="#000000" fill-rule="evenodd" fill-opacity="1" /><path clip-path="url(#clip320)" d="M 0 0 M100.006 339.836 Q96.3947 339.836 94.566 343.401 Q92.7605 346.943 92.7605 354.073 Q92.7605 361.179 94.566 364.744 Q96.3947 368.285 100.006 368.285 Q103.64 368.285 105.446 364.744 Q107.274 361.179 107.274 354.073 Q107.274 346.943 105.446 343.401 Q103.64 339.836 100.006 339.836 M100.006 336.133 Q105.816 336.133 108.872 340.739 Q111.95 345.323 111.95 354.073 Q111.95 362.799 108.872 367.406 Q105.816 371.989 100.006 371.989 Q94.1957 371.989 91.117 367.406 Q88.0614 362.799 88.0614 354.073 Q88.0614 345.323 91.117 340.739 Q94.1957 336.133 100.006 336.133 Z" fill="#000000" fill-rule="evenodd" fill-opacity="1" /><path clip-path="url(#clip320)" d="M 0 0 M127.02 339.836 Q123.408 339.836 121.58 343.401 Q119.774 346.943 119.774 354.073 Q119.774 361.179 121.58 364.744 Q123.408 368.285 127.02 368.285 Q130.654 368.285 132.459 364.744 Q134.288 361.179 134.288 354.073 Q134.288 346.943 132.459 343.401 Q130.654 339.836 127.02 339.836 M127.02 336.133 Q132.83 336.133 135.885 340.739 Q138.964 345.323 138.964 354.073 Q138.964 362.799 135.885 367.406 Q132.83 371.989 127.02 371.989 Q121.209 371.989 118.131 367.406 Q115.075 362.799 115.075 354.073 Q115.075 345.323 118.131 340.739 Q121.209 336.133 127.02 336.133 Z" fill="#000000" fill-rule="evenodd" fill-opacity="1" /><path clip-path="url(#clip320)" d="M 0 0 M69.6125 109.833 L85.9318 109.833 L85.9318 113.768 L63.9875 113.768 L63.9875 109.833 Q66.6495 107.078 71.2328 102.448 Q75.8393 97.7955 77.0198 96.453 Q79.2652 93.9298 80.1448 92.1937 Q81.0476 90.4345 81.0476 88.7447 Q81.0476 85.99 79.1032 84.2539 Q77.1819 82.5178 74.08 82.5178 Q71.881 82.5178 69.4273 83.2817 Q66.9967 84.0456 64.219 85.5965 L64.219 80.8743 Q67.043 79.7401 69.4967 79.1614 Q71.9504 78.5827 73.9874 78.5827 Q79.3578 78.5827 82.5522 81.2679 Q85.7466 83.953 85.7466 88.4437 Q85.7466 90.5734 84.9365 92.4946 Q84.1494 94.3928 82.0429 96.9854 Q81.4642 97.6567 78.3624 100.874 Q75.2606 104.069 69.6125 109.833 Z" fill="#000000" fill-rule="evenodd" fill-opacity="1" /><path clip-path="url(#clip320)" d="M 0 0 M91.0475 79.2077 L109.404 79.2077 L109.404 83.1428 L95.3299 83.1428 L95.3299 91.615 Q96.3484 91.2678 97.3669 91.1058 Q98.3855 90.9206 99.404 90.9206 Q105.191 90.9206 108.571 94.0919 Q111.95 97.2631 111.95 102.68 Q111.95 108.258 108.478 111.36 Q105.006 114.439 98.6864 114.439 Q96.5105 114.439 94.242 114.069 Q91.9966 113.698 89.5892 112.957 L89.5892 108.258 Q91.6725 109.393 93.8947 109.948 Q96.1169 110.504 98.5938 110.504 Q102.598 110.504 104.936 108.397 Q107.274 106.291 107.274 102.68 Q107.274 99.0687 104.936 96.9622 Q102.598 94.8557 98.5938 94.8557 Q96.7188 94.8557 94.8438 95.2724 Q92.992 95.6891 91.0475 96.5687 L91.0475 79.2077 Z" fill="#000000" fill-rule="evenodd" fill-opacity="1" /><path clip-path="url(#clip320)" d="M 0 0 M127.02 82.2864 Q123.408 82.2864 121.58 85.8512 Q119.774 89.3928 119.774 96.5224 Q119.774 103.629 121.58 107.194 Q123.408 110.735 127.02 110.735 Q130.654 110.735 132.459 107.194 Q134.288 103.629 134.288 96.5224 Q134.288 89.3928 132.459 85.8512 Q130.654 82.2864 127.02 82.2864 M127.02 78.5827 Q132.83 78.5827 135.885 83.1891 Q138.964 87.7724 138.964 96.5224 Q138.964 105.249 135.885 109.856 Q132.83 114.439 127.02 114.439 Q121.209 114.439 118.131 109.856 Q115.075 105.249 115.075 96.5224 Q115.075 87.7724 118.131 83.1891 Q121.209 78.5827 127.02 78.5827 Z" fill="#000000" fill-rule="evenodd" fill-opacity="1" /><path clip-path="url(#clip320)" d="M 0 0 M977.514 1508.52 L986.172 1508.52 L1007.24 1548.28 L1007.24 1508.52 L1013.48 1508.52 L1013.48 1556.04 L1004.82 1556.04 L983.753 1516.29 L983.753 1556.04 L977.514 1556.04 L977.514 1508.52 Z" fill="#000000" fill-rule="evenodd" fill-opacity="1" /><path clip-path="url(#clip320)" d="M 0 0 M1019.02 1541.98 L1019.02 1520.4 L1024.88 1520.4 L1024.88 1541.75 Q1024.88 1546.81 1026.85 1549.36 Q1028.82 1551.87 1032.77 1551.87 Q1037.51 1551.87 1040.25 1548.85 Q1043.02 1545.83 1043.02 1540.61 L1043.02 1520.4 L1048.87 1520.4 L1048.87 1556.04 L1043.02 1556.04 L1043.02 1550.57 Q1040.88 1553.82 1038.05 1555.41 Q1035.25 1556.97 1031.53 1556.97 Q1025.38 1556.97 1022.2 1553.15 Q1019.02 1549.33 1019.02 1541.98 M1033.76 1519.54 L1033.76 1519.54 Z" fill="#000000" fill-rule="evenodd" fill-opacity="1" /><path clip-path="url(#clip320)" d="M 0 0 M1082.77 1527.24 Q1084.97 1523.29 1088.02 1521.41 Q1091.08 1519.54 1095.22 1519.54 Q1100.79 1519.54 1103.81 1523.45 Q1106.83 1527.33 1106.83 1534.53 L1106.83 1556.04 L1100.95 1556.04 L1100.95 1534.72 Q1100.95 1529.59 1099.13 1527.11 Q1097.32 1524.63 1093.59 1524.63 Q1089.04 1524.63 1086.4 1527.65 Q1083.76 1530.68 1083.76 1535.9 L1083.76 1556.04 L1077.87 1556.04 L1077.87 1534.72 Q1077.87 1529.56 1076.06 1527.11 Q1074.24 1524.63 1070.45 1524.63 Q1065.97 1524.63 1063.32 1527.68 Q1060.68 1530.71 1060.68 1535.9 L1060.68 1556.04 L1054.79 1556.04 L1054.79 1520.4 L1060.68 1520.4 L1060.68 1525.93 Q1062.69 1522.66 1065.49 1521.1 Q1068.29 1519.54 1072.14 1519.54 Q1076.02 1519.54 1078.73 1521.51 Q1081.47 1523.48 1082.77 1527.24 Z" fill="#000000" fill-rule="evenodd" fill-opacity="1" /><path clip-path="url(#clip320)" d="M 0 0 M1138.57 1538.25 Q1138.57 1531.79 1135.89 1528.13 Q1133.25 1524.44 1128.6 1524.44 Q1123.96 1524.44 1121.28 1528.13 Q1118.64 1531.79 1118.64 1538.25 Q1118.64 1544.71 1121.28 1548.4 Q1123.96 1552.07 1128.6 1552.07 Q1133.25 1552.07 1135.89 1548.4 Q1138.57 1544.71 1138.57 1538.25 M1118.64 1525.81 Q1120.49 1522.62 1123.29 1521.1 Q1126.12 1519.54 1130.04 1519.54 Q1136.53 1519.54 1140.57 1524.69 Q1144.65 1529.85 1144.65 1538.25 Q1144.65 1546.65 1140.57 1551.81 Q1136.53 1556.97 1130.04 1556.97 Q1126.12 1556.97 1123.29 1555.44 Q1120.49 1553.88 1118.64 1550.7 L1118.64 1556.04 L1112.75 1556.04 L1112.75 1506.52 L1118.64 1506.52 L1118.64 1525.81 Z" fill="#000000" fill-rule="evenodd" fill-opacity="1" /><path clip-path="url(#clip320)" d="M 0 0 M1181.28 1536.76 L1181.28 1539.62 L1154.35 1539.62 Q1154.74 1545.67 1157.98 1548.85 Q1161.26 1552 1167.08 1552 Q1170.46 1552 1173.61 1551.17 Q1176.79 1550.35 1179.91 1548.69 L1179.91 1554.23 Q1176.76 1555.57 1173.45 1556.27 Q1170.14 1556.97 1166.73 1556.97 Q1158.2 1556.97 1153.21 1552 Q1148.24 1547.04 1148.24 1538.57 Q1148.24 1529.82 1152.95 1524.69 Q1157.7 1519.54 1165.72 1519.54 Q1172.91 1519.54 1177.08 1524.18 Q1181.28 1528.8 1181.28 1536.76 M1175.42 1535.04 Q1175.36 1530.23 1172.72 1527.37 Q1170.11 1524.5 1165.78 1524.5 Q1160.88 1524.5 1157.92 1527.27 Q1154.99 1530.04 1154.54 1535.07 L1175.42 1535.04 Z" fill="#000000" fill-rule="evenodd" fill-opacity="1" /><path clip-path="url(#clip320)" d="M 0 0 M1208.08 1525.87 Q1207.09 1525.3 1205.92 1525.04 Q1204.77 1524.76 1203.37 1524.76 Q1198.4 1524.76 1195.73 1528 Q1193.09 1531.22 1193.09 1537.27 L1193.09 1556.04 L1187.2 1556.04 L1187.2 1520.4 L1193.09 1520.4 L1193.09 1525.93 Q1194.93 1522.69 1197.89 1521.13 Q1200.86 1519.54 1205.09 1519.54 Q1205.69 1519.54 1206.43 1519.63 Q1207.16 1519.7 1208.05 1519.85 L1208.08 1525.87 Z" fill="#000000" fill-rule="evenodd" fill-opacity="1" /><path clip-path="url(#clip320)" d="M 0 0 M1248.76 1524.5 Q1244.05 1524.5 1241.31 1528.19 Q1238.57 1531.85 1238.57 1538.25 Q1238.57 1544.65 1241.28 1548.34 Q1244.01 1552 1248.76 1552 Q1253.44 1552 1256.17 1548.31 Q1258.91 1544.62 1258.91 1538.25 Q1258.91 1531.92 1256.17 1528.23 Q1253.44 1524.5 1248.76 1524.5 M1248.76 1519.54 Q1256.4 1519.54 1260.76 1524.5 Q1265.12 1529.47 1265.12 1538.25 Q1265.12 1547 1260.76 1552 Q1256.4 1556.97 1248.76 1556.97 Q1241.09 1556.97 1236.73 1552 Q1232.4 1547 1232.4 1538.25 Q1232.4 1529.47 1236.73 1524.5 Q1241.09 1519.54 1248.76 1519.54 Z" fill="#000000" fill-rule="evenodd" fill-opacity="1" /><path clip-path="url(#clip320)" d="M 0 0 M1289.31 1506.52 L1289.31 1511.39 L1283.7 1511.39 Q1280.55 1511.39 1279.31 1512.66 Q1278.1 1513.93 1278.1 1517.24 L1278.1 1520.4 L1287.75 1520.4 L1287.75 1524.95 L1278.1 1524.95 L1278.1 1556.04 L1272.21 1556.04 L1272.21 1524.95 L1266.61 1524.95 L1266.61 1520.4 L1272.21 1520.4 L1272.21 1517.91 Q1272.21 1511.96 1274.98 1509.26 Q1277.75 1506.52 1283.77 1506.52 L1289.31 1506.52 Z" fill="#000000" fill-rule="evenodd" fill-opacity="1" /><path clip-path="url(#clip320)" d="M 0 0 M1341.82 1521.76 L1341.82 1527.24 Q1339.34 1525.87 1336.83 1525.2 Q1334.34 1524.5 1331.8 1524.5 Q1326.1 1524.5 1322.95 1528.13 Q1319.8 1531.73 1319.8 1538.25 Q1319.8 1544.78 1322.95 1548.4 Q1326.1 1552 1331.8 1552 Q1334.34 1552 1336.83 1551.33 Q1339.34 1550.63 1341.82 1549.26 L1341.82 1554.68 Q1339.37 1555.82 1336.73 1556.39 Q1334.12 1556.97 1331.16 1556.97 Q1323.11 1556.97 1318.37 1551.91 Q1313.62 1546.85 1313.62 1538.25 Q1313.62 1529.53 1318.4 1524.53 Q1323.2 1519.54 1331.54 1519.54 Q1334.25 1519.54 1336.83 1520.11 Q1339.4 1520.65 1341.82 1521.76 Z" fill="#000000" fill-rule="evenodd" fill-opacity="1" /><path clip-path="url(#clip320)" d="M 0 0 M1347.97 1506.52 L1353.82 1506.52 L1353.82 1556.04 L1347.97 1556.04 L1347.97 1506.52 Z" fill="#000000" fill-rule="evenodd" fill-opacity="1" /><path clip-path="url(#clip320)" d="M 0 0 M1359.36 1541.98 L1359.36 1520.4 L1365.22 1520.4 L1365.22 1541.75 Q1365.22 1546.81 1367.19 1549.36 Q1369.16 1551.87 1373.11 1551.87 Q1377.85 1551.87 1380.59 1548.85 Q1383.36 1545.83 1383.36 1540.61 L1383.36 1520.4 L1389.22 1520.4 L1389.22 1556.04 L1383.36 1556.04 L1383.36 1550.57 Q1381.23 1553.82 1378.39 1555.41 Q1375.59 1556.97 1371.87 1556.97 Q1365.73 1556.97 1362.54 1553.15 Q1359.36 1549.33 1359.36 1541.98 M1374.1 1519.54 L1374.1 1519.54 Z" fill="#000000" fill-rule="evenodd" fill-opacity="1" /><path clip-path="url(#clip320)" d="M 0 0 M1418.08 1521.45 L1418.08 1526.98 Q1415.6 1525.71 1412.93 1525.07 Q1410.25 1524.44 1407.39 1524.44 Q1403.03 1524.44 1400.83 1525.77 Q1398.67 1527.11 1398.67 1529.79 Q1398.67 1531.82 1400.23 1533 Q1401.79 1534.15 1406.5 1535.2 L1408.5 1535.64 Q1414.74 1536.98 1417.35 1539.43 Q1419.99 1541.85 1419.99 1546.21 Q1419.99 1551.17 1416.05 1554.07 Q1412.13 1556.97 1405.26 1556.97 Q1402.39 1556.97 1399.27 1556.39 Q1396.19 1555.85 1392.75 1554.74 L1392.75 1548.69 Q1396 1550.38 1399.15 1551.24 Q1402.3 1552.07 1405.39 1552.07 Q1409.52 1552.07 1411.75 1550.66 Q1413.98 1549.23 1413.98 1546.65 Q1413.98 1544.27 1412.36 1542.99 Q1410.76 1541.72 1405.32 1540.54 L1403.28 1540.07 Q1397.84 1538.92 1395.42 1536.56 Q1393 1534.18 1393 1530.04 Q1393 1525.01 1396.57 1522.27 Q1400.13 1519.54 1406.69 1519.54 Q1409.94 1519.54 1412.8 1520.01 Q1415.67 1520.49 1418.08 1521.45 Z" fill="#000000" fill-rule="evenodd" fill-opacity="1" /><path clip-path="url(#clip320)" d="M 0 0 M1431.93 1510.27 L1431.93 1520.4 L1443.99 1520.4 L1443.99 1524.95 L1431.93 1524.95 L1431.93 1544.3 Q1431.93 1548.66 1433.11 1549.9 Q1434.32 1551.14 1437.98 1551.14 L1443.99 1551.14 L1443.99 1556.04 L1437.98 1556.04 Q1431.2 1556.04 1428.62 1553.53 Q1426.04 1550.98 1426.04 1544.3 L1426.04 1524.95 L1421.75 1524.95 L1421.75 1520.4 L1426.04 1520.4 L1426.04 1510.27 L1431.93 1510.27 Z" fill="#000000" fill-rule="evenodd" fill-opacity="1" /><path clip-path="url(#clip320)" d="M 0 0 M1480.63 1536.76 L1480.63 1539.62 L1453.7 1539.62 Q1454.08 1545.67 1457.33 1548.85 Q1460.61 1552 1466.43 1552 Q1469.81 1552 1472.96 1551.17 Q1476.14 1550.35 1479.26 1548.69 L1479.26 1554.23 Q1476.11 1555.57 1472.8 1556.27 Q1469.49 1556.97 1466.08 1556.97 Q1457.55 1556.97 1452.56 1552 Q1447.59 1547.04 1447.59 1538.57 Q1447.59 1529.82 1452.3 1524.69 Q1457.04 1519.54 1465.06 1519.54 Q1472.26 1519.54 1476.43 1524.18 Q1480.63 1528.8 1480.63 1536.76 M1474.77 1535.04 Q1474.71 1530.23 1472.07 1527.37 Q1469.46 1524.5 1465.13 1524.5 Q1460.23 1524.5 1457.27 1527.27 Q1454.34 1530.04 1453.89 1535.07 L1474.77 1535.04 Z" fill="#000000" fill-rule="evenodd" fill-opacity="1" /><path clip-path="url(#clip320)" d="M 0 0 M1507.43 1525.87 Q1506.44 1525.3 1505.26 1525.04 Q1504.12 1524.76 1502.72 1524.76 Q1497.75 1524.76 1495.08 1528 Q1492.44 1531.22 1492.44 1537.27 L1492.44 1556.04 L1486.55 1556.04 L1486.55 1520.4 L1492.44 1520.4 L1492.44 1525.93 Q1494.28 1522.69 1497.24 1521.13 Q1500.2 1519.54 1504.44 1519.54 Q1505.04 1519.54 1505.77 1519.63 Q1506.5 1519.7 1507.4 1519.85 L1507.43 1525.87 Z" fill="#000000" fill-rule="evenodd" fill-opacity="1" /><path clip-path="url(#clip320)" d="M 0 0 M1536.3 1521.45 L1536.3 1526.98 Q1533.81 1525.71 1531.14 1525.07 Q1528.47 1524.44 1525.6 1524.44 Q1521.24 1524.44 1519.04 1525.77 Q1516.88 1527.11 1516.88 1529.79 Q1516.88 1531.82 1518.44 1533 Q1520 1534.15 1524.71 1535.2 L1526.72 1535.64 Q1532.95 1536.98 1535.56 1539.43 Q1538.21 1541.85 1538.21 1546.21 Q1538.21 1551.17 1534.26 1554.07 Q1530.34 1556.97 1523.47 1556.97 Q1520.6 1556.97 1517.49 1556.39 Q1514.4 1555.85 1510.96 1554.74 L1510.96 1548.69 Q1514.21 1550.38 1517.36 1551.24 Q1520.51 1552.07 1523.6 1552.07 Q1527.73 1552.07 1529.96 1550.66 Q1532.19 1549.23 1532.19 1546.65 Q1532.19 1544.27 1530.57 1542.99 Q1528.98 1541.72 1523.53 1540.54 L1521.5 1540.07 Q1516.05 1538.92 1513.63 1536.56 Q1511.22 1534.18 1511.22 1530.04 Q1511.22 1525.01 1514.78 1522.27 Q1518.34 1519.54 1524.9 1519.54 Q1528.15 1519.54 1531.01 1520.01 Q1533.88 1520.49 1536.3 1521.45 Z" fill="#000000" fill-rule="evenodd" fill-opacity="1" /><path clip-path="url(#clip322)" d="
M283.406 1131.84 L283.406 1384.24 L413.334 1384.24 L413.334 1131.84 L283.406 1131.84 L283.406 1131.84  Z
  " fill="#009af9" fill-rule="evenodd" fill-opacity="1"/>
<polyline clip-path="url(#clip322)" style="stroke:#000000; stroke-width:4; stroke-opacity:1; fill:none" points="
  283.406,1131.84 283.406,1384.24 413.334,1384.24 413.334,1131.84 283.406,1131.84 
  "/>
<path clip-path="url(#clip322)" d="
M413.334 1384.24 L413.334 1384.24 L543.261 1384.24 L543.261 1384.24 L413.334 1384.24 L413.334 1384.24  Z
  " fill="#009af9" fill-rule="evenodd" fill-opacity="1"/>
<polyline clip-path="url(#clip322)" style="stroke:#000000; stroke-width:4; stroke-opacity:1; fill:none" points="
  413.334,1384.24 413.334,1384.24 543.261,1384.24 413.334,1384.24 
  "/>
<path clip-path="url(#clip322)" d="
M543.261 261.32 L543.261 1384.24 L673.188 1384.24 L673.188 261.32 L543.261 261.32 L543.261 261.32  Z
  " fill="#009af9" fill-rule="evenodd" fill-opacity="1"/>
<polyline clip-path="url(#clip322)" style="stroke:#000000; stroke-width:4; stroke-opacity:1; fill:none" points="
  543.261,261.32 543.261,1384.24 673.188,1384.24 673.188,261.32 543.261,261.32 
  "/>
<path clip-path="url(#clip322)" d="
M673.188 1384.24 L673.188 1384.24 L803.115 1384.24 L803.115 1384.24 L673.188 1384.24 L673.188 1384.24  Z
  " fill="#009af9" fill-rule="evenodd" fill-opacity="1"/>
<polyline clip-path="url(#clip322)" style="stroke:#000000; stroke-width:4; stroke-opacity:1; fill:none" points="
  673.188,1384.24 673.188,1384.24 803.115,1384.24 673.188,1384.24 
  "/>
<path clip-path="url(#clip322)" d="
M803.115 91.3367 L803.115 1384.24 L933.042 1384.24 L933.042 91.3367 L803.115 91.3367 L803.115 91.3367  Z
  " fill="#009af9" fill-rule="evenodd" fill-opacity="1"/>
<polyline clip-path="url(#clip322)" style="stroke:#000000; stroke-width:4; stroke-opacity:1; fill:none" points="
  803.115,91.3367 803.115,1384.24 933.042,1384.24 933.042,91.3367 803.115,91.3367 
  "/>
<path clip-path="url(#clip322)" d="
M933.042 1384.24 L933.042 1384.24 L1062.97 1384.24 L1062.97 1384.24 L933.042 1384.24 L933.042 1384.24  Z
  " fill="#009af9" fill-rule="evenodd" fill-opacity="1"/>
<polyline clip-path="url(#clip322)" style="stroke:#000000; stroke-width:4; stroke-opacity:1; fill:none" points="
  933.042,1384.24 933.042,1384.24 1062.97,1384.24 933.042,1384.24 
  "/>
<path clip-path="url(#clip322)" d="
M1062.97 86.1857 L1062.97 1384.24 L1192.9 1384.24 L1192.9 86.1857 L1062.97 86.1857 L1062.97 86.1857  Z
  " fill="#009af9" fill-rule="evenodd" fill-opacity="1"/>
<polyline clip-path="url(#clip322)" style="stroke:#000000; stroke-width:4; stroke-opacity:1; fill:none" points="
  1062.97,86.1857 1062.97,1384.24 1192.9,1384.24 1192.9,86.1857 1062.97,86.1857 
  "/>
<path clip-path="url(#clip322)" d="
M1192.9 1384.24 L1192.9 1384.24 L1322.82 1384.24 L1322.82 1384.24 L1192.9 1384.24 L1192.9 1384.24  Z
  " fill="#009af9" fill-rule="evenodd" fill-opacity="1"/>
<polyline clip-path="url(#clip322)" style="stroke:#000000; stroke-width:4; stroke-opacity:1; fill:none" points="
  1192.9,1384.24 1192.9,1384.24 1322.82,1384.24 1192.9,1384.24 
  "/>
<path clip-path="url(#clip322)" d="
M1322.82 678.551 L1322.82 1384.24 L1452.75 1384.24 L1452.75 678.551 L1322.82 678.551 L1322.82 678.551  Z
  " fill="#009af9" fill-rule="evenodd" fill-opacity="1"/>
<polyline clip-path="url(#clip322)" style="stroke:#000000; stroke-width:4; stroke-opacity:1; fill:none" points="
  1322.82,678.551 1322.82,1384.24 1452.75,1384.24 1452.75,678.551 1322.82,678.551 
  "/>
<path clip-path="url(#clip322)" d="
M1452.75 1384.24 L1452.75 1384.24 L1582.68 1384.24 L1582.68 1384.24 L1452.75 1384.24 L1452.75 1384.24  Z
  " fill="#009af9" fill-rule="evenodd" fill-opacity="1"/>
<polyline clip-path="url(#clip322)" style="stroke:#000000; stroke-width:4; stroke-opacity:1; fill:none" points="
  1452.75,1384.24 1452.75,1384.24 1582.68,1384.24 1452.75,1384.24 
  "/>
<path clip-path="url(#clip322)" d="
M1582.68 997.913 L1582.68 1384.24 L1712.6 1384.24 L1712.6 997.913 L1582.68 997.913 L1582.68 997.913  Z
  " fill="#009af9" fill-rule="evenodd" fill-opacity="1"/>
<polyline clip-path="url(#clip322)" style="stroke:#000000; stroke-width:4; stroke-opacity:1; fill:none" points="
  1582.68,997.913 1582.68,1384.24 1712.6,1384.24 1712.6,997.913 1582.68,997.913 
  "/>
<path clip-path="url(#clip322)" d="
M1712.6 1384.24 L1712.6 1384.24 L1842.53 1384.24 L1842.53 1384.24 L1712.6 1384.24 L1712.6 1384.24  Z
  " fill="#009af9" fill-rule="evenodd" fill-opacity="1"/>
<polyline clip-path="url(#clip322)" style="stroke:#000000; stroke-width:4; stroke-opacity:1; fill:none" points="
  1712.6,1384.24 1712.6,1384.24 1842.53,1384.24 1712.6,1384.24 
  "/>
<path clip-path="url(#clip322)" d="
M1842.53 1296.67 L1842.53 1384.24 L1972.46 1384.24 L1972.46 1296.67 L1842.53 1296.67 L1842.53 1296.67  Z
  " fill="#009af9" fill-rule="evenodd" fill-opacity="1"/>
<polyline clip-path="url(#clip322)" style="stroke:#000000; stroke-width:4; stroke-opacity:1; fill:none" points="
  1842.53,1296.67 1842.53,1384.24 1972.46,1384.24 1972.46,1296.67 1842.53,1296.67 
  "/>
<path clip-path="url(#clip322)" d="
M1972.46 1384.24 L1972.46 1384.24 L2102.39 1384.24 L2102.39 1384.24 L1972.46 1384.24 L1972.46 1384.24  Z
  " fill="#009af9" fill-rule="evenodd" fill-opacity="1"/>
<polyline clip-path="url(#clip322)" style="stroke:#000000; stroke-width:4; stroke-opacity:1; fill:none" points="
  1972.46,1384.24 1972.46,1384.24 2102.39,1384.24 1972.46,1384.24 
  "/>
<path clip-path="url(#clip322)" d="
M2102.39 1379.09 L2102.39 1384.24 L2232.31 1384.24 L2232.31 1379.09 L2102.39 1379.09 L2102.39 1379.09  Z
  " fill="#009af9" fill-rule="evenodd" fill-opacity="1"/>
<polyline clip-path="url(#clip322)" style="stroke:#000000; stroke-width:4; stroke-opacity:1; fill:none" points="
  2102.39,1379.09 2102.39,1384.24 2232.31,1384.24 2232.31,1379.09 2102.39,1379.09 
  "/>
</svg>
