<?xml version="1.0" encoding="utf-8"?>
<svg xmlns="http://www.w3.org/2000/svg" xmlns:xlink="http://www.w3.org/1999/xlink" width="600" height="400" viewBox="0 0 2400 1600">
<defs>
  <clipPath id="clip4800">
    <rect x="0" y="0" width="2400" height="1600"/>
  </clipPath>
</defs>
<path clip-path="url(#clip4800)" d="
M0 1600 L2400 1600 L2400 0 L0 0  Z
  " fill="#ffffff" fill-rule="evenodd" fill-opacity="1"/>
<defs>
  <clipPath id="clip4801">
    <rect x="480" y="0" width="1681" height="1600"/>
  </clipPath>
</defs>
<path clip-path="url(#clip4800)" d="
M175.611 1425.62 L2352.76 1425.62 L2352.76 47.2441 L175.611 47.2441  Z
  " fill="#ffffff" fill-rule="evenodd" fill-opacity="1"/>
<defs>
  <clipPath id="clip4802">
    <rect x="175" y="47" width="2178" height="1379"/>
  </clipPath>
</defs>
<polyline clip-path="url(#clip4802)" style="stroke:#000000; stroke-width:2; stroke-opacity:0.1; fill:none" points="
  235.172,1425.62 235.172,47.2441 
  "/>
<polyline clip-path="url(#clip4802)" style="stroke:#000000; stroke-width:2; stroke-opacity:0.1; fill:none" points="
  749.164,1425.62 749.164,47.2441 
  "/>
<polyline clip-path="url(#clip4802)" style="stroke:#000000; stroke-width:2; stroke-opacity:0.1; fill:none" points="
  1263.16,1425.62 1263.16,47.2441 
  "/>
<polyline clip-path="url(#clip4802)" style="stroke:#000000; stroke-width:2; stroke-opacity:0.1; fill:none" points="
  1777.15,1425.62 1777.15,47.2441 
  "/>
<polyline clip-path="url(#clip4802)" style="stroke:#000000; stroke-width:2; stroke-opacity:0.1; fill:none" points="
  2291.14,1425.62 2291.14,47.2441 
  "/>
<polyline clip-path="url(#clip4802)" style="stroke:#000000; stroke-width:2; stroke-opacity:0.1; fill:none" points="
  175.611,1200.84 2352.76,1200.84 
  "/>
<polyline clip-path="url(#clip4802)" style="stroke:#000000; stroke-width:2; stroke-opacity:0.1; fill:none" points="
  175.611,829.314 2352.76,829.314 
  "/>
<polyline clip-path="url(#clip4802)" style="stroke:#000000; stroke-width:2; stroke-opacity:0.1; fill:none" points="
  175.611,457.784 2352.76,457.784 
  "/>
<polyline clip-path="url(#clip4802)" style="stroke:#000000; stroke-width:2; stroke-opacity:0.1; fill:none" points="
  175.611,86.2547 2352.76,86.2547 
  "/>
<polyline clip-path="url(#clip4800)" style="stroke:#000000; stroke-width:4; stroke-opacity:1; fill:none" points="
  175.611,1425.62 2352.76,1425.62 
  "/>
<polyline clip-path="url(#clip4800)" style="stroke:#000000; stroke-width:4; stroke-opacity:1; fill:none" points="
  175.611,1425.62 175.611,47.2441 
  "/>
<polyline clip-path="url(#clip4800)" style="stroke:#000000; stroke-width:4; stroke-opacity:1; fill:none" points="
  235.172,1425.62 235.172,1409.08 
  "/>
<polyline clip-path="url(#clip4800)" style="stroke:#000000; stroke-width:4; stroke-opacity:1; fill:none" points="
  749.164,1425.62 749.164,1409.08 
  "/>
<polyline clip-path="url(#clip4800)" style="stroke:#000000; stroke-width:4; stroke-opacity:1; fill:none" points="
  1263.16,1425.62 1263.16,1409.08 
  "/>
<polyline clip-path="url(#clip4800)" style="stroke:#000000; stroke-width:4; stroke-opacity:1; fill:none" points="
  1777.15,1425.62 1777.15,1409.08 
  "/>
<polyline clip-path="url(#clip4800)" style="stroke:#000000; stroke-width:4; stroke-opacity:1; fill:none" points="
  2291.14,1425.62 2291.14,1409.08 
  "/>
<polyline clip-path="url(#clip4800)" style="stroke:#000000; stroke-width:4; stroke-opacity:1; fill:none" points="
  175.611,1200.84 201.736,1200.84 
  "/>
<polyline clip-path="url(#clip4800)" style="stroke:#000000; stroke-width:4; stroke-opacity:1; fill:none" points="
  175.611,829.314 201.736,829.314 
  "/>
<polyline clip-path="url(#clip4800)" style="stroke:#000000; stroke-width:4; stroke-opacity:1; fill:none" points="
  175.611,457.784 201.736,457.784 
  "/>
<polyline clip-path="url(#clip4800)" style="stroke:#000000; stroke-width:4; stroke-opacity:1; fill:none" points="
  175.611,86.2547 201.736,86.2547 
  "/>
<g clip-path="url(#clip4800)">
<text style="fill:#000000; fill-opacity:1; font-family:Arial,Helvetica Neue,Helvetica,sans-serif; font-size:48px; text-anchor:middle;" transform="rotate(0, 235.172, 1479.62)" x="235.172" y="1479.62">0</text>
</g>
<g clip-path="url(#clip4800)">
<text style="fill:#000000; fill-opacity:1; font-family:Arial,Helvetica Neue,Helvetica,sans-serif; font-size:48px; text-anchor:middle;" transform="rotate(0, 749.164, 1479.62)" x="749.164" y="1479.62">250</text>
</g>
<g clip-path="url(#clip4800)">
<text style="fill:#000000; fill-opacity:1; font-family:Arial,Helvetica Neue,Helvetica,sans-serif; font-size:48px; text-anchor:middle;" transform="rotate(0, 1263.16, 1479.62)" x="1263.16" y="1479.62">500</text>
</g>
<g clip-path="url(#clip4800)">
<text style="fill:#000000; fill-opacity:1; font-family:Arial,Helvetica Neue,Helvetica,sans-serif; font-size:48px; text-anchor:middle;" transform="rotate(0, 1777.15, 1479.62)" x="1777.15" y="1479.62">750</text>
</g>
<g clip-path="url(#clip4800)">
<text style="fill:#000000; fill-opacity:1; font-family:Arial,Helvetica Neue,Helvetica,sans-serif; font-size:48px; text-anchor:middle;" transform="rotate(0, 2291.14, 1479.62)" x="2291.14" y="1479.62">1000</text>
</g>
<g clip-path="url(#clip4800)">
<text style="fill:#000000; fill-opacity:1; font-family:Arial,Helvetica Neue,Helvetica,sans-serif; font-size:48px; text-anchor:end;" transform="rotate(0, 151.611, 1218.34)" x="151.611" y="1218.34">2</text>
</g>
<g clip-path="url(#clip4800)">
<text style="fill:#000000; fill-opacity:1; font-family:Arial,Helvetica Neue,Helvetica,sans-serif; font-size:48px; text-anchor:end;" transform="rotate(0, 151.611, 846.814)" x="151.611" y="846.814">4</text>
</g>
<g clip-path="url(#clip4800)">
<text style="fill:#000000; fill-opacity:1; font-family:Arial,Helvetica Neue,Helvetica,sans-serif; font-size:48px; text-anchor:end;" transform="rotate(0, 151.611, 475.284)" x="151.611" y="475.284">6</text>
</g>
<g clip-path="url(#clip4800)">
<text style="fill:#000000; fill-opacity:1; font-family:Arial,Helvetica Neue,Helvetica,sans-serif; font-size:48px; text-anchor:end;" transform="rotate(0, 151.611, 103.755)" x="151.611" y="103.755">8</text>
</g>
<g clip-path="url(#clip4800)">
<text style="fill:#000000; fill-opacity:1; font-family:Arial,Helvetica Neue,Helvetica,sans-serif; font-size:66px; text-anchor:middle;" transform="rotate(0, 1264.18, 1559.48)" x="1264.18" y="1559.48">Iteration</text>
</g>
<g clip-path="url(#clip4800)">
<text style="fill:#000000; fill-opacity:1; font-family:Arial,Helvetica Neue,Helvetica,sans-serif; font-size:66px; text-anchor:middle;" transform="rotate(-90, 89.2861, 736.431)" x="89.2861" y="736.431">Number of clusters</text>
</g>
<polyline clip-path="url(#clip4802)" style="stroke:#009af9; stroke-width:4; stroke-opacity:1; fill:none" points="
  237.228,1015.08 239.284,1015.08 241.34,1015.08 243.396,829.314 245.452,829.314 247.508,829.314 249.564,1015.08 251.62,1015.08 253.676,829.314 255.732,1015.08 
  257.788,1015.08 259.844,1015.08 261.899,1200.84 263.955,1200.84 266.011,643.549 268.067,643.549 270.123,643.549 272.179,1200.84 274.235,1200.84 276.291,1200.84 
  278.347,1200.84 280.403,1200.84 282.459,1200.84 284.515,1200.84 286.571,1200.84 288.627,1200.84 290.683,1015.08 292.739,1200.84 294.795,1200.84 296.851,643.549 
  298.907,643.549 300.963,457.784 303.019,643.549 305.075,643.549 307.131,643.549 309.187,643.549 311.243,829.314 313.299,1015.08 315.355,829.314 317.411,1200.84 
  319.467,1015.08 321.523,1200.84 323.578,1200.84 325.634,1200.84 327.69,1200.84 329.746,1200.84 331.802,829.314 333.858,829.314 335.914,829.314 337.97,829.314 
  340.026,829.314 342.082,829.314 344.138,829.314 346.194,829.314 348.25,829.314 350.306,643.549 352.362,643.549 354.418,457.784 356.474,829.314 358.53,829.314 
  360.586,1015.08 362.642,1015.08 364.698,1015.08 366.754,1015.08 368.81,829.314 370.866,829.314 372.922,829.314 374.978,829.314 377.034,1015.08 379.09,1200.84 
  381.146,1015.08 383.202,1015.08 385.257,829.314 387.313,829.314 389.369,829.314 391.425,829.314 393.481,1015.08 395.537,1015.08 397.593,1015.08 399.649,1015.08 
  401.705,643.549 403.761,829.314 405.817,829.314 407.873,1386.61 409.929,1015.08 411.985,1200.84 414.041,829.314 416.097,643.549 418.153,829.314 420.209,829.314 
  422.265,829.314 424.321,829.314 426.377,829.314 428.433,829.314 430.489,829.314 432.545,829.314 434.601,829.314 436.657,829.314 438.713,829.314 440.769,829.314 
  442.825,829.314 444.881,457.784 446.936,272.019 448.992,457.784 451.048,457.784 453.104,457.784 455.16,643.549 457.216,829.314 459.272,829.314 461.328,829.314 
  463.384,829.314 465.44,643.549 467.496,829.314 469.552,1200.84 471.608,1015.08 473.664,829.314 475.72,829.314 477.776,829.314 479.832,829.314 481.888,829.314 
  483.944,457.784 486,457.784 488.056,457.784 490.112,457.784 492.168,457.784 494.224,272.019 496.28,272.019 498.336,272.019 500.392,86.2547 502.448,272.019 
  504.504,457.784 506.56,457.784 508.615,457.784 510.671,457.784 512.727,272.019 514.783,272.019 516.839,272.019 518.895,457.784 520.951,457.784 523.007,457.784 
  525.063,457.784 527.119,457.784 529.175,457.784 531.231,457.784 533.287,457.784 535.343,457.784 537.399,457.784 539.455,457.784 541.511,272.019 543.567,643.549 
  545.623,1015.08 547.679,1015.08 549.735,1015.08 551.791,643.549 553.847,1015.08 555.903,829.314 557.959,643.549 560.015,643.549 562.071,643.549 564.127,643.549 
  566.183,643.549 568.239,643.549 570.294,643.549 572.35,457.784 574.406,643.549 576.462,643.549 578.518,643.549 580.574,643.549 582.63,643.549 584.686,829.314 
  586.742,643.549 588.798,643.549 590.854,643.549 592.91,643.549 594.966,829.314 597.022,829.314 599.078,829.314 601.134,829.314 603.19,829.314 605.246,829.314 
  607.302,829.314 609.358,829.314 611.414,829.314 613.47,829.314 615.526,829.314 617.582,829.314 619.638,457.784 621.694,643.549 623.75,457.784 625.806,457.784 
  627.862,457.784 629.918,1015.08 631.973,457.784 634.029,457.784 636.085,457.784 638.141,1015.08 640.197,1015.08 642.253,1015.08 644.309,1015.08 646.365,1015.08 
  648.421,1015.08 650.477,1015.08 652.533,1200.84 654.589,1200.84 656.645,1200.84 658.701,1200.84 660.757,1015.08 662.813,829.314 664.869,1015.08 666.925,829.314 
  668.981,1015.08 671.037,1015.08 673.093,1015.08 675.149,829.314 677.205,1200.84 679.261,1200.84 681.317,1200.84 683.373,1200.84 685.429,1200.84 687.485,1200.84 
  689.541,1200.84 691.597,1386.61 693.652,1386.61 695.708,1200.84 697.764,1015.08 699.82,1200.84 701.876,1200.84 703.932,829.314 705.988,829.314 708.044,457.784 
  710.1,643.549 712.156,643.549 714.212,643.549 716.268,643.549 718.324,643.549 720.38,643.549 722.436,643.549 724.492,643.549 726.548,643.549 728.604,643.549 
  730.66,643.549 732.716,643.549 734.772,643.549 736.828,1015.08 738.884,1015.08 740.94,1015.08 742.996,829.314 745.052,1015.08 747.108,1200.84 749.164,1200.84 
  751.22,1200.84 753.276,1200.84 755.331,829.314 757.387,829.314 759.443,829.314 761.499,643.549 763.555,829.314 765.611,829.314 767.667,829.314 769.723,829.314 
  771.779,643.549 773.835,1015.08 775.891,1015.08 777.947,1015.08 780.003,1200.84 782.059,1200.84 784.115,1200.84 786.171,1200.84 788.227,643.549 790.283,643.549 
  792.339,1200.84 794.395,1200.84 796.451,1200.84 798.507,829.314 800.563,829.314 802.619,457.784 804.675,829.314 806.731,643.549 808.787,829.314 810.843,829.314 
  812.899,1015.08 814.955,1015.08 817.01,1015.08 819.066,1015.08 821.122,1015.08 823.178,1015.08 825.234,1015.08 827.29,1015.08 829.346,1200.84 831.402,1200.84 
  833.458,643.549 835.514,643.549 837.57,1200.84 839.626,1015.08 841.682,1200.84 843.738,1200.84 845.794,1200.84 847.85,1015.08 849.906,1200.84 851.962,1015.08 
  854.018,1015.08 856.074,1015.08 858.13,1015.08 860.186,1015.08 862.242,1015.08 864.298,1015.08 866.354,1015.08 868.41,1015.08 870.466,1015.08 872.522,1015.08 
  874.578,1015.08 876.634,1015.08 878.689,643.549 880.745,829.314 882.801,829.314 884.857,829.314 886.913,829.314 888.969,829.314 891.025,1015.08 893.081,1015.08 
  895.137,1015.08 897.193,1015.08 899.249,1015.08 901.305,1015.08 903.361,1015.08 905.417,829.314 907.473,1015.08 909.529,1015.08 911.585,1015.08 913.641,1015.08 
  915.697,1015.08 917.753,1015.08 919.809,1015.08 921.865,1015.08 923.921,1015.08 925.977,1015.08 928.033,1015.08 930.089,1015.08 932.145,1015.08 934.201,1015.08 
  936.257,1015.08 938.313,1015.08 940.368,1015.08 942.424,1015.08 944.48,1015.08 946.536,1015.08 948.592,1015.08 950.648,829.314 952.704,1015.08 954.76,1015.08 
  956.816,643.549 958.872,643.549 960.928,829.314 962.984,457.784 965.04,457.784 967.096,643.549 969.152,643.549 971.208,643.549 973.264,643.549 975.32,829.314 
  977.376,643.549 979.432,643.549 981.488,643.549 983.544,272.019 985.6,457.784 987.656,457.784 989.712,457.784 991.768,457.784 993.824,457.784 995.88,643.549 
  997.936,643.549 999.992,1200.84 1002.05,1200.84 1004.1,1015.08 1006.16,1200.84 1008.22,1200.84 1010.27,1200.84 1012.33,1200.84 1014.38,1386.61 1016.44,1200.84 
  1018.5,643.549 1020.55,643.549 1022.61,457.784 1024.66,829.314 1026.72,1200.84 1028.78,1015.08 1030.83,1200.84 1032.89,1200.84 1034.94,1015.08 1037,1015.08 
  1039.05,1015.08 1041.11,1015.08 1043.17,1200.84 1045.22,1200.84 1047.28,643.549 1049.33,829.314 1051.39,829.314 1053.45,1015.08 1055.5,1015.08 1057.56,1015.08 
  1059.61,829.314 1061.67,829.314 1063.73,643.549 1065.78,829.314 1067.84,1200.84 1069.89,1015.08 1071.95,1200.84 1074.01,1200.84 1076.06,1200.84 1078.12,1200.84 
  1080.17,1015.08 1082.23,1015.08 1084.29,1015.08 1086.34,1015.08 1088.4,1015.08 1090.45,829.314 1092.51,1015.08 1094.57,1015.08 1096.62,1015.08 1098.68,1015.08 
  1100.73,829.314 1102.79,1386.61 1104.85,1200.84 1106.9,1200.84 1108.96,1015.08 1111.01,829.314 1113.07,1200.84 1115.13,1200.84 1117.18,1200.84 1119.24,1200.84 
  1121.29,1200.84 1123.35,1200.84 1125.41,1200.84 1127.46,1200.84 1129.52,1015.08 1131.57,1200.84 1133.63,1200.84 1135.69,1200.84 1137.74,1015.08 1139.8,1200.84 
  1141.85,1200.84 1143.91,1200.84 1145.97,1200.84 1148.02,1200.84 1150.08,1200.84 1152.13,1200.84 1154.19,1200.84 1156.24,1200.84 1158.3,1200.84 1160.36,1200.84 
  1162.41,1200.84 1164.47,1200.84 1166.52,1200.84 1168.58,1200.84 1170.64,1200.84 1172.69,1200.84 1174.75,1015.08 1176.8,1200.84 1178.86,1200.84 1180.92,1200.84 
  1182.97,1200.84 1185.03,1200.84 1187.08,1200.84 1189.14,1200.84 1191.2,1200.84 1193.25,1200.84 1195.31,1200.84 1197.36,1200.84 1199.42,1200.84 1201.48,1200.84 
  1203.53,1200.84 1205.59,1015.08 1207.64,1200.84 1209.7,1200.84 1211.76,1200.84 1213.81,1200.84 1215.87,1200.84 1217.92,1200.84 1219.98,1200.84 1222.04,1200.84 
  1224.09,1200.84 1226.15,1200.84 1228.2,1200.84 1230.26,1200.84 1232.32,1015.08 1234.37,1200.84 1236.43,1015.08 1238.48,1015.08 1240.54,1015.08 1242.6,1200.84 
  1244.65,1200.84 1246.71,1200.84 1248.76,1015.08 1250.82,829.314 1252.88,1200.84 1254.93,1200.84 1256.99,1015.08 1259.04,1015.08 1261.1,1200.84 1263.16,1200.84 
  1265.21,1386.61 1267.27,1386.61 1269.32,1386.61 1271.38,1386.61 1273.44,1386.61 1275.49,1386.61 1277.55,1386.61 1279.6,1386.61 1281.66,1386.61 1283.71,1386.61 
  1285.77,1386.61 1287.83,1386.61 1289.88,1015.08 1291.94,1015.08 1293.99,1015.08 1296.05,1015.08 1298.11,1015.08 1300.16,1015.08 1302.22,829.314 1304.27,829.314 
  1306.33,829.314 1308.39,829.314 1310.44,1015.08 1312.5,1015.08 1314.55,829.314 1316.61,643.549 1318.67,643.549 1320.72,643.549 1322.78,643.549 1324.83,829.314 
  1326.89,829.314 1328.95,1015.08 1331,643.549 1333.06,457.784 1335.11,457.784 1337.17,457.784 1339.23,1015.08 1341.28,1015.08 1343.34,829.314 1345.39,1200.84 
  1347.45,1386.61 1349.51,1386.61 1351.56,1200.84 1353.62,1200.84 1355.67,1386.61 1357.73,1200.84 1359.79,1386.61 1361.84,1386.61 1363.9,1386.61 1365.95,1386.61 
  1368.01,1386.61 1370.07,1386.61 1372.12,1386.61 1374.18,1386.61 1376.23,1386.61 1378.29,1015.08 1380.35,1200.84 1382.4,1200.84 1384.46,1200.84 1386.51,1386.61 
  1388.57,1386.61 1390.63,1386.61 1392.68,1386.61 1394.74,457.784 1396.79,457.784 1398.85,643.549 1400.91,829.314 1402.96,829.314 1405.02,829.314 1407.07,1200.84 
  1409.13,1200.84 1411.18,829.314 1413.24,829.314 1415.3,829.314 1417.35,829.314 1419.41,829.314 1421.46,1015.08 1423.52,829.314 1425.58,1200.84 1427.63,1015.08 
  1429.69,829.314 1431.74,1015.08 1433.8,1015.08 1435.86,1015.08 1437.91,1015.08 1439.97,1015.08 1442.02,1015.08 1444.08,829.314 1446.14,829.314 1448.19,829.314 
  1450.25,829.314 1452.3,829.314 1454.36,829.314 1456.42,829.314 1458.47,829.314 1460.53,829.314 1462.58,829.314 1464.64,829.314 1466.7,643.549 1468.75,643.549 
  1470.81,643.549 1472.86,643.549 1474.92,643.549 1476.98,643.549 1479.03,457.784 1481.09,457.784 1483.14,457.784 1485.2,643.549 1487.26,643.549 1489.31,829.314 
  1491.37,829.314 1493.42,829.314 1495.48,829.314 1497.54,829.314 1499.59,643.549 1501.65,829.314 1503.7,829.314 1505.76,829.314 1507.82,829.314 1509.87,829.314 
  1511.93,829.314 1513.98,829.314 1516.04,829.314 1518.1,829.314 1520.15,829.314 1522.21,829.314 1524.26,829.314 1526.32,829.314 1528.37,457.784 1530.43,457.784 
  1532.49,457.784 1534.54,457.784 1536.6,272.019 1538.65,829.314 1540.71,829.314 1542.77,829.314 1544.82,829.314 1546.88,829.314 1548.93,829.314 1550.99,829.314 
  1553.05,829.314 1555.1,643.549 1557.16,829.314 1559.21,1200.84 1561.27,643.549 1563.33,829.314 1565.38,829.314 1567.44,829.314 1569.49,643.549 1571.55,1386.61 
  1573.61,1200.84 1575.66,1200.84 1577.72,1200.84 1579.77,1200.84 1581.83,1200.84 1583.89,1015.08 1585.94,829.314 1588,829.314 1590.05,829.314 1592.11,1200.84 
  1594.17,1200.84 1596.22,1200.84 1598.28,1200.84 1600.33,1200.84 1602.39,1200.84 1604.45,1200.84 1606.5,1200.84 1608.56,1200.84 1610.61,1386.61 1612.67,1386.61 
  1614.73,1200.84 1616.78,1386.61 1618.84,1386.61 1620.89,829.314 1622.95,829.314 1625.01,829.314 1627.06,829.314 1629.12,643.549 1631.17,643.549 1633.23,829.314 
  1635.29,829.314 1637.34,643.549 1639.4,1015.08 1641.45,829.314 1643.51,829.314 1645.57,643.549 1647.62,829.314 1649.68,829.314 1651.73,829.314 1653.79,1015.08 
  1655.84,1015.08 1657.9,457.784 1659.96,457.784 1662.01,457.784 1664.07,457.784 1666.12,829.314 1668.18,643.549 1670.24,829.314 1672.29,643.549 1674.35,643.549 
  1676.4,829.314 1678.46,829.314 1680.52,643.549 1682.57,829.314 1684.63,829.314 1686.68,643.549 1688.74,829.314 1690.8,643.549 1692.85,829.314 1694.91,829.314 
  1696.96,829.314 1699.02,829.314 1701.08,829.314 1703.13,1386.61 1705.19,1386.61 1707.24,1015.08 1709.3,1015.08 1711.36,1015.08 1713.41,1015.08 1715.47,643.549 
  1717.52,643.549 1719.58,643.549 1721.64,1015.08 1723.69,1015.08 1725.75,643.549 1727.8,829.314 1729.86,829.314 1731.92,829.314 1733.97,829.314 1736.03,1015.08 
  1738.08,1015.08 1740.14,1015.08 1742.2,1015.08 1744.25,829.314 1746.31,643.549 1748.36,829.314 1750.42,643.549 1752.48,643.549 1754.53,643.549 1756.59,643.549 
  1758.64,457.784 1760.7,829.314 1762.76,829.314 1764.81,829.314 1766.87,829.314 1768.92,643.549 1770.98,643.549 1773.03,643.549 1775.09,643.549 1777.15,829.314 
  1779.2,1386.61 1781.26,1200.84 1783.31,1386.61 1785.37,643.549 1787.43,829.314 1789.48,1015.08 1791.54,829.314 1793.59,829.314 1795.65,829.314 1797.71,829.314 
  1799.76,643.549 1801.82,643.549 1803.87,829.314 1805.93,829.314 1807.99,829.314 1810.04,829.314 1812.1,1015.08 1814.15,643.549 1816.21,643.549 1818.27,643.549 
  1820.32,643.549 1822.38,643.549 1824.43,643.549 1826.49,643.549 1828.55,643.549 1830.6,457.784 1832.66,643.549 1834.71,457.784 1836.77,643.549 1838.83,643.549 
  1840.88,643.549 1842.94,643.549 1844.99,643.549 1847.05,1015.08 1849.11,1200.84 1851.16,1015.08 1853.22,1015.08 1855.27,1015.08 1857.33,1015.08 1859.39,1015.08 
  1861.44,829.314 1863.5,829.314 1865.55,829.314 1867.61,1015.08 1869.67,272.019 1871.72,272.019 1873.78,272.019 1875.83,457.784 1877.89,643.549 1879.95,829.314 
  1882,1015.08 1884.06,1015.08 1886.11,829.314 1888.17,1200.84 1890.23,1200.84 1892.28,1200.84 1894.34,1200.84 1896.39,1200.84 1898.45,1200.84 1900.5,1015.08 
  1902.56,1200.84 1904.62,1015.08 1906.67,1015.08 1908.73,1386.61 1910.78,1386.61 1912.84,1200.84 1914.9,1015.08 1916.95,1386.61 1919.01,1386.61 1921.06,1200.84 
  1923.12,1200.84 1925.18,457.784 1927.23,272.019 1929.29,457.784 1931.34,272.019 1933.4,457.784 1935.46,1015.08 1937.51,1200.84 1939.57,1015.08 1941.62,1200.84 
  1943.68,1386.61 1945.74,1386.61 1947.79,1386.61 1949.85,1200.84 1951.9,1200.84 1953.96,1015.08 1956.02,1200.84 1958.07,1200.84 1960.13,1015.08 1962.18,1015.08 
  1964.24,1015.08 1966.3,1015.08 1968.35,1015.08 1970.41,1015.08 1972.46,1015.08 1974.52,1015.08 1976.58,1015.08 1978.63,1015.08 1980.69,1015.08 1982.74,829.314 
  1984.8,829.314 1986.86,1015.08 1988.91,829.314 1990.97,829.314 1993.02,829.314 1995.08,1015.08 1997.14,829.314 1999.19,829.314 2001.25,1015.08 2003.3,1015.08 
  2005.36,829.314 2007.42,1015.08 2009.47,829.314 2011.53,829.314 2013.58,1015.08 2015.64,1015.08 2017.7,1015.08 2019.75,1015.08 2021.81,1015.08 2023.86,1015.08 
  2025.92,1015.08 2027.97,829.314 2030.03,829.314 2032.09,643.549 2034.14,1015.08 2036.2,1015.08 2038.25,1015.08 2040.31,1015.08 2042.37,1015.08 2044.42,1015.08 
  2046.48,1015.08 2048.53,829.314 2050.59,829.314 2052.65,829.314 2054.7,829.314 2056.76,829.314 2058.81,829.314 2060.87,829.314 2062.93,829.314 2064.98,829.314 
  2067.04,829.314 2069.09,829.314 2071.15,829.314 2073.21,643.549 2075.26,829.314 2077.32,829.314 2079.37,457.784 2081.43,457.784 2083.49,457.784 2085.54,457.784 
  2087.6,457.784 2089.65,457.784 2091.71,272.019 2093.77,457.784 2095.82,457.784 2097.88,1015.08 2099.93,1015.08 2101.99,1015.08 2104.05,1015.08 2106.1,1200.84 
  2108.16,1200.84 2110.21,1200.84 2112.27,1200.84 2114.33,1015.08 2116.38,1200.84 2118.44,1015.08 2120.49,829.314 2122.55,1015.08 2124.61,829.314 2126.66,1015.08 
  2128.72,1015.08 2130.77,1015.08 2132.83,1015.08 2134.89,1015.08 2136.94,1015.08 2139,1015.08 2141.05,1015.08 2143.11,829.314 2145.16,829.314 2147.22,829.314 
  2149.28,829.314 2151.33,643.549 2153.39,1015.08 2155.44,1015.08 2157.5,1015.08 2159.56,1015.08 2161.61,1015.08 2163.67,1015.08 2165.72,1015.08 2167.78,1200.84 
  2169.84,1015.08 2171.89,643.549 2173.95,1200.84 2176,1200.84 2178.06,1200.84 2180.12,1200.84 2182.17,1200.84 2184.23,1200.84 2186.28,1200.84 2188.34,1200.84 
  2190.4,1015.08 2192.45,1200.84 2194.51,1200.84 2196.56,1200.84 2198.62,1200.84 2200.68,1015.08 2202.73,1200.84 2204.79,1200.84 2206.84,1200.84 2208.9,1200.84 
  2210.96,1200.84 2213.01,1200.84 2215.07,1200.84 2217.12,1200.84 2219.18,1200.84 2221.24,1200.84 2223.29,1200.84 2225.35,1200.84 2227.4,1200.84 2229.46,1200.84 
  2231.52,1200.84 2233.57,1200.84 2235.63,1015.08 2237.68,1015.08 2239.74,1015.08 2241.8,1015.08 2243.85,1015.08 2245.91,1015.08 2247.96,1015.08 2250.02,1015.08 
  2252.08,1200.84 2254.13,1200.84 2256.19,1015.08 2258.24,1015.08 2260.3,829.314 2262.36,829.314 2264.41,829.314 2266.47,829.314 2268.52,1200.84 2270.58,1200.84 
  2272.63,1015.08 2274.69,643.549 2276.75,643.549 2278.8,643.549 2280.86,643.549 2282.91,829.314 2284.97,829.314 2287.03,829.314 2289.08,829.314 2291.14,1200.84 
  
  "/>
<path clip-path="url(#clip4800)" d="
M1874.89 251.724 L2280.76 251.724 L2280.76 130.764 L1874.89 130.764  Z
  " fill="#ffffff" fill-rule="evenodd" fill-opacity="1"/>
<polyline clip-path="url(#clip4800)" style="stroke:#000000; stroke-width:4; stroke-opacity:1; fill:none" points="
  1874.89,251.724 2280.76,251.724 2280.76,130.764 1874.89,130.764 1874.89,251.724 
  "/>
<polyline clip-path="url(#clip4800)" style="stroke:#009af9; stroke-width:4; stroke-opacity:1; fill:none" points="
  1898.89,191.244 2042.89,191.244 
  "/>
<g clip-path="url(#clip4800)">
<text style="fill:#000000; fill-opacity:1; font-family:Arial,Helvetica Neue,Helvetica,sans-serif; font-size:48px; text-anchor:start;" transform="rotate(0, 2066.89, 208.744)" x="2066.89" y="208.744">Chain 1</text>
</g>
</svg>
