<?xml version="1.0" encoding="utf-8"?>
<svg xmlns="http://www.w3.org/2000/svg" xmlns:xlink="http://www.w3.org/1999/xlink" width="600" height="400" viewBox="0 0 2400 1600">
<defs>
  <clipPath id="clip6500">
    <rect x="0" y="0" width="2400" height="1600"/>
  </clipPath>
</defs>
<path clip-path="url(#clip6500)" d="
M0 1600 L2400 1600 L2400 0 L0 0  Z
  " fill="#ffffff" fill-rule="evenodd" fill-opacity="1"/>
<defs>
  <clipPath id="clip6501">
    <rect x="480" y="0" width="1681" height="1600"/>
  </clipPath>
</defs>
<path clip-path="url(#clip6500)" d="
M167.279 1425.62 L2352.76 1425.62 L2352.76 47.2441 L167.279 47.2441  Z
  " fill="#ffffff" fill-rule="evenodd" fill-opacity="1"/>
<defs>
  <clipPath id="clip6502">
    <rect x="167" y="47" width="2186" height="1379"/>
  </clipPath>
</defs>
<polyline clip-path="url(#clip6502)" style="stroke:#000000; stroke-width:2; stroke-opacity:0.1; fill:none" points="
  546.826,1425.62 546.826,47.2441 
  "/>
<polyline clip-path="url(#clip6502)" style="stroke:#000000; stroke-width:2; stroke-opacity:0.1; fill:none" points="
  1065.51,1425.62 1065.51,47.2441 
  "/>
<polyline clip-path="url(#clip6502)" style="stroke:#000000; stroke-width:2; stroke-opacity:0.1; fill:none" points="
  1584.2,1425.62 1584.2,47.2441 
  "/>
<polyline clip-path="url(#clip6502)" style="stroke:#000000; stroke-width:2; stroke-opacity:0.1; fill:none" points="
  2102.88,1425.62 2102.88,47.2441 
  "/>
<polyline clip-path="url(#clip6502)" style="stroke:#000000; stroke-width:2; stroke-opacity:0.1; fill:none" points="
  167.279,1386.61 2352.76,1386.61 
  "/>
<polyline clip-path="url(#clip6502)" style="stroke:#000000; stroke-width:2; stroke-opacity:0.1; fill:none" points="
  167.279,1128.6 2352.76,1128.6 
  "/>
<polyline clip-path="url(#clip6502)" style="stroke:#000000; stroke-width:2; stroke-opacity:0.1; fill:none" points="
  167.279,870.595 2352.76,870.595 
  "/>
<polyline clip-path="url(#clip6502)" style="stroke:#000000; stroke-width:2; stroke-opacity:0.1; fill:none" points="
  167.279,612.588 2352.76,612.588 
  "/>
<polyline clip-path="url(#clip6502)" style="stroke:#000000; stroke-width:2; stroke-opacity:0.1; fill:none" points="
  167.279,354.582 2352.76,354.582 
  "/>
<polyline clip-path="url(#clip6502)" style="stroke:#000000; stroke-width:2; stroke-opacity:0.1; fill:none" points="
  167.279,96.575 2352.76,96.575 
  "/>
<polyline clip-path="url(#clip6500)" style="stroke:#000000; stroke-width:4; stroke-opacity:1; fill:none" points="
  167.279,1425.62 2352.76,1425.62 
  "/>
<polyline clip-path="url(#clip6500)" style="stroke:#000000; stroke-width:4; stroke-opacity:1; fill:none" points="
  167.279,1425.62 167.279,47.2441 
  "/>
<polyline clip-path="url(#clip6500)" style="stroke:#000000; stroke-width:4; stroke-opacity:1; fill:none" points="
  546.826,1425.62 546.826,1409.08 
  "/>
<polyline clip-path="url(#clip6500)" style="stroke:#000000; stroke-width:4; stroke-opacity:1; fill:none" points="
  1065.51,1425.62 1065.51,1409.08 
  "/>
<polyline clip-path="url(#clip6500)" style="stroke:#000000; stroke-width:4; stroke-opacity:1; fill:none" points="
  1584.2,1425.62 1584.2,1409.08 
  "/>
<polyline clip-path="url(#clip6500)" style="stroke:#000000; stroke-width:4; stroke-opacity:1; fill:none" points="
  2102.88,1425.62 2102.88,1409.08 
  "/>
<polyline clip-path="url(#clip6500)" style="stroke:#000000; stroke-width:4; stroke-opacity:1; fill:none" points="
  167.279,1386.61 193.505,1386.61 
  "/>
<polyline clip-path="url(#clip6500)" style="stroke:#000000; stroke-width:4; stroke-opacity:1; fill:none" points="
  167.279,1128.6 193.505,1128.6 
  "/>
<polyline clip-path="url(#clip6500)" style="stroke:#000000; stroke-width:4; stroke-opacity:1; fill:none" points="
  167.279,870.595 193.505,870.595 
  "/>
<polyline clip-path="url(#clip6500)" style="stroke:#000000; stroke-width:4; stroke-opacity:1; fill:none" points="
  167.279,612.588 193.505,612.588 
  "/>
<polyline clip-path="url(#clip6500)" style="stroke:#000000; stroke-width:4; stroke-opacity:1; fill:none" points="
  167.279,354.582 193.505,354.582 
  "/>
<polyline clip-path="url(#clip6500)" style="stroke:#000000; stroke-width:4; stroke-opacity:1; fill:none" points="
  167.279,96.575 193.505,96.575 
  "/>
<g clip-path="url(#clip6500)">
<text style="fill:#000000; fill-opacity:1; font-family:Arial,Helvetica Neue,Helvetica,sans-serif; font-size:48px; text-anchor:middle;" transform="rotate(0, 546.826, 1479.62)" x="546.826" y="1479.62">2</text>
</g>
<g clip-path="url(#clip6500)">
<text style="fill:#000000; fill-opacity:1; font-family:Arial,Helvetica Neue,Helvetica,sans-serif; font-size:48px; text-anchor:middle;" transform="rotate(0, 1065.51, 1479.62)" x="1065.51" y="1479.62">4</text>
</g>
<g clip-path="url(#clip6500)">
<text style="fill:#000000; fill-opacity:1; font-family:Arial,Helvetica Neue,Helvetica,sans-serif; font-size:48px; text-anchor:middle;" transform="rotate(0, 1584.2, 1479.62)" x="1584.2" y="1479.62">6</text>
</g>
<g clip-path="url(#clip6500)">
<text style="fill:#000000; fill-opacity:1; font-family:Arial,Helvetica Neue,Helvetica,sans-serif; font-size:48px; text-anchor:middle;" transform="rotate(0, 2102.88, 1479.62)" x="2102.88" y="1479.62">8</text>
</g>
<g clip-path="url(#clip6500)">
<text style="fill:#000000; fill-opacity:1; font-family:Arial,Helvetica Neue,Helvetica,sans-serif; font-size:48px; text-anchor:end;" transform="rotate(0, 143.279, 1404.11)" x="143.279" y="1404.11">0</text>
</g>
<g clip-path="url(#clip6500)">
<text style="fill:#000000; fill-opacity:1; font-family:Arial,Helvetica Neue,Helvetica,sans-serif; font-size:48px; text-anchor:end;" transform="rotate(0, 143.279, 1146.1)" x="143.279" y="1146.1">50</text>
</g>
<g clip-path="url(#clip6500)">
<text style="fill:#000000; fill-opacity:1; font-family:Arial,Helvetica Neue,Helvetica,sans-serif; font-size:48px; text-anchor:end;" transform="rotate(0, 143.279, 888.095)" x="143.279" y="888.095">100</text>
</g>
<g clip-path="url(#clip6500)">
<text style="fill:#000000; fill-opacity:1; font-family:Arial,Helvetica Neue,Helvetica,sans-serif; font-size:48px; text-anchor:end;" transform="rotate(0, 143.279, 630.088)" x="143.279" y="630.088">150</text>
</g>
<g clip-path="url(#clip6500)">
<text style="fill:#000000; fill-opacity:1; font-family:Arial,Helvetica Neue,Helvetica,sans-serif; font-size:48px; text-anchor:end;" transform="rotate(0, 143.279, 372.082)" x="143.279" y="372.082">200</text>
</g>
<g clip-path="url(#clip6500)">
<text style="fill:#000000; fill-opacity:1; font-family:Arial,Helvetica Neue,Helvetica,sans-serif; font-size:48px; text-anchor:end;" transform="rotate(0, 143.279, 114.075)" x="143.279" y="114.075">250</text>
</g>
<g clip-path="url(#clip6500)">
<text style="fill:#000000; fill-opacity:1; font-family:Arial,Helvetica Neue,Helvetica,sans-serif; font-size:66px; text-anchor:middle;" transform="rotate(0, 1260.02, 1559.48)" x="1260.02" y="1559.48">Number of clusters</text>
</g>
<path clip-path="url(#clip6502)" d="
M287.484 1133.76 L287.484 1386.61 L417.155 1386.61 L417.155 1133.76 L287.484 1133.76 L287.484 1133.76  Z
  " fill="#009af9" fill-rule="evenodd" fill-opacity="1"/>
<polyline clip-path="url(#clip6502)" style="stroke:#000000; stroke-width:4; stroke-opacity:1; fill:none" points="
  287.484,1133.76 287.484,1386.61 417.155,1386.61 417.155,1133.76 287.484,1133.76 
  "/>
<path clip-path="url(#clip6502)" d="
M417.155 1386.61 L417.155 1386.61 L546.826 1386.61 L546.826 1386.61 L417.155 1386.61 L417.155 1386.61  Z
  " fill="#009af9" fill-rule="evenodd" fill-opacity="1"/>
<polyline clip-path="url(#clip6502)" style="stroke:#000000; stroke-width:4; stroke-opacity:1; fill:none" points="
  417.155,1386.61 417.155,1386.61 546.826,1386.61 417.155,1386.61 
  "/>
<path clip-path="url(#clip6502)" d="
M546.826 261.699 L546.826 1386.61 L676.498 1386.61 L676.498 261.699 L546.826 261.699 L546.826 261.699  Z
  " fill="#009af9" fill-rule="evenodd" fill-opacity="1"/>
<polyline clip-path="url(#clip6502)" style="stroke:#000000; stroke-width:4; stroke-opacity:1; fill:none" points="
  546.826,261.699 546.826,1386.61 676.498,1386.61 676.498,261.699 546.826,261.699 
  "/>
<path clip-path="url(#clip6502)" d="
M676.498 1386.61 L676.498 1386.61 L806.169 1386.61 L806.169 1386.61 L676.498 1386.61 L676.498 1386.61  Z
  " fill="#009af9" fill-rule="evenodd" fill-opacity="1"/>
<polyline clip-path="url(#clip6502)" style="stroke:#000000; stroke-width:4; stroke-opacity:1; fill:none" points="
  676.498,1386.61 676.498,1386.61 806.169,1386.61 676.498,1386.61 
  "/>
<path clip-path="url(#clip6502)" d="
M806.169 91.4148 L806.169 1386.61 L935.84 1386.61 L935.84 91.4148 L806.169 91.4148 L806.169 91.4148  Z
  " fill="#009af9" fill-rule="evenodd" fill-opacity="1"/>
<polyline clip-path="url(#clip6502)" style="stroke:#000000; stroke-width:4; stroke-opacity:1; fill:none" points="
  806.169,91.4148 806.169,1386.61 935.84,1386.61 935.84,91.4148 806.169,91.4148 
  "/>
<path clip-path="url(#clip6502)" d="
M935.84 1386.61 L935.84 1386.61 L1065.51 1386.61 L1065.51 1386.61 L935.84 1386.61 L935.84 1386.61  Z
  " fill="#009af9" fill-rule="evenodd" fill-opacity="1"/>
<polyline clip-path="url(#clip6502)" style="stroke:#000000; stroke-width:4; stroke-opacity:1; fill:none" points="
  935.84,1386.61 935.84,1386.61 1065.51,1386.61 935.84,1386.61 
  "/>
<path clip-path="url(#clip6502)" d="
M1065.51 86.2547 L1065.51 1386.61 L1195.18 1386.61 L1195.18 86.2547 L1065.51 86.2547 L1065.51 86.2547  Z
  " fill="#009af9" fill-rule="evenodd" fill-opacity="1"/>
<polyline clip-path="url(#clip6502)" style="stroke:#000000; stroke-width:4; stroke-opacity:1; fill:none" points="
  1065.51,86.2547 1065.51,1386.61 1195.18,1386.61 1195.18,86.2547 1065.51,86.2547 
  "/>
<path clip-path="url(#clip6502)" d="
M1195.18 1386.61 L1195.18 1386.61 L1324.85 1386.61 L1324.85 1386.61 L1195.18 1386.61 L1195.18 1386.61  Z
  " fill="#009af9" fill-rule="evenodd" fill-opacity="1"/>
<polyline clip-path="url(#clip6502)" style="stroke:#000000; stroke-width:4; stroke-opacity:1; fill:none" points="
  1195.18,1386.61 1195.18,1386.61 1324.85,1386.61 1195.18,1386.61 
  "/>
<path clip-path="url(#clip6502)" d="
M1324.85 679.67 L1324.85 1386.61 L1454.52 1386.61 L1454.52 679.67 L1324.85 679.67 L1324.85 679.67  Z
  " fill="#009af9" fill-rule="evenodd" fill-opacity="1"/>
<polyline clip-path="url(#clip6502)" style="stroke:#000000; stroke-width:4; stroke-opacity:1; fill:none" points="
  1324.85,679.67 1324.85,1386.61 1454.52,1386.61 1454.52,679.67 1324.85,679.67 
  "/>
<path clip-path="url(#clip6502)" d="
M1454.52 1386.61 L1454.52 1386.61 L1584.2 1386.61 L1584.2 1386.61 L1454.52 1386.61 L1454.52 1386.61  Z
  " fill="#009af9" fill-rule="evenodd" fill-opacity="1"/>
<polyline clip-path="url(#clip6502)" style="stroke:#000000; stroke-width:4; stroke-opacity:1; fill:none" points="
  1454.52,1386.61 1454.52,1386.61 1584.2,1386.61 1454.52,1386.61 
  "/>
<path clip-path="url(#clip6502)" d="
M1584.2 999.598 L1584.2 1386.61 L1713.87 1386.61 L1713.87 999.598 L1584.2 999.598 L1584.2 999.598  Z
  " fill="#009af9" fill-rule="evenodd" fill-opacity="1"/>
<polyline clip-path="url(#clip6502)" style="stroke:#000000; stroke-width:4; stroke-opacity:1; fill:none" points="
  1584.2,999.598 1584.2,1386.61 1713.87,1386.61 1713.87,999.598 1584.2,999.598 
  "/>
<path clip-path="url(#clip6502)" d="
M1713.87 1386.61 L1713.87 1386.61 L1843.54 1386.61 L1843.54 1386.61 L1713.87 1386.61 L1713.87 1386.61  Z
  " fill="#009af9" fill-rule="evenodd" fill-opacity="1"/>
<polyline clip-path="url(#clip6502)" style="stroke:#000000; stroke-width:4; stroke-opacity:1; fill:none" points="
  1713.87,1386.61 1713.87,1386.61 1843.54,1386.61 1713.87,1386.61 
  "/>
<path clip-path="url(#clip6502)" d="
M1843.54 1298.89 L1843.54 1386.61 L1973.21 1386.61 L1973.21 1298.89 L1843.54 1298.89 L1843.54 1298.89  Z
  " fill="#009af9" fill-rule="evenodd" fill-opacity="1"/>
<polyline clip-path="url(#clip6502)" style="stroke:#000000; stroke-width:4; stroke-opacity:1; fill:none" points="
  1843.54,1298.89 1843.54,1386.61 1973.21,1386.61 1973.21,1298.89 1843.54,1298.89 
  "/>
<path clip-path="url(#clip6502)" d="
M1973.21 1386.61 L1973.21 1386.61 L2102.88 1386.61 L2102.88 1386.61 L1973.21 1386.61 L1973.21 1386.61  Z
  " fill="#009af9" fill-rule="evenodd" fill-opacity="1"/>
<polyline clip-path="url(#clip6502)" style="stroke:#000000; stroke-width:4; stroke-opacity:1; fill:none" points="
  1973.21,1386.61 1973.21,1386.61 2102.88,1386.61 1973.21,1386.61 
  "/>
<path clip-path="url(#clip6502)" d="
M2102.88 1381.45 L2102.88 1386.61 L2232.55 1386.61 L2232.55 1381.45 L2102.88 1381.45 L2102.88 1381.45  Z
  " fill="#009af9" fill-rule="evenodd" fill-opacity="1"/>
<polyline clip-path="url(#clip6502)" style="stroke:#000000; stroke-width:4; stroke-opacity:1; fill:none" points="
  2102.88,1381.45 2102.88,1386.61 2232.55,1386.61 2232.55,1381.45 2102.88,1381.45 
  "/>
</svg>
