<?xml version="1.0" encoding="utf-8"?>
<svg xmlns="http://www.w3.org/2000/svg" xmlns:xlink="http://www.w3.org/1999/xlink" width="576" height="384" viewBox="0 0 2304 1536">
<defs>
  <clipPath id="clip8500">
    <rect x="0" y="0" width="2000" height="2000"/>
  </clipPath>
</defs>
<defs>
  <clipPath id="clip8501">
    <rect x="0" y="0" width="2304" height="1536"/>
  </clipPath>
</defs>
<polygon clip-path="url(#clip8501)" points="
0,1536 2304,1536 2304,0 0,0 
  " fill="#ffffff" fill-rule="evenodd" fill-opacity="1"/>
<defs>
  <clipPath id="clip8502">
    <rect x="460" y="0" width="1614" height="1536"/>
  </clipPath>
</defs>
<polygon clip-path="url(#clip8501)" points="
149.361,1439.47 2225.26,1439.47 2225.26,47.2441 149.361,47.2441 
  " fill="#ffffff" fill-rule="evenodd" fill-opacity="1"/>
<defs>
  <clipPath id="clip8503">
    <rect x="149" y="47" width="2077" height="1393"/>
  </clipPath>
</defs>
<polyline clip-path="url(#clip8503)" style="stroke:#000000; stroke-width:2; stroke-opacity:0.1; fill:none" points="
  384.251,1439.47 384.251,47.2441 
  "/>
<polyline clip-path="url(#clip8503)" style="stroke:#000000; stroke-width:2; stroke-opacity:0.1; fill:none" points="
  789.061,1439.47 789.061,47.2441 
  "/>
<polyline clip-path="url(#clip8503)" style="stroke:#000000; stroke-width:2; stroke-opacity:0.1; fill:none" points="
  1193.87,1439.47 1193.87,47.2441 
  "/>
<polyline clip-path="url(#clip8503)" style="stroke:#000000; stroke-width:2; stroke-opacity:0.1; fill:none" points="
  1598.68,1439.47 1598.68,47.2441 
  "/>
<polyline clip-path="url(#clip8503)" style="stroke:#000000; stroke-width:2; stroke-opacity:0.1; fill:none" points="
  2003.49,1439.47 2003.49,47.2441 
  "/>
<polyline clip-path="url(#clip8503)" style="stroke:#000000; stroke-width:2; stroke-opacity:0.1; fill:none" points="
  149.361,1275.55 2225.26,1275.55 
  "/>
<polyline clip-path="url(#clip8503)" style="stroke:#000000; stroke-width:2; stroke-opacity:0.1; fill:none" points="
  149.361,1010.55 2225.26,1010.55 
  "/>
<polyline clip-path="url(#clip8503)" style="stroke:#000000; stroke-width:2; stroke-opacity:0.1; fill:none" points="
  149.361,745.556 2225.26,745.556 
  "/>
<polyline clip-path="url(#clip8503)" style="stroke:#000000; stroke-width:2; stroke-opacity:0.1; fill:none" points="
  149.361,480.561 2225.26,480.561 
  "/>
<polyline clip-path="url(#clip8503)" style="stroke:#000000; stroke-width:2; stroke-opacity:0.1; fill:none" points="
  149.361,215.565 2225.26,215.565 
  "/>
<polyline clip-path="url(#clip8501)" style="stroke:#000000; stroke-width:4; stroke-opacity:1; fill:none" points="
  149.361,1439.47 2225.26,1439.47 
  "/>
<polyline clip-path="url(#clip8501)" style="stroke:#000000; stroke-width:4; stroke-opacity:1; fill:none" points="
  149.361,1439.47 149.361,47.2441 
  "/>
<polyline clip-path="url(#clip8501)" style="stroke:#000000; stroke-width:4; stroke-opacity:1; fill:none" points="
  384.251,1439.47 384.251,1418.59 
  "/>
<polyline clip-path="url(#clip8501)" style="stroke:#000000; stroke-width:4; stroke-opacity:1; fill:none" points="
  789.061,1439.47 789.061,1418.59 
  "/>
<polyline clip-path="url(#clip8501)" style="stroke:#000000; stroke-width:4; stroke-opacity:1; fill:none" points="
  1193.87,1439.47 1193.87,1418.59 
  "/>
<polyline clip-path="url(#clip8501)" style="stroke:#000000; stroke-width:4; stroke-opacity:1; fill:none" points="
  1598.68,1439.47 1598.68,1418.59 
  "/>
<polyline clip-path="url(#clip8501)" style="stroke:#000000; stroke-width:4; stroke-opacity:1; fill:none" points="
  2003.49,1439.47 2003.49,1418.59 
  "/>
<polyline clip-path="url(#clip8501)" style="stroke:#000000; stroke-width:4; stroke-opacity:1; fill:none" points="
  149.361,1275.55 180.499,1275.55 
  "/>
<polyline clip-path="url(#clip8501)" style="stroke:#000000; stroke-width:4; stroke-opacity:1; fill:none" points="
  149.361,1010.55 180.499,1010.55 
  "/>
<polyline clip-path="url(#clip8501)" style="stroke:#000000; stroke-width:4; stroke-opacity:1; fill:none" points="
  149.361,745.556 180.499,745.556 
  "/>
<polyline clip-path="url(#clip8501)" style="stroke:#000000; stroke-width:4; stroke-opacity:1; fill:none" points="
  149.361,480.561 180.499,480.561 
  "/>
<polyline clip-path="url(#clip8501)" style="stroke:#000000; stroke-width:4; stroke-opacity:1; fill:none" points="
  149.361,215.565 180.499,215.565 
  "/>
<g clip-path="url(#clip8501)">
<text style="fill:#000000; fill-opacity:1; font-family:Arial,Helvetica Neue,Helvetica,sans-serif; font-size:48px; text-anchor:middle;" transform="rotate(0, 384.251, 1492.99)" x="384.251" y="1492.99">-4</text>
</g>
<g clip-path="url(#clip8501)">
<text style="fill:#000000; fill-opacity:1; font-family:Arial,Helvetica Neue,Helvetica,sans-serif; font-size:48px; text-anchor:middle;" transform="rotate(0, 789.061, 1492.99)" x="789.061" y="1492.99">-2</text>
</g>
<g clip-path="url(#clip8501)">
<text style="fill:#000000; fill-opacity:1; font-family:Arial,Helvetica Neue,Helvetica,sans-serif; font-size:48px; text-anchor:middle;" transform="rotate(0, 1193.87, 1492.99)" x="1193.87" y="1492.99">0</text>
</g>
<g clip-path="url(#clip8501)">
<text style="fill:#000000; fill-opacity:1; font-family:Arial,Helvetica Neue,Helvetica,sans-serif; font-size:48px; text-anchor:middle;" transform="rotate(0, 1598.68, 1492.99)" x="1598.68" y="1492.99">2</text>
</g>
<g clip-path="url(#clip8501)">
<text style="fill:#000000; fill-opacity:1; font-family:Arial,Helvetica Neue,Helvetica,sans-serif; font-size:48px; text-anchor:middle;" transform="rotate(0, 2003.49, 1492.99)" x="2003.49" y="1492.99">4</text>
</g>
<g clip-path="url(#clip8501)">
<text style="fill:#000000; fill-opacity:1; font-family:Arial,Helvetica Neue,Helvetica,sans-serif; font-size:48px; text-anchor:end;" transform="rotate(0, 126.321, 1293.05)" x="126.321" y="1293.05">-4</text>
</g>
<g clip-path="url(#clip8501)">
<text style="fill:#000000; fill-opacity:1; font-family:Arial,Helvetica Neue,Helvetica,sans-serif; font-size:48px; text-anchor:end;" transform="rotate(0, 126.321, 1028.05)" x="126.321" y="1028.05">-2</text>
</g>
<g clip-path="url(#clip8501)">
<text style="fill:#000000; fill-opacity:1; font-family:Arial,Helvetica Neue,Helvetica,sans-serif; font-size:48px; text-anchor:end;" transform="rotate(0, 126.321, 763.056)" x="126.321" y="763.056">0</text>
</g>
<g clip-path="url(#clip8501)">
<text style="fill:#000000; fill-opacity:1; font-family:Arial,Helvetica Neue,Helvetica,sans-serif; font-size:48px; text-anchor:end;" transform="rotate(0, 126.321, 498.061)" x="126.321" y="498.061">2</text>
</g>
<g clip-path="url(#clip8501)">
<text style="fill:#000000; fill-opacity:1; font-family:Arial,Helvetica Neue,Helvetica,sans-serif; font-size:48px; text-anchor:end;" transform="rotate(0, 126.321, 233.065)" x="126.321" y="233.065">4</text>
</g>
<circle clip-path="url(#clip8503)" style="fill:#000000; stroke:none; fill-opacity:1" cx="1833.23" cy="112.582" r="18"/>
<circle clip-path="url(#clip8503)" style="fill:#ff0000; stroke:none; fill-opacity:1" cx="1833.23" cy="112.582" r="14"/>
<circle clip-path="url(#clip8503)" style="fill:#000000; stroke:none; fill-opacity:1" cx="1993.49" cy="104.133" r="18"/>
<circle clip-path="url(#clip8503)" style="fill:#ff0000; stroke:none; fill-opacity:1" cx="1993.49" cy="104.133" r="14"/>
<circle clip-path="url(#clip8503)" style="fill:#000000; stroke:none; fill-opacity:1" cx="1810.82" cy="115.399" r="18"/>
<circle clip-path="url(#clip8503)" style="fill:#ff0000; stroke:none; fill-opacity:1" cx="1810.82" cy="115.399" r="14"/>
<circle clip-path="url(#clip8503)" style="fill:#000000; stroke:none; fill-opacity:1" cx="1714.13" cy="208.335" r="18"/>
<circle clip-path="url(#clip8503)" style="fill:#ff0000; stroke:none; fill-opacity:1" cx="1714.13" cy="208.335" r="14"/>
<circle clip-path="url(#clip8503)" style="fill:#000000; stroke:none; fill-opacity:1" cx="2018.29" cy="189.699" r="18"/>
<circle clip-path="url(#clip8503)" style="fill:#ff0000; stroke:none; fill-opacity:1" cx="2018.29" cy="189.699" r="14"/>
<circle clip-path="url(#clip8503)" style="fill:#000000; stroke:none; fill-opacity:1" cx="2073.05" cy="658.94" r="18"/>
<circle clip-path="url(#clip8503)" style="fill:#ff0000; stroke:none; fill-opacity:1" cx="2073.05" cy="658.94" r="14"/>
<circle clip-path="url(#clip8503)" style="fill:#000000; stroke:none; fill-opacity:1" cx="1477.77" cy="622.936" r="18"/>
<circle clip-path="url(#clip8503)" style="fill:#ff0000; stroke:none; fill-opacity:1" cx="1477.77" cy="622.936" r="14"/>
<circle clip-path="url(#clip8503)" style="fill:#000000; stroke:none; fill-opacity:1" cx="1567.06" cy="491.536" r="18"/>
<circle clip-path="url(#clip8503)" style="fill:#ff0000; stroke:none; fill-opacity:1" cx="1567.06" cy="491.536" r="14"/>
<circle clip-path="url(#clip8503)" style="fill:#000000; stroke:none; fill-opacity:1" cx="1519.9" cy="603.102" r="18"/>
<circle clip-path="url(#clip8503)" style="fill:#ff0000; stroke:none; fill-opacity:1" cx="1519.9" cy="603.102" r="14"/>
<circle clip-path="url(#clip8503)" style="fill:#000000; stroke:none; fill-opacity:1" cx="1823.05" cy="456.202" r="18"/>
<circle clip-path="url(#clip8503)" style="fill:#ff0000; stroke:none; fill-opacity:1" cx="1823.05" cy="456.202" r="14"/>
<circle clip-path="url(#clip8503)" style="fill:#000000; stroke:none; fill-opacity:1" cx="1886.09" cy="124.14" r="18"/>
<circle clip-path="url(#clip8503)" style="fill:#ff0000; stroke:none; fill-opacity:1" cx="1886.09" cy="124.14" r="14"/>
<circle clip-path="url(#clip8503)" style="fill:#000000; stroke:none; fill-opacity:1" cx="1305.01" cy="417.595" r="18"/>
<circle clip-path="url(#clip8503)" style="fill:#ff0000; stroke:none; fill-opacity:1" cx="1305.01" cy="417.595" r="14"/>
<circle clip-path="url(#clip8503)" style="fill:#000000; stroke:none; fill-opacity:1" cx="1355.57" cy="532.118" r="18"/>
<circle clip-path="url(#clip8503)" style="fill:#ff0000; stroke:none; fill-opacity:1" cx="1355.57" cy="532.118" r="14"/>
<circle clip-path="url(#clip8503)" style="fill:#000000; stroke:none; fill-opacity:1" cx="2166.51" cy="672.26" r="18"/>
<circle clip-path="url(#clip8503)" style="fill:#ff0000; stroke:none; fill-opacity:1" cx="2166.51" cy="672.26" r="14"/>
<circle clip-path="url(#clip8503)" style="fill:#000000; stroke:none; fill-opacity:1" cx="1884.1" cy="651.855" r="18"/>
<circle clip-path="url(#clip8503)" style="fill:#ff0000; stroke:none; fill-opacity:1" cx="1884.1" cy="651.855" r="14"/>
<circle clip-path="url(#clip8503)" style="fill:#000000; stroke:none; fill-opacity:1" cx="1397.53" cy="383.472" r="18"/>
<circle clip-path="url(#clip8503)" style="fill:#ff0000; stroke:none; fill-opacity:1" cx="1397.53" cy="383.472" r="14"/>
<circle clip-path="url(#clip8503)" style="fill:#000000; stroke:none; fill-opacity:1" cx="1546.48" cy="242.86" r="18"/>
<circle clip-path="url(#clip8503)" style="fill:#ff0000; stroke:none; fill-opacity:1" cx="1546.48" cy="242.86" r="14"/>
<circle clip-path="url(#clip8503)" style="fill:#000000; stroke:none; fill-opacity:1" cx="1888.63" cy="500.997" r="18"/>
<circle clip-path="url(#clip8503)" style="fill:#ff0000; stroke:none; fill-opacity:1" cx="1888.63" cy="500.997" r="14"/>
<circle clip-path="url(#clip8503)" style="fill:#000000; stroke:none; fill-opacity:1" cx="1346.67" cy="411.487" r="18"/>
<circle clip-path="url(#clip8503)" style="fill:#ff0000; stroke:none; fill-opacity:1" cx="1346.67" cy="411.487" r="14"/>
<circle clip-path="url(#clip8503)" style="fill:#000000; stroke:none; fill-opacity:1" cx="2062.64" cy="157.54" r="18"/>
<circle clip-path="url(#clip8503)" style="fill:#ff0000; stroke:none; fill-opacity:1" cx="2062.64" cy="157.54" r="14"/>
<circle clip-path="url(#clip8503)" style="fill:#000000; stroke:none; fill-opacity:1" cx="224.006" cy="1024.24" r="18"/>
<circle clip-path="url(#clip8503)" style="fill:#ff0000; stroke:none; fill-opacity:1" cx="224.006" cy="1024.24" r="14"/>
<circle clip-path="url(#clip8503)" style="fill:#000000; stroke:none; fill-opacity:1" cx="817.924" cy="1168.7" r="18"/>
<circle clip-path="url(#clip8503)" style="fill:#ff0000; stroke:none; fill-opacity:1" cx="817.924" cy="1168.7" r="14"/>
<circle clip-path="url(#clip8503)" style="fill:#000000; stroke:none; fill-opacity:1" cx="514.396" cy="1094.98" r="18"/>
<circle clip-path="url(#clip8503)" style="fill:#ff0000; stroke:none; fill-opacity:1" cx="514.396" cy="1094.98" r="14"/>
<circle clip-path="url(#clip8503)" style="fill:#000000; stroke:none; fill-opacity:1" cx="457.35" cy="1043.14" r="18"/>
<circle clip-path="url(#clip8503)" style="fill:#ff0000; stroke:none; fill-opacity:1" cx="457.35" cy="1043.14" r="14"/>
<circle clip-path="url(#clip8503)" style="fill:#000000; stroke:none; fill-opacity:1" cx="521.196" cy="1150.13" r="18"/>
<circle clip-path="url(#clip8503)" style="fill:#ff0000; stroke:none; fill-opacity:1" cx="521.196" cy="1150.13" r="14"/>
<circle clip-path="url(#clip8503)" style="fill:#000000; stroke:none; fill-opacity:1" cx="318.932" cy="1359.03" r="18"/>
<circle clip-path="url(#clip8503)" style="fill:#ff0000; stroke:none; fill-opacity:1" cx="318.932" cy="1359.03" r="14"/>
<circle clip-path="url(#clip8503)" style="fill:#000000; stroke:none; fill-opacity:1" cx="316.037" cy="1289.36" r="18"/>
<circle clip-path="url(#clip8503)" style="fill:#ff0000; stroke:none; fill-opacity:1" cx="316.037" cy="1289.36" r="14"/>
<circle clip-path="url(#clip8503)" style="fill:#000000; stroke:none; fill-opacity:1" cx="439.974" cy="1064.56" r="18"/>
<circle clip-path="url(#clip8503)" style="fill:#ff0000; stroke:none; fill-opacity:1" cx="439.974" cy="1064.56" r="14"/>
<circle clip-path="url(#clip8503)" style="fill:#000000; stroke:none; fill-opacity:1" cx="550.686" cy="1277.96" r="18"/>
<circle clip-path="url(#clip8503)" style="fill:#ff0000; stroke:none; fill-opacity:1" cx="550.686" cy="1277.96" r="14"/>
<circle clip-path="url(#clip8503)" style="fill:#000000; stroke:none; fill-opacity:1" cx="636.83" cy="1192.19" r="18"/>
<circle clip-path="url(#clip8503)" style="fill:#ff0000; stroke:none; fill-opacity:1" cx="636.83" cy="1192.19" r="14"/>
<circle clip-path="url(#clip8503)" style="fill:#000000; stroke:none; fill-opacity:1" cx="781.91" cy="1285.98" r="18"/>
<circle clip-path="url(#clip8503)" style="fill:#ff0000; stroke:none; fill-opacity:1" cx="781.91" cy="1285.98" r="14"/>
<circle clip-path="url(#clip8503)" style="fill:#000000; stroke:none; fill-opacity:1" cx="651.491" cy="851.763" r="18"/>
<circle clip-path="url(#clip8503)" style="fill:#ff0000; stroke:none; fill-opacity:1" cx="651.491" cy="851.763" r="14"/>
<circle clip-path="url(#clip8503)" style="fill:#000000; stroke:none; fill-opacity:1" cx="419.311" cy="914.798" r="18"/>
<circle clip-path="url(#clip8503)" style="fill:#ff0000; stroke:none; fill-opacity:1" cx="419.311" cy="914.798" r="14"/>
<circle clip-path="url(#clip8503)" style="fill:#000000; stroke:none; fill-opacity:1" cx="724.26" cy="1348.84" r="18"/>
<circle clip-path="url(#clip8503)" style="fill:#ff0000; stroke:none; fill-opacity:1" cx="724.26" cy="1348.84" r="14"/>
<circle clip-path="url(#clip8503)" style="fill:#000000; stroke:none; fill-opacity:1" cx="448.226" cy="1029.85" r="18"/>
<circle clip-path="url(#clip8503)" style="fill:#ff0000; stroke:none; fill-opacity:1" cx="448.226" cy="1029.85" r="14"/>
<circle clip-path="url(#clip8503)" style="fill:#000000; stroke:none; fill-opacity:1" cx="444.691" cy="1328.91" r="18"/>
<circle clip-path="url(#clip8503)" style="fill:#ff0000; stroke:none; fill-opacity:1" cx="444.691" cy="1328.91" r="14"/>
<circle clip-path="url(#clip8503)" style="fill:#000000; stroke:none; fill-opacity:1" cx="744.88" cy="945.843" r="18"/>
<circle clip-path="url(#clip8503)" style="fill:#ff0000; stroke:none; fill-opacity:1" cx="744.88" cy="945.843" r="14"/>
<circle clip-path="url(#clip8503)" style="fill:#000000; stroke:none; fill-opacity:1" cx="786.869" cy="889.771" r="18"/>
<circle clip-path="url(#clip8503)" style="fill:#ff0000; stroke:none; fill-opacity:1" cx="786.869" cy="889.771" r="14"/>
<circle clip-path="url(#clip8503)" style="fill:#000000; stroke:none; fill-opacity:1" cx="868.159" cy="1384.41" r="18"/>
<circle clip-path="url(#clip8503)" style="fill:#ff0000; stroke:none; fill-opacity:1" cx="868.159" cy="1384.41" r="14"/>
<circle clip-path="url(#clip8503)" style="fill:#000000; stroke:none; fill-opacity:1" cx="215.441" cy="936.771" r="18"/>
<circle clip-path="url(#clip8503)" style="fill:#ff0000; stroke:none; fill-opacity:1" cx="215.441" cy="936.771" r="14"/>
<circle clip-path="url(#clip8503)" style="fill:#000000; stroke:none; fill-opacity:1" cx="1687.81" cy="1234.5" r="18"/>
<circle clip-path="url(#clip8503)" style="fill:#0000ff; stroke:none; fill-opacity:1" cx="1687.81" cy="1234.5" r="14"/>
<circle clip-path="url(#clip8503)" style="fill:#000000; stroke:none; fill-opacity:1" cx="1420.46" cy="1042.77" r="18"/>
<circle clip-path="url(#clip8503)" style="fill:#0000ff; stroke:none; fill-opacity:1" cx="1420.46" cy="1042.77" r="14"/>
<circle clip-path="url(#clip8503)" style="fill:#000000; stroke:none; fill-opacity:1" cx="1848.93" cy="987.239" r="18"/>
<circle clip-path="url(#clip8503)" style="fill:#0000ff; stroke:none; fill-opacity:1" cx="1848.93" cy="987.239" r="14"/>
<circle clip-path="url(#clip8503)" style="fill:#000000; stroke:none; fill-opacity:1" cx="1527.38" cy="1104.94" r="18"/>
<circle clip-path="url(#clip8503)" style="fill:#0000ff; stroke:none; fill-opacity:1" cx="1527.38" cy="1104.94" r="14"/>
<circle clip-path="url(#clip8503)" style="fill:#000000; stroke:none; fill-opacity:1" cx="1749.33" cy="1126.29" r="18"/>
<circle clip-path="url(#clip8503)" style="fill:#0000ff; stroke:none; fill-opacity:1" cx="1749.33" cy="1126.29" r="14"/>
<circle clip-path="url(#clip8503)" style="fill:#000000; stroke:none; fill-opacity:1" cx="1380.73" cy="1042.82" r="18"/>
<circle clip-path="url(#clip8503)" style="fill:#0000ff; stroke:none; fill-opacity:1" cx="1380.73" cy="1042.82" r="14"/>
<circle clip-path="url(#clip8503)" style="fill:#000000; stroke:none; fill-opacity:1" cx="1773.34" cy="1293.19" r="18"/>
<circle clip-path="url(#clip8503)" style="fill:#0000ff; stroke:none; fill-opacity:1" cx="1773.34" cy="1293.19" r="14"/>
<circle clip-path="url(#clip8503)" style="fill:#000000; stroke:none; fill-opacity:1" cx="1536.91" cy="900.603" r="18"/>
<circle clip-path="url(#clip8503)" style="fill:#0000ff; stroke:none; fill-opacity:1" cx="1536.91" cy="900.603" r="14"/>
<circle clip-path="url(#clip8503)" style="fill:#000000; stroke:none; fill-opacity:1" cx="1395.35" cy="840.384" r="18"/>
<circle clip-path="url(#clip8503)" style="fill:#0000ff; stroke:none; fill-opacity:1" cx="1395.35" cy="840.384" r="14"/>
<circle clip-path="url(#clip8503)" style="fill:#000000; stroke:none; fill-opacity:1" cx="2055.03" cy="934.01" r="18"/>
<circle clip-path="url(#clip8503)" style="fill:#0000ff; stroke:none; fill-opacity:1" cx="2055.03" cy="934.01" r="14"/>
<circle clip-path="url(#clip8503)" style="fill:#000000; stroke:none; fill-opacity:1" cx="1872.02" cy="1128.96" r="18"/>
<circle clip-path="url(#clip8503)" style="fill:#0000ff; stroke:none; fill-opacity:1" cx="1872.02" cy="1128.96" r="14"/>
<circle clip-path="url(#clip8503)" style="fill:#000000; stroke:none; fill-opacity:1" cx="1602.81" cy="1351.29" r="18"/>
<circle clip-path="url(#clip8503)" style="fill:#0000ff; stroke:none; fill-opacity:1" cx="1602.81" cy="1351.29" r="14"/>
<circle clip-path="url(#clip8503)" style="fill:#000000; stroke:none; fill-opacity:1" cx="1397.99" cy="974.124" r="18"/>
<circle clip-path="url(#clip8503)" style="fill:#0000ff; stroke:none; fill-opacity:1" cx="1397.99" cy="974.124" r="14"/>
<circle clip-path="url(#clip8503)" style="fill:#000000; stroke:none; fill-opacity:1" cx="2008.24" cy="822.238" r="18"/>
<circle clip-path="url(#clip8503)" style="fill:#0000ff; stroke:none; fill-opacity:1" cx="2008.24" cy="822.238" r="14"/>
<circle clip-path="url(#clip8503)" style="fill:#000000; stroke:none; fill-opacity:1" cx="2058.38" cy="1153.43" r="18"/>
<circle clip-path="url(#clip8503)" style="fill:#0000ff; stroke:none; fill-opacity:1" cx="2058.38" cy="1153.43" r="14"/>
<circle clip-path="url(#clip8503)" style="fill:#000000; stroke:none; fill-opacity:1" cx="1375.1" cy="1129.04" r="18"/>
<circle clip-path="url(#clip8503)" style="fill:#0000ff; stroke:none; fill-opacity:1" cx="1375.1" cy="1129.04" r="14"/>
<circle clip-path="url(#clip8503)" style="fill:#000000; stroke:none; fill-opacity:1" cx="1647.17" cy="901.881" r="18"/>
<circle clip-path="url(#clip8503)" style="fill:#0000ff; stroke:none; fill-opacity:1" cx="1647.17" cy="901.881" r="14"/>
<circle clip-path="url(#clip8503)" style="fill:#000000; stroke:none; fill-opacity:1" cx="1596.17" cy="1074.96" r="18"/>
<circle clip-path="url(#clip8503)" style="fill:#0000ff; stroke:none; fill-opacity:1" cx="1596.17" cy="1074.96" r="14"/>
<circle clip-path="url(#clip8503)" style="fill:#000000; stroke:none; fill-opacity:1" cx="1976.41" cy="926.623" r="18"/>
<circle clip-path="url(#clip8503)" style="fill:#0000ff; stroke:none; fill-opacity:1" cx="1976.41" cy="926.623" r="14"/>
<circle clip-path="url(#clip8503)" style="fill:#000000; stroke:none; fill-opacity:1" cx="1536.98" cy="1400.07" r="18"/>
<circle clip-path="url(#clip8503)" style="fill:#0000ff; stroke:none; fill-opacity:1" cx="1536.98" cy="1400.07" r="14"/>
<circle clip-path="url(#clip8503)" style="fill:#000000; stroke:none; fill-opacity:1" cx="504.458" cy="180.564" r="18"/>
<circle clip-path="url(#clip8503)" style="fill:#0000ff; stroke:none; fill-opacity:1" cx="504.458" cy="180.564" r="14"/>
<circle clip-path="url(#clip8503)" style="fill:#000000; stroke:none; fill-opacity:1" cx="302.894" cy="417.96" r="18"/>
<circle clip-path="url(#clip8503)" style="fill:#0000ff; stroke:none; fill-opacity:1" cx="302.894" cy="417.96" r="14"/>
<circle clip-path="url(#clip8503)" style="fill:#000000; stroke:none; fill-opacity:1" cx="455.776" cy="267.916" r="18"/>
<circle clip-path="url(#clip8503)" style="fill:#0000ff; stroke:none; fill-opacity:1" cx="455.776" cy="267.916" r="14"/>
<circle clip-path="url(#clip8503)" style="fill:#000000; stroke:none; fill-opacity:1" cx="359.007" cy="457.352" r="18"/>
<circle clip-path="url(#clip8503)" style="fill:#0000ff; stroke:none; fill-opacity:1" cx="359.007" cy="457.352" r="14"/>
<circle clip-path="url(#clip8503)" style="fill:#000000; stroke:none; fill-opacity:1" cx="986.744" cy="503.498" r="18"/>
<circle clip-path="url(#clip8503)" style="fill:#0000ff; stroke:none; fill-opacity:1" cx="986.744" cy="503.498" r="14"/>
<circle clip-path="url(#clip8503)" style="fill:#000000; stroke:none; fill-opacity:1" cx="243.599" cy="264.139" r="18"/>
<circle clip-path="url(#clip8503)" style="fill:#0000ff; stroke:none; fill-opacity:1" cx="243.599" cy="264.139" r="14"/>
<circle clip-path="url(#clip8503)" style="fill:#000000; stroke:none; fill-opacity:1" cx="208.112" cy="481.144" r="18"/>
<circle clip-path="url(#clip8503)" style="fill:#0000ff; stroke:none; fill-opacity:1" cx="208.112" cy="481.144" r="14"/>
<circle clip-path="url(#clip8503)" style="fill:#000000; stroke:none; fill-opacity:1" cx="696.104" cy="431.817" r="18"/>
<circle clip-path="url(#clip8503)" style="fill:#0000ff; stroke:none; fill-opacity:1" cx="696.104" cy="431.817" r="14"/>
<circle clip-path="url(#clip8503)" style="fill:#000000; stroke:none; fill-opacity:1" cx="727.31" cy="319.403" r="18"/>
<circle clip-path="url(#clip8503)" style="fill:#0000ff; stroke:none; fill-opacity:1" cx="727.31" cy="319.403" r="14"/>
<circle clip-path="url(#clip8503)" style="fill:#000000; stroke:none; fill-opacity:1" cx="458.423" cy="652.848" r="18"/>
<circle clip-path="url(#clip8503)" style="fill:#0000ff; stroke:none; fill-opacity:1" cx="458.423" cy="652.848" r="14"/>
<circle clip-path="url(#clip8503)" style="fill:#000000; stroke:none; fill-opacity:1" cx="637.918" cy="133.342" r="18"/>
<circle clip-path="url(#clip8503)" style="fill:#0000ff; stroke:none; fill-opacity:1" cx="637.918" cy="133.342" r="14"/>
<circle clip-path="url(#clip8503)" style="fill:#000000; stroke:none; fill-opacity:1" cx="555.254" cy="457.313" r="18"/>
<circle clip-path="url(#clip8503)" style="fill:#0000ff; stroke:none; fill-opacity:1" cx="555.254" cy="457.313" r="14"/>
<circle clip-path="url(#clip8503)" style="fill:#000000; stroke:none; fill-opacity:1" cx="315.129" cy="611.913" r="18"/>
<circle clip-path="url(#clip8503)" style="fill:#0000ff; stroke:none; fill-opacity:1" cx="315.129" cy="611.913" r="14"/>
<circle clip-path="url(#clip8503)" style="fill:#000000; stroke:none; fill-opacity:1" cx="771.219" cy="279.723" r="18"/>
<circle clip-path="url(#clip8503)" style="fill:#0000ff; stroke:none; fill-opacity:1" cx="771.219" cy="279.723" r="14"/>
<circle clip-path="url(#clip8503)" style="fill:#000000; stroke:none; fill-opacity:1" cx="1091.35" cy="595.552" r="18"/>
<circle clip-path="url(#clip8503)" style="fill:#0000ff; stroke:none; fill-opacity:1" cx="1091.35" cy="595.552" r="14"/>
<circle clip-path="url(#clip8503)" style="fill:#000000; stroke:none; fill-opacity:1" cx="633.062" cy="630.817" r="18"/>
<circle clip-path="url(#clip8503)" style="fill:#0000ff; stroke:none; fill-opacity:1" cx="633.062" cy="630.817" r="14"/>
<circle clip-path="url(#clip8503)" style="fill:#000000; stroke:none; fill-opacity:1" cx="777.791" cy="399.148" r="18"/>
<circle clip-path="url(#clip8503)" style="fill:#0000ff; stroke:none; fill-opacity:1" cx="777.791" cy="399.148" r="14"/>
<circle clip-path="url(#clip8503)" style="fill:#000000; stroke:none; fill-opacity:1" cx="942.3" cy="86.6468" r="18"/>
<circle clip-path="url(#clip8503)" style="fill:#0000ff; stroke:none; fill-opacity:1" cx="942.3" cy="86.6468" r="14"/>
<circle clip-path="url(#clip8503)" style="fill:#000000; stroke:none; fill-opacity:1" cx="560.441" cy="467.152" r="18"/>
<circle clip-path="url(#clip8503)" style="fill:#0000ff; stroke:none; fill-opacity:1" cx="560.441" cy="467.152" r="14"/>
<circle clip-path="url(#clip8503)" style="fill:#000000; stroke:none; fill-opacity:1" cx="348.305" cy="580.849" r="18"/>
<circle clip-path="url(#clip8503)" style="fill:#0000ff; stroke:none; fill-opacity:1" cx="348.305" cy="580.849" r="14"/>
<polygon clip-path="url(#clip8501)" points="
1874.91,306.444 2156.14,306.444 2156.14,125.004 1874.91,125.004 
  " fill="#ffffff" fill-rule="evenodd" fill-opacity="1"/>
<polyline clip-path="url(#clip8501)" style="stroke:#000000; stroke-width:4; stroke-opacity:1; fill:none" points="
  1874.91,306.444 2156.14,306.444 2156.14,125.004 1874.91,125.004 1874.91,306.444 
  "/>
<circle clip-path="url(#clip8501)" style="fill:#000000; stroke:none; fill-opacity:1" cx="1978.59" cy="185.484" r="25"/>
<circle clip-path="url(#clip8501)" style="fill:#ff0000; stroke:none; fill-opacity:1" cx="1978.59" cy="185.484" r="21"/>
<g clip-path="url(#clip8501)">
<text style="fill:#000000; fill-opacity:1; font-family:Arial,Helvetica Neue,Helvetica,sans-serif; font-size:48px; text-anchor:start;" transform="rotate(0, 2059.23, 202.984)" x="2059.23" y="202.984">y1</text>
</g>
<circle clip-path="url(#clip8501)" style="fill:#000000; stroke:none; fill-opacity:1" cx="1978.59" cy="245.964" r="25"/>
<circle clip-path="url(#clip8501)" style="fill:#0000ff; stroke:none; fill-opacity:1" cx="1978.59" cy="245.964" r="21"/>
<g clip-path="url(#clip8501)">
<text style="fill:#000000; fill-opacity:1; font-family:Arial,Helvetica Neue,Helvetica,sans-serif; font-size:48px; text-anchor:start;" transform="rotate(0, 2059.23, 263.464)" x="2059.23" y="263.464">y2</text>
</g>
</svg>
