<?xml version="1.0" encoding="utf-8"?>
<svg xmlns="http://www.w3.org/2000/svg" xmlns:xlink="http://www.w3.org/1999/xlink" width="500" height="250" viewBox="0 0 2000 1000">
<defs>
  <clipPath id="clip3000">
    <rect x="0" y="0" width="2000" height="2000"/>
  </clipPath>
</defs>
<defs>
  <clipPath id="clip3001">
    <rect x="0" y="0" width="2000" height="1000"/>
  </clipPath>
</defs>
<polygon clip-path="url(#clip3001)" points="
0,1000 2000,1000 2000,0 0,0 
  " fill="#ffffff" fill-rule="evenodd" fill-opacity="1"/>
<defs>
  <clipPath id="clip3002">
    <rect x="400" y="0" width="1401" height="1000"/>
  </clipPath>
</defs>
<polygon clip-path="url(#clip3001)" points="
149.361,911.858 1921.26,911.858 1921.26,47.2441 149.361,47.2441 
  " fill="#ffffff" fill-rule="evenodd" fill-opacity="1"/>
<defs>
  <clipPath id="clip3003">
    <rect x="149" y="47" width="1773" height="866"/>
  </clipPath>
</defs>
<polyline clip-path="url(#clip3003)" style="stroke:#000000; stroke-width:2; stroke-opacity:0.1; fill:none" points="
  149.361,911.858 149.361,47.2441 
  "/>
<polyline clip-path="url(#clip3003)" style="stroke:#000000; stroke-width:2; stroke-opacity:0.1; fill:none" points="
  739.994,911.858 739.994,47.2441 
  "/>
<polyline clip-path="url(#clip3003)" style="stroke:#000000; stroke-width:2; stroke-opacity:0.1; fill:none" points="
  1330.63,911.858 1330.63,47.2441 
  "/>
<polyline clip-path="url(#clip3003)" style="stroke:#000000; stroke-width:2; stroke-opacity:0.1; fill:none" points="
  1921.26,911.858 1921.26,47.2441 
  "/>
<polyline clip-path="url(#clip3003)" style="stroke:#000000; stroke-width:2; stroke-opacity:0.1; fill:none" points="
  149.361,911.858 1921.26,911.858 
  "/>
<polyline clip-path="url(#clip3003)" style="stroke:#000000; stroke-width:2; stroke-opacity:0.1; fill:none" points="
  149.361,767.756 1921.26,767.756 
  "/>
<polyline clip-path="url(#clip3003)" style="stroke:#000000; stroke-width:2; stroke-opacity:0.1; fill:none" points="
  149.361,623.653 1921.26,623.653 
  "/>
<polyline clip-path="url(#clip3003)" style="stroke:#000000; stroke-width:2; stroke-opacity:0.1; fill:none" points="
  149.361,479.551 1921.26,479.551 
  "/>
<polyline clip-path="url(#clip3003)" style="stroke:#000000; stroke-width:2; stroke-opacity:0.1; fill:none" points="
  149.361,335.449 1921.26,335.449 
  "/>
<polyline clip-path="url(#clip3003)" style="stroke:#000000; stroke-width:2; stroke-opacity:0.1; fill:none" points="
  149.361,191.346 1921.26,191.346 
  "/>
<polyline clip-path="url(#clip3003)" style="stroke:#000000; stroke-width:2; stroke-opacity:0.1; fill:none" points="
  149.361,47.2441 1921.26,47.2441 
  "/>
<polyline clip-path="url(#clip3001)" style="stroke:#000000; stroke-width:4; stroke-opacity:1; fill:none" points="
  149.361,911.858 1921.26,911.858 
  "/>
<polyline clip-path="url(#clip3001)" style="stroke:#000000; stroke-width:4; stroke-opacity:1; fill:none" points="
  149.361,911.858 149.361,47.2441 
  "/>
<polyline clip-path="url(#clip3001)" style="stroke:#000000; stroke-width:4; stroke-opacity:1; fill:none" points="
  149.361,911.858 149.361,898.889 
  "/>
<polyline clip-path="url(#clip3001)" style="stroke:#000000; stroke-width:4; stroke-opacity:1; fill:none" points="
  739.994,911.858 739.994,898.889 
  "/>
<polyline clip-path="url(#clip3001)" style="stroke:#000000; stroke-width:4; stroke-opacity:1; fill:none" points="
  1330.63,911.858 1330.63,898.889 
  "/>
<polyline clip-path="url(#clip3001)" style="stroke:#000000; stroke-width:4; stroke-opacity:1; fill:none" points="
  1921.26,911.858 1921.26,898.889 
  "/>
<polyline clip-path="url(#clip3001)" style="stroke:#000000; stroke-width:4; stroke-opacity:1; fill:none" points="
  149.361,911.858 175.939,911.858 
  "/>
<polyline clip-path="url(#clip3001)" style="stroke:#000000; stroke-width:4; stroke-opacity:1; fill:none" points="
  149.361,767.756 175.939,767.756 
  "/>
<polyline clip-path="url(#clip3001)" style="stroke:#000000; stroke-width:4; stroke-opacity:1; fill:none" points="
  149.361,623.653 175.939,623.653 
  "/>
<polyline clip-path="url(#clip3001)" style="stroke:#000000; stroke-width:4; stroke-opacity:1; fill:none" points="
  149.361,479.551 175.939,479.551 
  "/>
<polyline clip-path="url(#clip3001)" style="stroke:#000000; stroke-width:4; stroke-opacity:1; fill:none" points="
  149.361,335.449 175.939,335.449 
  "/>
<polyline clip-path="url(#clip3001)" style="stroke:#000000; stroke-width:4; stroke-opacity:1; fill:none" points="
  149.361,191.346 175.939,191.346 
  "/>
<polyline clip-path="url(#clip3001)" style="stroke:#000000; stroke-width:4; stroke-opacity:1; fill:none" points="
  149.361,47.2441 175.939,47.2441 
  "/>
<g clip-path="url(#clip3001)">
<text style="fill:#000000; fill-opacity:1; font-family:Arial,Helvetica Neue,Helvetica,sans-serif; font-size:48px; text-anchor:middle;" transform="rotate(0, 149.361, 963.858)" x="149.361" y="963.858">0</text>
</g>
<g clip-path="url(#clip3001)">
<text style="fill:#000000; fill-opacity:1; font-family:Arial,Helvetica Neue,Helvetica,sans-serif; font-size:48px; text-anchor:middle;" transform="rotate(0, 739.994, 963.858)" x="739.994" y="963.858">5</text>
</g>
<g clip-path="url(#clip3001)">
<text style="fill:#000000; fill-opacity:1; font-family:Arial,Helvetica Neue,Helvetica,sans-serif; font-size:48px; text-anchor:middle;" transform="rotate(0, 1330.63, 963.858)" x="1330.63" y="963.858">10</text>
</g>
<g clip-path="url(#clip3001)">
<text style="fill:#000000; fill-opacity:1; font-family:Arial,Helvetica Neue,Helvetica,sans-serif; font-size:48px; text-anchor:middle;" transform="rotate(0, 1921.26, 963.858)" x="1921.26" y="963.858">15</text>
</g>
<g clip-path="url(#clip3001)">
<text style="fill:#000000; fill-opacity:1; font-family:Arial,Helvetica Neue,Helvetica,sans-serif; font-size:48px; text-anchor:end;" transform="rotate(0, 129.361, 929.358)" x="129.361" y="929.358">-1</text>
</g>
<g clip-path="url(#clip3001)">
<text style="fill:#000000; fill-opacity:1; font-family:Arial,Helvetica Neue,Helvetica,sans-serif; font-size:48px; text-anchor:end;" transform="rotate(0, 129.361, 785.256)" x="129.361" y="785.256">0</text>
</g>
<g clip-path="url(#clip3001)">
<text style="fill:#000000; fill-opacity:1; font-family:Arial,Helvetica Neue,Helvetica,sans-serif; font-size:48px; text-anchor:end;" transform="rotate(0, 129.361, 641.153)" x="129.361" y="641.153">1</text>
</g>
<g clip-path="url(#clip3001)">
<text style="fill:#000000; fill-opacity:1; font-family:Arial,Helvetica Neue,Helvetica,sans-serif; font-size:48px; text-anchor:end;" transform="rotate(0, 129.361, 497.051)" x="129.361" y="497.051">2</text>
</g>
<g clip-path="url(#clip3001)">
<text style="fill:#000000; fill-opacity:1; font-family:Arial,Helvetica Neue,Helvetica,sans-serif; font-size:48px; text-anchor:end;" transform="rotate(0, 129.361, 352.949)" x="129.361" y="352.949">3</text>
</g>
<g clip-path="url(#clip3001)">
<text style="fill:#000000; fill-opacity:1; font-family:Arial,Helvetica Neue,Helvetica,sans-serif; font-size:48px; text-anchor:end;" transform="rotate(0, 129.361, 208.846)" x="129.361" y="208.846">4</text>
</g>
<g clip-path="url(#clip3001)">
<text style="fill:#000000; fill-opacity:1; font-family:Arial,Helvetica Neue,Helvetica,sans-serif; font-size:48px; text-anchor:end;" transform="rotate(0, 129.361, 64.7441)" x="129.361" y="64.7441">5</text>
</g>
<polyline clip-path="url(#clip3003)" style="stroke:#009af9; stroke-width:4; stroke-opacity:1; fill:none" points="
  267.487,623.653 385.614,623.653 503.74,623.653 621.867,623.653 739.994,479.551 858.12,479.551 976.247,479.551 1094.37,335.449 1212.5,335.449 1330.63,335.449 
  1448.75,479.551 1566.88,479.551 1685.01,479.551 1803.13,623.653 1921.26,623.653 
  "/>
<polygon clip-path="url(#clip3001)" points="
1610.43,227.724 1861.26,227.724 1861.26,106.764 1610.43,106.764 
  " fill="#ffffff" fill-rule="evenodd" fill-opacity="1"/>
<polyline clip-path="url(#clip3001)" style="stroke:#000000; stroke-width:4; stroke-opacity:1; fill:none" points="
  1610.43,227.724 1861.26,227.724 1861.26,106.764 1610.43,106.764 1610.43,227.724 
  "/>
<polyline clip-path="url(#clip3001)" style="stroke:#009af9; stroke-width:4; stroke-opacity:1; fill:none" points="
  1630.43,167.244 1750.43,167.244 
  "/>
<g clip-path="url(#clip3001)">
<text style="fill:#000000; fill-opacity:1; font-family:Arial,Helvetica Neue,Helvetica,sans-serif; font-size:48px; text-anchor:start;" transform="rotate(0, 1770.43, 184.744)" x="1770.43" y="184.744">y1</text>
</g>
</svg>
