<?xml version="1.0" encoding="utf-8"?>
<svg xmlns="http://www.w3.org/2000/svg" xmlns:xlink="http://www.w3.org/1999/xlink" width="600" height="400" viewBox="0 0 2400 1600">
<defs>
  <clipPath id="clip960">
    <rect x="0" y="0" width="2400" height="1600"/>
  </clipPath>
</defs>
<path clip-path="url(#clip960)" d="
M0 1600 L2400 1600 L2400 0 L0 0  Z
  " fill="#ffffff" fill-rule="evenodd" fill-opacity="1"/>
<defs>
  <clipPath id="clip961">
    <rect x="480" y="0" width="1681" height="1600"/>
  </clipPath>
</defs>
<path clip-path="url(#clip960)" d="
M112.177 1486.45 L2352.76 1486.45 L2352.76 47.2441 L112.177 47.2441  Z
  " fill="#ffffff" fill-rule="evenodd" fill-opacity="1"/>
<defs>
  <clipPath id="clip962">
    <rect x="112" y="47" width="2242" height="1440"/>
  </clipPath>
</defs>
<polyline clip-path="url(#clip962)" style="stroke:#000000; stroke-width:2; stroke-opacity:0.1; fill:none" points="
  175.59,1486.45 175.59,47.2441 
  "/>
<polyline clip-path="url(#clip962)" style="stroke:#000000; stroke-width:2; stroke-opacity:0.1; fill:none" points="
  704.028,1486.45 704.028,47.2441 
  "/>
<polyline clip-path="url(#clip962)" style="stroke:#000000; stroke-width:2; stroke-opacity:0.1; fill:none" points="
  1232.47,1486.45 1232.47,47.2441 
  "/>
<polyline clip-path="url(#clip962)" style="stroke:#000000; stroke-width:2; stroke-opacity:0.1; fill:none" points="
  1760.9,1486.45 1760.9,47.2441 
  "/>
<polyline clip-path="url(#clip962)" style="stroke:#000000; stroke-width:2; stroke-opacity:0.1; fill:none" points="
  2289.34,1486.45 2289.34,47.2441 
  "/>
<polyline clip-path="url(#clip962)" style="stroke:#000000; stroke-width:2; stroke-opacity:0.1; fill:none" points="
  112.177,1461.24 2352.76,1461.24 
  "/>
<polyline clip-path="url(#clip962)" style="stroke:#000000; stroke-width:2; stroke-opacity:0.1; fill:none" points="
  112.177,1136.85 2352.76,1136.85 
  "/>
<polyline clip-path="url(#clip962)" style="stroke:#000000; stroke-width:2; stroke-opacity:0.1; fill:none" points="
  112.177,812.454 2352.76,812.454 
  "/>
<polyline clip-path="url(#clip962)" style="stroke:#000000; stroke-width:2; stroke-opacity:0.1; fill:none" points="
  112.177,488.061 2352.76,488.061 
  "/>
<polyline clip-path="url(#clip962)" style="stroke:#000000; stroke-width:2; stroke-opacity:0.1; fill:none" points="
  112.177,163.668 2352.76,163.668 
  "/>
<polyline clip-path="url(#clip960)" style="stroke:#000000; stroke-width:4; stroke-opacity:1; fill:none" points="
  112.177,1486.45 2352.76,1486.45 
  "/>
<polyline clip-path="url(#clip960)" style="stroke:#000000; stroke-width:4; stroke-opacity:1; fill:none" points="
  112.177,1486.45 112.177,47.2441 
  "/>
<polyline clip-path="url(#clip960)" style="stroke:#000000; stroke-width:4; stroke-opacity:1; fill:none" points="
  175.59,1486.45 175.59,1469.18 
  "/>
<polyline clip-path="url(#clip960)" style="stroke:#000000; stroke-width:4; stroke-opacity:1; fill:none" points="
  704.028,1486.45 704.028,1469.18 
  "/>
<polyline clip-path="url(#clip960)" style="stroke:#000000; stroke-width:4; stroke-opacity:1; fill:none" points="
  1232.47,1486.45 1232.47,1469.18 
  "/>
<polyline clip-path="url(#clip960)" style="stroke:#000000; stroke-width:4; stroke-opacity:1; fill:none" points="
  1760.9,1486.45 1760.9,1469.18 
  "/>
<polyline clip-path="url(#clip960)" style="stroke:#000000; stroke-width:4; stroke-opacity:1; fill:none" points="
  2289.34,1486.45 2289.34,1469.18 
  "/>
<polyline clip-path="url(#clip960)" style="stroke:#000000; stroke-width:4; stroke-opacity:1; fill:none" points="
  112.177,1461.24 139.064,1461.24 
  "/>
<polyline clip-path="url(#clip960)" style="stroke:#000000; stroke-width:4; stroke-opacity:1; fill:none" points="
  112.177,1136.85 139.064,1136.85 
  "/>
<polyline clip-path="url(#clip960)" style="stroke:#000000; stroke-width:4; stroke-opacity:1; fill:none" points="
  112.177,812.454 139.064,812.454 
  "/>
<polyline clip-path="url(#clip960)" style="stroke:#000000; stroke-width:4; stroke-opacity:1; fill:none" points="
  112.177,488.061 139.064,488.061 
  "/>
<polyline clip-path="url(#clip960)" style="stroke:#000000; stroke-width:4; stroke-opacity:1; fill:none" points="
  112.177,163.668 139.064,163.668 
  "/>
<path clip-path="url(#clip960)" d="M 0 0 M157.106 1508.44 Q153.495 1508.44 151.666 1512 Q149.861 1515.55 149.861 1522.67 Q149.861 1529.78 151.666 1533.35 Q153.495 1536.89 157.106 1536.89 Q160.74 1536.89 162.546 1533.35 Q164.375 1529.78 164.375 1522.67 Q164.375 1515.55 162.546 1512 Q160.74 1508.44 157.106 1508.44 M157.106 1504.73 Q162.916 1504.73 165.972 1509.34 Q169.05 1513.92 169.05 1522.67 Q169.05 1531.4 165.972 1536.01 Q162.916 1540.59 157.106 1540.59 Q151.296 1540.59 148.217 1536.01 Q145.162 1531.4 145.162 1522.67 Q145.162 1513.92 148.217 1509.34 Q151.296 1504.73 157.106 1504.73 Z" fill="#000000" fill-rule="evenodd" fill-opacity="1" /><path clip-path="url(#clip960)" d="M 0 0 M174.12 1534.04 L179.004 1534.04 L179.004 1539.92 L174.12 1539.92 L174.12 1534.04 Z" fill="#000000" fill-rule="evenodd" fill-opacity="1" /><path clip-path="url(#clip960)" d="M 0 0 M194.073 1508.44 Q190.462 1508.44 188.634 1512 Q186.828 1515.55 186.828 1522.67 Q186.828 1529.78 188.634 1533.35 Q190.462 1536.89 194.073 1536.89 Q197.708 1536.89 199.513 1533.35 Q201.342 1529.78 201.342 1522.67 Q201.342 1515.55 199.513 1512 Q197.708 1508.44 194.073 1508.44 M194.073 1504.73 Q199.884 1504.73 202.939 1509.34 Q206.018 1513.92 206.018 1522.67 Q206.018 1531.4 202.939 1536.01 Q199.884 1540.59 194.073 1540.59 Q188.263 1540.59 185.185 1536.01 Q182.129 1531.4 182.129 1522.67 Q182.129 1513.92 185.185 1509.34 Q188.263 1504.73 194.073 1504.73 Z" fill="#000000" fill-rule="evenodd" fill-opacity="1" /><path clip-path="url(#clip960)" d="M 0 0 M680.695 1535.98 L697.014 1535.98 L697.014 1539.92 L675.07 1539.92 L675.07 1535.98 Q677.732 1533.23 682.315 1528.6 Q686.922 1523.95 688.102 1522.61 Q690.348 1520.08 691.227 1518.35 Q692.13 1516.59 692.13 1514.9 Q692.13 1512.14 690.186 1510.41 Q688.264 1508.67 685.163 1508.67 Q682.963 1508.67 680.51 1509.43 Q678.079 1510.2 675.301 1511.75 L675.301 1507.03 Q678.126 1505.89 680.579 1505.31 Q683.033 1504.73 685.07 1504.73 Q690.44 1504.73 693.635 1507.42 Q696.829 1510.11 696.829 1514.6 Q696.829 1516.73 696.019 1518.65 Q695.232 1520.54 693.125 1523.14 Q692.547 1523.81 689.445 1527.03 Q686.343 1530.22 680.695 1535.98 Z" fill="#000000" fill-rule="evenodd" fill-opacity="1" /><path clip-path="url(#clip960)" d="M 0 0 M702.084 1534.04 L706.968 1534.04 L706.968 1539.92 L702.084 1539.92 L702.084 1534.04 Z" fill="#000000" fill-rule="evenodd" fill-opacity="1" /><path clip-path="url(#clip960)" d="M 0 0 M712.084 1505.36 L730.44 1505.36 L730.44 1509.3 L716.366 1509.3 L716.366 1517.77 Q717.385 1517.42 718.403 1517.26 Q719.422 1517.07 720.44 1517.07 Q726.227 1517.07 729.607 1520.24 Q732.986 1523.42 732.986 1528.83 Q732.986 1534.41 729.514 1537.51 Q726.042 1540.59 719.723 1540.59 Q717.547 1540.59 715.278 1540.22 Q713.033 1539.85 710.625 1539.11 L710.625 1534.41 Q712.709 1535.54 714.931 1536.1 Q717.153 1536.66 719.63 1536.66 Q723.635 1536.66 725.972 1534.55 Q728.31 1532.44 728.31 1528.83 Q728.31 1525.22 725.972 1523.11 Q723.635 1521.01 719.63 1521.01 Q717.755 1521.01 715.88 1521.42 Q714.028 1521.84 712.084 1522.72 L712.084 1505.36 Z" fill="#000000" fill-rule="evenodd" fill-opacity="1" /><path clip-path="url(#clip960)" d="M 0 0 M1204.26 1505.36 L1222.62 1505.36 L1222.62 1509.3 L1208.54 1509.3 L1208.54 1517.77 Q1209.56 1517.42 1210.58 1517.26 Q1211.6 1517.07 1212.62 1517.07 Q1218.4 1517.07 1221.78 1520.24 Q1225.16 1523.42 1225.16 1528.83 Q1225.16 1534.41 1221.69 1537.51 Q1218.22 1540.59 1211.9 1540.59 Q1209.72 1540.59 1207.46 1540.22 Q1205.21 1539.85 1202.8 1539.11 L1202.8 1534.41 Q1204.89 1535.54 1207.11 1536.1 Q1209.33 1536.66 1211.81 1536.66 Q1215.81 1536.66 1218.15 1534.55 Q1220.49 1532.44 1220.49 1528.83 Q1220.49 1525.22 1218.15 1523.11 Q1215.81 1521.01 1211.81 1521.01 Q1209.93 1521.01 1208.06 1521.42 Q1206.21 1521.84 1204.26 1522.72 L1204.26 1505.36 Z" fill="#000000" fill-rule="evenodd" fill-opacity="1" /><path clip-path="url(#clip960)" d="M 0 0 M1230.23 1534.04 L1235.12 1534.04 L1235.12 1539.92 L1230.23 1539.92 L1230.23 1534.04 Z" fill="#000000" fill-rule="evenodd" fill-opacity="1" /><path clip-path="url(#clip960)" d="M 0 0 M1250.19 1508.44 Q1246.58 1508.44 1244.75 1512 Q1242.94 1515.55 1242.94 1522.67 Q1242.94 1529.78 1244.75 1533.35 Q1246.58 1536.89 1250.19 1536.89 Q1253.82 1536.89 1255.63 1533.35 Q1257.45 1529.78 1257.45 1522.67 Q1257.45 1515.55 1255.63 1512 Q1253.82 1508.44 1250.19 1508.44 M1250.19 1504.73 Q1256 1504.73 1259.05 1509.34 Q1262.13 1513.92 1262.13 1522.67 Q1262.13 1531.4 1259.05 1536.01 Q1256 1540.59 1250.19 1540.59 Q1244.38 1540.59 1241.3 1536.01 Q1238.24 1531.4 1238.24 1522.67 Q1238.24 1513.92 1241.3 1509.34 Q1244.38 1504.73 1250.19 1504.73 Z" fill="#000000" fill-rule="evenodd" fill-opacity="1" /><path clip-path="url(#clip960)" d="M 0 0 M1731.81 1505.36 L1754.03 1505.36 L1754.03 1507.35 L1741.48 1539.92 L1736.6 1539.92 L1748.4 1509.3 L1731.81 1509.3 L1731.81 1505.36 Z" fill="#000000" fill-rule="evenodd" fill-opacity="1" /><path clip-path="url(#clip960)" d="M 0 0 M1759.1 1534.04 L1763.98 1534.04 L1763.98 1539.92 L1759.1 1539.92 L1759.1 1534.04 Z" fill="#000000" fill-rule="evenodd" fill-opacity="1" /><path clip-path="url(#clip960)" d="M 0 0 M1769.1 1505.36 L1787.46 1505.36 L1787.46 1509.3 L1773.38 1509.3 L1773.38 1517.77 Q1774.4 1517.42 1775.42 1517.26 Q1776.44 1517.07 1777.46 1517.07 Q1783.24 1517.07 1786.62 1520.24 Q1790 1523.42 1790 1528.83 Q1790 1534.41 1786.53 1537.51 Q1783.06 1540.59 1776.74 1540.59 Q1774.56 1540.59 1772.29 1540.22 Q1770.05 1539.85 1767.64 1539.11 L1767.64 1534.41 Q1769.72 1535.54 1771.95 1536.1 Q1774.17 1536.66 1776.65 1536.66 Q1780.65 1536.66 1782.99 1534.55 Q1785.33 1532.44 1785.33 1528.83 Q1785.33 1525.22 1782.99 1523.11 Q1780.65 1521.01 1776.65 1521.01 Q1774.77 1521.01 1772.9 1521.42 Q1771.04 1521.84 1769.1 1522.72 L1769.1 1505.36 Z" fill="#000000" fill-rule="evenodd" fill-opacity="1" /><path clip-path="url(#clip960)" d="M 0 0 M2247.73 1535.98 L2255.37 1535.98 L2255.37 1509.62 L2247.06 1511.29 L2247.06 1507.03 L2255.33 1505.36 L2260 1505.36 L2260 1535.98 L2267.64 1535.98 L2267.64 1539.92 L2247.73 1539.92 L2247.73 1535.98 Z" fill="#000000" fill-rule="evenodd" fill-opacity="1" /><path clip-path="url(#clip960)" d="M 0 0 M2282.71 1508.44 Q2279.1 1508.44 2277.27 1512 Q2275.47 1515.55 2275.47 1522.67 Q2275.47 1529.78 2277.27 1533.35 Q2279.1 1536.89 2282.71 1536.89 Q2286.35 1536.89 2288.15 1533.35 Q2289.98 1529.78 2289.98 1522.67 Q2289.98 1515.55 2288.15 1512 Q2286.35 1508.44 2282.71 1508.44 M2282.71 1504.73 Q2288.52 1504.73 2291.58 1509.34 Q2294.66 1513.92 2294.66 1522.67 Q2294.66 1531.4 2291.58 1536.01 Q2288.52 1540.59 2282.71 1540.59 Q2276.9 1540.59 2273.82 1536.01 Q2270.77 1531.4 2270.77 1522.67 Q2270.77 1513.92 2273.82 1509.34 Q2276.9 1504.73 2282.71 1504.73 Z" fill="#000000" fill-rule="evenodd" fill-opacity="1" /><path clip-path="url(#clip960)" d="M 0 0 M2299.73 1534.04 L2304.61 1534.04 L2304.61 1539.92 L2299.73 1539.92 L2299.73 1534.04 Z" fill="#000000" fill-rule="evenodd" fill-opacity="1" /><path clip-path="url(#clip960)" d="M 0 0 M2319.68 1508.44 Q2316.07 1508.44 2314.24 1512 Q2312.43 1515.55 2312.43 1522.67 Q2312.43 1529.78 2314.24 1533.35 Q2316.07 1536.89 2319.68 1536.89 Q2323.31 1536.89 2325.12 1533.35 Q2326.95 1529.78 2326.95 1522.67 Q2326.95 1515.55 2325.12 1512 Q2323.31 1508.44 2319.68 1508.44 M2319.68 1504.73 Q2325.49 1504.73 2328.54 1509.34 Q2331.62 1513.92 2331.62 1522.67 Q2331.62 1531.4 2328.54 1536.01 Q2325.49 1540.59 2319.68 1540.59 Q2313.87 1540.59 2310.79 1536.01 Q2307.73 1531.4 2307.73 1522.67 Q2307.73 1513.92 2310.79 1509.34 Q2313.87 1504.73 2319.68 1504.73 Z" fill="#000000" fill-rule="evenodd" fill-opacity="1" /><path clip-path="url(#clip960)" d="M 0 0 M76.2328 1447.04 Q72.6217 1447.04 70.793 1450.6 Q68.9875 1454.15 68.9875 1461.28 Q68.9875 1468.38 70.793 1471.95 Q72.6217 1475.49 76.2328 1475.49 Q79.867 1475.49 81.6726 1471.95 Q83.5013 1468.38 83.5013 1461.28 Q83.5013 1454.15 81.6726 1450.6 Q79.867 1447.04 76.2328 1447.04 M76.2328 1443.34 Q82.0429 1443.34 85.0985 1447.94 Q88.1772 1452.53 88.1772 1461.28 Q88.1772 1470 85.0985 1474.61 Q82.0429 1479.19 76.2328 1479.19 Q70.4226 1479.19 67.344 1474.61 Q64.2884 1470 64.2884 1461.28 Q64.2884 1452.53 67.344 1447.94 Q70.4226 1443.34 76.2328 1443.34 Z" fill="#000000" fill-rule="evenodd" fill-opacity="1" /><path clip-path="url(#clip960)" d="M 0 0 M71.8578 1150.19 L88.1772 1150.19 L88.1772 1154.13 L66.2328 1154.13 L66.2328 1150.19 Q68.8949 1147.44 73.4782 1142.81 Q78.0846 1138.16 79.2652 1136.81 Q81.5105 1134.29 82.3902 1132.55 Q83.2929 1130.79 83.2929 1129.1 Q83.2929 1126.35 81.3485 1124.61 Q79.4272 1122.88 76.3254 1122.88 Q74.1263 1122.88 71.6726 1123.64 Q69.2421 1124.41 66.4643 1125.96 L66.4643 1121.23 Q69.2884 1120.1 71.7421 1119.52 Q74.1958 1118.94 76.2328 1118.94 Q81.6031 1118.94 84.7976 1121.63 Q87.992 1124.31 87.992 1128.8 Q87.992 1130.93 87.1818 1132.85 Q86.3948 1134.75 84.2883 1137.35 Q83.7096 1138.02 80.6078 1141.23 Q77.5059 1144.43 71.8578 1150.19 Z" fill="#000000" fill-rule="evenodd" fill-opacity="1" /><path clip-path="url(#clip960)" d="M 0 0 M78.5939 799.248 L66.7884 817.697 L78.5939 817.697 L78.5939 799.248 M77.367 795.174 L83.2466 795.174 L83.2466 817.697 L88.1772 817.697 L88.1772 821.586 L83.2466 821.586 L83.2466 829.734 L78.5939 829.734 L78.5939 821.586 L62.9921 821.586 L62.9921 817.072 L77.367 795.174 Z" fill="#000000" fill-rule="evenodd" fill-opacity="1" /><path clip-path="url(#clip960)" d="M 0 0 M76.6495 486.198 Q73.5013 486.198 71.6495 488.35 Q69.8208 490.503 69.8208 494.253 Q69.8208 497.98 71.6495 500.156 Q73.5013 502.309 76.6495 502.309 Q79.7976 502.309 81.6263 500.156 Q83.4781 497.98 83.4781 494.253 Q83.4781 490.503 81.6263 488.35 Q79.7976 486.198 76.6495 486.198 M85.9318 471.545 L85.9318 475.804 Q84.1726 474.971 82.367 474.531 Q80.5846 474.091 78.8254 474.091 Q74.1958 474.091 71.7421 477.216 Q69.3115 480.341 68.9643 486.661 Q70.33 484.647 72.3902 483.582 Q74.4504 482.494 76.9272 482.494 Q82.1355 482.494 85.1448 485.665 Q88.1772 488.813 88.1772 494.253 Q88.1772 499.577 85.029 502.795 Q81.8809 506.012 76.6495 506.012 Q70.6541 506.012 67.4828 501.429 Q64.3116 496.823 64.3116 488.096 Q64.3116 479.901 68.2004 475.04 Q72.0893 470.156 78.6402 470.156 Q80.3994 470.156 82.1818 470.503 Q83.9874 470.85 85.9318 471.545 Z" fill="#000000" fill-rule="evenodd" fill-opacity="1" /><path clip-path="url(#clip960)" d="M 0 0 M76.3254 164.536 Q72.9921 164.536 71.0708 166.318 Q69.1726 168.101 69.1726 171.226 Q69.1726 174.351 71.0708 176.133 Q72.9921 177.915 76.3254 177.915 Q79.6587 177.915 81.58 176.133 Q83.5013 174.327 83.5013 171.226 Q83.5013 168.101 81.58 166.318 Q79.6819 164.536 76.3254 164.536 M71.6495 162.545 Q68.6402 161.804 66.9504 159.744 Q65.2838 157.684 65.2838 154.721 Q65.2838 150.578 68.2236 148.17 Q71.1865 145.763 76.3254 145.763 Q81.4874 145.763 84.4272 148.17 Q87.367 150.578 87.367 154.721 Q87.367 157.684 85.6772 159.744 Q84.0105 161.804 81.0244 162.545 Q84.404 163.332 86.279 165.624 Q88.1772 167.915 88.1772 171.226 Q88.1772 176.249 85.0985 178.934 Q82.0429 181.619 76.3254 181.619 Q70.6078 181.619 67.5291 178.934 Q64.4736 176.249 64.4736 171.226 Q64.4736 167.915 66.3717 165.624 Q68.2699 163.332 71.6495 162.545 M69.9365 155.161 Q69.9365 157.846 71.6032 159.351 Q73.293 160.855 76.3254 160.855 Q79.3346 160.855 81.0244 159.351 Q82.7374 157.846 82.7374 155.161 Q82.7374 152.476 81.0244 150.971 Q79.3346 149.466 76.3254 149.466 Q73.293 149.466 71.6032 150.971 Q69.9365 152.476 69.9365 155.161 Z" fill="#000000" fill-rule="evenodd" fill-opacity="1" /><path clip-path="url(#clip962)" d="
M175.59 1299.04 L196.727 1297.2 L217.865 1288.68 L239.002 1276.13 L260.14 1260.01 L281.277 1240.39 L302.415 1216.66 L323.553 1188.36 L344.69 1154.75 L365.828 1119.5 
  L386.965 1076.56 L408.103 1024.9 L429.24 970.556 L450.378 911.505 L471.515 838.707 L492.653 760.792 L513.79 685.687 L534.928 602.287 L556.065 534.553 L577.203 503.03 
  L598.34 583.445 L619.478 750.836 L640.616 922.411 L661.753 1071.28 L682.891 1171.91 L704.028 1239.69 L725.166 1286.09 L746.303 1314.55 L767.441 1332.27 L788.578 1344.25 
  L809.716 1351.85 L830.853 1354.15 L851.991 1355.08 L873.128 1352.68 L894.266 1347.92 L915.404 1340.99 L936.541 1331.29 L957.679 1318.63 L978.816 1303.28 L999.954 1284.62 
  L1021.09 1264.94 L1042.23 1240.44 L1063.37 1212.45 L1084.5 1174.79 L1105.64 1137.68 L1126.78 1089.47 L1147.92 1031.84 L1169.05 978.997 L1190.19 912.152 L1211.33 841.495 
  L1232.47 766.405 L1253.6 699.582 L1274.74 693.547 L1295.88 807.171 L1317.02 952.113 L1338.15 1060.31 L1359.29 1149.52 L1380.43 1210.26 L1401.57 1255.59 L1422.7 1291.15 
  L1443.84 1315.07 L1464.98 1332.46 L1486.12 1343.66 L1507.25 1352.62 L1528.39 1361.42 L1549.53 1364.25 L1570.67 1368.19 L1591.8 1369.32 L1612.94 1368.33 L1634.08 1365.8 
  L1655.22 1360.62 L1676.35 1352.43 L1697.49 1341.57 L1718.63 1328.28 L1739.77 1313.44 L1760.9 1296.93 L1782.04 1271.21 L1803.18 1249.59 L1824.32 1225.82 L1845.46 1195.91 
  L1866.59 1153.36 L1887.73 1107.01 L1908.87 1063.58 L1930.01 1011.44 L1951.14 960.308 L1972.28 961.898 L1993.42 997.417 L2014.56 1077.13 L2035.69 1148.06 L2056.83 1197.34 
  L2077.97 1238.45 L2099.11 1270.4 L2120.24 1292.76 L2141.38 1312.39 L2162.52 1325.5 L2183.66 1335.72 L2204.79 1347.11 L2225.93 1355.23 L2247.07 1362.77 L2268.21 1367.89 
  L2289.34 1369.36 L2289.34 1124.83 L2268.21 1130.67 L2247.07 1101.45 L2225.93 999.667 L2204.79 796.405 L2183.66 433.918 L2162.52 228.589 L2141.38 156.72 L2120.24 111.783 
  L2099.11 87.9763 L2077.97 102.862 L2056.83 128.477 L2035.69 129.17 L2014.56 171.597 L1993.42 199.225 L1972.28 228.474 L1951.14 287.662 L1930.01 331.835 L1908.87 380.946 
  L1887.73 449.571 L1866.59 497.243 L1845.46 574.389 L1824.32 644.33 L1803.18 704.992 L1782.04 768.17 L1760.9 825.828 L1739.77 898.35 L1718.63 956.497 L1697.49 1008 
  L1676.35 1051.78 L1655.22 1091.06 L1634.08 1125.18 L1612.94 1152.53 L1591.8 1177.7 L1570.67 1189.82 L1549.53 1209.63 L1528.39 1207.84 L1507.25 1190.95 L1486.12 1140.01 
  L1464.98 1037.31 L1443.84 849.265 L1422.7 604.816 L1401.57 342.579 L1380.43 182.353 L1359.29 127.357 L1338.15 129.55 L1317.02 143.809 L1295.88 168.814 L1274.74 210.223 
  L1253.6 259.923 L1232.47 321.845 L1211.33 393.808 L1190.19 467.836 L1169.05 550.875 L1147.92 634.254 L1126.78 716.025 L1105.64 792.967 L1084.5 865.39 L1063.37 925.876 
  L1042.23 980.519 L1021.09 1031.76 L999.954 1078.93 L978.816 1117.87 L957.679 1152.61 L936.541 1177.12 L915.404 1200.98 L894.266 1219.76 L873.128 1230.39 L851.991 1241.47 
  L830.853 1243.09 L809.716 1239.81 L788.578 1221.11 L767.441 1187.3 L746.303 1124.11 L725.166 1021.21 L704.028 876.422 L682.891 681.835 L661.753 487.628 L640.616 324.625 
  L619.478 241.509 L598.34 213.954 L577.203 224.456 L556.065 253.946 L534.928 321.209 L513.79 411.716 L492.653 508.319 L471.515 600.533 L450.378 697.143 L429.24 784.714 
  L408.103 863.465 L386.965 934.862 L365.828 996.407 L344.69 1052.23 L323.553 1102.36 L302.415 1145.08 L281.277 1179.13 L260.14 1212.01 L239.002 1238.72 L217.865 1260.36 
  L196.727 1280.03 L175.59 1299.04  Z
  " fill="#009af9" fill-rule="evenodd" fill-opacity="0.2"/>
<polyline clip-path="url(#clip962)" style="stroke:#009af9; stroke-width:12; stroke-opacity:1; fill:none" points="
  175.59,1299.04 196.727,1288.89 217.865,1275.02 239.002,1258 260.14,1236.96 281.277,1212.12 302.415,1182.35 323.553,1147.59 344.69,1107.91 365.828,1061.61 
  386.965,1009.64 408.103,950.043 429.24,882.829 450.378,808.397 471.515,726.344 492.653,638.199 513.79,549.469 534.928,464.824 556.065,397.357 577.203,365.808 
  598.34,388.456 619.478,478.542 640.616,624.638 661.753,796.544 682.891,956.085 704.028,1082.88 725.166,1171.82 746.303,1229.99 767.441,1266.06 788.578,1287.88 
  809.716,1299.32 830.853,1304.01 851.991,1303.31 873.128,1298.08 894.266,1289.5 915.404,1277.28 936.541,1261.51 957.679,1242.04 978.816,1218.28 999.954,1190.36 
  1021.09,1157.26 1042.23,1120.11 1063.37,1077.95 1084.5,1028.59 1105.64,972.826 1126.78,909.799 1147.92,840.841 1169.05,765.437 1190.19,685.699 1211.33,606.427 
  1232.47,530.561 1253.6,467.617 1274.74,432.535 1295.88,433.932 1317.02,478.71 1338.15,568.63 1359.29,691.421 1380.43,829.941 1401.57,963.888 1422.7,1078.27 
  1443.84,1165.43 1464.98,1225.33 1486.12,1263.4 1507.25,1285.4 1528.39,1296.15 1549.53,1299.25 1570.67,1296.94 1591.8,1290.15 1612.94,1279.02 1634.08,1264.14 
  1655.22,1245.67 1676.35,1223.68 1697.49,1197.97 1718.63,1167.55 1739.77,1132.52 1760.9,1092.58 1782.04,1047.41 1803.18,996.31 1824.32,941.479 1845.46,881.356 
  1866.59,816.287 1887.73,751.178 1908.87,687.188 1930.01,628.244 1951.14,578.942 1972.28,546.168 1993.42,535.741 2014.56,549.053 2035.69,588.736 2056.83,654.565 
  2077.97,737.98 2099.11,834.902 2120.24,931.587 2141.38,1019.61 2162.52,1095.22 2183.66,1156.17 2204.79,1202.73 2225.93,1236.46 2247.07,1258.31 2268.21,1269.75 
  2289.34,1272.58 
  "/>
<path clip-path="url(#clip962)" d="
M175.59 1299.04 L196.727 1334.91 L217.865 1359.06 L239.002 1377.13 L260.14 1391.5 L281.277 1402.26 L302.415 1410.76 L323.553 1416.98 L344.69 1421.99 L365.828 1425.62 
  L386.965 1427.81 L408.103 1429.37 L429.24 1429.29 L450.378 1428 L471.515 1425.5 L492.653 1420.37 L513.79 1413.05 L534.928 1399.85 L556.065 1380.18 L577.203 1348.73 
  L598.34 1294.41 L619.478 1212.26 L640.616 1098.01 L661.753 970.376 L682.891 894.174 L704.028 917.143 L725.166 987.1 L746.303 1068.7 L767.441 1134.62 L788.578 1194.67 
  L809.716 1242.55 L830.853 1286.1 L851.991 1315.84 L873.128 1343.64 L894.266 1366.2 L915.404 1383.11 L936.541 1395.36 L957.679 1406.48 L978.816 1415.01 L999.954 1421.7 
  L1021.09 1426.77 L1042.23 1431.15 L1063.37 1434.56 L1084.5 1437.45 L1105.64 1438.95 L1126.78 1439.86 L1147.92 1440.85 L1169.05 1440.69 L1190.19 1440.23 L1211.33 1437.86 
  L1232.47 1433.78 L1253.6 1429.66 L1274.74 1421.13 L1295.88 1404.36 L1317.02 1379.35 L1338.15 1331.16 L1359.29 1245.38 L1380.43 1125.97 L1401.57 1076.94 L1422.7 1096.37 
  L1443.84 1154.53 L1464.98 1199.94 L1486.12 1245.53 L1507.25 1280.68 L1528.39 1311.8 L1549.53 1336.88 L1570.67 1357.33 L1591.8 1373.45 L1612.94 1388.16 L1634.08 1399.47 
  L1655.22 1408.74 L1676.35 1415.71 L1697.49 1421.59 L1718.63 1426.24 L1739.77 1430.88 L1760.9 1434.09 L1782.04 1436.78 L1803.18 1439.18 L1824.32 1440.76 L1845.46 1442.36 
  L1866.59 1443.66 L1887.73 1444.53 L1908.87 1445.57 L1930.01 1445.72 L1951.14 1444.38 L1972.28 1443.35 L1993.42 1441.14 L2014.56 1436.13 L2035.69 1429.73 L2056.83 1418.44 
  L2077.97 1399.63 L2099.11 1372.84 L2120.24 1312.14 L2141.38 1273.01 L2162.52 1273.96 L2183.66 1295.06 L2204.79 1317.64 L2225.93 1337.27 L2247.07 1352.28 L2268.21 1366.98 
  L2289.34 1379.16 L2289.34 803.677 L2268.21 700.753 L2247.07 615.737 L2225.93 568.246 L2204.79 531.687 L2183.66 520.549 L2162.52 526.638 L2141.38 540.943 L2120.24 538.22 
  L2099.11 583.487 L2077.97 617.072 L2056.83 659.816 L2035.69 707.208 L2014.56 745.792 L1993.42 797.937 L1972.28 876.138 L1951.14 955.18 L1930.01 1042.38 L1908.87 1126.16 
  L1887.73 1207.31 L1866.59 1275.46 L1845.46 1313.28 L1824.32 1335.72 L1803.18 1355.06 L1782.04 1367.68 L1760.9 1372.49 L1739.77 1372.25 L1718.63 1363.8 L1697.49 1350.33 
  L1676.35 1329.29 L1655.22 1300.58 L1634.08 1266.36 L1612.94 1218.91 L1591.8 1154.7 L1570.67 1079.82 L1549.53 991.784 L1528.39 875.299 L1507.25 743.005 L1486.12 635.01 
  L1464.98 568.78 L1443.84 541.53 L1422.7 540.913 L1401.57 551.099 L1380.43 579.602 L1359.29 611.512 L1338.15 678.019 L1317.02 746.971 L1295.88 840.395 L1274.74 937.743 
  L1253.6 1063.26 L1232.47 1162.68 L1211.33 1237.37 L1190.19 1294.54 L1169.05 1332.15 L1147.92 1353.65 L1126.78 1369.84 L1105.64 1378.22 L1084.5 1385.08 L1063.37 1386.06 
  L1042.23 1384.6 L1021.09 1379.31 L999.954 1371.46 L978.816 1359.89 L957.679 1342.9 L936.541 1320.25 L915.404 1293.9 L894.266 1261.26 L873.128 1217.5 L851.991 1163.53 
  L830.853 1094.98 L809.716 1022.92 L788.578 931.017 L767.441 836.984 L746.303 744.657 L725.166 654.111 L704.028 598.576 L682.891 585.201 L661.753 614.935 L640.616 653.459 
  L619.478 756.35 L598.34 908.879 L577.203 1060.79 L556.065 1182.13 L534.928 1267.51 L513.79 1325.09 L492.653 1360.45 L471.515 1381.11 L450.378 1394.34 L429.24 1402.21 
  L408.103 1407.16 L386.965 1408.48 L365.828 1407.91 L344.69 1405.74 L323.553 1401.54 L302.415 1394.84 L281.277 1386.26 L260.14 1374.63 L239.002 1361.26 L217.865 1342.84 
  L196.727 1321.08 L175.59 1299.04  Z
  " fill="#e26f46" fill-rule="evenodd" fill-opacity="0.2"/>
<polyline clip-path="url(#clip962)" style="stroke:#e26f46; stroke-width:12; stroke-opacity:1; fill:none" points="
  175.59,1299.04 196.727,1328.02 217.865,1351.24 239.002,1369.34 260.14,1383.59 281.277,1394.62 302.415,1403.19 323.553,1409.59 344.69,1414.17 365.828,1417.2 
  386.965,1418.85 408.103,1418.99 429.24,1417.27 450.378,1413.38 471.515,1406.46 492.653,1395.11 513.79,1376.8 534.928,1347.33 556.065,1300.36 577.203,1228.67 
  598.34,1126.74 619.478,1001.45 640.616,874.813 661.753,781.815 682.891,744.843 704.028,765.406 725.166,827.165 746.303,909.41 767.441,994.046 788.578,1072.95 
  809.716,1141.78 830.853,1200.05 851.991,1247.95 873.128,1287.07 894.266,1318.37 915.404,1342.96 936.541,1362.71 957.679,1378.17 978.816,1390.4 999.954,1399.59 
  1021.09,1406.54 1042.23,1411.68 1063.37,1414.88 1084.5,1416.55 1105.64,1416.56 1126.78,1414.6 1147.92,1410.47 1169.05,1403.06 1190.19,1391 1211.33,1372.09 
  1232.47,1343.67 1253.6,1301.39 1274.74,1241.51 1295.88,1163.97 1317.02,1070.97 1338.15,971.844 1359.29,884.908 1380.43,824.035 1401.57,800.651 1422.7,817.186 
  1443.84,865.612 1464.98,934.148 1486.12,1011.55 1507.25,1085.11 1528.39,1151.58 1549.53,1208.09 1570.67,1255.12 1591.8,1292.73 1612.94,1323.18 1634.08,1347.17 
  1655.22,1365.86 1676.35,1380.48 1697.49,1391.65 1718.63,1400.03 1739.77,1406.01 1760.9,1409.81 1782.04,1411.61 1803.18,1411.38 1824.32,1408.82 1845.46,1403.57 
  1866.59,1394.53 1887.73,1380.72 1908.87,1360.9 1930.01,1333.48 1951.14,1296.39 1972.28,1250.24 1993.42,1195.06 2014.56,1132.41 2035.69,1066.67 2056.83,1003.29 
  2077.97,950.067 2099.11,913.026 2120.24,896.888 2141.38,905.001 2162.52,932.536 2183.66,973.081 2204.79,1023.42 2225.93,1076.85 2247.07,1130.01 2268.21,1180.77 
  2289.34,1226.8 
  "/>
</svg>
