<?xml version="1.0" encoding="utf-8"?>
<svg xmlns="http://www.w3.org/2000/svg" xmlns:xlink="http://www.w3.org/1999/xlink" width="600" height="400" viewBox="0 0 2400 1600">
<defs>
  <clipPath id="clip280">
    <rect x="0" y="0" width="2400" height="1600"/>
  </clipPath>
</defs>
<path clip-path="url(#clip280)" d="
M0 1600 L2400 1600 L2400 0 L0 0  Z
  " fill="#ffffff" fill-rule="evenodd" fill-opacity="1"/>
<defs>
  <clipPath id="clip281">
    <rect x="480" y="0" width="1681" height="1600"/>
  </clipPath>
</defs>
<path clip-path="url(#clip280)" d="
M112.177 1486.45 L2352.76 1486.45 L2352.76 47.2441 L112.177 47.2441  Z
  " fill="#ffffff" fill-rule="evenodd" fill-opacity="1"/>
<defs>
  <clipPath id="clip282">
    <rect x="112" y="47" width="2242" height="1440"/>
  </clipPath>
</defs>
<polyline clip-path="url(#clip282)" style="stroke:#000000; stroke-width:2; stroke-opacity:0.1; fill:none" points="
  175.59,1486.45 175.59,47.2441 
  "/>
<polyline clip-path="url(#clip282)" style="stroke:#000000; stroke-width:2; stroke-opacity:0.1; fill:none" points="
  704.028,1486.45 704.028,47.2441 
  "/>
<polyline clip-path="url(#clip282)" style="stroke:#000000; stroke-width:2; stroke-opacity:0.1; fill:none" points="
  1232.47,1486.45 1232.47,47.2441 
  "/>
<polyline clip-path="url(#clip282)" style="stroke:#000000; stroke-width:2; stroke-opacity:0.1; fill:none" points="
  1760.9,1486.45 1760.9,47.2441 
  "/>
<polyline clip-path="url(#clip282)" style="stroke:#000000; stroke-width:2; stroke-opacity:0.1; fill:none" points="
  2289.34,1486.45 2289.34,47.2441 
  "/>
<polyline clip-path="url(#clip282)" style="stroke:#000000; stroke-width:2; stroke-opacity:0.1; fill:none" points="
  112.177,1463.46 2352.76,1463.46 
  "/>
<polyline clip-path="url(#clip282)" style="stroke:#000000; stroke-width:2; stroke-opacity:0.1; fill:none" points="
  112.177,1133.27 2352.76,1133.27 
  "/>
<polyline clip-path="url(#clip282)" style="stroke:#000000; stroke-width:2; stroke-opacity:0.1; fill:none" points="
  112.177,803.081 2352.76,803.081 
  "/>
<polyline clip-path="url(#clip282)" style="stroke:#000000; stroke-width:2; stroke-opacity:0.1; fill:none" points="
  112.177,472.891 2352.76,472.891 
  "/>
<polyline clip-path="url(#clip282)" style="stroke:#000000; stroke-width:2; stroke-opacity:0.1; fill:none" points="
  112.177,142.701 2352.76,142.701 
  "/>
<polyline clip-path="url(#clip280)" style="stroke:#000000; stroke-width:4; stroke-opacity:1; fill:none" points="
  112.177,1486.45 2352.76,1486.45 
  "/>
<polyline clip-path="url(#clip280)" style="stroke:#000000; stroke-width:4; stroke-opacity:1; fill:none" points="
  112.177,1486.45 112.177,47.2441 
  "/>
<polyline clip-path="url(#clip280)" style="stroke:#000000; stroke-width:4; stroke-opacity:1; fill:none" points="
  175.59,1486.45 175.59,1469.18 
  "/>
<polyline clip-path="url(#clip280)" style="stroke:#000000; stroke-width:4; stroke-opacity:1; fill:none" points="
  704.028,1486.45 704.028,1469.18 
  "/>
<polyline clip-path="url(#clip280)" style="stroke:#000000; stroke-width:4; stroke-opacity:1; fill:none" points="
  1232.47,1486.45 1232.47,1469.18 
  "/>
<polyline clip-path="url(#clip280)" style="stroke:#000000; stroke-width:4; stroke-opacity:1; fill:none" points="
  1760.9,1486.45 1760.9,1469.18 
  "/>
<polyline clip-path="url(#clip280)" style="stroke:#000000; stroke-width:4; stroke-opacity:1; fill:none" points="
  2289.34,1486.45 2289.34,1469.18 
  "/>
<polyline clip-path="url(#clip280)" style="stroke:#000000; stroke-width:4; stroke-opacity:1; fill:none" points="
  112.177,1463.46 139.064,1463.46 
  "/>
<polyline clip-path="url(#clip280)" style="stroke:#000000; stroke-width:4; stroke-opacity:1; fill:none" points="
  112.177,1133.27 139.064,1133.27 
  "/>
<polyline clip-path="url(#clip280)" style="stroke:#000000; stroke-width:4; stroke-opacity:1; fill:none" points="
  112.177,803.081 139.064,803.081 
  "/>
<polyline clip-path="url(#clip280)" style="stroke:#000000; stroke-width:4; stroke-opacity:1; fill:none" points="
  112.177,472.891 139.064,472.891 
  "/>
<polyline clip-path="url(#clip280)" style="stroke:#000000; stroke-width:4; stroke-opacity:1; fill:none" points="
  112.177,142.701 139.064,142.701 
  "/>
<path clip-path="url(#clip280)" d="M 0 0 M157.106 1508.44 Q153.495 1508.44 151.666 1512 Q149.861 1515.55 149.861 1522.67 Q149.861 1529.78 151.666 1533.35 Q153.495 1536.89 157.106 1536.89 Q160.74 1536.89 162.546 1533.35 Q164.375 1529.78 164.375 1522.67 Q164.375 1515.55 162.546 1512 Q160.74 1508.44 157.106 1508.44 M157.106 1504.73 Q162.916 1504.73 165.972 1509.34 Q169.05 1513.92 169.05 1522.67 Q169.05 1531.4 165.972 1536.01 Q162.916 1540.59 157.106 1540.59 Q151.296 1540.59 148.217 1536.01 Q145.162 1531.4 145.162 1522.67 Q145.162 1513.92 148.217 1509.34 Q151.296 1504.73 157.106 1504.73 Z" fill="#000000" fill-rule="evenodd" fill-opacity="1" /><path clip-path="url(#clip280)" d="M 0 0 M174.12 1534.04 L179.004 1534.04 L179.004 1539.92 L174.12 1539.92 L174.12 1534.04 Z" fill="#000000" fill-rule="evenodd" fill-opacity="1" /><path clip-path="url(#clip280)" d="M 0 0 M194.073 1508.44 Q190.462 1508.44 188.634 1512 Q186.828 1515.55 186.828 1522.67 Q186.828 1529.78 188.634 1533.35 Q190.462 1536.89 194.073 1536.89 Q197.708 1536.89 199.513 1533.35 Q201.342 1529.78 201.342 1522.67 Q201.342 1515.55 199.513 1512 Q197.708 1508.44 194.073 1508.44 M194.073 1504.73 Q199.884 1504.73 202.939 1509.34 Q206.018 1513.92 206.018 1522.67 Q206.018 1531.4 202.939 1536.01 Q199.884 1540.59 194.073 1540.59 Q188.263 1540.59 185.185 1536.01 Q182.129 1531.4 182.129 1522.67 Q182.129 1513.92 185.185 1509.34 Q188.263 1504.73 194.073 1504.73 Z" fill="#000000" fill-rule="evenodd" fill-opacity="1" /><path clip-path="url(#clip280)" d="M 0 0 M680.695 1535.98 L697.014 1535.98 L697.014 1539.92 L675.07 1539.92 L675.07 1535.98 Q677.732 1533.23 682.315 1528.6 Q686.922 1523.95 688.102 1522.61 Q690.348 1520.08 691.227 1518.35 Q692.13 1516.59 692.13 1514.9 Q692.13 1512.14 690.186 1510.41 Q688.264 1508.67 685.163 1508.67 Q682.963 1508.67 680.51 1509.43 Q678.079 1510.2 675.301 1511.75 L675.301 1507.03 Q678.126 1505.89 680.579 1505.31 Q683.033 1504.73 685.07 1504.73 Q690.44 1504.73 693.635 1507.42 Q696.829 1510.11 696.829 1514.6 Q696.829 1516.73 696.019 1518.65 Q695.232 1520.54 693.125 1523.14 Q692.547 1523.81 689.445 1527.03 Q686.343 1530.22 680.695 1535.98 Z" fill="#000000" fill-rule="evenodd" fill-opacity="1" /><path clip-path="url(#clip280)" d="M 0 0 M702.084 1534.04 L706.968 1534.04 L706.968 1539.92 L702.084 1539.92 L702.084 1534.04 Z" fill="#000000" fill-rule="evenodd" fill-opacity="1" /><path clip-path="url(#clip280)" d="M 0 0 M712.084 1505.36 L730.44 1505.36 L730.44 1509.3 L716.366 1509.3 L716.366 1517.77 Q717.385 1517.42 718.403 1517.26 Q719.422 1517.07 720.44 1517.07 Q726.227 1517.07 729.607 1520.24 Q732.986 1523.42 732.986 1528.83 Q732.986 1534.41 729.514 1537.51 Q726.042 1540.59 719.723 1540.59 Q717.547 1540.59 715.278 1540.22 Q713.033 1539.85 710.625 1539.11 L710.625 1534.41 Q712.709 1535.54 714.931 1536.1 Q717.153 1536.66 719.63 1536.66 Q723.635 1536.66 725.972 1534.55 Q728.31 1532.44 728.31 1528.83 Q728.31 1525.22 725.972 1523.11 Q723.635 1521.01 719.63 1521.01 Q717.755 1521.01 715.88 1521.42 Q714.028 1521.84 712.084 1522.72 L712.084 1505.36 Z" fill="#000000" fill-rule="evenodd" fill-opacity="1" /><path clip-path="url(#clip280)" d="M 0 0 M1204.26 1505.36 L1222.62 1505.36 L1222.62 1509.3 L1208.54 1509.3 L1208.54 1517.77 Q1209.56 1517.42 1210.58 1517.26 Q1211.6 1517.07 1212.62 1517.07 Q1218.4 1517.07 1221.78 1520.24 Q1225.16 1523.42 1225.16 1528.83 Q1225.16 1534.41 1221.69 1537.51 Q1218.22 1540.59 1211.9 1540.59 Q1209.72 1540.59 1207.46 1540.22 Q1205.21 1539.85 1202.8 1539.11 L1202.8 1534.41 Q1204.89 1535.54 1207.11 1536.1 Q1209.33 1536.66 1211.81 1536.66 Q1215.81 1536.66 1218.15 1534.55 Q1220.49 1532.44 1220.49 1528.83 Q1220.49 1525.22 1218.15 1523.11 Q1215.81 1521.01 1211.81 1521.01 Q1209.93 1521.01 1208.06 1521.42 Q1206.21 1521.84 1204.26 1522.72 L1204.26 1505.36 Z" fill="#000000" fill-rule="evenodd" fill-opacity="1" /><path clip-path="url(#clip280)" d="M 0 0 M1230.23 1534.04 L1235.12 1534.04 L1235.12 1539.92 L1230.23 1539.92 L1230.23 1534.04 Z" fill="#000000" fill-rule="evenodd" fill-opacity="1" /><path clip-path="url(#clip280)" d="M 0 0 M1250.19 1508.44 Q1246.58 1508.44 1244.75 1512 Q1242.94 1515.55 1242.94 1522.67 Q1242.94 1529.78 1244.75 1533.35 Q1246.58 1536.89 1250.19 1536.89 Q1253.82 1536.89 1255.63 1533.35 Q1257.45 1529.78 1257.45 1522.67 Q1257.45 1515.55 1255.63 1512 Q1253.82 1508.44 1250.19 1508.44 M1250.19 1504.73 Q1256 1504.73 1259.05 1509.34 Q1262.13 1513.92 1262.13 1522.67 Q1262.13 1531.4 1259.05 1536.01 Q1256 1540.59 1250.19 1540.59 Q1244.38 1540.59 1241.3 1536.01 Q1238.24 1531.4 1238.24 1522.67 Q1238.24 1513.92 1241.3 1509.34 Q1244.38 1504.73 1250.19 1504.73 Z" fill="#000000" fill-rule="evenodd" fill-opacity="1" /><path clip-path="url(#clip280)" d="M 0 0 M1731.81 1505.36 L1754.03 1505.36 L1754.03 1507.35 L1741.48 1539.92 L1736.6 1539.92 L1748.4 1509.3 L1731.81 1509.3 L1731.81 1505.36 Z" fill="#000000" fill-rule="evenodd" fill-opacity="1" /><path clip-path="url(#clip280)" d="M 0 0 M1759.1 1534.04 L1763.98 1534.04 L1763.98 1539.92 L1759.1 1539.92 L1759.1 1534.04 Z" fill="#000000" fill-rule="evenodd" fill-opacity="1" /><path clip-path="url(#clip280)" d="M 0 0 M1769.1 1505.36 L1787.46 1505.36 L1787.46 1509.3 L1773.38 1509.3 L1773.38 1517.77 Q1774.4 1517.42 1775.42 1517.26 Q1776.44 1517.07 1777.46 1517.07 Q1783.24 1517.07 1786.62 1520.24 Q1790 1523.42 1790 1528.83 Q1790 1534.41 1786.53 1537.51 Q1783.06 1540.59 1776.74 1540.59 Q1774.56 1540.59 1772.29 1540.22 Q1770.05 1539.85 1767.64 1539.11 L1767.64 1534.41 Q1769.72 1535.54 1771.95 1536.1 Q1774.17 1536.66 1776.65 1536.66 Q1780.65 1536.66 1782.99 1534.55 Q1785.33 1532.44 1785.33 1528.83 Q1785.33 1525.22 1782.99 1523.11 Q1780.65 1521.01 1776.65 1521.01 Q1774.77 1521.01 1772.9 1521.42 Q1771.04 1521.84 1769.1 1522.72 L1769.1 1505.36 Z" fill="#000000" fill-rule="evenodd" fill-opacity="1" /><path clip-path="url(#clip280)" d="M 0 0 M2247.73 1535.98 L2255.37 1535.98 L2255.37 1509.62 L2247.06 1511.29 L2247.06 1507.03 L2255.33 1505.36 L2260 1505.36 L2260 1535.98 L2267.64 1535.98 L2267.64 1539.92 L2247.73 1539.92 L2247.73 1535.98 Z" fill="#000000" fill-rule="evenodd" fill-opacity="1" /><path clip-path="url(#clip280)" d="M 0 0 M2282.71 1508.44 Q2279.1 1508.44 2277.27 1512 Q2275.47 1515.55 2275.47 1522.67 Q2275.47 1529.78 2277.27 1533.35 Q2279.1 1536.89 2282.71 1536.89 Q2286.35 1536.89 2288.15 1533.35 Q2289.98 1529.78 2289.98 1522.67 Q2289.98 1515.55 2288.15 1512 Q2286.35 1508.44 2282.71 1508.44 M2282.71 1504.73 Q2288.52 1504.73 2291.58 1509.34 Q2294.66 1513.92 2294.66 1522.67 Q2294.66 1531.4 2291.58 1536.01 Q2288.52 1540.59 2282.71 1540.59 Q2276.9 1540.59 2273.82 1536.01 Q2270.77 1531.4 2270.77 1522.67 Q2270.77 1513.92 2273.82 1509.34 Q2276.9 1504.73 2282.71 1504.73 Z" fill="#000000" fill-rule="evenodd" fill-opacity="1" /><path clip-path="url(#clip280)" d="M 0 0 M2299.73 1534.04 L2304.61 1534.04 L2304.61 1539.92 L2299.73 1539.92 L2299.73 1534.04 Z" fill="#000000" fill-rule="evenodd" fill-opacity="1" /><path clip-path="url(#clip280)" d="M 0 0 M2319.68 1508.44 Q2316.07 1508.44 2314.24 1512 Q2312.43 1515.55 2312.43 1522.67 Q2312.43 1529.78 2314.24 1533.35 Q2316.07 1536.89 2319.68 1536.89 Q2323.31 1536.89 2325.12 1533.35 Q2326.95 1529.78 2326.95 1522.67 Q2326.95 1515.55 2325.12 1512 Q2323.31 1508.44 2319.68 1508.44 M2319.68 1504.73 Q2325.49 1504.73 2328.54 1509.34 Q2331.62 1513.92 2331.62 1522.67 Q2331.62 1531.4 2328.54 1536.01 Q2325.49 1540.59 2319.68 1540.59 Q2313.87 1540.59 2310.79 1536.01 Q2307.73 1531.4 2307.73 1522.67 Q2307.73 1513.92 2310.79 1509.34 Q2313.87 1504.73 2319.68 1504.73 Z" fill="#000000" fill-rule="evenodd" fill-opacity="1" /><path clip-path="url(#clip280)" d="M 0 0 M76.2328 1449.26 Q72.6217 1449.26 70.793 1452.83 Q68.9875 1456.37 68.9875 1463.5 Q68.9875 1470.6 70.793 1474.17 Q72.6217 1477.71 76.2328 1477.71 Q79.867 1477.71 81.6726 1474.17 Q83.5013 1470.6 83.5013 1463.5 Q83.5013 1456.37 81.6726 1452.83 Q79.867 1449.26 76.2328 1449.26 M76.2328 1445.56 Q82.0429 1445.56 85.0985 1450.16 Q88.1772 1454.75 88.1772 1463.5 Q88.1772 1472.22 85.0985 1476.83 Q82.0429 1481.41 76.2328 1481.41 Q70.4226 1481.41 67.344 1476.83 Q64.2884 1472.22 64.2884 1463.5 Q64.2884 1454.75 67.344 1450.16 Q70.4226 1445.56 76.2328 1445.56 Z" fill="#000000" fill-rule="evenodd" fill-opacity="1" /><path clip-path="url(#clip280)" d="M 0 0 M71.8578 1146.62 L88.1772 1146.62 L88.1772 1150.55 L66.2328 1150.55 L66.2328 1146.62 Q68.8949 1143.86 73.4782 1139.23 Q78.0846 1134.58 79.2652 1133.24 Q81.5105 1130.71 82.3902 1128.98 Q83.2929 1127.22 83.2929 1125.53 Q83.2929 1122.77 81.3485 1121.04 Q79.4272 1119.3 76.3254 1119.3 Q74.1263 1119.3 71.6726 1120.07 Q69.2421 1120.83 66.4643 1122.38 L66.4643 1117.66 Q69.2884 1116.52 71.7421 1115.95 Q74.1958 1115.37 76.2328 1115.37 Q81.6031 1115.37 84.7976 1118.05 Q87.992 1120.74 87.992 1125.23 Q87.992 1127.36 87.1818 1129.28 Q86.3948 1131.18 84.2883 1133.77 Q83.7096 1134.44 80.6078 1137.66 Q77.5059 1140.85 71.8578 1146.62 Z" fill="#000000" fill-rule="evenodd" fill-opacity="1" /><path clip-path="url(#clip280)" d="M 0 0 M78.5939 789.875 L66.7884 808.324 L78.5939 808.324 L78.5939 789.875 M77.367 785.801 L83.2466 785.801 L83.2466 808.324 L88.1772 808.324 L88.1772 812.213 L83.2466 812.213 L83.2466 820.361 L78.5939 820.361 L78.5939 812.213 L62.9921 812.213 L62.9921 807.699 L77.367 785.801 Z" fill="#000000" fill-rule="evenodd" fill-opacity="1" /><path clip-path="url(#clip280)" d="M 0 0 M76.6495 471.028 Q73.5013 471.028 71.6495 473.181 Q69.8208 475.333 69.8208 479.083 Q69.8208 482.81 71.6495 484.986 Q73.5013 487.139 76.6495 487.139 Q79.7976 487.139 81.6263 484.986 Q83.4781 482.81 83.4781 479.083 Q83.4781 475.333 81.6263 473.181 Q79.7976 471.028 76.6495 471.028 M85.9318 456.375 L85.9318 460.634 Q84.1726 459.801 82.367 459.361 Q80.5846 458.921 78.8254 458.921 Q74.1958 458.921 71.7421 462.046 Q69.3115 465.171 68.9643 471.491 Q70.33 469.477 72.3902 468.412 Q74.4504 467.324 76.9272 467.324 Q82.1355 467.324 85.1448 470.495 Q88.1772 473.644 88.1772 479.083 Q88.1772 484.407 85.029 487.625 Q81.8809 490.843 76.6495 490.843 Q70.6541 490.843 67.4828 486.259 Q64.3116 481.653 64.3116 472.926 Q64.3116 464.732 68.2004 459.87 Q72.0893 454.986 78.6402 454.986 Q80.3994 454.986 82.1818 455.333 Q83.9874 455.681 85.9318 456.375 Z" fill="#000000" fill-rule="evenodd" fill-opacity="1" /><path clip-path="url(#clip280)" d="M 0 0 M76.3254 143.569 Q72.9921 143.569 71.0708 145.352 Q69.1726 147.134 69.1726 150.259 Q69.1726 153.384 71.0708 155.166 Q72.9921 156.949 76.3254 156.949 Q79.6587 156.949 81.58 155.166 Q83.5013 153.361 83.5013 150.259 Q83.5013 147.134 81.58 145.352 Q79.6819 143.569 76.3254 143.569 M71.6495 141.578 Q68.6402 140.838 66.9504 138.777 Q65.2838 136.717 65.2838 133.754 Q65.2838 129.611 68.2236 127.203 Q71.1865 124.796 76.3254 124.796 Q81.4874 124.796 84.4272 127.203 Q87.367 129.611 87.367 133.754 Q87.367 136.717 85.6772 138.777 Q84.0105 140.838 81.0244 141.578 Q84.404 142.365 86.279 144.657 Q88.1772 146.949 88.1772 150.259 Q88.1772 155.282 85.0985 157.967 Q82.0429 160.652 76.3254 160.652 Q70.6078 160.652 67.5291 157.967 Q64.4736 155.282 64.4736 150.259 Q64.4736 146.949 66.3717 144.657 Q68.2699 142.365 71.6495 141.578 M69.9365 134.194 Q69.9365 136.879 71.6032 138.384 Q73.293 139.889 76.3254 139.889 Q79.3346 139.889 81.0244 138.384 Q82.7374 136.879 82.7374 134.194 Q82.7374 131.509 81.0244 130.004 Q79.3346 128.5 76.3254 128.5 Q73.293 128.5 71.6032 130.004 Q69.9365 131.509 69.9365 134.194 Z" fill="#000000" fill-rule="evenodd" fill-opacity="1" /><path clip-path="url(#clip282)" d="
M175.59 1298.37 L196.727 1297.29 L217.865 1288.14 L239.002 1275.31 L260.14 1258.13 L281.277 1237.31 L302.415 1213.07 L323.553 1185.7 L344.69 1153.78 L365.828 1116.24 
  L386.965 1072.12 L408.103 1022.85 L429.24 968.517 L450.378 912.519 L471.515 837.138 L492.653 757.831 L513.79 675.161 L534.928 592.311 L556.065 514.109 L577.203 488.871 
  L598.34 582.328 L619.478 738.521 L640.616 915.702 L661.753 1066.08 L682.891 1172.42 L704.028 1239.02 L725.166 1282.37 L746.303 1312.53 L767.441 1332.18 L788.578 1344.74 
  L809.716 1352.66 L830.853 1357.28 L851.991 1358.15 L873.128 1356.01 L894.266 1350.74 L915.404 1343.24 L936.541 1333.84 L957.679 1321.96 L978.816 1309.26 L999.954 1290.46 
  L1021.09 1268.71 L1042.23 1240.69 L1063.37 1213.75 L1084.5 1177.58 L1105.64 1141.7 L1126.78 1096.95 L1147.92 1043.02 L1169.05 978.356 L1190.19 908.923 L1211.33 832.642 
  L1232.47 754.67 L1253.6 685.823 L1274.74 677.169 L1295.88 800.976 L1317.02 929.412 L1338.15 1049.15 L1359.29 1145.69 L1380.43 1211.65 L1401.57 1263.17 L1422.7 1293.25 
  L1443.84 1315.3 L1464.98 1330.55 L1486.12 1342.69 L1507.25 1351.83 L1528.39 1360.11 L1549.53 1363.9 L1570.67 1366.78 L1591.8 1366.98 L1612.94 1365.41 L1634.08 1362.71 
  L1655.22 1357.72 L1676.35 1349.05 L1697.49 1339.43 L1718.63 1327.24 L1739.77 1311.66 L1760.9 1294.28 L1782.04 1271.22 L1803.18 1248.45 L1824.32 1221.21 L1845.46 1177.51 
  L1866.59 1139.83 L1887.73 1093.35 L1908.87 1037.14 L1930.01 978.401 L1951.14 929.59 L1972.28 941.286 L1993.42 974.042 L2014.56 1056.1 L2035.69 1132.32 L2056.83 1198.62 
  L2077.97 1242.06 L2099.11 1274.01 L2120.24 1301.09 L2141.38 1316.07 L2162.52 1329.49 L2183.66 1340.56 L2204.79 1348.02 L2225.93 1355.35 L2247.07 1364.29 L2268.21 1368.54 
  L2289.34 1370.56 L2289.34 1105.72 L2268.21 1115.36 L2247.07 1097.41 L2225.93 1048.54 L2204.79 857.986 L2183.66 567.724 L2162.52 219.344 L2141.38 163.239 L2120.24 99.6929 
  L2099.11 90.8856 L2077.97 87.9763 L2056.83 118.977 L2035.69 113.337 L2014.56 137.975 L1993.42 177.777 L1972.28 224.69 L1951.14 257.937 L1930.01 296.295 L1908.87 356.475 
  L1887.73 423.949 L1866.59 496.307 L1845.46 572.394 L1824.32 636.04 L1803.18 702.694 L1782.04 772.439 L1760.9 839.692 L1739.77 899.141 L1718.63 953.862 L1697.49 1006.85 
  L1676.35 1056.96 L1655.22 1091.71 L1634.08 1124.79 L1612.94 1150.51 L1591.8 1172.49 L1570.67 1190.94 L1549.53 1203.59 L1528.39 1202.72 L1507.25 1183.45 L1486.12 1130.28 
  L1464.98 996.938 L1443.84 806.608 L1422.7 527.904 L1401.57 290.046 L1380.43 169.345 L1359.29 111.957 L1338.15 90.064 L1317.02 135.698 L1295.88 148.761 L1274.74 198.176 
  L1253.6 246.745 L1232.47 314.093 L1211.33 375.074 L1190.19 445.251 L1169.05 529.068 L1147.92 606.886 L1126.78 694.651 L1105.64 771.054 L1084.5 849.35 L1063.37 918.411 
  L1042.23 984.15 L1021.09 1033.12 L999.954 1080.44 L978.816 1117.21 L957.679 1148.74 L936.541 1179.57 L915.404 1201.98 L894.266 1220.28 L873.128 1234.54 L851.991 1243.53 
  L830.853 1247.59 L809.716 1238.84 L788.578 1221.72 L767.441 1182.04 L746.303 1113.29 L725.166 1009.6 L704.028 850.087 L682.891 644.606 L661.753 438.282 L640.616 272.446 
  L619.478 215.882 L598.34 186.351 L577.203 208.696 L556.065 241.319 L534.928 305.532 L513.79 390.356 L492.653 486.449 L471.515 584.598 L450.378 679.907 L429.24 775.213 
  L408.103 856.282 L386.965 930.027 L365.828 996.629 L344.69 1049.86 L323.553 1101.01 L302.415 1144.38 L281.277 1180.32 L260.14 1210.31 L239.002 1237.92 L217.865 1259.71 
  L196.727 1279.21 L175.59 1298.37  Z
  " fill="#009af9" fill-rule="evenodd" fill-opacity="0.2"/>
<polyline clip-path="url(#clip282)" style="stroke:#009af9; stroke-width:12; stroke-opacity:1; fill:none" points="
  175.59,1298.37 196.727,1288.18 217.865,1274.34 239.002,1256.84 260.14,1235.62 281.277,1210.06 302.415,1180.04 323.553,1144.77 344.69,1104.02 365.828,1058.08 
  386.965,1004.37 408.103,943.132 429.24,875.368 450.378,800.259 471.515,716.968 492.653,626.886 513.79,537.028 534.928,452.173 556.065,384.669 577.203,352.083 
  598.34,372.248 619.478,461.766 640.616,606.8 661.753,781.205 682.891,945.28 704.028,1074.97 725.166,1166.63 746.303,1226.83 767.441,1264.7 788.578,1287.21 
  809.716,1299.25 830.853,1304.12 851.991,1303.45 873.128,1298.25 894.266,1289.1 915.404,1276.79 936.541,1260.64 957.679,1240.75 978.816,1216.58 999.954,1188.67 
  1021.09,1155.44 1042.23,1117.81 1063.37,1073.66 1084.5,1023.1 1105.64,967.263 1126.78,903.862 1147.92,834.208 1169.05,757.83 1190.19,679.219 1211.33,599.443 
  1232.47,523.584 1253.6,460.49 1274.74,424.39 1295.88,423.815 1317.02,467.034 1338.15,553.783 1359.29,674.303 1380.43,812.585 1401.57,946.401 1422.7,1061.2 
  1443.84,1150.68 1464.98,1213.19 1486.12,1253.96 1507.25,1278.62 1528.39,1291.16 1549.53,1295.53 1570.67,1294.07 1591.8,1287.95 1612.94,1277.28 1634.08,1263.12 
  1655.22,1245.08 1676.35,1222.52 1697.49,1196.14 1718.63,1164.57 1739.77,1129.13 1760.9,1088.64 1782.04,1042.44 1803.18,991.233 1824.32,935.306 1845.46,873.541 
  1866.59,807.664 1887.73,739.674 1908.87,672.964 1930.01,611.216 1951.14,561.044 1972.28,529.199 1993.42,521.136 2014.56,538.219 2035.69,582.211 2056.83,649.631 
  2077.97,735.329 2099.11,832.108 2120.24,928.744 2141.38,1018.01 2162.52,1094.31 2183.66,1156.69 2204.79,1203.53 2225.93,1237.05 2247.07,1258.24 2268.21,1269.31 
  2289.34,1271.21 
  "/>
<path clip-path="url(#clip282)" d="
M175.59 1298.37 L196.727 1334.83 L217.865 1359.65 L239.002 1378.37 L260.14 1392.4 L281.277 1403.49 L302.415 1412.06 L323.553 1418.75 L344.69 1423.58 L365.828 1427.07 
  L386.965 1429.4 L408.103 1430.86 L429.24 1431.09 L450.378 1430.45 L471.515 1427.44 L492.653 1422.9 L513.79 1415.91 L534.928 1403.97 L556.065 1385.5 L577.203 1354.73 
  L598.34 1304.01 L619.478 1222.29 L640.616 1107.56 L661.753 971.339 L682.891 880.442 L704.028 911.204 L725.166 988.377 L746.303 1067.12 L767.441 1130.98 L788.578 1192.11 
  L809.716 1241.56 L830.853 1283.2 L851.991 1317.26 L873.128 1344.88 L894.266 1366.02 L915.404 1383.3 L936.541 1397.11 L957.679 1408.02 L978.816 1416.88 L999.954 1423.64 
  L1021.09 1428.67 L1042.23 1432.81 L1063.37 1436.54 L1084.5 1438.87 L1105.64 1441.09 L1126.78 1442.36 L1147.92 1443.05 L1169.05 1442.9 L1190.19 1442.42 L1211.33 1441.06 
  L1232.47 1438.35 L1253.6 1434.01 L1274.74 1426.42 L1295.88 1412.59 L1317.02 1385.36 L1338.15 1344.24 L1359.29 1260.84 L1380.43 1134.12 L1401.57 1080.88 L1422.7 1092.08 
  L1443.84 1148.81 L1464.98 1195.95 L1486.12 1245.39 L1507.25 1283.82 L1528.39 1314.61 L1549.53 1340.73 L1570.67 1362.18 L1591.8 1376.78 L1612.94 1389.53 L1634.08 1401.17 
  L1655.22 1410.51 L1676.35 1417.78 L1697.49 1423.73 L1718.63 1428.23 L1739.77 1432.42 L1760.9 1435.33 L1782.04 1437.86 L1803.18 1440.3 L1824.32 1442.35 L1845.46 1443.44 
  L1866.59 1444.72 L1887.73 1445.53 L1908.87 1445.72 L1930.01 1445.56 L1951.14 1444.4 L1972.28 1442.68 L1993.42 1439.38 L2014.56 1436.44 L2035.69 1429.08 L2056.83 1415.57 
  L2077.97 1393.99 L2099.11 1349.71 L2120.24 1273.95 L2141.38 1261.3 L2162.52 1266.88 L2183.66 1286.25 L2204.79 1310.64 L2225.93 1334.8 L2247.07 1353.75 L2268.21 1368.36 
  L2289.34 1383.14 L2289.34 851.637 L2268.21 728.76 L2247.07 601.996 L2225.93 572.202 L2204.79 543.05 L2183.66 529.232 L2162.52 516.231 L2141.38 534.098 L2120.24 539.006 
  L2099.11 557.344 L2077.97 599.544 L2056.83 629.605 L2035.69 674.784 L2014.56 706.252 L1993.42 781.67 L1972.28 875.103 L1951.14 954.375 L1930.01 1042.57 L1908.87 1135.8 
  L1887.73 1205.9 L1866.59 1264.68 L1845.46 1302.35 L1824.32 1334.96 L1803.18 1353.99 L1782.04 1366.28 L1760.9 1368.89 L1739.77 1366.79 L1718.63 1360.11 L1697.49 1346.53 
  L1676.35 1325.31 L1655.22 1293.22 L1634.08 1251 L1612.94 1202.61 L1591.8 1132.66 L1570.67 1057.17 L1549.53 969.453 L1528.39 863.356 L1507.25 735.143 L1486.12 624.272 
  L1464.98 562.102 L1443.84 528.781 L1422.7 519.494 L1401.57 545.901 L1380.43 570.87 L1359.29 611.911 L1338.15 665.199 L1317.02 736.091 L1295.88 814.34 L1274.74 930.57 
  L1253.6 1058.38 L1232.47 1162.22 L1211.33 1242.28 L1190.19 1304.72 L1169.05 1336.92 L1147.92 1360.5 L1126.78 1375.27 L1105.64 1381.92 L1084.5 1387.02 L1063.37 1389.54 
  L1042.23 1386.6 L1021.09 1381.61 L999.954 1372.61 L978.816 1360.2 L957.679 1342.87 L936.541 1320.03 L915.404 1291.68 L894.266 1258.07 L873.128 1213.74 L851.991 1161.99 
  L830.853 1089.05 L809.716 1004.12 L788.578 911.136 L767.441 801.55 L746.303 703.997 L725.166 618.543 L704.028 575.262 L682.891 557.892 L661.753 596.326 L640.616 637.698 
  L619.478 747.932 L598.34 895.128 L577.203 1054.76 L556.065 1179.06 L534.928 1265.79 L513.79 1321.04 L492.653 1358.41 L471.515 1381.4 L450.378 1394.89 L429.24 1402.74 
  L408.103 1407.32 L386.965 1409.39 L365.828 1408.93 L344.69 1406.79 L323.553 1402.31 L302.415 1395.9 L281.277 1386.66 L260.14 1375.65 L239.002 1361.08 L217.865 1342.83 
  L196.727 1320.77 L175.59 1298.37  Z
  " fill="#e26f46" fill-rule="evenodd" fill-opacity="0.2"/>
<polyline clip-path="url(#clip282)" style="stroke:#e26f46; stroke-width:12; stroke-opacity:1; fill:none" points="
  175.59,1298.37 196.727,1327.89 217.865,1351.47 239.002,1370.08 260.14,1384.49 281.277,1395.79 302.415,1404.41 323.553,1410.98 344.69,1415.7 365.828,1418.73 
  386.965,1420.39 408.103,1420.42 429.24,1418.7 450.378,1414.78 471.515,1407.9 492.653,1396.28 513.79,1377.57 534.928,1347.81 556.065,1300.4 577.203,1227.76 
  598.34,1125.64 619.478,999.788 640.616,871.811 661.753,776.48 682.891,735.7 704.028,754.935 725.166,816.371 746.303,898.05 767.441,985.156 788.578,1065.86 
  809.716,1135.91 830.853,1195.8 851.991,1245.07 873.128,1285.06 894.266,1317.26 915.404,1342.73 936.541,1362.94 957.679,1378.78 978.816,1391.28 999.954,1400.79 
  1021.09,1407.74 1042.23,1412.92 1063.37,1416.28 1084.5,1418.05 1105.64,1417.99 1126.78,1416.21 1147.92,1411.91 1169.05,1404.45 1190.19,1392.21 1211.33,1373.23 
  1232.47,1344.18 1253.6,1301.39 1274.74,1241.66 1295.88,1164.09 1317.02,1072.41 1338.15,974.5 1359.29,886.657 1380.43,823.895 1401.57,799.788 1422.7,813.703 
  1443.84,859.736 1464.98,926.941 1486.12,1001.67 1507.25,1075.16 1528.39,1142.88 1549.53,1200.19 1570.67,1247.84 1591.8,1286.67 1612.94,1318.11 1634.08,1343.37 
  1655.22,1363.16 1676.35,1378.75 1697.49,1390.63 1718.63,1399.46 1739.77,1405.76 1760.9,1409.95 1782.04,1412.12 1803.18,1412.04 1824.32,1409.58 1845.46,1404.29 
  1866.59,1395.39 1887.73,1381.83 1908.87,1361.96 1930.01,1333.73 1951.14,1295.38 1972.28,1246.69 1993.42,1188.03 2014.56,1122.75 2035.69,1056.69 2056.83,992.409 
  2077.97,939.276 2099.11,905.192 2120.24,891.101 2141.38,899.57 2162.52,927.159 2183.66,968.027 2204.79,1019.51 2225.93,1074.78 2247.07,1129.82 2268.21,1181.74 
  2289.34,1227.74 
  "/>
</svg>
