<?xml version="1.0" encoding="utf-8"?>
<svg xmlns="http://www.w3.org/2000/svg" xmlns:xlink="http://www.w3.org/1999/xlink" width="600" height="400" viewBox="0 0 2400 1600">
<defs>
  <clipPath id="clip960">
    <rect x="0" y="0" width="2400" height="1600"/>
  </clipPath>
</defs>
<path clip-path="url(#clip960)" d="
M0 1600 L2400 1600 L2400 0 L0 0  Z
  " fill="#ffffff" fill-rule="evenodd" fill-opacity="1"/>
<defs>
  <clipPath id="clip961">
    <rect x="480" y="0" width="1681" height="1600"/>
  </clipPath>
</defs>
<path clip-path="url(#clip960)" d="
M112.177 1423.18 L2352.76 1423.18 L2352.76 47.2441 L112.177 47.2441  Z
  " fill="#ffffff" fill-rule="evenodd" fill-opacity="1"/>
<defs>
  <clipPath id="clip962">
    <rect x="112" y="47" width="2242" height="1377"/>
  </clipPath>
</defs>
<polyline clip-path="url(#clip962)" style="stroke:#000000; stroke-width:2; stroke-opacity:0.1; fill:none" points="
  112.177,1423.18 112.177,47.2441 
  "/>
<polyline clip-path="url(#clip962)" style="stroke:#000000; stroke-width:2; stroke-opacity:0.1; fill:none" points="
  560.293,1423.18 560.293,47.2441 
  "/>
<polyline clip-path="url(#clip962)" style="stroke:#000000; stroke-width:2; stroke-opacity:0.1; fill:none" points="
  1008.41,1423.18 1008.41,47.2441 
  "/>
<polyline clip-path="url(#clip962)" style="stroke:#000000; stroke-width:2; stroke-opacity:0.1; fill:none" points="
  1456.52,1423.18 1456.52,47.2441 
  "/>
<polyline clip-path="url(#clip962)" style="stroke:#000000; stroke-width:2; stroke-opacity:0.1; fill:none" points="
  1904.64,1423.18 1904.64,47.2441 
  "/>
<polyline clip-path="url(#clip962)" style="stroke:#000000; stroke-width:2; stroke-opacity:0.1; fill:none" points="
  2352.76,1423.18 2352.76,47.2441 
  "/>
<polyline clip-path="url(#clip962)" style="stroke:#000000; stroke-width:2; stroke-opacity:0.1; fill:none" points="
  112.177,1239.06 2352.76,1239.06 
  "/>
<polyline clip-path="url(#clip962)" style="stroke:#000000; stroke-width:2; stroke-opacity:0.1; fill:none" points="
  112.177,1043.71 2352.76,1043.71 
  "/>
<polyline clip-path="url(#clip962)" style="stroke:#000000; stroke-width:2; stroke-opacity:0.1; fill:none" points="
  112.177,848.363 2352.76,848.363 
  "/>
<polyline clip-path="url(#clip962)" style="stroke:#000000; stroke-width:2; stroke-opacity:0.1; fill:none" points="
  112.177,653.012 2352.76,653.012 
  "/>
<polyline clip-path="url(#clip962)" style="stroke:#000000; stroke-width:2; stroke-opacity:0.1; fill:none" points="
  112.177,457.661 2352.76,457.661 
  "/>
<polyline clip-path="url(#clip962)" style="stroke:#000000; stroke-width:2; stroke-opacity:0.1; fill:none" points="
  112.177,262.311 2352.76,262.311 
  "/>
<polyline clip-path="url(#clip962)" style="stroke:#000000; stroke-width:2; stroke-opacity:0.1; fill:none" points="
  112.177,66.96 2352.76,66.96 
  "/>
<polyline clip-path="url(#clip960)" style="stroke:#000000; stroke-width:4; stroke-opacity:1; fill:none" points="
  112.177,1423.18 2352.76,1423.18 
  "/>
<polyline clip-path="url(#clip960)" style="stroke:#000000; stroke-width:4; stroke-opacity:1; fill:none" points="
  112.177,1423.18 112.177,47.2441 
  "/>
<polyline clip-path="url(#clip960)" style="stroke:#000000; stroke-width:4; stroke-opacity:1; fill:none" points="
  112.177,1423.18 112.177,1406.67 
  "/>
<polyline clip-path="url(#clip960)" style="stroke:#000000; stroke-width:4; stroke-opacity:1; fill:none" points="
  560.293,1423.18 560.293,1406.67 
  "/>
<polyline clip-path="url(#clip960)" style="stroke:#000000; stroke-width:4; stroke-opacity:1; fill:none" points="
  1008.41,1423.18 1008.41,1406.67 
  "/>
<polyline clip-path="url(#clip960)" style="stroke:#000000; stroke-width:4; stroke-opacity:1; fill:none" points="
  1456.52,1423.18 1456.52,1406.67 
  "/>
<polyline clip-path="url(#clip960)" style="stroke:#000000; stroke-width:4; stroke-opacity:1; fill:none" points="
  1904.64,1423.18 1904.64,1406.67 
  "/>
<polyline clip-path="url(#clip960)" style="stroke:#000000; stroke-width:4; stroke-opacity:1; fill:none" points="
  2352.76,1423.18 2352.76,1406.67 
  "/>
<polyline clip-path="url(#clip960)" style="stroke:#000000; stroke-width:4; stroke-opacity:1; fill:none" points="
  112.177,1239.06 139.064,1239.06 
  "/>
<polyline clip-path="url(#clip960)" style="stroke:#000000; stroke-width:4; stroke-opacity:1; fill:none" points="
  112.177,1043.71 139.064,1043.71 
  "/>
<polyline clip-path="url(#clip960)" style="stroke:#000000; stroke-width:4; stroke-opacity:1; fill:none" points="
  112.177,848.363 139.064,848.363 
  "/>
<polyline clip-path="url(#clip960)" style="stroke:#000000; stroke-width:4; stroke-opacity:1; fill:none" points="
  112.177,653.012 139.064,653.012 
  "/>
<polyline clip-path="url(#clip960)" style="stroke:#000000; stroke-width:4; stroke-opacity:1; fill:none" points="
  112.177,457.661 139.064,457.661 
  "/>
<polyline clip-path="url(#clip960)" style="stroke:#000000; stroke-width:4; stroke-opacity:1; fill:none" points="
  112.177,262.311 139.064,262.311 
  "/>
<polyline clip-path="url(#clip960)" style="stroke:#000000; stroke-width:4; stroke-opacity:1; fill:none" points="
  112.177,66.96 139.064,66.96 
  "/>
<path clip-path="url(#clip960)" d="M 0 0 M112.177 1445.17 Q108.566 1445.17 106.737 1448.74 Q104.932 1452.28 104.932 1459.41 Q104.932 1466.51 106.737 1470.08 Q108.566 1473.62 112.177 1473.62 Q115.811 1473.62 117.617 1470.08 Q119.446 1466.51 119.446 1459.41 Q119.446 1452.28 117.617 1448.74 Q115.811 1445.17 112.177 1445.17 M112.177 1441.47 Q117.987 1441.47 121.043 1446.07 Q124.122 1450.66 124.122 1459.41 Q124.122 1468.13 121.043 1472.74 Q117.987 1477.32 112.177 1477.32 Q106.367 1477.32 103.288 1472.74 Q100.233 1468.13 100.233 1459.41 Q100.233 1450.66 103.288 1446.07 Q106.367 1441.47 112.177 1441.47 Z" fill="#000000" fill-rule="evenodd" fill-opacity="1" /><path clip-path="url(#clip960)" d="M 0 0 M554.946 1472.72 L571.265 1472.72 L571.265 1476.65 L549.321 1476.65 L549.321 1472.72 Q551.983 1469.96 556.566 1465.33 Q561.173 1460.68 562.353 1459.34 Q564.598 1456.81 565.478 1455.08 Q566.381 1453.32 566.381 1451.63 Q566.381 1448.87 564.436 1447.14 Q562.515 1445.4 559.413 1445.4 Q557.214 1445.4 554.761 1446.17 Q552.33 1446.93 549.552 1448.48 L549.552 1443.76 Q552.376 1442.62 554.83 1442.05 Q557.284 1441.47 559.321 1441.47 Q564.691 1441.47 567.885 1444.15 Q571.08 1446.84 571.08 1451.33 Q571.08 1453.46 570.27 1455.38 Q569.483 1457.28 567.376 1459.87 Q566.798 1460.54 563.696 1463.76 Q560.594 1466.95 554.946 1472.72 Z" fill="#000000" fill-rule="evenodd" fill-opacity="1" /><path clip-path="url(#clip960)" d="M 0 0 M1011.42 1446.17 L999.612 1464.61 L1011.42 1464.61 L1011.42 1446.17 M1010.19 1442.09 L1016.07 1442.09 L1016.07 1464.61 L1021 1464.61 L1021 1468.5 L1016.07 1468.5 L1016.07 1476.65 L1011.42 1476.65 L1011.42 1468.5 L995.816 1468.5 L995.816 1463.99 L1010.19 1442.09 Z" fill="#000000" fill-rule="evenodd" fill-opacity="1" /><path clip-path="url(#clip960)" d="M 0 0 M1456.93 1457.51 Q1453.78 1457.51 1451.93 1459.66 Q1450.1 1461.81 1450.1 1465.56 Q1450.1 1469.29 1451.93 1471.47 Q1453.78 1473.62 1456.93 1473.62 Q1460.08 1473.62 1461.91 1471.47 Q1463.76 1469.29 1463.76 1465.56 Q1463.76 1461.81 1461.91 1459.66 Q1460.08 1457.51 1456.93 1457.51 M1466.21 1442.86 L1466.21 1447.11 Q1464.45 1446.28 1462.65 1445.84 Q1460.86 1445.4 1459.11 1445.4 Q1454.48 1445.4 1452.02 1448.53 Q1449.59 1451.65 1449.24 1457.97 Q1450.61 1455.96 1452.67 1454.89 Q1454.73 1453.8 1457.21 1453.8 Q1462.42 1453.8 1465.42 1456.98 Q1468.46 1460.12 1468.46 1465.56 Q1468.46 1470.89 1465.31 1474.11 Q1462.16 1477.32 1456.93 1477.32 Q1450.93 1477.32 1447.76 1472.74 Q1444.59 1468.13 1444.59 1459.41 Q1444.59 1451.21 1448.48 1446.35 Q1452.37 1441.47 1458.92 1441.47 Q1460.68 1441.47 1462.46 1441.81 Q1464.27 1442.16 1466.21 1442.86 Z" fill="#000000" fill-rule="evenodd" fill-opacity="1" /><path clip-path="url(#clip960)" d="M 0 0 M1904.64 1460.24 Q1901.31 1460.24 1899.39 1462.02 Q1897.49 1463.8 1897.49 1466.93 Q1897.49 1470.05 1899.39 1471.84 Q1901.31 1473.62 1904.64 1473.62 Q1907.97 1473.62 1909.89 1471.84 Q1911.82 1470.03 1911.82 1466.93 Q1911.82 1463.8 1909.89 1462.02 Q1908 1460.24 1904.64 1460.24 M1899.96 1458.25 Q1896.96 1457.51 1895.27 1455.45 Q1893.6 1453.39 1893.6 1450.43 Q1893.6 1446.28 1896.54 1443.87 Q1899.5 1441.47 1904.64 1441.47 Q1909.8 1441.47 1912.74 1443.87 Q1915.68 1446.28 1915.68 1450.43 Q1915.68 1453.39 1913.99 1455.45 Q1912.33 1457.51 1909.34 1458.25 Q1912.72 1459.04 1914.59 1461.33 Q1916.49 1463.62 1916.49 1466.93 Q1916.49 1471.95 1913.41 1474.64 Q1910.36 1477.32 1904.64 1477.32 Q1898.92 1477.32 1895.84 1474.64 Q1892.79 1471.95 1892.79 1466.93 Q1892.79 1463.62 1894.69 1461.33 Q1896.58 1459.04 1899.96 1458.25 M1898.25 1450.86 Q1898.25 1453.55 1899.92 1455.05 Q1901.61 1456.56 1904.64 1456.56 Q1907.65 1456.56 1909.34 1455.05 Q1911.05 1453.55 1911.05 1450.86 Q1911.05 1448.18 1909.34 1446.68 Q1907.65 1445.17 1904.64 1445.17 Q1901.61 1445.17 1899.92 1446.68 Q1898.25 1448.18 1898.25 1450.86 Z" fill="#000000" fill-rule="evenodd" fill-opacity="1" /><path clip-path="url(#clip960)" d="M 0 0 M2329.63 1472.72 L2337.27 1472.72 L2337.27 1446.35 L2328.96 1448.02 L2328.96 1443.76 L2337.22 1442.09 L2341.9 1442.09 L2341.9 1472.72 L2349.54 1472.72 L2349.54 1476.65 L2329.63 1476.65 L2329.63 1472.72 Z" fill="#000000" fill-rule="evenodd" fill-opacity="1" /><path clip-path="url(#clip960)" d="M 0 0 M2364.61 1445.17 Q2361 1445.17 2359.17 1448.74 Q2357.36 1452.28 2357.36 1459.41 Q2357.36 1466.51 2359.17 1470.08 Q2361 1473.62 2364.61 1473.62 Q2368.24 1473.62 2370.05 1470.08 Q2371.88 1466.51 2371.88 1459.41 Q2371.88 1452.28 2370.05 1448.74 Q2368.24 1445.17 2364.61 1445.17 M2364.61 1441.47 Q2370.42 1441.47 2373.47 1446.07 Q2376.55 1450.66 2376.55 1459.41 Q2376.55 1468.13 2373.47 1472.74 Q2370.42 1477.32 2364.61 1477.32 Q2358.8 1477.32 2355.72 1472.74 Q2352.66 1468.13 2352.66 1459.41 Q2352.66 1450.66 2355.72 1446.07 Q2358.8 1441.47 2364.61 1441.47 Z" fill="#000000" fill-rule="evenodd" fill-opacity="1" /><path clip-path="url(#clip960)" d="M 0 0 M68.2699 1252.41 L75.9087 1252.41 L75.9087 1226.04 L67.5986 1227.71 L67.5986 1223.45 L75.8624 1221.78 L80.5383 1221.78 L80.5383 1252.41 L88.1772 1252.41 L88.1772 1256.34 L68.2699 1256.34 L68.2699 1252.41 Z" fill="#000000" fill-rule="evenodd" fill-opacity="1" /><path clip-path="url(#clip960)" d="M 0 0 M71.8578 1057.06 L88.1772 1057.06 L88.1772 1060.99 L66.2328 1060.99 L66.2328 1057.06 Q68.8949 1054.3 73.4782 1049.67 Q78.0846 1045.02 79.2652 1043.68 Q81.5105 1041.16 82.3902 1039.42 Q83.2929 1037.66 83.2929 1035.97 Q83.2929 1033.22 81.3485 1031.48 Q79.4272 1029.74 76.3254 1029.74 Q74.1263 1029.74 71.6726 1030.51 Q69.2421 1031.27 66.4643 1032.82 L66.4643 1028.1 Q69.2884 1026.97 71.7421 1026.39 Q74.1958 1025.81 76.2328 1025.81 Q81.6031 1025.81 84.7976 1028.49 Q87.992 1031.18 87.992 1035.67 Q87.992 1037.8 87.1818 1039.72 Q86.3948 1041.62 84.2883 1044.21 Q83.7096 1044.88 80.6078 1048.1 Q77.5059 1051.29 71.8578 1057.06 Z" fill="#000000" fill-rule="evenodd" fill-opacity="1" /><path clip-path="url(#clip960)" d="M 0 0 M81.0476 847.009 Q84.404 847.726 86.279 849.995 Q88.1772 852.263 88.1772 855.597 Q88.1772 860.712 84.6587 863.513 Q81.1402 866.314 74.6587 866.314 Q72.4828 866.314 70.168 865.874 Q67.8764 865.458 65.4227 864.601 L65.4227 860.087 Q67.3671 861.222 69.6819 861.8 Q71.9967 862.379 74.5198 862.379 Q78.918 862.379 81.2096 860.643 Q83.5244 858.907 83.5244 855.597 Q83.5244 852.541 81.3717 850.828 Q79.242 849.092 75.4226 849.092 L71.3949 849.092 L71.3949 845.249 L75.6078 845.249 Q79.0569 845.249 80.8855 843.884 Q82.7142 842.495 82.7142 839.902 Q82.7142 837.24 80.8161 835.828 Q78.9411 834.393 75.4226 834.393 Q73.5013 834.393 71.3023 834.81 Q69.1032 835.226 66.4643 836.106 L66.4643 831.939 Q69.1264 831.199 71.4412 830.828 Q73.7791 830.458 75.8393 830.458 Q81.1633 830.458 84.2652 832.888 Q87.367 835.296 87.367 839.416 Q87.367 842.287 85.7235 844.277 Q84.08 846.245 81.0476 847.009 Z" fill="#000000" fill-rule="evenodd" fill-opacity="1" /><path clip-path="url(#clip960)" d="M 0 0 M78.5939 639.806 L66.7884 658.255 L78.5939 658.255 L78.5939 639.806 M77.367 635.732 L83.2466 635.732 L83.2466 658.255 L88.1772 658.255 L88.1772 662.144 L83.2466 662.144 L83.2466 670.292 L78.5939 670.292 L78.5939 662.144 L62.9921 662.144 L62.9921 657.63 L77.367 635.732 Z" fill="#000000" fill-rule="evenodd" fill-opacity="1" /><path clip-path="url(#clip960)" d="M 0 0 M67.2745 440.381 L85.6309 440.381 L85.6309 444.317 L71.5569 444.317 L71.5569 452.789 Q72.5754 452.442 73.5939 452.28 Q74.6124 452.094 75.6309 452.094 Q81.418 452.094 84.7976 455.266 Q88.1772 458.437 88.1772 463.854 Q88.1772 469.432 84.705 472.534 Q81.2328 475.613 74.9134 475.613 Q72.7374 475.613 70.4689 475.242 Q68.2236 474.872 65.8162 474.131 L65.8162 469.432 Q67.8995 470.566 70.1217 471.122 Q72.3439 471.678 74.8208 471.678 Q78.8254 471.678 81.1633 469.571 Q83.5013 467.465 83.5013 463.854 Q83.5013 460.242 81.1633 458.136 Q78.8254 456.03 74.8208 456.03 Q72.9458 456.03 71.0708 456.446 Q69.2189 456.863 67.2745 457.742 L67.2745 440.381 Z" fill="#000000" fill-rule="evenodd" fill-opacity="1" /><path clip-path="url(#clip960)" d="M 0 0 M76.6495 260.447 Q73.5013 260.447 71.6495 262.6 Q69.8208 264.753 69.8208 268.503 Q69.8208 272.23 71.6495 274.406 Q73.5013 276.558 76.6495 276.558 Q79.7976 276.558 81.6263 274.406 Q83.4781 272.23 83.4781 268.503 Q83.4781 264.753 81.6263 262.6 Q79.7976 260.447 76.6495 260.447 M85.9318 245.795 L85.9318 250.054 Q84.1726 249.221 82.367 248.781 Q80.5846 248.341 78.8254 248.341 Q74.1958 248.341 71.7421 251.466 Q69.3115 254.591 68.9643 260.91 Q70.33 258.896 72.3902 257.832 Q74.4504 256.744 76.9272 256.744 Q82.1355 256.744 85.1448 259.915 Q88.1772 263.063 88.1772 268.503 Q88.1772 273.827 85.029 277.044 Q81.8809 280.262 76.6495 280.262 Q70.6541 280.262 67.4828 275.679 Q64.3116 271.072 64.3116 262.345 Q64.3116 254.151 68.2004 249.29 Q72.0893 244.406 78.6402 244.406 Q80.3994 244.406 82.1818 244.753 Q83.9874 245.1 85.9318 245.795 Z" fill="#000000" fill-rule="evenodd" fill-opacity="1" /><path clip-path="url(#clip960)" d="M 0 0 M65.9551 49.68 L88.1772 49.68 L88.1772 51.6708 L75.6309 84.24 L70.7467 84.24 L82.5522 53.6152 L65.9551 53.6152 L65.9551 49.68 Z" fill="#000000" fill-rule="evenodd" fill-opacity="1" /><path clip-path="url(#clip960)" d="M 0 0 M1231.53 1510.27 L1231.53 1520.4 L1243.59 1520.4 L1243.59 1524.95 L1231.53 1524.95 L1231.53 1544.3 Q1231.53 1548.66 1232.71 1549.9 Q1233.91 1551.14 1237.58 1551.14 L1243.59 1551.14 L1243.59 1556.04 L1237.58 1556.04 Q1230.8 1556.04 1228.22 1553.53 Q1225.64 1550.98 1225.64 1544.3 L1225.64 1524.95 L1221.34 1524.95 L1221.34 1520.4 L1225.64 1520.4 L1225.64 1510.27 L1231.53 1510.27 Z" fill="#000000" fill-rule="evenodd" fill-opacity="1" /><polyline clip-path="url(#clip962)" style="stroke:#009af9; stroke-width:4; stroke-opacity:1; fill:none" points="
  112.177,1239.06 114.42,1238.06 116.663,1237.02 118.906,1235.93 121.148,1234.8 123.391,1233.63 125.634,1232.41 127.877,1231.15 130.12,1229.85 132.363,1228.51 
  134.605,1227.12 136.848,1225.69 139.091,1224.22 141.334,1222.7 143.577,1221.14 145.819,1219.54 148.062,1217.9 150.305,1216.21 152.548,1214.48 154.791,1212.71 
  157.034,1210.89 159.276,1209.03 161.519,1207.13 163.762,1205.18 166.005,1203.19 168.248,1201.16 170.491,1199.08 172.733,1196.96 174.976,1194.79 177.219,1192.58 
  179.462,1190.32 181.705,1188.02 183.947,1185.67 186.19,1183.27 188.433,1180.83 190.676,1178.34 192.919,1175.8 195.162,1173.22 197.404,1170.59 199.647,1167.91 
  201.89,1165.18 204.133,1162.4 206.376,1159.58 208.619,1156.7 210.861,1153.77 213.104,1150.79 215.347,1147.76 217.59,1144.68 219.833,1141.55 222.075,1138.36 
  224.318,1135.12 226.561,1131.83 228.804,1128.48 231.047,1125.08 233.29,1121.63 235.532,1118.11 237.775,1114.54 240.018,1110.92 242.261,1107.23 244.504,1103.49 
  246.746,1099.69 248.989,1095.83 251.232,1091.91 253.475,1087.93 255.718,1083.89 257.961,1079.79 260.203,1075.63 262.446,1071.4 264.689,1067.11 266.932,1062.75 
  269.175,1058.33 271.418,1053.85 273.66,1049.29 275.903,1044.67 278.146,1039.99 280.389,1035.23 282.632,1030.41 284.874,1025.51 287.117,1020.55 289.36,1015.51 
  291.603,1010.41 293.846,1005.23 296.089,999.974 298.331,994.647 300.574,989.245 302.817,983.768 305.06,978.215 307.303,972.585 309.545,966.877 311.788,961.091 
  314.031,955.226 316.274,949.281 318.517,943.255 320.76,937.148 323.002,930.959 325.245,924.688 327.488,918.333 329.731,911.895 331.974,905.372 334.217,898.764 
  336.459,892.069 338.702,885.287 340.945,878.418 343.188,871.46 345.431,864.413 347.673,857.276 349.916,850.049 352.159,842.731 354.402,835.321 356.645,827.82 
  358.888,820.226 361.13,812.539 363.373,804.76 365.616,796.886 367.859,788.919 370.102,780.857 372.344,772.701 374.587,764.451 376.83,756.105 379.073,747.664 
  381.316,739.129 383.559,730.497 385.801,721.771 388.044,712.949 390.287,704.032 392.53,695.019 394.773,685.911 397.016,676.708 399.258,667.415 401.501,658.032 
  403.744,648.557 405.987,638.992 408.23,629.335 410.472,619.587 412.715,609.748 414.958,599.818 417.201,589.8 419.444,579.695 421.687,569.503 423.929,559.227 
  426.172,548.869 428.415,538.431 430.658,527.917 432.901,517.329 435.143,506.671 437.386,495.947 439.629,485.16 441.872,474.315 444.115,463.416 446.358,452.468 
  448.6,441.476 450.843,430.447 453.086,419.384 455.329,408.295 457.572,397.185 459.815,386.062 462.057,374.932 464.3,363.802 466.543,352.68 468.786,341.574 
  471.029,330.491 473.271,319.441 475.514,308.43 477.757,297.456 480,286.527 482.243,275.664 484.486,264.883 486.728,254.205 488.971,243.648 491.214,233.233 
  493.457,222.981 495.7,212.911 497.942,203.047 500.185,193.409 502.428,184.02 504.671,174.904 506.914,166.084 509.157,157.583 511.399,149.426 513.642,141.638 
  515.885,134.244 518.128,127.271 520.371,120.744 522.614,114.69 524.856,109.138 527.099,104.114 529.342,99.6467 531.585,95.7653 533.828,92.4989 536.07,89.8772 
  538.313,87.9305 540.556,86.6896 542.799,86.1857 545.042,86.4504 547.285,87.5161 549.527,89.4153 551.77,92.1813 554.013,95.8477 556.256,100.449 558.499,106.022 
  560.741,112.606 562.984,120.206 565.227,128.818 567.47,138.436 569.713,149.049 571.956,160.644 574.198,173.205 576.441,186.712 578.684,201.14 580.927,216.464 
  583.17,232.654 585.413,249.676 587.655,267.493 589.898,286.066 592.141,305.351 594.384,325.302 596.627,345.868 598.869,366.996 601.112,388.631 603.355,410.71 
  605.598,433.173 607.841,455.951 610.084,478.974 612.326,502.17 614.569,525.462 616.812,548.769 619.055,572.01 621.298,595.122 623.54,618.085 625.783,640.842 
  628.026,663.341 630.269,685.533 632.512,707.371 634.755,728.815 636.997,749.827 639.24,770.375 641.483,790.427 643.726,809.96 645.969,828.951 648.212,847.384 
  650.454,865.243 652.697,882.52 654.94,899.209 657.183,915.309 659.426,930.821 661.668,945.751 663.911,960.11 666.154,973.912 668.397,987.175 670.64,999.921 
  672.883,1012.18 675.125,1023.97 677.368,1035.3 679.611,1046.15 681.854,1056.55 684.097,1066.5 686.339,1076.02 688.582,1085.14 690.825,1093.85 693.068,1102.19 
  695.311,1110.15 697.554,1117.77 699.796,1125.04 702.039,1131.99 704.282,1138.62 706.525,1144.95 708.768,1150.99 711.011,1156.75 713.253,1162.24 715.496,1167.48 
  717.739,1172.46 719.982,1177.21 722.225,1181.73 724.467,1186.04 726.71,1190.13 728.953,1194.01 731.196,1197.71 733.439,1201.23 735.682,1204.57 737.924,1207.74 
  740.167,1210.75 742.41,1213.61 744.653,1216.32 746.896,1218.88 749.138,1221.3 751.381,1223.59 753.624,1225.76 755.867,1227.8 758.11,1229.72 760.353,1231.53 
  762.595,1233.24 764.838,1234.83 767.081,1236.33 769.324,1237.72 771.567,1239.03 773.81,1240.24 776.052,1241.36 778.295,1242.4 780.538,1243.35 782.781,1244.23 
  785.024,1245.02 787.266,1245.74 789.509,1246.39 791.752,1246.96 793.995,1247.46 796.238,1247.89 798.481,1248.25 800.723,1248.56 802.966,1248.79 805.209,1248.97 
  807.452,1249.09 809.695,1249.14 811.938,1249.14 814.18,1249.08 816.423,1248.97 818.666,1248.8 820.909,1248.58 823.152,1248.3 825.394,1247.98 827.637,1247.6 
  829.88,1247.17 832.123,1246.69 834.366,1246.17 836.609,1245.59 838.851,1244.97 841.094,1244.3 843.337,1243.59 845.58,1242.82 847.823,1242.02 850.065,1241.17 
  852.308,1240.27 854.551,1239.33 856.794,1238.35 859.037,1237.32 861.28,1236.25 863.522,1235.14 865.765,1233.98 868.008,1232.78 870.251,1231.54 872.494,1230.25 
  874.737,1228.92 876.979,1227.55 879.222,1226.14 881.465,1224.68 883.708,1223.18 885.951,1221.64 888.193,1220.05 890.436,1218.42 892.679,1216.75 894.922,1215.04 
  897.165,1213.28 899.408,1211.48 901.65,1209.63 903.893,1207.75 906.136,1205.81 908.379,1203.84 910.622,1201.82 912.864,1199.76 915.107,1197.65 917.35,1195.49 
  919.593,1193.3 921.836,1191.05 924.079,1188.76 926.321,1186.43 928.564,1184.05 930.807,1181.62 933.05,1179.15 935.293,1176.63 937.536,1174.06 939.778,1171.45 
  942.021,1168.79 944.264,1166.07 946.507,1163.31 948.75,1160.5 950.992,1157.64 953.235,1154.73 955.478,1151.77 957.721,1148.76 959.964,1145.7 962.207,1142.58 
  964.449,1139.42 966.692,1136.2 968.935,1132.92 971.178,1129.59 973.421,1126.21 975.663,1122.77 977.906,1119.28 980.149,1115.73 982.392,1112.12 984.635,1108.46 
  986.878,1104.74 989.12,1100.96 991.363,1097.12 993.606,1093.22 995.849,1089.26 998.092,1085.24 1000.33,1081.16 1002.58,1077.02 1004.82,1072.82 1007.06,1068.55 
  1009.31,1064.22 1011.55,1059.82 1013.79,1055.36 1016.03,1050.83 1018.28,1046.23 1020.52,1041.57 1022.76,1036.84 1025.01,1032.04 1027.25,1027.17 1029.49,1022.23 
  1031.73,1017.22 1033.98,1012.14 1036.22,1006.99 1038.46,1001.76 1040.71,996.461 1042.95,991.087 1045.19,985.637 1047.43,980.111 1049.68,974.508 1051.92,968.828 
  1054.16,963.07 1056.41,957.232 1058.65,951.315 1060.89,945.317 1063.13,939.239 1065.38,933.078 1067.62,926.834 1069.86,920.508 1072.1,914.097 1074.35,907.602 
  1076.59,901.021 1078.83,894.355 1081.08,887.602 1083.32,880.762 1085.56,873.834 1087.8,866.817 1090.05,859.712 1092.29,852.517 1094.53,845.232 1096.78,837.856 
  1099.02,830.389 1101.26,822.83 1103.5,815.179 1105.75,807.435 1107.99,799.597 1110.23,791.666 1112.48,783.64 1114.72,775.519 1116.96,767.307 1119.2,759.009 
  1121.45,750.623 1123.69,742.147 1125.93,733.579 1128.18,724.917 1130.42,716.16 1132.66,707.307 1134.9,698.357 1137.15,689.309 1139.39,680.162 1141.63,670.917 
  1143.88,661.574 1146.12,652.132 1148.36,642.593 1150.6,632.957 1152.85,623.225 1155.09,613.398 1157.33,603.478 1159.57,593.467 1161.82,583.366 1164.06,573.178 
  1166.3,562.905 1168.55,552.55 1170.79,542.116 1173.03,531.605 1175.27,521.022 1177.52,510.37 1179.76,499.653 1182,488.876 1184.25,478.041 1186.49,467.155 
  1188.73,456.221 1190.97,445.245 1193.22,434.233 1195.46,423.19 1197.7,412.122 1199.95,401.034 1202.19,389.933 1204.43,378.827 1206.67,367.72 1208.92,356.621 
  1211.16,345.537 1213.4,334.476 1215.65,323.444 1217.89,312.45 1220.13,301.503 1222.37,290.61 1224.62,279.777 1226.86,269.005 1229.1,258.313 1231.35,247.724 
  1233.59,237.259 1235.83,226.941 1238.07,216.793 1240.32,206.838 1242.56,197.099 1244.8,187.601 1247.04,178.366 1249.29,169.42 1251.53,160.787 1253.77,152.493 
  1256.02,144.563 1258.26,137.023 1260.5,129.898 1262.74,123.215 1264.99,117.002 1267.23,111.285 1269.47,106.091 1271.72,101.449 1273.96,97.3855 1276.2,93.9304 
  1278.44,91.1119 1280.69,88.9592 1282.93,87.5016 1285.17,86.769 1287.42,86.7914 1289.66,87.5993 1291.9,89.2234 1294.14,91.6949 1296.39,95.0452 1298.63,99.306 
  1300.87,104.51 1303.12,110.688 1305.36,117.903 1307.6,126.188 1309.84,135.524 1312.09,145.888 1314.33,157.257 1316.57,169.604 1318.82,182.902 1321.06,197.12 
  1323.3,212.226 1325.54,228.186 1327.79,244.962 1330.03,262.517 1332.27,280.81 1334.51,299.797 1336.76,319.434 1339,339.674 1341.24,360.468 1343.49,381.764 
  1345.73,403.509 1347.97,425.648 1350.21,448.123 1352.46,470.875 1354.7,493.841 1356.94,516.958 1359.19,540.161 1361.43,563.38 1363.67,586.546 1365.91,609.587 
  1368.16,632.428 1370.4,654.992 1372.64,677.207 1374.89,699.062 1377.13,720.536 1379.37,741.597 1381.61,762.217 1383.86,782.369 1386.1,802.03 1388.34,821.18 
  1390.59,839.801 1392.83,857.878 1395.07,875.398 1397.31,892.352 1399.56,908.734 1401.8,924.538 1404.04,939.765 1406.29,954.416 1408.53,968.494 1410.77,982.007 
  1413.01,994.964 1415.26,1007.38 1417.5,1019.27 1419.74,1030.64 1421.98,1041.53 1424.23,1051.95 1426.47,1061.94 1428.71,1071.51 1430.96,1080.71 1433.2,1089.56 
  1435.44,1098.04 1437.68,1106.15 1439.93,1113.89 1442.17,1121.29 1444.41,1128.36 1446.66,1135.11 1448.9,1141.55 1451.14,1147.69 1453.38,1153.56 1455.63,1159.15 
  1457.87,1164.49 1460.11,1169.57 1462.36,1174.42 1464.6,1179.05 1466.84,1183.45 1469.08,1187.64 1471.33,1191.63 1473.57,1195.43 1475.81,1199.05 1478.06,1202.48 
  1480.3,1205.74 1482.54,1208.84 1484.78,1211.78 1487.03,1214.56 1489.27,1217.2 1491.51,1219.68 1493.76,1222.03 1496,1224.25 1498.24,1226.35 1500.48,1228.33 
  1502.73,1230.19 1504.97,1231.94 1507.21,1233.59 1509.46,1235.12 1511.7,1236.56 1513.94,1237.91 1516.18,1239.15 1518.43,1240.31 1520.67,1241.38 1522.91,1242.36 
  1525.15,1243.26 1527.4,1244.09 1529.64,1244.83 1531.88,1245.5 1534.13,1246.1 1536.37,1246.63 1538.61,1247.09 1540.85,1247.48 1543.1,1247.81 1545.34,1248.07 
  1547.58,1248.27 1549.83,1248.41 1552.07,1248.49 1554.31,1248.52 1556.55,1248.48 1558.8,1248.39 1561.04,1248.25 1563.28,1248.05 1565.53,1247.8 1567.77,1247.49 
  1570.01,1247.14 1572.25,1246.73 1574.5,1246.28 1576.74,1245.78 1578.98,1245.22 1581.23,1244.62 1583.47,1243.97 1585.71,1243.28 1587.95,1242.54 1590.2,1241.75 
  1592.44,1240.91 1594.68,1240.04 1596.93,1239.11 1599.17,1238.14 1601.41,1237.13 1603.65,1236.07 1605.9,1234.97 1608.14,1233.83 1610.38,1232.64 1612.62,1231.41 
  1614.87,1230.14 1617.11,1228.82 1619.35,1227.46 1621.6,1226.06 1623.84,1224.62 1626.08,1223.13 1628.32,1221.6 1630.57,1220.03 1632.81,1218.42 1635.05,1216.76 
  1637.3,1215.06 1639.54,1213.32 1641.78,1211.54 1644.02,1209.71 1646.27,1207.84 1648.51,1205.92 1650.75,1203.96 1653,1201.96 1655.24,1199.91 1657.48,1197.82 
  1659.72,1195.68 1661.97,1193.5 1664.21,1191.27 1666.45,1189 1668.7,1186.68 1670.94,1184.32 1673.18,1181.9 1675.42,1179.45 1677.67,1176.94 1679.91,1174.39 
  1682.15,1171.79 1684.4,1169.14 1686.64,1166.45 1688.88,1163.7 1691.12,1160.9 1693.37,1158.06 1695.61,1155.17 1697.85,1152.22 1700.09,1149.22 1702.34,1146.18 
  1704.58,1143.08 1706.82,1139.93 1709.07,1136.72 1711.31,1133.46 1713.55,1130.15 1715.79,1126.79 1718.04,1123.37 1720.28,1119.89 1722.52,1116.36 1724.77,1112.77 
  1727.01,1109.12 1729.25,1105.42 1731.49,1101.66 1733.74,1097.84 1735.98,1093.96 1738.22,1090.01 1740.47,1086.01 1742.71,1081.95 1744.95,1077.83 1747.19,1073.64 
  1749.44,1069.39 1751.68,1065.08 1753.92,1060.7 1756.17,1056.25 1758.41,1051.74 1760.65,1047.17 1762.89,1042.53 1765.14,1037.82 1767.38,1033.04 1769.62,1028.19 
  1771.87,1023.27 1774.11,1018.28 1776.35,1013.22 1778.59,1008.09 1780.84,1002.89 1783.08,997.612 1785.32,992.26 1787.56,986.834 1789.81,981.332 1792.05,975.755 
  1794.29,970.1 1796.54,964.367 1798.78,958.556 1801.02,952.665 1803.26,946.695 1805.51,940.643 1807.75,934.51 1809.99,928.295 1812.24,921.996 1814.48,915.615 
  1816.72,909.151 1818.96,902.602 1821.21,895.969 1823.45,889.249 1825.69,882.442 1827.94,875.547 1830.18,868.564 1832.42,861.491 1834.66,854.329 1836.91,847.075 
  1839.15,839.731 1841.39,832.294 1843.64,824.765 1845.88,817.143 1848.12,809.428 1850.36,801.619 1852.61,793.717 1854.85,785.72 1857.09,777.629 1859.34,769.443 
  1861.58,761.162 1863.82,752.787 1866.06,744.317 1868.31,735.752 1870.55,727.092 1872.79,718.337 1875.03,709.488 1877.28,700.545 1879.52,691.508 1881.76,682.377 
  1884.01,673.153 1886.25,663.836 1888.49,654.426 1890.73,644.924 1892.98,635.331 1895.22,625.646 1897.46,615.872 1899.71,606.008 1901.95,596.066 1904.19,586.057 
  1906.43,575.977 1908.68,565.823 1910.92,555.595 1913.16,545.29 1915.41,534.909 1917.65,524.452 1919.89,513.919 1922.13,503.311 1924.38,492.631 1926.62,481.881 
  1928.86,471.064 1931.11,460.185 1933.35,449.247 1935.59,438.256 1937.83,427.218 1940.08,416.138 1942.32,405.024 1944.56,393.883 1946.81,382.723 1949.05,371.554 
  1951.29,360.385 1953.53,349.225 1955.78,338.085 1958.02,326.977 1960.26,315.912 1962.5,304.904 1964.75,293.964 1966.99,283.108 1969.23,272.349 1971.48,261.702 
  1973.72,251.184 1975.96,240.809 1978.2,230.596 1980.45,220.561 1982.69,210.723 1984.93,201.1 1987.18,191.712 1989.42,182.579 1991.66,173.721 1993.9,165.159 
  1996.15,156.916 1998.39,149.014 2000.63,141.476 2002.88,134.325 2005.12,127.586 2007.36,121.284 2009.6,115.445 2011.85,110.094 2014.09,105.258 2016.33,100.965 
  2018.58,97.2621 2020.82,94.192 2023.06,91.7961 2025.3,90.1132 2027.55,89.179 2029.79,89.0268 2032.03,89.687 2034.28,91.1877 2036.52,93.5538 2038.76,96.808 
  2041,100.97 2043.25,106.057 2045.49,112.084 2047.73,119.062 2049.97,127 2052.22,135.906 2054.46,145.782 2056.7,156.63 2058.95,168.448 2061.19,181.232 
  2063.43,194.975 2065.67,209.667 2067.92,225.308 2070.16,241.867 2072.4,259.287 2074.65,277.507 2076.89,296.468 2079.13,316.109 2081.37,336.371 2083.62,357.193 
  2085.86,378.514 2088.1,400.276 2090.35,422.415 2092.59,444.873 2094.83,467.586 2097.07,490.496 2099.32,513.539 2101.56,536.654 2103.8,559.78 2106.05,582.855 
  2108.29,605.816 2110.53,628.602 2112.77,651.15 2115.02,673.397 2117.26,695.282 2119.5,716.762 2121.75,737.824 2123.99,758.442 2126.23,778.592 2128.47,798.254 
  2130.72,817.408 2132.96,836.039 2135.2,854.134 2137.45,871.682 2139.69,888.674 2141.93,905.104 2144.17,920.968 2146.42,936.266 2148.66,951 2150.9,965.172 
  2153.14,978.789 2155.39,991.861 2157.63,1004.4 2159.87,1016.42 2162.12,1027.93 2164.36,1038.96 2166.6,1049.52 2168.84,1059.64 2171.09,1069.35 2173.33,1078.68 
  2175.57,1087.62 2177.82,1096.18 2180.06,1104.35 2182.3,1112.16 2184.54,1119.62 2186.79,1126.75 2189.03,1133.55 2191.27,1140.05 2193.52,1146.25 2195.76,1152.17 
  2198,1157.81 2200.24,1163.19 2202.49,1168.33 2204.73,1173.22 2206.97,1177.88 2209.22,1182.32 2211.46,1186.55 2213.7,1190.57 2215.94,1194.4 2218.19,1198.04 
  2220.43,1201.5 2222.67,1204.78 2224.92,1207.9 2227.16,1210.85 2229.4,1213.65 2231.64,1216.3 2233.89,1218.82 2236.13,1221.19 2238.37,1223.44 2240.61,1225.56 
  2242.86,1227.56 2245.1,1229.45 2247.34,1231.22 2249.59,1232.88 2251.83,1234.44 2254.07,1235.89 2256.31,1237.25 2258.56,1238.52 2260.8,1239.69 2263.04,1240.78 
  2265.29,1241.78 2267.53,1242.7 2269.77,1243.54 2272.01,1244.3 2274.26,1244.99 2276.5,1245.6 2278.74,1246.15 2280.99,1246.62 2283.23,1247.03 2285.47,1247.37 
  2287.71,1247.65 2289.96,1247.86 2292.2,1248.01 2294.44,1248.11 2296.69,1248.14 2298.93,1248.12 2301.17,1248.04 2303.41,1247.91 2305.66,1247.72 2307.9,1247.47 
  2310.14,1247.18 2312.39,1246.83 2314.63,1246.43 2316.87,1245.99 2319.11,1245.49 2321.36,1244.94 2323.6,1244.35 2325.84,1243.71 2328.08,1243.02 2330.33,1242.28 
  2332.57,1241.5 2334.81,1240.68 2337.06,1239.8 2339.3,1238.89 2341.54,1237.93 2343.78,1236.92 2346.03,1235.88 2348.27,1234.78 2350.51,1233.65 2352.76,1232.47 
  
  "/>
<polyline clip-path="url(#clip962)" style="stroke:#e26f46; stroke-width:4; stroke-opacity:1; fill:none" points="
  112.177,1239.06 114.42,1242.93 116.663,1246.71 118.906,1250.41 121.148,1254.02 123.391,1257.55 125.634,1261.01 127.877,1264.38 130.12,1267.68 132.363,1270.9 
  134.605,1274.05 136.848,1277.12 139.091,1280.13 141.334,1283.07 143.577,1285.94 145.819,1288.74 148.062,1291.48 150.305,1294.15 152.548,1296.77 154.791,1299.32 
  157.034,1301.81 159.276,1304.25 161.519,1306.62 163.762,1308.94 166.005,1311.21 168.248,1313.42 170.491,1315.59 172.733,1317.7 174.976,1319.76 177.219,1321.77 
  179.462,1323.73 181.705,1325.65 183.947,1327.52 186.19,1329.34 188.433,1331.12 190.676,1332.86 192.919,1334.56 195.162,1336.21 197.404,1337.83 199.647,1339.4 
  201.89,1340.94 204.133,1342.44 206.376,1343.9 208.619,1345.33 210.861,1346.72 213.104,1348.07 215.347,1349.39 217.59,1350.68 219.833,1351.93 222.075,1353.16 
  224.318,1354.35 226.561,1355.51 228.804,1356.64 231.047,1357.74 233.29,1358.82 235.532,1359.86 237.775,1360.88 240.018,1361.87 242.261,1362.83 244.504,1363.77 
  246.746,1364.68 248.989,1365.56 251.232,1366.42 253.475,1367.26 255.718,1368.07 257.961,1368.86 260.203,1369.63 262.446,1370.37 264.689,1371.09 266.932,1371.79 
  269.175,1372.47 271.418,1373.12 273.66,1373.76 275.903,1374.37 278.146,1374.97 280.389,1375.54 282.632,1376.09 284.874,1376.63 287.117,1377.14 289.36,1377.64 
  291.603,1378.12 293.846,1378.57 296.089,1379.01 298.331,1379.43 300.574,1379.84 302.817,1380.22 305.06,1380.59 307.303,1380.94 309.545,1381.27 311.788,1381.58 
  314.031,1381.88 316.274,1382.16 318.517,1382.42 320.76,1382.67 323.002,1382.89 325.245,1383.1 327.488,1383.29 329.731,1383.47 331.974,1383.62 334.217,1383.76 
  336.459,1383.88 338.702,1383.99 340.945,1384.07 343.188,1384.14 345.431,1384.19 347.673,1384.22 349.916,1384.24 352.159,1384.23 354.402,1384.21 356.645,1384.17 
  358.888,1384.11 361.13,1384.02 363.373,1383.92 365.616,1383.8 367.859,1383.66 370.102,1383.49 372.344,1383.3 374.587,1383.1 376.83,1382.86 379.073,1382.61 
  381.316,1382.33 383.559,1382.02 385.801,1381.7 388.044,1381.34 390.287,1380.96 392.53,1380.55 394.773,1380.11 397.016,1379.64 399.258,1379.14 401.501,1378.61 
  403.744,1378.04 405.987,1377.44 408.23,1376.81 410.472,1376.14 412.715,1375.43 414.958,1374.68 417.201,1373.9 419.444,1373.08 421.687,1372.21 423.929,1371.3 
  426.172,1370.34 428.415,1369.33 430.658,1368.28 432.901,1367.17 435.143,1366.01 437.386,1364.79 439.629,1363.51 441.872,1362.16 444.115,1360.75 446.358,1359.27 
  448.6,1357.71 450.843,1356.08 453.086,1354.36 455.329,1352.56 457.572,1350.67 459.815,1348.69 462.057,1346.6 464.3,1344.42 466.543,1342.13 468.786,1339.72 
  471.029,1337.2 473.271,1334.56 475.514,1331.78 477.757,1328.89 480,1325.87 482.243,1322.7 484.486,1319.39 486.728,1315.91 488.971,1312.25 491.214,1308.41 
  493.457,1304.37 495.7,1300.11 497.942,1295.63 500.185,1290.92 502.428,1285.96 504.671,1280.75 506.914,1275.27 509.157,1269.51 511.399,1263.46 513.642,1257.11 
  515.885,1250.46 518.128,1243.48 520.371,1236.18 522.614,1228.53 524.856,1220.54 527.099,1212.19 529.342,1203.47 531.585,1194.37 533.828,1184.89 536.07,1175.01 
  538.313,1164.73 540.556,1154.03 542.799,1142.91 545.042,1131.36 547.285,1119.37 549.527,1106.93 551.77,1094.04 554.013,1080.68 556.256,1066.85 558.499,1052.54 
  560.741,1037.71 562.984,1022.4 565.227,1006.64 567.47,990.488 569.713,973.98 571.956,957.16 574.198,940.072 576.441,922.763 578.684,905.277 580.927,887.662 
  583.17,869.965 585.413,852.235 587.655,834.519 589.898,816.867 592.141,799.331 594.384,781.959 596.627,764.806 598.869,747.921 601.112,731.36 603.355,715.175 
  605.598,699.42 607.841,684.152 610.084,669.426 612.326,655.298 614.569,641.827 616.812,629.069 619.055,617.084 621.298,605.911 623.54,595.554 625.783,586.038 
  628.026,577.386 630.269,569.614 632.512,562.736 634.755,556.763 636.997,551.7 639.24,547.548 641.483,544.307 643.726,541.968 645.969,540.523 648.212,539.957 
  650.454,540.251 652.697,541.384 654.94,543.329 657.183,546.056 659.426,549.531 661.668,553.715 663.911,558.566 666.154,564.038 668.397,570.081 670.64,576.64 
  672.883,583.657 675.125,591.07 677.368,598.869 679.611,607.065 681.854,615.626 684.097,624.519 686.339,633.715 688.582,643.184 690.825,652.897 693.068,662.827 
  695.311,672.95 697.554,683.239 699.796,693.671 702.039,704.225 704.282,714.877 706.525,725.609 708.768,736.402 711.011,747.237 713.253,758.098 715.496,768.97 
  717.739,779.838 719.982,790.689 722.225,801.511 724.467,812.293 726.71,823.025 728.953,833.698 731.196,844.295 733.439,854.808 735.682,865.233 737.924,875.563 
  740.167,885.792 742.41,895.917 744.653,905.931 746.896,915.831 749.138,925.612 751.381,935.272 753.624,944.805 755.867,954.21 758.11,963.483 760.353,972.622 
  762.595,981.625 764.838,990.49 767.081,999.216 769.324,1007.8 771.567,1016.24 773.81,1024.54 776.052,1032.7 778.295,1040.72 780.538,1048.59 782.781,1056.33 
  785.024,1063.92 787.266,1071.38 789.509,1078.69 791.752,1085.88 793.995,1092.93 796.238,1099.84 798.481,1106.63 800.723,1113.28 802.966,1119.8 805.209,1126.19 
  807.452,1132.45 809.695,1138.59 811.938,1144.6 814.18,1150.49 816.423,1156.26 818.666,1161.91 820.909,1167.45 823.152,1172.87 825.394,1178.17 827.637,1183.37 
  829.88,1188.45 832.123,1193.42 834.366,1198.29 836.609,1203.05 838.851,1207.71 841.094,1212.27 843.337,1216.73 845.58,1221.09 847.823,1225.35 850.065,1229.52 
  852.308,1233.6 854.551,1237.58 856.794,1241.48 859.037,1245.3 861.28,1249.02 863.522,1252.67 865.765,1256.23 868.008,1259.71 870.251,1263.11 872.494,1266.43 
  874.737,1269.68 876.979,1272.86 879.222,1275.96 881.465,1278.99 883.708,1281.95 885.951,1284.85 888.193,1287.68 890.436,1290.44 892.679,1293.14 894.922,1295.77 
  897.165,1298.35 899.408,1300.86 901.65,1303.32 903.893,1305.72 906.136,1308.06 908.379,1310.35 910.622,1312.58 912.864,1314.76 915.107,1316.89 917.35,1318.97 
  919.593,1321 921.836,1322.98 924.079,1324.92 926.321,1326.81 928.564,1328.65 930.807,1330.45 933.05,1332.2 935.293,1333.92 937.536,1335.59 939.778,1337.22 
  942.021,1338.8 944.264,1340.35 946.507,1341.87 948.75,1343.34 950.992,1344.78 953.235,1346.18 955.478,1347.55 957.721,1348.88 959.964,1350.18 962.207,1351.45 
  964.449,1352.68 966.692,1353.88 968.935,1355.05 971.178,1356.19 973.421,1357.31 975.663,1358.39 977.906,1359.44 980.149,1360.47 982.392,1361.47 984.635,1362.44 
  986.878,1363.38 989.12,1364.3 991.363,1365.2 993.606,1366.07 995.849,1366.92 998.092,1367.74 1000.33,1368.54 1002.58,1369.31 1004.82,1370.06 1007.06,1370.79 
  1009.31,1371.5 1011.55,1372.19 1013.79,1372.85 1016.03,1373.5 1018.28,1374.12 1020.52,1374.72 1022.76,1375.3 1025.01,1375.86 1027.25,1376.41 1029.49,1376.93 
  1031.73,1377.43 1033.98,1377.91 1036.22,1378.38 1038.46,1378.82 1040.71,1379.25 1042.95,1379.66 1045.19,1380.05 1047.43,1380.42 1049.68,1380.78 1051.92,1381.12 
  1054.16,1381.44 1056.41,1381.74 1058.65,1382.02 1060.89,1382.29 1063.13,1382.54 1065.38,1382.77 1067.62,1382.99 1069.86,1383.19 1072.1,1383.37 1074.35,1383.53 
  1076.59,1383.68 1078.83,1383.81 1081.08,1383.92 1083.32,1384.01 1085.56,1384.09 1087.8,1384.14 1090.05,1384.18 1092.29,1384.2 1094.53,1384.21 1096.78,1384.19 
  1099.02,1384.15 1101.26,1384.1 1103.5,1384.02 1105.75,1383.92 1107.99,1383.81 1110.23,1383.67 1112.48,1383.51 1114.72,1383.33 1116.96,1383.13 1119.2,1382.9 
  1121.45,1382.64 1123.69,1382.35 1125.93,1382.03 1128.18,1381.69 1130.42,1381.33 1132.66,1380.94 1134.9,1380.52 1137.15,1380.07 1139.39,1379.6 1141.63,1379.1 
  1143.88,1378.57 1146.12,1378.01 1148.36,1377.42 1150.6,1376.8 1152.85,1376.14 1155.09,1375.46 1157.33,1374.74 1159.57,1373.98 1161.82,1373.18 1164.06,1372.34 
  1166.3,1371.46 1168.55,1370.53 1170.79,1369.56 1173.03,1368.54 1175.27,1367.46 1177.52,1366.33 1179.76,1365.14 1182,1363.89 1184.25,1362.58 1186.49,1361.2 
  1188.73,1359.75 1190.97,1358.23 1193.22,1356.62 1195.46,1354.94 1197.7,1353.17 1199.95,1351.31 1202.19,1349.36 1204.43,1347.31 1206.67,1345.16 1208.92,1342.9 
  1211.16,1340.52 1213.4,1338.04 1215.65,1335.43 1217.89,1332.69 1220.13,1329.82 1222.37,1326.81 1224.62,1323.67 1226.86,1320.39 1229.1,1316.96 1231.35,1313.36 
  1233.59,1309.59 1235.83,1305.63 1238.07,1301.47 1240.32,1297.09 1242.56,1292.48 1244.8,1287.64 1247.04,1282.53 1249.29,1277.17 1251.53,1271.52 1253.77,1265.59 
  1256.02,1259.36 1258.26,1252.82 1260.5,1245.96 1262.74,1238.77 1264.99,1231.24 1267.23,1223.36 1269.47,1215.12 1271.72,1206.52 1273.96,1197.53 1276.2,1188.16 
  1278.44,1178.4 1280.69,1168.23 1282.93,1157.66 1285.17,1146.67 1287.42,1135.25 1289.66,1123.41 1291.9,1111.12 1294.14,1098.4 1296.39,1085.22 1298.63,1071.58 
  1300.87,1057.49 1303.12,1042.93 1305.36,1027.86 1307.6,1012.26 1309.84,996.198 1312.09,979.728 1314.33,962.905 1316.57,945.786 1318.82,928.427 1321.06,910.881 
  1323.3,893.203 1325.54,875.447 1327.79,857.666 1330.03,839.912 1332.27,822.237 1334.51,804.693 1336.76,787.33 1339,770.199 1341.24,753.349 1343.49,736.83 
  1345.73,720.691 1347.97,704.978 1350.21,689.74 1352.46,675.023 1354.7,660.874 1356.94,647.339 1359.19,634.462 1361.43,622.289 1363.67,610.864 1365.91,600.229 
  1368.16,590.428 1370.4,581.504 1372.64,573.495 1374.89,566.401 1377.13,560.212 1379.37,554.926 1381.61,550.534 1383.86,547.028 1386.1,544.397 1388.34,542.629 
  1390.59,541.708 1392.83,541.618 1395.07,542.339 1397.31,543.85 1399.56,546.129 1401.8,549.149 1404.04,552.884 1406.29,557.304 1408.53,562.378 1410.77,568.072 
  1413.01,574.351 1415.26,581.178 1417.5,588.512 1419.74,596.312 1421.98,604.534 1424.23,613.133 1426.47,622.06 1428.71,631.265 1430.96,640.698 1433.2,650.304 
  1435.44,660.099 1437.68,670.091 1439.93,680.257 1442.17,690.574 1444.41,701.02 1446.66,711.576 1448.9,722.222 1451.14,732.938 1453.38,743.708 1455.63,754.514 
  1457.87,765.34 1460.11,776.171 1462.36,786.993 1464.6,797.792 1466.84,808.557 1469.08,819.274 1471.33,829.934 1473.57,840.527 1475.81,851.043 1478.06,861.475 
  1480.3,871.816 1482.54,882.059 1484.78,892.198 1487.03,902.23 1489.27,912.151 1491.51,921.957 1493.76,931.645 1496,941.205 1498.24,950.636 1500.48,959.935 
  1502.73,969.101 1504.97,978.132 1507.21,987.029 1509.46,995.788 1511.7,1004.41 1513.94,1012.89 1516.18,1021.24 1518.43,1029.45 1520.67,1037.51 1522.91,1045.44 
  1525.15,1053.23 1527.4,1060.88 1529.64,1068.39 1531.88,1075.76 1534.13,1082.99 1536.37,1090.09 1538.61,1097.05 1540.85,1103.87 1543.1,1110.57 1545.34,1117.13 
  1547.58,1123.56 1549.83,1129.86 1552.07,1136.04 1554.31,1142.09 1556.55,1148.02 1558.8,1153.83 1561.04,1159.52 1563.28,1165.1 1565.53,1170.56 1567.77,1175.9 
  1570.01,1181.13 1572.25,1186.25 1574.5,1191.26 1576.74,1196.17 1578.98,1200.97 1581.23,1205.66 1583.47,1210.26 1585.71,1214.75 1587.95,1219.15 1590.2,1223.45 
  1592.44,1227.66 1594.68,1231.77 1596.93,1235.8 1599.17,1239.73 1601.41,1243.58 1603.65,1247.34 1605.9,1251.01 1608.14,1254.6 1610.38,1258.12 1612.62,1261.55 
  1614.87,1264.9 1617.11,1268.18 1619.35,1271.39 1621.6,1274.52 1623.84,1277.58 1626.08,1280.57 1628.32,1283.49 1630.57,1286.34 1632.81,1289.13 1635.05,1291.85 
  1637.3,1294.51 1639.54,1297.11 1641.78,1299.64 1644.02,1302.12 1646.27,1304.54 1648.51,1306.9 1650.75,1309.21 1653,1311.46 1655.24,1313.67 1657.48,1315.81 
  1659.72,1317.91 1661.97,1319.96 1664.21,1321.96 1666.45,1323.91 1668.7,1325.81 1670.94,1327.67 1673.18,1329.49 1675.42,1331.26 1677.67,1332.99 1679.91,1334.68 
  1682.15,1336.32 1684.4,1337.93 1686.64,1339.5 1688.88,1341.03 1691.12,1342.52 1693.37,1343.97 1695.61,1345.39 1697.85,1346.77 1700.09,1348.12 1702.34,1349.44 
  1704.58,1350.72 1706.82,1351.97 1709.07,1353.19 1711.31,1354.37 1713.55,1355.53 1715.79,1356.65 1718.04,1357.75 1720.28,1358.82 1722.52,1359.85 1724.77,1360.86 
  1727.01,1361.85 1729.25,1362.8 1731.49,1363.73 1733.74,1364.64 1735.98,1365.51 1738.22,1366.37 1740.47,1367.2 1742.71,1368 1744.95,1368.79 1747.19,1369.55 
  1749.44,1370.28 1751.68,1371 1753.92,1371.69 1756.17,1372.36 1758.41,1373.01 1760.65,1373.64 1762.89,1374.25 1765.14,1374.84 1767.38,1375.4 1769.62,1375.95 
  1771.87,1376.48 1774.11,1376.99 1776.35,1377.48 1778.59,1377.95 1780.84,1378.41 1783.08,1378.84 1785.32,1379.26 1787.56,1379.66 1789.81,1380.04 1792.05,1380.4 
  1794.29,1380.74 1796.54,1381.07 1798.78,1381.38 1801.02,1381.67 1803.26,1381.94 1805.51,1382.2 1807.75,1382.44 1809.99,1382.66 1812.24,1382.86 1814.48,1383.05 
  1816.72,1383.22 1818.96,1383.36 1821.21,1383.5 1823.45,1383.61 1825.69,1383.7 1827.94,1383.78 1830.18,1383.84 1832.42,1383.88 1834.66,1383.91 1836.91,1383.91 
  1839.15,1383.9 1841.39,1383.87 1843.64,1383.82 1845.88,1383.74 1848.12,1383.65 1850.36,1383.54 1852.61,1383.41 1854.85,1383.26 1857.09,1383.09 1859.34,1382.89 
  1861.58,1382.68 1863.82,1382.44 1866.06,1382.17 1868.31,1381.88 1870.55,1381.57 1872.79,1381.23 1875.03,1380.86 1877.28,1380.47 1879.52,1380.05 1881.76,1379.59 
  1884.01,1379.11 1886.25,1378.6 1888.49,1378.06 1890.73,1377.48 1892.98,1376.87 1895.22,1376.22 1897.46,1375.54 1899.71,1374.82 1901.95,1374.05 1904.19,1373.24 
  1906.43,1372.37 1908.68,1371.46 1910.92,1370.49 1913.16,1369.48 1915.41,1368.41 1917.65,1367.3 1919.89,1366.13 1922.13,1364.9 1924.38,1363.62 1926.62,1362.28 
  1928.86,1360.88 1931.11,1359.41 1933.35,1357.88 1935.59,1356.27 1937.83,1354.59 1940.08,1352.83 1942.32,1350.99 1944.56,1349.06 1946.81,1347.04 1949.05,1344.93 
  1951.29,1342.71 1953.53,1340.38 1955.78,1337.94 1958.02,1335.38 1960.26,1332.69 1962.5,1329.87 1964.75,1326.91 1966.99,1323.8 1969.23,1320.54 1971.48,1317.11 
  1973.72,1313.51 1975.96,1309.73 1978.2,1305.76 1980.45,1301.59 1982.69,1297.22 1984.93,1292.62 1987.18,1287.8 1989.42,1282.75 1991.66,1277.44 1993.9,1271.88 
  1996.15,1266.05 1998.39,1259.94 2000.63,1253.53 2002.88,1246.82 2005.12,1239.79 2007.36,1232.43 2009.6,1224.74 2011.85,1216.68 2014.09,1208.26 2016.33,1199.47 
  2018.58,1190.28 2020.82,1180.69 2023.06,1170.68 2025.3,1160.23 2027.55,1149.34 2029.79,1138.01 2032.03,1126.22 2034.28,1113.97 2036.52,1101.27 2038.76,1088.12 
  2041,1074.53 2043.25,1060.5 2045.49,1046.04 2047.73,1031.17 2049.97,1015.9 2052.22,1000.26 2054.46,984.252 2056.7,967.912 2058.95,951.262 2061.19,934.331 
  2063.43,917.149 2065.67,899.749 2067.92,882.16 2070.16,864.432 2072.4,846.637 2074.65,828.846 2076.89,811.126 2079.13,793.543 2081.37,776.161 2083.62,759.041 
  2085.86,742.242 2088.1,725.822 2090.35,709.835 2092.59,694.336 2094.83,679.373 2097.07,664.997 2099.32,651.253 2101.56,638.186 2103.8,625.839 2106.05,614.251 
  2108.29,603.46 2110.53,593.503 2112.77,584.413 2115.02,576.222 2117.26,568.958 2119.5,562.632 2121.75,557.225 2123.99,552.725 2126.23,549.12 2128.47,546.394 
  2130.72,544.532 2132.96,543.515 2135.2,543.323 2137.45,543.936 2139.69,545.331 2141.93,547.482 2144.17,550.365 2146.42,553.952 2148.66,558.212 2150.9,563.116 
  2153.14,568.63 2155.39,574.721 2157.63,581.352 2159.87,588.487 2162.12,596.087 2164.36,604.11 2166.6,612.515 2168.84,621.258 2171.09,630.293 2173.33,639.573 
  2175.57,649.078 2177.82,658.814 2180.06,668.755 2182.3,678.877 2184.54,689.157 2186.79,699.572 2189.03,710.101 2191.27,720.723 2193.52,731.419 2195.76,742.171 
  2198,752.96 2200.24,763.772 2202.49,774.59 2204.73,785.4 2206.97,796.188 2209.22,806.942 2211.46,817.651 2213.7,828.303 2215.94,838.891 2218.19,849.404 
  2220.43,859.836 2222.67,870.179 2224.92,880.43 2227.16,890.582 2229.4,900.627 2231.64,910.557 2233.89,920.37 2236.13,930.062 2238.37,939.63 2240.61,949.072 
  2242.86,958.384 2245.1,967.566 2247.34,976.615 2249.59,985.529 2251.83,994.307 2254.07,1002.95 2256.31,1011.45 2258.56,1019.81 2260.8,1028.04 2263.04,1036.12 
  2265.29,1044.06 2267.53,1051.86 2269.77,1059.52 2272.01,1067.04 2274.26,1074.43 2276.5,1081.67 2278.74,1088.78 2280.99,1095.76 2283.23,1102.6 2285.47,1109.31 
  2287.71,1115.89 2289.96,1122.34 2292.2,1128.66 2294.44,1134.86 2296.69,1140.94 2298.93,1146.89 2301.17,1152.71 2303.41,1158.42 2305.66,1164.02 2307.9,1169.49 
  2310.14,1174.85 2312.39,1180.1 2314.63,1185.24 2316.87,1190.27 2319.11,1195.19 2321.36,1200.01 2323.6,1204.72 2325.84,1209.33 2328.08,1213.84 2330.33,1218.26 
  2332.57,1222.57 2334.81,1226.79 2337.06,1230.92 2339.3,1234.96 2341.54,1238.9 2343.78,1242.76 2346.03,1246.54 2348.27,1250.22 2350.51,1253.83 2352.76,1257.35 
  
  "/>
<path clip-path="url(#clip960)" d="
M1935.04 274.549 L2278.07 274.549 L2278.07 93.1086 L1935.04 93.1086  Z
  " fill="#ffffff" fill-rule="evenodd" fill-opacity="1"/>
<polyline clip-path="url(#clip960)" style="stroke:#000000; stroke-width:4; stroke-opacity:1; fill:none" points="
  1935.04,274.549 2278.07,274.549 2278.07,93.1086 1935.04,93.1086 1935.04,274.549 
  "/>
<polyline clip-path="url(#clip960)" style="stroke:#009af9; stroke-width:4; stroke-opacity:1; fill:none" points="
  1959.94,153.589 2109.31,153.589 
  "/>
<path clip-path="url(#clip960)" d="M 0 0 M2134.21 160.637 L2134.21 144.943 L2138.46 144.943 L2138.46 160.475 Q2138.46 164.156 2139.9 166.008 Q2141.34 167.836 2144.21 167.836 Q2147.65 167.836 2149.65 165.637 Q2151.66 163.438 2151.66 159.642 L2151.66 144.943 L2155.92 144.943 L2155.92 170.869 L2151.66 170.869 L2151.66 166.887 Q2150.11 169.248 2148.05 170.406 Q2146.01 171.54 2143.3 171.54 Q2138.84 171.54 2136.52 168.762 Q2134.21 165.984 2134.21 160.637 M2144.92 144.318 L2144.92 144.318 Z" fill="#000000" fill-rule="evenodd" fill-opacity="1" /><path clip-path="url(#clip960)" d="M 0 0 M2161.8 166.933 L2169.44 166.933 L2169.44 140.568 L2161.13 142.235 L2161.13 137.975 L2169.39 136.309 L2174.07 136.309 L2174.07 166.933 L2181.71 166.933 L2181.71 170.869 L2161.8 170.869 L2161.8 166.933 Z" fill="#000000" fill-rule="evenodd" fill-opacity="1" /><path clip-path="url(#clip960)" d="M 0 0 M2196.4 134.897 Q2193.3 140.221 2191.8 145.429 Q2190.29 150.637 2190.29 155.984 Q2190.29 161.332 2191.8 166.586 Q2193.33 171.818 2196.4 177.119 L2192.7 177.119 Q2189.23 171.679 2187.49 166.424 Q2185.78 161.17 2185.78 155.984 Q2185.78 150.822 2187.49 145.591 Q2189.21 140.36 2192.7 134.897 L2196.4 134.897 Z" fill="#000000" fill-rule="evenodd" fill-opacity="1" /><path clip-path="url(#clip960)" d="M 0 0 M2205.08 137.582 L2205.08 144.943 L2213.86 144.943 L2213.86 148.253 L2205.08 148.253 L2205.08 162.327 Q2205.08 165.498 2205.94 166.401 Q2206.82 167.304 2209.48 167.304 L2213.86 167.304 L2213.86 170.869 L2209.48 170.869 Q2204.55 170.869 2202.68 169.04 Q2200.8 167.188 2200.8 162.327 L2200.8 148.253 L2197.68 148.253 L2197.68 144.943 L2200.8 144.943 L2200.8 137.582 L2205.08 137.582 Z" fill="#000000" fill-rule="evenodd" fill-opacity="1" /><path clip-path="url(#clip960)" d="M 0 0 M2217.65 134.897 L2221.36 134.897 Q2224.83 140.36 2226.54 145.591 Q2228.28 150.822 2228.28 155.984 Q2228.28 161.17 2226.54 166.424 Q2224.83 171.679 2221.36 177.119 L2217.65 177.119 Q2220.73 171.818 2222.24 166.586 Q2223.77 161.332 2223.77 155.984 Q2223.77 150.637 2222.24 145.429 Q2220.73 140.221 2217.65 134.897 Z" fill="#000000" fill-rule="evenodd" fill-opacity="1" /><polyline clip-path="url(#clip960)" style="stroke:#e26f46; stroke-width:4; stroke-opacity:1; fill:none" points="
  1959.94,214.069 2109.31,214.069 
  "/>
<path clip-path="url(#clip960)" d="M 0 0 M2134.21 221.117 L2134.21 205.423 L2138.46 205.423 L2138.46 220.955 Q2138.46 224.636 2139.9 226.488 Q2141.34 228.316 2144.21 228.316 Q2147.65 228.316 2149.65 226.117 Q2151.66 223.918 2151.66 220.122 L2151.66 205.423 L2155.92 205.423 L2155.92 231.349 L2151.66 231.349 L2151.66 227.367 Q2150.11 229.728 2148.05 230.886 Q2146.01 232.02 2143.3 232.02 Q2138.84 232.02 2136.52 229.242 Q2134.21 226.464 2134.21 221.117 M2144.92 204.798 L2144.92 204.798 Z" fill="#000000" fill-rule="evenodd" fill-opacity="1" /><path clip-path="url(#clip960)" d="M 0 0 M2165.02 227.413 L2181.34 227.413 L2181.34 231.349 L2159.39 231.349 L2159.39 227.413 Q2162.05 224.659 2166.64 220.029 Q2171.24 215.376 2172.42 214.034 Q2174.67 211.511 2175.55 209.775 Q2176.45 208.015 2176.45 206.326 Q2176.45 203.571 2174.51 201.835 Q2172.59 200.099 2169.48 200.099 Q2167.28 200.099 2164.83 200.863 Q2162.4 201.627 2159.62 203.177 L2159.62 198.455 Q2162.45 197.321 2164.9 196.742 Q2167.35 196.164 2169.39 196.164 Q2174.76 196.164 2177.96 198.849 Q2181.15 201.534 2181.15 206.025 Q2181.15 208.154 2180.34 210.076 Q2179.55 211.974 2177.45 214.566 Q2176.87 215.238 2173.77 218.455 Q2170.66 221.65 2165.02 227.413 Z" fill="#000000" fill-rule="evenodd" fill-opacity="1" /><path clip-path="url(#clip960)" d="M 0 0 M2196.03 195.377 Q2192.93 200.701 2191.43 205.909 Q2189.92 211.117 2189.92 216.464 Q2189.92 221.812 2191.43 227.066 Q2192.96 232.298 2196.03 237.599 L2192.33 237.599 Q2188.86 232.159 2187.12 226.904 Q2185.41 221.65 2185.41 216.464 Q2185.41 211.302 2187.12 206.071 Q2188.84 200.84 2192.33 195.377 L2196.03 195.377 Z" fill="#000000" fill-rule="evenodd" fill-opacity="1" /><path clip-path="url(#clip960)" d="M 0 0 M2204.71 198.062 L2204.71 205.423 L2213.49 205.423 L2213.49 208.733 L2204.71 208.733 L2204.71 222.807 Q2204.71 225.978 2205.57 226.881 Q2206.45 227.784 2209.11 227.784 L2213.49 227.784 L2213.49 231.349 L2209.11 231.349 Q2204.18 231.349 2202.31 229.52 Q2200.43 227.668 2200.43 222.807 L2200.43 208.733 L2197.31 208.733 L2197.31 205.423 L2200.43 205.423 L2200.43 198.062 L2204.71 198.062 Z" fill="#000000" fill-rule="evenodd" fill-opacity="1" /><path clip-path="url(#clip960)" d="M 0 0 M2217.28 195.377 L2220.99 195.377 Q2224.46 200.84 2226.17 206.071 Q2227.91 211.302 2227.91 216.464 Q2227.91 221.65 2226.17 226.904 Q2224.46 232.159 2220.99 237.599 L2217.28 237.599 Q2220.36 232.298 2221.87 227.066 Q2223.4 221.812 2223.4 216.464 Q2223.4 211.117 2221.87 205.909 Q2220.36 200.701 2217.28 195.377 Z" fill="#000000" fill-rule="evenodd" fill-opacity="1" /></svg>
