<?xml version="1.0" encoding="utf-8"?>
<svg xmlns="http://www.w3.org/2000/svg" xmlns:xlink="http://www.w3.org/1999/xlink" width="600" height="400" viewBox="0 0 2400 1600">
<defs>
  <clipPath id="clip740">
    <rect x="0" y="0" width="2400" height="1600"/>
  </clipPath>
</defs>
<path clip-path="url(#clip740)" d="
M0 1600 L2400 1600 L2400 0 L0 0  Z
  " fill="#ffffff" fill-rule="evenodd" fill-opacity="1"/>
<defs>
  <clipPath id="clip741">
    <rect x="480" y="0" width="1681" height="1600"/>
  </clipPath>
</defs>
<path clip-path="url(#clip740)" d="
M112.177 1486.45 L2352.76 1486.45 L2352.76 47.2441 L112.177 47.2441  Z
  " fill="#ffffff" fill-rule="evenodd" fill-opacity="1"/>
<defs>
  <clipPath id="clip742">
    <rect x="112" y="47" width="2242" height="1440"/>
  </clipPath>
</defs>
<polyline clip-path="url(#clip742)" style="stroke:#000000; stroke-width:2; stroke-opacity:0.1; fill:none" points="
  175.59,1486.45 175.59,47.2441 
  "/>
<polyline clip-path="url(#clip742)" style="stroke:#000000; stroke-width:2; stroke-opacity:0.1; fill:none" points="
  704.028,1486.45 704.028,47.2441 
  "/>
<polyline clip-path="url(#clip742)" style="stroke:#000000; stroke-width:2; stroke-opacity:0.1; fill:none" points="
  1232.47,1486.45 1232.47,47.2441 
  "/>
<polyline clip-path="url(#clip742)" style="stroke:#000000; stroke-width:2; stroke-opacity:0.1; fill:none" points="
  1760.9,1486.45 1760.9,47.2441 
  "/>
<polyline clip-path="url(#clip742)" style="stroke:#000000; stroke-width:2; stroke-opacity:0.1; fill:none" points="
  2289.34,1486.45 2289.34,47.2441 
  "/>
<polyline clip-path="url(#clip742)" style="stroke:#000000; stroke-width:2; stroke-opacity:0.1; fill:none" points="
  112.177,1445.94 2352.76,1445.94 
  "/>
<polyline clip-path="url(#clip742)" style="stroke:#000000; stroke-width:2; stroke-opacity:0.1; fill:none" points="
  112.177,1233.39 2352.76,1233.39 
  "/>
<polyline clip-path="url(#clip742)" style="stroke:#000000; stroke-width:2; stroke-opacity:0.1; fill:none" points="
  112.177,1020.85 2352.76,1020.85 
  "/>
<polyline clip-path="url(#clip742)" style="stroke:#000000; stroke-width:2; stroke-opacity:0.1; fill:none" points="
  112.177,808.308 2352.76,808.308 
  "/>
<polyline clip-path="url(#clip742)" style="stroke:#000000; stroke-width:2; stroke-opacity:0.1; fill:none" points="
  112.177,595.765 2352.76,595.765 
  "/>
<polyline clip-path="url(#clip742)" style="stroke:#000000; stroke-width:2; stroke-opacity:0.1; fill:none" points="
  112.177,383.222 2352.76,383.222 
  "/>
<polyline clip-path="url(#clip742)" style="stroke:#000000; stroke-width:2; stroke-opacity:0.1; fill:none" points="
  112.177,170.679 2352.76,170.679 
  "/>
<polyline clip-path="url(#clip740)" style="stroke:#000000; stroke-width:4; stroke-opacity:1; fill:none" points="
  112.177,1486.45 2352.76,1486.45 
  "/>
<polyline clip-path="url(#clip740)" style="stroke:#000000; stroke-width:4; stroke-opacity:1; fill:none" points="
  112.177,1486.45 112.177,47.2441 
  "/>
<polyline clip-path="url(#clip740)" style="stroke:#000000; stroke-width:4; stroke-opacity:1; fill:none" points="
  175.59,1486.45 175.59,1469.18 
  "/>
<polyline clip-path="url(#clip740)" style="stroke:#000000; stroke-width:4; stroke-opacity:1; fill:none" points="
  704.028,1486.45 704.028,1469.18 
  "/>
<polyline clip-path="url(#clip740)" style="stroke:#000000; stroke-width:4; stroke-opacity:1; fill:none" points="
  1232.47,1486.45 1232.47,1469.18 
  "/>
<polyline clip-path="url(#clip740)" style="stroke:#000000; stroke-width:4; stroke-opacity:1; fill:none" points="
  1760.9,1486.45 1760.9,1469.18 
  "/>
<polyline clip-path="url(#clip740)" style="stroke:#000000; stroke-width:4; stroke-opacity:1; fill:none" points="
  2289.34,1486.45 2289.34,1469.18 
  "/>
<polyline clip-path="url(#clip740)" style="stroke:#000000; stroke-width:4; stroke-opacity:1; fill:none" points="
  112.177,1445.94 139.064,1445.94 
  "/>
<polyline clip-path="url(#clip740)" style="stroke:#000000; stroke-width:4; stroke-opacity:1; fill:none" points="
  112.177,1233.39 139.064,1233.39 
  "/>
<polyline clip-path="url(#clip740)" style="stroke:#000000; stroke-width:4; stroke-opacity:1; fill:none" points="
  112.177,1020.85 139.064,1020.85 
  "/>
<polyline clip-path="url(#clip740)" style="stroke:#000000; stroke-width:4; stroke-opacity:1; fill:none" points="
  112.177,808.308 139.064,808.308 
  "/>
<polyline clip-path="url(#clip740)" style="stroke:#000000; stroke-width:4; stroke-opacity:1; fill:none" points="
  112.177,595.765 139.064,595.765 
  "/>
<polyline clip-path="url(#clip740)" style="stroke:#000000; stroke-width:4; stroke-opacity:1; fill:none" points="
  112.177,383.222 139.064,383.222 
  "/>
<polyline clip-path="url(#clip740)" style="stroke:#000000; stroke-width:4; stroke-opacity:1; fill:none" points="
  112.177,170.679 139.064,170.679 
  "/>
<path clip-path="url(#clip740)" d="M 0 0 M157.106 1508.44 Q153.495 1508.44 151.666 1512 Q149.861 1515.55 149.861 1522.67 Q149.861 1529.78 151.666 1533.35 Q153.495 1536.89 157.106 1536.89 Q160.74 1536.89 162.546 1533.35 Q164.375 1529.78 164.375 1522.67 Q164.375 1515.55 162.546 1512 Q160.74 1508.44 157.106 1508.44 M157.106 1504.73 Q162.916 1504.73 165.972 1509.34 Q169.05 1513.92 169.05 1522.67 Q169.05 1531.4 165.972 1536.01 Q162.916 1540.59 157.106 1540.59 Q151.296 1540.59 148.217 1536.01 Q145.162 1531.4 145.162 1522.67 Q145.162 1513.92 148.217 1509.34 Q151.296 1504.73 157.106 1504.73 Z" fill="#000000" fill-rule="evenodd" fill-opacity="1" /><path clip-path="url(#clip740)" d="M 0 0 M174.12 1534.04 L179.004 1534.04 L179.004 1539.92 L174.12 1539.92 L174.12 1534.04 Z" fill="#000000" fill-rule="evenodd" fill-opacity="1" /><path clip-path="url(#clip740)" d="M 0 0 M194.073 1508.44 Q190.462 1508.44 188.634 1512 Q186.828 1515.55 186.828 1522.67 Q186.828 1529.78 188.634 1533.35 Q190.462 1536.89 194.073 1536.89 Q197.708 1536.89 199.513 1533.35 Q201.342 1529.78 201.342 1522.67 Q201.342 1515.55 199.513 1512 Q197.708 1508.44 194.073 1508.44 M194.073 1504.73 Q199.884 1504.73 202.939 1509.34 Q206.018 1513.92 206.018 1522.67 Q206.018 1531.4 202.939 1536.01 Q199.884 1540.59 194.073 1540.59 Q188.263 1540.59 185.185 1536.01 Q182.129 1531.4 182.129 1522.67 Q182.129 1513.92 185.185 1509.34 Q188.263 1504.73 194.073 1504.73 Z" fill="#000000" fill-rule="evenodd" fill-opacity="1" /><path clip-path="url(#clip740)" d="M 0 0 M680.695 1535.98 L697.014 1535.98 L697.014 1539.92 L675.07 1539.92 L675.07 1535.98 Q677.732 1533.23 682.315 1528.6 Q686.922 1523.95 688.102 1522.61 Q690.348 1520.08 691.227 1518.35 Q692.13 1516.59 692.13 1514.9 Q692.13 1512.14 690.186 1510.41 Q688.264 1508.67 685.163 1508.67 Q682.963 1508.67 680.51 1509.43 Q678.079 1510.2 675.301 1511.75 L675.301 1507.03 Q678.126 1505.89 680.579 1505.31 Q683.033 1504.73 685.07 1504.73 Q690.44 1504.73 693.635 1507.42 Q696.829 1510.11 696.829 1514.6 Q696.829 1516.73 696.019 1518.65 Q695.232 1520.54 693.125 1523.14 Q692.547 1523.81 689.445 1527.03 Q686.343 1530.22 680.695 1535.98 Z" fill="#000000" fill-rule="evenodd" fill-opacity="1" /><path clip-path="url(#clip740)" d="M 0 0 M702.084 1534.04 L706.968 1534.04 L706.968 1539.92 L702.084 1539.92 L702.084 1534.04 Z" fill="#000000" fill-rule="evenodd" fill-opacity="1" /><path clip-path="url(#clip740)" d="M 0 0 M712.084 1505.36 L730.44 1505.36 L730.44 1509.3 L716.366 1509.3 L716.366 1517.77 Q717.385 1517.42 718.403 1517.26 Q719.422 1517.07 720.44 1517.07 Q726.227 1517.07 729.607 1520.24 Q732.986 1523.42 732.986 1528.83 Q732.986 1534.41 729.514 1537.51 Q726.042 1540.59 719.723 1540.59 Q717.547 1540.59 715.278 1540.22 Q713.033 1539.85 710.625 1539.11 L710.625 1534.41 Q712.709 1535.54 714.931 1536.1 Q717.153 1536.66 719.63 1536.66 Q723.635 1536.66 725.972 1534.55 Q728.31 1532.44 728.31 1528.83 Q728.31 1525.22 725.972 1523.11 Q723.635 1521.01 719.63 1521.01 Q717.755 1521.01 715.88 1521.42 Q714.028 1521.84 712.084 1522.72 L712.084 1505.36 Z" fill="#000000" fill-rule="evenodd" fill-opacity="1" /><path clip-path="url(#clip740)" d="M 0 0 M1204.26 1505.36 L1222.62 1505.36 L1222.62 1509.3 L1208.54 1509.3 L1208.54 1517.77 Q1209.56 1517.42 1210.58 1517.26 Q1211.6 1517.07 1212.62 1517.07 Q1218.4 1517.07 1221.78 1520.24 Q1225.16 1523.42 1225.16 1528.83 Q1225.16 1534.41 1221.69 1537.51 Q1218.22 1540.59 1211.9 1540.59 Q1209.72 1540.59 1207.46 1540.22 Q1205.21 1539.85 1202.8 1539.11 L1202.8 1534.41 Q1204.89 1535.54 1207.11 1536.1 Q1209.33 1536.66 1211.81 1536.66 Q1215.81 1536.66 1218.15 1534.55 Q1220.49 1532.44 1220.49 1528.83 Q1220.49 1525.22 1218.15 1523.11 Q1215.81 1521.01 1211.81 1521.01 Q1209.93 1521.01 1208.06 1521.42 Q1206.21 1521.84 1204.26 1522.72 L1204.26 1505.36 Z" fill="#000000" fill-rule="evenodd" fill-opacity="1" /><path clip-path="url(#clip740)" d="M 0 0 M1230.23 1534.04 L1235.12 1534.04 L1235.12 1539.92 L1230.23 1539.92 L1230.23 1534.04 Z" fill="#000000" fill-rule="evenodd" fill-opacity="1" /><path clip-path="url(#clip740)" d="M 0 0 M1250.19 1508.44 Q1246.58 1508.44 1244.75 1512 Q1242.94 1515.55 1242.94 1522.67 Q1242.94 1529.78 1244.75 1533.35 Q1246.58 1536.89 1250.19 1536.89 Q1253.82 1536.89 1255.63 1533.35 Q1257.45 1529.78 1257.45 1522.67 Q1257.45 1515.55 1255.63 1512 Q1253.82 1508.44 1250.19 1508.44 M1250.19 1504.73 Q1256 1504.73 1259.05 1509.34 Q1262.13 1513.92 1262.13 1522.67 Q1262.13 1531.4 1259.05 1536.01 Q1256 1540.59 1250.19 1540.59 Q1244.38 1540.59 1241.3 1536.01 Q1238.24 1531.4 1238.24 1522.67 Q1238.24 1513.92 1241.3 1509.34 Q1244.38 1504.73 1250.19 1504.73 Z" fill="#000000" fill-rule="evenodd" fill-opacity="1" /><path clip-path="url(#clip740)" d="M 0 0 M1731.81 1505.36 L1754.03 1505.36 L1754.03 1507.35 L1741.48 1539.92 L1736.6 1539.92 L1748.4 1509.3 L1731.81 1509.3 L1731.81 1505.36 Z" fill="#000000" fill-rule="evenodd" fill-opacity="1" /><path clip-path="url(#clip740)" d="M 0 0 M1759.1 1534.04 L1763.98 1534.04 L1763.98 1539.92 L1759.1 1539.92 L1759.1 1534.04 Z" fill="#000000" fill-rule="evenodd" fill-opacity="1" /><path clip-path="url(#clip740)" d="M 0 0 M1769.1 1505.36 L1787.46 1505.36 L1787.46 1509.3 L1773.38 1509.3 L1773.38 1517.77 Q1774.4 1517.42 1775.42 1517.26 Q1776.44 1517.07 1777.46 1517.07 Q1783.24 1517.07 1786.62 1520.24 Q1790 1523.42 1790 1528.83 Q1790 1534.41 1786.53 1537.51 Q1783.06 1540.59 1776.74 1540.59 Q1774.56 1540.59 1772.29 1540.22 Q1770.05 1539.85 1767.64 1539.11 L1767.64 1534.41 Q1769.72 1535.54 1771.95 1536.1 Q1774.17 1536.66 1776.65 1536.66 Q1780.65 1536.66 1782.99 1534.55 Q1785.33 1532.44 1785.33 1528.83 Q1785.33 1525.22 1782.99 1523.11 Q1780.65 1521.01 1776.65 1521.01 Q1774.77 1521.01 1772.9 1521.42 Q1771.04 1521.84 1769.1 1522.72 L1769.1 1505.36 Z" fill="#000000" fill-rule="evenodd" fill-opacity="1" /><path clip-path="url(#clip740)" d="M 0 0 M2247.73 1535.98 L2255.37 1535.98 L2255.37 1509.62 L2247.06 1511.29 L2247.06 1507.03 L2255.33 1505.36 L2260 1505.36 L2260 1535.98 L2267.64 1535.98 L2267.64 1539.92 L2247.73 1539.92 L2247.73 1535.98 Z" fill="#000000" fill-rule="evenodd" fill-opacity="1" /><path clip-path="url(#clip740)" d="M 0 0 M2282.71 1508.44 Q2279.1 1508.44 2277.27 1512 Q2275.47 1515.55 2275.47 1522.67 Q2275.47 1529.78 2277.27 1533.35 Q2279.1 1536.89 2282.71 1536.89 Q2286.35 1536.89 2288.15 1533.35 Q2289.98 1529.78 2289.98 1522.67 Q2289.98 1515.55 2288.15 1512 Q2286.35 1508.44 2282.71 1508.44 M2282.71 1504.73 Q2288.52 1504.73 2291.58 1509.34 Q2294.66 1513.92 2294.66 1522.67 Q2294.66 1531.4 2291.58 1536.01 Q2288.52 1540.59 2282.71 1540.59 Q2276.9 1540.59 2273.82 1536.01 Q2270.77 1531.4 2270.77 1522.67 Q2270.77 1513.92 2273.82 1509.34 Q2276.9 1504.73 2282.71 1504.73 Z" fill="#000000" fill-rule="evenodd" fill-opacity="1" /><path clip-path="url(#clip740)" d="M 0 0 M2299.73 1534.04 L2304.61 1534.04 L2304.61 1539.92 L2299.73 1539.92 L2299.73 1534.04 Z" fill="#000000" fill-rule="evenodd" fill-opacity="1" /><path clip-path="url(#clip740)" d="M 0 0 M2319.68 1508.44 Q2316.07 1508.44 2314.24 1512 Q2312.43 1515.55 2312.43 1522.67 Q2312.43 1529.78 2314.24 1533.35 Q2316.07 1536.89 2319.68 1536.89 Q2323.31 1536.89 2325.12 1533.35 Q2326.95 1529.78 2326.95 1522.67 Q2326.95 1515.55 2325.12 1512 Q2323.31 1508.44 2319.68 1508.44 M2319.68 1504.73 Q2325.49 1504.73 2328.54 1509.34 Q2331.62 1513.92 2331.62 1522.67 Q2331.62 1531.4 2328.54 1536.01 Q2325.49 1540.59 2319.68 1540.59 Q2313.87 1540.59 2310.79 1536.01 Q2307.73 1531.4 2307.73 1522.67 Q2307.73 1513.92 2310.79 1509.34 Q2313.87 1504.73 2319.68 1504.73 Z" fill="#000000" fill-rule="evenodd" fill-opacity="1" /><path clip-path="url(#clip740)" d="M 0 0 M76.2328 1431.74 Q72.6217 1431.74 70.793 1435.3 Q68.9875 1438.84 68.9875 1445.97 Q68.9875 1453.08 70.793 1456.64 Q72.6217 1460.19 76.2328 1460.19 Q79.867 1460.19 81.6726 1456.64 Q83.5013 1453.08 83.5013 1445.97 Q83.5013 1438.84 81.6726 1435.3 Q79.867 1431.74 76.2328 1431.74 M76.2328 1428.03 Q82.0429 1428.03 85.0985 1432.64 Q88.1772 1437.22 88.1772 1445.97 Q88.1772 1454.7 85.0985 1459.31 Q82.0429 1463.89 76.2328 1463.89 Q70.4226 1463.89 67.344 1459.31 Q64.2884 1454.7 64.2884 1445.97 Q64.2884 1437.22 67.344 1432.64 Q70.4226 1428.03 76.2328 1428.03 Z" fill="#000000" fill-rule="evenodd" fill-opacity="1" /><path clip-path="url(#clip740)" d="M 0 0 M68.2699 1246.74 L75.9087 1246.74 L75.9087 1220.37 L67.5986 1222.04 L67.5986 1217.78 L75.8624 1216.11 L80.5383 1216.11 L80.5383 1246.74 L88.1772 1246.74 L88.1772 1250.67 L68.2699 1250.67 L68.2699 1246.74 Z" fill="#000000" fill-rule="evenodd" fill-opacity="1" /><path clip-path="url(#clip740)" d="M 0 0 M71.8578 1034.2 L88.1772 1034.2 L88.1772 1038.13 L66.2328 1038.13 L66.2328 1034.2 Q68.8949 1031.44 73.4782 1026.81 Q78.0846 1022.16 79.2652 1020.82 Q81.5105 1018.29 82.3902 1016.56 Q83.2929 1014.8 83.2929 1013.11 Q83.2929 1010.35 81.3485 1008.62 Q79.4272 1006.88 76.3254 1006.88 Q74.1263 1006.88 71.6726 1007.65 Q69.2421 1008.41 66.4643 1009.96 L66.4643 1005.24 Q69.2884 1004.1 71.7421 1003.53 Q74.1958 1002.95 76.2328 1002.95 Q81.6031 1002.95 84.7976 1005.63 Q87.992 1008.32 87.992 1012.81 Q87.992 1014.94 87.1818 1016.86 Q86.3948 1018.76 84.2883 1021.35 Q83.7096 1022.02 80.6078 1025.24 Q77.5059 1028.43 71.8578 1034.2 Z" fill="#000000" fill-rule="evenodd" fill-opacity="1" /><path clip-path="url(#clip740)" d="M 0 0 M81.0476 806.954 Q84.404 807.672 86.279 809.94 Q88.1772 812.209 88.1772 815.542 Q88.1772 820.658 84.6587 823.459 Q81.1402 826.259 74.6587 826.259 Q72.4828 826.259 70.168 825.82 Q67.8764 825.403 65.4227 824.546 L65.4227 820.033 Q67.3671 821.167 69.6819 821.746 Q71.9967 822.324 74.5198 822.324 Q78.918 822.324 81.2096 820.588 Q83.5244 818.852 83.5244 815.542 Q83.5244 812.486 81.3717 810.773 Q79.242 809.037 75.4226 809.037 L71.3949 809.037 L71.3949 805.195 L75.6078 805.195 Q79.0569 805.195 80.8855 803.829 Q82.7142 802.44 82.7142 799.848 Q82.7142 797.186 80.8161 795.773 Q78.9411 794.338 75.4226 794.338 Q73.5013 794.338 71.3023 794.755 Q69.1032 795.172 66.4643 796.051 L66.4643 791.885 Q69.1264 791.144 71.4412 790.774 Q73.7791 790.403 75.8393 790.403 Q81.1633 790.403 84.2652 792.834 Q87.367 795.241 87.367 799.361 Q87.367 802.232 85.7235 804.223 Q84.08 806.19 81.0476 806.954 Z" fill="#000000" fill-rule="evenodd" fill-opacity="1" /><path clip-path="url(#clip740)" d="M 0 0 M78.5939 582.559 L66.7884 601.008 L78.5939 601.008 L78.5939 582.559 M77.367 578.485 L83.2466 578.485 L83.2466 601.008 L88.1772 601.008 L88.1772 604.897 L83.2466 604.897 L83.2466 613.045 L78.5939 613.045 L78.5939 604.897 L62.9921 604.897 L62.9921 600.383 L77.367 578.485 Z" fill="#000000" fill-rule="evenodd" fill-opacity="1" /><path clip-path="url(#clip740)" d="M 0 0 M67.2745 365.942 L85.6309 365.942 L85.6309 369.877 L71.5569 369.877 L71.5569 378.349 Q72.5754 378.002 73.5939 377.84 Q74.6124 377.655 75.6309 377.655 Q81.418 377.655 84.7976 380.826 Q88.1772 383.997 88.1772 389.414 Q88.1772 394.992 84.705 398.094 Q81.2328 401.173 74.9134 401.173 Q72.7374 401.173 70.4689 400.803 Q68.2236 400.432 65.8162 399.692 L65.8162 394.992 Q67.8995 396.127 70.1217 396.682 Q72.3439 397.238 74.8208 397.238 Q78.8254 397.238 81.1633 395.131 Q83.5013 393.025 83.5013 389.414 Q83.5013 385.803 81.1633 383.696 Q78.8254 381.59 74.8208 381.59 Q72.9458 381.59 71.0708 382.006 Q69.2189 382.423 67.2745 383.303 L67.2745 365.942 Z" fill="#000000" fill-rule="evenodd" fill-opacity="1" /><path clip-path="url(#clip740)" d="M 0 0 M76.6495 168.815 Q73.5013 168.815 71.6495 170.968 Q69.8208 173.121 69.8208 176.871 Q69.8208 180.597 71.6495 182.773 Q73.5013 184.926 76.6495 184.926 Q79.7976 184.926 81.6263 182.773 Q83.4781 180.597 83.4781 176.871 Q83.4781 173.121 81.6263 170.968 Q79.7976 168.815 76.6495 168.815 M85.9318 154.162 L85.9318 158.422 Q84.1726 157.588 82.367 157.148 Q80.5846 156.709 78.8254 156.709 Q74.1958 156.709 71.7421 159.834 Q69.3115 162.959 68.9643 169.278 Q70.33 167.264 72.3902 166.199 Q74.4504 165.111 76.9272 165.111 Q82.1355 165.111 85.1448 168.283 Q88.1772 171.431 88.1772 176.871 Q88.1772 182.195 85.029 185.412 Q81.8809 188.63 76.6495 188.63 Q70.6541 188.63 67.4828 184.046 Q64.3116 179.44 64.3116 170.713 Q64.3116 162.519 68.2004 157.658 Q72.0893 152.774 78.6402 152.774 Q80.3994 152.774 82.1818 153.121 Q83.9874 153.468 85.9318 154.162 Z" fill="#000000" fill-rule="evenodd" fill-opacity="1" /><path clip-path="url(#clip742)" d="
M175.59 1233.39 L196.727 1257.69 L217.865 1267.53 L239.002 1279.11 L260.14 1294.04 L281.277 1313.73 L302.415 1338.12 L323.553 1362.41 L344.69 1384.09 L365.828 1401.22 
  L386.965 1415.59 L408.103 1424.83 L429.24 1431.13 L450.378 1435.47 L471.515 1438.15 L492.653 1440.04 L513.79 1441.3 L534.928 1442.26 L556.065 1442.95 L577.203 1443.43 
  L598.34 1443.82 L619.478 1444.09 L640.616 1444.28 L661.753 1444.43 L682.891 1444.51 L704.028 1444.6 L725.166 1444.61 L746.303 1444.65 L767.441 1444.68 L788.578 1444.7 
  L809.716 1444.69 L830.853 1444.67 L851.991 1444.64 L873.128 1444.62 L894.266 1444.57 L915.404 1444.52 L936.541 1444.43 L957.679 1444.35 L978.816 1444.22 L999.954 1444.04 
  L1021.09 1443.88 L1042.23 1443.69 L1063.37 1443.44 L1084.5 1443.22 L1105.64 1442.91 L1126.78 1442.59 L1147.92 1442.2 L1169.05 1441.74 L1190.19 1441.12 L1211.33 1440.5 
  L1232.47 1439.69 L1253.6 1438.98 L1274.74 1438.17 L1295.88 1437.26 L1317.02 1436.15 L1338.15 1434.82 L1359.29 1433.77 L1380.43 1432.95 L1401.57 1432.35 L1422.7 1432.53 
  L1443.84 1432.82 L1464.98 1432.46 L1486.12 1433.23 L1507.25 1434.07 L1528.39 1435.04 L1549.53 1436.36 L1570.67 1437.54 L1591.8 1438.55 L1612.94 1439.55 L1634.08 1440.44 
  L1655.22 1441.1 L1676.35 1441.84 L1697.49 1442.4 L1718.63 1442.9 L1739.77 1443.28 L1760.9 1443.63 L1782.04 1443.98 L1803.18 1444.24 L1824.32 1444.47 L1845.46 1444.65 
  L1866.59 1444.84 L1887.73 1444.92 L1908.87 1445.04 L1930.01 1445.16 L1951.14 1445.27 L1972.28 1445.35 L1993.42 1445.44 L2014.56 1445.49 L2035.69 1445.53 L2056.83 1445.57 
  L2077.97 1445.6 L2099.11 1445.63 L2120.24 1445.64 L2141.38 1445.66 L2162.52 1445.68 L2183.66 1445.69 L2204.79 1445.69 L2225.93 1445.7 L2247.07 1445.69 L2268.21 1445.7 
  L2289.34 1445.72 L2289.34 1289.54 L2268.21 1290.47 L2247.07 1293.39 L2225.93 1294.54 L2204.79 1298.2 L2183.66 1302.67 L2162.52 1304.1 L2141.38 1302.65 L2120.24 1298.67 
  L2099.11 1297.88 L2077.97 1292.21 L2056.83 1279.08 L2035.69 1272.34 L2014.56 1252.24 L1993.42 1231.69 L1972.28 1215.06 L1951.14 1205.43 L1930.01 1193.17 L1908.87 1172.21 
  L1887.73 1164.69 L1866.59 1155.39 L1845.46 1145.34 L1824.32 1135.41 L1803.18 1123.29 L1782.04 1115.71 L1760.9 1109.95 L1739.77 1104.02 L1718.63 1105.73 L1697.49 1101.63 
  L1676.35 1102.13 L1655.22 1100.2 L1634.08 1100.41 L1612.94 1106.54 L1591.8 1106.7 L1570.67 1113.78 L1549.53 1124.12 L1528.39 1124.44 L1507.25 1134.16 L1486.12 1143.06 
  L1464.98 1150.19 L1443.84 1155.36 L1422.7 1155.68 L1401.57 1163.58 L1380.43 1172.93 L1359.29 1180.71 L1338.15 1188.67 L1317.02 1197.51 L1295.88 1207.33 L1274.74 1215.58 
  L1253.6 1226.8 L1232.47 1237.64 L1211.33 1246.13 L1190.19 1253.29 L1169.05 1263.73 L1147.92 1272.48 L1126.78 1283.67 L1105.64 1292.25 L1084.5 1304.6 L1063.37 1314.27 
  L1042.23 1322.38 L1021.09 1330.27 L999.954 1339.4 L978.816 1347.67 L957.679 1354.53 L936.541 1358.93 L915.404 1365.59 L894.266 1371.82 L873.128 1377.66 L851.991 1381.92 
  L830.853 1386.31 L809.716 1390.23 L788.578 1392.82 L767.441 1394.92 L746.303 1396.57 L725.166 1397.74 L704.028 1399.38 L682.891 1399.96 L661.753 1399.93 L640.616 1400.58 
  L619.478 1401.06 L598.34 1400.94 L577.203 1399.27 L556.065 1397.11 L534.928 1394.1 L513.79 1390.87 L492.653 1385.2 L471.515 1377.69 L450.378 1369.19 L429.24 1358.32 
  L408.103 1344.6 L386.965 1326.94 L365.828 1306.01 L344.69 1283.06 L323.553 1254.35 L302.415 1223.88 L281.277 1192.73 L260.14 1172.68 L239.002 1166.23 L217.865 1170.65 
  L196.727 1189.04 L175.59 1233.39  Z
  " fill="#009af9" fill-rule="evenodd" fill-opacity="0.2"/>
<polyline clip-path="url(#clip742)" style="stroke:#009af9; stroke-width:12; stroke-opacity:1; fill:none" points="
  175.59,1233.39 196.727,1224.88 217.865,1221.66 239.002,1226.35 260.14,1239.18 281.277,1259.62 302.415,1285.76 323.553,1312.97 344.69,1338.46 365.828,1360.12 
  386.965,1377.51 408.103,1391.04 429.24,1401.21 450.378,1408.89 471.515,1414.71 492.653,1419.16 513.79,1422.5 534.928,1424.91 556.065,1426.74 577.203,1428.09 
  598.34,1429.1 619.478,1429.75 640.616,1430.15 661.753,1430.35 682.891,1430.37 704.028,1430.23 725.166,1429.94 746.303,1429.48 767.441,1428.87 788.578,1428.13 
  809.716,1427.23 830.853,1426.09 851.991,1424.82 873.128,1423.33 894.266,1421.64 915.404,1419.81 936.541,1417.76 957.679,1415.38 978.816,1412.73 999.954,1409.8 
  1021.09,1406.68 1042.23,1403.23 1063.37,1399.45 1084.5,1395.33 1105.64,1390.95 1126.78,1386.27 1147.92,1381.43 1169.05,1376.53 1190.19,1371.33 1211.33,1365.94 
  1232.47,1360.32 1253.6,1354.68 1274.74,1349.1 1295.88,1343.55 1317.02,1338.32 1338.15,1333.2 1359.29,1328.34 1380.43,1323.97 1401.57,1320.46 1422.7,1317.73 
  1443.84,1315.79 1464.98,1314.86 1486.12,1314.4 1507.25,1314.61 1528.39,1314.95 1549.53,1316.47 1570.67,1318.3 1591.8,1321.24 1612.94,1325.05 1634.08,1329.28 
  1655.22,1334.04 1676.35,1339.16 1697.49,1344.46 1718.63,1350.18 1739.77,1355.91 1760.9,1361.86 1782.04,1367.46 1803.18,1372.86 1824.32,1377.75 1845.46,1382.24 
  1866.59,1386.34 1887.73,1390.12 1908.87,1393.1 1930.01,1395.73 1951.14,1397.86 1972.28,1399.53 1993.42,1401.34 2014.56,1403.16 2035.69,1404.46 2056.83,1405.67 
  2077.97,1406.4 2099.11,1406.82 2120.24,1407.32 2141.38,1407.73 2162.52,1407.69 2183.66,1407.07 2204.79,1406.34 2225.93,1405.71 2247.07,1404.93 2268.21,1403.84 
  2289.34,1402.45 
  "/>
<path clip-path="url(#clip742)" d="
M175.59 1233.39 L196.727 1223.35 L217.865 1188.22 L239.002 1145.6 L260.14 1099.74 L281.277 1056.03 L302.415 1010.36 L323.553 976.616 L344.69 945.657 L365.828 928.738 
  L386.965 927.68 L408.103 933.842 L429.24 952.516 L450.378 977.738 L471.515 1002.94 L492.653 1037.09 L513.79 1068.48 L534.928 1098.04 L556.065 1128.17 L577.203 1152.43 
  L598.34 1178.05 L619.478 1201.21 L640.616 1222.71 L661.753 1243.1 L682.891 1260.6 L704.028 1279.18 L725.166 1295.25 L746.303 1307.35 L767.441 1318.83 L788.578 1331.03 
  L809.716 1342.35 L830.853 1350.81 L851.991 1359.87 L873.128 1367.7 L894.266 1375.01 L915.404 1380.45 L936.541 1385.55 L957.679 1390.41 L978.816 1394.92 L999.954 1398.93 
  L1021.09 1402.5 L1042.23 1405.81 L1063.37 1409.02 L1084.5 1411.17 L1105.64 1413.69 L1126.78 1415.64 L1147.92 1417.45 L1169.05 1419.7 L1190.19 1421.07 L1211.33 1422.69 
  L1232.47 1423.89 L1253.6 1425.26 L1274.74 1426.45 L1295.88 1427.58 L1317.02 1428.41 L1338.15 1429.58 L1359.29 1430.73 L1380.43 1431.41 L1401.57 1431.84 L1422.7 1432.42 
  L1443.84 1432.92 L1464.98 1433.3 L1486.12 1433.69 L1507.25 1433.9 L1528.39 1433.88 L1549.53 1433.91 L1570.67 1434.19 L1591.8 1434.39 L1612.94 1434.37 L1634.08 1434.32 
  L1655.22 1433.93 L1676.35 1433.63 L1697.49 1432.99 L1718.63 1432.43 L1739.77 1430.99 L1760.9 1429.8 L1782.04 1427.05 L1803.18 1424.17 L1824.32 1417.99 L1845.46 1409.68 
  L1866.59 1399.07 L1887.73 1387.11 L1908.87 1382.59 L1930.01 1379.39 L1951.14 1377.6 L1972.28 1377.78 L1993.42 1380.58 L2014.56 1382.31 L2035.69 1385.14 L2056.83 1388.29 
  L2077.97 1390.63 L2099.11 1393.33 L2120.24 1395.43 L2141.38 1397.88 L2162.52 1400.47 L2183.66 1402.96 L2204.79 1405.52 L2225.93 1407.78 L2247.07 1409.94 L2268.21 1411.27 
  L2289.34 1413.02 L2289.34 687.562 L2268.21 654.821 L2247.07 630.654 L2225.93 602.946 L2204.79 588.015 L2183.66 545.974 L2162.52 495.049 L2141.38 454.449 L2120.24 420.766 
  L2099.11 401.536 L2077.97 345.168 L2056.83 324.342 L2035.69 315.056 L2014.56 287.762 L1993.42 256.978 L1972.28 220.726 L1951.14 200.409 L1930.01 191.173 L1908.87 135.868 
  L1887.73 137.48 L1866.59 109.947 L1845.46 99.5887 L1824.32 90.4839 L1803.18 87.9763 L1782.04 105.042 L1760.9 107.835 L1739.77 108.142 L1718.63 147.187 L1697.49 162.565 
  L1676.35 158.259 L1655.22 171.22 L1634.08 202.126 L1612.94 244.402 L1591.8 277.176 L1570.67 307.717 L1549.53 350.922 L1528.39 363.944 L1507.25 391.022 L1486.12 428.356 
  L1464.98 466.284 L1443.84 507.411 L1422.7 550.334 L1401.57 594.791 L1380.43 650.164 L1359.29 690.692 L1338.15 753.678 L1317.02 804.027 L1295.88 853.941 L1274.74 902.265 
  L1253.6 948.459 L1232.47 988.369 L1211.33 1037.2 L1190.19 1072.97 L1169.05 1102.18 L1147.92 1123.59 L1126.78 1148.59 L1105.64 1168.16 L1084.5 1181.53 L1063.37 1187.98 
  L1042.23 1192.76 L1021.09 1194.63 L999.954 1188.98 L978.816 1182.48 L957.679 1175.57 L936.541 1167.79 L915.404 1157.11 L894.266 1148.98 L873.128 1131.14 L851.991 1113.34 
  L830.853 1099.69 L809.716 1074.24 L788.578 1051.16 L767.441 1025.89 L746.303 993.401 L725.166 956.747 L704.028 919.497 L682.891 882.883 L661.753 845.053 L640.616 806.215 
  L619.478 759.043 L598.34 711.219 L577.203 661.812 L556.065 607.931 L534.928 551.375 L513.79 492.125 L492.653 433.232 L471.515 374.109 L450.378 318.184 L429.24 267.266 
  L408.103 228.004 L386.965 195.161 L365.828 202.515 L344.69 245.159 L323.553 326.336 L302.415 457.75 L281.277 605.196 L260.14 758.688 L239.002 915.045 L217.865 1041.28 
  L196.727 1142.75 L175.59 1233.39  Z
  " fill="#e26f46" fill-rule="evenodd" fill-opacity="0.2"/>
<polyline clip-path="url(#clip742)" style="stroke:#e26f46; stroke-width:12; stroke-opacity:1; fill:none" points="
  175.59,1233.39 196.727,1184.99 217.865,1121.99 239.002,1044.26 260.14,953.46 281.277,856.042 302.415,764.83 323.553,689.182 344.69,636.612 365.828,610.214 
  386.965,609.312 408.103,624.65 429.24,653.626 450.378,689.908 471.515,729.942 492.653,773.081 513.79,816.764 534.928,859.475 556.065,902.132 577.203,940.959 
  598.34,978.221 619.478,1013.84 640.616,1047.33 661.753,1077.16 682.891,1105.31 704.028,1132.09 725.166,1156.04 746.303,1177.71 767.441,1198.09 788.578,1216.8 
  809.716,1233.93 830.853,1249.49 851.991,1262.71 873.128,1274.8 894.266,1285.81 915.404,1295.43 936.541,1304.02 957.679,1311.65 978.816,1317.95 999.954,1323.48 
  1021.09,1328.66 1042.23,1332.46 1063.37,1334.96 1084.5,1336.4 1105.64,1336.93 1126.78,1336.25 1147.92,1334.43 1169.05,1331.09 1190.19,1326.34 1211.33,1320.16 
  1232.47,1313.05 1253.6,1304.28 1274.74,1293.31 1295.88,1280.67 1317.02,1266.68 1338.15,1250.83 1359.29,1233.37 1380.43,1214.16 1401.57,1193.64 1422.7,1171.52 
  1443.84,1148.6 1464.98,1124.9 1486.12,1100.38 1507.25,1077.5 1528.39,1053.44 1549.53,1030.84 1570.67,1007.98 1591.8,985.812 1612.94,965.524 1634.08,947.289 
  1655.22,933.164 1676.35,920.523 1697.49,911.014 1718.63,902.917 1739.77,897.781 1760.9,897.019 1782.04,897.893 1803.18,901.537 1824.32,909.511 1845.46,919.037 
  1866.59,930.667 1887.73,945.172 1908.87,960.787 1930.01,978.025 1951.14,995.57 1972.28,1013.4 1993.42,1028.69 2014.56,1045.6 2035.69,1061.68 2056.83,1077.17 
  2077.97,1092.02 2099.11,1108.68 2120.24,1122.36 2141.38,1135.39 2162.52,1148.37 2183.66,1162.09 2204.79,1174.29 2225.93,1184.51 2247.07,1193.6 2268.21,1203.22 
  2289.34,1212.02 
  "/>
</svg>
